<svg width="117.44544321332279" height="128.93553496385607" xmlns="http://www.w3.org/2000/svg"><rect x="0" y="0" width="117.44544321332279" height="128.93553496385607" id="background" fill="#CCC5B8"/><g id="map" transform="translate(58.722721606661395 64.46776748192804)"><g fill="none"><path d="M 23.758773754793914,28.001775429924333 L 27.321671152942304,47.444826058124036 C 28.047147506196172,51.403815579744034 33.505739176791714,53.92869297045613 36.543749413847266,58.728941925114455 C 38.507393049508835,61.831623474516206 40.452976313810375,65.97678570701308 42.24168711294659,71.01939804011649 C 45.18156061671861,79.30729030030948 46.746281408289505,88.3635418387207 50.134603266487986,97.04335657941587 C 52.20689500460435,102.35191613434749 54.27443710095161,107.67219581271355 57.90569004416069,111.14564614481472 C 62.768428905295636,115.79706596499493 70.24064323482712,118.68026612952781 77.58245517854972,123.29841284524566 C 83.77751334269959,127.19522847247126 91.52102369026754,131.17302412977068 99.3467323769318,137.21289153491838 C 110.23489575456229,145.61635577305694 118.31870593193887,157.4407441151725 129.9315238030719,163.70132661762955 C 137.4075903990012,167.73174647240268 137.4075903990012,167.73174647240268 155.1798585503488,167.31307020453073" stroke="#67635C" stroke-width="2.3" stroke-linejoin="round" stroke-linecap="butt"/><path d="M 23.758773754793914,28.001775429924333 L 27.321671152942304,47.444826058124036 C 28.047147506196172,51.403815579744034 33.505739176791714,53.92869297045613 36.543749413847266,58.728941925114455 C 38.507393049508835,61.831623474516206 40.452976313810375,65.97678570701308 42.24168711294659,71.01939804011649 C 45.18156061671861,79.30729030030948 46.746281408289505,88.3635418387207 50.134603266487986,97.04335657941587 C 52.20689500460435,102.35191613434749 54.27443710095161,107.67219581271355 57.90569004416069,111.14564614481472 C 62.768428905295636,115.79706596499493 70.24064323482712,118.68026612952781 77.58245517854972,123.29841284524566 C 83.77751334269959,127.19522847247126 91.52102369026754,131.17302412977068 99.3467323769318,137.21289153491838 C 110.23489575456229,145.61635577305694 118.31870593193887,157.4407441151725 129.9315238030719,163.70132661762955 C 137.4075903990012,167.73174647240268 137.4075903990012,167.73174647240268 155.1798585503488,167.31307020453073" stroke="#CCC5B8" stroke-width="1.7" stroke-linejoin="round" stroke-linecap="round"/></g><g fill="none"><path d="M -2.8764953707121603,35.10646098705103 L -1.0914037706390283,51.82313956827337 C -0.6885150291844483,55.59603368452683 -1.4072107639410294,61.86531751654522 0.3734701178950582,70.07469473565739 C 1.5912952679592287,75.6891684719565 5.392476368626336,81.27778357444969 6.798314053443599,88.19668096523728 C 8.475579517670727,96.45142315164242 12.431747431773521,105.92155561132785 9.48123295157062,114.89898504056626 C 6.872311462480889,122.83706116656988 -3.0051973461955077,127.99347106948169 -9.223351387212366,136.94525406916105 C -16.778871242704927,147.82233651999684 -22.320012448103824,159.4339013126626 -28.70511497812307,169.87284029761173 C -32.569834108605704,176.19123017583226 -36.55920176444612,183.0192604371976 -41.49429388243092,189.70468872359143 C -50.56392695990651,201.99106151537796 -50.56392695990651,201.99106151537796 -69.91382085585263,225.69709673178636" stroke="#67635C" stroke-width="2.3" stroke-linejoin="round" stroke-linecap="butt"/><path d="M -2.8764953707121603,35.10646098705103 L -1.0914037706390283,51.82313956827337 C -0.6885150291844483,55.59603368452683 -1.4072107639410294,61.86531751654522 0.3734701178950582,70.07469473565739 C 1.5912952679592287,75.6891684719565 5.392476368626336,81.27778357444969 6.798314053443599,88.19668096523728 C 8.475579517670727,96.45142315164242 12.431747431773521,105.92155561132785 9.48123295157062,114.89898504056626 C 6.872311462480889,122.83706116656988 -3.0051973461955077,127.99347106948169 -9.223351387212366,136.94525406916105 C -16.778871242704927,147.82233651999684 -22.320012448103824,159.4339013126626 -28.70511497812307,169.87284029761173 C -32.569834108605704,176.19123017583226 -36.55920176444612,183.0192604371976 -41.49429388243092,189.70468872359143 C -50.56392695990651,201.99106151537796 -50.56392695990651,201.99106151537796 -69.91382085585263,225.69709673178636" stroke="#CCC5B8" stroke-width="1.7" stroke-linejoin="round" stroke-linecap="round"/></g><g fill="none"><path d="M -3.881835316663583,-36.20438751315513 L -11.902569740423738,-43.365365305511105 C -13.512184863543883,-44.80244295226107 -16.4376648599911,-48.806393420680735 -15.930086828652657,-54.532181889461086 C -15.426473895003928,-60.21324164811683 -11.252356983721345,-65.50904723766335 -9.37330138911192,-71.89704844830646 C -8.022002379492259,-76.49089853669912 -7.515832503320703,-81.51673718808561 -6.4930062291380795,-86.61429934653725 C -5.355336145869983,-92.28422014506624 -2.751276227688475,-99.10137746774794 -2.230179163721238,-107.49694499813344 C -1.5845228989871192,-117.89932710085158 -3.5115583415374436,-128.54448594757096 -3.221178944625548,-139.32779326983024 C -3.022645385128379,-146.70038377937516 -1.5193337579640351,-154.27100260155123 -0.7586976873231543,-162.14075632826967 C 0.4691683770368609,-174.84460237092014 1.3292501176487934,-186.72564346328556 2.4164668572381993,-197.65645499337188 C 2.9037372320464625,-202.5554419545505 2.9037372320464625,-202.5554419545505 4.2331683358305385,-212.32867626697606" stroke="#67635C" stroke-width="2.3" stroke-linejoin="round" stroke-linecap="butt"/><path d="M -3.881835316663583,-36.20438751315513 L -11.902569740423738,-43.365365305511105 C -13.512184863543883,-44.80244295226107 -16.4376648599911,-48.806393420680735 -15.930086828652657,-54.532181889461086 C -15.426473895003928,-60.21324164811683 -11.252356983721345,-65.50904723766335 -9.37330138911192,-71.89704844830646 C -8.022002379492259,-76.49089853669912 -7.515832503320703,-81.51673718808561 -6.4930062291380795,-86.61429934653725 C -5.355336145869983,-92.28422014506624 -2.751276227688475,-99.10137746774794 -2.230179163721238,-107.49694499813344 C -1.5845228989871192,-117.89932710085158 -3.5115583415374436,-128.54448594757096 -3.221178944625548,-139.32779326983024 C -3.022645385128379,-146.70038377937516 -1.5193337579640351,-154.27100260155123 -0.7586976873231543,-162.14075632826967 C 0.4691683770368609,-174.84460237092014 1.3292501176487934,-186.72564346328556 2.4164668572381993,-197.65645499337188 C 2.9037372320464625,-202.5554419545505 2.9037372320464625,-202.5554419545505 4.2331683358305385,-212.32867626697606" stroke="#CCC5B8" stroke-width="1.7" stroke-linejoin="round" stroke-linecap="round"/></g><g fill="none"><polyline points="-41.49429388243092,189.70468872359143 -70.64278409025306,151.15912843252113 -72.85905317069263,127.3660446003183 -65.84098711955268,119.47610894710935 -38.15144178380407,108.5530647507411 -34.33323780148727,82.21997641225623 -37.63369535251114,69.9893216232642 -35.1441314857407,53.05303845603782 -35.236519639185325,37.64008494630793 -26.196894703889026,25.6807306367399 -21.16493443417372,11.34740882878325 -10.662989978844674,-1.7495641344611224 5.6288596961477975,-11.228401790417182 19.722802977717862,-18.954692547199084 31.91312625129285,-29.122492252984152 47.7973492666156,-38.65454152403941 57.10395780262388,-45.258957385272865 65.81816381655855,-63.397694184637615 79.5098578054447,-77.24066733785801 89.39939888002318,-106.73686137350455 94.18034272506381,-118.51645798287025 113.65921276001912,-154.93927367294964" stroke="#99948A" stroke-width="4.951331143412428" stroke-linejoin="round" stroke-linecap="butt"/><polyline points="-41.49429388243092,189.70468872359143 -70.64278409025306,151.15912843252113 -72.85905317069263,127.3660446003183 -65.84098711955268,119.47610894710935 -38.15144178380407,108.5530647507411 -34.33323780148727,82.21997641225623 -37.63369535251114,69.9893216232642 -35.1441314857407,53.05303845603782 -35.236519639185325,37.64008494630793 -26.196894703889026,25.6807306367399 -21.16493443417372,11.34740882878325 -10.662989978844674,-1.7495641344611224 5.6288596961477975,-11.228401790417182 19.722802977717862,-18.954692547199084 31.91312625129285,-29.122492252984152 47.7973492666156,-38.65454152403941 57.10395780262388,-45.258957385272865 65.81816381655855,-63.397694184637615 79.5098578054447,-77.24066733785801 89.39939888002318,-106.73686137350455 94.18034272506381,-118.51645798287025 113.65921276001912,-154.93927367294964" stroke="#67635C" stroke-width="4.351331143412429" stroke-linejoin="round" stroke-linecap="round"/><polyline points="-41.49429388243092,189.70468872359143 -70.64278409025306,151.15912843252113 -72.85905317069263,127.3660446003183 -65.84098711955268,119.47610894710935 -38.15144178380407,108.5530647507411 -34.33323780148727,82.21997641225623 -37.63369535251114,69.9893216232642 -35.1441314857407,53.05303845603782 -35.236519639185325,37.64008494630793 -26.196894703889026,25.6807306367399 -21.16493443417372,11.34740882878325 -10.662989978844674,-1.7495641344611224 5.6288596961477975,-11.228401790417182 19.722802977717862,-18.954692547199084 31.91312625129285,-29.122492252984152 47.7973492666156,-38.65454152403941 57.10395780262388,-45.258957385272865 65.81816381655855,-63.397694184637615 79.5098578054447,-77.24066733785801 89.39939888002318,-106.73686137350455 94.18034272506381,-118.51645798287025 113.65921276001912,-154.93927367294964" stroke="#CCC5B8" stroke-width="2.970798686047457" stroke-linejoin="round" stroke-linecap="butt"/><polyline points="-41.49429388243092,189.70468872359143 -70.64278409025306,151.15912843252113 -72.85905317069263,127.3660446003183 -65.84098711955268,119.47610894710935 -38.15144178380407,108.5530647507411 -34.33323780148727,82.21997641225623 -37.63369535251114,69.9893216232642 -35.1441314857407,53.05303845603782 -35.236519639185325,37.64008494630793 -26.196894703889026,25.6807306367399 -21.16493443417372,11.34740882878325 -10.662989978844674,-1.7495641344611224 5.6288596961477975,-11.228401790417182 19.722802977717862,-18.954692547199084 31.91312625129285,-29.122492252984152 47.7973492666156,-38.65454152403941 57.10395780262388,-45.258957385272865 65.81816381655855,-63.397694184637615 79.5098578054447,-77.24066733785801 89.39939888002318,-106.73686137350455 94.18034272506381,-118.51645798287025 113.65921276001912,-154.93927367294964" stroke="#67635C" stroke-width="2.670798686047457" stroke-linejoin="round" stroke-linecap="round"/><g fill="none"><line x1="4.465097538945823" y1="-13.967058986216298" x2="7.09240690298082" y2="-8.63753028298789" stroke="#1A1917" stroke-width="2.3" stroke-linejoin="round" stroke-linecap="butt"/><line x1="4.465097538945823" y1="-13.967058986216298" x2="7.09240690298082" y2="-8.63753028298789" stroke="#CCC5B8" stroke-width="1.7" stroke-linejoin="round" stroke-linecap="round"/></g><g fill="none"><line x1="-12.604730080944949" y1="-4.004388067838912" x2="-8.7212498767444" y2="0.505259798916667" stroke="#1A1917" stroke-width="1.3" stroke-linejoin="round" stroke-linecap="butt"/><line x1="-12.604730080944949" y1="-4.004388067838912" x2="-8.7212498767444" y2="0.505259798916667" stroke="#CCC5B8" stroke-width="0.7" stroke-linejoin="round" stroke-linecap="round"/></g></g><g fill-rule="nonzero" fill="#99948A" stroke="#1A1917" stroke-width="0.3"><path d="M -0.1291937534986798,-1.945360149536655 L 0.7785368670483447,-2.4734911695958903 L 1.623660704608414,-1.0209258849030105 L 0.7159300840613895,-0.4927948648437751 Z"/></g><g fill="#899E94" stroke="#17302D" stroke-width="0.3"><polygon points="-3.857879181851616,5.853162297400748 -5.676045094238515,8.120596666199042 -10.15108956141566,13.701423783047378 -13.044748846549764,12.848489190452861 -16.982753354483826,11.687723550950682 -11.109708345395271,4.363450220127769 -8.72354876290187,1.3876710517239133 -5.918810513965276,3.961732830562976"/><polygon points="-0.37144952406450715,16.58406906676555 -2.8081276168520617,15.865834184368394 -0.7087009370954176,8.743335509696706 0.8896823692178023,10.210259340565845"/><polygon points="-1.9345003806885401,12.901973197113987 -2.8081276168520617,15.865834184368394 -10.15108956141566,13.701423783047378 -8.061813026301206,11.095887407424115"/><polygon points="-1.9345003806885401,12.901973197113987 -4.35635037507504,10.95998750381181 -6.54535422556674,9.204711921058337 -4.778958911798821,7.001840656101228 -3.857879181851616,5.853162297400748 -2.362806135605859,7.22527264900764 -0.7087009370954176,8.743335509696706 -1.1288198227068702,10.168627583397022"/></g><g fill="#A3857C" stroke="#301615" stroke-width="0.3"><polygon points="-15.57186351907792,-15.139191996926197 -14.408505626837936,-15.892049106347812 -12.4857262455186,-17.13635933687225 -11.96321433194446,-16.32894402414061 -11.248473607453684,-15.22448575133441 -13.17125298877302,-13.980175520809972 -14.334610881013004,-13.227318411388355 -15.04935160550378,-14.331776684194558"/><polygon points="-15.57186351907792,-15.139191996926197 -14.714687670945777,-13.814634819365457 -13.606904948710287,-12.102825557459393 -12.762285288828652,-10.797670920586492 -14.414110722945919,-9.72870621944524 -15.183633779660253,-9.230715955249112 -16.062752361256813,-10.513544910013604 -17.215783034998545,-12.196072347121412 -18.1079706687725,-13.497971947070132 -17.301976433172904,-14.019564222733159"/><polygon points="-12.060662580750362,-11.251720054934413 -11.106001125819624,-9.77652253855018 -14.18997868965059,-7.780752836282199 -15.183633779660253,-9.230715955249112"/><polygon points="-14.18997868965059,-7.780752836282199 -12.651717078602088,-8.776225680669208 -11.106001125819624,-9.77652253855018 -10.225206955368998,-8.415468977642831 -9.10156726560961,-6.679156622008804 -10.65440800888236,-5.775691048444744 -12.199760050535682,-4.876582511578205 -13.315431013095715,-6.504593845569994"/><polygon points="-8.293671141012544,-9.40371959450387 -7.721313434286069,-9.774115988868461 -6.643819363249994,-8.109110484245388 -7.233755349999808,-7.765877054195322"/><polygon points="-9.10156726560961,-6.679156622008804 -9.716625605482037,-7.629579969180646 -10.105827999767099,-8.230997783270327 -9.216522396455662,-8.806504297961494 -8.293671141012544,-9.40371959450387 -7.882899565890888,-8.768971847759797 -7.233755349999808,-7.765877054195322 -8.184949261787764,-7.212458452315422"/><polygon points="-11.256614792297317,-15.237065976082897 -11.971384455217798,-16.341568966206857 -12.4857262455186,-17.13635933687225 -11.757314303055978,-17.607744895115808 -10.558102633946078,-18.383804469570915 -10.043760843645273,-17.589014098905523 -9.328991180724792,-16.484511108781565 -10.528202849834694,-15.708451534326457"/><polygon points="-10.558102633946078,-18.383804469570915 -9.566544604026612,-19.025482767546453 -5.282300227237856,-15.601153857707066 -7.731590705753112,-14.016116474036227"/><polygon points="-6.643819363249994,-8.109110484245388 -7.580412981944688,-9.556388546037432 -8.204734632097898,-10.521126090403605 -6.5413114649736315,-11.597596165261523 -5.8965564139097575,-10.60128376038432 -4.822167835854788,-11.26798156877824 -3.835361789126487,-9.743112389481432 -4.929309056238588,-9.106637786781834"/><polygon points="-5.856267892810907,-12.865932159362348 -6.222978395606472,-13.432594215489123 -6.934440150860637,-14.531985637372241 -5.980333518273011,-15.149427583897271 -5.282300227237856,-15.601153857707066 -4.203912411554164,-14.739215497404633 -3.648076296432692,-14.294944463647699 -4.581042823793234,-13.69118315540285"/><polygon points="-5.856267892810907,-12.865932159362348 -4.422269903733247,-13.793931692588288 -2.3573227783089794,-10.603057215403448 -3.835361789126487,-9.743112389481432"/><polygon points="-4.422269903733247,-13.793931692588288 -3.648076296432692,-14.294944463647699 -0.43116940926806535,-11.723721562904561 -2.3573227783089794,-10.603057215403448"/><polygon points="-1.5006319728671993,-19.331367509072322 -2.451144209739915,-20.80015341624942 -3.7419677652979395,-22.79480784941454 -2.4290909201256476,-23.64442487034681 -1.099394751896408,-24.50492637233478 -0.15619369563267893,-22.285311012068615 0.5383428596925584,-20.6508726320132 -0.48763334161613336,-19.986920908811847"/><polygon points="-3.8837417025342833,-17.78915843095521 -5.24351234201824,-19.89035384411292 -6.125077494965023,-21.25259877129743 -4.918154295880416,-22.03364879641669 -4.036589142933632,-20.67140386923218 -2.860402612351156,-21.43256292223003 -1.500631972867199,-19.331367509072322 -2.6768185034496756,-18.57020845607447"/><polygon points="-6.125077494965023,-21.25259877129743 -4.974790564903415,-19.475109574900326 -3.8837417025342833,-17.78915843095521 -4.65206513957185,-17.291944490372206 -5.637653298664281,-16.654129543240327 -6.728702161033414,-18.34008068718544 -5.743114001940983,-18.97789563431732 -6.89340093200259,-20.755384830714423"/><polygon points="-2.7007511480525226,-18.55472064982267 -1.6171880784613824,-16.88033698129748 -0.7089448502459164,-15.476867565395 -1.5808142727715009,-14.912644725962627 -2.618601850158303,-14.241049371758491 -3.5268450783737686,-15.644518787660969 -2.4890575009869664,-16.316114141865103 -3.5726205705781067,-17.990497810390295"/><polygon points="-0.7089448502459164,-15.476867565395 1.1315005892905194,-12.632905941698969 0.1255956234567141,-12.047655644239232 -2.618601850158303,-14.241049371758491"/><polygon points="1.1315005892905194,-12.632905941698969 -2.7007511480525226,-18.55472064982267 0.5383428596925586,-20.6508726320132 3.387680925279366,-13.9455848304703"/></g><g fill="#898C95" stroke="#171D2E" stroke-width="0.3"><polygon points="16.436303966926907,25.158546880005208 16.14977862347704,22.880372974939288 15.966334652706013,21.421802985212178 19.62794678717163,20.96128297307658 21.830573641765206,20.684259162646242 22.014017612536232,22.142829152373352 22.3005429559861,24.421003057439272 20.097916101392524,24.69802686786961"/><polygon points="22.3005429559861,24.421003057439272 22.670358709618622,27.361422182197472 16.637860178298546,26.761127983729324 16.436303966926907,25.158546880005208"/><polygon points="15.966334652706013,21.421802985212178 15.622551872827149,18.688373025052 15.392063207073141,16.85574887595603 18.569933832175405,15.938825027401755 21.140460167864724,15.197140680055321 21.41744300416593,17.399441747789528 21.830573641765206,20.684259162646242 19.20824591057857,21.014068643891537"/><polygon points="10.73828449087586,24.019105946276728 9.187918891133345,18.645855697241302 11.189495997808475,18.068332569227987 12.739861597550988,23.441582818263413"/><polygon points="16.098481385397086,22.472506683641573 16.491163550174928,25.59473751324426 11.378442603435332,26.23776310579028 10.73828449087586,24.019105946276728"/><polygon points="21.140460167864724,15.197140680055321 14.253652029441616,17.184219251680503 13.38961520808455,14.189644251884522 20.746765082364092,12.066856079254642"/><polygon points="16.724844949357884,8.014610376923889 19.056566171732666,9.597600167425922 20.56500422310843,10.62166857321102 19.62455368795568,11.57794691182684 18.19442422572773,10.607041678354152 17.17144215036752,11.804803342299673 15.104400057624684,10.401502425384171 15.983751261876824,9.106230733059947"/><polygon points="12.001163183941905,9.377553358138393 11.18128898727865,6.536036987980138 13.54312986998664,5.854565497372887 14.363004066649898,8.696081867531145"/><polygon points="12.910504280647435,12.529143715369376 9.694868791384689,13.456964012732056 7.844771142339166,13.990780160930175 7.132404426913618,11.521862744482991 8.906052468431866,10.7230878841251 7.833956215588415,7.007421425492533 10.736120607695113,4.993174383922625 11.98881168965993,9.334745603801212"/><polygon points="9.187918891133345,18.645855697241302 7.844771142339166,13.990780160930175 10.620515836722351,13.189883331564744 11.963663585516532,17.84495886787587"/><polygon points="5.64335730380337,8.527806483392817 6.117237309366587,10.170177713977624 6.747808881217873,12.355609883039754 5.557825642413692,12.698960553901095 4.993484754953419,10.743070398320755 3.228079845466499,11.643079527178006 2.8821655940708384,10.444211442278977 4.569377683167609,9.273201981819987"/><polygon points="3.2181999175834264,13.374022215267162 5.234329208014925,12.792300286890685 6.747808881217873,12.355609883039754 7.206064650920888,13.94383070597829 7.775660712386404,15.917934220418683 6.2621810391834565,16.35462462426961 5.6925849777179405,14.380521109829218 3.676455687286442,14.962243038205695"/><polygon points="7.775660712386404,15.917934220418683 8.523742701321527,18.510633474073533 8.921879287942419,19.890493497777697 7.39935103372189,20.329794725261614 5.392270324307972,20.908905830005104 4.99413373768708,19.52904580630094 4.246051748751958,16.93634655264609 6.253132458165876,16.3572354479026"/><polygon points="4.279180539578119,17.05116416959172 4.7870051089881525,18.811180319654614 5.392270324307972,20.908905830005104 3.678281275779375,21.40345001388173 2.5242592922769256,21.736424638484408 1.918994076957106,19.638699128133922 1.4111695075470738,17.87868297807103 2.5651914910495224,17.545708353468353"/><polygon points="8.921879287942419,19.890493497777697 10.734802407979767,26.173714441173644 0.37981177102766495,25.143288860084596 0.7925485666656016,22.236082129436912"/></g><g fill="#A3977C" stroke="#302814" stroke-width="0.3"><polygon points="20.160546077700424,-3.6414486017531846 17.19439788960022,-3.4596153491388337 16.59268117582945,-13.2750969216217 19.473173932523924,-14.854181221622266"/><polygon points="16.979396214375765,-6.966822200671564 14.84722711538991,-6.836114219206644 11.385909511901827,-6.623925684359145 11.2795436728401,-8.359014488373637 11.160721304174267,-10.297299969475576 14.622038907662349,-10.509488504323075 14.740861276328182,-8.571203023221136 16.873030375314038,-8.701911004686057"/><polygon points="11.240026658722682,-9.003634315265817 11.385909511901827,-6.623925684359145 8.639657116228298,-6.455572664234043 7.824825143765016,-8.46856381275656"/><polygon points="16.979396214375765,-6.966822200671564 17.19439788960022,-3.4596153491388337 10.030158173650106,-3.0204272413813142 8.639657116228298,-6.455572664234043"/><polygon points="10.030158173650106,-3.0204272413813142 13.58983628902724,-3.2386455531217395 20.160546077700424,-3.6414486017531846 20.313349252910232,-1.148852474433177 20.574756430079475,3.11534240614467 15.209875253800623,2.778235037138613 12.303454071157757,2.595607320715676 10.86878238797858,-0.9486588554691635"/><polygon points="20.574756430079475,3.11534240614467 20.73772612724087,5.773779545668987 17.29566770059876,5.98478743863803 17.13269800343737,3.326350299113714"/></g><g fill="#899E81" stroke="#17301A" stroke-width="0.3"><polygon points="-10.028064153605326,17.574474661511946 -14.052641965538253,16.161577084567686 -13.406108561245903,14.31995456638348 -9.309434669867008,15.527489570413477"/><polygon points="-17.462796489807566,17.885900841988818 -19.52285740543212,17.16268086412844 -18.04484977622218,12.952639876408217 -15.947885035556395,13.570740900241072"/><polygon points="-13.406108561245903,14.31995456638348 -14.965751942783607,18.762531473791054 -17.462796489807566,17.885900841988818 -15.947885035556395,13.570740900241072"/><polygon points="-7.966931687266556,25.101745839874656 -6.859284658904371,21.946661050614125 -5.6480235867578665,22.37189517798232 -6.211765898178146,25.71792711563124"/><polygon points="-10.37126928356625,28.675733665630844 -8.990416420972355,24.742433840488108 -6.211765898178146,25.71792711563124 -8.4388277244507,29.354150663400212"/><polygon points="-14.26144884309808,29.633088370480934 -13.535381670402177,27.564917343162307 -8.4388277244507,29.354150663400212 -9.837700725116573,31.421096212973993"/><polygon points="-6.696097497207097,16.297796457656936 -7.623036566601994,18.93814241944185 -10.190382437680473,18.03683129317431 -9.309434669867008,15.527489570413477"/><polygon points="-8.47953590836762,21.377843855026583 -6.696097497207097,16.297796457656936 -4.72265801074081,16.879487195418086 -5.6480235867578665,22.37189517798232"/><polygon points="-3.6325908773459634,33.929101817146396 -9.268197485243924,31.651280263254442 -7.617946155564583,29.212903341307076 -2.732485403937722,30.001650972413245"/><polygon points="-5.718666275409047,26.406567030710008 -5.31609329783985,24.01713836287186 -5.129260563746407,22.908212737438596 -3.4102800987148867,23.197828030627964 -1.4118467658631433,23.53452578106031 -1.6592327182019304,24.837346458773393 -2.1922811688658665,27.64456545072669 -4.088019960549649,26.97903359360928"/><polygon points="-5.129260563746407,22.908212737438596 -4.772293514784794,20.789473160299814 -1.1097366914593292,21.40654385411405 -1.4118467658631433,23.53452578106031"/><polygon points="-1.1097366914593292,21.40654385411405 -2.8831240208628905,21.107762046064764 -4.772293514784794,20.789473160299814 -4.517676532160426,19.27822140844437 -4.142354431673172,17.05053739449854 -2.3347672161081876,17.583341540863522 -0.6379622046001403,18.08349154077475 -0.9190487352050554,20.06338929233327"/></g><g fill="#A3857C" stroke="#301615" stroke-width="0.3"><polygon points="-16.815900569091276,0.36781754687240253 -17.942480167695283,1.772774753285003 -18.718252142168286,2.7402398373495007 -19.643866189731394,1.9980265532677066 -21.28290947689976,0.6837425878026009 -20.50713750242676,-0.2837224962618967 -19.380557903822755,-1.6886797026744964 -17.74151461665439,-0.3743957372093911"/><polygon points="-19.380557903822755,-1.6886797026744966 -18.331992178130708,-2.996345822790458 -16.283241033942364,-0.2964620596455756 -16.815900569091276,0.36781754687240253"/><polygon points="-22.49956147912897,-2.689171826077932 -20.112887115769176,-0.7753920796201399 -21.28290947689976,0.6837425878026009 -23.7027813552049,-1.2566569324753982"/><polygon points="-22.49956147912897,-2.689171826077932 -21.428688013578427,-3.964119339052785 -20.18760686816013,-5.441710642463741 -19.110319166375298,-4.022040136099329 -20.18589646281339,-2.710116421654133 -19.287994998682528,-1.8041148843379997 -20.112887115769176,-0.7753920796201399 -21.113964052234337,-1.5781160687260731"/><polygon points="-19.784528857086197,4.069993328811799 -22.236328053676093,2.1039925551621206 -21.170051338758178,0.7742390636998189 -18.718252142168286,2.7402398373495007"/><polygon points="-22.236328053676093,2.1039925551621206 -19.784528857086197,4.069993328811799 -20.88916630515974,5.447586483407586 -23.340965501749633,3.4815857097579044"/><polygon points="-23.7027813552049,-1.2566569324753982 -21.170051338758178,0.7742390636998189 -22.35959356401192,2.2577169500145082 -24.926074940358134,0.1997570736624694"/><polygon points="-22.004486090418837,6.838501578706692 -25.169145360661734,4.300886515332531 -24.053825575402637,2.9099714200334263 -20.88916630515974,5.447586483407586"/><polygon points="-22.7216813771367,-3.5259719145200625 -24.277440151021743,-4.344145958217267 -22.26234837728672,-8.175845009687121 -20.62663355779954,-6.02026847966474"/><polygon points="-26.889698628235053,-8.252447507263563 -26.58189513284054,-8.837736165931544 -22.577469156784446,-8.591117249270189 -22.26234837728672,-8.175845009687121 -23.233313690113675,-6.329553482590449"/><polygon points="-16.471094838404355,-5.405539648604997 -15.596664341187825,-4.2531982780434126 -14.387851728311366,-2.660201707694771 -14.941112141793717,-1.9702307496656744 -15.752607627839062,-0.958214881010262 -17.147616692027942,-2.7965847252577984 -18.156737921097143,-4.126424139447909 -17.154440181873486,-4.886997119693528"/><polygon points="-16.471094838404355,-5.405539648604997 -15.325240896645417,-6.275047294192248 -14.70983177142352,-6.7420378241747985 -13.845817068743795,-5.481248778029442 -14.38348205151554,-4.954494698996874 -13.519545576526859,-3.7430661469529527 -14.387851728311366,-2.660201707694771 -15.384581181517248,-3.973711000706027"/><polygon points="-19.24397278835862,-5.559203212285066 -17.98181626126642,-6.516964677546404 -17.156175015929243,-7.143485518615243 -16.568088404171913,-6.3684936417782305 -16.068940148667764,-5.710706445778086 -16.89458139400494,-5.084185604709247 -18.156737921097143,-4.126424139447909 -18.65588617660129,-4.784211335448053"/><polygon points="-19.24397278835862,-5.559203212285066 -19.78450778210676,-6.271530649988779 -20.403801509878264,-7.08764786606489 -19.232887394375823,-7.976171907962014 -18.316003737448884,-8.671930172395065 -17.696710009677386,-7.855812956318955 -18.613593666604324,-7.160054691885903 -18.07305867285618,-6.447727254182191"/><polygon points="-16.068940148667764,-5.710706445778086 -18.316003737448884,-8.671930172395065 -16.81364332714588,-9.81196540339563 -14.70983177142352,-6.7420378241747985"/><polygon points="-20.403801509878264,-7.08764786606489 -20.988275187796027,-7.857878549021217 -21.753654141875298,-8.866509693234729 -20.815256645024622,-9.578593291654864 -19.167953566590153,-10.828615278837164 -18.077441815046267,-11.656127644082082 -17.360856358302655,-10.610470560137397 -16.81364332714588,-9.81196540339563 -17.8786279744141,-9.003823755070638 -19.487370370309122,-7.783062747028174"/><polygon points="-21.872954755358773,-9.917100764172343 -20.43954977463057,-12.646905675774452 -19.769428003769182,-11.76380628441556 -20.984179278294373,-9.450409833198272"/><polygon points="-18.077441815046267,-11.656127644082082 -19.09930623290779,-10.88070689305666 -20.43954977463057,-12.646905675774452 -19.169901821829363,-13.250269046574598"/><polygon points="-27.770579394056572,-16.119591279691548 -26.400843563929982,-15.662625716470073 -25.30201367713735,-15.296038665844128 -25.69851522316251,-14.10754128660502 -25.877829324979082,-13.570054504507857 -26.976659211771718,-13.936641555133802 -28.346395041898305,-14.393607118355279 -28.167080940081732,-14.931093900452442"/><polygon points="-21.66851309696878,-10.30644351846188 -22.150207430510118,-9.389095263592528 -27.16953512470271,-9.698218510148148 -26.436002339382906,-11.896953424748526"/><polygon points="-23.851546814187436,-11.034738135700668 -23.123822237871657,-13.216063178262573 -22.717558151941876,-14.43382337679627 -21.030897072723917,-13.871126531845263 -19.980692913815957,-13.520761794048662 -20.58537331914256,-12.369196421664123 -21.66851309696878,-10.30644351846188 -22.506198145147923,-10.585908515597872"/><polygon points="-23.851546814187436,-11.034738135700668 -24.7964649641005,-11.349977793652313 -26.436002339382906,-11.896953424748526 -25.99154837885964,-13.229186230823954 -25.30201367713735,-15.296038665844128 -23.66247630185494,-14.749063034747914 -22.717558151941876,-14.43382337679627 -23.40709285366417,-12.366970941776096"/></g><g fill="#958595" stroke="#23162E" stroke-width="0.3"><polygon points="17.160587376427152,-25.593700050504797 18.630570644985664,-27.42739835448588 21.60032734264256,-25.046694479825895 19.6005421569984,-23.37869808909007"/><polygon points="22.852543909196754,-28.289063946710648 24.196226049016722,-27.211901875115785 21.60032734264256,-25.046694479825895 20.780290294250655,-25.704076742828"/><polygon points="2.80314508904112,-38.28540775529309 3.573075193667531,-36.455544321470086 4.969978316963773,-33.13557809264825 3.39374116134066,-32.835432155335845 1.9780865732775337,-35.93168280415272 0.1329093409887684,-35.3256487972205 -0.6593124027111759,-36.88956036933062 1.197821237102783,-37.63824108026849"/><polygon points="6.020783683106719,-30.63816916680429 0.48074083353274455,-25.900298650071427 -0.3595003768996303,-28.514260599206235 3.8380150921076712,-32.29542199154234"/><polygon points="1.2338858356888858,-24.127938235298902 2.2626560178019615,-24.565102772809276 3.348447918807957,-25.02649806058952 3.8591122615024362,-23.824762320942554 4.4147859946441095,-22.51710692214195 3.328994093638114,-22.055711634361703 2.3002239115250376,-21.61854709685133 1.7445501783833648,-22.926202495651935"/><polygon points="3.348447918807957,-25.02649806058952 1.2338858356888858,-24.127938235298902 0.8078464960764544,-25.130527721391456 2.9224085791955243,-26.029087546682074"/><polygon points="4.4147859946441095,-22.51710692214195 3.3609179912182063,-24.997152499447907 7.630840411089835,-26.811608917745602 8.675912656700742,-24.32782568020794"/><polygon points="6.334437326082443,-26.26071673119311 3.3609179912182063,-24.997152499447907 2.6131798758019693,-26.756789000501918 5.586699210666204,-28.020353232247125"/><polygon points="6.334437326082443,-26.26071673119311 5.15185857118995,-29.04365463361831 6.268468128131383,-30.04950701896258 7.630840411089835,-26.811608917745602"/><polygon points="5.898409134559708,-39.53322559481673 6.57792783826947,-37.84765119026007 4.066521239995616,-36.8352083390078 3.36160923402481,-38.51054574436188"/><polygon points="6.57792783826947,-37.84765119026007 7.1468363754547495,-36.43644990385242 7.658563635338801,-35.16708915386064 6.518219846269055,-34.70737350367197 5.187539901111623,-34.17092616029659 4.656689628256023,-35.43257770151638 4.066521239995616,-36.8352083390078 5.418947907602776,-37.3804226075388"/><polygon points="6.5212242347326335,-31.00120961110429 10.03817877416834,-32.48099718785084 10.656448426984982,-31.01157934961658 7.175005569619793,-29.447392516231115"/><polygon points="6.5212242347326335,-31.00120961110429 5.187539901111623,-34.17092616029659 6.786343086006298,-34.81546410816156 8.109956834988504,-31.66968193233256"/><polygon points="10.570066436452061,-25.13272542895231 9.364101210920335,-27.97069822463652 11.375408301279055,-28.82538098006203 12.581373526810781,-25.987408184377816"/><polygon points="9.364101210920335,-27.97069822463652 10.570066436452061,-25.13272542895231 9.230031004942159,-24.56329215818985 8.034130965963774,-27.405542043841336"/><polygon points="10.824043203467198,-30.122896957266008 11.375408301279055,-28.82538098006203 8.034130965963774,-27.405542043841336 7.516122710275573,-28.63667245400008"/><polygon points="2.3002239115250376,-21.61854709685133 5.508540081039445,-22.98188565274919 6.220144075953223,-21.307282823322605 3.0118279064388145,-19.943944267424744"/><polygon points="7.172177085361658,-19.066883412051666 3.963860915847251,-17.7035448561538 3.0118279064388145,-19.943944267424744 6.220144075953223,-21.307282823322605"/><polygon points="7.172177085361658,-19.066883412051666 5.508540081039445,-22.98188565274919 7.288297758454529,-23.73817404004441 8.951934762776741,-19.823171799346884"/><polygon points="3.963860915847251,-17.7035448561538 4.907859191603415,-18.10468650742512 6.571061677486096,-18.811446052140514 7.198100445852711,-17.33584880539638 5.5763265565754745,-16.531596208940808 6.047923438490518,-15.42179710937367 5.144028029001273,-14.926282219898654 4.655842269100647,-16.075119579804724"/><polygon points="8.951934762776741,-19.823171799346884 9.361589403365432,-18.85914008350375 9.92019888463271,-17.544576049910816 9.115857111097817,-17.10363640044574 7.640469877027418,-16.29483005565376 7.023508506545479,-17.746712372280083 6.571061677486096,-18.811446052140514 8.111906990354882,-19.46621126626418"/><polygon points="7.288297758454529,-23.73817404004441 9.727144934974831,-24.774535237636734 10.902113753550662,-25.273825272566377 11.582976294564599,-23.671565665000983 12.479294597623788,-21.56227850936658 11.304325779047957,-21.062988474436935 8.865478602527656,-20.026627276844614 7.969160299468466,-22.135914432479016"/><polygon points="12.479294597623788,-21.56227850936658 13.380493010794801,-19.441507092458234 9.92019888463271,-17.544576049910816 8.865478602527656,-20.026627276844614"/><polygon points="12.636994872611899,-21.19116574358111 16.44900163930653,-22.81103595767068 17.030558382574387,-21.442470611341406 13.380493010794801,-19.441507092458234"/><polygon points="16.012100312283067,-23.83918673203834 17.502784309082955,-24.472636448374995 18.39494785020821,-22.373126607286167 17.030558382574387,-21.442470611341406"/><polygon points="16.012100312283067,-23.83918673203834 14.714120520245292,-26.893695486655947 14.797034101371501,-26.928928698092847 17.502784309082955,-24.472636448374995"/></g><g fill="#A3977C" stroke="#302814" stroke-width="0.3"><polygon points="30.512189238729263,-10.512721368425153 27.076251827872483,-9.257085994223969 20.955384691342225,-7.020264894652068 20.73853551285318,-10.557609074654561 20.463359947943466,-15.046400269505472 25.20498950147664,-16.779190214968825 27.866694454060234,-17.751888635955794 29.346245089681457,-13.703226512668596"/><polygon points="31.917313484029425,4.360079932367842 30.98490041894067,2.453915157648611 29.722068682641435,-0.12773611072135704 33.11780583560391,-1.7887833239644406 35.389762951906455,-2.900126124260341 36.3092568318636,-1.0203724934192957 36.98816605016823,0.36754546442406877 34.95545944567912,1.9679964883471293"/><polygon points="27.71788392249987,-4.224961401582439 28.244639302510834,-3.148096878909582 29.486142094711425,-0.6100491200195135 24.628815424334945,1.7659442405388415 21.58526992328462,3.254714585583873 21.39806552704381,0.2009498163215928 21.318636851167245,-1.0947275124789204 23.78373174341212,-2.3005449290510214"/><polygon points="25.80962441143003,-8.126083336932 26.892688969464068,-5.911936424399395 27.71788392249987,-4.224961401582439 25.466412151150596,-3.1236391428108643 24.882376819120616,-5.019194051524394 21.178877984021323,-3.3745388483901535 20.995445117497034,-6.366780679057971 24.115833147913907,-7.507101099285993"/><polygon points="29.486142094711425,-0.6100491200195134 30.540184233576667,1.5447662417572805 31.917313484029425,4.360079932367842 29.157655463663804,5.719374732014339 25.501584040769213,7.52020615228516 24.119573992845254,4.694914475993691 23.061796136214795,2.532462055193416 26.722777771642413,0.7416687548474273"/><polygon points="25.501584040769213,7.52020615228516 21.953880442665948,9.26766000924894 21.58526992328462,3.2547145855838724 23.061796136214795,2.532462055193416"/></g><g fill="#979E7C" stroke="#243014" stroke-width="0.3"><polygon points="-20.706038757099602,-30.09035558309193 -16.51454055852127,-26.490285283108516 -13.201038120979515,-23.644323970668317 -9.3866535579491,-20.368155897224163 -12.597800309078032,-18.290089743111686 -16.84530626886989,-15.541352591397471 -19.685405843603373,-18.274304809628934 -22.152560559714164,-20.648382118079617 -25.273449933758002,-23.65153088565355 -22.672429756847055,-27.318271694805425"/><polygon points="-11.198499661653491,-30.791780864838774 -9.50648840029389,-29.33851542115464 -8.611428673086838,-28.56975022361208 -10.058634612251295,-26.884793936228572 -10.953694339458346,-27.653559133771132 -11.915019224131436,-26.534305567424294 -13.480530911053064,-24.711607989653228 -15.172542172412665,-26.16487343333736 -13.607030485491038,-27.987571011108425 -12.645705600817948,-29.106824577455267"/><polygon points="-9.16623063125681,-21.00606320192728 -11.053952445580599,-22.627424089230757 -12.585471183846014,-23.942842792110667 -10.858163628366901,-25.953916438982173 -8.611428673086838,-28.56975022361208 -7.079909934821424,-27.25433152073217 -5.192188120497633,-25.63297063342869 -7.438923075777696,-23.017136848798785"/><polygon points="-5.192188120497633,-25.63297063342869 -3.4987384868893274,-24.178469774394834 -8.837379733586051,-20.723613754560482 -9.16623063125681,-21.00606320192728"/><polygon points="-11.198499661653491,-30.791780864838774 -9.592165377375458,-32.66200747094061 -8.011647027664845,-34.50217704086888 -6.043440838720443,-36.793724707432276 -4.810608361840152,-34.81991296596391 -4.14427314052499,-33.7530849027432 -5.846497842412809,-31.77121477882612 -7.213426465936397,-30.17972395068572 -8.04802233680699,-31.050649114591806 -9.513441532843272,-29.34448745425521"/><polygon points="-8.602682283516085,-28.562237965265783 -6.672082076941057,-30.810001651455867 -5.516982202800792,-32.15486401196568 -4.330133731496124,-31.135481984419087 -2.911078431359271,-29.916657927238408 -4.066178305499533,-28.571795566728596 -5.996778512074556,-26.324031880538513 -7.415833812211414,-27.542855937719192"/><polygon points="-5.996778512074556,-26.324031880538513 -4.502945424562668,-28.063275332343224 -1.4919559939794085,-25.477141900081847 -3.4987384868893274,-24.178469774394834"/><polygon points="-4.502945424562668,-28.063275332343224 -2.911078431359271,-29.916657927238408 -1.4853904059846688,-25.481390764195243 -1.4919559939794085,-25.477141900081847"/><polygon points="-14.609442854132318,-32.270288902421 -16.37139865234732,-33.783629583609624 -17.436978287360066,-34.698854024736114 -16.27248477654692,-36.340477536923615 -15.117019566575337,-37.96937356647683 -13.94537164277927,-36.96304726197642 -12.008029951020717,-35.299067950763735 -13.303674601672046,-33.79057179188936"/><polygon points="-6.043440838720443,-36.793724707432276 -9.314346016341075,-32.98546764095761 -10.854894884848605,-34.30864230653855 -7.558594588080503,-38.146466461233636"/><polygon points="-7.558594588080503,-38.146466461233636 -10.854894884848605,-34.30864230653855 -12.62147452590467,-35.82595439806669 -9.296053114327933,-39.69768375185234"/><polygon points="-12.62147452590467,-35.82595439806669 -14.018568386620021,-37.025915814239184 -15.117019566575337,-37.96937356647683 -13.066419713757089,-40.86016935126745 -12.10933373476626,-42.20940387400791 -10.87102652463656,-41.10383299192204 -11.872616568560497,-39.806185041804 -10.354246817139515,-38.46564753325347"/></g><g fill="#898C95" stroke="#171D2E" stroke-width="0.3"><polygon points="16.81322139798545,42.32464599352042 18.48996610156809,42.27358199727932 20.16164906318531,42.22267215257492 20.25740114429574,45.366801219577525 20.338050174155377,48.01500432980327 18.67263234410477,48.271636933101775 18.58911895143012,45.52937919470831 16.915785313894855,45.69244944485671"/><polygon points="12.629584876040704,42.452055490729045 12.544450505673243,39.65657109635248 12.469451742680896,37.19390095927717 15.697494401881842,37.09559335295921 20.0015159298255,36.96451762112305 20.07651469281785,39.42718775819836 20.16164906318531,42.22267215257492 15.857627535241651,42.353747884411085"/><polygon points="22.276589833400447,41.140622265954974 22.147419471730945,36.89916574605019 24.360201405540693,36.831777139955896 25.133842648624302,41.05360678488341"/><polygon points="26.24276885671272,47.10511655274977 20.338050174155377,48.01500432980327 20.267468260497143,45.69736649087652 25.82779157790698,44.840548326461345"/><polygon points="20.130686291494996,41.20597414102784 22.11739222564378,41.14547050911728 25.133842648624302,41.05360678488341 25.595409061488944,43.572416093921504 25.82779157790698,44.840548326461345 22.475419909808046,45.35713212476392 20.267468260497143,45.69736649087652 20.221664114376203,44.19333498014643"/><polygon points="12.469451742680896,37.19390095927717 12.380113116835293,34.260365029094466 17.550817139779838,34.10289513506272 17.640155765625437,37.036431065245424"/><polygon points="12.380113116835293,34.260365029094466 12.301564911352076,31.681144889368777 17.47226893429662,31.52367499533703 17.550817139779838,34.10289513506272"/><polygon points="17.47226893429662,31.52367499533703 14.444546004162119,31.615882015280565 12.301564911352076,31.681144889368777 12.247081454787475,29.892118296223874 12.169699096446449,27.351180080451606 14.321187814806047,27.565274818974203 17.360930791708018,27.867759778463988 17.42626696737251,30.013147812344833"/><polygon points="24.360201405540693,36.831777139955896 21.844923314188435,36.908378038546886 17.640155765625437,37.036431065245424 17.55244052313268,34.15620078364368 21.50877465810684,34.175093146917995 21.066167718209936,30.57617689405437 17.436945862185382,30.363801533864397 17.360930791708018,27.867759778463988 20.774857302177928,28.207479758102878 22.81705689064418,28.410699130425222 23.23715627291257,30.70321913466799 23.875440700126333,34.18639449637166"/><polygon points="4.60407161578631,36.96077496608259 4.970888633883945,31.52749168117154 5.299002609472344,26.667476765953907 7.865186561124537,26.92283784567584 11.539965918148203,27.288515303733853 11.662976095233756,31.327695119217545 11.800496072166368,35.843320803307634 7.563125857231299,36.501295748309644"/><polygon points="1.3093943679824938,42.261683214732265 1.095868286697303,40.88657149684322 0.7130114889835629,38.42096698782554 2.8699834076415116,38.08603437453921 4.98362798459579,37.75782959097474 5.366484782309531,40.22343409999242 5.580010863594722,41.598545817881465 3.4663662866404428,41.92675060144594"/><polygon points="0.7130114889835629,38.42096698782554 1.3093943679824938,42.261683214732265 -1.0673295253888053,42.630738712293955 -1.4804986123180968,38.76157321646667"/><polygon points="-1.0673295253888053,42.630738712293955 5.580010863594722,41.598545817881465 5.975960683527213,44.14846962020149 -0.7188472295251049,45.89413792999306"/><polygon points="5.975960683527213,44.14846962020149 4.98362798459579,37.75782959097474 7.389183186448835,37.38429719438125 8.343652295878663,43.53109504146517"/><polygon points="12.209322403386949,49.26760084442913 10.375314243881467,49.55021237887529 8.057485992323853,49.90737818283331 7.648296913390715,47.25194477663989 7.231957378366481,44.55010847029252 9.909185582211535,43.85202235725844 12.027573071625559,43.29965372231683 12.119234863836205,46.30947347642381"/><polygon points="8.057485992323853,49.90737818283331 5.421812195485103,50.31352240425541 2.269273391314999,50.7993129522581 -0.1551537355861896,51.17290511265022 -0.3851958365035504,49.01865159365598 -0.6430952755644457,46.60352509321091 1.681673850138333,45.99734253457333 4.704625044749891,45.209109299054845 7.231957378366481,44.55010847029252 7.668287038837308,47.38167073864083"/></g><g fill="#898C95" stroke="#171D2E" stroke-width="0.3"><polygon points="23.986176729902372,21.796188956035387 26.337229788516154,21.500497620272906 28.213079645305854,21.264572468430075 28.54149085720555,23.87578250686031 28.844221003025513,26.282801411994317 26.97519261125673,26.57296429170395 24.632689078151937,26.936633230008535 24.32258615894674,24.470993123231526"/><polygon points="23.358873813146044,16.808479602583176 26.282429000095735,16.440784822051853 27.585776728549526,16.276863114977864 27.896572284889643,18.748010405962233 28.213079645305854,21.264572468430075 26.909731916852063,21.428494175504063 26.593224556435853,18.911932113036222 23.66966936948616,19.279626893567546"/><polygon points="28.844221003025513,26.282801411994317 28.582066633066578,24.198402044215726 28.232133695684173,21.416071947795643 30.260076748246895,21.16101807401532 30.60579362560016,23.909826116766666 32.09271843773951,23.697796179777516 32.34939363615224,25.738630446167022 30.86478950876755,25.969112235918264"/><polygon points="23.358873813146044,16.808479602583176 23.111190832800297,14.839142804104243 22.943458104622007,13.505493501880627 26.15833031483736,13.101159854598011 27.974604654342123,12.872727500172143 28.142337382520413,14.206376802395758 28.39002036286616,16.17571360087469 26.573746023361398,16.40414595530056"/><polygon points="31.496999843986153,8.97615490729627 31.924589797032226,12.375938889296364 22.943458104622007,13.505493501880627 22.515868151575933,10.105709519880536"/><polygon points="31.828225523984592,11.609742888640737 31.562129176232073,9.494000705474308 31.106859969071046,5.87413792109977 32.09621067526028,5.386824181489582 32.61945389829659,9.227161327713155 35.53994533588166,8.490110446655237 35.95551025589511,11.090655354235924 32.925279788662536,11.47176665720774"/></g><g fill-rule="nonzero" stroke="#99948A" stroke-width="0.3" stroke-linecap="butt"><line x1="-29.97915100874714" y1="24.881045628079175" x2="-28.163605210570406" y2="20.29434700929678"/><line x1="-33.64750413933465" y1="29.773766899723668" x2="-29.553943035838202" y2="19.432011225939934"/><line x1="-37.19725246322433" y1="34.36685127781904" x2="-31.0113914504887" y2="18.73922007645375"/><line x1="-39.151700391619464" y1="34.92965334196444" x2="-32.508499224436505" y2="18.14662222900019"/><line x1="-40.67796487550189" y1="34.410715460191554" x2="-34.00560699838431" y2="17.554024381546633"/><line x1="-42.1750726494497" y1="33.81811761273799" x2="-35.50271477233212" y2="16.96142653409307"/><line x1="-43.672180423397506" y1="33.22551976528443" x2="-36.99982254627993" y2="16.36882868663951"/><line x1="-45.16928819734532" y1="32.63292191783087" x2="-38.49693032022773" y2="15.776230839185953"/><line x1="-46.66639597129313" y1="32.04032407037731" x2="-39.994038094175544" y2="15.183632991732392"/><line x1="-48.16350374524094" y1="31.44772622292375" x2="-41.491145868123354" y2="14.59103514427883"/><line x1="-49.66061151918874" y1="30.85512837547019" x2="-42.98825364207116" y2="13.998437296825273"/><line x1="-50.65808852464149" y1="29.00028985192965" x2="-44.48536141601897" y2="13.405839449371715"/><line x1="-50.707700160203935" y1="24.750814527029675" x2="-45.98246918996678" y2="12.813241601918154"/><line x1="-50.34872395106433" y1="19.469104540339167" x2="-47.47957696391458" y2="12.220643754464593"/><line x1="-49.989747741924724" y1="14.187394553648655" x2="-49.531345714414776" y2="13.029311982259701"/><line x1="-28.503751489795437" y1="17.25818679259538" x2="-49.48407504018954" y2="8.95357787185098"/><line x1="-49.52501257060702" y1="7.349625551078143" x2="-26.627031116278957" y2="16.41329802476031"/><line x1="-49.05692935694718" y1="5.947158121706274" x2="-26.13763270493719" y2="15.01926775701713"/><line x1="-47.046040102445644" y1="5.155377213873382" x2="-25.648234293595426" y2="13.625237489273948"/><line x1="-44.73745736500505" y1="4.481431855531659" x2="-25.15883588225366" y2="12.231207221530768"/><line x1="-42.42887462756445" y1="3.807486497189934" x2="-25.636270622880307" y2="10.454476887250364"/><line x1="-39.4974888819163" y1="3.380064287330812" x2="-35.40131291887052" y2="5.0014472637153595"/><path d="M -43.652261596051126,9.456414138954457 L -45.02689820976069,8.912293860848457 L -46.057695265696545,8.504275061441467 L -47.01048256856651,8.127134741561257 L -46.741396464041586,7.447329877813141 L -45.84904896417864,5.1929504789537875 L -44.89626166130868,5.570090798833998 L -43.86546460537282,5.978109598240987 L -42.49082799166326,6.522229876346988 L -43.3831754915262,8.776609275206342 Z" fill="#99948A" stroke="#1A1917" stroke-width="0.3"/></g><g fill-rule="nonzero" stroke="#99948A" stroke-width="0.3" stroke-linecap="butt"><line x1="-18.176452241573237" y1="-36.249267132938265" x2="-19.24623550622798" y2="-35.3035599553574"/><line x1="-13.86092575640223" y1="-42.36275220837249" x2="-21.014915127854795" y2="-36.038500072026544"/><line x1="-13.778271451437854" y1="-44.73430400174542" x2="-22.2173519244414" y2="-37.274008781967716"/><line x1="-14.406848204997337" y1="-46.47711505931939" x2="-23.357916018109435" y2="-38.564214046977284"/><line x1="-15.035424958556817" y1="-48.219926116893355" x2="-24.498480111777464" y2="-39.854419311986845"/><line x1="-15.664001712116299" y1="-49.96273717446732" x2="-25.639044205445497" y2="-41.14462457699641"/><line x1="-16.29257846567578" y1="-51.70554823204128" x2="-26.77960829911353" y2="-42.434829842005975"/><line x1="-17.57018388510491" y1="-52.874606560396074" x2="-27.920172392781563" y2="-43.725035107015536"/><line x1="-19.630011105225655" y1="-53.35216709119181" x2="-29.060736486449596" y2="-45.015240372025104"/><line x1="-22.38044832182116" y1="-53.21921626688043" x2="-30.201300580117625" y2="-46.305445637034666"/><line x1="-25.13088553841667" y1="-53.08626544256905" x2="-31.341864673785658" y2="-47.59565090204423"/><line x1="-27.88132275501218" y1="-52.95331461825767" x2="-32.48242876745369" y2="-48.885856167053795"/><line x1="-30.631759971607686" y1="-52.82036379394629" x2="-33.62299286112172" y2="-50.17606143206336"/><line x1="-31.764738162172534" y1="-20.526423612059748" x2="-49.08536602988549" y2="-35.74061817056565"/><line x1="-29.397658267047863" y1="-20.430376365864646" x2="-48.44939621540395" y2="-37.16515353663199"/><line x1="-28.530936109642415" y1="-21.65222213736845" x2="-47.63778252490357" y2="-38.43540580608253"/><line x1="-27.664213952236967" y1="-22.874067908872256" x2="-46.80452572270095" y2="-39.68664707230593"/><line x1="-26.79749179483152" y1="-24.09591368037606" x2="-45.97126892049834" y2="-40.937888338529326"/><line x1="-25.930769637426067" y1="-25.317759451879862" x2="-45.13801211829572" y2="-42.18912960475272"/><line x1="-25.06404748002062" y1="-26.53960522338367" x2="-44.30475531609309" y2="-43.44037087097612"/><line x1="-24.19732532261517" y1="-27.761450994887475" x2="-43.471498513890474" y2="-44.69161213719952"/><line x1="-23.330603165209723" y1="-28.98329676639128" x2="-42.63824171168786" y2="-45.94285340342291"/><line x1="-22.46388100780427" y1="-30.205142537895085" x2="-41.80498490948524" y2="-47.194094669646304"/><line x1="-40.97172810728262" y1="-48.4453359358697" x2="-21.817202421305346" y2="-31.620271470072343"/><line x1="-40.13847130508" y1="-49.696577202093096" x2="-22.40389837753221" y2="-34.118779157330266"/><line x1="-39.305199270657106" y1="-50.94780508854963" x2="-28.87740027803801" y2="-41.788173930695585"/><line x1="-38.4718055667062" y1="-52.1989261022135" x2="-36.721907535867736" y2="-50.66184042021286"/><path d="M -21.03903159091763,-36.69247618758492 L -22.049292292171707,-37.83528235080404 L -23.161355252806775,-39.09324715506089 L -22.61210400100933,-39.57879489943297 L -21.344211781963015,-40.69963386893958 L -20.460326297061044,-41.48100414724647 L -19.348263336425976,-40.22303934298963 L -18.3380026351719,-39.08023317977051 L -19.22188812007387,-38.298862901463615 L -20.232148821327947,-39.441669064682735 L -21.500041040374263,-38.32083009517613 L -20.489780339120188,-37.17802393195701 Z" fill="#99948A" stroke="#1A1917" stroke-width="0.3"/></g><g fill-rule="nonzero" stroke="#99948A" stroke-width="0.3" stroke-linecap="butt"><line x1="-3.1160655323006314" y1="45.10618160336249" x2="-2.9563790329246458" y2="49.527488864573414"/><line x1="-5.025212423282384" y1="36.032472967926424" x2="-4.504831087889725" y2="50.44048983698557"/><line x1="-6.656306997992518" y1="34.657315742485764" x2="-6.065972456179773" y2="51.00215645513038"/><line x1="-8.261162199373821" y1="34.008659080848155" x2="-7.645339568877716" y2="51.059199223378805"/><line x1="-9.866017400755121" y1="33.360002419210545" x2="-9.224706681575658" y2="51.11624199162722"/><line x1="-11.470872602136422" y1="32.71134575757294" x2="-10.804073794273599" y2="51.173284759875635"/><line x1="-13.075727803517724" y1="32.062689095935326" x2="-12.38344090697154" y2="51.23032752812405"/><line x1="-14.680583004899027" y1="31.41403243429772" x2="-13.962808019669483" y2="51.287370296372465"/><line x1="-16.28543820628033" y1="30.76537577266011" x2="-15.542175132367424" y2="51.34441306462088"/><line x1="-17.890293407661634" y1="30.1167191110225" x2="-17.121542245065367" y2="51.401455832869296"/><line x1="-19.495148609042932" y1="29.468062449384895" x2="-18.700909357763308" y2="51.45849860111771"/><line x1="-21.100003810424234" y1="28.819405787747286" x2="-20.28027647046125" y2="51.515541369366126"/><line x1="-22.68334695470892" y1="28.76636249741238" x2="-21.859643583159194" y2="51.57258413761454"/><line x1="-24.258361014606812" y1="28.943930069125674" x2="-23.439010695857135" y2="51.629626905862956"/><line x1="-25.769868150839976" y1="30.87984054292066" x2="-25.018377808555076" y2="51.68666967411137"/><line x1="-27.2791760129667" y1="32.876643243761755" x2="-26.597744921253017" y2="51.74371244235979"/><line x1="-28.788483875093426" y1="34.87344594460285" x2="-28.177112033950962" y2="51.8007552106082"/><line x1="-30.29779173722015" y1="36.87024864544395" x2="-29.77291997749452" y2="51.40259378136895"/><line x1="-31.74275871192839" y1="40.648484553523915" x2="-31.37828386805192" y2="50.739852828593534"/></g><g fill-rule="nonzero" stroke="#99948A" stroke-width="0.3" stroke-linecap="butt"><line x1="-52.132231755453006" y1="2.916184241194925" x2="-49.481536845903406" y2="3.6821702118540762"/><line x1="-57.43480499586774" y1="-0.1420858662399797" x2="-46.68129397987439" y2="2.965415696427281"/><line x1="-57.42452535117503" y1="-1.6650714867628174" x2="-44.05443781621844" y2="2.1985566665057585"/><line x1="-57.37444119970226" y1="-3.1765545787778686" x2="-41.427581652562495" y2="1.4316976365842375"/><line x1="-57.12138112801463" y1="-4.6293825963420385" x2="-40.105315203497675" y2="0.2878441003380212"/><line x1="-56.71440262393939" y1="-6.037731953080317" x2="-39.073283920305045" y2="-0.9398802972619817"/><line x1="-56.307424119864145" y1="-7.446081309818598" x2="-38.44674870995671" y2="-2.284783138083462"/><line x1="-55.900445615788904" y1="-8.85443066655688" x2="-37.82021349960837" y2="-3.629685978904943"/><line x1="-55.493467111713656" y1="-10.262780023295157" x2="-37.19367828926004" y2="-4.974588819726423"/><line x1="-55.086488607638415" y1="-11.671129380033438" x2="-36.56714307891171" y2="-6.319491660547902"/><line x1="-54.67951010356317" y1="-13.079478736771717" x2="-35.940607868563376" y2="-7.664394501369385"/><line x1="-54.27253159948792" y1="-14.487828093509997" x2="-35.31407265821504" y2="-9.009297342190864"/><line x1="-53.86555309541268" y1="-15.896177450248272" x2="-34.68753744786671" y2="-10.35420018301234"/><line x1="-53.45857459133743" y1="-17.30452680698655" x2="-34.06100223751837" y2="-11.699103023833821"/><line x1="-53.05159608726219" y1="-18.71287616372483" x2="-33.434467027170044" y2="-13.0440058646553"/><line x1="-52.64461758318694" y1="-20.121225520463106" x2="-32.80793181682171" y2="-14.38890870547678"/><line x1="-52.2376390791117" y1="-21.52957487720139" x2="-32.448214080608565" y2="-15.81091526773295"/><line x1="-51.830660575036454" y1="-22.93792423393967" x2="-32.893249796728924" y2="-17.465475886703146"/><line x1="-51.42368207096121" y1="-24.34627359067794" x2="-33.80100521807926" y2="-19.2537511784849"/><line x1="-51.016703566885965" y1="-25.754622947416223" x2="-36.38995916042684" y2="-21.52785170663671"/><line x1="-50.609725062810725" y1="-27.1629723041545" x2="-38.97891310277441" y2="-23.80195223478851"/><line x1="-50.20274655873548" y1="-28.571321660892778" x2="-41.56786704512199" y2="-26.07605276294031"/><line x1="-49.29919273747131" y1="-29.836172901355212" x2="-44.156820987469565" y2="-28.35015329109211"/></g><g fill-rule="nonzero" stroke="#99948A" stroke-width="0.3" stroke-linecap="butt"><line x1="-7.44546914436132" y1="-69.80771757823976" x2="4.267508772647345" y2="-65.52368562244544"/><line x1="-9.130097204546924" y1="-68.86099243977516" x2="4.4838537749940315" y2="-63.8816779175238"/><line x1="-9.64861442537986" y1="-67.48776123810603" x2="4.526205045008144" y2="-62.30330857294929"/><line x1="-10.167131646212788" y1="-66.11453003643689" x2="4.022026402690719" y2="-60.924833023600485"/><line x1="-10.685648867045714" y1="-64.74129883476778" x2="3.517847760373296" y2="-59.546357474251685"/><line x1="-11.204166087878644" y1="-63.36806763309863" x2="3.013669118055873" y2="-58.167881924902886"/><line x1="-11.722683308711574" y1="-61.994836431429505" x2="2.5094904757384477" y2="-56.78940637555408"/><line x1="-12.241200529544503" y1="-60.62160522976038" x2="2.005311833421025" y2="-55.41093082620528"/><line x1="-12.759717750377433" y1="-59.24837402809124" x2="1.5011331911036017" y2="-54.03245527685648"/><line x1="-13.278234971210363" y1="-57.875142826422106" x2="0.9969545487861762" y2="-52.653979727507675"/><line x1="-13.79675219204329" y1="-56.50191162475298" x2="0.49277590646875336" y2="-51.275504178158876"/><line x1="-14.03531577068258" y1="-55.02628713268441" x2="-0.011402735848668577" y2="-49.89702862881008"/><line x1="-14.16648178334513" y1="-53.51138188657712" x2="-0.5155813781660923" y2="-48.51855307946128"/><line x1="-13.532655614938706" y1="-51.716680078668645" x2="-1.019760020483515" y2="-47.14007753011248"/><line x1="-12.883317219426619" y1="-49.916304660078325" x2="-1.523938662800938" y2="-45.76160198076368"/><line x1="-12.233978823914539" y1="-48.115929241488" x2="-2.0281173051183607" y2="-44.38312643141488"/><line x1="-11.584640428402455" y1="-46.31555382289768" x2="-2.532295947435787" y2="-43.00465088206607"/><line x1="-10.7076219564455" y1="-44.431904216470706" x2="-3.0364745897532064" y2="-41.62617533271728"/><line x1="-8.48355317218376" y1="-42.0555697757629" x2="-3.7767162854832996" y2="-40.33404005239039"/><line x1="-1.1414557999985124" y1="-40.11149995924235" x2="7.145953227453554" y2="-62.77011687186204"/><line x1="8.988283509621173" y1="-64.11649454905364" x2="-0.2977787874970055" y2="-38.72745829898558"/><line x1="10.178901583761839" y1="-63.68102494321087" x2="1.2855750174778429" y2="-39.365768018308486"/><line x1="11.369519657902506" y1="-63.245555337368096" x2="2.868928822452693" y2="-40.00407773763139"/><line x1="12.560137732043176" y1="-62.81008573152532" x2="4.452282627427541" y2="-40.642387456954296"/><line x1="13.750755806183845" y1="-62.37461612568254" x2="6.035636432402396" y2="-41.2806971762772"/><line x1="14.941373880324512" y1="-61.93914651983977" x2="7.618990237377243" y2="-41.9190068956001"/><line x1="15.617482775262188" y1="-60.09695662892724" x2="9.202344042352092" y2="-42.557316614922996"/><line x1="14.764609096091926" y1="-54.07437328838258" x2="10.78569784732694" y2="-43.1956263342459"/><line x1="13.694986834950203" y1="-47.45917733888179" x2="12.834665480425645" y2="-45.10697148909869"/><path d="M -6.235103281845144,-66.07376148270954 L -6.640340682266611,-64.96580132478805 L -7.756993059107484,-65.37421791191005 L -8.705463122776733,-65.72112167034479 L -10.153816705832353,-66.25085826483536 L -9.748579305410885,-67.35881842275685 L -9.16728528527216,-68.948135237251 L -8.915468558718134,-69.6366277106256 L -7.467114975662513,-69.10689111613503 L -7.71893170221654,-68.41839864276042 L -8.300225722355265,-66.82908182826628 L -7.351755658686017,-66.48217806983155 Z" fill="#99948A" stroke="#1A1917" stroke-width="0.3"/></g><g fill-rule="nonzero" stroke="#99948A" stroke-width="0.3" stroke-linecap="butt"><line x1="-14.531098138713366" y1="53.30919955391017" x2="-21.609663142746363" y2="53.87732675992652"/><line x1="-3.2462670485491096" y1="53.77684772555119" x2="-22.798731115841107" y2="55.3461328525447"/><line x1="-2.1357059279633783" y1="55.06108507420471" x2="-23.2138584186634" y2="56.75282229434823"/><line x1="-2.0261843520851777" y1="56.42566607998683" x2="-23.104336842785198" y2="58.11740330013035"/><line x1="-1.9166627762069772" y1="57.790247085768954" x2="-22.994815266906997" y2="59.48198430591247"/><line x1="-1.8071412003287768" y1="59.154828091551074" x2="-22.885293691028792" y2="60.84656531169459"/><line x1="-1.6976196244505763" y1="60.519409097333195" x2="-22.775772115150595" y2="62.21114631747671"/><line x1="-1.588098048572376" y1="61.883990103115316" x2="-22.666250539272397" y2="63.57572732325883"/><line x1="-1.4785764726941755" y1="63.24857110889744" x2="-22.556728963394196" y2="64.94030832904096"/><line x1="-1.3690548968159746" y1="64.61315211467956" x2="-22.447207387515995" y2="66.30488933482307"/><line x1="-1.2595333209377744" y1="65.97773312046168" x2="-22.337685811637794" y2="67.6694703406052"/><line x1="-1.1500117450595733" y1="67.3423141262438" x2="-22.228164235759593" y2="69.03405134638732"/><line x1="-1.8787168881839749" y1="68.77417139544991" x2="-22.11864265988139" y2="70.39863235216944"/><line x1="-3.154961097105251" y1="70.2499742721992" x2="-22.00912108400319" y2="71.76321335795156"/><line x1="-8.247552223363348" y1="72.0320780037263" x2="-21.899599508124993" y2="73.12779436373367"/><line x1="-13.340143349621428" y1="73.81418173525338" x2="-21.68055606930761" y2="74.4835851203687"/><line x1="-18.432734475879545" y1="75.59628546678049" x2="-19.931937708923062" y2="75.71661185264463"/><line x1="-25.66558633734688" y1="54.95452363525311" x2="-23.974763123339294" y2="76.02128809211366"/><line x1="-24.965121699217352" y1="77.88223212102211" x2="-26.901499486347497" y2="53.75598734095455"/><line x1="-26.073704080406355" y1="78.27016996037379" x2="-28.037923581818568" y2="53.79703212135341"/><line x1="-27.18228646159536" y1="78.65810779972547" x2="-29.174347677289635" y2="53.838076901752274"/><line x1="-28.290868842784363" y1="79.04604563907715" x2="-30.310771772760706" y2="53.87912168215113"/><line x1="-29.39945122397337" y1="79.43398347842883" x2="-31.406809531914707" y2="54.42335888823874"/><line x1="-30.508033605162368" y1="79.82192131778051" x2="-32.294370796944015" y2="57.565103131213505"/><line x1="-31.76094559292839" y1="78.41158846820389" x2="-33.03157389641266" y2="62.580230724848846"/><line x1="-33.38314483934821" y1="72.40013136712136" x2="-33.7687769958813" y2="67.59535831848416"/></g><g fill-rule="nonzero" stroke="#99948A" stroke-width="0.3" stroke-linecap="butt"><line x1="-51.93965820944873" y1="13.382526684789143" x2="-52.45897434805571" y2="16.402364341403786"/><line x1="-52.07769241528508" y1="5.5307774875970726" x2="-54.02540665550453" y2="16.856789466960063"/><line x1="-53.38876506447711" y1="4.500279163532497" x2="-55.525653859292625" y2="16.926346390889258"/><line x1="-54.7427576001473" y1="3.7193611620668072" x2="-56.97119052164818" y2="16.67776000874881"/><line x1="-56.096750135817494" y1="2.9384431606011123" x2="-58.41672718400375" y2="16.42917362660836"/><line x1="-57.450742671487674" y1="2.157525159135421" x2="-59.862263846359305" y2="16.18058724446791"/><line x1="-58.80473520715786" y1="1.3766071576697314" x2="-61.30780050871486" y2="15.932000862327465"/><line x1="-60.2414982709845" y1="1.0770020583125817" x2="-62.75333717107042" y2="15.683414480187018"/><line x1="-61.68611767881778" y1="0.8230818158486279" x2="-64.19887383342598" y2="15.43482809804657"/><line x1="-63.17168989866086" y1="0.8073033037440727" x2="-65.64441049578154" y2="15.186241715906121"/><line x1="-64.65726211850392" y1="0.7915247916395174" x2="-67.0899471581371" y2="14.937655333765674"/><line x1="-66.142834338347" y1="0.7757462795349621" x2="-68.53548382049266" y2="14.689068951625226"/><line x1="-67.62840655819006" y1="0.7599677674304068" x2="-69.98102048284821" y2="14.440482569484777"/><line x1="-69.11397877803314" y1="0.7441892553258516" x2="-71.42655714520377" y2="14.19189618734433"/><line x1="-70.59955099787622" y1="0.7284107432212963" x2="-72.87209380755934" y2="13.94330980520388"/><line x1="-72.08512321771929" y1="0.712632231116741" x2="-74.31763046991489" y2="13.694723423063433"/><line x1="-73.57069543756238" y1="0.6968537190121857" x2="-75.69773510886395" y2="13.065648021726531"/><line x1="-75.05626765740546" y1="0.6810752069076305" x2="-77.03909299180528" y2="12.211259166473734"/><line x1="-77.86934897713671" y1="8.384798692361521" x2="-76.54183987724852" y2="0.665296694803077"/><line x1="-78.43114973998064" y1="2.9972637017568378" x2="-78.20008493025398" y2="1.6536154658233144"/><line x1="-58.90487812796232" y1="32.23817217960395" x2="-74.38580728788259" y2="29.718755709049933"/><line x1="-55.485282744039225" y1="31.081548246820176" x2="-75.848148327732" y2="27.767629656451962"/><line x1="-53.31767685314546" y1="29.721171495512763" x2="-76.02987493558328" y2="26.024914937506914"/><line x1="-52.937894678785625" y1="28.069838531477224" x2="-76.21160154343457" y2="24.28220021856186"/><line x1="-52.822733367215214" y1="26.375440312554403" x2="-76.39332815128584" y2="22.539485499616802"/><line x1="-52.7075720556448" y1="24.68104209363159" x2="-76.57505475913713" y2="20.796770780671753"/><line x1="-52.59241074407439" y1="22.98664387470877" x2="-76.7567813669884" y2="19.054056061726694"/><line x1="-52.47724943250398" y1="21.292245655785955" x2="-76.9385079748397" y2="17.311341342781645"/><line x1="-75.17651693368575" y1="15.884953519233063" x2="-54.572646789232934" y2="19.238093971130716"/></g><g fill-rule="nonzero" stroke="#99948A" stroke-width="0.3" stroke-linecap="butt"><line x1="-57.271634252174245" y1="44.89373367925948" x2="-39.81576576213543" y2="46.08909737698543"/><line x1="-38.65219879633369" y1="47.65793002274841" x2="-58.60879805640322" y2="46.291318312814596"/><line x1="-38.643268869402426" y1="49.14769406180738" x2="-59.262750554817416" y2="47.73568870173404"/><line x1="-38.63433894247116" y1="50.637458100866354" x2="-59.364250536405436" y2="49.21789059034129"/><line x1="-38.62669594707838" y1="52.127134011898725" x2="-59.46575051799346" y2="50.70009247894854"/><line x1="-38.77612800887836" y1="53.60605355058025" x2="-59.56725049958149" y2="52.1822943675558"/><line x1="-38.95553142243178" y1="55.08292067543439" x2="-59.66875048116952" y2="53.66449625616305"/><line x1="-39.17224919447224" y1="56.55723254332352" x2="-59.770250462757545" y2="55.1466981447703"/><line x1="-39.388966966512704" y1="58.031544411212664" x2="-59.871750444345565" y2="56.62890003337755"/><line x1="-39.605684738553165" y1="59.5058562791018" x2="-59.9732504259336" y2="58.1111019219848"/><line x1="-39.82240251059362" y1="60.98016814699094" x2="-60.07475040752162" y2="59.59330381059205"/><line x1="-40.03912028263408" y1="62.454480014880076" x2="-60.17625038910965" y2="61.0755056991993"/><line x1="-40.25583805467454" y1="63.92879188276922" x2="-60.277750370697674" y2="62.55770758780655"/><line x1="-40.472555826715" y1="65.40310375065836" x2="-60.37925035228571" y2="64.0399094764138"/><line x1="-40.68927359875546" y1="66.87741561854749" x2="-60.48075033387373" y2="65.52211136502105"/><line x1="-42.01476312820394" y1="68.27579969695852" x2="-60.12913395691887" y2="67.03534229387095"/><line x1="-54.129917921145875" y1="68.9353162607595" x2="-58.97464190338862" y2="68.60355349701159"/><line x1="-39.76663473823422" y1="43.48637274087158" x2="-57.592206903574166" y2="42.26569203570927"/><line x1="-58.7678934895219" y1="40.50930239805232" x2="-38.68680619192574" y2="41.88443894769519"/><line x1="-58.65366627426572" y1="38.84124500992135" x2="-38.696855855677796" y2="40.20787117981899"/><line x1="-58.53943905900954" y1="37.17318762179039" x2="-38.70690551942985" y2="38.53130341194279"/><line x1="-58.42521184375335" y1="35.50513023365942" x2="-40.19300727528901" y2="36.753656795548444"/><line x1="-57.438485075074844" y1="33.89682090636188" x2="-45.312553205044324" y2="34.7271948729625"/><line x1="-53.479649459598534" y1="32.492039179147916" x2="-50.43209913479963" y2="32.70073295037656"/></g><g fill-rule="nonzero" stroke="#99948A" stroke-width="0.3" stroke-linecap="butt"><line x1="-99.04855525060775" y1="62.87412568851988" x2="-83.86143083882445" y2="54.28226120870287"/><line x1="-99.77575094003791" y1="65.11074401491089" x2="-81.74137774413866" y2="54.90809562168446"/><line x1="-80.72250608974741" y1="56.15690522379136" x2="-98.99351974969724" y2="66.49342904612708"/><line x1="-79.94027489940675" y1="57.53959025500755" x2="-98.21128855935657" y2="67.87611407734327"/><line x1="-79.15804370906608" y1="58.922275286223744" x2="-97.42905736901591" y2="69.25879910855946"/><line x1="-78.37581251872541" y1="60.304960317439935" x2="-96.64682617867524" y2="70.64148413977566"/><line x1="-77.59358132838474" y1="61.68764534865612" x2="-95.86459498833457" y2="72.02416917099184"/><line x1="-76.81135013804408" y1="63.07033037987231" x2="-95.0823637979939" y2="73.40685420220802"/><line x1="-76.02911894770341" y1="64.4530154110885" x2="-94.30013260765324" y2="74.78953923342422"/><line x1="-75.24688775736274" y1="65.8357004423047" x2="-93.51790141731257" y2="76.17222426464042"/><line x1="-74.46465656702208" y1="67.21838547352088" x2="-92.18226630549412" y2="77.24183017916435"/><line x1="-73.68242537668141" y1="68.60107050473707" x2="-89.81311322563003" y2="77.72674039500723"/><line x1="-72.90019418634074" y1="69.98375553595326" x2="-82.4961131712679" y2="75.41248800974725"/><line x1="-73.62738987577089" y1="72.22037386234426" x2="-75.17911311690575" y2="73.09823562448727"/><line x1="-84.90110411322505" y1="51.883205096562875" x2="-100.70919702017204" y2="60.826372233289895"/><line x1="-102.46525869346918" y1="60.35672479664147" x2="-84.19424503351935" y2="50.020200974305766"/><line x1="-103.09230139718129" y1="59.24835354903311" x2="-84.82128773723146" y2="48.9118297266974"/><line x1="-103.71934410089341" y1="58.13998230142473" x2="-85.44833044094358" y2="47.803458479089024"/><line x1="-104.34638680460552" y1="57.03161105381636" x2="-86.07537314465569" y2="46.695087231480656"/><line x1="-104.97342950831762" y1="55.923239806208" x2="-86.70241584836779" y2="45.58671598387229"/><line x1="-104.16372083246141" y1="54.00205022579768" x2="-87.3294585520799" y2="44.47834473626391"/><line x1="-98.59723536407975" y1="49.389792839924" x2="-87.956501255792" y2="43.369973488655546"/><line x1="-92.09108859974495" y1="44.24593761545653" x2="-89.71256292908919" y2="42.900326052007145"/><line x1="-60.735098360917206" y1="35.57084385754059" x2="-61.63874480374928" y2="48.76677200692019"/><line x1="-62.125352570561084" y1="34.044320872632156" x2="-63.20249414584383" y2="49.77379443708673"/><line x1="-63.6036667261948" y1="33.80373524667377" x2="-64.70737335950025" y2="49.92113774033785"/><line x1="-65.08198088182851" y1="33.56314962071539" x2="-66.1951856775613" y2="49.819253561097234"/><line x1="-66.56029503746223" y1="33.32256399475702" x2="-67.68299799562234" y2="49.71736938185663"/><line x1="-68.03860919309594" y1="33.08197836879864" x2="-69.17081031368339" y2="49.615485202616014"/><line x1="-69.51692334872966" y1="32.841392742840256" x2="-70.65862263174444" y2="49.5136010233754"/><line x1="-70.99523750436337" y1="32.60080711688188" x2="-72.14643494980547" y2="49.411716844134794"/><line x1="-72.47355165999707" y1="32.3602214909235" x2="-73.63424726786651" y2="49.30983266489418"/><line x1="-73.9518658156308" y1="32.11963586496512" x2="-75.12205958592756" y2="49.20794848565357"/><line x1="-75.45046814874141" y1="32.17531802647016" x2="-76.6098719039886" y2="49.10606430641296"/><line x1="-76.9688970788897" y1="32.52052752693753" x2="-78.09768422204964" y2="49.00418012717235"/><line x1="-78.5325656283073" y1="33.52637014350724" x2="-79.58549654011068" y2="48.902295947931734"/><line x1="-80.1129160970981" y1="34.775818443681004" x2="-81.06213157581382" y2="48.63719017237964"/><line x1="-81.69326656588889" y1="36.025266743854765" x2="-82.51956312103562" y2="48.091656268526656"/><line x1="-83.90346869010726" y1="46.472424231862625" x2="-83.27361703467967" y2="37.274715044028525"/><line x1="-85.23685790191196" y1="44.115502995898396" x2="-84.85396750347047" y2="38.52416334420228"/><line x1="-86.57024711371665" y1="41.75858175993417" x2="-86.47080204338991" y2="40.30638769305001"/><line x1="-62.97619697660075" y1="68.29755521995027" x2="-61.96741677605105" y2="53.56636123300702"/><line x1="-64.58232105937789" y1="69.74663645638041" x2="-63.379416370385584" y2="52.18064704491763"/><line x1="-66.12257339705289" y1="70.23379411934116" x2="-64.86810457832601" y2="51.91481491141516"/><line x1="-67.66282573472789" y1="70.72095178230188" x2="-66.3679633185448" y2="51.81210580296847"/><line x1="-69.19413285808295" y1="71.07748268699535" x2="-67.8678220587636" y2="51.709396694521786"/><line x1="-70.60613245241747" y1="69.69176849890597" x2="-69.36768079898238" y2="51.6066875860751"/><line x1="-71.96774237894094" y1="67.570215154717" x2="-70.86753953920118" y2="51.50397847762841"/><line x1="-73.31192768992493" y1="65.19421055194883" x2="-72.36739827941996" y2="51.40126936918172"/><line x1="-74.65611300090895" y1="62.81820594918064" x2="-73.86725701963876" y2="51.29856026073503"/><line x1="-76.00029831189293" y1="60.442201346412475" x2="-75.36711575985754" y2="51.19585115228835"/><line x1="-77.34448362287695" y1="58.066196743644284" x2="-76.86697450007634" y2="51.09314204384166"/><line x1="-78.68866893386094" y1="55.690192140876114" x2="-78.36683324029512" y2="50.99043293539497"/><line x1="-80.03285424484496" y1="53.314187538107916" x2="-79.94303841947826" y2="52.00260911314152"/></g><g fill-rule="nonzero" stroke="#99948A" stroke-width="0.3" stroke-linecap="butt"><line x1="-87.84523815534816" y1="79.20198416926198" x2="-86.75773441733661" y2="79.19741427498613"/><line x1="-91.24959280919468" y1="80.31569808140881" x2="-86.33661300087444" y2="80.29505282059851"/><line x1="-91.84753692997913" y1="81.41761893116657" x2="-86.33199316349794" y2="81.39444158381073"/><line x1="-91.95626188731174" y1="82.51748399042305" x2="-86.32737332612145" y2="82.49383034702295"/><line x1="-92.06498684464435" y1="83.61734904967953" x2="-86.32275348874495" y2="83.59321911023517"/><line x1="-92.17371180197696" y1="84.71721410893602" x2="-86.31813365136846" y2="84.69260787344739"/><line x1="-92.17202622601023" y1="85.81661520246394" x2="-86.31351381399196" y2="85.7919966366596"/><line x1="-91.7046302337001" y1="86.91405929364652" x2="-86.30889397661547" y2="86.89138539987181"/><line x1="-90.79061720948629" y1="88.00962661645924" x2="-86.30427413923897" y2="87.99077416308403"/><line x1="-89.87660418527246" y1="89.10519393927198" x2="-86.29965430186247" y2="89.09016292629624"/><line x1="-88.96259116105864" y1="90.20076126208471" x2="-86.29503446448598" y2="90.18955168950846"/><line x1="-88.04857813684482" y1="91.29632858489744" x2="-86.29041462710948" y2="91.28894045272068"/><line x1="-65.89790436042071" y1="72.5750343985915" x2="-82.69349832727043" y2="77.88721741223895"/><line x1="-64.17843263763167" y1="73.42676323900267" x2="-84.2651811274713" y2="79.77988682235095"/><line x1="-63.385901511051586" y1="74.57166885539213" x2="-84.33280583781037" y2="81.1968462425529"/><line x1="-62.98464441738397" y1="75.84032831314151" x2="-84.32694917214945" y2="82.59056465572783"/><line x1="-62.58338732371635" y1="77.10898777089089" x2="-84.32109250648855" y2="83.98428306890278"/><line x1="-62.182130230048735" y1="78.37764722864027" x2="-84.31523584082764" y2="85.37800148207774"/><line x1="-61.780873136381125" y1="79.64630668638964" x2="-84.30937917516673" y2="86.77171989525266"/><line x1="-61.37961604271351" y1="80.91496614413902" x2="-84.30352250950583" y2="88.1654383084276"/><line x1="-60.9783589490459" y1="82.1836256018884" x2="-84.29766584384491" y2="89.55915672160255"/><line x1="-60.57710185537828" y1="83.45228505963777" x2="-84.291809178184" y2="90.9528751347775"/><line x1="-60.17584476171067" y1="84.72094451738714" x2="-84.2859525125231" y2="92.34659354795244"/><line x1="-59.774587668043054" y1="85.98960397513652" x2="-84.28009584686218" y2="93.74031196112738"/><line x1="-59.37333057437544" y1="87.2582634328859" x2="-84.01713514348015" y2="95.05271239861071"/><line x1="-58.97207348070782" y1="88.52692289063528" x2="-83.6804230207374" y2="96.34178641858634"/><line x1="-59.133466274669985" y1="89.97353968538606" x2="-82.88486326516968" y2="97.4857341271165"/><line x1="-59.80409546239156" y1="91.58121996656067" x2="-81.9636449202369" y2="98.58993799418076"/><line x1="-62.32545174227041" y1="93.7742562072363" x2="-81.0424265753041" y2="99.69414186124501"/><line x1="-66.46937782156061" y1="96.48048583326664" x2="-80.12120823037132" y2="100.79834572830926"/><line x1="-70.61330390085085" y1="99.18671545929699" x2="-79.19998988543853" y2="101.90254959537351"/><line x1="-74.75722998014103" y1="101.89294508532731" x2="-78.04314100733254" y2="102.93222721952608"/><line x1="-73.78458980086516" y1="108.39363365593061" x2="-75.294711989434" y2="106.0812523783283"/><line x1="-67.7133340875981" y1="115.26643164317039" x2="-74.67894932811758" y2="104.60030251065068"/><line x1="-65.88480404016335" y1="115.64253719721628" x2="-73.73857525179675" y2="103.61641530732848"/><line x1="-64.56667540510561" y1="115.23708833203936" x2="-72.62891820091707" y2="102.89174340721138"/><line x1="-63.3080200839031" y1="114.74057069208594" x2="-71.5192611500374" y2="102.16707150709429"/><line x1="-62.049364762700584" y1="114.24405305213251" x2="-70.40960409915773" y2="101.44239960697719"/><line x1="-60.79070944149807" y1="113.7475354121791" x2="-69.29994704827806" y2="100.7177277068601"/><line x1="-59.53205412029555" y1="113.25101777222568" x2="-68.19028999739838" y2="99.993055806743"/><line x1="-58.27339879909304" y1="112.75450013227226" x2="-67.0806329465187" y2="99.26838390662591"/><line x1="-57.014743477890526" y1="112.25798249231885" x2="-65.97097589563904" y2="98.54371200650883"/><line x1="-55.75608815668801" y1="111.76146485236542" x2="-64.86131884475937" y2="97.81904010639172"/><line x1="-54.4974328354855" y1="111.264947212412" x2="-63.751661793879705" y2="97.09436820627464"/><line x1="-53.420347141900756" y1="110.49040027743678" x2="-62.64200474300003" y2="96.36969630615754"/><line x1="-52.80458448058434" y1="109.00945040975915" x2="-61.53234769212036" y2="95.64502440604045"/><line x1="-53.68846936432998" y1="105.23215860865812" x2="-60.422690641240685" y2="94.92035250592335"/><line x1="-55.17506973005507" y1="100.53195606112861" x2="-59.24061126551005" y2="94.30657761091848"/><line x1="-56.661670095780174" y1="95.83175351359904" x2="-57.41208121807527" y2="94.6826831649644"/><line x1="-62.085955507803746" y1="71.05472697823241" x2="-50.77117758100833" y2="106.8287986537195"/><line x1="-60.741413696892735" y1="70.92670791775336" x2="-48.705689235693754" y2="108.9802050634363"/><line x1="-59.35906939045062" y1="70.9182094694676" x2="-47.474296260792784" y2="108.49444194508797"/><line x1="-57.97260167950861" y1="70.92274803959094" x2="-46.24290328589183" y2="108.00867882673964"/><line x1="-56.58613396856659" y1="70.92728660971429" x2="-45.01151031099086" y2="107.52291570839132"/><line x1="-55.19966625762458" y1="70.93182517983763" x2="-43.780117336089894" y2="107.037152590043"/><line x1="-53.81319854668256" y1="70.93636374996098" x2="-42.548724361188924" y2="106.55138947169468"/><line x1="-52.42673083574054" y1="70.9409023200843" x2="-41.61229024052973" y2="105.13305133850878"/><line x1="-51.04026312479853" y1="70.94544089020765" x2="-40.871993215353896" y2="103.09458415308347"/><line x1="-49.653795413856514" y1="70.949979460331" x2="-40.436629858465324" y2="100.09200446132749"/><line x1="-48.2673277029145" y1="70.95451803045434" x2="-40.001266501576744" y2="97.0894247695715"/><line x1="-46.88085999197248" y1="70.95905660057768" x2="-39.565903144688164" y2="94.08684507781551"/><line x1="-45.494392281030464" y1="70.96359517070103" x2="-39.13053978779959" y2="91.08426538605953"/><line x1="-44.10792457008845" y1="70.96813374082436" x2="-38.69517643091101" y2="88.08168569430356"/><line x1="-42.665354888856356" y1="71.1500505961671" x2="-38.25981307402244" y2="85.07910600254758"/><line x1="-41.02936032444027" y1="71.94352126897012" x2="-38.82908682444835" y2="78.90015288857795"/><path d="M -89.20443318344701,86.29062898969025 L -89.19902811852981,87.57687938123674 L -90.42933963542241,87.5820493805315 L -91.46828536538705,87.58641522496801 L -92.66893891745839,87.59146059594295 L -92.67434398237559,86.30521020439646 L -92.67879970592679,85.24487582355965 L -91.47814615385545,85.23983045258471 L -91.48392656646845,83.86425807728699 L -90.44498083650382,83.85989223285048 L -90.43920042389081,85.2354646081482 L -90.4347447003396,86.29579898898501 Z" fill="#99948A" stroke="#1A1917" stroke-width="0.3"/></g><g id="labels" style="font: bold italic 2px &quot;Archivo Narrow&quot;, sans-serif" fill="#1A1917"><text text-anchor="middle" stroke="#CCC5B8" stroke-width="0.7510599937430922" x="1.666332836445088" y="-0.4354338598166397">Market</text><text text-anchor="middle" x="1.666332836445088" y="-0.4354338598166397">Market</text><text text-anchor="middle" stroke="#CCC5B8" stroke-width="0.7510599937430922" x="-8.528373934152595" y="8.977834557919303">Merchant</text><text text-anchor="middle" x="-8.528373934152595" y="8.977834557919303">Merchant</text><text text-anchor="middle" stroke="#CCC5B8" stroke-width="0.7510599937430922" x="11.458108464836581" y="27.77995509674541">Craftsmen</text><text text-anchor="middle" x="11.458108464836581" y="27.77995509674541">Craftsmen</text><text text-anchor="middle" stroke="#CCC5B8" stroke-width="0.7510599937430922" x="-12.131214924881789" y="22.71984821006371">Craftsmen</text><text text-anchor="middle" x="-12.131214924881789" y="22.71984821006371">Craftsmen</text><text text-anchor="middle" stroke="#CCC5B8" stroke-width="0.7510599937430922" x="-15.499486000493588" y="-8.130721320669984">Craftsmen</text><text text-anchor="middle" x="-15.499486000493588" y="-8.130721320669984">Craftsmen</text><text text-anchor="middle" stroke="#CCC5B8" stroke-width="0.7510599937430922" x="12.237931149387938" y="-28.525866489890426">Gate</text><text text-anchor="middle" x="12.237931149387938" y="-28.525866489890426">Gate</text><text text-anchor="middle" stroke="#CCC5B8" stroke-width="0.7510599937430922" x="22.38240228855681" y="-7.1623769989860335">Craftsmen</text><text text-anchor="middle" x="22.38240228855681" y="-7.1623769989860335">Craftsmen</text><text text-anchor="middle" stroke="#CCC5B8" stroke-width="0.7510599937430922" x="-14.14083806263053" y="-26.93413054884073">Gate</text><text text-anchor="middle" x="-14.14083806263053" y="-26.93413054884073">Gate</text></g></g></svg>