<svg width="144.1180047545348" height="170.29844406746196" xmlns="http://www.w3.org/2000/svg"><rect x="0" y="0" width="144.1180047545348" height="170.29844406746196" id="background" fill="#CCC5B8"/><g id="map" transform="translate(72.0590023772674 85.14922203373098)"><g fill="none"><path d="M -9.830627135830861,-34.25485737024381 L -11.016752108679048,-56.60909051344422 L 3.238299534341209,-69.05768502810915 C 6.265070179925013,-71.70089119805749 11.388873071605683,-74.01003943095415 14.438809448353274,-79.26053635401584 C 19.359276116257103,-87.7311704619334 28.86389488305413,-94.73903498947848 28.802963739957068,-103.9885760880364 C 28.735136768683503,-114.28492581162789 31.324342277660058,-123.7928815630638 28.625089485403315,-130.99045303049658 C 27.037442003998645,-135.22392321353414 24.18262283725545,-141.3604734467835 21.546377739034476,-149.86587434635217 C 16.957266925831146,-164.67186763778787 5.079673076574817,-177.9144851217568 9.792371033104033,-187.788197759157 C 13.811863592277874,-196.2095553007465 13.811863592277874,-196.2095553007465 21.862919258851306,-213.0775597459123" stroke="#67635C" stroke-width="2.3" stroke-linejoin="round" stroke-linecap="butt"/><path d="M -9.830627135830861,-34.25485737024381 L -11.016752108679048,-56.60909051344422 L 3.238299534341209,-69.05768502810915 C 6.265070179925013,-71.70089119805749 11.388873071605683,-74.01003943095415 14.438809448353274,-79.26053635401584 C 19.359276116257103,-87.7311704619334 28.86389488305413,-94.73903498947848 28.802963739957068,-103.9885760880364 C 28.735136768683503,-114.28492581162789 31.324342277660058,-123.7928815630638 28.625089485403315,-130.99045303049658 C 27.037442003998645,-135.22392321353414 24.18262283725545,-141.3604734467835 21.546377739034476,-149.86587434635217 C 16.957266925831146,-164.67186763778787 5.079673076574817,-177.9144851217568 9.792371033104033,-187.788197759157 C 13.811863592277874,-196.2095553007465 13.811863592277874,-196.2095553007465 21.862919258851306,-213.0775597459123" stroke="#CCC5B8" stroke-width="1.7" stroke-linejoin="round" stroke-linecap="round"/></g><g fill="none"><path d="M -34.346731575192635,-8.501171701236716 L -58.149168647722846,-12.016382171983048 C -63.38487415080985,-12.78960580240852 -69.19662178331468,-14.692848992902274 -75.27933120412625,-17.44032924521341 C -78.95424169538906,-19.100238227419638 -81.74096553223066,-22.78948101552718 -85.80223433944077,-24.506910100854697 C -91.4135444843081,-26.879820564815997 -98.32892252411447,-28.219223282337254 -105.83967638383012,-30.36368599916504 C -112.32726867890653,-32.216016678431544 -119.9368923178664,-32.55678909963977 -126.70733931259137,-36.18609359977572 C -133.29134409988583,-39.71545557869112 -137.69144210028946,-51.49746838162679 -148.52821666780545,-53.246918299421694 C -157.0016572822699,-54.614840082241685 -173.56269314782102,-52.37276208979671 -196.969452208755,-47.52895644743073 C -245.77437859952437,-37.429242206281444 -245.77437859952437,-37.429242206281444 -342.61801117999534,-13.081885654945623" stroke="#67635C" stroke-width="2.3" stroke-linejoin="round" stroke-linecap="butt"/><path d="M -34.346731575192635,-8.501171701236716 L -58.149168647722846,-12.016382171983048 C -63.38487415080985,-12.78960580240852 -69.19662178331468,-14.692848992902274 -75.27933120412625,-17.44032924521341 C -78.95424169538906,-19.100238227419638 -81.74096553223066,-22.78948101552718 -85.80223433944077,-24.506910100854697 C -91.4135444843081,-26.879820564815997 -98.32892252411447,-28.219223282337254 -105.83967638383012,-30.36368599916504 C -112.32726867890653,-32.216016678431544 -119.9368923178664,-32.55678909963977 -126.70733931259137,-36.18609359977572 C -133.29134409988583,-39.71545557869112 -137.69144210028946,-51.49746838162679 -148.52821666780545,-53.246918299421694 C -157.0016572822699,-54.614840082241685 -173.56269314782102,-52.37276208979671 -196.969452208755,-47.52895644743073 C -245.77437859952437,-37.429242206281444 -245.77437859952437,-37.429242206281444 -342.61801117999534,-13.081885654945623" stroke="#CCC5B8" stroke-width="1.7" stroke-linejoin="round" stroke-linecap="round"/></g><g fill="none"><path d="M -31.985734411851645,20.74105217107345 C -49.43326947240365,21.023029022276127 -49.43326947240365,21.023029022276127 -57.945439973605815,22.660143867812323 C -65.76360808124872,24.163783752858354 -73.38636180064948,25.556180797504933 -78.19358998170297,29.628041256067974 C -83.13716625464592,33.81539246794149 -83.7359580934178,41.173777950911436 -86.3576846865695,46.72613188179931 C -88.46864102509828,51.196764614739195 -90.8912471961195,56.09212366498348 -93.26145450374999,61.539117349055914 C -96.53410414199614,69.06002147095298 -99.7630608397824,77.14788825843672 -103.27606520856216,85.60640684819244 C -105.84499784313081,91.79181459730854 -109.83086838797355,97.96238726502757 -111.42237952054771,105.26651012628183 C -113.43066217374486,114.48337511631934 -109.33697036905393,126.46399145385377 -114.52716379835888,137.2424932958192 C -120.25449235941464,149.13646647537905 -129.583080146599,159.69760664413528 -140.49965003337144,165.65142988904458 C -149.12572011514288,170.35603006087126 -149.12572011514288,170.35603006087126 -169.9498713112861,167.4696624257587" stroke="#67635C" stroke-width="2.3" stroke-linejoin="round" stroke-linecap="butt"/><path d="M -31.985734411851645,20.74105217107345 C -49.43326947240365,21.023029022276127 -49.43326947240365,21.023029022276127 -57.945439973605815,22.660143867812323 C -65.76360808124872,24.163783752858354 -73.38636180064948,25.556180797504933 -78.19358998170297,29.628041256067974 C -83.13716625464592,33.81539246794149 -83.7359580934178,41.173777950911436 -86.3576846865695,46.72613188179931 C -88.46864102509828,51.196764614739195 -90.8912471961195,56.09212366498348 -93.26145450374999,61.539117349055914 C -96.53410414199614,69.06002147095298 -99.7630608397824,77.14788825843672 -103.27606520856216,85.60640684819244 C -105.84499784313081,91.79181459730854 -109.83086838797355,97.96238726502757 -111.42237952054771,105.26651012628183 C -113.43066217374486,114.48337511631934 -109.33697036905393,126.46399145385377 -114.52716379835888,137.2424932958192 C -120.25449235941464,149.13646647537905 -129.583080146599,159.69760664413528 -140.49965003337144,165.65142988904458 C -149.12572011514288,170.35603006087126 -149.12572011514288,170.35603006087126 -169.9498713112861,167.4696624257587" stroke="#CCC5B8" stroke-width="1.7" stroke-linejoin="round" stroke-linecap="round"/></g><g fill="none"><polyline points="155.02067347549757,-78.6805097630458 113.28050399764042,-71.33736062893676 100.38583831695902,-56.080945084206704 89.34771587472446,-36.635179211091874 91.12952481790603,-11.80940565473911 74.5577970142214,5.037718047999539 68.4199844372436,27.566481687540538 51.19857048726174,37.700827032265394 45.810716263116824,61.69591027943078 54.68547317323766,74.39655842978041 71.24721023629652,105.08157301619242 86.10085671686961,118.14927990685916 90.09249779609205,141.62008535327018 102.2881237654495,173.63484030447162" stroke="#99948A" stroke-width="8.169859805931274" stroke-linejoin="round" stroke-linecap="butt"/><polyline points="155.02067347549757,-78.6805097630458 113.28050399764042,-71.33736062893676 100.38583831695902,-56.080945084206704 89.34771587472446,-36.635179211091874 91.12952481790603,-11.80940565473911 74.5577970142214,5.037718047999539 68.4199844372436,27.566481687540538 51.19857048726174,37.700827032265394 45.810716263116824,61.69591027943078 54.68547317323766,74.39655842978041 71.24721023629652,105.08157301619242 86.10085671686961,118.14927990685916 90.09249779609205,141.62008535327018 102.2881237654495,173.63484030447162" stroke="#67635C" stroke-width="7.569859805931275" stroke-linejoin="round" stroke-linecap="round"/><polyline points="155.02067347549757,-78.6805097630458 113.28050399764042,-71.33736062893676 100.38583831695902,-56.080945084206704 89.34771587472446,-36.635179211091874 91.12952481790603,-11.80940565473911 74.5577970142214,5.037718047999539 68.4199844372436,27.566481687540538 51.19857048726174,37.700827032265394 45.810716263116824,61.69591027943078 54.68547317323766,74.39655842978041 71.24721023629652,105.08157301619242 86.10085671686961,118.14927990685916 90.09249779609205,141.62008535327018 102.2881237654495,173.63484030447162" stroke="#CCC5B8" stroke-width="4.901915883558765" stroke-linejoin="round" stroke-linecap="butt"/><polyline points="155.02067347549757,-78.6805097630458 113.28050399764042,-71.33736062893676 100.38583831695902,-56.080945084206704 89.34771587472446,-36.635179211091874 91.12952481790603,-11.80940565473911 74.5577970142214,5.037718047999539 68.4199844372436,27.566481687540538 51.19857048726174,37.700827032265394 45.810716263116824,61.69591027943078 54.68547317323766,74.39655842978041 71.24721023629652,105.08157301619242 86.10085671686961,118.14927990685916 90.09249779609205,141.62008535327018 102.2881237654495,173.63484030447162" stroke="#67635C" stroke-width="4.601915883558765" stroke-linejoin="round" stroke-linecap="round"/></g><g fill-rule="nonzero" fill="#99948A" stroke="#1A1917" stroke-width="0.3"><path d="M 1.4256024492782318,-3.4430485011908614 L 2.814232474770372,-3.1715074629690974 L 2.6026087826101962,-2.089287939306794 L 1.2139787571180565,-2.360828977528558 Z"/></g><g fill="#9F8595" stroke="#2C162E" stroke-width="0.3"><polygon points="-12.768922340511546,10.66633339745487 -12.286623380627798,12.888300516599784 -15.446394284582993,13.574158649835795 -15.928693244466738,11.352191530690877"/><polygon points="-14.20442695448439,10.97792323884454 -15.928693244466738,11.352191530690877 -16.475225747488956,8.834298372571588 -14.75095945750661,8.46003008072525"/><polygon points="-13.315454843533765,8.148440239335581 -16.475225747488956,8.834298372571588 -16.69754342047846,7.810073564982207 -13.537772516523269,7.1242154317462"/><polygon points="-8.712544948407304,10.097932577763459 -8.661200091342119,10.334480017474995 -12.286623380627798,12.888300516599784 -12.704231573970231,10.964365879635066"/><polygon points="-5.717197360384919,7.752005356405638 -5.636222005897828,8.203625099970173 -8.661200091342119,10.334480017474995 -9.064063667577285,8.47847431488871"/><polygon points="-7.415256573009356,8.120585154465363 -7.897278796392411,5.899892969451248 -6.118508326373851,5.513794030286016 -5.717197360384919,7.752005356405638"/><polygon points="-8.722235354290548,6.078957585842449 -9.185053606877675,3.9467387238391494 -6.503830892456969,3.364753997224729 -6.118508326373851,5.513794030286016"/><polygon points="-6.503830892456969,3.364753997224729 -7.568008048940012,3.5957437050748307 -8.969609614629372,3.8999745694647383 -9.49287853431142,1.4892575024317911 -9.731362290934179,0.39055501757953826 -8.220196294491712,0.27729185017890856 -7.072831470967804,0.19129588786747753 -6.894693080772652,1.1848181096412627"/><polygon points="-10.196766452169628,-1.1711117791680314 -7.65123398499847,-0.060956487578835095 -9.852103231021946,0.4167629795777003"/><polygon points="-10.196766452169628,-1.1711117791680314 -9.852103231021946,0.4167629795777003 -12.75081399765662,1.045955543097604 -13.092341742419269,-0.5274739731535556"/><polygon points="-14.370083588044961,5.864770535552667 -14.071559884520372,7.240079024040563 -16.69754342047846,7.810073564982207 -16.996067124003048,6.43476507649431"/><polygon points="-16.346542417978462,3.9588896484725558 -15.862536341703036,6.18872150879746 -16.996067124003048,6.43476507649431 -17.480073200278476,4.204933216169406"/><polygon points="-15.95687782036444,1.5922398051352573 -16.02059660358326,1.2986852819858186 -13.092341742419269,-0.5274739731535556 -12.781829612504884,0.9030655887225842"/><polygon points="-15.483821056424256,3.771627824585977 -17.480073200278476,4.204933216169406 -17.861682049114464,2.4468487394940053 -16.02059660358326,1.2986852819858186"/><polygon points="-8.293200894491841,-6.615008692050007 -10.0333330196261,-6.303003254522041 -10.484099529898412,-8.817040483085421 -8.766126163537965,-9.252630843686902"/><polygon points="-10.0333330196261,-6.303003254522041 -12.124153917201323,-5.928119370983462 -12.63295865674979,-8.272199485969178 -10.484099529898412,-8.817040483085421"/><polygon points="-7.752782258116761,-3.600959201027158 -10.096449090643933,-3.1807400780418824 -11.474189380718961,-2.933711443953767 -11.68397368871863,-3.900194628160072 -12.124153917201323,-5.928119370983462 -10.705857516166631,-6.182419709881594 -8.293200894491841,-6.615008692050007 -7.927209235741789,-4.573781949438974"/><polygon points="-7.752782258116761,-3.600959201027158 -7.201163013899514,-0.5244411271436729 -11.343349472437321,-2.330927697242355 -11.474189380718961,-2.933711443953767"/><polygon points="-17.155865149794227,-2.9066981411784165 -18.93967608463835,-2.5195051214924824 -19.438172473719924,-4.816094327943822 -17.654361538875797,-5.203287347629756"/><polygon points="-15.94968733014231,-7.431246379739706 -15.564548883932336,-5.656900932253365 -19.438172473719924,-4.816094327943822 -19.79423073233767,-6.456466397871836"/><polygon points="-12.277070071989348,-6.632609109064105 -11.724236032890246,-4.085684567658571 -13.877981052378303,-3.6181938591760643 -14.430815091477406,-6.165118400581597"/><polygon points="-12.63295865674979,-8.272199485969178 -12.277070071989348,-6.632609109064105 -14.120820257114355,-6.232405708703498 -14.46286738309238,-7.808228031240509"/><polygon points="-14.120820257114355,-6.232405708703498 -15.618886533949867,-5.907236267207561 -15.94968733014231,-7.431246379739706 -14.46286738309238,-7.808228031240509"/><polygon points="-18.93967608463835,-2.5195051214924824 -15.22992765886924,-3.3247410728990703 -14.83586120112022,-1.5092639835699029 -18.54560962688933,-0.704028032163315"/><polygon points="-14.83586120112022,-1.5092639835699029 -14.576547166917486,-0.3145957270383519 -17.99794052861928,1.8191014575231534 -18.54560962688933,-0.704028032163315"/><polygon points="-15.22992765886924,-3.3247410728990703 -11.724236032890246,-4.085684567658571 -11.343349472437321,-2.330927697242355 -14.849041098416317,-1.569984202482853"/></g><g fill="#A3858C" stroke="#301625" stroke-width="0.3"><polygon points="15.090207545847264,-17.407763802034648 11.557399834694534,-18.201598455949984 11.998816891000436,-20.166039756994696 15.710319360432154,-20.16745159033829"/><polygon points="14.36267753541878,-14.170032092717143 12.354839891177532,-14.621200464095716 10.829869824266048,-14.963866746632483 11.174257824031296,-16.49649898333109 11.557399834694534,-18.201598455949984 13.082369901606018,-17.85893217341322 12.69922789094278,-16.153832700794325 14.707065535184027,-15.702664329415752"/><polygon points="9.067088573982723,-19.244618305391864 9.273902387971775,-20.165003215813464 11.998816891000436,-20.166039756994696 11.660808785087829,-18.6618000049121"/><polygon points="6.896326405171255,-18.13096340165477 7.353218326559304,-20.164272599082707 9.273902387971775,-20.165003215813464 8.724536818267131,-17.72015791796462"/><polygon points="6.407939200065066,-15.957490530802398 4.978014222073449,-16.278799838536695 2.7588531543139325,-16.77745334652297 3.14413377275804,-17.994430463846687 3.83065601434191,-20.16293263744501 5.972872734918226,-20.163747523874484 7.353218326559304,-20.164272599082707 6.747738373999439,-17.469701084974936"/><polygon points="7.711022952979174,-15.664682904519296 7.122867204582565,-13.047209412972858 1.9461647992199955,-14.210433142758825 2.7588531543139325,-16.77745334652297"/><polygon points="7.122867204582565,-13.047209412972858 6.893889993283795,-12.028190586111702 6.155538518710551,-8.742300041968823 5.001422910019217,-8.967982725519411 2.2136901893201606,-9.513112690569047 2.9708070913650744,-12.88251514307724 3.205603828186937,-13.927432643600262 5.975949710993389,-13.304925916681388"/><polygon points="2.443988813772998,-10.53801221129672 0.8937978794606201,-10.886345713841367 1.9461647992199955,-14.210433142758825 3.205603828186937,-13.927432643600262"/><polygon points="0.8937978794606201,-10.886345713841367 2.443988813772998,-10.53801221129672 2.2136901893201606,-9.513112690569047 0.5613413627064071,-9.836222883814505"/><polygon points="14.36267753541878,-14.170032092717143 13.902109983255311,-12.120365210873809 11.007853380008623,-12.770715124266305 11.468420932172092,-14.82038200610964"/><polygon points="6.155538518710551,-8.742300041968823 7.250455400815706,-13.61501602267596 9.488377286190707,-13.1121468912036 8.407505720693422,-8.301936877668766"/><polygon points="13.435629021784086,-10.044381843728894 9.021896324719481,-11.036163524058685 9.488377286190707,-13.1121468912036 13.902109983255311,-12.120365210873809"/><polygon points="12.272266333171062,-10.305793642162667 11.678275223944073,-7.662351004979602 9.77252588659039,-8.035012652902745 10.378402982786818,-10.731351578013262"/><polygon points="12.272266333171062,-10.305793642162667 13.435629021784086,-10.044381843728894 12.848939238576623,-7.433432346945025 11.678275223944073,-7.662351004979602"/><polygon points="8.407505720693422,-8.301936877668766 9.021896324719481,-11.036163524058685 10.378402982786818,-10.731351578013262 9.77252588659039,-8.035012652902745"/><polygon points="-6.590951486837334,-14.452692186322214 -5.198223389923661,-14.320733228138186 -3.769554012433697,-14.185368885980676 -3.8756650698205077,-13.06544604747408 -4.095351461647124,-10.746820509525975 -5.510624658932937,-11.023571513251554 -5.299971359601103,-13.246859516767483 -6.688446131751273,-13.423709136297656"/><polygon points="-3.769554012433697,-14.185368885980676 -2.7711933246300795,-14.090775665274924 -1.1697245625853205,-13.939038833173955 -1.3672734582973662,-11.854058007630165 -1.519899789022067,-10.243201252966449 -3.1063520857700313,-10.553425643797672 -4.095351461647124,-10.746820509525975 -3.9533503562608336,-12.2455359585255"/><polygon points="-1.1697245625853205,-13.939038833173955 0.8048684038653882,-13.75194902629222 -0.376730617222063,-10.01965910129529 -1.5198997890220671,-10.243201252966449"/><polygon points="-6.590951486837334,-14.452692186322214 -6.357380227962833,-16.917862109930976 -2.9847291082565204,-16.598308329791916 -3.2183003671310204,-14.133138406183154"/><polygon points="-5.077667253555127,-16.796611169958094 -6.357380227962833,-16.917862109930976 -6.050270649244986,-20.159173992032773 -4.759022786049142,-20.159665174997922"/><polygon points="-5.077667253555127,-16.796611169958094 -4.759022786049142,-20.159665174997922 -3.115495887372057,-20.160290362801447 -3.448822199113301,-16.642280474035708"/><polygon points="-3.448822199113301,-16.642280474035708 -3.115495887372057,-20.160290362801447 -0.5953125267508439,-20.161249025480455 -0.9511519714226893,-16.40562985869758"/><polygon points="-0.9089852485181763,-16.85066807779286 1.707404412954856,-16.60276896906048 0.8048684038653882,-13.75194902629222 -1.1847232302971897,-13.940459935088818"/><polygon points="1.707404412954856,-16.60276896906048 0.1156873956476745,-16.75358183755441 -0.9089852485181762,-16.85066807779286 -0.7958291640252355,-18.04494590764868 -0.5953125267508437,-20.161249025480455 0.7478829179570501,-20.161759968994954 2.8343903104243298,-20.162553663929174 2.1139597255044786,-17.88694597826827"/></g><g fill="#A38E7C" stroke="#301F14" stroke-width="0.3"><polygon points="23.71950456044868,7.189883062155318 20.999004982719494,4.313723596419866 18.935235069189446,2.1318701528497446 21.045921694590874,0.3879745454147674 23.46617272735014,-1.611689968551694 25.419017256386702,-0.8170331466747534 27.99329294564094,0.2304981377880564 25.710401073485922,3.947931442179766"/><polygon points="16.122667754365796,19.560479539115217 13.216042703228972,16.638792883215093 11.676112132706962,15.090882671284895 13.573799644133793,13.202977940363853 14.342139774196426,12.43859868520867 15.659957693901392,13.763245298779335 14.955629676977232,14.591968366253726 17.56383933704941,17.213693296561555"/><polygon points="14.342139774196426,12.43859868520867 15.160396515373739,11.6245601443663 17.644505943955174,9.153256563505227 19.02888918280006,10.54481342564778 20.65527889463114,12.17963079450367 18.768757591628916,15.251619094415888 18.147344236888866,16.263521028485055 16.091810494914988,14.197335882819761"/><polygon points="11.676112132706962,15.090882671284895 10.16201453291215,13.568939291859081 16.13040834416036,7.631313184079414 17.644505943955174,9.153256563505227"/><polygon points="16.13040834416036,7.631313184079414 17.744363787296795,6.025677852526819 19.646259561567426,4.133586552803521 21.311918053127272,5.894549677518027 23.254056795057515,7.9478125311872745 21.848250803433675,10.237009876238318 20.65527889463114,12.17963079450367 18.2194639556116,9.73119390348048"/><polygon points="7.9971834771265815,6.682895707698972 10.739609053872574,9.439532037260694 12.516980461909679,11.226113462136734 10.874929827780573,12.859699150990945 9.326469664868702,11.303215147867427 8.712938837461422,12.112354748513287 6.4770627387039585,9.864892744622988 6.937246604263955,8.9016115659374"/><polygon points="19.646259561567426,4.133586552803521 17.616901828193612,6.1524827317044455 15.69383352923665,8.065637409502466 11.86461864457323,4.216580226595596 13.363731848326983,1.7582643636053659 11.34579459375054,-0.32659398715570775 12.715499772731901,-3.1937332286745974 14.94570216882498,-0.835924470114473"/><polygon points="12.516980461909679,11.226113462136734 9.691483103665478,8.385974888145434 7.9971834771265815,6.682895707698972 9.18973425599326,4.186585415483091 10.047828954032042,2.390376260812314 12.164300883061646,4.517815364185645 15.69383352923665,8.065637409502466 14.364476112646404,9.388141847537533"/></g><g fill-rule="nonzero" fill="#99948A" stroke="#1A1917" stroke-width="0.3"><path d="M -14.264748941863248,16.728122823450715 L -4.266788333199311,9.685359892207195 L 5.749995904391182,10.65599756187646 L 15.402032149699583,20.358048911482893 L -0.18748815079596826,31.69863794723397 Z M 0.5059884521996745,24.31245154484374 L 6.876116791161999,19.67850475208277 L 3.2183339177150234,16.001767910036275 L -2.7492657838872105,15.423500780537285 L -5.819133686661813,17.585976981007576 Z"/></g><g fill="#8D9E7C" stroke="#1B3014" stroke-width="0.3"><polygon points="-24.3456875071832,-0.7942335122851125 -24.168861161150552,-3.4440729483663555 -20.141871078870736,-3.175348009012174 -19.555645903375446,-0.4745894075848283"/><polygon points="-24.168861161150552,-3.4440729483663555 -23.95790670402373,-6.60534078120697 -20.828042153697734,-6.336560645136074 -20.141871078870736,-3.175348009012174"/><polygon points="-24.3456875071832,-0.7942335122851125 -25.771087146889332,-0.8893518075650088 -25.38149568032631,-6.72759285716974 -23.95790670402373,-6.60534078120697"/><polygon points="-25.771087146889332,-0.8893518075650088 -28.355250885366537,-1.0617955508360195 -30.61211986348707,-1.2123985984930008 -31.32124066839063,-4.199330018594094 -32.057579458025074,-7.300907988651604 -28.94521743626804,-7.033630899097485 -25.38149568032631,-6.72759285716974 -25.579959414646474,-3.7535053321330465"/><polygon points="-23.95742056347699,2.747745693360082 -24.54222428246749,0.05353578864919406 -19.366036396187695,0.3989478079007835 -19.08573608263436,1.6903005413830319"/><polygon points="-23.082603113415104,6.77805836448887 -23.565662320608737,4.552588761064527 -20.206395720238387,3.823428201769515 -19.79016008690375,5.741039409782369"/><polygon points="-19.79016008690375,5.741039409782369 -20.59815396310664,2.018585134065068 -19.08573608263436,1.6903005413830319 -18.30782769233195,5.2741499972796895"/><polygon points="-23.54778600415973,4.634945536975257 -26.52354856186804,5.280862919855361 -28.945749076926198,5.806624430445131 -29.77690447327782,2.3056635910760774 -30.404449185308163,-0.3376561436151633 -27.77392282052328,-0.16211857749178057 -24.54222428246749,0.05353578864919406 -24.114408805244544,2.024495717071609"/><polygon points="-28.945749076926198,5.806624430445131 -23.54778600415973,4.634945536975257 -23.082603113415104,6.77805836448887 -29.122737714096417,8.680516210971973"/><polygon points="-26.001141667023965,11.658123343777241 -23.816660051350247,11.072082117853885 -22.20445262611078,17.081620910179176 -24.3889342417845,17.66766213610253"/><polygon points="-16.100355680656854,15.444045921494475 -18.197716175420208,16.00671475181798 -18.82907352299359,13.653316291630215 -16.617815487287565,13.060091628726214"/><polygon points="-19.809923600659673,9.997175959492688 -17.421719161606994,9.356481047173006 -16.617815487287565,13.060091628726214 -18.82907352299359,13.653316291630215"/><polygon points="-20.461344361754648,14.296035690414985 -18.777814066746835,13.844387047145812 -18.197716175420208,16.00671475181798 -19.88124647042802,16.458363395087154"/><polygon points="-22.78455051743741,14.919293205507007 -20.461344361754648,14.296035690414985 -19.88124647042802,16.458363395087154 -22.20445262611078,17.081620910179176"/><polygon points="-17.421719161606994,9.356481047173006 -26.001141667023965,11.658123343777241 -26.807655983819153,8.651823411480065 -18.165510160332637,5.929811532723496"/><polygon points="-24.3889342417845,17.66766213610253 -29.91042488976297,19.148938574891726 -29.551741875934667,14.382014090763954 -25.557837241075994,13.310550384390908"/><polygon points="-26.299627438630534,10.545511036362528 -25.557837241075994,13.310550384390908 -29.551741875934667,14.382014090763954 -29.324120299252574,11.356906056177662"/><polygon points="-26.299627438630534,10.545511036362528 -29.324120299252574,11.356906056177662 -29.17672472461595,9.39800767934031 -26.807655983819153,8.651823411480065"/></g><g fill="#A39A7C" stroke="#302C14" stroke-width="0.3"><polygon points="-24.008060171452932,-18.751867508594387 -22.531870565632612,-16.030822039604686 -21.750578521139527,-14.590674263706873 -23.610718643409907,-14.292020266617593 -24.984765441922466,-14.071410774004402 -25.282024817957804,-15.011314990819052 -25.843672929222915,-16.78718976787338 -25.063811438560503,-17.62188461571881"/><polygon points="-24.435942898769557,-8.653753735003928 -24.01009605761814,-13.61261323806096 -21.443526176178153,-14.024687761224005 -20.894758898927837,-8.34965114461215"/><polygon points="-20.894758898927837,-8.34965114461215 -20.693597900578094,-10.692110996172659 -19.583875591677916,-10.596812522902935 -19.761533201378345,-8.528042624853798"/><polygon points="-24.435942898769557,-8.653753735003928 -25.888490825755266,-8.778492688778798 -27.53681445806715,-8.920044070015253 -27.35305629671566,-11.059853073220035 -25.686643487861843,-11.128944759699928 -25.493813226191033,-13.37439566636349 -24.01009605761814,-13.61261323806096 -24.218154883104006,-11.189830246021298"/><polygon points="-27.266402568578,-12.06890990240514 -27.53681445806715,-8.920044070015253 -29.457314676225117,-9.084968877993578 -28.73108894464419,-12.854636256079896"/><polygon points="-18.433835923994742,-18.00953161194015 -18.985306093904107,-19.78522933884443 -19.621848409889644,-21.834853788630475 -17.882269172488,-22.375106807534294 -15.848789475210701,-23.006635122953043 -15.212247159225166,-20.957010673166998 -14.6607769893158,-19.181312946262718 -16.6942566865931,-18.54978463084397"/><polygon points="-18.01368119888979,-16.65666099259264 -19.349429363410135,-16.2418239085083 -21.33462866807237,-15.625289809681327 -22.320153656080123,-17.44189811841171 -23.3898110182014,-19.4135867870595 -21.13739455590338,-20.860974200598875 -19.621848409889644,-21.834853788630475 -18.784848278655527,-19.139768339683584"/><polygon points="-15.037476879140169,-13.829662377678368 -14.353535696736794,-11.62741669115376 -18.47187430625208,-10.348403456906302 -19.592958958473254,-12.414887532700307"/><polygon points="-18.65361393783636,-12.706615539266636 -19.592958958473254,-12.414887532700307 -21.33462866807237,-15.625289809681327 -19.71615603773869,-16.12793131387462"/><polygon points="-12.494138981905147,-12.204880865782622 -11.966081742147473,-10.504571236220691 -17.759674074296516,-9.035611924886817 -18.47187430625208,-10.348403456906302"/><polygon points="-13.062327321978564,-14.034410002576553 -13.81835703693915,-16.468776029207213 -8.244884869885066,-18.199703312821473 -8.505451474899981,-15.449617703509642"/><polygon points="-11.966081742147473,-10.504571236220691 -12.37907570583156,-11.834384674107184 -13.062327321978564,-14.034410002576553 -10.77745968550592,-14.744010699032199 -8.505451474899981,-15.449617703509642 -8.751570371717992,-12.852016847175163 -10.560204659704276,-12.344636630953236 -10.428884056699943,-10.894326110906778"/><polygon points="-12.772823377854865,-20.2340301701639 -14.792878479655439,-19.606671068815963 -15.848789475210701,-23.006635122953043 -13.828734373410125,-23.63399422430098"/><polygon points="-11.243243906921519,-21.509959928980408 -9.446256749013433,-22.06804185828726 -8.244884869885066,-18.199703312821473 -10.041872027793154,-17.641621383514625"/><polygon points="-13.191962573491928,-21.583630851324124 -13.512261611768102,-22.614972717539846 -13.828734373410125,-23.63399422430098 -12.5964446499794,-24.016700702358293 -11.874014906184613,-24.241062342023536 -11.55754214454259,-23.2220408352624 -11.237243106266416,-22.19069896904668 -11.959672850061203,-21.966337329381435"/><polygon points="-11.044954347041427,-21.57154179374349 -11.501153201668469,-23.04047214279701 -11.874014906184613,-24.241062342023536 -10.413533365540342,-24.694637289586673 -8.959650229376896,-25.14616300141276 -8.702746338809762,-23.909560324165966 -8.388422665430529,-22.39656846108153 -9.71368118345807,-21.984989097636255"/><polygon points="-11.862741828044104,-24.87391294034417 -16.334587878696116,-23.48511254712582 -17.005208452646613,-25.64446674932111 -13.44660479167579,-26.749645708454537"/><polygon points="-16.334587878696116,-23.48511254712582 -20.914750686249004,-22.062672723374266 -19.672739583041256,-23.39201169090523 -17.005208452646613,-25.64446674932111"/><polygon points="-11.862741828044104,-24.87391294034417 -13.528018470748984,-26.846062070928134 -14.383026761778362,-27.858628880882783 -13.338738472270595,-28.740422691400845 -12.358772858425283,-29.56790263299498 -11.258522774716571,-28.264901563763253 -9.115595291138224,-25.72708144110842 -10.445521906521128,-25.314052328416576"/><polygon points="-12.358772858425283,-29.56790263299498 -10.248462923204544,-31.34984183297351 -9.082472936946504,-25.737368096329718 -9.115595291138224,-25.72708144110842"/></g><g fill="#9A9E7C" stroke="#283014" stroke-width="0.3"><polygon points="20.04077051156171,-30.94637449416444 19.696893690310954,-28.856147369418135 19.31730644070921,-26.548857327479386 17.8659369587411,-26.78763153436378 15.622907403356571,-27.156646874536797 15.62200591262373,-29.52653358695165 15.621189231431401,-31.673468475424976 18.304508313514148,-31.23201824955055"/><polygon points="21.46519185120651,-27.342765126173298 19.50107744239624,-27.66589432657369 20.04077051156171,-30.94637449416444 22.004884920371982,-30.623245293764054"/><polygon points="22.004884920371982,-30.623245293764054 24.437802297615306,-30.222990276427744 21.74491247434653,-27.296746472226616 21.46519185120651,-27.342765126173298"/><polygon points="19.31730644070921,-26.548857327479386 19.50107744239624,-27.66589432657369 21.011726989969844,-27.417367571613248 20.82795598828281,-26.30033057251894"/><polygon points="15.624308778120012,-23.472638476001308 15.623684131765339,-25.114741985185827 15.622907403356571,-27.156646874536797 17.17310698645499,-26.90161348671545 18.2254316958197,-26.72848872352787 18.226117943571463,-24.924444190321612 17.17382981985222,-25.001390665808188 17.17441112374367,-23.473228125663553"/><polygon points="15.621189231431401,-31.673468475424976 15.621615156337265,-30.553774464027196 15.62206512261034,-29.370879229780268 13.562338288459769,-29.370095722010277 12.089322468286639,-29.369535395601314 12.011607462153032,-30.718332892544435 11.938044711670788,-31.99506513069315 13.473772240238803,-31.860971875883035"/><polygon points="12.089322468286639,-29.369535395601314 14.099858774354118,-29.370300191588594 15.62206512261034,-29.370879229780268 15.622999254035614,-26.915184931709884 15.62381784942837,-24.763217891494765 14.215246987434416,-24.762682079562495 12.354800891573753,-24.7619743769936 12.230811567086045,-26.913894563799964"/><polygon points="15.624561819568209,-22.807429679143198 15.625165175079065,-21.22129667084268 12.558874844069527,-21.220130272338004 12.46748703163018,-22.80622874677402"/><polygon points="12.354800891573753,-24.7619743769936 15.62381784942837,-24.763217891494765 15.624561819568209,-22.807429679143198 12.46748703163018,-22.80622874677402"/><polygon points="11.412199978476748,-24.986008617318426 9.708686213736597,-24.986722286490206 7.546286276722201,-24.987628201196653 7.564045529608504,-27.10739603202801 7.583123734193465,-29.384595675961812 9.58781467052987,-29.303778439788655 9.507670671876834,-32.166206877086694 11.004564760269904,-32.06079879410886 11.167087100963794,-29.240111551951376 11.29403162820888,-27.036901784401003"/><polygon points="-2.5985297913037644,-29.461387096333656 -2.882913038337167,-31.083422024445348 -3.1233820906098435,-32.45498383754464 -2.182589779943893,-32.47611029448443 -0.4121245603819914,-32.51586790814732 -0.2039558651549869,-31.328537437312733 0.042228369031762636,-29.92437797726397 -1.6822003965954582,-29.622042532356026"/><polygon points="-3.1233820906098435,-32.45498383754464 -2.8721589716135325,-31.02208412206557 -2.5985297913037644,-29.461387096333656 -4.825798287273482,-29.070891283992275 -5.146550287871256,-30.750588458355914 -8.010246672890355,-30.408747041201288 -8.359208094620785,-32.088467139698324 -5.441037586058009,-32.29274402317986"/><polygon points="-5.705646544122565,-26.37899384068849 -5.075389343992567,-22.784199833063067 -6.378774789232186,-22.55568380136156 -7.121495970168243,-26.13076006340603"/><polygon points="-7.6301621163045,-28.579216241894812 -6.03948868916982,-28.85810103428639 -4.671847853396909,-29.097882641273948 -2.7245659475492143,-29.439289809317515 -2.4848394793027344,-28.071963468033506 -4.415140956171944,-27.733533393420686 -4.209630345965314,-26.641282855969934 -5.5557977852654234,-26.405266071864997 -7.121495970168243,-26.13076006340603 -7.347658520056918,-27.219389799872452"/><polygon points="-2.7245659475492143,-29.439289809317515 -1.0574683397020628,-29.731573669932718 0.042228369031762636,-29.92437797726397 0.4288286270474111,-27.719328529872573 0.7368365483108468,-25.962545696720355 1.1036219874287252,-23.870513906598397 0.004126680664532145,-23.676560864126305 -1.662665609599032,-23.382535565539946 -2.0296261556241086,-25.475566111821387 -2.337781122840662,-27.23318765004672"/><polygon points="-6.378774789232186,-22.55568380136156 -2.433724214275589,-23.24734972838523 -2.1970256044570178,-21.897293364073068 -6.099839346726949,-21.213032609043943"/><polygon points="-2.0773258706436106,-21.214562749114535 -2.433724214275589,-23.24734972838523 -0.6660592167111914,-23.557265564944853 -0.5028987906711504,-21.21516165176026"/><polygon points="3.1050029518163975,-23.75247482139675 4.269094249090814,-23.752917634764653 4.2700589056451665,-21.21697725632437 3.1059676083707526,-21.216534442956466"/><polygon points="3.1050029518163975,-23.75247482139675 3.1059676083707526,-21.216534442956466 1.6537796020578914,-21.21598203932334 1.736220125835936,-23.751954144595434"/><polygon points="2.193233204858227,-23.752127989637632 1.736220125835936,-23.751954144595434 1.1135182056745323,-27.303655149631705 2.1918820691268186,-27.304065352796457"/><polygon points="4.2095276219294515,-27.30483285309868 5.762926476843888,-27.30542375673335 4.891921451865171,-23.753154554507915 4.210878757660861,-23.752895489939856"/><polygon points="2.193233204858227,-23.752127989637632 2.1918820691268186,-27.304065352796457 4.2095276219294515,-27.30483285309868 4.210878757660861,-23.752895489939856"/><polygon points="3.6403377795874334,-27.304616336686564 3.638331240359228,-32.57951321760849 5.760977103079015,-32.430041031857314 5.762926476843888,-27.30542375673335"/><polygon points="3.6403377795874334,-27.304616336686564 2.699279077952591,-27.304258363584246 1.1135182056745325,-27.303655149631705 0.8242934522133192,-28.95330454734562 0.4842871414857468,-30.892596392176912 2.4640709244201724,-30.91431783006554 2.356789838254465,-32.56090658504901 3.638331240359228,-32.57951321760849 3.638959767281784,-30.927208265499065 3.639704379089507,-28.969733202542738"/></g><g fill="#A3858C" stroke="#301625" stroke-width="0.3"><polygon points="25.659083230665594,-11.510185111040803 26.624032686884977,-10.166157182050243 25.01145714954559,-9.139407729530749 24.108571645421716,-10.396990006407345"/><polygon points="25.659083230665594,-11.510185111040803 24.108571645421716,-10.396990006407345 23.023141883524314,-11.908828689298945 24.573653468768192,-13.022023793932402"/><polygon points="24.573653468768192,-13.022023793932402 26.300604136598736,-14.261893942384123 27.66845598655264,-15.243947864279201 28.518474337432938,-14.060001496545432 29.8427141082757,-12.21553676813785 28.420109818870696,-11.309744672526357 26.624032686884977,-10.166157182050243 25.375241810212067,-11.905533068423512"/><polygon points="25.138022530370563,-13.427214495221822 23.023141883524314,-11.908828689298945 21.96787551476268,-13.378654350113278 24.082756161608927,-14.897040156036153"/><polygon points="22.284579049723533,-17.401627566359625 23.177814672782446,-16.157486107112543 24.082756161608927,-14.897040156036153 23.22729209431163,-14.282856798125033 21.96787551476268,-13.378654350113278 21.0629340259362,-14.639100301189668 20.169698402877287,-15.88324176043675 21.429114982426235,-16.787444208448505"/><polygon points="31.38448879918798,-18.62825937770838 32.91413061664906,-16.497700817600574 34.060461728992294,-14.901035809988157 32.40139686207054,-13.84468594955509 29.8427141082757,-12.21553676813785 28.765921975385563,-13.715344546663221 31.28241913548362,-15.40325184827431 29.78927714102435,-17.482971702581036"/><polygon points="31.38448879918798,-18.62825937770838 33.017636438045926,-19.800783320142774 35.2644730578542,-15.667646703004603 34.060461728992294,-14.901035809988157"/><polygon points="31.461835012998172,-18.683790356899287 28.947775906774083,-22.185492577797792 30.57476936468477,-23.353598104937053 33.017636438045926,-19.800783320142774"/><polygon points="25.518124816402953,-19.723162827580907 24.70976107434369,-20.849090656347887 23.611167158789645,-22.379265004451813 25.43808035113637,-23.69090358984863 28.60501986707937,-25.96461866516262 29.739788017067173,-24.460415732602286 30.57476936468477,-23.353598104937053 27.368009299164964,-21.051293729630352"/><polygon points="21.907816442238037,-24.75177365882319 21.560648871614223,-25.235325318395425 23.124991307437124,-26.935226785184387 23.7454088607506,-26.07107943123249"/><polygon points="28.60501986707937,-25.96461866516262 26.699520184096787,-24.59655863957876 26.10788887234936,-25.420611134275518 27.993907462758525,-26.77468464270464"/><polygon points="25.029740136529366,-26.922308454490896 26.880257706432385,-28.250893883622165 27.993907462758525,-26.77468464270464 26.10788887234936,-25.420611134275518"/><polygon points="24.61703985021789,-26.626008870034386 23.778979529734787,-26.02432059177325 23.124991307437124,-26.935226785184387 23.838432062799107,-27.710491176621098"/><polygon points="26.880257706432385,-28.250893883622165 24.61703985021789,-26.626008870034386 23.838432062799107,-27.710491176621098 26.038845895980117,-29.366235473696587"/><polygon points="21.845181115550155,-17.0861603141553 20.169698402877287,-15.88324176043675 18.37923788997252,-18.37708112123293 20.054720602645386,-19.57999967495148"/><polygon points="23.727664303498184,-22.217002188377087 22.56402485192177,-21.38156325752287 21.230572610490253,-20.424206652418498 20.447651802070574,-21.514696341719567 19.434874699844887,-22.925340912230606 20.570042600190806,-24.158877467054484 21.560648871614223,-25.235325318395425 22.782849775547458,-23.532985222615"/><polygon points="18.85752296893751,-20.068004291234146 17.958167903441293,-21.32066920369691 19.434874699844887,-22.925340912230606 20.59217207855511,-21.313401562341518"/><polygon points="19.495923500872653,-19.178809381311122 18.37923788997252,-18.37708112123293 17.00753343683966,-20.287656937871496 17.958167903441293,-21.32066920369691"/><polygon points="19.054047387548422,-12.751018899388676 16.927279269059568,-15.713283639072467 18.598934469519083,-16.913454217284496 20.72570258800794,-13.951189477600707"/><polygon points="19.054047387548422,-12.751018899388676 17.259498784943624,-11.462616582077219 15.409026639819368,-14.04004302533398 16.927279269059568,-15.713283639072467"/><polygon points="17.63005228093168,-18.262959844724243 18.598934469519083,-16.913454217284496 17.082109001782968,-15.824444176123396 16.113226813195556,-17.173949803563136"/><polygon points="17.259498784943624,-11.462616582077219 15.811003131848263,-10.422664165433407 14.885767059286135,-11.711377387061786 16.334262712381495,-12.751329803705596"/><polygon points="18.917915241678237,-12.653282358876403 20.72570258800794,-13.951189477600707 22.319167020774263,-11.731735714828572 20.51137967444456,-10.433828596104268"/><polygon points="20.585676980018647,-10.487170601181594 22.63819821103374,-7.628320490898532 21.12288209009854,-6.663497472355659 19.128681542339283,-9.44111573507568"/><polygon points="20.585676980018647,-10.487170601181594 22.319167020774263,-11.731735714828572 24.441076474277597,-8.776238356996819 22.63819821103374,-7.628320490898532"/><polygon points="19.995773855457095,-8.233387933031704 21.12288209009854,-6.663497472355659 18.48116932493051,-4.981481918637645 17.455733930234285,-6.409757566615047"/><polygon points="16.39133565683764,-5.596143565393338 13.752902372094951,-6.669782033593541 14.362507478752903,-9.382711748789596 14.995177184350151,-9.836939131431159 17.479149498092788,-6.377143239541065"/><polygon points="17.479149498092788,-6.377143239541065 18.48116932493051,-4.981481918637645 18.25528692872467,-4.837659430160116 16.39133565683764,-5.596143565393338"/><polygon points="27.082889384283078,-7.048853783442585 25.7693230127229,-6.21248765880654 24.653725963300264,-7.964604016903921 25.967292334860442,-8.800970141539967"/><polygon points="24.40533839197739,-5.344019528063271 23.289741342554755,-7.096135886160652 24.653725963300264,-7.964604016903921 25.7693230127229,-6.21248765880654"/><polygon points="24.40533839197739,-5.344019528063271 27.082889384283078,-7.048853783442585 27.936384103906565,-5.708385860390982 25.241198688853522,-4.031247591279507"/><polygon points="23.289741342554755,-7.096135886160652 25.241198688853522,-4.031247591279507 23.262647416406644,-2.8000506436088193 21.226231031709162,-5.782269941359863"/><polygon points="25.967292334860442,-8.800970141539967 27.445508223037642,-9.742170921750072 29.09071318747531,-10.789695987959242 29.878637725813356,-9.473169988191888 28.24793148298146,-8.444506754378667 29.383143086677485,-6.608663385875494 27.936384103906565,-5.708385860390982 26.782742689360372,-7.520253321721308"/><polygon points="31.361967762215446,-6.994706043816847 32.739477801339305,-4.693054434803205 34.10384928789498,-2.4133557479460563 32.12266807192271,-1.5297137831916503 30.203383305947536,-0.6736787330626282 29.332746126796636,-2.918524777753699 28.453724931665626,-5.184988122466272 29.88477091085499,-6.075487886657579"/><polygon points="34.18293026466172,-3.5412115052394824 36.40975054996223,-4.279816214053669 37.65497208375999,-0.5255962123890665 35.96767080634894,-0.5591272933095172"/><polygon points="37.12913710772843,-2.110936757032369 36.40975054996223,-4.279816214053669 39.24329458539947,-5.219662586489538 40.02620236583671,-3.071852218197206"/><polygon points="37.65497208375999,-0.5255962123890665 37.12913710772843,-2.110936757032369 40.02620236583671,-3.071852218197206 40.55203734186827,-1.4865116735539061"/><polygon points="35.78162112657551,-14.71633426645693 36.61259699822084,-12.436655053250204 37.39653058182741,-10.286030521223687 35.69027377032008,-9.664075364998595 34.35788951036882,-9.178402132832698 33.64483909424214,-11.134567488625612 32.888999947331314,-13.208118418965904 34.157357360593224,-13.86944136186995"/><polygon points="34.35788951036882,-9.178402132832698 33.32316478848684,-8.801230084810486 31.4446795346623,-8.116495183458294 30.114482937256685,-10.33909179021001 29.636732708542432,-11.137354272076344 31.733847609461968,-12.47261673050494 32.888999947331314,-13.208118418965904 33.27715424178213,-12.14326526646171"/><polygon points="34.76192146415029,-4.483649293589792 33.808213361494325,-4.1673178410222675 31.4446795346623,-8.116495183458294 33.20394232428522,-8.757771781319493"/><polygon points="33.20394232428522,-8.757771781319493 37.39653058182741,-10.286030521223687 38.189600256312055,-8.11034225729426 33.997011998769864,-6.582083517390069"/><polygon points="36.37460530764645,-7.448750485626646 38.189600256312055,-8.11034225729426 38.99926871620559,-5.889117284836574 37.164897348020965,-5.28068231628578"/><polygon points="33.997011998769864,-6.582083517390069 36.37460530764645,-7.448750485626646 37.164897348020965,-5.28068231628578 34.76192146415029,-4.483649293589792"/></g><g fill="#899E85" stroke="#17301D" stroke-width="0.3"><polygon points="26.862491102999606,4.448802471246728 28.244722589291023,5.297636805883906 29.563075861704746,6.10724325307065 28.715042656809125,7.488170189453797 27.396689384395405,6.678563742267052 26.471674313234416,8.18484701154518 25.089442826943,7.336012676908001 26.014457898103988,5.829729407629873"/><polygon points="29.749203399747387,3.047010990393713 28.333575699890044,5.352201885440965 26.862491102999606,4.448802471246728 28.278118802856948,2.1436115761994756"/><polygon points="25.089442826943,7.336012676908001 26.653669294716252,8.296610916900805 28.41912070455204,9.380782264221917 27.23759587242954,11.304762902320117 26.31012669532086,12.815042407816758 24.56555534765209,11.696870221715592 23.019829046866406,10.706146535250603 23.929980038826866,9.224067751403053"/><polygon points="28.41912070455204,9.380782264221917 29.417360013808036,9.99380534196589 31.09068536613401,11.021401678874746 30.09114883583537,12.649034784064582 28.42706453615711,11.606390429639315 27.296559789623164,13.447290582116112 26.31012669532086,12.815042407816758 27.434338071130142,10.984390303534498"/><polygon points="30.272485549433622,12.353748289482278 31.793456758855452,13.287783288218874 30.45307728227986,15.470440893478806 28.950094658230608,14.507113501537539"/><polygon points="30.45307728227986,15.470440893478806 31.681774878757544,13.469644700770635 33.05002171889235,14.309891003711812 31.805141814069803,16.337038270124737"/><polygon points="33.05002171889235,14.309891003711812 35.29761157104973,15.690145653974533 34.02614933403863,17.760579266180457 31.805141814069803,16.337038270124737"/><polygon points="37.14940838462906,12.674702289472147 38.044263743643995,13.224236836181069 35.907624091801594,18.966498843957115 34.02614933403863,17.760579266180457"/><polygon points="34.94386133220565,11.32026630438411 37.210622191338565,7.62910054501867 39.18176094393873,8.83958537924141 36.9150000848058,12.530751138606844"/><polygon points="39.14595492787131,5.941401307015512 39.805138365929565,6.346208707655251 39.18176094393873,8.83958537924141 37.86336606494249,8.029953381272371"/><polygon points="35.14753211691972,1.2232270590208167 35.49227069671471,0.6618589568036688 39.952911123381824,0.7505035261559214 38.42615992240811,3.23664657622602"/><polygon points="38.53541732823759,3.0587331480273616 40.34865671255529,4.172251297186889 39.805138365929565,6.346208707655251 37.417137208381284,4.879726867396439"/><polygon points="38.53541732823759,3.0587331480273616 39.952911123381824,0.7505035261559214 41.0381984897626,1.4142313228958945 39.620108263223,3.7248465430822293"/><polygon points="32.85592053996407,4.954859424448096 31.51560706344158,4.131767120928288 33.66874670055548,0.6256207748653386 35.00906017707797,1.448713078385147"/><polygon points="31.20657924086101,1.0421949873432532 29.91346576215587,3.1478852176731364 28.278118802856948,2.1436115761994756 29.26407746916258,0.538088499270627"/><polygon points="30.423208216910712,0.5611234530281215 33.66874670055548,0.6256207748653386 32.808720542146716,2.0260768905984023"/><polygon points="17.129513694279368,20.297864273684947 18.30579114318939,18.382428410463255 19.326044979729904,16.721059496258462 21.855100091341605,18.024605551084715 23.513403969802386,18.87934195779475 21.730955915355935,20.843930390710124 19.675924730755586,23.108956002241914 18.667479238512094,21.995690020694354"/><polygon points="26.974343213841404,31.165991388697456 29.41506787293041,28.955075200596287 30.597766048349524,30.26070614967545 28.157041389260524,32.47162233777662"/><polygon points="29.41506787293041,28.955075200596287 31.25106795978654,27.291945237013884 31.8896616592584,27.70124790836812 30.597766048349524,30.26070614967545"/><polygon points="31.25106795978654,27.291945237013884 30.007476732913133,28.418445092143486 26.974343213841404,31.165991388697456 25.596682473833667,29.645132950873297 24.33323788238431,28.25036258990746 26.805691389309782,26.010705010166635 27.81940261261455,25.09244061466498 29.46103309622598,26.14463349234981"/><polygon points="25.926985835058094,26.806675308264328 24.33323788238431,28.25036258990746 22.384766253918023,26.09936167149754 23.978514206591807,24.655674389854408"/><polygon points="25.926985835058094,26.806675308264328 23.978514206591807,24.655674389854408 25.287696478930513,23.46975926898654 27.81940261261455,25.09244061466498"/><polygon points="25.287696478930513,23.46975926898654 22.384766253918023,26.09936167149754 20.150521523153788,23.632883639374867 22.943825059530607,21.96746941854699"/><polygon points="29.3957935656858,22.951747689824888 27.964232356071598,25.1852683405532 25.242288004679562,23.440654989021976 26.67384921429376,21.207134338293663"/><polygon points="29.66978248294889,22.52427040092662 31.07760851247444,20.327781359130377 34.50320171579495,22.52339407853487 33.32139472044268,24.86474861859791"/><polygon points="31.8896616592584,27.70124790836812 29.95578031778138,26.461738655766215 27.964232356071598,25.1852683405532 28.801821210149438,23.87846288240106 29.66978248294889,22.52427040092662 31.522410653485878,23.711700937516667 33.32139472044268,24.86474861859791 32.592780046202755,26.308254438242944"/><polygon points="31.416960384054278,20.545286836684507 30.08791653481912,19.693444423756297 28.3556641610824,18.583168007599152 28.992978723332925,17.58883033888009 29.949472803702932,16.096509042062095 31.68172517743965,17.20678545821924 33.01076902667481,18.05862787114745 32.0542749463048,19.550949167965445"/><polygon points="31.416960384054278,20.545286836684507 32.31751928758173,19.140235557900635 33.01076902667481,18.05862787114745 34.619900032298844,19.08999040996602 34.05379706993957,20.25309203474939 35.13567498648321,20.946514975950794 34.50320171579495,22.52339407853487 33.31840687169319,21.764007170867863"/><polygon points="29.949472803702932,16.096509042062095 28.117778420748323,18.9543171488176 27.198941713501494,20.38788544230054 25.846962202934744,19.521342559480345 24.39197784716296,18.58877935992399 25.072024568245542,17.002160105696372 26.65078525699775,18.014056978261433 28.253200747589492,15.009293987348952"/><polygon points="24.39197784716296,18.58877935992399 27.198941713501494,20.38788544230054 25.242288004679562,23.440654989021976 22.943825059530607,21.96746941854699"/></g><g fill="#898995" stroke="#171A2E" stroke-width="0.3"><polygon points="-22.991501128931453,23.7776266701379 -24.648798305861163,22.0151678494863 -21.364750205902716,18.927070935567883 -19.70745302897301,20.689529756219486"/><polygon points="-10.99648633321752,21.965316489968785 -12.77149039690283,23.634410365703616 -15.346644125023785,26.055910915825415 -17.675636699063777,23.57913513747449 -20.071195830621843,21.031568906999894 -17.286219117276328,18.833205387600355 -15.366588095067675,17.317915586537094 -13.150750946109447,19.674355809010585"/><polygon points="-22.39458344512886,24.41242099167884 -20.53102236523953,26.394231923836895 -18.266949423333397,28.80196867896342 -19.63415320045254,30.08759472228253 -22.597464609339553,32.874092525673106 -24.32306744244606,29.960014867305098 -21.72822365189389,27.519999113027353 -23.451855483546325,25.40660817153486"/><polygon points="-25.743413147570156,27.56143414696062 -28.410801130600994,22.995031745588353 -29.466425499723428,21.18786845146923 -27.642918877262623,20.648282588254272 -26.306095482790866,20.252709028834694 -25.197023839586773,21.43215537527744 -26.556455495214895,22.093253957800354 -23.811142433063488,25.74445734007449"/><polygon points="-7.642310578365614,25.53232711874826 -9.381583565300133,27.167821904431246 -12.73575932015204,23.600811275651772 -10.99648633321752,21.965316489968785"/><polygon points="-3.763631273701751,29.65712299008859 -5.8184866586763935,31.5893701374337 -7.263929685356162,32.94856708402872 -8.916587264217245,34.50261459298858 -10.6783631505276,32.629047501906356 -9.025705571666517,31.074999992946495 -11.142608990020024,28.823771212688385 -9.697165963340256,27.46457426609337 -7.5802625449867485,29.715803046351475 -5.525407160012107,27.783555899006366"/><polygon points="-8.916587264217245,34.50261459298858 -11.20556192627515,36.65501168791173 -13.906325205923675,39.194626972234865 -15.758526768607696,40.93631215941338 -17.663955874889144,38.94247937460188 -15.807363153214059,37.196665038240376 -16.813205996487312,36.139539526724334 -14.10265201394523,33.59071772700606 -11.805379449210715,31.430517845135917 -10.805795649829665,32.4935289385738"/><polygon points="-11.805379449210715,31.430517845135917 -13.75541765736207,33.26420200240858 -15.623380710796873,35.020708230407685 -18.672122088851097,37.88753860387991 -20.81851775257618,35.14616282166064 -17.871430757939986,32.37492136106806 -16.065751318921095,30.676982435255518 -17.980571067565286,28.532677825193122 -16.149442323733016,26.810808092868776 -14.180733362444135,28.90443892891925"/><polygon points="-2.594955223787763,45.2439806700424 -4.376735256215177,43.34914009568608 -6.826132204072264,40.744319840078454 -8.913901541222554,38.52407380637479 -10.922092249976554,36.38845595976079 -9.033064890913149,34.612142282167284 -7.02487418215915,36.74776012878128 -5.056593918989932,34.896922375675196 -2.968824581839641,37.11716840937886 -4.937104845008859,38.96800616248495 -2.487707897151772,41.572826418092575 -0.5194276339825541,39.72198866498649 1.2623523984448601,41.616829239342806 -0.7059278647243579,43.46766699244889"/><polygon points="-15.758526768607696,40.93631215941338 -13.29765331729035,38.62227305911731 -10.922092249976554,36.38845595976079 -9.099932562034985,38.3262384283208 -11.426182917476094,40.24517674617945 -9.021411623755155,42.33054886828636 -11.365565516801668,43.89926284774097 -13.835974785001417,42.233028974484284"/><polygon points="2.4199629305244996,47.52266536614783 -0.3211868135462397,46.802178739614284 -1.7540679940922925,46.425558771942654 -1.4722227886154324,45.35325585276488 -1.065478451374597,43.805764067533204 -0.042542417075198236,44.07463363006118 1.914368516427297,44.58899011859508 2.2130190943361536,46.32188863101831"/></g><g fill="#899E85" stroke="#17301D" stroke-width="0.3"><polygon points="5.805307528289123,31.935608958083016 7.645000289945011,31.34427944551731 8.395289086140757,33.67851245466285 6.555596324484868,34.26984196722856"/><polygon points="4.501050360812383,32.354834260904866 3.916048092213435,30.534826268365904 7.059998021346063,29.524271452978343 7.645000289945011,31.34427944551731"/><polygon points="5.251339157008127,34.68906727005041 1.1076909130511812,36.020953521609805 0.45629541520367844,33.051621687276906 3.916048092213435,30.534826268365904"/><polygon points="2.2531807892505915,35.65276053620486 3.224127699758593,38.67348580909615 1.7261543002217508,38.84016708689123 1.1076909130511812,36.020953521609805"/><polygon points="4.367864567296474,34.9730410994784 5.476726784508844,38.422836435801344 3.224127699758593,38.67348580909615 2.2531807892505915,35.65276053620486"/><polygon points="5.476726784508844,38.422836435801344 4.772968922456602,36.23336640722389 8.800393441300887,34.93883776240834 9.766811609121575,37.945473606370044"/><polygon points="4.772968922456602,36.23336640722389 4.367864567296474,34.9730410994784 8.395289086140757,33.67851245466285 8.800393441300887,34.93883776240834"/><polygon points="4.948445833212334,39.08537343520532 5.308720427582426,40.727655007152755 5.536052780669367,41.76393050372196 3.689478368398187,42.16902172481281 2.5130363512533984,42.427103029362904 2.2586291662770894,41.26740917865406 1.855446583034646,39.4295351322009 3.0591232291484554,39.29560060339793"/><polygon points="6.916750177205408,38.86635787508402 7.9060054014169845,38.75628227234767 8.42669401349392,41.12979771223579 7.4598218761969655,41.3419047424933"/><polygon points="7.4598218761969655,41.3419047424933 5.536052780669367,41.76393050372196 4.948445833212334,39.08537343520532 6.916750177205408,38.86635787508402"/><polygon points="5.1985610044522375,43.977334736759964 2.9608096626264837,44.46824017633168 2.5130363512533984,42.427103029362904 4.75078769307915,41.93619758979118"/><polygon points="3.5449312193655085,47.1309093830988 2.9608096626264837,44.46824017633168 5.1985610044522375,43.977334736759964 5.669962294917361,46.12617804800341"/><polygon points="4.75078769307915,41.93619758979118 8.42669401349392,41.12979771223579 9.030377240826613,43.881637156467626 5.354470920411845,44.688037034023026"/><polygon points="9.030377240826613,43.881637156467626 7.9060054014169845,38.75628227234767 9.95417431034582,38.52838008731156 11.207458115018943,42.42748725981462"/><polygon points="16.14989596156093,28.76168672985099 14.637720468526961,26.68295074248315 18.327639485811112,23.99872093017187 20.06335037795259,25.914846199098275"/><polygon points="17.832236691411097,31.074343054638863 16.14989596156093,28.76168672985099 20.06335037795259,25.914846199098275 21.994380964379772,28.04659320747119"/><polygon points="13.033207157331654,27.850153178088547 11.155289337920458,25.268643710098708 16.17212087787572,21.619152022120446 18.327639485811112,23.99872093017187"/><polygon points="10.333065601846215,32.3041481329886 12.343166195012037,35.06736474408426 11.187615022569053,35.90796988804366 9.177514429403233,33.14475327694801"/><polygon points="8.926762328338262,26.88978461011342 9.851195185880128,26.217306373038088 11.155289337920458,25.268643710098708 12.150472291498273,26.636687716331487 12.725624563977963,27.427329895448633 11.421530411937631,28.375992558388013 10.846378139457943,27.585350379270867 9.921945281916077,28.2578286163462"/><polygon points="10.609192367292856,29.202563705075928 11.98909577746778,31.09946977916331 9.177514429403233,33.14475327694801 8.421836659035185,30.793754561767393"/><polygon points="8.926762328338262,26.88978461011342 10.609192367292856,29.202563705075928 9.18291599238041,30.240107767209047 7.500485953425819,27.92732867224654"/><polygon points="12.035056002140983,35.291499355523555 15.343439158131051,39.83942065039912 13.4500741371538,40.929564102490666 10.278307661203772,36.569445090208745"/><polygon points="15.343439158131051,39.83942065039912 13.46655905742077,37.25933769885416 17.423935409214774,34.38054617734281 19.960610128731307,37.867626249726165"/><polygon points="22.129752103182753,34.01942593618136 20.736857169093607,32.104660858019614 23.71071602257023,29.941328667064617 25.309513860416764,31.706309777036775"/><polygon points="23.71071602257023,29.941328667064617 20.736857169093607,32.104660858019614 19.241562172339567,30.049129912172 21.994380964379772,28.04659320747119"/><polygon points="19.960610128731307,37.867626249726165 18.880622284778177,36.38300385802156 22.583991107257877,33.68898999139728 23.663978951211014,35.17361238310189"/><polygon points="25.541341419445356,34.28851240925017 26.20505312497879,35.20089421538663 24.281424097518425,36.0223931309499 23.892599349600264,35.48788903403781"/><polygon points="24.23273317710297,32.48961336660963 25.309513860416764,31.706309777036775 27.735210632451125,34.54743000004929 26.20505312497879,35.20089421538663"/></g><g fill-rule="nonzero" stroke="#99948A" stroke-width="0.3" stroke-linecap="butt"><line x1="-35.11550030376812" y1="7.692534494321148" x2="-35.93822022370998" y2="18.626544689261213"/><line x1="-36.22551537508041" y1="6.5436831400128135" x2="-37.19893977574842" y2="19.48056732492428"/><line x1="-37.41278601824498" y1="6.421564200678219" x2="-38.42799388761128" y2="19.91375385669007"/><line x1="-38.60005666140956" y1="6.299445261343626" x2="-39.63114577118692" y2="20.002697808084015"/><line x1="-39.78732730457414" y1="6.177326322009039" x2="-40.834297654762565" y2="20.09164175947796"/><line x1="-40.97459794773871" y1="6.055207382674448" x2="-42.0374495383382" y2="20.180585710871902"/><line x1="-42.16186859090329" y1="5.933088443339855" x2="-43.240601421913844" y2="20.269529662265846"/><line x1="-43.34913923406787" y1="5.810969504005261" x2="-44.44375330548949" y2="20.35847361365979"/><line x1="-44.536409877232444" y1="5.68885056467067" x2="-45.64690518906512" y2="20.447417565053733"/><line x1="-45.72368052039702" y1="5.566731625336079" x2="-46.850057072640766" y2="20.536361516447677"/><line x1="-46.9109511635616" y1="5.444612686001491" x2="-48.05320895621641" y2="20.62530546784162"/><line x1="-48.137750331584286" y1="5.847830842941569" x2="-49.25636083979205" y2="20.714249419235564"/><line x1="-49.398469883622724" y1="6.701853478604635" x2="-50.45951272336769" y2="20.803193370629508"/><line x1="-50.80235313710618" y1="9.458532575115118" x2="-51.66266460694334" y2="20.89213732202345"/><line x1="-52.23416058369951" y1="12.586326317993208" x2="-52.865816490518974" y2="20.981081273417395"/><line x1="-53.66596803029284" y1="15.714120060871299" x2="-54.06896837409462" y2="21.07002522481134"/><line x1="-55.09777547688618" y1="18.8419138037494" x2="-55.179953552877755" y2="19.93406667243894"/><path d="M -37.23511895113453,19.103306514046015 L -38.875080037628024,19.224541930086374 L -40.61186873388377,19.352935403504073 L -40.69319726112613,18.252797966314123 L -40.81743958713223,16.57216217027238 L -40.8928734711781,15.551762039034283 L -39.156084774922356,15.423368565616586 L -39.080650890876484,16.443768696854683 L -37.44068980438299,16.322533280814323 L -37.316447478376894,18.003169076856064 Z" fill="#99948A" stroke="#1A1917" stroke-width="0.3"/></g><g fill-rule="nonzero" stroke="#99948A" stroke-width="0.3" stroke-linecap="butt"><line x1="-28.133236470379536" y1="34.87019634456195" x2="-31.016951872478902" y2="37.61643236657863"/><line x1="-28.789563383266803" y1="33.74660547208293" x2="-33.21369912682573" y2="37.95982323150816"/><line x1="-29.445890296154065" y1="32.62301459960393" x2="-35.41044638117256" y2="38.30321409643769"/><line x1="-30.102217209041328" y1="31.499423727124913" x2="-37.60719363551939" y2="38.64660496136722"/><line x1="-30.75854412192859" y1="30.375832854645907" x2="-39.6542335851145" y2="38.84742572635939"/><line x1="-31.414871034815853" y1="29.252241982166893" x2="-40.891154158218214" y2="38.276749064027534"/><line x1="-32.07119794770312" y1="28.128651109687887" x2="-42.12807473132193" y2="37.70607240169567"/><line x1="-32.72752486059038" y1="27.005060237208877" x2="-43.057892055542055" y2="36.84293345132093"/><line x1="-33.383851773477645" y1="25.88146936472986" x2="-43.931163866962045" y2="35.925944761120235"/><line x1="-34.040178686364904" y1="24.757878492250857" x2="-44.804435678382035" y2="35.008956070919545"/><line x1="-45.677707489802025" y1="34.091967380718856" x2="-34.76643290481174" y2="23.700881183516188"/><line x1="-46.550979301222014" y1="33.17497869051816" x2="-36.003353477915454" y2="23.13020452118433"/><line x1="-47.424251112642004" y1="32.25799000031747" x2="-37.24027405101917" y2="22.559527858852473"/><line x1="-48.297522924061994" y1="31.341001310116777" x2="-39.08697925789944" y2="22.569564718295428"/><line x1="-49.170794735481984" y1="30.424012619916088" x2="-41.07767615956737" y2="22.71672855594477"/><line x1="-50.04406654690197" y1="29.507023929715395" x2="-43.06837306123529" y2="22.863892393594114"/><line x1="-50.91733835832196" y1="28.590035239514705" x2="-45.059069962903216" y2="23.011056231243455"/><line x1="-51.79061016974195" y1="27.67304654931401" x2="-47.04976686457114" y2="23.1582200688928"/><line x1="-52.66388198116194" y1="26.75605785911332" x2="-49.04046376623906" y2="23.30538390654214"/><line x1="-53.53715379258193" y1="25.839069168912623" x2="-51.03116066790699" y2="23.452547744191484"/><path d="M -40.85450604447697,39.92174591046865 L -41.815564930614634,38.91257543493011 L -42.44265350392359,38.254094167175275 L -43.29951977536847,37.35433229503635 L -42.384423587900876,36.48286276243125 L -41.76941127587105,35.89717078878833 L -40.912545004426164,36.796932660927254 L -40.28545643111721,37.45541392868209 L -39.06251425823634,36.29077478101731 L -38.10145537209868,37.29994525655585 L -39.32439754497955,38.46458440422063 L -39.93940985700937,39.050276377863554 Z" fill="#99948A" stroke="#1A1917" stroke-width="0.3"/></g><g fill="#899E91" stroke="#17302A" stroke-width="0.3"><polygon points="-36.79896176924722,-15.62096211870618 -38.08398668735039,-13.684881701676703 -41.65990821296666,-16.058310111561003 -40.374883294863494,-17.99439052859048"/><polygon points="-38.08398668735039,-13.684881701676703 -36.717668039703426,-15.74344316602265 -35.94689845168232,-16.90472174076989 -34.40589471714062,-15.881919082182813 -35.2002440466157,-14.736290970641686 -33.17488800321173,-13.392011590037155 -34.63879628863793,-11.39822280516874 -36.60836174933175,-12.70547258289756"/><polygon points="-35.94689845168232,-16.90472174076989 -34.397639328498784,-19.23891013435176 -30.68915068373053,-16.777493617189965 -32.34906601212508,-14.516750510171686"/><polygon points="-33.56916154398247,-18.689028741082044 -32.169898864721745,-20.797225269749973 -29.189945331315034,-18.819355698044628 -30.68915068373053,-16.777493617189965"/><polygon points="-27.71348305126324,-22.738812878510185 -27.4169865469861,-22.618821976246444 -27.13360345004979,-21.620017065657713 -29.189945331315034,-18.819355698044628 -29.970893085839666,-19.33769022354982"/><polygon points="-31.420330457854188,-20.299718000849666 -29.35935105113919,-23.404888813515257 -27.71348305126324,-22.738812878510185 -29.970893085839666,-19.33769022354982"/><polygon points="-31.420330457854188,-20.299718000849666 -32.398212294942475,-20.948762594538056 -33.81371009399019,-21.888263829764284 -33.01758822913771,-23.087739365526726 -31.514149158981056,-22.28073468382571 -30.469757374584944,-23.85426563485234 -29.35935105113919,-23.404888813515257 -30.47551401531346,-21.723223947170702"/><polygon points="-37.97356085411506,-21.612338544236056 -36.83427096207013,-23.32884755369849 -35.211794696920435,-25.773348418855452 -33.92685832831624,-25.25334001404743 -32.0770862432407,-24.504744943722326 -33.91934991639413,-21.72910178665259 -35.21297277325091,-19.78006730109636 -36.84197873850438,-20.861279237685835"/><polygon points="-35.211794696920435,-25.773348418855452 -36.5315942736911,-23.784874826638053 -38.474430667311076,-20.85770396622224 -41.41203383465345,-22.807464542451584 -43.72597151394513,-24.34328276088582 -41.47019514045778,-26.333774643201227 -39.93781047194193,-27.685947349288167 -37.85543002511397,-26.84321664229237"/><polygon points="-45.57627054742762,-17.91510443571766 -46.79282667243771,-16.84161810982355 -48.62829910449133,-15.222001458476024 -49.91765388791479,-16.570400376520524 -48.04852784394774,-18.219712897596793 -49.214947049583984,-19.499823376201267 -47.955365477691714,-20.611275257439654 -46.80966601334,-19.312881726793652"/><polygon points="-40.25029743971077,-14.38012309074633 -36.19978910339079,-11.691699563823931 -37.35192668756506,-9.955833602768388 -40.58662162811713,-12.102781407472284"/><polygon points="-40.827877668648995,-10.469171764204324 -42.79819753009844,-10.760154111372454 -45.08918552350207,-11.098493625020856 -44.83620598654716,-12.81148622080385 -44.511605294563864,-15.00944495156287 -42.220617301160225,-14.671105437914465 -40.25029743971077,-14.38012309074633 -40.57489813169408,-12.182164359987317"/><polygon points="-48.67634549297128,-15.043046122926125 -46.939204156215176,-14.786500232371976 -44.59564393103968,-14.440396704516465 -44.91813258240813,-12.256739169730821 -45.08918552350207,-11.098493625020856 -47.43274574867756,-11.444597152876367 -49.169887085433665,-11.701143043430516 -48.998834144339725,-12.859388588140481"/><polygon points="-49.169887085433665,-11.701143043430516 -52.12398867140007,-12.137413026835773 -48.653156107978226,-15.200067695785332"/></g><g fill="#899595" stroke="#17272E" stroke-width="0.3"><polygon points="-33.69088641708772,5.497528529729937 -37.86241210497654,5.068458464412597 -37.446883531574755,1.0285865224831645 -34.004431522554,1.3826663529515892"/><polygon points="-41.04873468122187,-1.7091998844558178 -44.3225120777706,-2.045930372643818 -43.62163117182217,-8.860068527800937 -40.36272217833942,-8.378783734055142"/><polygon points="-35.80532449978001,-3.8757458160565763 -35.238990236486615,-3.8174944477267014 -34.58051712282783,-1.0438992875244686 -36.08072783118222,-1.1982062617071352"/><polygon points="-35.238990236486615,-3.8174944477267014 -37.97304870221456,-4.098711137312765 -37.70524717755536,-6.7023440394248315 -35.87928787881024,-6.514531585613507"/><polygon points="-40.773331349819664,-4.386739438805263 -40.36272217833942,-8.378783734055142 -37.575157478859666,-7.967108383769151 -37.97304870221456,-4.098711137312765"/><polygon points="-47.93727705086935,-2.511333597254078 -44.27026437056121,-8.95586049250326 -43.62163117182217,-8.860068527800937 -44.31298548020492,-2.1385503190714914"/><polygon points="-44.94229977861868,-9.055108560922367 -49.89813523465115,-0.34556276187512924 -53.231699741476596,-3.4643409291879803 -51.79858765025026,-10.06766432751759"/></g><g fill="#899E91" stroke="#17302A" stroke-width="0.3"><polygon points="-33.918223799795676,-29.682823060051657 -33.485669168280914,-27.532758719353303 -36.47421570912545,-26.93151641079995 -37.460249863782224,-28.970230534366706"/><polygon points="-41.239996605249715,-32.06784223508043 -38.20622387441352,-32.678183247135976 -37.41314362518253,-28.73608336205934 -39.76442008294039,-28.263048438162865"/><polygon points="-28.69394510539552,-28.49676821298017 -27.75347952454292,-23.822071974116007 -28.497313783086764,-23.7032973742609 -36.47421570912545,-26.93151641079995"/><polygon points="-29.222541101851046,-31.124217602748534 -30.36141432153076,-36.785122653365484 -27.813874116968343,-37.29764234572763 -25.79000326697658,-31.81478304780045"/><polygon points="-28.116475799145896,-25.62638821296216 -28.690245298857693,-28.47837788370175 -29.222541101851046,-31.124217602748534 -27.516877035265573,-31.467366818260018 -25.79000326697658,-31.81478304780045 -24.84407009317329,-29.252159796802857 -23.824434768525265,-26.489870384776303 -25.983715576123377,-26.055461564357405"/><polygon points="-28.116475799145896,-25.62638821296216 -24.775414918524344,-26.298550124924404 -24.614932870036476,-24.32323149820859 -27.75347952454292,-23.822071974116007"/><polygon points="-20.34742167633396,-31.933996516424394 -21.724186661724364,-31.425795526792143 -24.324226667514303,-30.466050822323794 -24.70505773773846,-31.49775853940791 -25.523753863481836,-33.715684483263125 -22.923713857691897,-34.675429187731474 -21.546948872301492,-35.183630177363725 -20.728252746558116,-32.96570423350851"/><polygon points="-17.227112333520804,-33.08578662788393 -16.516740113285447,-31.161320482861647 -22.66463455145623,-25.97005738265709 -24.324226667514303,-30.466050822323794"/><polygon points="-23.397424182988004,-38.00781647975222 -22.74546905001906,-36.24160779966541 -22.258050179022995,-34.92114355717838 -24.034607589549793,-34.26536842943411 -25.523753863481836,-33.715684483263125 -26.011172734477903,-35.03614872575015 -26.66312786744685,-36.80235740583697 -25.173981593514807,-37.35204135200796"/><polygon points="-14.02209050005406,-39.557882708300625 -11.160113800524893,-40.43799646764817 -11.020228107349226,-37.801649143185145 -13.04648588712705,-36.3853863798485"/><polygon points="-16.393314024983333,-38.828685139668366 -17.89141820535624,-43.70025908355599 -15.02492169263154,-44.581762773780234 -13.526817512258637,-39.71018882989261"/><polygon points="-13.526817512258637,-39.71018882989261 -15.02492169263154,-44.581762773780234 -12.658217980897799,-45.3095704115358 -11.160113800524893,-40.43799646764817"/><polygon points="-17.89141820535624,-43.70025908355599 -16.660419114462638,-39.69726438217689 -19.361030168685947,-38.86677371191425 -20.813502890407346,-42.80166094412483"/><polygon points="-11.415977297074564,-36.88679963212118 -12.382662557728283,-34.65212281907307 -16.516740113285447,-31.161320482861647 -17.89473993572289,-34.89445352295849"/><polygon points="-21.570165837047732,-43.26929108668995 -22.236839766497464,-45.43719862364647 -17.321475269218126,-46.948769254873376 -16.65480133976839,-44.78086171791685"/><polygon points="-14.411438666715377,-57.586239449737356 -13.841269364462347,-57.76157765153091 -12.028510143807974,-56.80417605481149 -11.753948587887983,-51.62966816256355 -12.508335535160425,-51.39767943523537"/><polygon points="-13.383682189173937,-45.786794775784536 -14.264316473348071,-48.65046413141572 -11.638713048881513,-49.45788848984715 -11.475066383658074,-46.373731431145515"/><polygon points="-14.264316473348071,-48.65046413141572 -14.884435228996551,-50.66698234938184 -11.753948587887983,-51.62966816256355 -11.638713048881513,-49.45788848984715"/><polygon points="-16.65480133976839,-44.78086171791685 -17.566804789641544,-47.74653813838566 -18.15555437959101,-49.661049291514146 -16.659493530245626,-50.12111723635334 -14.884435228996551,-50.66698234938184 -14.295685639047088,-48.75247119625335 -16.070743940296165,-48.206606083224855 -15.15874049042301,-45.240929662756045"/><polygon points="-18.5011747128271,-56.32856570037569 -19.21603892469859,-58.65317964485052 -16.886086250516215,-59.36968562042812 -16.17122203864473,-57.04507167595331"/></g><g fill="#899E91" stroke="#17302A" stroke-width="0.3"><polygon points="0.2464083056774582,-60.16851659560331 -1.081965665608411,-61.38151136281743 -2.5238204696696194,-62.69813030463228 -1.2241566692001213,-63.83309551293827 0.5678149599933744,-65.39798133392621 1.8319154566468354,-64.24367740986699 2.9965252301928778,-63.18022269628937 1.4025043251362628,-61.43457965050286"/><polygon points="9.912865889493833,-64.67610942708771 7.818527338433802,-62.382558874781324 6.0231880360736865,-60.41644816817122 3.55491458948926,-62.67033362473604 0.5678149599933748,-65.39798133392621 2.105736287500623,-66.74101112301624 3.8997859807601003,-68.30771166748472 7.192259019178429,-66.31922113613493"/><polygon points="-2.196645168987,-57.89706446499423 -4.716862686567029,-60.7829991640822 -2.9843378596472574,-62.295971519217396 -0.13686393940512698,-59.695821983248294"/><polygon points="-8.191381197923617,-57.74878552777079 -5.8510369913484865,-59.79255196103124 -4.716862686567029,-60.7829991640822 -3.3678521551502985,-59.23822920875352 -2.196645168987,-57.89706446499423 -3.4016746443975485,-56.844741141777774 -5.888226966769871,-54.67329466961662 -6.958559311864036,-56.10255081668534"/><polygon points="-9.554452529905294,-47.92290079850102 -9.992366911661412,-56.17602792306554 -7.062492640572702,-55.1800160960406 -6.760263630799423,-49.484075194562585"/><polygon points="0.23163342703077694,-45.181467028513765 -3.3926830237958847,-43.156482229502544 -9.131413861270275,-39.950127908854846 -9.298407709040518,-43.097367442621845 -9.516999104239725,-47.217037058587294 -5.494666507203412,-49.46440217586564 -4.303035056826188,-45.88839130143064 -1.148189186864125,-47.65107262812312"/><polygon points="1.5763422342971438,-37.635093596426586 3.7647893833476633,-38.85782684016858 4.4123743984219335,-37.69877960949873 2.223927249371412,-36.47604636575673"/><polygon points="-5.952189013427174,-41.726430303214656 -4.815792656300132,-39.69250885659139 -8.993880820169394,-37.358119700579856 -9.131413861270275,-39.950127908854846"/><polygon points="-7.962130224837626,-37.93458130382675 -4.815792656300132,-39.69250885659139 -3.884757578466944,-38.02614289150604 -7.031095147004439,-36.26821533874139"/><polygon points="-2.953722500633747,-36.35977692642067 -5.952189013427174,-41.726430303214656 -3.419109191191774,-43.14171735231843 -0.42064267839834635,-37.77506397552445"/></g><g fill-rule="nonzero" stroke="#99948A" stroke-width="0.3" stroke-linecap="butt"><line x1="-83.07319875730981" y1="-25.74491058710337" x2="-73.90947565987955" y2="-36.70867557619741"/><line x1="-82.57751593089822" y1="-23.907304094202495" x2="-72.11956341396892" y2="-36.41952564909326"/><line x1="-81.27628973708993" y1="-23.03347488644652" x2="-70.53443868402968" y2="-35.88536153136606"/><line x1="-79.97506354328162" y1="-22.15964567869055" x2="-69.33839656666767" y2="-34.88568680400077"/><line x1="-78.67383734947332" y1="-21.285816470934577" x2="-68.14235444930566" y2="-33.886012076635474"/><line x1="-77.37261115566503" y1="-20.411987263178602" x2="-66.94631233194364" y2="-32.886337349270185"/><line x1="-76.07138496185672" y1="-19.538158055422635" x2="-65.75027021458163" y2="-31.886662621904897"/><line x1="-74.64867064202889" y1="-18.809681042236683" x2="-64.55422809721962" y2="-30.886987894539608"/><line x1="-73.16802877395058" y1="-18.150510359966695" x2="-63.35818597985761" y2="-29.88731316717432"/><line x1="-71.57154433288373" y1="-17.629937356006568" x2="-62.1621438624956" y2="-28.88763843980903"/><line x1="-69.96509604388437" y1="-17.1212854114191" x2="-60.966101745133585" y2="-27.88796371244374"/><line x1="-68.35864775488503" y1="-16.612633466831635" x2="-59.77005962777157" y2="-26.88828898507845"/><line x1="-66.75219946588567" y1="-16.10398152224417" x2="-58.574017510409554" y2="-25.888614257713154"/><line x1="-65.14575117688631" y1="-15.595329577656706" x2="-57.37797539304755" y2="-24.88893953034787"/><line x1="-63.53930288788695" y1="-15.08667763306924" x2="-56.18193327568553" y2="-23.889264802982577"/><line x1="-61.932854598887594" y1="-14.578025688481775" x2="-54.98589115832352" y2="-22.88959007561729"/><line x1="-60.32640630988824" y1="-14.06937374389431" x2="-53.789849040961506" y2="-21.889915348251996"/><line x1="-58.39031597354718" y1="-13.95511585717527" x2="-52.78560257839503" y2="-20.66077029940817"/><line x1="-53.25460199503109" y1="-17.668987792077914" x2="-51.929698081622696" y2="-19.254144282000002"/><line x1="-50.93916351144529" y1="-22.504850434085334" x2="-69.98285060352865" y2="-38.42192594961765"/><line x1="-70.82455012157762" y1="-40.86737001168342" x2="-48.29999659923776" y2="-22.040920194737247"/><line x1="-69.96740391999779" y1="-41.89288654197351" x2="-47.28619222179982" y2="-22.935498845025315"/><line x1="-69.11025771841797" y1="-42.91840307226359" x2="-46.27238784436189" y2="-23.83007749531339"/><line x1="-68.25311151683815" y1="-43.94391960255368" x2="-45.25858346692395" y2="-24.724656145601458"/><line x1="-67.39596531525832" y1="-44.96943613284376" x2="-44.244779089486016" y2="-25.619234795889525"/><line x1="-66.5388191136785" y1="-45.994952663133844" x2="-43.23097471204808" y2="-26.513813446177597"/><line x1="-65.68167291209868" y1="-47.02046919342393" x2="-42.217170334610145" y2="-27.40839209646567"/><line x1="-64.82452671051885" y1="-48.04598572371401" x2="-41.93222980547978" y2="-28.91216900011487"/><line x1="-63.390613205665076" y1="-48.589429182927546" x2="-42.15983940291733" y2="-30.844345038376424"/><line x1="-61.45116634130292" y1="-48.71033825476078" x2="-43.159404007497976" y2="-33.421735739317356"/><line x1="-58.630163527340315" y1="-48.094426113710796" x2="-44.158968612078624" y2="-35.999126440258294"/><line x1="-55.80916071337769" y1="-47.478513972660814" x2="-45.15853321665928" y2="-38.57651714119923"/><line x1="-52.98815789941508" y1="-46.86260183161083" x2="-46.158097821239934" y2="-41.15390784214017"/><line x1="-50.167155085452464" y1="-46.24668969056084" x2="-47.15766242582059" y2="-43.7312985430811"/><path d="M -73.33562644795151,-22.389662108527467 L -71.61925059146942,-20.955082555284385 L -72.62378377022529,-19.75322763468827 L -71.74928951886264,-19.022308723369648 L -72.89832278353228,-17.647569379486363 L -73.77281703489493,-18.378488290804984 L -75.48919289137702,-19.813067844048067 L -74.34015962670738,-21.18780718793135 Z" fill="#99948A" stroke="#1A1917" stroke-width="0.3"/></g><g fill-rule="nonzero" stroke="#99948A" stroke-width="0.3" stroke-linecap="butt"><line x1="-88.5632506876887" y1="13.651054814418432" x2="-84.54569454743942" y2="5.166551082196226"/><line x1="-87.99947199035279" y1="15.669192275421121" x2="-83.09147093905219" y2="5.304196296814382"/><line x1="-87.04770515975221" y1="16.867954312702256" x2="-81.63724733066493" y2="5.441841511432537"/><line x1="-86.09593832915165" y1="18.066716349983402" x2="-80.39158362594618" y2="6.019935401637233"/><line x1="-85.14417149855109" y1="19.265478387264537" x2="-79.150464316307" y2="6.607626404033301"/><line x1="-84.19240466795051" y1="20.46424042454567" x2="-77.9093450066678" y2="7.1953174064293695"/><line x1="-83.24063783734995" y1="21.66300246182682" x2="-76.6682256970286" y2="7.783008408825443"/><line x1="-82.28887100674939" y1="22.861764499107956" x2="-75.42710638738941" y2="8.370699411221512"/><line x1="-81.33710417614881" y1="24.06052653638909" x2="-74.18598707775021" y2="8.958390413617586"/><line x1="-80.38533734554825" y1="25.259288573670236" x2="-72.94486776811102" y2="9.546081416013653"/><line x1="-79.43357051494769" y1="26.45805061095137" x2="-71.70374845847184" y2="10.133772418409723"/><line x1="-78.18698435079938" y1="27.034196398827277" x2="-70.46262914883263" y2="10.721463420805797"/><line x1="-76.82096009137204" y1="27.35810601879696" x2="-69.22150983919344" y2="11.309154423201864"/><line x1="-75.24492923929425" y1="27.238511763043945" x2="-67.98039052955426" y2="11.896845425597933"/><line x1="-73.42974582980426" y1="26.613861524225463" x2="-66.73927121991507" y2="12.484536427994001"/><line x1="-71.61456242031424" y1="25.989211285406977" x2="-65.49815191027587" y2="13.072227430390075"/><line x1="-69.79937901082425" y1="25.3645610465885" x2="-64.25703260063668" y2="13.659918432786144"/><line x1="-67.98419560133426" y1="24.739910807770016" x2="-63.01591329099749" y2="14.247609435182211"/><line x1="-66.16901219184426" y1="24.115260568951534" x2="-61.77479398135829" y2="14.835300437578285"/><line x1="-64.35382878235426" y1="23.49061033013305" x2="-60.5336746717191" y2="15.422991439974354"/><line x1="-62.538645372864266" y1="22.86596009131457" x2="-59.297855232240174" y2="16.021875009838126"/><line x1="-60.72346196337428" y1="22.24130985249609" x2="-58.14452327907043" y2="16.794960348394167"/><line x1="-58.74942353333513" y1="21.281180539414372" x2="-56.99119132590068" y2="17.568045686950214"/><line x1="-57.73502087425791" y1="14.203380233886644" x2="-81.03644479823788" y2="3.169761566620435"/><line x1="-55.06597280148211" y1="13.967413298818125" x2="-82.31874218517439" y2="1.0627656692303469"/><line x1="-82.24154188987455" y1="-0.4004850624666297" x2="-54.501716692441335" y2="12.734791739656918"/><line x1="-81.66142989552232" y1="-1.6255985915293676" x2="-53.93746058340055" y2="11.502170180495712"/><line x1="-81.08131790117008" y1="-2.8507121205921" x2="-53.37320447435977" y2="10.269548621334508"/><line x1="-80.50120590681784" y1="-4.075825649654832" x2="-52.80894836531899" y2="9.036927062173302"/><line x1="-79.92109391246561" y1="-5.300939178717564" x2="-52.24469225627821" y2="7.804305503012096"/><line x1="-79.34098191811336" y1="-6.5260527077802974" x2="-51.68043614723743" y2="6.571683943850886"/><line x1="-78.76086992376112" y1="-7.751166236843029" x2="-51.116180038196646" y2="5.339062384689681"/><line x1="-78.18075792940888" y1="-8.976279765905762" x2="-51.28762116122472" y2="3.7580757324897966"/><line x1="-77.60064593505665" y1="-10.201393294968494" x2="-51.76410284750861" y2="2.032647209956437"/><line x1="-77.02053394070441" y1="-11.426506824031227" x2="-52.83932366074302" y2="0.023705575542168233"/><line x1="-76.44042194635217" y1="-12.651620353093959" x2="-53.91454447397742" y2="-1.985236058872097"/><line x1="-75.86030995199994" y1="-13.876733882156694" x2="-54.98976528721183" y2="-3.9941776932863746"/><line x1="-74.54624483391298" y1="-14.754308183000687" x2="-56.064986100446234" y2="-6.003119327700643"/><line x1="-71.93597714585096" y1="-15.018108625247265" x2="-57.14020691368064" y2="-8.012060962114916"/><line x1="-62.37610094436923" y1="-11.991151795576753" x2="-59.329975316901965" y2="-10.548759747103173"/><path d="M -59.71965432461028,10.611619114974722 L -61.15634207629393,9.9313231447488 L -60.5265179262319,8.60122465569235 L -61.92216016370157,7.940364431252453 L -61.0750702299546,6.151431693660857 L -59.679427992484925,6.8122919181007555 L -58.242740240801275,7.4925878883266765 L -59.08983017454825,9.281520625918272 Z" fill="#99948A" stroke="#1A1917" stroke-width="0.3"/></g><g fill-rule="nonzero" stroke="#99948A" stroke-width="0.3" stroke-linecap="butt"><line x1="-57.28024039274435" y1="66.43693637341322" x2="-72.186949800635" y2="55.50564513164838"/><line x1="-55.19007772966276" y1="66.3052623250402" x2="-72.08867243682909" y2="53.91329470388296"/><line x1="-53.902787439441795" y1="65.58483112728177" x2="-71.99039507302317" y2="52.32094427611756"/><line x1="-52.61549714922084" y1="64.86439992952333" x2="-71.3663328675706" y2="51.11415897055826"/><line x1="-51.61400585260087" y1="63.93438847161695" x2="-70.57261371359036" y2="50.03178539563644"/><line x1="-50.971650027842614" y1="62.74101812404904" x2="-69.77889455961008" y2="48.949411820714616"/><line x1="-50.359562896095156" y1="61.52545133528444" x2="-68.98517540562982" y2="47.8670382457928"/><line x1="-49.86607121246691" y1="60.22291690343607" x2="-68.19145625164956" y2="46.784664670870974"/><line x1="-49.37257952883867" y1="58.9203824715877" x2="-67.39773709766929" y2="45.70229109594916"/><line x1="-48.87908784521042" y1="57.61784803973933" x2="-66.60401794368903" y2="44.61991752102733"/><line x1="-48.385596161582185" y1="56.31531360789095" x2="-65.81029878970877" y2="43.53754394610551"/><line x1="-47.892104477953936" y1="55.012779176042585" x2="-65.0165796357285" y2="42.45517037118369"/><line x1="-47.3986127943257" y1="53.710244744194206" x2="-64.22286048174824" y2="41.372796796261866"/><line x1="-46.90512111069745" y1="52.40771031234584" x2="-63.42914132776798" y2="40.29042322134005"/><line x1="-46.411629427069215" y1="51.10517588049748" x2="-62.63542217378772" y2="39.20804964641823"/><line x1="-45.91813774344097" y1="49.8026414486491" x2="-61.841703019807454" y2="38.12567607149641"/><line x1="-45.42464605981273" y1="48.500107016800726" x2="-61.04798386582719" y2="37.04330249657458"/><line x1="-44.93115437618449" y1="47.197572584952354" x2="-60.25426471184692" y2="35.96092892165276"/><line x1="-44.437662692556245" y1="45.89503815310398" x2="-59.46054555786665" y2="34.878555346730934"/><line x1="-43.944171008927995" y1="44.59250372125562" x2="-58.66682640388639" y2="33.79618177180912"/><line x1="-43.45067932529975" y1="43.28996928940724" x2="-57.87310724990613" y2="32.71380819688729"/><line x1="-43.36953458966132" y1="41.685055274124885" x2="-57.079388095925864" y2="31.631434621965475"/><line x1="-43.51518975416292" y1="39.9138258303871" x2="-56.275647705766495" y2="30.556409754815355"/><line x1="-46.71465931544312" y1="35.90319306455792" x2="-54.867165370726475" y2="29.9248503195534"/><line x1="-51.96937618157745" y1="30.38541970529098" x2="-53.45868303568647" y2="29.293290884291448"/><line x1="-56.08852799388616" y1="26.390841072266007" x2="-74.31417708873373" y2="51.24467112932848"/><line x1="-76.90092295392463" y1="52.420842968193966" x2="-56.92562186646843" y2="25.181059299438797"/><line x1="-78.02220056637857" y1="51.598594958306784" x2="-58.03479967388541" y2="24.34231110914392"/><line x1="-79.14347817883251" y1="50.776346948419594" x2="-60.06972981831474" y2="24.765986613022882"/><line x1="-80.26475579128645" y1="49.954098938532404" x2="-62.37595182985231" y2="25.55961557786679"/><line x1="-81.38603340374038" y1="49.13185092864522" x2="-64.6821738413899" y2="26.353244542710705"/><line x1="-82.50731101619431" y1="48.30960291875804" x2="-66.98839585292748" y2="27.146873507554616"/><line x1="-83.62858862864825" y1="47.48735490887085" x2="-69.29461786446504" y2="27.940502472398524"/><line x1="-84.03976186924736" y1="45.69675656539548" x2="-71.60083987600262" y2="28.73413143724244"/><line x1="-81.92749675857394" y1="40.4650128549915" x2="-73.90706188754021" y2="29.52776040208635"/><line x1="-78.70930963271074" y1="33.725152880587814" x2="-77.0475651160498" y2="31.45907634194633"/><path d="M -59.22910696778882,62.86727015515394 L -58.303083820260106,61.60447716392427 L -57.19510642342687,60.0935580309676 L -56.37494288227528,60.69499502748271 L -55.1838151801485,61.5684650510675 L -54.29733618595178,62.21853206452533 L -55.40531358278501,63.729451197482 L -56.33133673031373,64.99224418871167 L -57.21781572451045,64.34217717525384 L -58.40894342663723,63.46870715166905 Z" fill="#99948A" stroke="#1A1917" stroke-width="0.3"/></g><g><path fill="none" stroke="#1A1917" stroke-width="1.9" stroke-linejoin="round" stroke-linecap="round" d="M -30.883171251930758,6.087904071788128 L -33.78669542251459,-6.142208927532598 M -32.88076373117015,-10.497765528519286 L -24.58495669427525,-21.796347001318367 L -11.689005999173606,-32.6856479902692 M -7.403028258179317,-34.30937159466332 L 9.327629333766074,-34.685075682785 L 26.614462992703057,-31.84110655725405 L 36.28997107618915,-19.01564292986246 L 43.32842263497244,0.29347573317518066 L 38.83366606921924,18.271542904289998 L 30.04625208650968,35.680859065680416 L 15.551445056441203,41.87096541493878 L 3.6050500825793677,49.8503883305261 L -14.198012759584985,45.171012927244725 L -22.3302241693995,37.270685444561224 L -30.728786919960843,22.892868135561375 M -31.809074910852633,18.393233991233217 L -30.883171251930758,6.087904071788128"/><g stroke="#1A1917" stroke-width="3.8" stroke-linecap="butt"><line x1="-34.22557169028448" y1="-7.990826687262382" x2="-34.00525188069221" y2="-8.966254378842454" stroke="#CCC5B8" stroke-width="3.8" stroke-linecap="butt"/><line x1="-35.06278696673513" y1="-4.284201459258117" x2="-34.22557169028448" y2="-7.990826687262382"/><line x1="-34.00525188069221" y1="-8.966254378842454" x2="-33.16803660424156" y2="-12.672879606846719"/></g><g stroke="#1A1917" stroke-width="3.8" stroke-linecap="butt"><line x1="-10.237315148229705" y1="-33.91145126701706" x2="-9.30254937982138" y2="-34.26671589825973" stroke="#CCC5B8" stroke-width="3.8" stroke-linecap="butt"/><line x1="-13.789425068181338" y1="-32.56144566829489" x2="-10.237315148229705" y2="-33.91145126701706"/><line x1="-9.30254937982138" y1="-34.26671589825973" x2="-5.750439459869748" y2="-35.6167214969819"/></g><g stroke="#1A1917" stroke-width="3.8" stroke-linecap="butt"><line x1="-31.687120996738493" y1="21.2522597736155" x2="-31.95163573220711" y2="20.287878129908005" stroke="#CCC5B8" stroke-width="3.8" stroke-linecap="butt"/><line x1="-30.681965001957753" y1="24.916910019703977" x2="-31.687120996738493" y2="21.2522597736155"/><line x1="-31.95163573220711" y1="20.287878129908005" x2="-32.95679172698785" y2="16.623227883819528"/></g><polygon points="-30.569328042186985,7.680307153783244 -33.78367971626263,7.934754231516662 -34.03812679399605,4.720402557441013 -30.823775119920406,4.4659554797075955" stroke="none" fill="#1A1917"/><polygon points="-24.85465082467545,-19.84194254267179 -27.21072552783555,-22.043240340137878 -25.009427730369463,-24.399315043297978 -22.653353027209363,-22.198017245831892" stroke="none" fill="#1A1917"/><polygon points="7.639526636068952,-33.66392878151289 7.866021618138145,-36.88037091889038 11.082463755515635,-36.65387593682119 10.855968773446442,-33.437433799443696" stroke="none" fill="#1A1917"/><polygon points="24.646446399022217,-31.702029603926725 26.3146474880294,-34.461360161622785 29.07397804572546,-32.7931590726156 27.40577695671828,-30.03382851491954" stroke="none" fill="#1A1917"/><polygon points="34.520855170285984,-19.888947357556702 37.35373513605549,-21.428944467794825 38.89373224629361,-18.59606450202532 36.0608522805241,-17.0560673917872" stroke="none" fill="#1A1917"/><polygon points="42.10852915178292,-1.2571020951267917 45.328531022641556,-1.4255893399461654 45.49701826746093,1.7944125309124794 42.27701639660229,1.9628997757318534" stroke="none" fill="#1A1917"/><polygon points="38.33007917125904,16.36397063877743 41.35206654393882,17.48842264725264 40.22761453546361,20.510410019932422 37.20562716278383,19.385958011457213" stroke="none" fill="#1A1917"/><polygon points="30.443994598576452,33.748442804611194 32.65007768856501,36.10003745507001 30.29848303810619,38.30612054505857 28.09239994811763,35.954525894599755" stroke="none" fill="#1A1917"/><polygon points="16.880045496871155,40.93872831766194 18.415275188711057,43.77419473313809 15.579808773234907,45.30942442497799 14.044579081395007,42.47395800950184" stroke="none" fill="#1A1917"/><polygon points="5.0072834169247376,48.46252184271086 5.539846786449522,51.64264389342533 2.359724735735052,52.17520726295012 1.8271613662102673,48.99508521223565" stroke="none" fill="#1A1917"/><polygon points="-12.235011737546515,44.973380188494644 -13.82028586711259,47.78117397261208 -16.628079651230028,46.19589984304601 -15.042805521663952,43.38810605892857" stroke="none" fill="#1A1917"/><polygon points="-20.440931559768835,37.83902086237793 -22.979731566836648,39.82680720001899 -24.96751790447771,37.28800719295118 -22.4287178974099,35.300220855310116" stroke="none" fill="#1A1917"/></g><g id="labels" style="font: bold italic 2px &quot;Archivo Narrow&quot;, sans-serif" fill="#1A1917"><text text-anchor="middle" stroke="#CCC5B8" stroke-width="1.0008360149001323" x="1.5526477711938884" y="-0.7139504760393627">Market</text><text text-anchor="middle" x="1.5526477711938884" y="-0.7139504760393627">Market</text><text text-anchor="middle" stroke="#CCC5B8" stroke-width="1.0008360149001323" x="-12.33356465736496" y="1.7747145748687123">Craftsmen</text><text text-anchor="middle" x="-12.33356465736496" y="1.7747145748687123">Craftsmen</text><text text-anchor="middle" stroke="#CCC5B8" stroke-width="1.0008360149001323" x="16.350663506326104" y="5.935930362609544">Merchant</text><text text-anchor="middle" x="16.350663506326104" y="5.935930362609544">Merchant</text><text text-anchor="middle" stroke="#CCC5B8" stroke-width="1.0008360149001323" x="0.3638818501038217" y="19.11224293032451">Temple</text><text text-anchor="middle" x="0.3638818501038217" y="19.11224293032451">Temple</text><text text-anchor="middle" stroke="#CCC5B8" stroke-width="1.0008360149001323" x="-25.135470155678366" y="5.812671209032356">Gate</text><text text-anchor="middle" x="-25.135470155678366" y="5.812671209032356">Gate</text><text text-anchor="middle" stroke="#CCC5B8" stroke-width="1.0008360149001323" x="-17.681586833717848" y="-17.650326996932257">Gate</text><text text-anchor="middle" x="-17.681586833717848" y="-17.650326996932257">Gate</text><text text-anchor="middle" stroke="#CCC5B8" stroke-width="1.0008360149001323" x="6.477404111946421" y="-27.821732282510236">Gate</text><text text-anchor="middle" x="6.477404111946421" y="-27.821732282510236">Gate</text><text text-anchor="middle" stroke="#CCC5B8" stroke-width="1.0008360149001323" x="15.899995899343438" y="-13.703395648044467">Craftsmen</text><text text-anchor="middle" x="15.899995899343438" y="-13.703395648044467">Craftsmen</text><text text-anchor="middle" stroke="#CCC5B8" stroke-width="1.0008360149001323" x="21.584381622356283" y="24.990257134049422">Craftsmen</text><text text-anchor="middle" x="21.584381622356283" y="24.990257134049422">Craftsmen</text><text text-anchor="middle" stroke="#CCC5B8" stroke-width="1.0008360149001323" x="-13.146040396520043" y="32.53606284024821">Craftsmen</text><text text-anchor="middle" x="-13.146040396520043" y="32.53606284024821">Craftsmen</text><text text-anchor="middle" stroke="#CCC5B8" stroke-width="1.0008360149001323" x="-43.443533602678926" y="-2.8694071686504548">Gate</text><text text-anchor="middle" x="-43.443533602678926" y="-2.8694071686504548">Gate</text><text text-anchor="middle" stroke="#CCC5B8" stroke-width="1.0008360149001323" x="-26.57459840704213" y="-42.2347774472778">Gate</text><text text-anchor="middle" x="-26.57459840704213" y="-42.2347774472778">Gate</text></g></g></svg>