<svg width="173.50719824556256" height="175.1849312308132" xmlns="http://www.w3.org/2000/svg"><rect x="0" y="0" width="173.50719824556256" height="175.1849312308132" id="background" fill="#CCC5B8"/><g id="map" transform="translate(86.75359912278128 87.5924656154066)"><g id="waterbody"><polygon points="8.231240150722979,36.30087630131969 5.4054125244487405,23.130492072341887 7.8008720735755235,11.024592911590695 23.522057808927112,7.2320919956216 37.80631741299146,-0.05578040202242544 51.65287947158331,-2.635442690693946 60.93673970294384,-14.871483561612742 69.33231733360705,-21.14934525655195 80.83150157644093,-39.13906735245696 91.48890782849922,-41.15927617789343 122.3086485291388,-30.200589454892793 145.35485028883303,-51.05316506047057 174.05217264729117,-41.37561086929538 186.2833192603227,1.9530722963945752 242.98945480219703,40.48802280294619 183.61473599389777,60.96977351529577 157.7064529787853,70.88966693907393 144.45905454024347,92.78633613678377 122.48948560524708,113.5389322576599 137.12231896632414,194.64828807176934 144.1371149398364,235.28445559522862 65.40291281391026,171.23850976541985 38.13871411463035,161.5473270377593 20.769046728618466,196.52091336047502 2.075440570785921,301.0893741973352 -37.22961717333285,192.71501135010917 -26.537388676849513,159.04602243346147 -19.350508973679624,134.3315818061723 -43.14320109181817,108.66428563287292 -44.24759946097257,95.32946433665346 -20.783599867107544,85.2100527908056 -13.534524540268444,67.89997866782443 -21.070434400675303,52.764862510921255 -17.109142034096582,42.020131888185546" fill="#67635C" stroke="#99948A" stroke-width="0.3"/><polygon points="12.142230503959473,35.46173718478949 11.227806051873307,14.312639295023924 39.108295727105215,3.7704823726268737 54.839475703004396,-0.2176742034535044 72.70261348692947,-18.995023126762593 83.27223099684836,-35.53049883078462 91.16951764240335,-37.027501741344636 120.96854942260566,-26.431752182647 124.99239029994956,-27.23452638954751 146.29928726660984,-46.51335092429523 170.7755633079165,-38.259253736092106 184.03508550162985,5.261462383169969 234.13891243756595,39.3097796016723 156.27616918162772,67.15412303495656 141.31766292776035,90.25130620654129 119.74274252154251,110.63111478881473 118.55303311794789,114.24910252966231 138.37934783279908,225.44456193153795 67.92704928419903,168.1354894497664 39.47841472490116,157.77834809448566 34.556219146558625,159.76807725098377 16.831471171425584,195.81699665276227 0.7584889873997405,285.72618773399404 -33.005641819399656,192.6296150969827 -15.509612106363114,135.4485022396134 -16.41698670202935,131.61230854264548 -39.27083612414695,106.9578256070939 -40.02398672317782,97.86407019444606 -19.199540793298652,88.88302935630173 -9.844988218005952,69.44507469290046 -16.719945351178914,52.52804694256754 -14.108027735157393,45.44340168141308 9.111878362965278,40.20273180084023" fill="none" stroke="#CCC5B8" stroke-width="0.15"/><polygon points="20.134763204587564,35.11616370578596 19.470323027510464,19.74878117917278 60.63566933729784,5.296320659962328 78.49880712122291,-13.481028263346762 90.53073727021157,-28.76395286824705 118.2883512095394,-18.894077638155416 130.35987384157113,-21.302400258856952 148.18816122216347,-37.43372265194455 164.32163460200542,-31.99305606378516 176.38238476477844,7.5930222541992265 179.5386179842441,11.878242556720757 216.6213936846468,37.07803641686397 153.58237045290292,59.62129830520739 149.5613680408883,62.805393836636114 135.125390103972,85.09574963895474 114.24925635413338,104.8154798511244 110.67724485913931,115.65336721354953 126.72395741982348,205.65100927350085 72.97532222477658,161.92944881845946 42.21520239601202,150.26103519403677 36.48022382911045,150.3614180454426 27.377085938781462,156.23819816169598 8.956320057039818,194.40916323733677 -1.8754141793726262,254.99981480731182 -24.57373806776469,192.41457691963726 -7.85969826867716,137.78918980440733 -10.549942158728804,126.17376201559183 -31.52610618880451,103.54490555553585 -11.990880677140463,92.35221071934838 -2.636328101847762,72.9142560559471 -2.433624527101938,66.43315035103036 -8.10579913727901,52.289941267868144 10.873154787449877,48.00644279988131 15.852555944554126,44.51124265043381" fill="none" stroke="#CCC5B8" stroke-width="0.15"/><polygon points="35.968028826315404,30.914143444286648 65.93584142739535,20.392948621707674 72.22805660588473,16.324310386793993 95.99538344316935,-9.83950421159278 112.92795478340688,-3.818728549172251 121.41873267928514,-3.203293341190763 133.49025531131687,-5.6116159618923 141.09484092481424,-9.438147997475836 151.5775617634534,-18.923083134257745 161.07698329107563,12.256141996257742 170.5456829494726,25.111802903822333 181.58635617880844,32.614550047247306 148.19477299545332,44.55564884570906 136.1317657594095,54.107935439995224 122.7408444563953,74.78463650378166 103.2622840193151,93.18420997574373 99.05332498630437,99.80711985365711 94.92566834152214,118.46189658132397 103.41317659387222,166.06390395742656 78.6501224352212,146.96961450883097 47.89000260645665,135.30120088440827 36.20020889606337,134.3638684944248 27.802244748705263,136.91922034268396 18.699106858376275,142.79600045893733 12.967284930842464,149.2842327525499 -7.709930564494758,191.9845005649464 7.44012940669475,142.4705649339952 7.727686066271367,134.1790028847865 5.037442176219724,122.563575095971 -6.11300103915951,107.42458550156339 2.426439555175916,99.29057344544168 11.780992130468618,79.85261878204041 13.026072988533304,63.922987626291544 25.044924845228536,57.60705701968607 30.411571882374258,51.147134069248565 34.69377914240769,41.752055124600716" fill="none" stroke="#CCC5B8" stroke-width="0.15"/><polygon points="63.79570571158533,55.059172689499604 76.53618560759035,50.58620454519837 89.60368260247192,43.19599848461776 105.702276179827,27.06594979461257 116.86053674238266,28.550265875497956 109.27256119645186,36.713018646713465 97.97175316124188,54.16241023343549 81.28833934967855,69.92167022498239 72.04578193712895,82.64341924898166 67.8090212968859,92.89383648297203 64.59631653740064,107.41352528893668 50.44767601469869,103.40357861037708 36.282185204608545,102.73387472723121 43.494577795418635,83.04782582904916 49.65912575185676,78.05555607776225 59.529603758014524,64.41891690687808" fill="none" stroke="#CCC5B8" stroke-width="0.15"/></g><g fill="none"><path d="M -28.953580322510806,-37.93512585278322 L -47.29114553341175,-65.4466844787646 C -51.550528667542864,-71.83696952792172 -57.42785706271659,-79.37552082556802 -61.382294456491955,-89.54751858132518 C -64.00083849090267,-96.28319837317224 -62.57702888622724,-103.46264732467642 -64.31585340711975,-109.23933385952664 C -66.06420306631689,-115.04766461006733 -70.38190502028611,-120.41700409196703 -72.68742399520417,-127.10518400204042 C -74.69727789854097,-132.93565629253956 -79.72558603210851,-141.20925411282823 -79.22373555088754,-152.48625524269715 C -78.34788112362966,-172.1674386536557 -78.34788112362966,-172.1674386536557 -68.96500028300575,-210.75116618020357" stroke="#67635C" stroke-width="2.3" stroke-linejoin="round" stroke-linecap="butt"/><path d="M -28.953580322510806,-37.93512585278322 L -47.29114553341175,-65.4466844787646 C -51.550528667542864,-71.83696952792172 -57.42785706271659,-79.37552082556802 -61.382294456491955,-89.54751858132518 C -64.00083849090267,-96.28319837317224 -62.57702888622724,-103.46264732467642 -64.31585340711975,-109.23933385952664 C -66.06420306631689,-115.04766461006733 -70.38190502028611,-120.41700409196703 -72.68742399520417,-127.10518400204042 C -74.69727789854097,-132.93565629253956 -79.72558603210851,-141.20925411282823 -79.22373555088754,-152.48625524269715 C -78.34788112362966,-172.1674386536557 -78.34788112362966,-172.1674386536557 -68.96500028300575,-210.75116618020357" stroke="#CCC5B8" stroke-width="1.7" stroke-linejoin="round" stroke-linecap="round"/></g><g fill="none"><path d="M -43.04825857247869,9.105162711375343 L -63.87387878167465,27.144802788505796 C -68.28134415148988,30.962652539207323 -74.43695302370259,34.265988079414505 -81.3362784715592,38.13758497458714 C -86.17954206160213,40.85541071268713 -90.85496823803132,44.95953185355503 -96.47373366895783,45.43840234669077 C -103.5843437043567,46.0444182724323 -112.0578184446112,45.49064952630479 -119.15601185762989,41.36084720176001 C -126.81537106603031,36.904552814886806 -129.4140694088028,28.157707901038993 -134.22742583695637,23.472913862031188 C -136.70431277104555,21.062183362987593 -139.67734483574512,18.91695111051393 -142.88149227171772,18.26906273169695 C -147.4828457732793,17.33865502728816 -155.35671093064352,20.18502487870883 -164.9191526936658,17.266953133432217 C -179.45724837628214,12.830512390271819 -179.45724837628214,12.830512390271819 -206.6644314817281,-1.1949190997177581" stroke="#67635C" stroke-width="2.3" stroke-linejoin="round" stroke-linecap="butt"/><path d="M -43.04825857247869,9.105162711375343 L -63.87387878167465,27.144802788505796 C -68.28134415148988,30.962652539207323 -74.43695302370259,34.265988079414505 -81.3362784715592,38.13758497458714 C -86.17954206160213,40.85541071268713 -90.85496823803132,44.95953185355503 -96.47373366895783,45.43840234669077 C -103.5843437043567,46.0444182724323 -112.0578184446112,45.49064952630479 -119.15601185762989,41.36084720176001 C -126.81537106603031,36.904552814886806 -129.4140694088028,28.157707901038993 -134.22742583695637,23.472913862031188 C -136.70431277104555,21.062183362987593 -139.67734483574512,18.91695111051393 -142.88149227171772,18.26906273169695 C -147.4828457732793,17.33865502728816 -155.35671093064352,20.18502487870883 -164.9191526936658,17.266953133432217 C -179.45724837628214,12.830512390271819 -179.45724837628214,12.830512390271819 -206.6644314817281,-1.1949190997177581" stroke="#CCC5B8" stroke-width="1.7" stroke-linejoin="round" stroke-linecap="round"/></g><g fill-rule="nonzero" fill="#99948A" stroke="#1A1917" stroke-width="0.3"><path d="M -1.5997598230577652,4.933976623793557 L -3.3450458155471154,4.454218237873212 L -2.887163012349054,2.78851219484009 L -1.1418770198597037,3.2682705807604346 Z"/></g><g fill="#899E7E" stroke="#173017" stroke-width="0.3"><polygon points="12.089523207094704,-11.361949873038611 12.736571639079639,-8.623694391913359 13.487223264107175,-5.446998761353384 14.117901848161887,-2.7780191235875087 10.666123038187035,-1.4339965664171483 10.1668146967686,-4.068616763729269 9.572523678567425,-7.204416809020074 6.426487027517065,-5.793218448716585 6.048231519756289,-8.461172054097869 9.060255325780343,-9.907421018528416"/><polygon points="13.735575561340069,7.535562986446964 12.711364072410024,4.2926373931779445 12.0206877252782,2.105772642110572 11.072533335705396,-0.8963359746636215 14.001224591165228,-2.036683409137348 14.99471038075096,1.1089564595994714 15.718408065035906,3.4003755341979196 17.640271230762597,2.8301127761000284 21.199489740357436,1.774007533983502 22.361924681037443,5.45458528612277 18.744746677536156,6.327175377126811 16.791587255020882,6.798345874290153"/><polygon points="11.072533335705396,-0.8963359746636215 11.633656277820107,0.8803282881588514 12.337743534422252,3.1096555403994515 10.341160594784,3.740235282846716 9.813045080738657,1.5241013477819 7.576063846284903,2.3151039824642625 7.327495355709663,0.5618731979602325 9.392162969553118,-0.2420484896188505"/><polygon points="7.887963242070219,4.515027315842273 9.029697782057337,4.1544338950156545 12.337743534422252,3.1096555403994515 12.941870676469133,5.022482521650108 13.735575561340069,7.535562986446964 9.839957268503422,8.475322632605646 8.495428718268723,8.799670035158464 8.1505029284996,6.36680128500792"/></g><g fill="#A3947C" stroke="#302514" stroke-width="0.3"><polygon points="-15.089705805585364,15.220070912092106 -14.197702499970978,10.413635336929293 -13.420923022794035,6.228067313066335 -9.714055853763021,7.247041061488423 -5.328604717362836,8.452549481189287 -5.721080146410041,12.386448500347825 -6.171773541857181,16.903883669716077 -11.004647720083504,15.991378959359938"/><polygon points="-5.986069805990928,21.66770576374078 -5.557855787096245,17.375588132302713 -5.0806744954549625,12.592656829556956 -4.685269577954806,8.629394668405858 -0.982493676308112,9.647243776026885 5.672640196137621,11.476661016793434 5.027744248881209,14.735762306777286 -1.4670873773376585,13.35878044801006 -2.051903190050501,17.837925205005195 4.249472994614572,18.66890045026952 3.55106618903039,22.198428788440168 -2.5767065171331196,21.857430183934248"/></g><g fill="#898F95" stroke="#17202E" stroke-width="0.3"><polygon points="-21.809715030516426,2.1118044882544744 -21.21629483542664,-0.2552176780365967 -20.419327245316893,-3.4341454718909015 -19.50764855870569,-7.07063050829475 -14.425596190865008,-5.8195267618827184 -9.562041208581904,-4.6222128778857545 -11.411581196370857,-1.225434896717016 -13.028404588786517,1.7439467522634402 -14.232287487990611,3.954941351418153 -17.937766115887776,3.053619073321402"/><polygon points="-12.574757526424154,-13.221224797704487 -14.989647802558059,-14.119820556940159 -18.311591581859826,-15.355936591693851 -20.748255669070492,-16.262634522067213 -20.172211905882232,-17.810697116457984 -17.79449340043288,-16.925933205331738 -17.223988539413774,-18.658081435658655 -14.07106755446968,-17.484859838687502 -14.552911091420388,-15.719720175746252 -12.196439664632026,-14.842862435334926"/><polygon points="-17.59990267073928,-11.298368503340846 -18.41051761793671,-9.119918256323304 -18.970252413665165,-7.615684454276233 -21.573937219436296,-8.256661677492138 -23.546619777312323,-8.742298258936696 -22.909948332831643,-10.453291956120713 -21.987912766545016,-12.931174474917713 -20.096423230861994,-12.227339401249477"/><polygon points="-21.987912766545016,-12.931174474917713 -21.240272704328945,-14.940385733414454 -20.748255669070492,-16.262634522067213 -19.34257613090321,-15.739572383664932 -16.360245573264756,-14.629828550490345 -16.85226260852321,-13.307579761837587 -17.59990267073928,-11.298368503340846 -20.582233228377735,-12.408112336515432"/><polygon points="-17.01623868464411,-12.86690971897006 -14.545191121524372,-11.947417482393627 -13.230750637803512,-11.458305966184202 -14.20935436606805,-8.828401915018272 -15.02227062356021,-6.6437671163867265 -16.39313404452328,-6.9812473778337045 -15.554615436320931,-9.23468604866334 -18.083603344543466,-9.998469141782879"/><polygon points="-13.757495226849663,-10.042730193630298 -7.814663070965062,-7.8313652194515795 -9.236819329103936,-5.219500055507534 -15.02227062356021,-6.6437671163867265"/><polygon points="-10.118855163179026,-8.688769492842686 -12.220824759228538,-9.470925511987499 -13.757495226849663,-10.042730193630298 -12.817830639422038,-12.567989022958034 -11.281160171800915,-11.996184341315235 -10.62371090342338,-13.763016455687435 -8.521741307373869,-12.980860436542624 -9.179190575751402,-11.214028322170424"/><polygon points="-10.118855163179026,-8.688769492842686 -8.97479589550578,-11.763319503155406 -6.341461195059294,-10.536978359438585 -7.814663070965062,-7.8313652194515795"/></g><g fill="#939E7C" stroke="#213014" stroke-width="0.3"><polygon points="-0.35682505813752297,-28.111158310010325 1.6161565022670659,-25.643052100780107 5.044480628975936,-21.35438147445718 2.879287629520759,-19.62354596719004 0.1575811831579319,-17.44783869356223 -2.9147730980899373,-21.29120795290185 -4.682895982594228,-23.503045690012886 -2.2735369906484166,-26.069484791628895"/><polygon points="8.23147903825727,-23.90203889334596 6.656687725152555,-22.643165101520772 5.044480628975936,-21.35438147445718 3.0939775489537595,-23.794368172527594 1.632836932029711,-25.62218567551997 3.2450440282063298,-26.91096930258356 4.8198353413110455,-28.169843094408748 6.280975958235094,-26.342025591416373"/><polygon points="3.1668178977962693,-26.848436048437666 1.632836932029711,-25.62218567551997 -0.35682505813752297,-28.111158310010325 1.0011137593578174,-29.55762904785902"/><polygon points="3.1668178977962693,-26.848436048437666 1.0011137593578174,-29.55762904785902 2.4644282349868587,-31.11634549516691 4.8198353413110455,-28.169843094408748"/><polygon points="-2.026138527524143,-20.17956831806395 -3.5139657560205126,-18.99021282115981 -5.273262545488,-17.583847036771243 -6.237925491866345,-18.79059455816342 -7.5573747718477176,-20.441162929425122 -5.999977740705944,-22.10009572060497 -4.682895982594228,-23.503045690012886 -3.1481829896323372,-21.583192639516668"/><polygon points="-6.275728552312599,-18.837884391017294 -9.072335672305902,-16.60230220301904 -10.090190364134278,-17.743218374480556 -7.5573747718477176,-20.441162929425122"/><polygon points="-6.275728552312599,-18.837884391017294 -4.728551997037214,-16.902440016125347 -3.089542834805926,-14.852117412269523 -4.8829616925399595,-13.418474758173735 -6.599104887426892,-15.407137120853513 -7.420378348465345,-14.750618617468726 -9.072335672305902,-16.60230220301904 -8.219093706165278,-17.284376037387723"/><polygon points="-4.080298564596557,-14.060116331265895 -2.616393136944909,-15.230348959072344 -0.4644843622109436,-16.950565178433152 0.9483398828261795,-15.183189161491532 1.866906212575807,-14.034106317767456 -0.2850025621581571,-12.313890098406649 -1.7489079898098039,-11.1436574706002 -2.667474319559432,-12.292740314324275"/><polygon points="1.866906212575807,-14.034106317767456 3.4624898919654568,-12.038106930099362 1.6545827907726505,-10.592882506515735 0.058999111383000624,-12.588881894183828"/><polygon points="3.5156348987202506,-11.97162505120426 8.740980378435102,-16.148718500288975 10.18970069267351,-14.33643820595285 4.964355212958659,-10.159344756868137"/><polygon points="8.740980378435102,-16.148718500288975 9.925821474642124,-17.095869650463793 12.211598299188466,-18.923098766117064 13.524586425415887,-17.280612991276413 15.263931857734539,-15.104774479830027 12.556637390970812,-13.804843911175578 11.153301024397853,-13.131019965015287 9.778661321244991,-14.850628933945657"/><polygon points="10.143624267327487,-21.51003604469776 11.521054573496063,-19.78693616395716 12.211598299188466,-18.923098766117064 10.316923784144004,-17.408513264418932 7.825275766296227,-15.416712597232268 7.134732040603824,-16.280549995072363 5.757301734435249,-18.00364987581296 8.248949752283025,-19.995450542999627"/><polygon points="3.845156505365032,-20.39565272446116 8.23147903825727,-23.90203889334596 10.143624267327487,-21.51003604469776 5.757301734435249,-18.00364987581296"/></g><g fill="#939E7C" stroke="#213014" stroke-width="0.3"><polygon points="30.03781520011719,0.4676477347333315 26.553023793792356,1.5682475765214674 22.900600247021487,2.7217905892892653 22.163407113730266,0.38764133889399943 21.168131992651194,-2.763664028577528 24.820555539422063,-3.9172070413453253 25.815830660501135,-0.7659016738737983 29.30062206682597,-1.866501515661934"/><polygon points="27.12279894772844,1.388295788549682 27.59242856935063,2.8752678990723233 28.029404483880906,4.258849700476187 26.013529339558485,5.287355288348858 24.030431877900142,6.299137603516636 23.48586294413466,4.574887727690523 22.900600247021487,2.7217905892892653 24.994395916805924,2.060508201276331"/><polygon points="27.12279894772844,1.388295788549682 30.03781520011719,0.4676477347333315 30.790304897530195,2.850229969737499 28.029404483880906,4.258849700476187"/><polygon points="30.790304897530195,2.850229969737499 30.265837802622606,1.1896278545629793 29.738500002959967,-0.4800636742936657 31.808081297508494,-1.133698448878354 35.10998426892568,-2.1765367322102485 34.90925288945038,-0.6588441318407114 34.70961424507944,0.8505865017830847 32.300377144158816,2.0797865481182463"/><polygon points="35.10998426892568,-2.1765367322102485 32.3651855954487,-1.3096484070479097 29.738500002959967,-0.4800636742936657 29.181846381601353,-2.2425768805998563 28.305346945746898,-5.017806883133461 30.94580389821285,-5.851741017285053 31.813880933410076,-3.0738509723701455 34.56426909064102,-3.942504621254337"/><polygon points="29.150827632722653,-5.284834604974009 28.400378353120537,-7.660956335276351 27.364260678913364,-10.941580073284735 28.86618156889799,-11.415930960082488 31.953532909544695,-12.391007514418842 32.96929050027738,-9.103953461927318 33.704993182696164,-6.723174321572415 30.64125923760755,-5.755556836885828"/><polygon points="25.93880661624748,-15.266168907011775 27.31004696271226,-10.924457783736676 25.4714426789447,-10.343772357299724 24.023087610824945,-14.929649170157136"/><polygon points="31.953532909544695,-12.391007514418842 29.230519500532132,-11.530999617904062 27.31004696271226,-10.924457783736676 26.527374990367896,-13.40260511725409 25.93880661624748,-15.266168907011775 27.620972746935387,-15.561662192844695 30.006094554118224,-15.98063833738756 30.841980567469665,-14.43988497302359"/><polygon points="19.205204829060847,-8.978812760388802 25.295082469163642,-10.902175620800271 26.14495230346944,-8.211262009299253 20.055074663366646,-6.2878991488877825"/><polygon points="27.25800963275399,-4.687026888988997 24.3679130496895,-3.7742492012628275 21.168131992651194,-2.7636640285775282 20.441419453757998,-5.064628933577944 20.055074663366646,-6.2878991488877825 23.25485572040495,-7.298484321573082 26.14495230346944,-8.211262009299253 26.531297093860793,-6.987991793989414"/><polygon points="25.295082469163642,-10.902175620800271 22.179739456060545,-9.918258471236046 19.205204829060847,-8.978812760388802 18.333947904007346,-11.737443581373324 17.677788386384783,-13.815018882923766 20.77708091362397,-14.359447947285446 24.023087610824945,-14.929649170157136 24.569521123877617,-13.199495541096008"/></g><g stroke="#CCC5B8" stroke-width="0.6" stroke-linecap="square"><polyline points="12.7451223776508,9.831866477170346 14.62118644048866,17.608779980105062"/><polyline points="18.577807504851837,8.424818430041949 20.4538715676897,16.201731932976664"/></g><g fill="#8C8595" stroke="#1A162E" stroke-width="0.3"><polygon points="-28.02354242913591,25.61554380084839 -29.14532207580127,25.897418564915885 -31.37398968341131,22.02730551520536 -29.070608702786103,21.448524314814254"/><polygon points="-28.527159416844256,23.61129454357589 -29.070608702786103,21.448524314814254 -27.244072320356764,20.989562063726495 -26.700623034414917,23.152332292488133"/><polygon points="-26.418764080702218,26.91309687729275 -23.968484416737176,26.297403764806134 -23.593039889376314,27.791563877502366 -26.043319553341355,28.407256989988987"/><polygon points="-26.820749328242265,25.31331241115948 -26.046310871104748,28.395352414583726 -27.496939402283417,28.759858559967146 -28.271377859420937,25.6778185565429"/><polygon points="-27.496939402283417,28.759858559967146 -26.046310871104748,28.395352414583726 -25.68376319941727,29.838186789595536 -26.75625012961652,30.046076033645402"/><polygon points="-24.721561295809707,23.300376634291013 -25.417535937927415,20.53059981263873 -19.47627677076052,19.03771212209518 -18.780302128642813,21.807488943747458"/><polygon points="-18.780302128642813,21.807488943747458 -18.523606708149227,22.829062120241396 -23.593039889376314,27.791563877502366 -24.721561295809707,23.300376634291013"/><polygon points="-18.973181020980174,21.039887003888797 -19.47627677076052,19.03771212209518 -17.909376221649904,18.64398976859134 -17.406280471869557,20.64616465038496"/><polygon points="-18.973181020980174,21.039887003888797 -17.953179805563344,20.783586577331004 -17.653281435200093,21.97709493929647 -18.67328265061693,22.23339536585426"/><polygon points="-19.746405491503182,18.40186484331685 -22.429076914832432,19.07595210882339 -26.094142904599924,19.996890204133383 -27.08423295500885,17.029670122044195 -27.59397085317359,15.502026724949507 -23.916655618277545,14.66729078105871 -21.22501827183655,14.056299800554246 -20.722490650876143,15.533201996797839"/><polygon points="-28.853287502465843,18.76443203666551 -27.270627496190865,18.366749731416036 -26.677756139616573,20.143537402998152 -29.025689587490696,20.733513508049672"/><polygon points="-28.853287502465843,18.76443203666551 -28.587392806614275,15.727529560311021 -28.18197915196745,15.635502271906033 -27.270627496190865,18.366749731416036"/><polygon points="-23.078331458063968,3.8615413951352906 -23.34537810442397,6.911600814468645 -25.36146781549219,6.735082943148171 -25.067512890414243,3.377692014206284"/><polygon points="-21.10306110129292,4.342007039821036 -21.343387648400594,7.086884231551265 -23.34537810442397,6.911600814468645 -23.078331458063968,3.8615413951352906"/><polygon points="-27.868494755901455,7.516672764299894 -27.748728191838357,6.148765165305402 -25.32868459111667,6.360651046452915 -25.448451155179768,7.728558645447405"/><polygon points="-27.868494755901455,7.516672764299894 -25.448451155179768,7.728558645447405 -25.55011835862194,8.889745335948092 -27.970161959343628,8.677859454800581"/><polygon points="-27.748728191838357,6.148765165305402 -27.615535093353845,4.627507099869067 -27.45525673415572,2.7968961341410186 -25.830438682146,3.1921176035362464 -25.067512890414243,3.377692014206284 -25.210150855919004,5.006824138396493 -25.32868459111667,6.360651046452915 -26.101930718395078,6.292949812899343"/><polygon points="-28.382564183052448,13.388090061034873 -26.233828429682532,13.57622169978724 -26.323306738506155,14.59819356265647 -28.47204249187607,14.410061923904102"/><polygon points="-26.079972138161253,11.818960046908979 -26.233828429682532,13.57622169978724 -28.382564183052448,13.388090061034873 -28.22870789153117,11.630828408156614"/><polygon points="-27.970161959343628,8.677859454800581 -25.821426205973708,8.865991093552948 -26.079972138161253,11.818960046908979 -28.22870789153117,11.630828408156614"/><polygon points="-23.954087027261394,10.808624444423955 -21.68662493679586,11.007151116779609 -21.913392096163502,13.597160464780703 -24.244567135593563,14.126327934147339"/><polygon points="-25.976012951239223,10.631595585981373 -23.954087027261394,10.808624444423955 -24.244567135593563,14.126327934147339 -26.323306738506155,14.59819356265647"/><polygon points="-17.41394117178917,11.907833597669551 -17.47361085306629,12.589347767229857 -21.913392096163502,13.597160464780703 -21.73237950799584,11.529734578389291"/><polygon points="-17.163528044489585,9.047753053481868 -15.284321847599749,9.212286147334858 -15.842333514341092,12.219054294381332 -17.47361085306629,12.589347767229857"/><polygon points="-20.460315714123084,7.492707809995395 -21.371931094078644,7.412891715776306 -21.10306110129292,4.342007039821036 -20.203612838997227,4.5607892372675725"/><polygon points="-18.13315674472635,7.696461217022408 -19.502651522786937,7.576555688175841 -20.460315714123084,7.492707809995395 -20.336859808902663,6.0826625923436115 -20.203612838997227,4.5607892372675725 -19.25873036805636,4.790622871937708 -17.907513917090302,5.119293365573148 -18.02463852291584,6.457025975599249"/><polygon points="-18.243192031343966,8.953223535447709 -18.0139113007797,6.334505564406734 -17.907513917090302,5.119293365573148 -16.34670581189617,5.4989450268873545 -14.670832669876392,5.906585159202361 -14.865285750550576,6.95436850122559 -16.495565840209807,6.6334188715880025 -16.816351322522074,9.078149962705345"/><polygon points="-37.30451901306069,7.299667213522646 -28.143155527979324,2.6295713239852665 -28.11338460223148,2.636812817274171 -28.452395017804367,6.508802693815324"/><polygon points="-36.86603155155956,13.878405567325133 -40.50724503809455,9.196164466357612 -40.44092784384035,8.898482718702086 -38.75822032836833,8.040705875321033 -37.3984357740058,7.919220302020472"/><polygon points="-34.67133870173877,7.675576593752323 -34.46952145883204,9.934511233091365 -34.299889516930854,11.833196716947882 -36.040230375135216,11.98868186804703 -37.02698658919788,12.07684042521603 -37.19661853109907,10.178154941359514 -37.3984357740058,7.919220302020472 -36.41167955994313,7.831061744851471"/><polygon points="-37.02698658919788,12.07684042521603 -34.299889516930854,11.833196716947882 -34.109006598847465,13.969743770640317 -36.86603155155956,13.878405567325133"/><polygon points="-34.06973257815737,14.409336763217068 -30.902260122244023,14.126349134047564 -30.759973330770556,15.718961129685495 -33.92058510972306,16.078740120251837"/><polygon points="-30.759973330770556,15.718961129685495 -31.117427162023656,11.71799059935636 -28.891068026666638,11.519083709978887 -29.24367427321411,15.546357664762272"/><polygon points="-34.67133870173877,7.675576593752323 -32.273114875684115,7.461315006887999 -31.88667579188235,11.786716641661544 -34.28489961793701,12.000978228525867"/><polygon points="-28.891068026666638,11.519083709978887 -30.63965797075186,11.675305849098839 -31.88667579188235,11.786716641661544 -32.028874378048634,10.195091925509255 -32.273114875684115,7.461315006887999 -30.705068576178945,7.321222958448376 -28.506326950586836,7.124783466568659 -28.749494259022814,9.902106266456023"/><polygon points="-32.04897651063045,20.855181274029327 -33.78554094186631,17.83961240048334 -34.62224887097132,16.763688599352687 -32.5416790872573,16.526853027969874"/><polygon points="-32.36547877221304,18.074749947429794 -32.5416790872573,16.526853027969874 -29.297184812983723,16.157525519077502 -29.435848361414156,17.7412640448116"/><polygon points="-32.19694636962993,19.55528525023011 -29.56847752817705,19.256081193341345 -29.712953453541353,20.906205480729874 -31.728013081887216,21.412538840414523"/><polygon points="-32.19694636962993,19.55528525023011 -32.36547877221304,18.074749947429794 -29.435848361414156,17.7412640448116 -29.56847752817705,19.256081193341345"/></g><g fill="#A3877C" stroke="#301914" stroke-width="0.3"><polygon points="1.225717350576948,37.266911838772685 0.7487804674433691,34.742943292950166 0.5121592004302525,33.49073433966083 3.5856874811751056,32.93467976240831 6.771664639876798,32.35828123267403 7.019835147423519,33.51493385659935 7.5200508290023445,35.84629783028915 4.316346816679002,36.5693651438564"/><polygon points="-0.8182779846056693,33.08772311792626 -1.3321251632980933,30.247491420714812 6.0328840265179124,28.91503350999353 6.638711534608722,31.738624370190532"/><polygon points="6.0328840265179124,28.91503350999353 3.949733574417462,29.291911559645115 2.9006603382457294,23.493278850104307 4.893389260573809,23.604170329644496"/><polygon points="-1.3321251632980933,30.247491420714812 -1.898596848350083,27.116383764248543 -2.6095545480816416,23.186646134292992 -0.7921107748862266,23.287783337016627 2.9006603382457294,23.493278850104307 3.4845256412698777,26.720527746889196 3.9497335744174626,29.291911559645115 0.4099995036687716,29.932310850787964"/><polygon points="-4.451291900031053,33.744998350937884 -4.767597224964896,27.731867953844187 -1.815340802557166,27.576572065461484 -0.8182779846056693,33.08772311792626"/><polygon points="-4.767597224964896,27.731867953844187 -5.013724520552504,23.052858762450203 -2.6095545480816416,23.186646134292992 -1.815340802557166,27.576572065461484"/><polygon points="-11.2294020090831,40.07799852496681 -11.304261549004853,37.32844261138191 -11.46414467728222,31.456010035694227 -8.099392134386141,31.364401123117748 -5.491361303054065,31.293394751808602 -5.226178012592814,36.33466841676316 -5.102015448770402,38.695063983476395 -7.777554148824198,39.29892581738849"/><polygon points="-11.46414467728222,31.456010035694227 -11.539441640911601,28.69038775377056 -11.60976044056011,26.107611108177394 -8.745322731934829,26.02962379104638 -8.642887599870983,28.611526035847508 -5.6367394132761195,28.529680502511294 -5.491361303054065,31.293394751808602 -8.533200653393852,31.376212014464457"/><polygon points="-8.576863750432985,26.025037318813315 -10.34533768325814,26.073185874120306 -11.60976044056011,26.107611108177394 -11.638080335405018,25.0674346066345 -11.703064134051758,22.68061005437148 -10.435784087519824,22.751131718295298 -10.37279032271898,25.064863257497674 -8.603103410665977,25.06126686230911"/><polygon points="-5.7725060327151345,25.948685742368863 -7.48680424402583,25.995359306908266 -8.576863750432985,26.025037318813315 -8.63746870627075,23.799045616346813 -8.663313831872616,22.84976623244691 -7.59990075457787,22.90894309698794 -5.927508444272323,23.002008468591395 -5.881168906719835,23.882947421808232"/><polygon points="-12.319088598052595,22.646329493939714 -12.197302743844947,27.11946699889421 -12.103883266094801,30.550720754399727 -14.578649892381069,30.618098868131536 -14.30798678300972,27.1180753734354 -17.75985381680947,27.115799473321726 -16.630775636799626,22.406392516218567 -13.955138118350641,22.555286527746944"/><polygon points="-12.009271078294983,34.02578219258265 -15.01503700974008,34.107617318622005 -16.5515561124398,34.149450660704915 -16.613535181951832,31.872988405213892 -16.64616830023962,30.674389222521985 -15.109649197539898,30.632555880439075 -12.103883266094801,30.550720754399727 -12.071250147807012,31.749319937091634"/><polygon points="-16.457413120950708,37.60727873768715 -11.91512808680589,37.48361026956489 -11.84073659257311,40.21597508374831 -16.402586915170453,39.62101965140499"/><polygon points="-11.91512808680589,37.48361026956489 -13.860815265261365,37.53658364111598 -16.457413120950708,37.60727873768715 -16.50530945463282,35.84806878726079 -13.908711598943478,35.77737369068962 -13.954958256750459,34.07875556413374 -12.009271078294983,34.02578219258265 -11.963024420488003,35.72440031913853"/><polygon points="-16.530915356945012,34.90757596298277 -18.310571788375082,34.95602897352801 -21.866263618323377,35.0528364082044 -21.922407224698365,32.990707986366786 -21.981516561617983,30.81964966774361 -18.42582473166969,30.72284223306722 -16.64616830023962,30.674389222521985 -16.58705896332,32.845447541145155"/><polygon points="-17.02993519895473,39.45530839673096 -20.4435828441106,36.34789160586293 -19.198589487634198,34.98020618559357 -16.461092738732788,37.47212809632566"/></g><g fill="#998595" stroke="#26162E" stroke-width="0.3"><polygon points="-5.382459674067194,-35.76628271089366 -6.412915456756086,-36.73366896379977 -7.379219921312466,-37.64083031010654 -6.131503287392752,-38.969892839905036 -4.355318688397928,-40.861877231515784 -3.267355716279345,-40.08430601764492 -5.115000310434265,-38.11620273864826 -4.031013421055434,-37.20583759626204"/><polygon points="-7.379219921312466,-37.64083031010654 -8.469515691254365,-38.664394015762326 -9.229626954510849,-39.377982312423306 -8.305841250717275,-40.00887795175549 -7.618112378603122,-39.36324184801718 -6.579101547377134,-40.21608145564158 -5.719332729090361,-39.408935191376244 -6.631641165269763,-38.437148068256796"/><polygon points="0.6763922257138946,-36.64192512688966 1.5446338886728828,-35.82682460238666 3.1996853786452464,-34.27307131559043 1.599057901609193,-32.067364698937055 0.56815727048527,-30.646756608794323 -1.3563361250830113,-32.45346048290266 -2.3659272805519542,-33.4012591378898 -1.174099198091122,-34.670789416879586"/><polygon points="0.56815727048527,-30.646756608794323 -1.446715832495555,-28.50052222298028 -2.439187600538299,-27.443345454690633 -3.7912788840597207,-28.712681356654034 -5.242074405359837,-30.074680257199986 -4.249602637317093,-31.131857025489634 -2.2347295343362674,-33.27809141130368 -0.7839340130361516,-31.916092510757725"/><polygon points="-5.242074405359837,-30.074680257199986 -3.6563579645454514,-28.586018335338384 -2.439187600538299,-27.443345454690633 -3.4799169967816406,-26.334764863069022 -4.059692658847051,-25.71719025743157 -5.2768630228542035,-26.859863138079323 -6.86257946366859,-28.348525059940926 -6.28280380160318,-28.966099665578376"/><polygon points="5.520863737571254,-38.99585757723796 4.375749627701663,-36.665950801520324 3.1996853786452464,-34.27307131559043 2.0627437804370405,-35.34042586970212 -0.3176544984956493,-37.57513075482778 0.5428450086153235,-39.325946341536316 1.3806990016426504,-41.03068622605207 4.182600824082736,-39.65359365531726"/><polygon points="-13.624501439634749,-34.6965804279298 -15.021507466016265,-36.0080820448376 -15.975638149846842,-36.90381471238116 -14.55632854485867,-38.4156573558882 -13.180795425414045,-39.88086947044299 -12.226664741583466,-38.985136802899426 -10.829658715201946,-37.67363518599163 -12.205191834646573,-36.20842307143684"/><polygon points="-7.931773986436821,-29.352279030159337 -10.119795069689506,-27.021608141349674 -11.623844023440359,-25.4195014986474 -13.146759186304303,-23.79729864905817 -15.298437968161274,-21.505339427400003 -18.17682984872514,-24.308764673379994 -19.99245013746008,-26.077097814159938 -17.864826860133306,-28.343433213198985 -16.03990202328355,-26.585011238079517 -14.527427292040324,-28.196092983657795 -13.033689431539283,-29.787216293039798 -10.860668451418693,-32.10190913485224"/><polygon points="-7.931773986436821,-29.352279030159337 -5.365249881353609,-26.942840237423425 -4.059692658847051,-25.71719025743157 -5.744718801798636,-23.922307471191548 -7.45230789927416,-22.103390720344425 -9.151264893661239,-20.29366884953362 -10.885639140759121,-18.446220669554 -12.373511138574173,-19.477669714891373 -10.59281334469807,-21.37446154277676 -13.426675227157848,-23.49913325535073 -11.593135317313099,-25.452212283726958 -9.750279512145017,-27.41521456476262"/><polygon points="-23.560874039183012,-31.52594262195683 -21.027770284554226,-33.18486085185889 -20.168520529576412,-33.7475796429731 -17.22257122803069,-35.67686856048039 -15.718163174038907,-36.66209861330316 -14.217044241892216,-35.25285636988878 -15.78678846225632,-34.19803050644247 -18.860679802652133,-32.132458265303036 -17.54606013997025,-30.508965222922914 -18.480137439714206,-29.866540444694408 -19.75724661718546,-31.52998949873031 -22.400362604141527,-29.75388669996797"/><polygon points="-23.560874039183012,-31.52594262195683 -24.660130397254722,-33.20446441871555 -26.81754735384054,-36.4987563823104 -23.52768547122346,-37.400649494276585 -21.114018471905666,-38.06233977761855 -19.33883800328129,-35.95634293691137 -16.519472245088203,-37.41436318659645 -15.718163174038907,-36.66209861330316 -18.434340423013737,-34.88328637723275 -20.60382974556862,-33.46249759975467"/></g><g fill="#939E7C" stroke="#213014" stroke-width="0.3"><polygon points="14.610925597208114,-30.81422974709025 11.573567730109056,-32.08132173028812 7.686159852363708,-33.70302834927663 4.7125385503215504,-34.94353140415131 7.121178500857159,-38.38318265924248 8.782528578183161,-40.75566879082452 11.360464399541684,-39.60369670864753 9.8606312054096,-37.1950726658347 13.441911046616823,-35.6418593683548 14.730593613167077,-38.097726414406594 17.36378488150457,-36.92106297576502 16.240081149179595,-34.428283438905474"/><polygon points="23.32196216217747,-22.84778437858098 24.54019212387976,-28.137564534180544 27.30074710586267,-27.50181206601452 26.082517144160384,-22.21203191041495"/><polygon points="26.615629262727737,-24.526903481597344 26.96276981135723,-26.03425204719846 27.30074710586267,-27.50181206601452 29.552992791923224,-26.983122612924628 30.999821092209075,-26.649919808081933 30.914914203397565,-25.124077981408483 29.369101825941513,-25.480076699312434 29.180225200627646,-23.936280143895416"/><polygon points="26.082517144160384,-22.21203191041495 26.615629262727737,-24.526903481597344 30.827705315571002,-23.556867469210218 30.693776521799506,-21.150064461905007"/><polygon points="27.92105947814562,-27.358954878135023 25.847071746208726,-27.836591740335038 24.54019212387976,-28.137564534180544 24.996535391204525,-30.119091532796535 26.280255454206063,-29.717555642332176 26.95243731886833,-32.63629381199256 28.93263976462022,-31.7514238646241 28.3174895011811,-29.080327471866596"/><polygon points="30.999821092209075,-26.649919808081933 27.92105947814562,-27.358954878135023 28.93263976462022,-31.7514238646241 31.21369293691877,-30.493360673408155"/><polygon points="25.704654516400975,-33.19387594462512 25.30835698293408,-31.47307864514239 24.575285022068105,-28.28994439863553 22.47649715948613,-28.773292700879797 20.1166955076356,-29.316752162595936 20.980636404368553,-33.06814357047342 21.44768147594925,-35.09613978554426 23.700773396661702,-34.08932690458142"/><polygon points="20.66529879347959,-31.69888925163877 18.31411653077214,-32.24036367847694 19.2028191774275,-36.0992751913225 21.44768147594925,-35.09613978554426"/><polygon points="18.31411653077214,-32.24036367847694 16.91091304696363,-32.56351974093277 17.913631524870368,-36.67535942589839 19.2028191774275,-36.0992751913225"/><polygon points="20.66529879347959,-31.69888925163877 20.1166955076356,-29.316752162595936 15.115673713410807,-30.468481423480544 16.140103764149153,-32.741036184993085"/><polygon points="17.229303268385124,-24.2509163410677 18.482626128275754,-29.69307636112225 20.60226810631433,-29.204925381351373 19.348945246423696,-23.76276536129682"/><polygon points="20.12370293468355,-27.12690675790837 22.170412704430735,-26.655551977355643 24.096719850437324,-26.21192577519253 23.740381191014272,-24.664637308690615 23.32196216217747,-22.84778437858098 21.39565501617088,-23.291410580744095 19.348945246423696,-23.76276536129682 19.767364275260498,-25.579618291406454"/><polygon points="17.775053330121533,-26.62066420251129 17.229303268385124,-24.2509163410677 12.775291083412462,-25.276669951598564 13.79439318845176,-27.53740541089645"/><polygon points="15.115673713410807,-30.468481423480544 16.976828472012805,-30.039859737209962 18.482626128275754,-29.69307636112225 18.014819979963054,-27.66177540990106 17.775053330121533,-26.62066420251129 15.994787982372,-27.030657155453397 13.79439318845176,-27.53740541089645 14.242119564870807,-28.530623745181472"/><polygon points="16.438248228049467,-20.326568587365045 16.750964773718305,-21.684441755494294 17.13626143534321,-23.35747123166497 18.704538067430708,-22.996299023132988 20.407886368399268,-22.604019972885883 20.02258970677436,-20.930990496715207 19.709873161105524,-19.57311732858596 18.006524860136963,-19.965396378833063"/><polygon points="16.438248228049467,-20.326568587365045 17.77631189068063,-20.018414146814834 19.709873161105524,-19.57311732858596 19.277321668590265,-17.69489862332204 18.900921692546586,-16.06050020394496 16.968623550131767,-16.511281757972252 15.631433997733042,-16.82323174706972 16.006839530408303,-18.453312109132913"/><polygon points="17.13626143534321,-23.35747123166497 16.849139621461717,-22.110735130060817 16.434382274085863,-20.309781899135373 13.97464618097442,-20.87625614161157 12.034260796226192,-21.323124545102257 12.251371299884982,-23.169595604702895 14.278915879855418,-22.702654544138706 14.48955101002159,-23.96700543634519"/><polygon points="16.434382274085863,-20.309781899135373 16.032908135909455,-18.566506823102547 13.832847396979616,-19.073178146085986 14.234321535156027,-20.81645322211881"/><polygon points="18.900921692546586,-16.06050020394496 19.55062132861001,-18.88161637247706 20.407886368399268,-22.604019972885883 22.564395177776362,-22.107378606518864 25.184136882979143,-21.504055265411633 24.591605921051414,-18.93117606975974 24.142541591523415,-16.981255567389645 21.267547867837163,-16.47622736199256"/><polygon points="24.62228515646704,-19.06439099287966 25.184136882979143,-21.504055265411633 30.643511740930762,-20.24676784920766 29.546062967716097,-17.930450927699653"/></g><g fill="#899B95" stroke="#172D2E" stroke-width="0.3"><polygon points="-28.769341897511957,-27.516055768537594 -29.640866169423628,-25.19421075965722 -30.409690309893787,-23.145971197330613 -32.02166439845799,-23.75103938168537 -33.6293650230375,-24.35450348498667 -32.68195708342439,-26.335710099408484 -31.16342984156266,-25.76571798375053 -30.190551639702043,-28.04951893298597"/><polygon points="-30.308668928344474,-18.130451300237848 -31.682550968917848,-18.646149609351347 -30.938227032154987,-20.629117695566848 -29.564344991581613,-20.113419386453348"/><polygon points="-33.6293650230375,-24.35450348498667 -32.01692389466247,-23.749259993266637 -30.04490125558277,-23.009044523179757 -30.95826776987614,-20.57572677077932 -31.682550968917848,-18.646149609351347 -33.86385169727385,-19.464919390206607 -33.04701109553723,-21.35975434331094 -34.75488988869679,-22.000821174227237"/><polygon points="-24.181992093231017,-23.830265591724803 -23.535864942896556,-25.551625681691654 -21.55116214229197,-24.806650605128702 -21.64555227745424,-22.878191333866138"/><polygon points="-20.747009047992414,-20.34322672642564 -22.368600311724798,-20.95190479927607 -21.59498451774218,-23.012909900269523 -19.97927469363428,-22.40643947580515"/><polygon points="-27.795048990659325,-17.18694267770921 -30.308668928344474,-18.130451300237848 -28.39984598723259,-23.215784160716314 -25.886226049547442,-22.27227553818768"/><polygon points="-27.795048990659325,-17.18694267770921 -27.310876084333568,-18.476837270686765 -26.88219581360782,-19.61889283823492 -25.957841750584915,-19.271928678834332 -24.40110407637237,-18.687593952404942 -24.82978434709812,-17.54553838485679 -25.313957253423876,-16.255643791879237 -26.87069492763642,-16.839978518308627"/><polygon points="-25.313957253423876,-16.255643791879237 -24.83080207709672,-17.542827030286645 -24.347101292074477,-18.831463835584064 -22.743461726030674,-18.22952408514438 -21.681814692680284,-17.831025841622928 -22.161838126508883,-16.541008711278256 -22.64132009965052,-15.252446704813721 -23.70589503360713,-15.65204396073019"/><polygon points="-24.347101292074477,-18.831463835584064 -23.965626415480177,-19.84775858121509 -23.40513431231199,-21.340976652357707 -21.65360012131659,-20.68352339656448 -22.211284393321318,-19.189251382113405 -21.303239991434516,-18.848409192737687 -21.681814692680284,-17.831025841622928 -22.59084824023202,-18.17223931523689"/><polygon points="-31.183749275062695,-28.422324112794023 -31.607993648470703,-28.581567846649165 -30.372591149375694,-31.1650247719519 -28.27541218424991,-35.07431945180356 -26.099587104864145,-31.751918999110398"/><polygon points="-23.256835145599272,-27.41114708419974 -21.55116214229197,-24.806650605128702 -23.90308343476161,-25.689464265891345"/><polygon points="-27.407674116982772,-29.794681355989344 -26.85991178449256,-31.25398579389715 -25.218868307359006,-30.407095575918447 -25.690660169448403,-29.150185567181857"/><polygon points="-23.90308343476161,-25.689464265891345 -26.32606386726627,-26.598950579240544 -28.325509006169156,-27.349459317870753 -27.93847323198028,-28.380568960505784 -27.407674116982772,-29.794681355989344 -25.855098438593963,-29.211908870091133 -23.973646221914038,-28.505689778374382 -23.932838593642828,-26.87701993015745"/><polygon points="-29.564965463321567,-3.8895013432024848 -29.043683739414142,-5.2819141437346895 -28.13809167781089,-7.700870958841941 -26.997486385921054,-7.27385916131537 -27.90075072956492,-4.854030911508454 -26.68060924991223,-4.39724291467217 -27.199120673289457,-3.003792988486157 -28.420692560067696,-3.461116491094877"/><polygon points="-28.13809167781089,-7.700870958841941 -27.42411613785532,-9.60799456495859 -25.06964868132525,-8.726545576443971 -25.779829868388376,-6.818001467143114"/><polygon points="-28.850453028626696,-5.798059066559879 -29.17373376643685,-4.9345332285193795 -29.564965463321567,-3.8895013432024848 -30.814641109035907,-4.357346133679923 -31.51892999802755,-4.621012860991021 -31.127698301142832,-5.666044746307915 -30.804417563332677,-6.5295705843484155 -30.100128674341036,-6.265903857037317"/><polygon points="-31.51892999802755,-4.621012860991021 -33.18231650535938,-5.24373981792137 -32.46780407066451,-7.152297541278767 -30.804417563332677,-6.5295705843484155"/><polygon points="-26.915531644691093,-13.011060701031733 -28.485741124763162,-13.598904696975243 -29.861542895562465,-14.113967700247711 -29.215170899934904,-15.840513250072508 -28.809388811553337,-16.924411165875 -27.434032107782492,-16.408159329387978 -27.839642548084164,-15.32471990843132 -26.26974512243314,-14.736042373634634"/><polygon points="-27.267766124277664,-12.0701955686638 -25.85033204567067,-11.539546554421062 -24.246357552766717,-10.939061850140172 -24.71421469359245,-9.681740470211913 -26.31951618312498,-10.28272196616974 -26.675958298472484,-9.327904488137067 -28.095455929021764,-9.859326040461497 -27.738122930157726,-10.813809995780847"/><polygon points="-27.267766124277664,-12.0701955686638 -26.907589669484533,-13.032274772870329 -23.888095220372122,-11.901857650045404 -24.246357552766717,-10.939061850140172"/><polygon points="-23.888095220372122,-11.901857650045404 -25.04615079164953,-12.335402360597726 -26.907589669484533,-13.032274772870329 -26.45296723522093,-14.246631746931772 -25.864330584948295,-15.818958512117923 -24.006907490893788,-15.121758955951865 -22.85135025616421,-14.688010719614766 -23.436311453209193,-13.115983373457336"/><polygon points="-37.02933052231896,-6.683957904030761 -36.30243629078255,-8.625589053186598 -32.45542227382298,-7.185370967077208 -33.18231650535938,-5.24373981792137"/><polygon points="-34.52627836184151,-13.369943061008076 -35.232363567677496,-11.483895586519907 -35.91284204026718,-9.666247101516143 -37.90962133660222,-10.413787309030996 -39.61531354673747,-11.05235237782016 -38.9309106389275,-12.868531660331525 -38.2207533194804,-14.753054645528632 -36.518745040747696,-14.115868741101886"/><polygon points="-37.02933052231896,-6.683957904030761 -37.955884984616624,-7.030834855475069 -40.321086338787815,-7.916302325193303 -39.99222872197371,-9.37755721930808 -39.61531354673747,-11.05235237782016 -36.955003636424095,-10.056404239706158 -35.91284204026718,-9.666247101516143 -36.509098309426065,-8.073567321087367"/><polygon points="-29.69349214381058,-14.562853604254467 -34.14769664841833,-16.23038740020253 -33.26215239668774,-18.5957938493386 -28.809388811553337,-16.924411165875"/><polygon points="-34.50213856260095,-15.28362591650113 -35.133468849489695,-13.597258770846747 -38.2207533194804,-14.753054645528632 -37.440922117818914,-16.383827061785972"/><polygon points="-33.26215239668774,-18.5957938493386 -34.0852486325623,-16.39719435440379 -34.50213856260095,-15.28362591650113 -35.746272111920234,-15.749395895858065 -35.28771776150702,-16.847737470629006 -36.92561613469541,-17.461427934153942 -35.90820989753043,-19.589014037610504 -34.382360417581666,-19.016273457609255"/><polygon points="-40.89315839734384,4.381074158162989 -40.781863024236,1.7948415417852748 -40.699393771889454,-0.12154243996644176 -38.59879781912213,0.3690900950362095 -36.20811128438569,0.9274785815936575 -36.0481308789898,2.364701662432503 -35.83223127517555,4.304288532324141 -38.526136714860954,4.345161125456503"/><polygon points="-34.58929539836416,-5.109276917749881 -35.88927403117552,-1.6368611284973889 -38.039231602796974,-2.4417471427844517 -36.73925296998561,-5.9141629320369375"/><polygon points="-39.00209220484243,-6.761308790521334 -36.73925296998561,-5.9141629320369375 -38.039231602796974,-2.4417471427844517 -40.30207083765379,-3.288893001268849"/><polygon points="-40.30207083765379,-3.288893001268849 -37.995491349683356,-2.425371974056832 -38.721081502105534,-0.4872241936213424 -40.66412692037435,-0.9410579249177455"/><polygon points="-38.721081502105534,-0.4872241936213424 -37.995491349683356,-2.425371974056832 -35.88927403117552,-1.6368611284973889 -36.512765787041204,0.028568258487709386"/><polygon points="-40.59699151997377,-2.5011206425414443 -40.39127876027744,-7.281382695450528 -39.00209220484243,-6.761308790521334"/><polygon points="-36.512765787041204,0.028568258487709386 -36.00364509483957,-1.3313608092792337 -35.23461614157504,-3.385539402917382 -33.39142495565677,-2.6954984333721423 -32.22956826855327,-2.2605306877760185 -32.910952024271964,-0.44046407115718744 -33.36204891456956,0.7644757061717309 -34.580226335407104,0.47994812947087456"/><polygon points="-32.22956826855327,-2.2605306877760185 -35.23461614157504,-3.385539402917382 -34.58929539836416,-5.109276917749881 -31.58424752534239,-3.9842682026085177"/><polygon points="-31.58424752534239,-3.9842682026085177 -29.431573362615843,-3.1783651700249624 -27.415072937384416,-2.423441904795774 -28.608360868361505,-0.8050164208928468 -30.29393855437109,1.4810888947808847 -31.77788836637151,1.1344853239612276 -33.36204891456956,0.7644757061717309 -32.32114504807553,-2.015916932506605"/></g><g fill-rule="nonzero" fill="#99948A" stroke="#1A1917" stroke-width="0.6"><path d="M 46.18606778196306,-26.12743251903085 L 50.02672879323231,-21.583267970625815 L 53.35365677022751,-17.646938228480124 L 55.813398144825534,-14.736639839766166 L 52.93308750066279,-12.302243665608604 L 49.07719944359665,-9.043303817184638 L 46.1004722374129,-6.52741778352701 L 43.64073086281488,-9.437716172240968 L 46.61745806899862,-11.953602205898596 L 43.29053009200342,-15.889931948044286 L 47.14641814906957,-19.148871796468253 L 43.30575713780032,-23.69303634487329 Z"/></g><g fill-rule="nonzero" stroke="#99948A" stroke-width="0.3" stroke-linecap="butt"><line x1="12.111206855643017" y1="-45.56619690723467" x2="22.752515219732484" y2="-41.14415741990625"/><line x1="11.593272931352104" y1="-47.39483673214893" x2="24.06070758137779" y2="-42.21394295087775"/><line x1="11.633862447805344" y1="-48.99137984253663" x2="24.88066811749657" y2="-43.48661522637161"/><line x1="12.205592403078985" y1="-50.367205357547924" x2="25.35676390915463" y2="-44.902181911676664"/><line x1="12.777322358352622" y1="-51.74303087255921" x2="25.83285970081269" y2="-46.317748596981716"/><line x1="13.349052313626261" y1="-53.118856387570496" x2="26.308955492470755" y2="-47.73331528228676"/><line x1="13.920782268899899" y1="-54.49468190258178" x2="26.78505128412882" y2="-49.14888196759181"/><line x1="14.49251222417354" y1="-55.870507417593075" x2="27.26114707578688" y2="-50.56444865289686"/><line x1="15.064242179447177" y1="-57.24633293260436" x2="27.737242867444944" y2="-51.9800153382019"/><line x1="15.635972134720816" y1="-58.62215844761565" x2="28.21333865910301" y2="-53.39558202350696"/><line x1="16.207702089994456" y1="-59.99798396262694" x2="28.68943445076107" y2="-54.811148708812006"/><line x1="16.779432045268095" y1="-61.373809477638225" x2="29.165530242419134" y2="-56.22671539411705"/><line x1="17.351162000541734" y1="-62.74963499264951" x2="29.6416260340772" y2="-57.6422820794221"/><line x1="17.922891955815373" y1="-64.1254605076608" x2="30.11772182573526" y2="-59.057848764727154"/><line x1="18.494621911089013" y1="-65.50128602267209" x2="30.593817617393324" y2="-60.4734154500322"/><line x1="19.37069569652146" y1="-66.75064020646731" x2="30.734738505712727" y2="-62.02826544590522"/><line x1="20.678888058166766" y1="-67.82042573743881" x2="30.487308758503026" y2="-63.744496146714305"/><line x1="26.429436656152397" y1="-40.87657445355035" x2="33.119348782640486" y2="-60.767564669813915"/><line x1="35.218075088029735" y1="-62.05138705994583" x2="27.379012944539895" y2="-38.74365065733132"/><line x1="36.67903429330661" y1="-61.43894849646044" x2="28.828158825065305" y2="-38.09608775699219"/><line x1="38.13999349858347" y1="-60.82650993297506" x2="30.277304705590716" y2="-37.44852485665305"/><line x1="39.60095270386034" y1="-60.21407136948967" x2="31.72645058611613" y2="-36.80096195631392"/><line x1="41.06191190913721" y1="-59.60163280600429" x2="33.29138460674741" y2="-36.49766976065057"/><line x1="42.522871114414066" y1="-58.989194242518906" x2="35.0989326859185" y2="-36.91573739356196"/><line x1="43.98383031969094" y1="-58.376755679033515" x2="37.053360276596486" y2="-37.77051912243067"/><line x1="45.4447895249678" y1="-57.76431711554813" x2="39.00778786727447" y2="-38.62530085129937"/><line x1="46.90574873024466" y1="-57.15187855206275" x2="40.96221545795246" y2="-39.48008258016809"/><line x1="48.36136175777411" y1="-56.52354429858056" x2="43.24999594248391" y2="-41.326016214298576"/></g><g fill="#A09E7C" stroke="#2E3014" stroke-width="0.3"><polygon points="-53.6742895824484,16.986674393307517 -55.15640151638606,15.275670176386775 -52.804904236759974,13.238748147621726 -52.025936681935974,15.558832497285241"/><polygon points="-54.713758465903666,14.892242396895266 -55.15640151638606,15.275670176386775 -57.343157692588804,12.751198877569376 -55.626165898811536,12.174719449377239"/><polygon points="-55.626165898811536,12.174719449377239 -53.41177502342581,11.431238443665546 -52.804904236759974,13.238748147621726 -55.019295112145706,13.982229153333424"/><polygon points="-52.8666616892542,13.05480916567104 -53.41177502342581,11.431238443665546 -50.143608254130946,10.333952529296145 -49.59849491995933,11.957523251301643"/><polygon points="-52.8666616892542,13.05480916567104 -50.93322732238149,12.405659214983281 -50.35927321750409,14.115129561860622 -52.025936681935974,15.558832497285241"/><polygon points="-50.93322732238149,12.405659214983281 -49.59849491995933,11.957523251301643 -49.20870417413462,13.118479703763793 -50.35927321750409,14.115129561860622"/><polygon points="-48.06527744947741,9.636153647436029 -47.41713675479568,11.566582036652937 -49.20870417413462,13.118479703763793 -50.143608254130946,10.333952529296145"/><polygon points="-47.65846685486286,10.84780217887683 -48.06527744947741,9.636153647436029 -46.881160965609155,9.238586928709001 -46.72325156458061,10.965522430235847"/><polygon points="-54.97833601678398,15.48123550092864 -53.6742895824484,16.986674393307517 -56.281668671552865,19.245247239618763 -57.58571510588844,17.739808347239887"/><polygon points="-61.14936758486982,17.62454817117847 -59.17043467347431,15.910350125705659 -56.281668671552865,19.245247239618763 -58.260601582948375,20.959445285091576"/><polygon points="-59.94880092036683,19.010526233038874 -58.260601582948375,20.959445285091576 -60.13438992319453,22.58256463996381 -61.822589260612986,20.63364558791111"/><polygon points="-63.58914698781153,20.900866189635295 -62.44763903996743,19.912065264743823 -60.13438992319453,22.58256463996381 -61.27589787103864,23.57136556485528"/><polygon points="-64.26448133849678,23.689217102036373 -62.49873074613027,22.1596825752228 -61.27589787103864,23.57136556485528 -63.04164846340515,25.10090009166886"/><polygon points="-61.3382678136722,4.205369950661996 -57.65101039198742,3.445987770324229 -56.78915054062832,11.760425340303225 -57.24174799803453,11.912384787280406"/><polygon points="-48.116395878851016,6.0446499311488395 -47.86198728264686,0.13281558424784112 -44.609780900338976,0.035951991550334295 -44.8743618471877,6.184166920029619"/><polygon points="-51.641054135439354,2.9032606568487425 -47.98797517519962,3.0604664639743713 -48.116395878851016,6.0446499311488395 -52.09173584827393,5.873576013696239"/><polygon points="-47.86198728264686,0.13281558424784112 -47.98797517519962,3.0604664639743713 -51.641054135439354,2.9032606568487425 -51.235945637228596,0.2333054331130402"/><polygon points="-44.8743618471877,6.184166920029619 -44.91941702674333,7.231139239270818 -45.233068108769594,7.88047447705332 -50.98749003130547,9.812519738715247 -52.149174189571745,6.252135831789811 -52.09173584827393,5.873576013696239"/><polygon points="-53.51043640986719,9.051797190140224 -56.36227687886595,9.347413914906536 -56.66570703854042,6.420196554121328 -53.79209531714031,6.3346090105795945"/><polygon points="-53.51043640986719,9.051797190140224 -53.79209531714031,6.3346090105795945 -52.78431548720614,6.304593333989528 -52.51029178996474,8.94812397277684"/><polygon points="-50.417168655462376,-2.440940200980495 -47.79540119578516,-2.5190268244934626 -47.73874017571321,-0.6166264904324875 -50.08358154937937,-0.5467878230604981"/><polygon points="-47.79233350789889,-9.569237440261661 -47.37890300437107,-7.570348849196794 -47.03232197492494,-5.894669721198525 -49.507275959870846,-5.208569944081956 -50.839543702784944,-4.839242430506817 -51.15722896712703,-6.643102015936886 -49.835072769719524,-6.967575118365252 -50.226095903233585,-9.065861905943228"/><polygon points="-47.03232197492494,-5.894669721198525 -47.79233350789889,-9.569237440261661 -44.99545311510869,-10.147716738341169 -44.322233255991335,-6.645952887405397"/></g><g fill="#A09E7C" stroke="#2E3014" stroke-width="0.3"><polygon points="-55.79805071982986,24.750561818013452 -57.42040439908127,22.8776574017045 -55.698910433956726,21.386459002144427 -53.946723704046015,23.14689898855969"/><polygon points="-49.54925309722174,18.97896763770451 -50.99407107089642,17.31101693234014 -48.800156612724116,15.410596834985018 -47.44446289906713,17.155749062162887"/><polygon points="-50.99407107089642,17.31101693234014 -49.53221889530934,18.998632543327762 -47.819452473160545,20.975912736404 -49.333403909880666,22.287332936059123 -51.573944995670466,24.228142110511627 -53.42377998215168,22.369593918768725 -51.10144149015698,20.35792991491106 -52.61046779393286,18.7111776388412"/><polygon points="-43.89668700828235,16.90340918164516 -41.91556949218973,19.45365457312368 -43.62997772904128,20.78546530753734 -45.611095245133896,18.23521991605882"/><polygon points="-41.90554780390735,17.262667403882404 -40.20314782389569,15.94018509254627 -39.144746429202954,17.301184805932362 -40.8478514067328,18.624214783362405"/><polygon points="-42.82896892282542,16.07396939188389 -41.12718444041667,14.751965220057913 -40.20314782389569,15.94018509254627 -41.90554780390735,17.262667403882404"/><polygon points="-42.035201108007676,22.838383266816287 -43.62997772904128,20.78546530753734 -39.144746429202954,17.301184805932362 -38.18846069084428,20.362694504044644"/><polygon points="-45.611095245133896,18.23521991605882 -47.278528605626995,16.08877266663868 -48.20550609367776,14.895496625362544 -45.61716267201571,13.019000879921357 -43.60774242061496,11.562212526026803 -42.721444320705665,12.701904391513597 -41.12718444041667,14.751965220057913 -43.08684609707406,16.274297167638938"/></g><g fill="#A38592" stroke="#30162B" stroke-width="0.3"><polygon points="-37.50667061507349,-61.79943640229853 -36.293609405123924,-59.569849562172536 -40.607716656603856,-57.22265407817125 -42.02115872014628,-59.343218817728896"/><polygon points="-36.293609405123924,-59.569849562172536 -34.91845634643396,-57.042340531575775 -39.0054074235502,-54.818734915778755 -40.607716656603856,-57.22265407817125"/><polygon points="-38.79153182503058,-64.16099047855806 -37.50667061507349,-61.79943640229853 -42.02115872014628,-59.343218817728896 -43.51826114587044,-61.58929787352005"/><polygon points="-35.23499834812684,-56.87011811948452 -30.349556056073453,-47.890754379867396 -33.312957959368205,-46.2784431508621 -39.0054074235502,-54.818734915778755"/><polygon points="-20.672266275732177,-46.29171651879641 -19.135067206064928,-47.12806724074386 -15.783538413759766,-48.951548389271245 -14.723647275935475,-47.00348565881969 -13.654237296012763,-45.037927450891985 -17.146303624413164,-43.47275201558966 -18.74796108997274,-42.754874780419634 -19.714414896302202,-44.53120121020584"/><polygon points="-26.559832001425924,-49.95264637006497 -23.553893512224057,-51.58810066819812 -18.74796108997274,-42.754874780419634 -22.138060598981042,-41.8255022094282"/><polygon points="-33.312957959368205,-46.2784431508621 -29.230050471316538,-48.49984875320599 -26.559832001425924,-49.95264637006497 -25.612362722817657,-48.21121319449051 -24.222389225443003,-45.65646443783108 -26.73993673418769,-44.286731188557525 -30.589402120965786,-42.19233546657698 -32.20897992321057,-44.62216238979948"/><polygon points="-30.589402120965786,-42.19233546657698 -24.222389225443003,-45.65646443783108 -22.138060598981042,-41.8255022094282 -27.9550208816823,-40.23082237217748"/></g><g fill="#A38592" stroke="#30162B" stroke-width="0.3"><polygon points="-40.820068506012426,-25.74590989024085 -38.17778952137131,-27.958346903975478 -37.166508419388435,-26.75058967213298 -39.303146853038115,-23.934274042477092"/><polygon points="-39.37022615863709,-31.759205134489235 -31.47713834834114,-38.36825729198818 -31.43271075779743,-37.438807066331 -36.389375641359855,-28.19922189914146"/><polygon points="-35.79710490195534,-34.75105639955103 -37.82662896296512,-37.17488530041429 -32.577958073814955,-41.569710303968776 -31.47713834834114,-38.36825729198818"/><polygon points="-32.577958073814955,-41.569710303968776 -35.139900074628216,-39.42454117436965 -38.95610733204537,-43.98217792276554 -35.89461206166649,-46.54563374742735"/><polygon points="-41.64283622038227,-41.732522048810175 -44.10927394363419,-44.67815011533477 -36.44731341487929,-47.37484283307706 -35.89461206166649,-46.54563374742735"/><polygon points="-43.18239236425826,-28.567196393228247 -44.262374107450775,-29.857001728303835 -45.88472768402482,-31.794553276405484 -43.762923885367144,-33.57118522455331 -42.20504126671234,-34.875633842053816 -40.5826876901383,-32.938082293952164 -42.1405703087931,-31.633633676451662 -41.06058856560059,-30.343828341376074"/><polygon points="-47.226530197843964,-46.18410700986963 -49.598254537079576,-49.01662036054155 -53.619806006627606,-53.819496495624065 -49.88654207688403,-56.94543866456843 -46.12445484331756,-52.45243661572838 -42.585519944261904,-55.95267587076022 -40.52270471294704,-53.48908784494779 -43.9057504637414,-49.80267261390969"/></g><g fill-rule="nonzero" stroke="#99948A" stroke-width="0.3" stroke-linecap="butt"><line x1="-18.310070991177803" y1="-79.80705931879915" x2="-5.790025700981775" y2="-76.58746516901428"/><line x1="-20.390790437539295" y1="-78.75613275475601" x2="-5.442045189810829" y2="-74.9119858982028"/><line x1="-21.401602575760094" y1="-77.4300740142503" x2="-5.2172962121519175" y2="-73.26819625112417"/><line x1="-22.412414713980905" y1="-76.10401527374457" x2="-5.599845312461521" y2="-71.78057643360151"/><line x1="-23.423226852201708" y1="-74.77795653323885" x2="-5.982394412771127" y2="-70.29295661607884"/><line x1="-24.43403899042251" y1="-73.45189779273313" x2="-6.364943513080729" y2="-68.80533679855618"/><line x1="-25.44485112864332" y1="-72.12583905222742" x2="-6.747492613390335" y2="-67.31771698103351"/><line x1="-25.325037598728123" y1="-70.50903409616465" x2="-7.130041713699938" y2="-65.83009716351086"/><line x1="-25.01690297129682" y1="-68.84380139964327" x2="-7.512590814009541" y2="-64.3424773459882"/><line x1="-24.141001483979327" y1="-67.03256452996104" x2="-7.895139914319145" y2="-62.85485752846554"/><line x1="-23.137733797979955" y1="-65.1885747860957" x2="-8.277689014628749" y2="-61.367237710942874"/><line x1="-22.13446611198058" y1="-63.34458504223038" x2="-8.660238114938355" y2="-59.87961789342021"/><line x1="-21.131198425981196" y1="-61.500595298365035" x2="-9.042787215247959" y2="-58.39199807589755"/><line x1="-20.12793073998182" y1="-59.6566055544997" x2="-9.425336315557562" y2="-56.904378258374884"/><line x1="-19.124663053982445" y1="-57.81261581063437" x2="-9.807885415867165" y2="-55.41675844085222"/><line x1="-18.12139536798307" y1="-55.96862606676903" x2="-10.190434516176772" y2="-53.92913862332956"/><line x1="-17.118127681983694" y1="-54.1246363229037" x2="-10.572983616486376" y2="-52.44151880580689"/><line x1="-16.114859995984318" y1="-52.280646579038375" x2="-10.955532716795979" y2="-50.95389898828424"/><line x1="-15.111592309984939" y1="-50.43665683517303" x2="-11.338081817105584" y2="-49.46627917076157"/><line x1="-14.09964108677115" y1="-48.59043407497534" x2="-11.753982580378176" y2="-47.98723590519798"/><line x1="-9.103546529041681" y1="-48.9207116999043" x2="-2.8018102630654442" y2="-73.42629215083326"/><line x1="-8.186279244457138" y1="-46.516619358423085" x2="-0.821027810770991" y2="-75.15789438670375"/><line x1="0.7305448877133277" y1="-75.22042738381447" x2="-6.6429638519413885" y2="-46.54704214539804"/><line x1="2.1707949364290253" y1="-74.85005966360315" x2="-5.095762638421225" y2="-46.59257573600274"/><line x1="3.611044985144723" y1="-74.47969194339183" x2="-3.5485614249010595" y2="-46.63810932660745"/><line x1="5.051295033860421" y1="-74.10932422318051" x2="-2.0013602113808924" y2="-46.68364291721216"/><line x1="6.491545082576121" y1="-73.73895650296917" x2="-0.4541589978607288" y2="-46.72917650781687"/><line x1="7.931795131291819" y1="-73.36858878275785" x2="1.0930422156594375" y2="-46.77471009842157"/><line x1="9.372045180007518" y1="-72.99822106254653" x2="2.6402434291796046" y2="-46.820243689026285"/><line x1="10.812295228723213" y1="-72.62785334233521" x2="4.187444642699767" y2="-46.86577727963099"/><line x1="12.252545277438916" y1="-72.25748562212388" x2="5.734645856219933" y2="-46.911310870235695"/><line x1="13.692795326154613" y1="-71.88711790191256" x2="7.4159544176795285" y2="-47.478348101310715"/><line x1="15.13304537487031" y1="-71.51675018170124" x2="9.368788546050034" y2="-49.10126760729852"/><line x1="16.565646066739255" y1="-71.11663638490178" x2="13.16181500885483" y2="-57.88014848541405"/><line x1="17.94217212166895" y1="-70.4984649816311" x2="17.190124361458512" y2="-67.57397463279186"/><path d="M -15.743386160665164,-77.03159272902518 L -16.00459240598641,-76.01583923049103 L -16.370695689631177,-74.5921723088611 L -17.689813174104263,-74.93139016610112 L -17.93886977928041,-73.96288300912416 L -19.65894552024343,-74.40520934776193 L -19.409888915067285,-75.3737165047389 L -19.043785631422516,-76.79738342636882 L -17.323709890459497,-76.35505708773105 L -17.06250364513825,-77.37081058626521 Z" fill="#99948A" stroke="#1A1917" stroke-width="0.3"/></g><g fill-rule="nonzero" stroke="#99948A" stroke-width="0.3" stroke-linecap="butt"><line x1="27.208173269784897" y1="-67.57778517083342" x2="29.05289707375881" y2="-67.14638175238696"/><line x1="20.137918394648622" y1="-70.62283274388668" x2="29.876994054817573" y2="-68.34527199291966"/><line x1="19.79274964540517" y1="-72.09516512900387" x2="30.70109103587634" y2="-69.54416223345237"/><line x1="20.07744336427756" y1="-73.42019913736083" x2="31.240410876814764" y2="-70.80964988627989"/><line x1="20.362137083149953" y1="-74.74523314571779" x2="31.65404112577655" y2="-72.10453105564635"/><line x1="20.66744446363902" y1="-76.0654464844065" x2="32.06767137473834" y2="-73.39941222501278"/><line x1="20.976008792846468" y1="-77.3848981595834" x2="32.481301623700126" y2="-74.69429339437924"/><line x1="21.284573122053917" y1="-78.70434983476032" x2="32.894931872661914" y2="-75.98917456374569"/><line x1="21.593137451261367" y1="-80.02380150993723" x2="33.308562121623694" y2="-77.28405573311213"/><line x1="21.90170178046882" y1="-81.34325318511415" x2="33.72219237058549" y2="-78.57893690247859"/><line x1="22.210266109676265" y1="-82.66270486029106" x2="34.13582261954727" y2="-79.87381807184504"/><line x1="22.518830438883715" y1="-83.98215653546796" x2="34.54945286850906" y2="-81.16869924121148"/><line x1="22.827394768091168" y1="-85.30160821064489" x2="34.963083117470845" y2="-82.46358041057793"/><line x1="23.135959097298617" y1="-86.62105988582181" x2="35.376713366432625" y2="-83.75846157994438"/><line x1="23.444523426506066" y1="-87.94051156099871" x2="35.79034361539442" y2="-85.05334274931083"/><line x1="23.753087755713516" y1="-89.25996323617562" x2="36.20397386435621" y2="-86.34822391867729"/><line x1="24.061652084920965" y1="-90.57941491135254" x2="36.61760411331799" y2="-87.64310508804374"/><line x1="24.370216414128418" y1="-91.89886658652946" x2="37.031234362279775" y2="-88.93798625741019"/><line x1="24.678780743335867" y1="-93.21831826170637" x2="37.44486461124156" y2="-90.23286742677664"/><line x1="24.987345072543317" y1="-94.5377699368833" x2="37.85849486020335" y2="-91.52774859614308"/><line x1="25.295909401750766" y1="-95.8572216120602" x2="38.27212510916514" y2="-92.82262976550953"/><line x1="25.60447373095822" y1="-97.17667328723712" x2="38.685755358126926" y2="-94.117510934876"/><line x1="25.91303806016567" y1="-98.49612496241403" x2="39.09938560708871" y2="-95.41239210424244"/><line x1="26.221602389373118" y1="-99.81557663759095" x2="39.5130158560505" y2="-96.70727327360889"/><line x1="26.71247764076704" y1="-101.09239344521644" x2="39.70784495084389" y2="-98.05332284317971"/><line x1="27.57653406255796" y1="-102.28193885087798" x2="39.606908708796624" y2="-99.4685395027486"/><line x1="28.440590484348874" y1="-103.4714842565395" x2="39.505972466749355" y2="-100.8837561623175"/><line x1="47.80631408852915" y1="-59.31809744571301" x2="44.04643815657561" y2="-60.51913307322182"/><line x1="50.03548921230487" y1="-60.32236951820174" x2="32.8168831895398" y2="-65.82259337229941"/><line x1="50.90058429855432" y1="-61.76237637383034" x2="32.34349682954194" y2="-67.69015792738308"/><line x1="51.76567938480376" y1="-63.20238322945894" x2="32.84099444296929" y2="-69.24758824842165"/><line x1="52.630774471053215" y1="-64.64239008508754" x2="33.33849205639664" y2="-70.80501856946023"/><line x1="53.49586955730266" y1="-66.08239694071615" x2="33.83598966982398" y2="-72.3624488904988"/><line x1="54.36096464355211" y1="-67.52240379634473" x2="34.33348728325133" y2="-73.91987921153738"/><line x1="55.226059729801555" y1="-68.96241065197334" x2="34.83098489667868" y2="-75.47730953257596"/><line x1="36.899564799590635" y1="-76.5328813248841" x2="54.45955396548884" y2="-70.92360777740444"/><line x1="63.24764068832921" y1="-83.42443480434792" x2="62.490744160562826" y2="-81.0549488602624"/><line x1="62.77756775583462" y1="-86.16475862698606" x2="59.61761620943274" y2="-76.2724411192203"/><line x1="62.06803397819914" y1="-88.15544351496749" x2="57.36247876778719" y2="-73.42457011131673"/><line x1="61.35850020056366" y1="-90.14612840294892" x2="55.95165939554249" y2="-73.21986065111709"/><line x1="60.64896642292818" y1="-92.13681329093033" x2="54.626923741234286" y2="-73.28463869968836"/><line x1="59.93943264529271" y1="-94.12749817891176" x2="53.40606999842915" y2="-73.67462200435676"/><line x1="59.12224555852323" y1="-95.78117134406226" x2="52.18521625562402" y2="-74.06460530902517"/><line x1="58.05582567049971" y1="-96.65461419012374" x2="50.964362512818894" y2="-74.45458861369357"/><line x1="56.92627804048702" y1="-97.33043385806523" x2="49.74350877001377" y2="-74.84457191836198"/><line x1="55.66982159767581" y1="-97.60896190545452" x2="48.522655027208636" y2="-75.23455522303038"/><line x1="54.413365154864614" y1="-97.8874899528438" x2="47.30180128440351" y2="-75.62453852769877"/><line x1="53.156908712053415" y1="-98.16601800023307" x2="46.08094754159838" y2="-76.01452183236718"/><line x1="51.90045226924222" y1="-98.44454604762234" x2="44.86009379879325" y2="-76.40450513703558"/><line x1="50.643995826431016" y1="-98.72307409501163" x2="43.63924005598812" y2="-76.79448844170399"/><line x1="49.38753938361981" y1="-99.00160214240091" x2="42.418386313182985" y2="-77.1844717463724"/><line x1="48.13108294080861" y1="-99.28013018979019" x2="41.19753257037787" y2="-77.57445505104079"/><line x1="46.87462649799742" y1="-99.55865823717946" x2="39.976678827572734" y2="-77.96443835570919"/><line x1="45.61817005518621" y1="-99.83718628456873" x2="38.7558250847676" y2="-78.3544216603776"/><line x1="44.33476307977666" y1="-100.031344928962" x2="37.73302341770496" y2="-79.36441257831072"/><line x1="42.55051954099084" y1="-98.65762057525748" x2="36.90130941828613" y2="-80.97260883338056"/></g><g><path fill="none" stroke="#1A1917" stroke-width="1.9" stroke-linejoin="round" stroke-linecap="round" d="M 23.522057808927112,7.2320919956216 M 7.8008720735755235,11.024592911590695 M 5.4054125244487405,23.130492072341887 M 8.231240150722979,36.30087630131969 M -17.109142034096582,42.020131888185546 L -27.62184231353994,32.45050292777955 L -35.40788495365361,18.92992896501613 L -41.633183497168915,10.924809568960507 M -42.938357219357485,6.5513237143963785 L -42.18150488604286,-11.036075793248004 L -37.72576524782825,-21.583132804273124 L -30.115774467683433,-35.76871112889455 M -26.610358060706066,-38.5775041936169 L -11.979946456106086,-42.58833137184551 L 8.136155514508502,-43.18034121755169 L 33.24825487205001,-31.95879057029863 M 32.439419161098954,-17.42339331394551 M 37.80631741299146,-0.05578040202242544 M 23.522057808927112,7.2320919956216"/><g stroke="#1A1917" stroke-width="3.8" stroke-linecap="butt"><line x1="-42.79956495932778" y1="9.424958148075042" x2="-43.020045802168546" y2="8.44956684303884" stroke="#CCC5B8" stroke-width="3.8" stroke-linecap="butt"/><line x1="-41.96173775653288" y1="13.131445107212611" x2="-42.79956495932778" y2="9.424958148075042"/><line x1="-43.020045802168546" y1="8.44956684303884" x2="-43.85787300496345" y2="4.74307988390127"/></g><g stroke="#1A1917" stroke-width="3.8" stroke-linecap="butt"><line x1="-29.217584226172974" y1="-37.44300330472749" x2="-28.442749139833584" y2="-38.07516672424608" stroke="#CCC5B8" stroke-width="3.8" stroke-linecap="butt"/><line x1="-32.16195755426264" y1="-35.04078231055686" x2="-29.217584226172974" y2="-37.44300330472749"/><line x1="-28.442749139833584" y1="-38.07516672424608" x2="-25.498375811743912" y2="-40.477387718416715"/></g><polygon points="-15.891437792271274,40.09254365948092 -15.181553805391951,43.237836130010855 -18.326846275921888,43.947720116890174 -19.03673026280121,40.802427646360236" stroke="none" fill="#1A1917"/><polygon points="-25.725245804696115,32.99396718105786 -28.237710532775356,35.01493749013162 -30.25868084184912,32.502472762052385 -27.74621611376988,30.48150245297862" stroke="none" fill="#1A1917"/><polygon points="-34.353228371237606,20.16360016473525 -37.02941374906443,21.962163987207468 -38.82797757153665,19.285978609380642 -36.151792193709824,17.487414786908424" stroke="none" fill="#1A1917"/><polygon points="-41.42602576511593,-9.213527300122674 -44.571753912490834,-9.921478161986144 -43.86380305062736,-13.067206309361051 -40.71807490325246,-12.359255447497581" stroke="none" fill="#1A1917"/><polygon points="-37.3953487308459,-19.638073258332387 -40.3042683686823,-21.029111194770405 -38.91323043224428,-23.938030832606803 -36.004310794407886,-22.54699289616879" stroke="none" fill="#1A1917"/><polygon points="-13.406157896405508,-41.225117287591324 -13.883209403291687,-44.414039026953645 -10.694287663929364,-44.89109053383982 -10.217236157043185,-41.7021687944775" stroke="none" fill="#1A1917"/><polygon points="6.333827079109819,-42.37781774568107 6.959901514893584,-45.54085913030727 10.122942899519787,-44.914784694523505 9.496868463736021,-41.75174330989731" stroke="none" fill="#1A1917"/></g><g><path fill="none" stroke="#1A1917" stroke-width="1.9" stroke-linejoin="round" stroke-linecap="round" d="M 37.80631741299146,-0.05578040202242544 L 33.166913961289296,-15.069175385426492 M 32.57008121334993,-19.771490473954902 L 33.24825487205001,-31.95879057029863 L 42.91975504068003,-36.188684619239964 L 60.93673970294384,-14.871483561612742 L 51.65287947158331,-2.635442690693946 L 37.80631741299146,-0.05578040202242544"/><g stroke="#1A1917" stroke-width="3.8" stroke-linecap="butt"><line x1="32.6059535025935" y1="-16.884477939762768" x2="32.46451725615842" y2="-17.874425306138555" stroke="#CCC5B8" stroke-width="3.8" stroke-linecap="butt"/><line x1="33.14341123904679" y1="-13.122677947534779" x2="32.6059535025935" y2="-16.884477939762768"/><line x1="32.46451725615842" y1="-17.874425306138555" x2="31.92705951970513" y2="-21.636225298366544"/></g><polygon points="40.31819011348354,-0.11122410324448273 38.12436286178447,3.5201836113618676 34.49295514717812,1.3263563596628 36.68678239887719,-2.30505135494355" stroke="none" fill="#1A1917"/><polygon points="33.143939664139126,-29.4484725018298 29.659306702189735,-31.868665287641672 32.0794994880016,-35.35329824959106 35.564132449950996,-32.93310546377919" stroke="none" fill="#1A1917"/><polygon points="40.548686730053355,-35.35765301104175 41.50933180020588,-39.49010519457535 45.64178398373948,-38.529460124422826 44.681138913586956,-34.397007940889225" stroke="none" fill="#1A1917"/><polygon points="59.535072690166885,-16.956647356803778 63.77624466902127,-17.068272827823556 63.887870140041045,-12.827100848969172 59.64669816118666,-12.715475377949396" stroke="none" fill="#1A1917"/><polygon points="52.750965324673224,-4.895262578810332 54.97924078601677,-1.2848902339718917 51.36886844117833,0.943385227371653 49.140592979834786,-2.666987117466787" stroke="none" fill="#1A1917"/><polygon points="49.88580241789317,-26.581342459327093 53.12612319489513,-29.320013900396543 55.86479463596458,-26.07969312339458 52.62447385896262,-23.341021682325135" stroke="none" fill="#1A1917"/></g><g id="labels" style="font: bold italic 2px &quot;Archivo Narrow&quot;, sans-serif" fill="#1A1917"><text text-anchor="middle" stroke="#CCC5B8" stroke-width="1.0303437876256833" x="-1.5902292557185316" y="0.23303062401107286">Market</text><text text-anchor="middle" x="-1.5902292557185316" y="0.23303062401107286">Market</text><text text-anchor="middle" stroke="#CCC5B8" stroke-width="1.0303437876256833" x="13.484184862947897" y="-0.9825333820952526">Docks</text><text text-anchor="middle" x="13.484184862947897" y="-0.9825333820952526">Docks</text><text text-anchor="middle" stroke="#CCC5B8" stroke-width="1.0303437876256833" x="-4.923387985257066" y="15.183837253415348">Docks</text><text text-anchor="middle" x="-4.923387985257066" y="15.183837253415348">Docks</text><text text-anchor="middle" stroke="#CCC5B8" stroke-width="1.0303437876256833" x="-16.714096177962702" y="-7.559800712137012">Merchant</text><text text-anchor="middle" x="-16.714096177962702" y="-7.559800712137012">Merchant</text><text text-anchor="middle" stroke="#CCC5B8" stroke-width="1.0303437876256833" x="-26.718992691109975" y="14.429377038838567">Gate</text><text text-anchor="middle" x="-26.718992691109975" y="14.429377038838567">Gate</text><text text-anchor="middle" stroke="#CCC5B8" stroke-width="1.0303437876256833" x="-8.954592232359822" y="31.332318795858978">Craftsmen</text><text text-anchor="middle" x="-8.954592232359822" y="31.332318795858978">Craftsmen</text><text text-anchor="middle" stroke="#CCC5B8" stroke-width="1.0303437876256833" x="-10.505879356900516" y="-32.941980069592134">Gate</text><text text-anchor="middle" x="-10.505879356900516" y="-32.941980069592134">Gate</text><text text-anchor="middle" stroke="#CCC5B8" stroke-width="1.0303437876256833" x="10.541539257845551" y="-23.344366239074052">Craftsmen</text><text text-anchor="middle" x="10.541539257845551" y="-23.344366239074052">Craftsmen</text><text text-anchor="middle" stroke="#CCC5B8" stroke-width="1.0303437876256833" x="-31.939899920619983" y="-13.42875744420539">Gate</text><text text-anchor="middle" x="-31.939899920619983" y="-13.42875744420539">Gate</text><text text-anchor="middle" stroke="#CCC5B8" stroke-width="1.0303437876256833" x="44.37385278433771" y="-17.181001102130818">Castle</text><text text-anchor="middle" x="44.37385278433771" y="-17.181001102130818">Castle</text><text text-anchor="middle" stroke="#CCC5B8" stroke-width="1.0303437876256833" x="-52.78212085249414" y="13.362928882213426">Gate</text><text text-anchor="middle" x="-52.78212085249414" y="13.362928882213426">Gate</text><text text-anchor="middle" stroke="#CCC5B8" stroke-width="1.0303437876256833" x="-36.273873154628035" y="-48.90935208139309">Gate</text><text text-anchor="middle" x="-36.273873154628035" y="-48.90935208139309">Gate</text></g></g></svg>