<svg width="99.11739476047752" height="115.27750564145823" xmlns="http://www.w3.org/2000/svg"><rect x="0" y="0" width="99.11739476047752" height="115.27750564145823" id="background" fill="#CCC5B8"/><g id="map" transform="translate(49.55869738023876 57.63875282072912)"><g fill="none"><path d="M 27.435038151036803,24.774344736650157 L 39.3989144835323,25.708631240711497 C 42.72306120306842,25.96822147144189 48.55536114719637,27.787860715242676 56.992174319723574,27.48333739917377 C 61.5370071298974,27.319293520278876 65.71214025827022,25.600560170211953 69.76369617119806,24.612626881939313 C 74.01394978676487,23.57624305294626 79.01075231173398,22.973297861475444 84.06129125534082,20.8827912683626 C 90.08764701274728,18.388376992189368 96.00213060443564,14.987982747722592 101.92968945490716,11.298558465788112 C 106.6932903098615,8.333603564949914 111.80168304220273,5.438447463649119 115.69995081152899,1.1902936046450023 C 120.41475078936645,-3.947679696697598 122.37996476601325,-11.699120084896984 127.8210205231474,-16.9166295358579 C 131.58218599018664,-20.523267153047318 137.58013287499838,-24.45952216028219 145.57951656849042,-27.461667280546635 C 157.13911268687724,-31.799949629382603 171.98239023027077,-39.81718762466322 191.36996916140387,-40.76636263560788 C 211.76788044202175,-41.76500138941008 211.76788044202175,-41.76500138941008 252.16284743028342,-32.67976256705013" stroke="#67635C" stroke-width="2.3" stroke-linejoin="round" stroke-linecap="butt"/><path d="M 27.435038151036803,24.774344736650157 L 39.3989144835323,25.708631240711497 C 42.72306120306842,25.96822147144189 48.55536114719637,27.787860715242676 56.992174319723574,27.48333739917377 C 61.5370071298974,27.319293520278876 65.71214025827022,25.600560170211953 69.76369617119806,24.612626881939313 C 74.01394978676487,23.57624305294626 79.01075231173398,22.973297861475444 84.06129125534082,20.8827912683626 C 90.08764701274728,18.388376992189368 96.00213060443564,14.987982747722592 101.92968945490716,11.298558465788112 C 106.6932903098615,8.333603564949914 111.80168304220273,5.438447463649119 115.69995081152899,1.1902936046450023 C 120.41475078936645,-3.947679696697598 122.37996476601325,-11.699120084896984 127.8210205231474,-16.9166295358579 C 131.58218599018664,-20.523267153047318 137.58013287499838,-24.45952216028219 145.57951656849042,-27.461667280546635 C 157.13911268687724,-31.799949629382603 171.98239023027077,-39.81718762466322 191.36996916140387,-40.76636263560788 C 211.76788044202175,-41.76500138941008 211.76788044202175,-41.76500138941008 252.16284743028342,-32.67976256705013" stroke="#CCC5B8" stroke-width="1.7" stroke-linejoin="round" stroke-linecap="round"/></g><g fill="none"><path d="M 31.952010391148708,-9.639721689303558 L 27.156416521674902,-23.661710194539 L 12.633971647139706,-27.833252332684207 L -0.2360824877479395,-33.32062771338876 L -13.359117905732898,-28.160613475711568 L -18.814950559819415,-16.798480136935574 L -27.069146775207116,-3.8198641184617252 L -27.617488233299618,12.29334547192498 L -27.74167686268158,29.16757910825414 L -6.994847435591547,39.220534282112 L 16.990421987334265,46.13229401727427 C 23.89739247763986,48.122654003859104 26.673440107342195,58.07100068958453 32.827330512673136,58.425548231523464 C 40.36664268052916,58.85991485506751 47.50902853948759,59.195757996783655 54.19744054545688,59.65675637532216 C 59.49567153373745,60.021936614299655 65.97652409764243,62.51708077823959 73.15568200434605,60.96345198030124 C 82.28724356982404,58.98730697797077 90.72064102174625,56.191470912220645 98.844295688392,55.40422476768066 C 107.23384508101421,54.59121132917409 115.9630510197335,56.959519778014894 121.69749828004925,53.1895693731645 C 126.40670785153151,50.09363253311457 131.95963663144462,47.13007085786893 137.31818049528428,42.92019299422435 C 141.69450620527235,39.4819834360449 148.23168377263087,35.51052350597467 155.09273683279093,28.955818872678158 C 161.25355361462218,23.070084722151407 167.65919104724816,10.074662348564068 182.95907545427585,2.3337220496876627 C 206.00393152228636,-9.325768327686024 206.00393152228636,-9.325768327686024 252.16284743028342,-32.67976256705013" stroke="#67635C" stroke-width="2.3" stroke-linejoin="round" stroke-linecap="butt"/><path d="M 31.952010391148708,-9.639721689303558 L 27.156416521674902,-23.661710194539 L 12.633971647139706,-27.833252332684207 L -0.2360824877479395,-33.32062771338876 L -13.359117905732898,-28.160613475711568 L -18.814950559819415,-16.798480136935574 L -27.069146775207116,-3.8198641184617252 L -27.617488233299618,12.29334547192498 L -27.74167686268158,29.16757910825414 L -6.994847435591547,39.220534282112 L 16.990421987334265,46.13229401727427 C 23.89739247763986,48.122654003859104 26.673440107342195,58.07100068958453 32.827330512673136,58.425548231523464 C 40.36664268052916,58.85991485506751 47.50902853948759,59.195757996783655 54.19744054545688,59.65675637532216 C 59.49567153373745,60.021936614299655 65.97652409764243,62.51708077823959 73.15568200434605,60.96345198030124 C 82.28724356982404,58.98730697797077 90.72064102174625,56.191470912220645 98.844295688392,55.40422476768066 C 107.23384508101421,54.59121132917409 115.9630510197335,56.959519778014894 121.69749828004925,53.1895693731645 C 126.40670785153151,50.09363253311457 131.95963663144462,47.13007085786893 137.31818049528428,42.92019299422435 C 141.69450620527235,39.4819834360449 148.23168377263087,35.51052350597467 155.09273683279093,28.955818872678158 C 161.25355361462218,23.070084722151407 167.65919104724816,10.074662348564068 182.95907545427585,2.3337220496876627 C 206.00393152228636,-9.325768327686024 206.00393152228636,-9.325768327686024 252.16284743028342,-32.67976256705013" stroke="#CCC5B8" stroke-width="1.7" stroke-linejoin="round" stroke-linecap="round"/></g><g fill="#A3857D" stroke="#301615" stroke-width="0.3"><polygon points="3.070145958615997,2.229181408712912 0.6226667171213291,2.2350165560903026 -2.7813754454748474,2.2431322889475376 -6.584598900745837,2.252199728210925 -6.84334646622629,-0.972007859399838 -7.167491613989679,-5.011123137510085 -3.141476225352444,-5.020721745227792 0.4619739245956027,-5.029312895802449 3.0528259230421746,-5.03548986473752 3.0624575505488907,-0.9956247405359289"/><polygon points="3.070145958615997,2.229181408712912 3.062503996619806,-0.9761435197436388 3.0587739381175254,-2.5406696856578384 3.0528259230421746,-5.03548986473752 5.06350075815863,-5.040283606719884 6.390029008851801,-5.043446243489926 6.395977023927152,-2.5486260644102443 6.399707082429433,-0.9840998984960447 6.407349044425624,2.221225029960506 5.080820793732453,2.2243876667305487"/><polygon points="-1.5889552599350099,2.2402893853590475 1.2166790666998102,2.2336003440362773 1.229202055155424,7.486210484673024 -1.5764322714793964,7.492899525995793"/><polygon points="-2.85918407997537,6.474618694192348 -6.476165652262182,3.603367233347093 -4.881222854364093,2.248138631347982 -1.5826937657072038,4.86659445567742"/><polygon points="1.228706063738465,7.278173117584374 1.2241089974149342,5.349991416088569 1.2166790666998102,2.233600344036277 4.12179518812491,2.226674123609339 3.54252565931611,5.344463972719478 5.366503056653574,5.340115344651035 4.722508082564611,7.269843384142049 3.18411848901586,7.27351112924485"/><polygon points="4.722508082564611,7.269843384142049 3.3444415255586204,11.399213615798448 1.2345380318455585,9.724318854104663 1.228706063738465,7.278173117584374"/></g><g fill="#979E7C" stroke="#253014" stroke-width="0.3"><polygon points="-8.52632689746013,-7.007889160206393 -11.92813872390171,-10.482391391037144 -14.922746456701915,-13.540988332585526 -17.88500209573703,-16.56654187617605 -15.47417609119239,-17.412450540030044 -12.93696399770997,-14.821022933607491 -10.37204189754595,-12.201293209095045 -9.310223066919242,-13.374203716654353 -6.729594733665745,-10.73843214600475 -7.458343973550949,-9.225334968783654"/><polygon points="0.38984015778723435,-13.092006994132076 1.1962795094483756,-10.793667890693872 1.6510742369588027,-9.497510276210354 -0.9187249950524694,-8.595821215852691 -1.3735197225628966,-9.891978830336209 -2.8152185700851966,-9.386116713581009 -5.878015472971024,-8.311445032218561 -6.684454824632165,-10.609784135656769 -3.621657921746338,-11.684455817019215 -2.179959074224038,-12.190317933774415"/><polygon points="-8.34648194226839,-15.346534528069569 -9.162710082005644,-17.672771519134734 -9.773245761989475,-19.41278832816155 -6.893024725910422,-20.42339793816283 -4.530789765595651,-21.25225701601506 -2.698950779570078,-21.895011186636857 -2.088415099586247,-20.15499437761004 -1.2721869598489928,-17.828757386544876 -3.1040259458745663,-17.18600321592308 -5.466260906189337,-16.357144138070847"/><polygon points="2.2583501097654444,-23.634424882903208 3.2175916115516263,-20.900602124062498 4.384977884060717,-17.573570136600644 5.363418315374291,-14.785030739260009 2.6729610131419816,-13.841005273549378 1.694520581828408,-16.629544670890013 -0.572323005274805,-15.834156440334294 -1.7397092777838956,-19.161188427796148 0.527134309319317,-19.956576658351867 -0.4321071924668649,-22.690399417192577"/><polygon points="7.9854881720768605,-25.643958419070724 11.980360237359912,-27.04567587385217 10.77782019368719,-17.68585733951632"/><polygon points="5.363418315374291,-14.785030739260009 4.821905160289257,-16.328334469161693 4.142713017989612,-18.26402108487531 7.457758639715561,-19.427201591142868 9.869851080301029,-20.273554621042827 10.30010259781796,-18.250519921771144 10.643137863128684,-16.637574431648254 8.41948418637239,-15.857340641638915"/><polygon points="4.142713017989612,-18.26402108487531 3.069873108575671,-21.321597467347345 2.2583501097654444,-23.634424882903208 4.816947280285577,-24.5321833730536 7.985488172076861,-25.643958419070724 8.797011170887087,-23.331131003514862 9.869851080301029,-20.273554621042827 6.701310188509745,-19.1617795750257"/><polygon points="6.019487892530289,-15.015231897850922 7.662287991709261,-10.333278196933659 8.814591291509174,-7.049232437639101 5.609757945565153,-7.041591647647298 2.5153935456666634,-7.034214231730287 1.6458279211089792,-9.512462191493004 0.40611742603876877,-13.045617042993658 3.1635818581431687,-14.013153915828628"/><polygon points="6.019487892530289,-15.015231897850922 10.643137863128684,-16.637574431648254 9.411420172112967,-7.050655364713768 8.814591291509174,-7.049232437639101"/></g><g fill="#958595" stroke="#23162E" stroke-width="0.3"><polygon points="16.148659961858105,-0.7891302062475528 18.739728687993356,-0.00970200986940084 17.66778464971445,3.5537829739405273 15.076715923579199,2.774354777562375"/><polygon points="18.124402334022353,2.0358396828095824 20.22172256874217,2.6667417161235925 19.849142316126304,4.209964592914033 17.66778464971445,3.5537829739405273"/><polygon points="18.739728687993356,-0.00970200986940084 20.723802221551068,0.5871338980878287 20.22172256874217,2.6667417161235925 18.124402334022353,2.0358396828095824"/><polygon points="21.733805054734237,-3.5962855581183515 21.18298241900948,-1.3147848974248362 20.723802221551068,0.5871338980878287 19.00945366590121,0.07143487813681926 19.468948679013415,-1.6908432600562504 16.60868031891938,-2.31838507039767 17.160510791936428,-4.152846137378608 20.020148960789005,-3.8048340077681995"/><polygon points="12.734670342768837,2.069836080519078 14.696731506728035,-4.452683048661488 17.160510791936428,-4.152846137378608 15.076715923579199,2.774354777562375"/><polygon points="14.696731506728035,-4.452683048661488 13.890500775489663,-1.7725141203778263 9.412313102778379,-3.1196129856365777 10.046068842189914,-5.018659204531217"/><polygon points="12.084799863359397,-2.315693153393801 13.890500775489663,-1.7725141203778263 12.734670342768837,2.069836080519078 10.92896943063857,1.5266570475031036"/><polygon points="9.412313102778379,-3.1196129856365777 12.084799863359397,-2.315693153393801 10.92896943063857,1.5266570475031036 8.141567893629787,0.6881693105093456"/><polygon points="12.204013035644692,2.7366847269312613 11.280055425437112,5.808215471146243 6.875096604108225,4.483144825741374 7.890915770474866,1.4392472686786084"/><polygon points="11.280055425437112,5.808215471146243 10.734062600343718,7.623270328498823 6.418181586821959,5.852288617226969 6.875096604108225,4.483144825741374"/><polygon points="11.315233662499459,5.691271754821413 12.204013035644692,2.7366847269312613 14.475642432536542,3.4200212921870694 13.586863059391309,6.374608320077221"/><polygon points="11.315233662499459,5.691271754821413 13.586863059391309,6.374608320077221 12.939071361177549,8.528075205277485 10.734062600343718,7.623270328498823"/><polygon points="17.356960984250968,4.286760525809565 19.663116106428376,4.980482891919104 19.04085479238683,7.557881689704174 16.5943453645096,6.821938867517157"/><polygon points="13.713026812795178,5.955199633894662 14.475642432536542,3.4200212921870694 17.356960984250968,4.286760525809565 16.5943453645096,6.821938867517157"/><polygon points="12.939071361177549,8.528075205277485 13.713026812795178,5.955199633894662 19.04085479238683,7.557881689704174 18.27772804083487,10.71874341712363"/><polygon points="9.868904615379085,8.022981059691102 8.759673292199201,10.72617690685635 5.26958545303707,9.294051759169568 6.1966504558653845,6.516105653426391"/><polygon points="8.759673292199201,10.72617690685635 7.543450967975906,13.690109737967823 4.331446450986544,12.105181053708023 5.26958545303707,9.294051759169568"/><polygon points="8.917741236677262,10.34096545262324 9.868904615379085,8.022981059691102 13.138759271244698,9.364735564950223 12.187595892542873,11.682719957882362"/><polygon points="8.917741236677262,10.34096545262324 10.304306548831027,10.90992965752483 12.187595892542873,11.682719957882362 11.430403906167877,13.527996222897972 10.72058239580182,15.257830675777843 8.890697464719898,14.354893864566593 7.543450967975906,13.690109737967823 8.208407900122767,12.069610226314891"/><polygon points="10.72058239580182,15.257830675777843 11.668238080340865,12.948394530714115 14.704849879185154,14.194439994696285 13.671085031418563,16.713724101655178"/><polygon points="13.671085031418563,16.713724101655178 14.704849879185154,14.194439994696285 17.19217503202326,15.215090782301818 16.494056628172267,18.106688723865407"/><polygon points="13.138759271244698,9.364735564950223 15.493793780639642,10.331102115020894 18.1119402973917,11.405434234945226 17.680934729557038,13.190654057081824 17.19217503202326,15.215090782301818 14.284081356613635,14.021781537287845 11.668238080340865,12.948394530714115 12.449667342289846,11.044052044515384"/></g><g fill="#899E94" stroke="#17302D" stroke-width="0.3"><polygon points="-9.91834793371692,18.590406263452486 -11.73408073382202,21.525974916506264 -16.907095987786853,18.326317684066165 -15.091363187681752,15.390749031012385"/><polygon points="-11.73408073382202,21.525974916506264 -10.026911508438044,18.765925385427014 -7.803213592318928,15.170783029656144 -5.65556606375321,16.499164178782003 -3.5451610698611464,17.804509759758005 -5.768858985980263,21.399652115528873 -7.4760282113642385,24.159701646608127 -9.586433205256302,22.854356065632125"/><polygon points="-5.2649538897005765,20.58496836653945 -4.4157045589154915,19.211952626593963 -3.545161069861147,17.804509759758005 -2.0621335973744124,18.72180447962426 -0.3430391779020887,19.785113328036452 -1.0541340221462838,21.29117972187217 -1.747834943687963,22.760406582063002 -3.636039002344694,21.592498606540754"/><polygon points="-7.4760282113642385,24.159701646608127 -6.735767293448122,22.96289188165285 -5.2649538897005765,20.58496836653945 -4.22296898869207,21.22946569757862 -1.747834943687963,22.760406582063002 -2.949254334448398,25.304957965008345 -3.5539291482218487,26.58563159609198 -6.3140635275462005,24.878409889652414"/><polygon points="-5.5457528842985715,16.567086757125452 -4.5980738972828,15.034935811083047 -3.414878719840449,13.122016314809631 -1.0287240324449227,14.597920932990338 1.397544320947945,16.09863699579799 0.4310630354146864,18.1456002049883 -0.3430391779020887,19.785113328036452 -2.9660794864126867,18.162688208049573"/><polygon points="-3.414878719840449,13.122016314809631 -1.5335905546666497,10.08046165174159 2.6652798072203243,13.41363115220036 1.3975443209479446,16.09863699579799"/><polygon points="-1.5335905546666497,10.08046165174159 -3.1665251085242447,12.720492987032356 -5.5457528842985715,16.567086757125452 -7.971149841050378,15.066909677952685 -9.504540957863,14.118463610002571 -6.954596942196357,9.995865990463077 -5.204494772079708,7.166405031263331 -3.7826121622882294,8.295131412341645"/><polygon points="-9.504540957863,14.118463610002571 -11.582965923656596,12.83289858701361 -12.976228846283762,11.971125797216043 -11.265865613950155,9.205912385923561 -10.261191084446725,7.581614441225359 -8.833194872787562,5.272915212250952 -7.376919576695343,6.0328133494081 -8.826634516989458,8.376626125354425 -6.6866090155398465,9.56259907098892 -7.729358581722908,11.24845446738603"/><polygon points="-12.9975632989148,12.005618069630856 -15.284086848355848,15.702333167700285 -16.907095987786853,18.326317684066165 -18.540200005469465,17.316196347675326 -21.835345673821998,15.27805492491286 -20.212336534390992,12.65407040854698 -17.92581298494994,8.95735531047755 -14.63066731659741,10.995496733240017"/><polygon points="-10.915379085851178,8.639266640940903 -12.9975632989148,12.005618069630856 -15.461688141932367,10.4814866900542 -13.379503928868747,7.115135261364251"/></g><g fill="#979E7C" stroke="#253014" stroke-width="0.3"><polygon points="-26.375321959203813,5.194213369958713 -18.067248261469476,5.476941725212874 -19.589691828112095,8.497411866782459 -26.47975240386444,8.262939284441835"/><polygon points="-22.243443248972817,5.334823493840001 -24.78068962270102,5.248479592688235 -26.375321959203813,5.194213369958713 -26.27274678104773,2.180005124334137 -26.18495735819119,-0.3997184209679432 -24.5903250216884,-0.34545219823842116 -22.053078647960195,-0.25910829708665517 -22.140868070816733,2.320615248215425"/><polygon points="-25.45720338246645,-4.4910087675487915 -23.489410704676725,-4.424043691465705 -20.915719924864813,-4.336459566964323 -17.736974011139054,-4.228285080716848 -17.802015172220017,-2.3170273324054853 -21.093280784413427,-2.4290309263906695 -23.758073815979078,-2.5197153110408403 -24.06733030300849,-0.3276543979301129 -26.18495735819119,-0.3997184209679432 -25.795521459834408,-2.589050784246955"/><polygon points="-18.150186334730012,7.914106629939832 -17.953304094821263,2.1286516922259446 -17.736974011139054,-4.228285080716848 -12.21198969512363,-4.040266800510923 -9.08747582690452,-3.9339378608469313 -8.754797042536213,0.21151355163582952 -8.452025726029113,3.9842933039030357 -11.955354667508502,5.40388505075082"/><polygon points="-16.862631173607177,-8.395182451692229 -14.500655007823683,-8.31480309291456 -11.147546115632707,-8.200694937815287 -11.220482644639326,-6.057428983117592 -11.290195302749272,-4.008897626148692 -14.643304194940248,-4.123005781247964 -17.00528036072374,-4.203385140025632 -16.935567702613795,-6.251916496994532"/><polygon points="-16.862631173607177,-8.395182451692229 -16.82430666454907,-9.521361838255782 -16.76984383383824,-11.121771570509337 -15.63027505724637,-11.082991413083352 -15.6847378879572,-9.482581680829798 -13.966764135561833,-9.424118081317312 -14.005088644619942,-8.297938694753759 -15.723062397015307,-8.356402294266244"/><polygon points="-16.85210936990119,-8.704369411535207 -16.916208810728836,-6.820784449210045 -17.00528036072374,-4.203385140025632 -19.594418566990775,-4.291494949015798 -22.805215677355104,-4.400760155259175 -22.7161441273602,-7.018159464443587 -22.652044686532548,-8.901744426768749 -19.441247576168223,-8.792479220525372"/><polygon points="-22.652044686532548,-8.901744426768749 -18.39205541740008,-15.600005956318833 -16.6770564940693,-13.848360689326446 -16.85210936990119,-8.704369411535207"/></g><g fill="#979E7C" stroke="#253014" stroke-width="0.3"/><g fill="#958595" stroke="#23162E" stroke-width="0.3"><polygon points="32.32808397527605,1.3998149479139057 31.57829248635365,-1.4644051042822088 33.01425494512957,-1.84030933314086 33.62531645215465,1.060227258214044"/><polygon points="28.163066174870224,7.569554617830662 27.502156282459666,5.044864227896115 30.2641527454797,4.321832686091802 30.925062637890253,6.846523076026349"/><polygon points="30.925062637890253,6.846523076026349 30.196404289657618,4.063032088141819 29.6806542078481,2.0928553815968156 32.15461980521979,1.445224153900523 32.61052142953646,3.4310679053078306 34.045640004628915,3.0553845871306136 34.6394785250119,5.874168519557633 33.254625107359736,6.236693495655243"/><polygon points="26.168866255905673,-0.048333128794986586 25.742583940299394,-1.6767409919075404 24.952641013784707,-4.694340422738125 25.986865067273776,-5.256865978131813 28.215962133377605,-6.469295780848398 29.152406628454173,-2.8920571215755246 29.65774658960714,-0.9616473059205726 27.27457538737759,-0.33778410703450834"/><polygon points="33.01425494512957,-1.84030933314086 30.70045164341244,-1.234605165495691 29.65774658960714,-0.9616473059205726 29.278109444132934,-2.4118695886360992 30.34263537830987,-2.6905396875242897 29.934238770810385,-4.352282815292425 32.351729617589555,-4.985130162364454 32.70486006713546,-3.3089195376498965"/><polygon points="32.351729617589555,-4.985130162364454 28.844807391058268,-4.0670930039590365 28.215962133377605,-6.469295780848398 31.6460187884231,-8.334940385034427"/><polygon points="25.627652685258315,-2.1157809252439757 26.288235169111566,0.40765875676849994 23.22745875843765,1.2089044922203271 22.5668762745844,-1.3145351897921482"/><polygon points="24.952641013784707,-4.694340422738125 25.627652685258315,-2.1157809252439757 23.69567110635997,-1.610029510124126 23.14556376089579,-3.711451722856054"/><polygon points="21.87197405189218,1.5637413685116595 26.288235169111566,0.40765875676849994 27.077475733818105,3.42257514997528 22.661214616598723,4.57865776171844"/><polygon points="28.163066174870224,7.569554617830662 26.36887825053926,8.039234604240654 25.765864238958596,5.735707758121277 27.56005216328956,5.2660277717112844"/><polygon points="23.518201314023816,6.324097791139288 25.765864238958596,5.735707758121277 26.36887825053926,8.039234604240654 24.12121532560448,8.627624637258666"/><polygon points="23.035624884552362,4.4806451694032825 24.12121532560448,8.627624637258666 22.01047693288954,9.180170759190165 21.041729478263317,5.00260429900672"/><polygon points="35.3945234696538,9.458153871070682 29.98751130938967,10.597259307286025 29.41159628225111,7.863553141012968 34.76343528065425,6.462556269976854"/><polygon points="33.15537594440348,9.929879297775877 35.3945234696538,9.458153871070682 36.40580426872104,14.258418538550071 34.166656743470725,14.730143965255266"/><polygon points="30.173180945752016,11.478580693073205 27.675026171892984,12.004871664697566 26.93893268422202,8.51084353315617 29.41159628225111,7.863553141012968"/><polygon points="27.675026171892984,12.004871664697566 26.283000258465787,12.298132385838628 25.434953223497466,8.904553156933414 26.93893268422202,8.51084353315617"/><polygon points="30.173180945752016,11.478580693073205 30.573937026726636,13.38085675483007 30.998792108456914,15.397523974765416 28.93248128811959,15.832837567298904 27.254646261689082,16.186310232613966 26.75464243330106,14.18547474068391 26.283000258465787,12.298132385838628 28.026276744852368,11.930873044891937"/><polygon points="37.87238310769149,21.219854560351468 36.05975549072209,21.601724234604806 35.146483736966836,17.266680856542195 36.95911135393623,16.884811182288857"/><polygon points="33.01460074386483,22.243252720846016 30.59298864312551,22.7534183033518 28.98063487675198,23.09309590827301 28.55625512585024,21.394880775804655 27.950580893344537,18.97119033156976 29.62481269494149,18.61847676441726 32.13936010677203,18.088732324874986 32.65400371736743,20.531600361689037"/><polygon points="30.137000371305746,18.510573221903215 27.950580893344537,18.97119033156976 27.254646261689082,16.186310232613966 29.5456621694281,15.703657596072851"/><polygon points="33.40672246999984,22.160643698217758 35.8068301610363,21.655008490208843 36.400166256938,24.471407555358812 33.85160692871994,24.272384720369587"/><polygon points="35.8068301610363,21.655008490208843 37.87238310769149,21.219854560351468 38.593477936153995,24.642688287802173 36.400166256938,24.471407555358812"/><polygon points="33.85160692871994,24.272384720369587 29.184252479351574,23.907900321624055 28.98063487675198,23.09309590827301 33.40672246999984,22.160643698217758"/><polygon points="24.762213143148443,9.080662107122459 25.25853872885287,11.066778594734098 26.241835907681818,15.001580255870342 26.915258470763217,17.696375152988878 24.331598006639084,18.25654332907572 23.66669865846365,15.595855272587134 21.182568348925628,16.16912824344552 20.223721675206498,12.332168709992704 19.73973763947362,10.395438666657128 22.2058028322499,9.749875595742344"/></g><g fill="#979E7C" stroke="#253014" stroke-width="0.3"><polygon points="11.34726951063839,-13.357967730458562 11.710376466309032,-16.184164855048696 11.878890102091209,-17.495769453815463 14.368465207438677,-17.175911355613188 18.841386624973048,-16.601234923900922 21.0368341760191,-16.319166037177208 20.868320540236923,-15.007561438410441 20.50521358456628,-12.181364313820307 18.30976603352023,-12.46343320054402 13.836844615985857,-13.038109632256287"/><polygon points="10.527174978583863,-6.974865528233285 11.073395568425095,-11.22630449488712 11.34726951063839,-13.357967730458562 14.439965557749575,-12.960621262050406 16.31934462167762,-12.719160535720844 16.046895022038367,-10.598583490662493 15.50351517430879,-6.369255081414063 13.622523964408458,-6.59816787320217"/><polygon points="20.50521358456628,-12.181364313820307 20.163330148427836,-9.52035777271761 19.692974808136896,-5.859406393224823 17.090275683504593,-6.176149565477933 15.50351517430879,-6.369255081414063 15.975949818494847,-10.04639046013286 16.31934462167762,-12.719160535720844 17.90474516196425,-12.515469873560978"/><polygon points="25.393214739115606,-10.723661615808794 26.029702960700185,-15.677687292225386 28.958834997345704,-15.30135536288838 28.32234677576112,-10.347329686471786"/><polygon points="19.692974808136896,-5.859406393224823 20.131866670666508,-9.27546576778636 20.40034595443452,-11.365140360760616 22.926432934272146,-11.040591253754814 22.70165817521724,-9.291085308466254 25.329005870608682,-9.307054683466413 25.034604613177503,-7.015619682748853 22.334211528061786,-6.431110743360484"/><polygon points="25.467497653345255,-15.74991886299564 23.64673912764916,-15.983848081706016 21.940513287830186,-16.203062256468545 22.299716909143307,-18.998878271126017 22.508293372514387,-20.622306828003396 24.195090197690707,-20.25186937189316 24.59407279773759,-23.35730004295082 26.37901253506981,-22.844579809363463 25.995115510214838,-19.856565807318468 25.80129281448134,-18.34797133726599"/><polygon points="22.921412607286697,-23.83776820981568 22.63692929003428,-21.623528243721744 22.25412835304926,-18.64404550316309 21.940513287830186,-16.203062256468545 19.567723196767066,-16.507915933841225 17.984955499780966,-16.71126833094969 18.323449899318263,-19.345896733744333 18.736618741244094,-22.561744226570067 19.043670347915054,-24.95164162270084 20.59530112017037,-24.505938904926676"/><polygon points="11.878890102091209,-17.495769453815463 12.31376366012827,-20.88055286292048 12.725901992353904,-24.088379513660772 13.05772624095618,-26.671091639174744 14.95813593041614,-26.1252029015819 19.043670347915054,-24.95164162270084 18.745658395800643,-22.632103235991448 18.375516221305872,-19.75114837431835 17.984955499780966,-16.71126833094969 13.817435741492636,-17.24670706555274"/></g><g fill="#958595" stroke="#23162E" stroke-width="0.3"><polygon points="18.687081891818572,28.344661463768134 18.262457099126337,32.50585335862539 15.478772505549136,32.221794963017835 15.902252293264423,28.071823763493597"/><polygon points="21.22759108119677,32.808427581169035 18.262457099126337,32.50585335862539 18.687081891818572,28.344661463768134 21.653435513921004,28.63528359047767"/><polygon points="21.653435513921004,28.63528359047767 24.459387273882818,28.910190689162178 22.49004443881594,32.937253410116064 21.22759108119677,32.808427581169035"/><polygon points="11.899451699618485,32.24282758288036 9.957491995488976,32.04466218757576 11.61321653399384,27.6516146944855 12.360486700743078,27.724826884518773"/><polygon points="19.968633637172076,26.198251479325272 19.380686347488144,27.758221333578675 16.241395892577252,26.575033524235486 16.829343182261184,25.01506366998208"/><polygon points="13.132118179207307,23.621592242332245 15.425495945993278,24.48595845974773 14.376957152301951,27.267991709791296 11.851072605694613,27.020523594969067"/><polygon points="15.425495945993278,24.48595845974773 16.829343182261184,25.01506366998208 15.923128956721236,27.419474572357146 14.376957152301951,27.267991709791296"/><polygon points="16.748515299268732,24.984599918002047 13.132118179207307,23.621592242332245 13.881499552793734,21.63329775973965 17.49789667285516,22.99630543540945"/><polygon points="17.49789667285516,22.99630543540945 13.881499552793734,21.63329775973965 14.703162570116517,19.453222164753093 18.17707023439296,21.194289675842896"/><polygon points="20.835282140821946,23.898818241603582 17.615163802918598,22.68516668028036 18.17707023439296,21.194289675842896 21.26379426795823,22.76186938199755"/><polygon points="23.407658581869327,23.850621779261424 22.537954666859175,26.15816178046007 20.301442197285425,25.315227898600195 21.26379426795823,22.76186938199755"/><polygon points="20.301442197285425,25.315227898600195 22.537954666859175,26.15816178046007 21.843940490353546,27.999553369075585 19.380686347488144,27.758221333578675"/><polygon points="21.843940490353546,27.999553369075585 23.407658581869327,23.850621779261424 26.23218221385087,25.28504412376055 24.76477251331959,28.285715614854652"/><polygon points="11.092515216537162,27.290842251833297 8.787202203667745,26.42197768108916 10.363916280445713,22.23856452193869 12.66922929331513,23.10742909268283"/><polygon points="7.845255634159616,19.113525994014502 8.812705994331042,16.546640452003878 10.589829547967378,17.423542735526187 9.690729234362902,19.809078666692315"/><polygon points="7.845255634159616,19.113525994014502 6.393358660906549,18.566311002649815 7.41458233201633,15.856751541566743 8.812705994331042,16.546640452003878"/><polygon points="12.66922929331513,23.10742909268283 11.562154491197832,22.690176395390314 8.972689531569015,21.714215930132525 9.842865545484083,19.405423333551926 12.380724469179842,20.518307400237262 13.083389559102423,18.653962794609875 14.149462087185848,19.180004685374243 13.465736125856145,20.99409908968409"/><polygon points="7.41458233201633,15.856751541566743 6.244315975328259,18.96175818061723 5.609597617398515,20.64582326890754 2.8313078342531406,19.598695375055602 3.5938874849514004,17.86386246836266 2.1517634040110365,17.26648666639248 3.686046141247071,14.016945922429583 4.999898983370823,14.665252313458577"/><polygon points="3.0066402979392772,21.881203271851014 2.227106337074679,23.94950004037468 -0.5155771238445173,22.915792047292882 0.4312131065456791,20.91053359331234"/><polygon points="3.7380990731384998,19.940461884041728 3.0066402979392772,21.881203271851014 0.4312131065456791,20.91053359331234 1.3196131725590865,19.02894283993494"/><polygon points="2.8025353806385764,30.0035682996155 6.1112191474668345,31.250599867452383 5.330243850247609,33.322720858491415 1.895938564044768,32.40899431086341"/><polygon points="3.026910708362915,29.408244954428625 -0.35873777298708065,28.132205649563378 -2.568376050417587,27.29940055858365 -1.97002954130134,26.021673443613953 -0.5155771238445173,22.915792047292882 1.5555263597742481,23.69638384945395 4.7289092775369435,24.892420991159376 3.5230064969973203,28.09197989347772"/><polygon points="-3.690618314658714,30.92264266052743 -2.568376050417587,27.29940055858365 3.026910708362915,29.408244954428625 1.895938564044768,32.40899431086341"/><polygon points="12.941983890484536,43.924976186042215 13.670974057640809,41.395225986978566 14.377907682854906,38.94201665757648 16.647014446200433,39.59589802472449 18.91428041511111,40.249248935923426 17.775457059786657,42.57800195866615 16.601102072912163,44.979412776832795 14.77228539031248,44.45240841899542"/><polygon points="17.389503142783266,39.809858659744464 14.377907682854906,38.94201665757648 15.070764602993425,36.537656474667024 18.100180253842662,37.34365864200528"/><polygon points="14.109604939412531,39.8730839739991 13.572239970646818,41.737854169745084 12.941983890484536,43.924976186042215 10.176432235089251,43.128035854031516 7.365848024609643,42.318118632100806 7.9961041047719235,40.130996615803674 8.533469073537637,38.26622642005769 11.344053284017244,39.0761436419884"/><polygon points="8.800525545696917,37.33948392880903 4.642576065583773,36.141300690141065 5.279080797446763,33.932494529673086 9.461633666215814,35.04529880144399"/><polygon points="7.365848024609643,42.318118632100806 3.207898544496498,41.11993539343284 4.071296964781983,38.12376010329311 8.229246444895129,39.321943341961074"/><polygon points="-0.7421547418002847,35.31438194217383 2.567284204327416,36.268052566025965 4.449731677364809,36.8105115402521 3.9378627982788315,38.58680490757355 3.207898544496498,41.11993539343284 1.3254510714591048,40.577476419206704 2.055415325241439,38.044345933347415 -1.2540236208862625,37.09067530949528"/><polygon points="4.449731677364809,36.8105115402521 -0.7421547418002847,35.31438194217383 0.056472985431907485,32.54297466815734 5.279080797446763,33.932494529673086"/><polygon points="-1.0572095334995777,36.40768876293153 -3.314514633418523,35.75720824405591 -5.034528847281765,35.26155715180995 -4.5434129730179755,33.675953250348655 -3.8690021747984473,31.498568138438912 -2.1714082581202616,31.950227644363526 -2.83284595938897,34.153067687118146 -0.5879391368196051,34.779221147179236"/><polygon points="-1.5485044752141746,38.1125862123028 -1.9839878746685973,39.62380579535457 -4.386473677945496,38.931489009306034 -3.950990278491074,37.420269426254265"/><polygon points="-5.034528847281765,35.26155715180995 -3.459695336776477,35.71537197688299 -4.386473677945496,38.931489009306034 -6.024986790793566,38.459323833287876"/></g><g fill="#899E94" stroke="#17302D" stroke-width="0.3"><polygon points="-18.497512624151366,32.53566195176932 -23.062176225949976,30.32383682765163 -26.331400838776485,28.73972159686345 -24.51506942438529,25.02488871310594 -21.383224528163176,26.666319334203905 -19.77700936657295,23.167254971898934 -22.777426191340815,21.470992011651852 -20.74036516908003,17.304714199267323 -17.894023125889323,19.06525780050902 -13.919810441986716,21.52342150833067 -15.587669357169066,25.535666662958814 -17.010377722784476,28.958171225201877"/><polygon points="-11.769724950437933,29.931461105675957 -12.574024813173986,31.866305952416475 -13.798725185284152,34.81247729169492 -15.69849831924093,33.89193498795238 -17.954486504490912,32.798787325136125 -16.791010393869556,29.999898675219505 -14.50178612984598,31.013092755149163 -13.715867000903035,29.12246508375159"/><polygon points="-13.798725185284152,34.81247729169492 -12.680186845647075,32.12169212238461 -11.769724950437933,29.931461105675957 -8.60986791209238,31.244988950809535 -5.78464884295475,32.41941041066699 -6.54312989169947,34.8682225405476 -7.474953768539724,37.87668480377124 -10.46005191509726,36.4302441337706"/><polygon points="-5.78464884295475,32.41941041066699 -7.631535827396519,31.651673943023116 -9.993300782229078,30.669906731979452 -9.301290009054416,29.005187464452593 -7.7719107241618195,25.326072540797277 -5.801327936515808,26.544934105874038 -4.260343218785325,27.498077032214137 -5.309794861455553,30.886309232012884"/><polygon points="-14.433239274713596,24.327982626180436 -13.400841207978004,21.844418756838138 -7.7719107241618195,25.326072540797277 -8.399621597214585,26.83611028199195"/><polygon points="-16.026918459728087,28.161779076167942 -15.149574049593005,26.051216350231556 -14.433239274713596,24.327982626180436 -10.110678799624422,26.124837191878214 -8.399621597214585,26.83611028199195 -9.115956372093995,28.55934400604307 -10.827013574503832,27.848070915929334 -11.704357984638914,29.958633641865717"/></g><g fill-rule="nonzero" stroke="#99948A" stroke-width="0.3" stroke-linecap="butt"><line x1="21.014483003866413" y1="-26.778537331535063" x2="18.678797180677872" y2="-27.774398323951726"/><line x1="26.70221286119349" y1="-25.864982442698075" x2="18.718452042965506" y2="-29.269000180325122"/><line x1="27.951978736867567" y1="-26.843632049517538" x2="19.013268325444955" y2="-30.654809448835913"/><line x1="28.69295736106029" y1="-28.039212106553745" x2="19.558592882999577" y2="-31.93381008026538"/><line x1="29.433935985253015" y1="-29.234792163589955" x2="20.1039174405542" y2="-33.21281071169485"/><line x1="30.174914609445736" y1="-30.430372220626165" x2="20.64924199810882" y2="-34.49181134312431"/><line x1="30.91589323363846" y1="-31.625952277662375" x2="21.19456655566344" y2="-35.77081197455378"/><line x1="31.656871857831185" y1="-32.82153233469859" x2="21.73989111321806" y2="-37.04981260598325"/><line x1="32.397850482023905" y1="-34.0171123917348" x2="22.285215670772683" y2="-38.32881323741272"/><line x1="33.13882910621663" y1="-35.21269244877101" x2="22.830540228327305" y2="-39.607813868842186"/><line x1="33.879807730409354" y1="-36.40827250580721" x2="23.375864785881927" y2="-40.886814500271655"/><line x1="34.620786354602075" y1="-37.60385256284342" x2="23.921189343436545" y2="-42.165815131701116"/><line x1="35.3617649787948" y1="-38.79943261987963" x2="24.466513900991167" y2="-43.444815763130585"/><line x1="35.420054259068195" y1="-40.28608936231511" x2="25.01183845854579" y2="-44.723816394560046"/><line x1="34.91969249404795" y1="-42.01093686604966" x2="25.55716301610041" y2="-46.002817025989515"/><line x1="32.90030485038881" y1="-44.38344793993973" x2="26.10248757365503" y2="-47.28181765741898"/><line x1="30.880917206729663" y1="-46.7559590138298" x2="26.766255921305593" y2="-48.51031768248285"/><line x1="15.531710778517079" y1="-28.353452269721664" x2="25.284552263497027" y2="-51.22770255739816"/><line x1="14.133152084995615" y1="-28.755185350693733" x2="24.836101073266825" y2="-53.85781152902261"/><line x1="12.759794847768463" y1="-29.21602576154272" x2="23.790183036023315" y2="-55.086625686390235"/><line x1="11.423066371372803" y1="-29.762775027188273" x2="22.7442649987798" y2="-56.31543984375786"/><line x1="10.094703904656257" y1="-30.32914587692332" x2="21.698346961536295" y2="-57.54425400112548"/><line x1="8.766341437939706" y1="-30.895516726658364" x2="20.288158113016408" y2="-57.91870979303998"/><line x1="7.437978971223156" y1="-31.461887576393412" x2="18.646400865489618" y2="-57.75004658463461"/><line x1="6.109616504506609" y1="-32.02825842612846" x2="16.829507337375887" y2="-57.17061989537414"/><line x1="4.7812540377900605" y1="-32.594629275863504" x2="15.012613809262152" y2="-56.591193206113665"/><line x1="3.4528915710735113" y1="-33.16100012559855" x2="13.19572028114842" y2="-56.01176651685319"/><line x1="2.154839892867646" y1="-33.79846169939366" x2="11.378826753034685" y2="-55.43233982759272"/><line x1="1.4721825561835553" y1="-35.87926511518097" x2="9.561933224920956" y2="-54.852913138332255"/><line x1="2.766572299433557" y1="-42.5970217518916" x2="7.745039696807222" y2="-54.27348644907178"/><line x1="4.340468920724658" y1="-49.97033198242263" x2="5.345274543151725" y2="-52.326996482020874"/></g><g fill-rule="nonzero" stroke="#99948A" stroke-width="0.3" stroke-linecap="butt"><line x1="-24.04239127871761" y1="-34.851672659831735" x2="-25.370240147549634" y2="-35.90849911867972"/><line x1="-18.237917498667848" y1="-31.828848081710923" x2="-25.096182860648934" y2="-37.28729780928991"/><line x1="-24.822125573748234" y1="-38.6660964999001" x2="-14.00159241019424" y2="-30.05410306111027"/><line x1="-24.048572710380988" y1="-39.64734984203122" x2="-12.028542757225026" y2="-30.08068454689557"/><line x1="-23.27047704616771" y1="-40.624987597897935" x2="-10.685574179934585" y2="-30.608743548403297"/><line x1="-22.492381381954434" y1="-41.602625353764644" x2="-9.342605602644152" y2="-31.13680254991103"/><line x1="-21.714285717741156" y1="-42.58026310963135" x2="-7.999637025353714" y2="-31.664861551418767"/><line x1="-20.93619005352788" y1="-43.55790086549806" x2="-6.656668448063275" y2="-32.192920552926495"/><line x1="-20.158094389314606" y1="-44.53553862136477" x2="-5.31369987077284" y2="-32.72097955443423"/><line x1="-19.37999872510133" y1="-45.51317637723148" x2="-3.9707312934824035" y2="-33.249038555941965"/><line x1="-18.601903060888056" y1="-46.49081413309819" x2="-2.6277627161919686" y2="-33.77709755744969"/><line x1="-17.82380739667478" y1="-47.4684518889649" x2="-1.757513101591531" y2="-34.681390571047515"/><line x1="-17.045711732461506" y1="-48.44608964483161" x2="-1.0464121532748347" y2="-35.71234899466822"/><line x1="-16.26761606824823" y1="-49.42372740069832" x2="-0.5000269167272613" y2="-36.87440360436219"/><line x1="-15.489520404034955" y1="-50.40136515656503" x2="-0.20865247035548684" y2="-38.239419678026515"/><line x1="-14.71142473982168" y1="-51.37900291243174" x2="0.08272197601628761" y2="-39.604435751690836"/><line x1="-13.933329075608405" y1="-52.356640668298446" x2="0.37409642238806207" y2="-40.96945182535515"/><line x1="-13.15523341139513" y1="-53.334278424165156" x2="0.6654708687598383" y2="-42.33446789901947"/><line x1="-12.377137747181857" y1="-54.311916180031865" x2="0.956845315131611" y2="-43.699483972683794"/><line x1="-11.599042082968577" y1="-55.28955393589857" x2="1.2482197615033854" y2="-45.064500046348115"/><line x1="-10.820946418755305" y1="-56.267191691765284" x2="1.5395942078751599" y2="-46.42951612001243"/><line x1="-10.042850754542028" y1="-57.24482944763199" x2="1.8309686542469343" y2="-47.79453219367675"/><line x1="-9.191494861698555" y1="-58.16415985405934" x2="2.122343100618709" y2="-49.159548267341066"/><line x1="-8.035354986957774" y1="-58.84091463018515" x2="2.4137175469904832" y2="-50.52456434100539"/><line x1="-6.87921511221699" y1="-59.51766940631096" x2="2.6510905958359494" y2="-51.93255978307537"/><line x1="-0.3463405163673663" y1="-55.915115257413866" x2="2.1572907896610545" y2="-53.922491044284634"/></g><g fill-rule="nonzero" stroke="#99948A" stroke-width="0.3" stroke-linecap="butt"><line x1="37.962939491770676" y1="-38.963523284277414" x2="39.10394544355834" y2="-39.482611049058775"/><line x1="36.522925995008535" y1="-36.87644251053733" x2="40.52127994355758" y2="-38.695448459371605"/><line x1="35.28695817957203" y1="-34.8821900138686" x2="41.130623987209034" y2="-37.54069974159007"/><line x1="34.05099036413553" y1="-32.88793751719988" x2="41.73511876385804" y2="-36.38374490458086"/><line x1="32.81502254869902" y1="-30.893685020531162" x2="42.27486354904966" y2="-35.19733279061129"/><line x1="31.57905473326252" y1="-28.89943252386244" x2="42.814608334241285" y2="-34.010920676641724"/><line x1="30.34308691782602" y1="-26.905180027193722" x2="43.354353119432915" y2="-32.82450856267216"/><line x1="29.355343015847666" y1="-25.023854195105844" x2="43.89409790462454" y2="-31.638096448702594"/><line x1="29.0795255171011" y1="-23.466411235638773" x2="44.43384268981616" y2="-30.451684334733027"/><line x1="29.085885956667717" y1="-22.03734194069126" x2="44.97358747500778" y2="-29.265272220763464"/><line x1="29.50968526631851" y1="-20.798181742769366" x2="45.513332260199405" y2="-28.0788601067939"/><line x1="29.933484575969306" y1="-19.559021544847475" x2="46.05307704539103" y2="-26.892447992824334"/><line x1="30.357283885620102" y1="-18.31986134692558" x2="46.59282183058266" y2="-25.706035878854767"/><line x1="30.7810831952709" y1="-17.080701149003687" x2="47.13256661577428" y2="-24.5196237648852"/><line x1="31.2048825049217" y1="-15.841540951081797" x2="47.6723114009659" y2="-23.333211650915633"/><line x1="31.628681814572495" y1="-14.602380753159899" x2="48.21205618615753" y2="-22.146799536946066"/><line x1="32.05248112422329" y1="-13.363220555238005" x2="48.751800971349155" y2="-20.9603874229765"/><line x1="32.47628043387409" y1="-12.124060357316111" x2="49.29154575654078" y2="-19.773975309006932"/><line x1="49.8312905417324" y1="-18.587563195037365" x2="33.69026419199963" y2="-11.244385645408652"/><line x1="50.37103532692403" y1="-17.401151081067802" x2="35.080392653830074" y2="-10.444845976075687"/><line x1="50.91078011211565" y1="-16.21473896709823" x2="37.76798583807254" y2="-10.235573221288025"/><line x1="51.450524897307275" y1="-15.028326853128663" x2="40.49632561825723" y2="-10.044837669901408"/><line x1="51.990269682498905" y1="-13.841914739159098" x2="43.22466539844191" y2="-9.854102118514794"/><line x1="52.53001446769053" y1="-12.65550262518953" x2="45.95300517862658" y2="-9.663366567128177"/><line x1="52.54001160412069" y1="-11.228087804386632" x2="48.681344958811266" y2="-9.472631015741563"/><path d="M 32.46892767136233,-25.55531928095936 L 32.97710404542188,-24.43829763895622 L 33.37841750151254,-23.556171199076097 L 33.947901431952545,-22.304389519434384 L 32.60175850083671,-21.691977003886706 L 30.85053896637228,-20.895279464875294 L 30.281055035932276,-22.147061144517007 L 29.879741579841617,-23.029187584397132 L 31.630961114306043,-23.825885123408543 L 31.122784740246495,-24.94290676541168 Z" fill="#99948A" stroke="#1A1917" stroke-width="0.3"/></g><g fill-rule="nonzero" stroke="#99948A" stroke-width="0.3" stroke-linecap="butt"><line x1="62.71840993383293" y1="-5.270635826844359" x2="64.1032507843261" y2="1.9621387861796444"/><line x1="61.15024376271346" y1="-6.005368135090962" x2="62.80517885359163" y2="2.638060102344146"/><line x1="59.67267524556604" y1="-6.26692519622147" x2="61.49201424920031" y2="3.235155099347743"/><line x1="58.19510672841862" y1="-6.52848225735198" x2="60.11500620687615" y2="3.4988073062109732"/><line x1="56.7175382112712" y1="-6.79003931848249" x2="58.73799816455199" y2="3.7624595130742042"/><line x1="55.257718313322314" y1="-6.9588985347236445" x2="57.36099012222783" y2="4.026111719937434"/><line x1="53.803434188774" y1="-7.09884540244422" x2="55.983982079903676" y2="4.2897639268006635"/><line x1="52.35447816253761" y1="-7.210964571268864" x2="54.60697403757951" y2="4.5534161336638945"/><line x1="50.90762271160118" y1="-7.312112813220022" x2="53.229965995255355" y2="4.817068340527125"/><line x1="49.460767260664745" y1="-7.413261055171182" x2="51.8529579529312" y2="5.080720547390354"/><line x1="48.013911809728306" y1="-7.51440929712234" x2="50.47594991060704" y2="5.344372754253584"/><line x1="46.56705635879187" y1="-7.615557539073499" x2="49.09894186828289" y2="5.608024961116814"/><line x1="45.120200907855434" y1="-7.7167057810246575" x2="47.72193382595873" y2="5.871677167980046"/><line x1="43.673345456918995" y1="-7.8178540229758156" x2="46.34492578363457" y2="6.135329374843275"/><line x1="42.22649000598256" y1="-7.919002264926974" x2="44.967917741310416" y2="6.398981581706505"/><line x1="40.779634555046115" y1="-8.020150506878132" x2="43.59090969898625" y2="6.662633788569736"/><line x1="39.33277910410969" y1="-8.12129874882929" x2="42.2139016566621" y2="6.9262859954329645"/><line x1="37.88592365317325" y1="-8.222446990780451" x2="40.83689361433794" y2="7.189938202296196"/><line x1="36.43906820223681" y1="-8.32359523273161" x2="39.458488026614766" y2="7.446291280975206"/><line x1="35.057208006738215" y1="-8.085284948939275" x2="37.92612639532825" y2="6.898559642619639"/><line x1="33.817236422828465" y1="-7.105915974242728" x2="36.39376476404171" y2="6.3508280042640655"/><line x1="39.38103350094446" y1="9.81046730332831" x2="62.62422554159679" y2="5.360152789753926"/><line x1="37.462856780392286" y1="11.667801186913394" x2="65.01065989766559" y2="6.3932938036129405"/><line x1="65.52361632869108" y1="7.785144842588089" x2="37.76460031418029" y2="13.100092618945833"/><line x1="65.79882622218902" y1="9.222516602841983" x2="38.0663438479683" y2="14.53238405097827"/><line x1="66.07403611568695" y1="10.65988836309588" x2="38.3680873817563" y2="15.964675483010708"/><line x1="66.34924600918488" y1="12.097260123349773" x2="38.66983091554431" y2="17.396966915043148"/><line x1="66.62445590268281" y1="13.534631883603666" x2="38.97157444933231" y2="18.82925834707558"/><line x1="66.89966579618074" y1="14.972003643857562" x2="39.27331798312032" y2="20.261549779108016"/><line x1="67.17487568967867" y1="16.409375404111458" x2="39.57506151690832" y2="21.693841211140455"/><line x1="67.4500855831766" y1="17.846747164365354" x2="39.95939293093713" y2="23.110319753039814"/><line x1="67.72529547667453" y1="19.28411892461925" x2="41.434058358143275" y2="24.318034830996684"/><line x1="68.00050537017246" y1="20.721490684873146" x2="45.54148869184121" y2="25.02166114809415"/><line x1="67.97387320837741" y1="22.216655371207413" x2="50.63848905044861" y2="25.535817024283563"/><line x1="67.24659677688852" y1="23.84597062329951" x2="56.153522297264686" y2="25.969933212882196"/><path d="M 60.216439479693314,-3.053545450315861 L 58.19525906998941,-2.666555208350582 L 57.839001445323625,-4.527224687057326 L 57.56500129439872,-5.958278179499176 L 59.58618170410262,-6.345268421464455 L 60.89551846844217,-6.595963781865276 L 61.169518619367075,-5.164910289423426 L 59.86018185502753,-4.914214929022605 Z" fill="#99948A" stroke="#1A1917" stroke-width="0.3"/></g><g fill-rule="nonzero" stroke="#99948A" stroke-width="0.3" stroke-linecap="butt"><line x1="56.52166887871448" y1="-9.435673364301921" x2="51.37952682089497" y2="-20.738607262928742"/><line x1="58.22522691124163" y1="-8.554244291598494" x2="52.21351729750685" y2="-21.768573187560033"/><line x1="59.6418751045829" y1="-8.30347125887204" x2="53.04750777411873" y2="-22.798539112191317"/><line x1="61.05852329792418" y1="-8.052698226145584" x2="54.09232687149498" y2="-23.36508299642709"/><line x1="62.475171491265456" y1="-7.80192519341913" x2="55.17152741200782" y2="-23.856053087729386"/><line x1="63.59215137968505" y1="-8.209852562968141" x2="56.250727952520656" y2="-24.34702317903168"/><line x1="64.6329971062569" y1="-8.78513030695575" x2="57.329928493033485" y2="-24.837993270333975"/><line x1="65.53629045157246" y1="-9.662761711238302" x2="58.40912903354632" y2="-25.32896336163627"/><line x1="66.43658331452353" y1="-10.546988470812206" x2="59.48832957405915" y2="-25.81993345293856"/><line x1="67.33687617747461" y1="-11.431215230386123" x2="60.56753011457199" y2="-26.310903544240855"/><line x1="68.23716904042567" y1="-12.315441989960027" x2="61.64673065508482" y2="-26.80187363554315"/><line x1="69.13746190337675" y1="-13.19966874953394" x2="62.72593119559765" y2="-27.29284372684544"/><line x1="70.03775476632782" y1="-14.083895509107846" x2="63.80513173611049" y2="-27.783813818147735"/><line x1="70.93804762927888" y1="-14.968122268681752" x2="64.88433227662333" y2="-28.27478390945003"/><line x1="71.83834049222995" y1="-15.852349028255658" x2="65.96353281713616" y2="-28.76575400075232"/><line x1="72.73863335518102" y1="-16.73657578782957" x2="67.04273335764898" y2="-29.25672409205461"/><line x1="73.6389262181321" y1="-17.62080254740348" x2="68.12193389816183" y2="-29.74769418335691"/><line x1="74.49640124921905" y1="-18.59914711193122" x2="69.20113443867467" y2="-30.238664274659207"/><line x1="75.28666476738421" y1="-19.72522919114438" x2="70.2803349791875" y2="-30.7296343659615"/><line x1="75.97943110221877" y1="-21.06561966676059" x2="71.35953551970033" y2="-31.22060445726379"/><line x1="76.54149140930102" y1="-22.693314844429917" x2="72.43873606021317" y2="-31.711574548566084"/><line x1="77.10355171638327" y1="-24.321010022099244" x2="73.51793660072602" y2="-32.20254463986838"/><line x1="77.66561202346551" y1="-25.948705199768554" x2="74.65147950258942" y2="-32.57406487713431"/><line x1="78.22767233054776" y1="-27.576400377437857" x2="75.80680526346544" y2="-32.89770424826037"/><line x1="77.6963715317457" y1="-31.607410782143205" x2="78.66663090924327" y2="-29.474685259381527"/><line x1="73.02118972785361" y1="-34.50338473490156" x2="51.756218036103995" y2="-24.829126150785495"/><line x1="74.33503264658427" y1="-36.56023319843445" x2="49.323195393718066" y2="-25.18138046561211"/><line x1="48.52925682680798" y1="-26.27931755947635" x2="73.60233172561135" y2="-37.686029667352955"/><line x1="47.979271864711464" y1="-27.488238589256635" x2="72.85008127038148" y2="-38.80293229656443"/><line x1="47.429286902614955" y1="-28.697159619036924" x2="72.09783081515161" y2="-39.91983492577591"/><line x1="46.87930194051844" y1="-29.906080648817206" x2="71.34558035992175" y2="-41.03673755498738"/><line x1="46.32931697842193" y1="-31.115001678597494" x2="70.59332990469188" y2="-42.15364018419886"/><line x1="45.77933201632541" y1="-32.32392270837778" x2="69.84107944946201" y2="-43.27054281341034"/><line x1="45.229347054228896" y1="-33.532843738158064" x2="69.08882899423216" y2="-44.38744544262181"/><line x1="44.67936209213238" y1="-34.74176476793835" x2="68.33657853900229" y2="-45.50434807183329"/><line x1="44.12937713003587" y1="-35.95068579771864" x2="67.58432808377242" y2="-46.62125070104477"/><line x1="43.57939216793935" y1="-37.15960682749892" x2="66.82881335848353" y2="-47.73666828747805"/><line x1="43.0781174016226" y1="-38.39068801044034" x2="66.0462854576303" y2="-48.839796534928155"/><line x1="44.33277514629582" y1="-40.420610847808426" x2="49.71992760402343" y2="-42.87143498543629"/><path d="M 63.36571225065023,-13.116407469286978 L 64.73406848189549,-13.7389256747257 L 65.35089809295272,-12.383073533322218 L 65.68561650658462,-11.647329545428775 L 66.20488369375691,-10.505929205582264 L 64.83652746251165,-9.883411000143543 L 63.17526622843132,-9.127638973393264 L 62.65599904125904,-10.269039313239775 L 64.31726027533936,-11.024811339990054 L 63.98254186170746,-11.760555327883496 Z" fill="#99948A" stroke="#1A1917" stroke-width="0.3"/></g><g fill-rule="nonzero" stroke="#99948A" stroke-width="0.3" stroke-linecap="butt"><line x1="43.28929049681225" y1="-71.56376974276249" x2="45.89132109328003" y2="-68.39616721071963"/><line x1="37.31745996246097" y1="-76.67541966598196" x2="45.343104738921724" y2="-66.90533750411048"/><line x1="35.829707297562614" y1="-76.32834191995812" x2="44.51250544392114" y2="-65.7582689043071"/><line x1="34.65336681802259" y1="-75.60216408641446" x2="43.45394370190965" y2="-64.88871219285072"/><line x1="33.477026338482574" y1="-74.87598625287083" x2="42.39538195989817" y2="-64.01915548139434"/><line x1="32.30068585894256" y1="-74.14980841932719" x2="41.336820217886675" y2="-63.14959876993794"/><line x1="31.124345379402527" y1="-73.42363058578354" x2="40.278258475875184" y2="-62.28004205848155"/><line x1="29.94800489986251" y1="-72.69745275223991" x2="39.2196967338637" y2="-61.41048534702516"/><line x1="28.771664420322487" y1="-71.97127491869627" x2="38.16113499185221" y2="-60.540928635568775"/><line x1="27.687706262910957" y1="-71.13263473444567" x2="37.102573249840724" y2="-59.671371924112385"/><line x1="26.778584842637045" y1="-70.08115566505549" x2="36.04401150782923" y2="-58.801815212655995"/><line x1="26.08163663797219" y1="-68.77138585307866" x2="34.98544976581774" y2="-57.932258501199605"/><line x1="25.490143243136494" y1="-67.33323979407213" x2="33.92688802380625" y2="-57.062701789743215"/><line x1="24.898649848300796" y1="-65.8950937350656" x2="32.868326281794765" y2="-56.193145078286825"/><line x1="24.3071564534651" y1="-64.45694767605907" x2="31.809764539783274" y2="-55.32358836683044"/><line x1="23.715663058629406" y1="-63.018801617052546" x2="30.751202797771786" y2="-54.45403165537405"/><line x1="23.124169663793708" y1="-61.58065555804601" x2="29.477215344450222" y2="-53.84672513787743"/><line x1="22.9620634240506" y1="-59.61979164877888" x2="28.076652833294904" y2="-53.39350576840741"/><line x1="31.420507549091408" y1="-52.027325376544134" x2="46.93811886648584" y2="-64.77428432215233"/><line x1="30.841859982537756" y1="-49.88749767667964" x2="48.9159860378529" y2="-64.73450847573181"/><line x1="50.32121161214424" y1="-64.2243355572897" x2="31.675643614820487" y2="-48.90791314419501"/><line x1="51.21361616499493" y1="-63.29290524471364" x2="32.50942724710322" y2="-47.928328611710384"/><line x1="52.10602071784561" y1="-62.36147493213758" x2="33.34321087938595" y2="-46.94874407922576"/><line x1="52.998425270696295" y1="-61.43004461956152" x2="34.17699451166868" y2="-45.96915954674114"/><line x1="53.89082982354697" y1="-60.498614306985466" x2="35.01077814395141" y2="-44.989575014256516"/><line x1="54.78323437639766" y1="-59.567183994409405" x2="35.844561776234144" y2="-44.009990481771894"/><line x1="55.67563892924834" y1="-58.63575368183334" x2="36.678345408516876" y2="-43.03040594928727"/><line x1="56.56804348209902" y1="-57.70432336925729" x2="37.568090779852234" y2="-42.096791249120145"/><line x1="57.46044803494971" y1="-56.77289305668123" x2="38.84045986074767" y2="-41.47748321752587"/><line x1="58.35285258780039" y1="-55.84146274410517" x2="41.22945626326164" y2="-41.7754299318512"/><line x1="59.24525714065108" y1="-54.91003243152911" x2="44.92504647425891" y2="-43.1466795724235"/><line x1="60.137661693501755" y1="-53.978602118953056" x2="48.786185025103904" y2="-44.653919079502316"/><line x1="61.03006624635244" y1="-53.047171806376994" x2="52.6473235759489" y2="-46.16115858658114"/><line x1="61.922470799203126" y1="-52.11574149380094" x2="56.5084621267939" y2="-47.66839809365996"/><line x1="61.42863884830901" y1="-50.045585675042695" x2="60.369600677638886" y2="-49.17563760073878"/></g><g fill-rule="nonzero" stroke="#99948A" stroke-width="0.3" stroke-linecap="butt"><line x1="2.6715017214223273" y1="-91.925849486484" x2="11.504301992702935" y2="-83.56616113088072"/><line x1="1.1691457361049729" y1="-91.61371991052228" x2="11.115913866105094" y2="-82.19973123666854"/><line x1="-0.1748643894948394" y1="-91.15172596550617" x2="10.727525739507248" y2="-80.83330134245637"/><line x1="-1.1279972046846503" y1="-90.31979129954698" x2="9.864447748941979" y2="-79.91613546491556"/><line x1="-2.081130019874461" y1="-89.48785663358778" x2="8.99875249140739" y2="-79.0014466654853"/><line x1="-3.034262835064279" y1="-88.65592196762859" x2="8.133057233872796" y2="-78.08675786605504"/><line x1="-3.9873956502540917" y1="-87.82398730166939" x2="7.26736197633821" y2="-77.17206906662479"/><line x1="-4.940528465443904" y1="-86.9920526357102" x2="6.401666718803621" y2="-76.25738026719453"/><line x1="-5.893661280633717" y1="-86.160117969751" x2="5.535971461269034" y2="-75.34269146776427"/><line x1="-6.846794095823535" y1="-85.3281833037918" x2="4.670276203734439" y2="-74.42800266833402"/><line x1="-7.799926911013348" y1="-84.49624863783261" x2="3.8045809461998523" y2="-73.51331386890377"/><line x1="-8.75305972620316" y1="-83.66431397187341" x2="2.9388856886652652" y2="-72.5986250694735"/><line x1="-9.706192541392971" y1="-82.83237930591423" x2="2.073190431130678" y2="-71.68393627004325"/><line x1="-10.65932535658279" y1="-82.00044463995502" x2="1.207495173596083" y2="-70.769247470613"/><line x1="-11.612458171772602" y1="-81.16850997399582" x2="0.3417999160614933" y2="-69.85455867118274"/><line x1="-12.565590986962421" y1="-80.33657530803663" x2="-0.5238953414731" y2="-68.93986987175248"/><line x1="-13.518723802152234" y1="-79.50464064207743" x2="-1.389590599007688" y2="-68.02518107232223"/><line x1="-14.471856617342045" y1="-78.67270597611824" x2="-2.255285856542276" y2="-67.11049227289196"/><line x1="-15.042790159095293" y1="-77.47904380387132" x2="-3.120981114076873" y2="-66.19580347346171"/><line x1="-15.441293117561585" y1="-76.12218696006136" x2="-3.986676371611459" y2="-65.28111467403146"/><line x1="-14.240234203576806" y1="-73.25144569132284" x2="-4.8527846620475" y2="-64.36681678419166"/><line x1="-11.01182902712222" y1="-68.46194905366129" x2="-5.727663056442634" y2="-63.46081924460236"/><line x1="-7.776119100951622" y1="-63.6655389311177" x2="-6.602541450837767" y2="-62.55482170501307"/><line x1="-3.388155945770288" y1="-62.56750852013457" x2="12.80826203892178" y2="-79.6805537777455"/><line x1="15.276529491895925" y1="-80.40904365887074" x2="-3.6669584765008416" y2="-60.39345951881093"/><line x1="16.214841204010202" y1="-79.52099080442183" x2="-2.55598468591943" y2="-59.68784045718421"/><line x1="17.15315291612448" y1="-78.63293794997291" x2="-1.4450108953380258" y2="-58.9822213955575"/><line x1="18.091464628238757" y1="-77.744885095524" x2="-0.33403710475661086" y2="-58.27660233393078"/><line x1="19.02977634035304" y1="-76.85683224107507" x2="0.776936685824797" y2="-57.570983272304076"/><line x1="19.968088052467323" y1="-75.96877938662615" x2="1.887910476406205" y2="-56.86536421067737"/><line x1="20.9063997645816" y1="-75.08072653217724" x2="2.998884266987613" y2="-56.15974514905065"/><line x1="21.844711476695878" y1="-74.19267367772832" x2="4.490456339154612" y2="-55.85626411719688"/><line x1="22.783023188810155" y1="-73.30462082327941" x2="6.3313678765523385" y2="-55.92189322342509"/><line x1="23.72133490092444" y1="-72.41656796883048" x2="8.87916383164026" y2="-56.7344124780346"/><line x1="24.227429951936916" y1="-71.07183739159622" x2="11.42695978672819" y2="-57.54693173264411"/><line x1="23.9883216996257" y1="-68.93972914431464" x2="13.974755741816118" y2="-58.359450987253624"/><line x1="22.62122424444163" y1="-65.61579377222657" x2="16.52255169690404" y2="-59.171970241863136"/><line x1="21.254126789257562" y1="-62.2918584001385" x2="19.38235277480492" y2="-60.31415237578035"/></g><g fill-rule="nonzero" stroke="#99948A" stroke-width="0.3" stroke-linecap="butt"><line x1="76.94563609020072" y1="-15.964553443031654" x2="86.93237091947168" y2="-4.266493589574514"/><line x1="75.01101775013876" y1="-16.1651050363229" x2="86.53982481530463" y2="-2.6607237352410102"/><line x1="74.05184952231966" y1="-15.223053567436779" x2="85.95594023803389" y2="-1.2790800791996457"/><line x1="73.09268129450055" y1="-14.281002098550672" x2="84.93593393829633" y2="-0.40829188292841345"/><line x1="72.13351306668145" y1="-13.338950629664554" x2="83.91592763855877" y2="0.46249631334281815"/><line x1="71.17434483886232" y1="-12.396899160778439" x2="82.89592133882121" y2="1.3332845096140504"/><line x1="70.2151766110432" y1="-11.454847691892322" x2="81.87591503908367" y2="2.2040727058852747"/><line x1="69.2560083832241" y1="-10.512796223006205" x2="80.8559087393461" y2="3.074860902156507"/><line x1="68.29684015540498" y1="-9.57074475412009" x2="79.83590243960855" y2="3.9456490984277384"/><line x1="67.33767192758587" y1="-8.628693285233973" x2="78.81589613987099" y2="4.816437294698971"/><line x1="66.37850369976677" y1="-7.686641816347864" x2="77.79588984013343" y2="5.687225490970203"/><line x1="65.76827688191412" y1="-6.335854402338489" x2="76.77588354039587" y2="6.558013687241436"/><line x1="65.37573077774707" y1="-4.730084548004987" x2="75.75587724065832" y2="7.4288018835126675"/><line x1="65.61221763254986" y1="-2.387490763766099" x2="74.73587094092076" y2="8.299590079783899"/><line x1="66.12205419669814" y1="0.2752938852063096" x2="73.7158646411832" y2="9.170378276055123"/><line x1="66.63189076084643" y1="2.9380785341787234" x2="72.69585834144564" y2="10.041166472326356"/><line x1="67.14172732499472" y1="5.600863183151139" x2="71.67585204170808" y2="10.91195466859759"/><line x1="67.651563889143" y1="8.263647832123556" x2="70.65584574197052" y2="11.782742864868819"/><line x1="70.24849927423772" y1="15.154642507869212" x2="88.04785060616662" y2="-0.040817603618564124"/><line x1="69.42794202609366" y1="17.541351250167633" x2="90.47967330608462" y2="-0.4306937405413553"/><line x1="91.38278916091531" y1="0.48450037220352404" x2="69.70543465381012" y2="18.99064532055429"/><line x1="92.21544838182102" y1="1.4598439224436792" x2="69.98292728152659" y2="20.43993939094094"/><line x1="93.04810760272674" y1="2.4351874726838347" x2="70.26041990924304" y2="21.889233461327592"/><line x1="93.88076682363247" y1="3.410531022923983" x2="71.37458452666876" y2="22.624253420880766"/><line x1="94.7134260445382" y1="4.385874573164138" x2="73.83995050505817" y2="22.20574109713772"/><line x1="95.54608526544392" y1="5.361218123404293" x2="76.68422577724058" y2="21.46375063352699"/><line x1="96.37874448634963" y1="6.33656167364444" x2="79.52850104942299" y2="20.72176016991627"/><line x1="97.21140370725536" y1="7.3119052238845965" x2="82.40748965170901" y2="19.950134636291487"/><line x1="98.04406292816108" y1="8.28724877412475" x2="86.63549491388841" y2="18.02684191756145"/><line x1="98.87672214906681" y1="9.262592324364906" x2="91.94918598059787" y2="15.176689841504636"/><line x1="98.6497560703151" y1="11.14254715362309" x2="97.26287704730728" y2="12.326537765447851"/></g><g fill-rule="nonzero" stroke="#99948A" stroke-width="0.3" stroke-linecap="butt"><line x1="46.05859356362779" y1="-93.47251014799056" x2="57.19554878449912" y2="-86.06263274128055"/><line x1="46.65184711267476" y1="-94.69833792249472" x2="58.914912328114994" y2="-86.53921291258085"/><line x1="47.8792191035476" y1="-95.50226044353624" x2="59.68377944428918" y2="-87.64819771002705"/><line x1="49.228944212652735" y1="-96.2247763692876" x2="60.43114932391134" y2="-88.77148550899156"/><line x1="50.6092345474748" y1="-96.92695598489144" x2="61.17851920353352" y2="-89.89477330795606"/><line x1="51.98952488229685" y1="-97.62913560049527" x2="61.92588908315569" y2="-91.01806110692056"/><line x1="53.36981521711891" y1="-98.33131521609911" x2="62.673258962777865" y2="-92.14134890588507"/><line x1="54.75010555194096" y1="-99.03349483170294" x2="63.420628842400035" y2="-93.26463670484956"/><line x1="56.130395886763026" y1="-99.73567444730678" x2="64.1679987220222" y2="-94.38792450381408"/><line x1="57.51068622158508" y1="-100.43785406291062" x2="64.91536860164437" y2="-95.51121230277857"/><line x1="58.89097655640714" y1="-101.14003367851444" x2="65.66273848126654" y2="-96.63450010174309"/><line x1="60.2712668912292" y1="-101.84221329411828" x2="66.40057338802337" y2="-97.76413191292703"/><line x1="62.0795176924925" y1="-102.25965309274726" x2="66.71682119346457" y2="-99.17426307739422"/><line x1="82.07009790499303" y1="-88.95909241651935" x2="69.95893722094235" y2="-97.01714905246591"/><line x1="82.99931723151923" y1="-86.57297822883986" x2="68.00728401887969" y2="-96.54779863350454"/><line x1="83.14477500847254" y1="-84.70833304981227" x2="67.19197142292822" y2="-95.3223937619069"/><line x1="83.29023278542583" y1="-82.84368787078468" x2="66.37665882697675" y2="-94.09698889030926"/><line x1="83.43569056237914" y1="-80.97904269175709" x2="65.5613462310253" y2="-92.87158401871162"/><line x1="83.06305268918175" y1="-79.45910799925203" x2="64.74603363507383" y2="-91.64617914711398"/><line x1="82.36498447545603" y1="-78.15569558594407" x2="63.930721039122375" y2="-90.42077427551634"/><line x1="81.60396985149" y1="-76.8941640255104" x2="63.115408443170914" y2="-89.1953694039187"/><line x1="80.84295522752399" y1="-75.63263246507675" x2="62.30009584721945" y2="-87.96996453232107"/><line x1="80.08194060355797" y1="-74.37110090464309" x2="61.48478325126799" y2="-86.74455966072343"/><line x1="79.32092597959195" y1="-73.10956934420942" x2="60.66947065531653" y2="-85.51915478912578"/><line x1="77.25712087201943" y1="-72.71483823135785" x2="61.39141977662614" y2="-83.27094605049042"/><line x1="43.482503139854394" y1="-88.14958676022741" x2="44.75544579140259" y2="-90.06280401483298"/><line x1="39.913592864003846" y1="-79.58597776803423" x2="46.59568836854783" y2="-89.62908568076469"/><line x1="40.84021432344722" y1="-77.77909805514557" x2="48.404955693669265" y2="-89.14881192130815"/><line x1="41.79491832017677" y1="-76.01442605273283" x2="49.8805528801371" y2="-88.16703601967555"/><line x1="43.05127235666837" y1="-74.70313037502983" x2="51.35615006660494" y2="-87.18526011804295"/><line x1="44.30762639315998" y1="-73.39183469732684" x2="52.83174725307277" y2="-86.20348421641035"/><line x1="45.563980429651586" y1="-72.08053901962386" x2="54.307344439540614" y2="-85.22170831477773"/><line x1="46.82033446614319" y1="-70.76924334192087" x2="55.78294162600845" y2="-84.23993241314513"/><line x1="48.076688502634795" y1="-69.45794766421788" x2="57.25853881247629" y2="-83.25815651151252"/><line x1="49.333042539126396" y1="-68.1466519865149" x2="58.73413599894412" y2="-82.27638060987991"/><line x1="50.589396575618" y1="-66.83535630881191" x2="60.209733185411956" y2="-81.29460470824732"/><line x1="51.8457506121096" y1="-65.52406063110892" x2="61.68533037187979" y2="-80.3128288066147"/><line x1="53.102104648601205" y1="-64.21276495340594" x2="63.16092755834763" y2="-79.3310529049821"/><line x1="54.35845868509281" y1="-62.90146927570295" x2="64.63652474481546" y2="-78.3492770033495"/><line x1="55.614812721584414" y1="-61.590173597999964" x2="66.1121219312833" y2="-77.3675011017169"/><line x1="56.871166758076015" y1="-60.27887792029698" x2="67.58771911775113" y2="-76.3857252000843"/><line x1="58.12752079456762" y1="-58.96758224259399" x2="69.06331630421897" y2="-75.40394929845168"/><line x1="59.38387483105922" y1="-57.656286564891005" x2="70.53891349068681" y2="-74.42217339681909"/><line x1="60.64022886755083" y1="-56.34499088718801" x2="72.01451067715465" y2="-73.44039749518647"/><line x1="61.89658290404243" y1="-55.03369520948503" x2="73.49010786362247" y2="-72.45862159355387"/><line x1="63.15319052244631" y1="-53.72278066229836" x2="74.66109284198961" y2="-71.01901726438534"/><line x1="64.41378752836958" y1="-52.41786211581771" x2="75.59340204369886" y2="-69.220686158639"/><line x1="69.71553869983953" y1="-57.18674891213202" x2="65.67438453429286" y2="-51.11294356933706"/><path d="M 50.19314397958386,-85.12661522631967 L 51.33027386715605,-84.37003563204914 L 52.23790686528552,-83.76614982007963 L 53.28549606932644,-83.06914534977443 L 52.65548522338679,-82.12224674473956 L 51.607896019345866,-82.81925121504476 L 50.386750249575556,-80.98388404098422 L 49.47911725144609,-81.58776985295373 L 50.7002630212164,-83.42313702701426 L 49.56313313364421,-84.1797166212848 Z" fill="#99948A" stroke="#1A1917" stroke-width="0.3"/></g><g fill-rule="nonzero" stroke="#99948A" stroke-width="0.3" stroke-linecap="butt"><line x1="9.249508210087273" y1="-111.39832056757163" x2="21.568154141607543" y2="-105.66906658367212"/><line x1="7.512986629923951" y1="-110.22824220721253" x2="21.995409174779276" y2="-103.49264175868268"/><line x1="7.018514780778926" y1="-108.48050146340674" x2="21.347309814022175" y2="-101.81635132182076"/><line x1="6.524042931633904" y1="-106.73276071960096" x2="20.59107725226426" y2="-100.19035233550218"/><line x1="6.02957108248888" y1="-104.98501997579517" x2="19.83484469050634" y2="-98.56435334918359"/><line x1="5.535099233343855" y1="-103.23727923198939" x2="19.078612128748418" y2="-96.938354362865"/><line x1="5.040627384198832" y1="-101.4895384881836" x2="18.3223795669905" y2="-95.3123553765464"/><line x1="4.546155535053806" y1="-99.7417977443778" x2="17.56614700523258" y2="-93.68635639022781"/><line x1="4.051683685908783" y1="-97.99405700057201" x2="16.80991444347466" y2="-92.06035740390922"/><line x1="3.6564094831288916" y1="-96.20018062515621" x2="16.053681881716738" y2="-90.43435841759063"/><line x1="4.083664516300621" y1="-94.02375580016677" x2="15.297449319958819" y2="-88.80835943127204"/><line x1="7.636309173546449" y1="-90.39374987101168" x2="14.541216758200896" y2="-87.18236044495345"/><line x1="11.744999141385836" y1="-86.50513395918023" x2="12.762639812360355" y2="-86.0318415290893"/><line x1="37.979846656643865" y1="-81.37064276027652" x2="20.40843909296808" y2="-91.45798664035956"/><line x1="37.29030180164522" y1="-79.94585021351192" x2="18.419708967111312" y2="-90.77902669372067"/><line x1="36.05810148113413" y1="-78.8325837792226" x2="17.751388314009898" y2="-89.34204981725216"/><line x1="34.54073538485609" y1="-77.88302450570386" x2="17.083067660908483" y2="-87.90507294078365"/><line x1="33.01257548499096" y1="-76.93966170837305" x2="16.41474700780707" y2="-86.46809606431513"/><line x1="31.48441558512582" y1="-75.99629891104225" x2="15.746426354705651" y2="-85.03111918784663"/><line x1="29.956255685260693" y1="-75.05293611371144" x2="15.840661555099661" y2="-83.15637640707571"/><line x1="28.428095785395563" y1="-74.10957331638065" x2="19.313421070328534" y2="-79.34209995790289"/><line x1="26.01307705709388" y1="-73.67533592309661" x2="24.2028981177345" y2="-74.71451832095696"/><line x1="24.662734574923046" y1="-103.49095891621107" x2="20.7311128998" y2="-95.03745772938346"/><line x1="26.37247314481984" y1="-103.55586452202981" x2="21.724798553206178" y2="-93.5627558450702"/><line x1="27.833492786066742" y1="-103.08599187798998" x2="22.97391393003592" y2="-92.63726129771278"/><line x1="29.214354696103527" y1="-102.44376962050546" x2="24.299530780416124" y2="-91.8762549312871"/><line x1="30.59521660614031" y1="-101.80154736302096" x2="25.62514763079632" y2="-91.11524856486142"/><line x1="31.97607851617709" y1="-101.15932510553645" x2="26.95076448117652" y2="-90.35424219843574"/><line x1="33.356940426213875" y1="-100.51710284805195" x2="28.276381331556713" y2="-89.59323583201005"/><line x1="34.73780233625065" y1="-99.87488059056744" x2="29.60199818193691" y2="-88.83222946558438"/><line x1="36.11866424628743" y1="-99.23265833308292" x2="30.927615032317114" y2="-88.07122309915869"/><line x1="37.499526156324215" y1="-98.59043607559842" x2="32.25323188269731" y2="-87.31021673273301"/><line x1="38.880388066361" y1="-97.94821381811391" x2="33.57884873307751" y2="-86.54921036630732"/><line x1="40.261249976397785" y1="-97.30599156062941" x2="34.90446558345771" y2="-85.78820399988165"/><line x1="41.64211188643456" y1="-96.66376930314489" x2="36.23008243383791" y2="-85.02719763345596"/><line x1="42.93373977922317" y1="-95.82968222929571" x2="37.690063502717386" y2="-84.55509192289394"/><line x1="43.927425432629356" y1="-94.35498034498245" x2="39.39980207261418" y2="-84.61999752871269"/><path d="M 40.49092355141756,-97.35767682240478 L 41.46559133756987,-96.904370563922 L 42.51339304853592,-96.41705059707982 L 43.656318523559094,-95.88548971226523 L 43.31468096295637,-95.15092424217086 L 42.1717554879332,-95.68248512698545 L 41.39766938078413,-94.01809868133726 L 40.978307266522656,-93.11641524799701 L 39.93050555555661,-93.60373521483919 L 38.9558377694043,-94.05704147332197 L 39.37519988366577,-94.95872490666223 L 40.14928599081484,-96.62311135231042 Z" fill="#99948A" stroke="#1A1917" stroke-width="0.3"/></g><g fill-rule="nonzero" stroke="#99948A" stroke-width="0.3" stroke-linecap="butt"><line x1="86.1018928406862" y1="-76.92217401340466" x2="99.15327928705433" y2="-66.67728210835135"/><line x1="84.79172615689268" y1="-76.29918308458463" x2="98.85087806910038" y2="-65.26322976198782"/><line x1="83.48155947309915" y1="-75.6761921557646" x2="98.54847685114642" y2="-63.84917741562429"/><line x1="82.61777090785786" y1="-74.70280967336205" x2="98.05185641700871" y2="-62.58758051021053"/><line x1="81.94169435287957" y1="-73.58207968406231" x2="97.19341004662819" y2="-61.61000458758543"/><line x1="81.26561779790126" y1="-72.46134969476253" x2="96.33496367624767" y2="-60.63242866496034"/><line x1="80.58954124292296" y1="-71.34061970546279" x2="95.47651730586716" y2="-59.65485274233524"/><line x1="79.91346468794465" y1="-70.21988971616301" x2="94.61807093548664" y2="-58.677276819710144"/><line x1="79.23738813296636" y1="-69.09915972686326" x2="93.75962456510612" y2="-57.699700897085044"/><line x1="78.56131157798805" y1="-67.97842973756349" x2="92.9011781947256" y2="-56.72212497445995"/><line x1="77.88523502300976" y1="-66.85769974826374" x2="92.04273182434508" y2="-55.74454905183485"/><line x1="77.20915846803145" y1="-65.73696975896397" x2="91.18428545396456" y2="-54.76697312920975"/><line x1="76.53308191305314" y1="-64.6162397696642" x2="90.32583908358404" y2="-53.78939720658466"/><line x1="75.85700535807484" y1="-63.495509780364436" x2="89.46739271320354" y2="-52.81182128395956"/><line x1="75.18092880309653" y1="-62.374779791064675" x2="88.60894634282302" y2="-51.83424536133447"/><line x1="74.50485224811824" y1="-61.25404980176492" x2="87.7504999724425" y2="-50.856669438709375"/><line x1="73.82877569313993" y1="-60.13331981246516" x2="86.89205360206198" y2="-49.879093516084275"/><line x1="73.15269913816164" y1="-59.0125898231654" x2="86.03360723168147" y2="-48.90151759345918"/><line x1="72.47662258318333" y1="-57.89185983386564" x2="85.17516086130095" y2="-47.92394167083408"/><line x1="71.80054602820503" y1="-56.77112984456588" x2="84.31671449092043" y2="-46.94636574820899"/><line x1="71.12446947322672" y1="-55.650399855266116" x2="83.45826812053991" y2="-45.9687898255839"/><line x1="70.44839291824843" y1="-54.529669865966355" x2="82.5998217501594" y2="-44.9912139029588"/><line x1="69.77231636327012" y1="-53.408939876666594" x2="81.74137537977889" y2="-44.013637980333705"/><line x1="69.2786493934954" y1="-52.145024602758525" x2="80.88292900939837" y2="-43.03606205770861"/><line x1="68.97624817554144" y1="-50.73097225639499" x2="80.02448263901786" y2="-42.05848613508352"/><line x1="68.67384695758749" y1="-49.316919910031466" x2="79.16603626863734" y2="-41.08091021245843"/><line x1="69.98612226469612" y1="-46.63540172554646" x2="78.17386548865939" y2="-40.20830337698912"/><line x1="72.34603666714851" y1="-43.13152268833448" x2="76.86369880486586" y2="-39.5853124481691"/><line x1="74.7059510696009" y1="-39.62764365112249" x2="75.55353212107235" y2="-38.962321519349075"/><line x1="89.02579308571475" y1="-47.32986064484551" x2="95.07021716814752" y2="-34.35217652410363"/><line x1="94.08933503225036" y1="-32.87445434135033" x2="87.3422696352736" y2="-47.360744891088"/><line x1="92.52421407884803" y1="-32.651122439830644" x2="86.25160691981478" y2="-46.11872716333544"/><line x1="90.95909312544569" y1="-32.427790538310965" x2="85.16094420435597" y2="-44.87670943558288"/><line x1="89.39397217204335" y1="-32.20445863679129" x2="84.07028148889715" y2="-43.63469170783033"/><line x1="87.82885121864099" y1="-31.9811267352716" x2="82.97961877343835" y2="-42.39267398007776"/><line x1="86.26373026523866" y1="-31.757794833751923" x2="81.88895605797954" y2="-41.15065625232521"/><line x1="84.69860931183632" y1="-31.53446293223224" x2="80.79829334252072" y2="-39.90863852457265"/><line x1="83.133488358434" y1="-31.311131030712563" x2="79.70763062706192" y2="-38.666620796820105"/><line x1="81.49248547092452" y1="-31.250721478432958" x2="78.6169679116031" y2="-37.424603069067544"/><line x1="78.64733099038271" y1="-33.77568628022617" x2="77.7374779387788" y2="-35.729186785646746"/><line x1="94.9163840080855" y1="-55.985945138352776" x2="91.23866445339564" y2="-51.30074791084993"/><line x1="102.4588881084308" y1="-63.025932969135724" x2="91.0323642649029" y2="-48.469217309992196"/><line x1="104.37989769313504" y1="-62.90446921900143" x2="91.78323325017581" y2="-46.8570636334732"/><line x1="105.65251428308005" y1="-61.95699113683242" x2="92.53410223544873" y2="-45.24490995695422"/><line x1="106.90012614163716" y1="-60.977658505551936" x2="93.28497122072164" y2="-43.63275628043523"/><line x1="108.14773800019427" y1="-59.998325874271444" x2="94.03584020599456" y2="-42.02060260391623"/><line x1="109.39534985875139" y1="-59.01899324299095" x2="94.78670919126748" y2="-40.40844892739724"/><line x1="110.6429617173085" y1="-58.03966061171046" x2="95.53757817654039" y2="-38.796295250878245"/><line x1="111.8905735758656" y1="-57.06032798042997" x2="96.28844716181331" y2="-37.18414157435926"/><line x1="113.13818543442271" y1="-56.08099534914948" x2="97.03931614708623" y2="-35.57198789784026"/><line x1="114.38579729297983" y1="-55.10166271786899" x2="98.33861513535294" y2="-34.65850161324604"/><line x1="115.63340915153694" y1="-54.12233008658849" x2="99.83700437739607" y2="-33.99864453858619"/><line x1="116.88102101009406" y1="-53.142997455308006" x2="101.83893419204468" y2="-33.98026837611221"/><line x1="118.12863286865117" y1="-52.16366482402752" x2="104.10962709950861" y2="-34.30428050034374"/><line x1="119.37624472720827" y1="-51.184332192747014" x2="106.38032000697257" y2="-34.62829262457527"/><line x1="120.62385658576538" y1="-50.20499956146653" x2="108.65101291443652" y2="-34.95230474880681"/><line x1="121.61713746420544" y1="-48.901664301602516" x2="110.92170582190047" y2="-35.27631687303835"/><line x1="122.55329476637814" y1="-47.525556983626686" x2="113.19239872936443" y2="-35.600328997269884"/><line x1="122.39392991417662" y1="-44.7538192256417" x2="115.46309163682838" y2="-35.92434112150141"/><line x1="121.96017167587317" y1="-41.63252052025647" x2="117.73378454429233" y2="-36.24835324573295"/><line x1="121.52641343756973" y1="-38.511221814871206" x2="120.72097124362372" y2="-37.48513609031468"/></g><g id="labels" style="font: bold italic 1px &quot;Archivo Narrow&quot;, sans-serif" fill="#1A1917"><text text-anchor="middle" stroke="#CCC5B8" stroke-width="0.6685839712648444" x="0.36123139425505235" y="1.047679590301825">Merchant</text><text text-anchor="middle" x="0.36123139425505235" y="1.047679590301825">Merchant</text><text text-anchor="middle" stroke="#CCC5B8" stroke-width="0.6685839712648444" x="-0.384355257687051" y="-15.219810969711853">Craftsmen</text><text text-anchor="middle" x="-0.384355257687051" y="-15.219810969711853">Craftsmen</text><text text-anchor="middle" stroke="#CCC5B8" stroke-width="0.6685839712648444" x="11.510725676470361" y="18.033771868803267">Craftsmen</text><text text-anchor="middle" x="11.510725676470361" y="18.033771868803267">Craftsmen</text><text text-anchor="middle" stroke="#CCC5B8" stroke-width="0.6685839712648444" x="-13.195511571690025" y="20.611642848350442">Craftsmen</text><text text-anchor="middle" x="-13.195511571690025" y="20.611642848350442">Craftsmen</text></g></g></svg>