<svg width="82.93636645492869" height="85.90049432303944" xmlns="http://www.w3.org/2000/svg"><rect x="0" y="0" width="82.93636645492869" height="85.90049432303944" id="background" fill="#CCC5B8"/><g id="map" transform="translate(41.468183227464344 42.95024716151972)"><g fill="none"><path d="M 3.963096784604083,-22.511774185062087 L 3.5740033902541937,-33.89187263459977 C 3.504140426451226,-35.93520572017593 3.539370238086589,-39.95849736947835 6.137142300125656,-44.4627208614895 C 8.868528109399538,-49.198614478814996 14.719945977383002,-52.77592542801619 18.041983194499984,-58.977604931326105 C 21.350164526125603,-65.15341784873227 20.842443110079316,-72.30784959180252 23.73376567094804,-77.31262932247908 C 25.857269803241955,-80.98834180891966 25.857269803241955,-80.98834180891966 33.42128349487611,-85.59864384861108" stroke="#67635C" stroke-width="2.3" stroke-linejoin="round" stroke-linecap="butt"/><path d="M 3.963096784604083,-22.511774185062087 L 3.5740033902541937,-33.89187263459977 C 3.504140426451226,-35.93520572017593 3.539370238086589,-39.95849736947835 6.137142300125656,-44.4627208614895 C 8.868528109399538,-49.198614478814996 14.719945977383002,-52.77592542801619 18.041983194499984,-58.977604931326105 C 21.350164526125603,-65.15341784873227 20.842443110079316,-72.30784959180252 23.73376567094804,-77.31262932247908 C 25.857269803241955,-80.98834180891966 25.857269803241955,-80.98834180891966 33.42128349487611,-85.59864384861108" stroke="#CCC5B8" stroke-width="1.7" stroke-linejoin="round" stroke-linecap="round"/></g><g fill="none"><path d="M -0.06671326413395304,15.53291115716678 L -1.2551094736098958,28.832522702024328 C -1.5365687764354727,31.982397603524824 -2.8177675471378976,35.984983537959955 -4.14256602325318,40.934440787104215 C -4.908941250085207,43.79762450175568 -6.140022193557142,46.64566870611634 -6.84876181172632,49.730450661049176 C -7.908578011025939,54.34328985238754 -8.715736977657548,58.93890893924801 -9.315545111676506,63.44977947585255 C -9.688227649785146,66.25254686981411 -10.104701578978277,69.06030241398109 -9.776434493458092,71.74807878549278 C -9.422089421945687,74.64937578596255 -7.353917862574383,78.74733725014615 -6.7367857647360365,84.56407556660494 C -6.1580866913013415,90.01856591954156 -3.364942553530691,100.01408723479089 -5.285232855447158,114.0796067456602 C -8.947686237418376,140.9059201683514 -8.947686237418376,140.9059201683514 -21.639887126616816,193.7245825841088" stroke="#67635C" stroke-width="2.3" stroke-linejoin="round" stroke-linecap="butt"/><path d="M -0.06671326413395304,15.53291115716678 L -1.2551094736098958,28.832522702024328 C -1.5365687764354727,31.982397603524824 -2.8177675471378976,35.984983537959955 -4.14256602325318,40.934440787104215 C -4.908941250085207,43.79762450175568 -6.140022193557142,46.64566870611634 -6.84876181172632,49.730450661049176 C -7.908578011025939,54.34328985238754 -8.715736977657548,58.93890893924801 -9.315545111676506,63.44977947585255 C -9.688227649785146,66.25254686981411 -10.104701578978277,69.06030241398109 -9.776434493458092,71.74807878549278 C -9.422089421945687,74.64937578596255 -7.353917862574383,78.74733725014615 -6.7367857647360365,84.56407556660494 C -6.1580866913013415,90.01856591954156 -3.364942553530691,100.01408723479089 -5.285232855447158,114.0796067456602 C -8.947686237418376,140.9059201683514 -8.947686237418376,140.9059201683514 -21.639887126616816,193.7245825841088" stroke="#CCC5B8" stroke-width="1.7" stroke-linejoin="round" stroke-linecap="round"/></g><g fill="#899795" stroke="#17292E" stroke-width="0.3"><polygon points="0.1450084076670082,-7.466624589402452 -0.08859357848736069,-5.498476650336263 -4.918338687211595,-6.071725250008418 -4.684736701057226,-8.039873189074605"/><polygon points="-5.296612750382173,-2.8846833498621307 -8.389612885284564,-3.251795476114054 -7.777736835959615,-8.406985315326526 -4.684736701057226,-8.039873189074605"/><polygon points="-8.389612885284564,-3.251795476114054 -5.654540209002699,-2.9271662158974 -3.001223937367933,-2.6122407274995783 -3.306643795959987,-0.03901147061898502 -3.6469530979665574,2.828168994818848 -5.455718684626509,2.6134843031122315 -7.320217608768921,2.392184550579907 -7.883805537464575,-0.5822806286643774"/><polygon points="4.53592579586751,-1.981341900205288 7.875141918406544,-1.5850060847208536 5.065273867481732,3.8622343120439293 3.8593331241089066,3.719099668938784"/><polygon points="5.490558793211908,-6.832154404328856 8.456154456571513,-6.480164077107683 7.875141918406544,-1.5850060847208536 4.9095462550469415,-1.9369964119420267"/><polygon points="-0.4360041304979595,-2.5714665970156214 -0.08558501207726954,-5.5238244818211015 0.14500840766700818,-7.466624589402452 2.0687647730426564,-7.238291495680807 5.490558793211908,-6.832154404328856 5.25996537346763,-4.8893542967475065 4.9095462550469415,-1.9369964119420267 1.4877522348776888,-2.3431335032939775"/><polygon points="-0.6117258951165248,10.074958540207428 1.5053511402725286,5.9707702504979965 3.458041200741254,6.978032830193987 1.3409641653522013,11.08222111990342"/><polygon points="-2.6893984449519515,5.754008887338533 0.7120838421724336,7.508606758593484 -0.6117258951165248,10.074958540207428 -3.916786314560013,8.133436200171808"/><polygon points="1.3409641653522013,11.08222111990342 0.6443925347108062,12.432602368026895 -1.8594016870918417,11.141061903957818 -1.162830056450447,9.790680655834343"/><polygon points="-1.8961311468518565,4.216172379243045 -1.3224690955174392,3.1040649622804226 5.065273867481732,3.8622343120439293 3.458041200741254,6.978032830193987"/><polygon points="-1.3224690955174392,3.1040649622804226 -3.2290823194026794,6.800245845484295 -5.701002239253644,5.525147208134074 -4.321343352143181,2.7481247564301645"/><polygon points="-3.2290823194026794,6.800245845484295 -3.916786314560013,8.133436200171808 -5.701002239253644,5.525147208134074"/></g><g fill="#8F9E7C" stroke="#1D3014" stroke-width="0.3"><polygon points="6.6770878327464995,-14.904771734353014 3.8512201484254898,-13.572399014891598 1.3795564439064365,-18.814621770647904 3.7980395212508724,-21.01102823917187"/><polygon points="2.165855033934448,-17.14693843900065 3.8512201484254898,-13.572399014891598 1.6165308661742683,-12.518761913386703 -0.06883424831677498,-16.093301337495753"/><polygon points="4.103382105808377,-13.691291245680414 6.6770878327464995,-14.904771734353014 9.242139499650426,-9.464479758810615 6.668433772712305,-8.250999270138015"/><polygon points="6.668433772712305,-8.250999270138015 -0.8931227476075274,-9.148490046366614 -0.6181584160769544,-11.465124811881807 4.103382105808377,-13.691291245680414"/><polygon points="-6.8570837731552,-11.334308998923538 -5.4178034097592915,-12.641427799876006 -3.9134039259514544,-10.984919887840938 -5.352684289347361,-9.677801086888469"/><polygon points="-4.141360671617419,-11.2359251273812 -2.418401810432904,-12.800673718411932 -0.6860455809591004,-10.893160566836599 -2.4090044421436185,-9.328411975805869"/><polygon points="-2.7889856144056004,-15.028855053088682 -1.512542876263729,-13.623352380593879 -4.141360671617419,-11.2359251273812 -5.4178034097592915,-12.641427799876006"/><polygon points="-1.6419841349358881,-13.765881324163761 -2.7889856144056004,-15.028855053088682 -1.3353939252087184,-16.348971045899503 -0.18839244573900427,-15.08599731697458"/></g><g fill="#899795" stroke="#17292E" stroke-width="0.3"><polygon points="6.394154622858262,10.714505993718221 3.7877897316368667,10.164948185214357 6.463045088366254,4.978669403888183 7.5550207001325465,5.208914879555533"/><polygon points="10.122388702885573,13.939121585506381 9.480610621183889,16.982855719057362 4.232805686296623,15.876344428490935 4.874583767998308,12.832610294939952"/><polygon points="4.232805686296623,15.876344428490935 1.1743166226885293,15.231455237115341 3.7877897316368667,10.164948185214357 5.366862765526529,10.497899230900552"/><polygon points="9.680067964106179,1.8635193653986741 8.914254216654335,5.49551227622115 7.462075167635585,5.189317108222248 8.22788891508743,1.5573241973997738"/><polygon points="9.477831248163858,-0.8658274406706958 11.090464099643183,-0.525800233135296 10.548080117729985,2.0465416500016076 8.22788891508743,1.5573241973997738"/><polygon points="10.658180683567846,-3.1540655395077266 15.018280687799784,-2.23472879918641 14.506094957400759,0.19439309634428759 9.477831248163858,-0.8658274406706958"/></g><g fill="#899795" stroke="#17292E" stroke-width="0.3"><polygon points="-11.23473627688269,10.795293879386284 -12.878496135933439,12.474299788437706 -15.590609773015887,9.81911941903752 -13.633114324521408,8.447263095048953"/><polygon points="-12.878496135933439,12.474299788437706 -15.76333837764404,15.420999784695319 -17.991644213868963,13.478221410357037 -14.987453637465286,10.409613972399978"/><polygon points="-17.991644213868963,13.478221410357037 -19.248350325193197,12.38254530688475 -15.590609773015887,9.81911941903752 -14.987453637465286,10.409613972399978"/><polygon points="-7.98249824631016,13.97926023585588 -5.487853254433366,16.421537108214086 -10.338743686180695,20.150505530629854 -12.327052450092843,18.416971827473546"/><polygon points="-13.063570000276727,8.04811377206698 -11.180730275812934,6.728577839020938 -8.558199421907513,4.890649919672605 -6.400678028456376,8.044662403666553 -5.622472956066156,9.182295856978474 -7.558507617173732,10.867169134984184 -8.948479049709489,12.076819856077698 -10.039311144708753,11.008886740978038"/><polygon points="-6.094750330715587,23.850688143713814 -3.7099282602276595,21.11537205814319 -1.7242207728381072,22.846637803422436 -4.109042843326035,25.58195388899306"/><polygon points="-2.8231029328289123,20.098211233801724 -1.3251061897397376,18.380055972572578 -1.5758051215382136,21.18568458451571"/><polygon points="-9.823696282119721,20.59955652807459 -6.898988234626087,18.351279823552005 -4.275509362058355,21.764075835534744 -6.094750330715587,23.850688143713814"/><polygon points="-6.898988234626087,18.351279823552005 -5.190755321627888,17.038129860606528 -2.8312401282598767,20.107544341637816 -4.275509362058355,21.764075835534744"/><polygon points="-2.8312401282598767,20.107544341637816 -5.190755321627888,17.038129860606528 -3.4093509235039434,15.66873163534833 -1.3251061897397376,18.380055972572578"/></g><g fill="#A38C7C" stroke="#301D14" stroke-width="0.3"><polygon points="-27.449761459821186,1.2749682519152046 -24.9135311542591,-0.5835663160927818 -22.64664366702549,-2.244728059791256 -21.11095098145828,-0.1214941607085187 -18.746099792604657,3.1481262898216436 -17.569249808989365,4.775227729341778 -19.86028988524277,6.402996336353857 -17.63524914049116,9.479316214996768 -20.210400201285875,11.284039322115174 -22.423542497194024,8.224170124111929 -23.588531046280607,6.613468189596793 -25.929546973259523,3.3768021423020733"/><polygon points="-17.267114656015348,5.192956878492508 -16.129523311697017,4.3701597729126895 -14.53898924914135,3.2197582429317237 -12.980075989260783,2.0922274081675645 -12.082542962808294,3.333147916040133 -11.00032411118297,4.829413264955683 -12.576041420807769,5.933710982577237 -13.649074444846196,4.450145870308594 -15.247381256629929,5.589800872155903 -16.39053187342885,6.404911781209583"/><polygon points="-12.980075989260783,2.0922274081675645 -15.096281683815366,3.6228367337285015 -17.267114656015348,5.192956878492508 -19.356250463251516,2.304537855989266 -20.731701705887737,0.4028522307679365 -22.64664366702549,-2.244728059791256 -20.48557412977696,-3.8283470355747986 -18.378886181132483,-5.372115504855772 -16.45708073023261,-2.7150458195329716 -15.076699627729246,-0.8065442175957132"/><polygon points="-10.868226377714988,-5.589983828795487 -9.14091533788112,3.5262982633367344 -11.00032411118297,4.829413264955683 -15.90274046368383,-1.9486203122523873"/><polygon points="-10.868226377714988,-5.589983828795487 -12.917763271986498,-4.10759471533388 -14.013476859271467,-3.315086955262286 -15.90274046368383,-1.9486203122523875 -17.078865338743924,-3.574719223675997 -14.905000370487167,-5.158277653575631 -15.890439221953192,-7.195634719237251 -14.447218097043624,-8.253218623995993 -11.747666885468751,-10.231433786008978 -11.285944870619527,-7.7945894433027405"/></g><g fill="#9D8595" stroke="#2A162E" stroke-width="0.3"><polygon points="-10.233045344477924,-19.93126347792132 -12.235056801270286,-18.72016408763399 -14.37831324720044,-17.42361977162181 -15.413843475829148,-19.308816862661118 -16.267346741663953,-20.862631352533672 -14.19652582189531,-22.115356428015676 -12.262176241743752,-23.285524355464794 -11.345374156074781,-21.770001935224"/><polygon points="-10.889784800817456,-17.04274238212669 -10.406503921222907,-16.24385348369579 -9.586747485874975,-14.888752664962439 -10.668506151532549,-14.234352183900755 -11.464265362693148,-15.6039699143547 -12.901280038688174,-14.73466040464792 -13.351193728346162,-15.55373449395306 -11.933398869832901,-16.411417142507457"/><polygon points="-11.993079134666166,-18.86654636906056 -11.542970401965956,-18.12249278692283 -10.889784800817456,-17.04274238212669 -11.92404996247721,-16.417072682569387 -13.351193728346162,-15.55373449395306 -13.959281397965416,-16.660766499557717 -14.37831324720044,-17.42361977162181 -12.995336223037699,-18.260239674601014"/><polygon points="-9.160668519780268,-15.14650542371954 -8.631619943355421,-14.271960097632844 -7.910266471230738,-13.079524590545402 -9.269998138138691,-11.844649946753064 -10.633579085260143,-10.606279481948254 -11.501545772508646,-12.186424830372065 -10.064554602223993,-13.23066636927456 -10.647291058701228,-14.247186069494031"/><polygon points="-7.910266471230738,-13.079524590545402 -9.160668519780268,-15.14650542371954 -7.042317410943848,-16.427983473019417 -6.042715344664844,-14.775588298046122"/><polygon points="-5.137778601657581,-17.77003037308616 -4.289513343652886,-16.367802960089595 -6.042715344664844,-14.775588298046122 -7.1264242403379665,-16.5670165180295"/><polygon points="-4.289513343652886,-16.367802960089595 -5.199976504696899,-17.87284680208596 -5.7871701292937106,-18.843508973354453 -4.633359955185859,-19.54149638677727 -3.5669082470968494,-20.18663705720423 -2.991922707459257,-19.468855678231606 -2.1003885864399843,-18.355911879349815 -3.151884292991343,-17.40096950529339"/><polygon points="-5.35458572375172,-19.10519714103313 -7.027419015512666,-21.870479199852873 -5.605041409707551,-22.73093414145893 -3.5669082470968494,-20.18663705720423"/><polygon points="2.6823130715829073,-30.70696999391263 2.7178323054364344,-29.668113040864995 2.7739903149689438,-28.025618754171095 1.4587797029653915,-27.980650798614416 1.2432120474500625,-29.52671160866626 -0.4627768508041011,-29.36312422254308 -0.7157647001624152,-30.270425431116376 1.106868219895543,-30.50457560208674"/><polygon points="-1.5475289950434419,-18.85800527586935 -2.4969485981249395,-20.04321023311576 0.7230538709128513,-22.62262356359823 1.5125339060338572,-21.63707865991651"/><polygon points="-2.226166138827527,-26.30427303050371 -0.5810215492098936,-24.250561987806226 0.7230538709128513,-22.62262356359823 -0.8524772586785296,-21.3605295008342 -2.4969485981249395,-20.04321023311576 -3.8010240182476833,-21.67114865732376 -5.4461686078653155,-23.72485970002124 -3.8016972684189065,-25.04217896773968"/><polygon points="-2.226166138827527,-26.30427303050371 -0.776531181492112,-27.465516777748945 2.8971446871993543,-24.4236329563532 2.9478506784953793,-22.940597825689224 1.5125339060338572,-21.63707865991651"/></g><g fill-rule="nonzero" stroke="#99948A" stroke-width="0.3" stroke-linecap="butt"><line x1="-22.50983698146016" y1="12.828109399519239" x2="-23.98405643176182" y2="14.880303705103644"/><line x1="-22.691362654377237" y1="10.565924470853629" x2="-30.709779878719587" y2="21.728000893212695"/><line x1="-23.597741109584994" y1="9.312774358476448" x2="-32.44573293806582" y2="21.629664114984674"/><line x1="-24.504119564792756" y1="8.059624246099267" x2="-33.87380457958698" y2="21.102739522149697"/><line x1="-25.410498020000517" y1="6.8064741337220855" x2="-35.065454483339984" y2="20.2467029074479"/><line x1="-26.316876475208275" y1="5.553324021344906" x2="-36.257104387092994" y2="19.390666292746104"/><line x1="-27.22325493041604" y1="4.300173908967725" x2="-37.448754290846" y2="18.534629678044304"/><line x1="-28.129633385623798" y1="3.047023796590544" x2="-38.64040419459901" y2="17.678593063342504"/><line x1="-29.036011840831556" y1="1.793873684213363" x2="-39.83205409835201" y2="16.822556448640707"/><line x1="-29.942390296039317" y1="0.5407235718361818" x2="-41.02370400210502" y2="15.966519833938907"/><line x1="-30.84876875124708" y1="-0.7124265405409975" x2="-42.21535390585803" y2="15.110483219237107"/><line x1="-31.755147206454836" y1="-1.9655766529181768" x2="-43.407003809611034" y2="14.25444660453531"/><line x1="-32.84512121212776" y1="-2.963151692589504" x2="-44.598653713364044" y2="13.398409989833512"/><line x1="-34.0106534941296" y1="-3.855545468785923" x2="-45.79030361711705" y2="12.542373375131714"/><line x1="-35.63661160002636" y1="-4.107001253187576" x2="-46.835650434355124" y2="11.482674842271168"/><line x1="-37.363882839069326" y1="-4.217423601297897" x2="-47.51881267888857" y2="9.918795525794687"/><line x1="-47.081205683726196" y1="6.794743976407217" x2="-39.09115407811228" y2="-4.3278459494082195"/><line x1="-45.67138077714375" y1="2.3173117880686265" x2="-40.818425317155246" y2="-4.438268297518546"/><line x1="-44.26155587056131" y1="-2.1601204002699586" x2="-42.7545393399966" y2="-4.257970039829141"/><path d="M -24.13732577675612,13.808557564645376 L -24.974577222237237,13.207107515611181 L -24.307283874580012,12.278198588289472 L -26.087395235833498,10.999433324531696 L -25.417817672611786,10.067344643901752 L -24.68593686411664,9.04852642979332 L -22.905825502863156,10.327291693551096 L -22.06857405738204,10.928741742585292 L -22.800454865877185,11.947559956693723 L -23.470032429098897,12.879648637323667 Z" fill="#99948A" stroke="#1A1917" stroke-width="0.3"/></g><g fill-rule="nonzero" stroke="#99948A" stroke-width="0.3" stroke-linecap="butt"><line x1="-27.57714663473636" y1="-31.391735166709243" x2="-25.34279386444113" y2="-29.284487679379787"/><line x1="-29.04370767455938" y1="-30.812103686677617" x2="-19.591912639829697" y2="-21.897991464794476"/><line x1="-30.30501432342603" y1="-30.03889409071178" x2="-19.89473391373228" y2="-20.220821704217663"/><line x1="-31.195542316606854" y1="-28.915998267514176" x2="-20.718246525431507" y2="-19.034722793254804"/><line x1="-32.08607030978767" y1="-27.79310244431658" x2="-21.697947939539468" y2="-17.995927596280374"/><line x1="-32.9765983029685" y1="-26.670206621118986" x2="-22.67764935364743" y2="-16.957132399305944"/><line x1="-33.86712629614931" y1="-25.54731079792139" x2="-23.657350767755393" y2="-15.918337202331513"/><line x1="-34.757654289330134" y1="-24.424414974723792" x2="-24.637052181863353" y2="-14.879542005357079"/><line x1="-35.64818228251096" y1="-23.3015191515262" x2="-25.616753595971318" y2="-13.84074680838265"/><line x1="-36.53871027569178" y1="-22.178623328328598" x2="-26.596455010079282" y2="-12.801951611408217"/><line x1="-37.429238268872595" y1="-21.055727505131003" x2="-27.576156424187246" y2="-11.763156414433785"/><line x1="-38.31976626205342" y1="-19.932831681933408" x2="-28.555857838295204" y2="-10.724361217459352"/><line x1="-39.21029425523424" y1="-18.80993585873581" x2="-29.53555925240317" y2="-9.685566020484918"/><line x1="-40.100822248415064" y1="-17.68704003553821" x2="-30.515260666511132" y2="-8.646770823510487"/><line x1="-40.99135024159588" y1="-16.564144212340615" x2="-31.494962080619096" y2="-7.607975626536055"/><line x1="-41.88187823477671" y1="-15.441248389143015" x2="-32.74203380566241" y2="-6.821340886672677"/><line x1="-42.77240622795753" y1="-14.31835256594542" x2="-34.023516889606576" y2="-6.06715995202013"/><line x1="-36.18866608072232" y1="-6.146376146384702" x2="-43.66293422113835" y2="-13.195456742747819"/><line x1="-38.421149451419225" y1="-6.289096091195564" x2="-44.454105095447645" y2="-11.978855913843962"/><line x1="-40.65363282211614" y1="-6.431816036006427" x2="-45.19784056390809" y2="-10.71751812974021"/><line x1="-43.07561044173048" y1="-6.753250499492819" x2="-44.22678967254673" y2="-7.838942774165661"/><path d="M -34.58165070597268,-9.417762293806868 L -33.14787596733783,-11.22565567587643 L -32.26517892930309,-10.525620636446591 L -31.109858070079873,-9.609377522001463 L -30.38020290552119,-9.03071444748923 L -31.813977644156036,-7.2228210654196685 L -32.43258579734718,-6.442797846909487 L -33.162240961905866,-7.02146092142172 L -34.31756182112908,-7.93770403586685 L -33.698953667937936,-8.717727254377031 Z" fill="#99948A" stroke="#1A1917" stroke-width="0.3"/></g><g fill-rule="nonzero" stroke="#99948A" stroke-width="0.3" stroke-linecap="butt"><line x1="-28.189662181114258" y1="-37.12272909590939" x2="-19.503817541018165" y2="-45.10749632044789"/><line x1="-27.815260802855605" y1="-35.99513821083428" x2="-18.296593326770232" y2="-44.74550702741102"/><line x1="-27.411336405394852" y1="-34.89468739628335" x2="-17.2289917780922" y2="-44.255164703662686"/><line x1="-26.74970102650873" y1="-34.031146437152785" x2="-16.495703915375927" y2="-43.45749280253976"/><line x1="-26.06970146779112" y1="-33.184487394208844" x2="-15.762416052659653" y2="-42.659820901416836"/><line x1="-25.360919452759546" y1="-32.364287633388884" x2="-15.02912818994338" y2="-41.86214900029391"/><line x1="-24.652137437727976" y1="-31.544087872568916" x2="-14.295840327227104" y2="-41.06447709917098"/><line x1="-23.943355422696406" y1="-30.72388811174895" x2="-13.56255246451083" y2="-40.266805198048054"/><line x1="-23.23457340766484" y1="-29.903688350928984" x2="-12.829264601794558" y2="-39.46913329692513"/><line x1="-22.52579139263327" y1="-29.08348859010902" x2="-12.095976739078285" y2="-38.671461395802204"/><line x1="-21.817009377601696" y1="-28.263288829289056" x2="-11.362688876362009" y2="-37.87378949467927"/><line x1="-21.108227362570126" y1="-27.44308906846909" x2="-10.629401013645733" y2="-37.07611759355635"/><line x1="-20.399445347538556" y1="-26.622889307649125" x2="-9.896113150929457" y2="-36.27844569243342"/><line x1="-19.690663332506986" y1="-25.80268954682916" x2="-9.162825288213185" y2="-35.4807737913105"/><line x1="-18.981881317475413" y1="-24.982489786009197" x2="-8.429537425496912" y2="-34.683101890187565"/><line x1="-18.273099302443846" y1="-24.16229002518923" x2="-7.69624956278064" y2="-33.88542998906464"/><line x1="-17.186165704398668" y1="-23.68971936563316" x2="-6.9629617000643655" y2="-33.08775808794172"/><line x1="-15.863366977092916" y1="-23.43397599594565" x2="-6.229673837348091" y2="-32.29008618681879"/><line x1="-11.60070396620299" y1="-25.880805945125896" x2="-5.7669511473832715" y2="-31.243687764211188"/><line x1="-6.918656458374956" y1="-28.713169797384786" x2="-5.653665798141738" y2="-29.87605681433076"/><line x1="-3.0534612341714826" y1="-32.233484868750935" x2="-16.238245668628775" y2="-46.57591790285505"/><line x1="-16.340003678224374" y1="-48.42344486250225" x2="-1.3290807209011124" y2="-32.09453494624643"/><line x1="-15.474652811401121" y1="-49.21894898736763" x2="-0.30303349758576026" y2="-32.715233275592766"/><line x1="-14.60930194457787" y1="-50.014453112233014" x2="0.7230137257295901" y2="-33.33593160493909"/><line x1="-13.743951077754623" y1="-50.80995723709839" x2="1.7490609490449422" y2="-33.95662993428542"/><line x1="-12.878600210931374" y1="-51.60546136196377" x2="2.399607784955064" y2="-34.985798283555994"/><line x1="-12.013249344108123" y1="-52.40096548682915" x2="2.8135363732129957" y2="-36.27236040277926"/><line x1="-10.523100760131591" y1="-52.51681349272811" x2="3.1467750901536924" y2="-37.646697114120514"/><line x1="-7.9870462447574475" y1="-51.49492308086127" x2="3.4800138070943873" y2="-39.021033825461764"/><line x1="-4.56862438610803" y1="-49.51319183160217" x2="3.8132525240350805" y2="-40.395370536803014"/><line x1="-1.1502025274586094" y1="-47.53146058234307" x2="4.146491240975774" y2="-41.769707248144265"/><line x1="2.2682193311908083" y1="-45.54972933308397" x2="4.47972995791647" y2="-43.144043959485515"/><path d="M -2.2703954227987255,-36.682234785374355 L -2.997900344627542,-37.47361599264249 L -3.8302967182432583,-38.379098316283226 L -2.9790648540127718,-39.16162305298117 L -2.0272302418325303,-40.036630393019664 L -1.168746294247449,-40.825821861610564 L -0.3363499206317331,-39.92033953796983 L 0.3911550011970838,-39.12895833070169 L 1.357186743221001,-38.07810720471836 L 0.49870279563591957,-37.28891573612746 L -0.4673289463879976,-38.33976686211079 L -1.1948338682168145,-39.13114806937893 L -2.146668480397056,-38.25614072934044 L -1.419163558568239,-37.4647595220723 Z" fill="#99948A" stroke="#1A1917" stroke-width="0.3"/></g><g fill-rule="nonzero" stroke="#99948A" stroke-width="0.3" stroke-linecap="butt"><line x1="-41.613835366903736" y1="-18.997897427094877" x2="-39.39210331158472" y2="-22.30161721622546"/><line x1="-47.197820594739085" y1="-13.237578440435303" x2="-40.13132449160947" y2="-23.745471577157975"/><line x1="-48.853073887836395" y1="-13.319291308116338" x2="-41.058358328588696" y2="-24.910048160221532"/><line x1="-50.05270723516835" y1="-14.078511901152435" x2="-42.23598387812981" y2="-25.701994390403087"/><line x1="-51.23033278470946" y1="-14.87045813133399" x2="-43.41360942767092" y2="-26.49394062058463"/><line x1="-52.407958334250566" y1="-15.66240436151554" x2="-44.591234977212025" y2="-27.28588685076619"/><line x1="-53.58558388379168" y1="-16.454350591697093" x2="-45.76886052675313" y2="-28.07783308094774"/><line x1="-54.76320943333278" y1="-17.246296821878644" x2="-46.94648607629424" y2="-28.869779311129292"/><line x1="-55.940834982873895" y1="-18.0382430520602" x2="-48.12411162583535" y2="-29.661725541310844"/><line x1="-57.118460532415" y1="-18.83018928224175" x2="-49.30173717537646" y2="-30.4536717714924"/><line x1="-58.29608608195611" y1="-19.622135512423302" x2="-50.479362724917564" y2="-31.24561800167395"/><line x1="-59.47371163149722" y1="-20.414081742604854" x2="-51.656988274458676" y2="-32.037564231855505"/><line x1="-60.65133718103833" y1="-21.206027972786405" x2="-52.83461382399978" y2="-32.82951046203705"/><line x1="-61.828962730579434" y1="-21.997974202967956" x2="-54.012239373540886" y2="-33.6214566922186"/><line x1="-63.00658828012054" y1="-22.789920433149508" x2="-55.189864923082" y2="-34.41340292240016"/><line x1="-64.16914574579968" y1="-23.60427293267387" x2="-56.3674904726231" y2="-35.20534915258171"/><line x1="-65.31552551109316" y1="-24.44268170342088" x2="-57.54511602216421" y2="-35.997295382763255"/><line x1="-66.13067720710114" y1="-25.773627242764338" x2="-58.94861227858169" y2="-36.453371442504626"/><line x1="-62.088636111574544" y1="-34.327227695240865" x2="-60.54178545323277" y2="-36.627397564311586"/><line x1="-38.613995300635665" y1="-26.03794156306521" x2="-58.0642165184085" y2="-39.11810051139544"/><line x1="-58.43046030839456" y1="-41.39215370739275" x2="-35.88040104140754" y2="-26.227371970260826"/><line x1="-57.651681526005156" y1="-42.896185982887026" x2="-34.831612194485885" y2="-27.549824071309402"/><line x1="-56.872902743615754" y1="-44.4002182583813" x2="-33.78282334756423" y2="-28.87227617235797"/><line x1="-55.104596006010276" y1="-45.23879882547983" x2="-32.73403450064258" y2="-30.19472827340655"/><line x1="-52.35443382424589" y1="-45.41708740257533" x2="-31.685245653720926" y2="-31.517180374455123"/><line x1="-49.6042716424815" y1="-45.595375979670834" x2="-30.636456806799274" y2="-32.83963247550369"/><line x1="-46.854109460717105" y1="-45.77366455676634" x2="-29.71683729355664" y2="-34.24895019092521"/><line x1="-40.18248866489463" y1="-43.31479536548085" x2="-30.102157285987285" y2="-36.53583202045383"/><path d="M -35.79484476395971,-33.48495978921744 L -37.05895584417611,-34.33506702822751 L -36.36389509911011,-35.36862367725046 L -37.33183972183163,-36.019560721956665 L -36.64882760676764,-37.03520103526566 L -35.98239253409611,-38.02619125502889 L -35.01444791137459,-37.37525421032269 L -33.75033683115819,-36.525146971312616 L -32.88577753643405,-35.94373594936935 L -33.55221260910558,-34.952745729606114 L -34.41677190382972,-35.53415675154938 L -35.09978401889371,-34.51851643824039 Z" fill="#99948A" stroke="#1A1917" stroke-width="0.3"/></g><g fill-rule="nonzero" stroke="#99948A" stroke-width="0.3" stroke-linecap="butt"><line x1="1.7261026167755573" y1="-87.80056302819025" x2="3.733240193760717" y2="-86.70908614569473"/><line x1="-0.010055778424266304" y1="-87.09642638549381" x2="3.143435039053587" y2="-85.38156519914253"/><line x1="-1.572065401772452" y1="-86.29758803387091" x2="2.5485933716874603" y2="-84.05678309680249"/><line x1="-3.1340750251206537" y1="-85.49874968224799" x2="1.8568386074623984" y2="-82.7847021177165"/><line x1="-4.696084648468856" y1="-84.69991133062507" x2="1.165083843237337" y2="-81.51262113863052"/><line x1="-6.258094271817058" y1="-83.90107297900215" x2="0.47332907901227506" y2="-80.24054015954454"/><line x1="-7.820103895165258" y1="-83.10223462737923" x2="-0.21842568521278638" y2="-78.96845918045855"/><line x1="-9.382113518513458" y1="-82.30339627575631" x2="-0.9101804494378483" y2="-77.69637820137257"/><line x1="-10.94412314186166" y1="-81.5045579241334" x2="-1.6019352136629106" y2="-76.42429722228658"/><line x1="-12.255231762465723" y1="-80.56928017372174" x2="-2.293689977887966" y2="-75.15221624320061"/><line x1="-12.845036917172854" y1="-79.24175922716955" x2="-2.985444742113028" y2="-73.88013526411463"/><line x1="-13.351506579315089" y1="-77.86892062792182" x2="-3.677199506338088" y2="-72.60805428502864"/><line x1="-13.110403858035703" y1="-76.08955385449562" x2="-4.368954270563151" y2="-71.33597330594266"/><line x1="-12.869301136756317" y1="-74.31018708106944" x2="-5.060709034788207" y2="-70.06389232685669"/><line x1="-12.628198415476927" y1="-72.53082030764324" x2="-5.752463799013267" y2="-68.7918113477707"/><line x1="-12.38709569419754" y1="-70.75145353421703" x2="-6.444218563238332" y2="-67.51973036868472"/><line x1="-12.145992972918151" y1="-68.97208676079083" x2="-7.135973327463391" y2="-66.24764938959873"/><line x1="-11.904890251638765" y1="-67.19271998736465" x2="-7.8277280916884475" y2="-64.97556841051276"/><line x1="-11.663787530359379" y1="-65.41335321393845" x2="-8.519482855913509" y2="-63.70348743142679"/><line x1="-11.422684809079989" y1="-63.633986440512246" x2="-9.211237620138572" y2="-62.4314064523408"/><line x1="-10.328895258791373" y1="-55.561689402234315" x2="0.07990460508764285" y2="-74.70262923629"/><line x1="-9.238958558263677" y1="-54.56248582235685" x2="2.1101382881383417" y2="-75.43255564296119"/><line x1="-8.009556269473501" y1="-53.81974816254353" x2="3.556994756923537" y2="-75.08969860631105"/><line x1="-6.767739060479916" y1="-53.09984053537238" x2="4.81753438978183" y2="-74.40422000010567"/><line x1="-5.525921851486328" y1="-52.379932908201226" x2="6.0780740226401235" y2="-73.71874139390029"/><line x1="-4.284104642492744" y1="-51.66002528103007" x2="7.338613655498416" y2="-73.03326278769491"/><line x1="-3.0422874334991565" y1="-50.94011765385893" x2="8.599153288356709" y2="-72.34778418148953"/><line x1="-1.8004702245055686" y1="-50.220210026687774" x2="9.859692921215002" y2="-71.66230557528415"/><line x1="-0.5586530155119842" y1="-49.50030239951662" x2="11.120232554073294" y2="-70.97682696907877"/><line x1="0.683164193481602" y1="-48.78039477234547" x2="12.380772186931587" y2="-70.29134836287339"/><line x1="1.9249814024751917" y1="-48.060487145174314" x2="13.64131181978988" y2="-69.60586975666801"/><line x1="3.1667986114687796" y1="-47.34057951800316" x2="14.901851452648176" y2="-68.92039115046263"/><line x1="4.568519866814269" y1="-46.91472247980194" x2="16.162391085506474" y2="-68.23491254425726"/><line x1="6.362661510110705" y1="-47.210494748884436" x2="17.38977202505428" y2="-67.48845778691705"/><line x1="10.527157910545304" y1="-51.865157416964486" x2="18.427434006446667" y2="-66.39312523281622"/><line x1="17.548888903728688" y1="-61.774043064330996" x2="15.374053506398731" y2="-57.77469693089946"/><line x1="5.751350210136143" y1="-85.13195831533879" x2="2.3415416867877306" y2="-78.86159663631815"/><line x1="7.410993367743471" y1="-85.01972561904456" x2="3.3657029857389302" y2="-77.58076427615858"/><line x1="8.75193213436921" y1="-84.32142136287747" x2="4.647320208920411" y2="-76.77337250665865"/><line x1="10.079904518165195" y1="-83.59927297896701" x2="5.9752925927163965" y2="-76.05122412274818"/><line x1="11.407876901961181" y1="-82.87712459505654" x2="7.3032649765123825" y2="-75.3290757388377"/><line x1="12.735849285757167" y1="-82.15497621114608" x2="8.631237360308369" y2="-74.60692735492724"/><line x1="14.063821669553153" y1="-81.43282782723561" x2="9.959209744104356" y2="-73.88477897101677"/><line x1="15.391794053349138" y1="-80.71067944332515" x2="11.28718212790034" y2="-73.1626305871063"/><line x1="16.719766437145125" y1="-79.98853105941468" x2="12.615154511696332" y2="-72.44048220319584"/><line x1="18.047738820941113" y1="-79.26638267550422" x2="13.943126895492313" y2="-71.71833381928538"/><line x1="19.375711204737097" y1="-78.54423429159375" x2="15.271099279288304" y2="-70.99618543537491"/><line x1="20.685316086400288" y1="-77.78830955903375" x2="16.59907166308428" y2="-70.27403705146445"/><line x1="21.709477385351484" y1="-76.50747719887416" x2="17.940010429710025" y2="-69.57573279529736"/><line x1="20.38329151485493" y1="-70.90454677285963" x2="19.599653587317356" y2="-69.46350009900314"/></g><g fill-rule="nonzero" stroke="#99948A" stroke-width="0.3" stroke-linecap="butt"><line x1="-42.11502296989701" y1="-47.80102736701041" x2="-38.20807771651823" y2="-54.720912165371196"/><line x1="-41.10923691006519" y1="-46.262320537690194" x2="-36.39385943933702" y2="-54.61408048364949"/><line x1="-39.72648691867748" y1="-45.391282900112046" x2="-34.97243216080969" y2="-53.811547100408625"/><line x1="-38.34373692728976" y1="-44.52024526253389" x2="-33.551004882282356" y2="-53.00901371716776"/><line x1="-36.960986935902056" y1="-43.64920762495574" x2="-32.12957760375502" y2="-52.2064803339269"/><line x1="-35.57823694451434" y1="-42.778169987377595" x2="-30.70815032522768" y2="-51.403946950686034"/><line x1="-34.19548695312663" y1="-41.90713234979944" x2="-29.28672304670035" y2="-50.60141356744517"/><line x1="-32.81273696173891" y1="-41.03609471222129" x2="-27.86529576817301" y2="-49.7988801842043"/><line x1="-31.429986970351205" y1="-40.165057074643144" x2="-26.443868489645677" y2="-48.99634680096344"/><line x1="-29.781328792031612" y1="-39.764989440782934" x2="-25.022441211118345" y2="-48.19381341772257"/><line x1="-27.035840719822943" y1="-41.307599785977274" x2="-23.601013932591005" y2="-47.39128003448171"/><line x1="-23.138472016617417" y1="-44.89039261416599" x2="-22.58632535070161" y2="-45.86834113203481"/><line x1="-24.388632195070343" y1="-79.19757226265321" x2="-35.716353321460346" y2="-59.134192783561105"/><line x1="-21.76348977091599" y1="-80.42294735505163" x2="-35.36600407348491" y2="-56.33051046706905"/><line x1="-19.939217444032085" y1="-80.2298411398938" x2="-33.900016790034286" y2="-55.5028186448081"/><line x1="-18.114945117148185" y1="-80.03673492473595" x2="-32.434029506583656" y2="-54.67512682254715"/><line x1="-16.378229821866878" y1="-79.6885498608401" x2="-30.968042223133036" y2="-53.8474350002862"/><line x1="-15.518063722279333" y1="-77.7878425421082" x2="-29.50205493968241" y2="-53.01974317802525"/><line x1="-15.015444217898304" y1="-75.25385753750766" x2="-28.03606765623179" y2="-52.1920513557643"/><line x1="-14.641266299372283" y1="-72.49237997291621" x2="-26.570080372781163" y2="-51.36435953350335"/><line x1="-14.267088380846266" y1="-69.73090240832477" x2="-25.10409308933054" y2="-50.5366677112424"/><line x1="-13.892910462320248" y1="-66.96942484373332" x2="-23.638105805879917" y2="-49.70897588898145"/><line x1="-13.518732543794226" y1="-64.20794727914188" x2="-22.172118522429294" y2="-48.8812840667205"/><line x1="-13.14455462526821" y1="-61.446469714550446" x2="-20.436801633871216" y2="-48.530622179424675"/><line x1="-12.770376706742189" y1="-58.684992149959" x2="-17.77497046601667" y2="-49.820979467205134"/><line x1="-12.926780394023856" y1="-54.98376156857183" x2="-13.755424025528189" y2="-53.516088464131386"/></g><g fill-rule="nonzero" stroke="#99948A" stroke-width="0.3" stroke-linecap="butt"><line x1="-77.8390420804356" y1="15.454399546355916" x2="-75.29081686149085" y2="7.758984754022949"/><line x1="-76.79017125686943" y1="17.176803605348447" x2="-73.61033075157893" y2="7.573966509259457"/><line x1="-75.56625196786236" y1="18.37057678025968" x2="-72.12288475938296" y2="7.971912347239162"/><line x1="-74.34233267885529" y1="19.56434995517092" x2="-70.6636688604982" y2="8.455110570306742"/><line x1="-73.11841338984821" y1="20.758123130082158" x2="-69.20445296161347" y2="8.938308793374315"/><line x1="-71.51787615175124" y1="20.814543407401068" x2="-67.74523706272872" y2="9.421507016441893"/><line x1="-69.70441004994117" y1="20.227937348056237" x2="-66.28602116384397" y2="9.904705239509472"/><line x1="-67.75909806377814" y1="19.243168378614172" x2="-64.82680526495923" y2="10.387903462577047"/><line x1="-65.81378607761509" y1="18.258399409172092" x2="-63.36758936607448" y2="10.871101685644625"/><line x1="-63.868474091452036" y1="17.27363043973002" x2="-61.90837346718974" y2="11.3542999087122"/><line x1="-61.923162105288995" y1="16.288861470287948" x2="-60.449157568305" y2="11.837498131779777"/><line x1="-59.977850119125954" y1="15.304092500845877" x2="-58.989941669420254" y2="12.320696354847353"/><line x1="-66.20437850223855" y1="-19.681255472611305" x2="-73.63305057897603" y2="2.752677196177583"/><line x1="-64.2493397882787" y1="-20.770358072574812" x2="-72.80691711157824" y2="5.0727685987495015"/><line x1="-62.82477759174582" y1="-20.25746850605188" x2="-71.53892409774434" y2="6.058483249808834"/><line x1="-61.52076555751503" y1="-19.3805281110147" x2="-70.10207725872337" y2="6.534274282490038"/><line x1="-60.21675352328425" y1="-18.50358771597753" x2="-68.6652304197024" y2="7.010065315171239"/><line x1="-58.91274148905346" y1="-17.626647320940357" x2="-67.22838358068141" y2="7.48585634785244"/><line x1="-57.608729454822665" y1="-16.749706925903183" x2="-65.79153674166044" y2="7.961647380533645"/><line x1="-56.30471742059188" y1="-15.87276653086601" x2="-64.35468990263946" y2="8.437438413214842"/><line x1="-55.0007053863611" y1="-14.995826135828835" x2="-62.91784306361848" y2="8.913229445896043"/><line x1="-53.6966933521303" y1="-14.118885740791661" x2="-61.480996224597504" y2="9.389020478577248"/><line x1="-52.39268131789952" y1="-13.241945345754491" x2="-60.04414938557653" y2="9.864811511258448"/><line x1="-51.08866928366873" y1="-12.365004950717312" x2="-58.60730254655554" y2="10.34060254393965"/><line x1="-49.78465724943794" y1="-11.48806455568014" x2="-57.17045570753457" y2="10.816393576620854"/><line x1="-48.51683770941257" y1="-10.501826029061332" x2="-55.73360886851358" y2="11.292184609302057"/><line x1="-47.29526525375265" y1="-9.37592539782077" x2="-54.251778997437654" y2="11.632130863544464"/><line x1="-46.31676355534554" y1="-7.515972577220962" x2="-52.643912270657324" y2="11.59145696044915"/><line x1="-45.7206233797265" y1="-4.501321774430691" x2="-50.72842095757318" y2="10.62178401349852"/></g><g id="labels" style="font: bold italic 1px &quot;Archivo Narrow&quot;, sans-serif" fill="#1A1917"><text text-anchor="middle" stroke="#CCC5B8" stroke-width="0.4911865599217358" x="6.115413730975324" y="3.70524827767433">Craftsmen</text><text text-anchor="middle" x="6.115413730975324" y="3.70524827767433">Craftsmen</text><text text-anchor="middle" stroke="#CCC5B8" stroke-width="0.4911865599217358" x="1.6051652352219972" y="-12.850849195580194">Gate</text><text text-anchor="middle" x="1.6051652352219972" y="-12.850849195580194">Gate</text><text text-anchor="middle" stroke="#CCC5B8" stroke-width="0.4911865599217358" x="-19.1811453883914" y="-3.6874978937923486">Merchant</text><text text-anchor="middle" x="-19.1811453883914" y="-3.6874978937923486">Merchant</text><text text-anchor="middle" stroke="#CCC5B8" stroke-width="0.4911865599217358" x="-5.661369130502351" y="-21.652752532085287">Craftsmen</text><text text-anchor="middle" x="-5.661369130502351" y="-21.652752532085287">Craftsmen</text></g></g></svg>