<svg width="118.08744048546829" height="152.83066106326154" xmlns="http://www.w3.org/2000/svg"><rect x="0" y="0" width="118.08744048546829" height="152.83066106326154" id="background" fill="#CCC5B8"/><g id="map" transform="translate(59.043720242734146 76.41533053163077)"><g id="waterbody"><polygon points="40.26528210396729,-28.88425219458273 32.34593385479618,-50.90616829564004 49.7945150170102,-65.03720876116945 63.52354813750485,-68.72436021061336 73.30022936724562,-86.6714334598248 98.00440405184307,-99.24668950620001 148.87505723572846,-56.87658195579684 174.14420094373463,-34.21731248461596 105.88366579616076,-9.182456279190227 84.95995067152865,0.5375409411058849 67.54976304794923,-1.8129244008840295 57.68819673101013,-23.162881680136355" fill="#67635C" stroke="#99948A" stroke-width="0.3"/><polygon points="43.368501405790546,-32.07536008725062 37.07147048719509,-49.58597866493312 67.0361691985704,-66.81085732810739 76.21973534352247,-83.66914803222224 97.4698701140986,-94.48618155678624 166.51980487572004,-35.68156416440527 104.50635655357007,-12.937854959793162 84.33573621654168,-3.583019425430269 70.26052957799845,-5.483245092179318 61.3195332144278,-24.840199582085706" fill="none" stroke="#CCC5B8" stroke-width="0.15"/><polygon points="49.68360063618543,-38.15541524895289 46.866549660938276,-45.98899678589159 71.02309918143666,-59.87512453973369 82.05874729607618,-77.66457717701714 96.34459041054967,-84.93655194632031 150.90150250416463,-38.47454799439284 75.68206263809691,-12.823886474769893 68.58220618126315,-28.19483538598441" fill="none" stroke="#CCC5B8" stroke-width="0.15"/><polygon points="74.26719842403936,-43.28480784599405 84.61942393262966,-51.44067415692292 94.09403100345182,-65.83729272538844 119.1058556041984,-44.53660966160466 84.16235709433012,-32.62048991670848 83.10755211493384,-34.90410699378181" fill="none" stroke="#CCC5B8" stroke-width="0.15"/></g><g fill="none"><path d="M -11.489020145852075,-24.446925187083536 L -18.070634964661462,-38.018647056913224 L -25.121267921952473,-48.55512188238448 C -27.36540248096184,-51.90875941098691 -27.44052366184445,-57.66043387012383 -31.534496149632037,-61.12063616132955 C -34.61603027067485,-63.725131296035045 -39.96130809948914,-66.34397967055041 -44.39695897867908,-71.99191668028308 C -50.62304487326295,-79.91962377616179 -67.85448638294,-87.00775567643358 -62.91156641612755,-95.56666127013091 C -58.016853638018205,-104.04209377912979 -58.016853638018205,-104.04209377912979 -48.21272924462801,-121.01841054640383" stroke="#67635C" stroke-width="2.3" stroke-linejoin="round" stroke-linecap="butt"/><path d="M -11.489020145852075,-24.446925187083536 L -18.070634964661462,-38.018647056913224 L -25.121267921952473,-48.55512188238448 C -27.36540248096184,-51.90875941098691 -27.44052366184445,-57.66043387012383 -31.534496149632037,-61.12063616132955 C -34.61603027067485,-63.725131296035045 -39.96130809948914,-66.34397967055041 -44.39695897867908,-71.99191668028308 C -50.62304487326295,-79.91962377616179 -67.85448638294,-87.00775567643358 -62.91156641612755,-95.56666127013091 C -58.016853638018205,-104.04209377912979 -58.016853638018205,-104.04209377912979 -48.21272924462801,-121.01841054640383" stroke="#CCC5B8" stroke-width="1.7" stroke-linejoin="round" stroke-linecap="round"/></g><g fill="none"><path d="M -0.49780808457685166,18.91912454142412 C 5.401936419238499,34.345541802941156 5.401936419238499,34.345541802941156 7.904028612252281,42.197772712539916 C 10.027605108907053,48.862120674013376 12.102704370140813,54.69571995265412 12.533104068991978,59.813593369637964 C 12.89914472258109,64.16617478533017 11.188213743656874,68.73441175011304 10.54509224969928,73.60260273154691 C 9.509437468728139,81.4421249866296 8.695359683150055,88.57753533941774 7.892841367301417,94.93865954779224 C 7.591619163581605,97.32628337436594 7.591619163581605,97.32628337436594 6.949400058751218,102.10369010861916" stroke="#67635C" stroke-width="2.3" stroke-linejoin="round" stroke-linecap="butt"/><path d="M -0.49780808457685166,18.91912454142412 C 5.401936419238499,34.345541802941156 5.401936419238499,34.345541802941156 7.904028612252281,42.197772712539916 C 10.027605108907053,48.862120674013376 12.102704370140813,54.69571995265412 12.533104068991978,59.813593369637964 C 12.89914472258109,64.16617478533017 11.188213743656874,68.73441175011304 10.54509224969928,73.60260273154691 C 9.509437468728139,81.4421249866296 8.695359683150055,88.57753533941774 7.892841367301417,94.93865954779224 C 7.591619163581605,97.32628337436594 7.591619163581605,97.32628337436594 6.949400058751218,102.10369010861916" stroke="#CCC5B8" stroke-width="1.7" stroke-linejoin="round" stroke-linecap="round"/></g><g fill="#9D9E7C" stroke="#2B3014" stroke-width="0.3"><polygon points="5.656613330719459,-1.2598232138341787 3.562481557782413,-1.714986688450907 1.671799706069033,-2.1259299405145975 -0.3572984048875174,-2.566958226535922 -0.02639743540100259,-4.089378790885648 0.28011070516523073,-5.499571988756129 2.309208816121781,-5.058543702734804 4.199890667835161,-4.647600450671113 6.294022440772207,-4.192436976054384 5.987514300205974,-2.7822437781839033"/><polygon points="7.694479164449628,3.2410643033385753 6.341087371516278,2.9469020548353018 4.814397336317621,2.615073107839689 5.345677962649329,0.1707389246454709 5.870976553864853,-2.246072905587158 6.294022440772207,-4.192436976054384 7.820712475970864,-3.860608029058771 9.174104268904214,-3.5664457805554974 8.75105838199686,-1.6200817100882716 8.225759790781336,0.7967301201443573"/><polygon points="3.62092405021803,2.3556694471992436 7.694479164449628,3.2410643033385753 3.101032474024173,11.445451385026644 1.71091459620608,11.143306652984732"/><polygon points="-6.1959659938637035,-6.907159424421792 -3.9143039224878953,-6.411235887168897 0.28011070516523073,-5.499571988756129 -0.2952980826290039,-2.8522114421706317 -4.351455252939978,-3.733824822517257 -4.86247888522974,-0.6039697080969709 -6.98101419741983,-1.0644373378117251 -6.557908546808982,-4.21340159070143"/><polygon points="-6.98101419741983,-1.0644373378117256 -4.540417046485469,-0.5339689624616089 -5.4208524181383115,3.5167683849241524 -7.457829421829277,2.4842604749714794"/><polygon points="-1.848378070245769,4.293252395233271 -2.0810844028018605,5.363895695818215 -2.455488862498526,7.086468614570819 -4.085440008879688,6.732195671086536 -5.5245583008703605,6.419400606978286 -5.150153841173695,4.696827688225682 -4.917447508617603,3.6261843876407376 -3.478329216626931,3.9389794517489873"/><polygon points="-2.455488862498526,7.086468614570819 -2.8759005076848414,9.020712975102475 -4.41043522687076,8.687178971306208 -3.9900235816844436,6.7529346107745525"/><polygon points="-0.6138302523029888,16.41510312991458 -1.9373384997747836,13.721124844507333 -2.8248304077599347,11.914650322604064 -1.8014945761065313,11.41190187044943 -0.3451414927277163,10.696418999810234 0.3800441281037781,12.172521864406288 1.4615065521358126,14.373820037191779 0.24263464611903907,15.572691761831992"/></g><g fill="#899995" stroke="#172A2E" stroke-width="0.3"><polygon points="3.8425553331048588,-19.18051443159609 4.975983296943131,-15.732588909358 5.650588141122856,-13.6804185607494 3.0794498534285855,-12.835214679351088 0.09800311834839981,-11.855131124634196 -0.576601725831325,-13.907301473242796 -1.710029689669598,-17.355226995480887 1.2714170454105882,-18.33531055019778"/><polygon points="7.71420308453203,-20.453231547814617 10.040285572491463,-21.217878846906036 11.578694439895077,-16.537987961211265 9.252611951935645,-15.773340662119846"/><polygon points="5.380964200508472,-14.500623545901318 3.8425553331048588,-19.18051443159609 7.71420308453203,-20.453231547814617 9.252611951935645,-15.773340662119846"/><polygon points="6.445139283954512,-10.818769392581485 7.41078062769952,-7.881256343095988 2.621958787066186,-6.307038874358426 1.024452734408106,-9.036840612846774"/><polygon points="7.41078062769952,-7.881256343095988 8.336575990860586,-5.0649560903626805 2.621958787066186,-6.307038874358426"/><polygon points="7.643220721884271,-7.174165854153909 6.445139283954512,-10.818769392581485 12.774767996569167,-12.89949246427192 13.324841545135882,-9.041870907370692"/><polygon points="7.643220721884271,-7.174165854153909 10.674997667951697,-8.170794333693244 11.368352936928014,-6.061584569902016 8.336575990860586,-5.0649560903626805"/><polygon points="10.674997667951697,-8.170794333693244 13.324841545135882,-9.041870907370692 11.815761255734984,-4.700553599700623"/><polygon points="-2.65860022435413,-13.087106004413139 -1.599178798676158,-9.864310830001722 -6.186607216554857,-8.356296919203842 -6.803490006449376,-11.724566716440123"/><polygon points="-4.4346322937881855,-16.45957517181561 -1.7100296896695975,-17.355226995480887 -0.5363184479302694,-13.784758403523476 -3.260921052048857,-12.889106579858202"/><polygon points="-7.486921781364982,-15.456203655628249 -4.4346322937881855,-16.45957517181561 -3.260921052048857,-12.889106579858202 -6.803490006449376,-11.724566716440123"/><polygon points="0.5231029777477025,-10.56196322911206 1.8679393108378461,-6.470926423921476 -6.160914868791089,-8.216012961845282 -6.186607216554857,-8.356296919203842"/><polygon points="15.459163581200851,-15.181881654571521 13.69388062009195,-10.103521327541085 12.359444978521974,-14.162918883581792"/><polygon points="12.359444978521974,-14.162918883581792 10.040285572491463,-21.217878846906036 13.895263867642335,-22.485116254307282 15.459163581200851,-15.181881654571521"/></g><g fill="#8F8595" stroke="#1D162E" stroke-width="0.3"><polygon points="6.429464346412848,7.845920308967461 7.574861462494572,5.800118553572917 9.301983173145608,2.715294453860574 11.097475040923515,3.720548849540952 9.186551698459725,6.865561822096907 11.813414014941023,8.602106916172197 10.347450128386303,10.752883542549075 7.919260533040804,8.951279792399834"/><polygon points="9.301983173145608,2.7152944538605737 12.20358244306896,-2.4672721830866635 20.725689399782258,7.201248395778638 20.679899469163203,7.369352757748293 18.745840893744763,8.002692105826258"/></g><g fill="#9D9E7C" stroke="#2B3014" stroke-width="0.3"><polygon points="-7.747738924872311,6.429875232598947 -10.987397817472463,8.021467594934368 -12.025880888358659,5.907653156622704 -9.181949493125314,3.5105642763160585"/><polygon points="-10.987397817472463,8.021467594934368 -7.747738924872311,6.429875232598947 -7.0622465950492295,7.825183085711483 -10.301905487649382,9.416775448046904"/><polygon points="-12.412426114619338,10.453640322342586 -13.17545149701329,10.828502433184008 -14.99986344503876,9.160491885535249 -13.73005813931534,7.771622987377797"/><polygon points="-9.917680642777368,9.22801195510182 -8.601330510769516,8.581310285043774 -7.0622465950492295,7.825183085711483 -5.841518354137008,10.309954434649372 -5.143354976743063,11.731053987265462 -6.682438892463351,12.487181186597752 -7.998789024471202,13.133882856655797 -8.696952401865147,11.712783304039707"/><polygon points="-9.917680642777368,9.22801195510182 -7.998789024471202,13.133882856655797 -9.970046934938733,13.237234791536075 -11.546566069895325,10.028257194142912"/><polygon points="-7.409826233511001,12.844534900322142 -6.1394030485048185,12.220396401417764 -5.143354976743063,11.731053987265462 -4.715853443080198,12.601226009892466 -4.076155243222391,13.903320698703816 -5.072203314984146,14.392663112856118 -5.711901514841954,13.090568424044768 -6.982324699848136,13.714706922949146"/><polygon points="-15.228687531981961,5.0949021328231785 -10.039784734542692,3.7353302309332133 -13.079390993018894,7.059945883438498"/><polygon points="-13.079390993018894,7.059945883438498 -14.068351687926206,8.14163670995023 -14.99986344503876,9.160491885535249 -15.87844279317929,8.35723052713928 -14.946931036066738,7.3383753515542605 -16.028704419743946,6.349339176861284 -15.039743724836633,5.2676483503495515 -13.957970341159426,6.256684525042528"/><polygon points="-16.9602161768565,7.368194352446303 -18.507120339159627,5.953901674898367 -15.228687531981961,5.0949021328231785 -15.039743724836633,5.2676483503495515"/></g><g fill="#A38590" stroke="#301628" stroke-width="0.3"><polygon points="-19.49532416202997,4.255179269757128 -19.80253111759818,-0.20438746293979282 -20.176283335407923,-5.629957836934639 -16.338462324406315,-5.8943344859398445 -14.576164925236917,-6.0157341759221055 -14.230508103275987,-0.9980103379458933 -13.946394257562156,3.1263254939056324 -15.692583181184991,3.4815637098713017"/><polygon points="-13.946394257562156,3.1263254939056324 -14.281898935121603,-1.7440248402556966 -14.576164925236917,-6.0157341759221055 -10.332683103496061,-6.308055652335506 -8.27539431606295,-6.4497764658123184 -8.80185238348714,-2.5316117413025734 -10.59116340980414,-2.2744537202989563 -10.885867367231825,2.3244206351125087"/><polygon points="-13.163145030715036,-6.113073125190584 -17.52971937453681,-5.812272152622448 -20.176283335407923,-5.629957836934639 -20.062235878184502,-8.328692724507619 -19.905640587733902,-12.034248147288743 -17.545952257688093,-12.481574419072127 -13.652694934709121,-13.219619465617628 -13.369438833945795,-9.107735079858301"/><polygon points="-13.652694934709121,-13.219619465617628 -12.155106285325665,-13.322784117532674 -9.167158599108667,-13.528615393775219 -8.77518543715145,-10.417126258885515 -8.27539431606295,-6.4497764658123184 -11.53126883049717,-6.225488467169327 -11.880899811299466,-10.203182368159284 -13.43751427828158,-10.095951594396244"/><polygon points="-9.167158599108667,-13.528615393775219 -12.349320818135144,-13.309405226952551 -15.088547311590517,-13.120707651132822 -15.223088932151683,-15.073779755597226 -15.36581212810025,-17.145619618269542 -12.982832426557358,-17.309776358861495 -10.214522470051632,-17.5004774123006 -9.675387642691392,-15.455945227198157"/></g><g fill="#A38A7C" stroke="#301C14" stroke-width="0.3"><polygon points="-1.576693541246918,-24.391380565261596 0.6324780433565773,-24.82177073457711 6.540014208569099,-24.929124345571946 13.564521972334672,-23.823828056225423 0.06830205218967636,-19.3872493178094"/><polygon points="-1.576693541246918,-24.391380565261596 -0.8366114419408661,-22.14002623118679 0.06830205218967644,-19.3872493178094 -3.7074231728866702,-18.146064574615405 -4.678895101334795,-21.071612875849965 -8.908188292395652,-19.895584833798207 -9.762622689289811,-22.44377315084629 -5.473411913036874,-23.464268021830787"/></g><g fill="#899995" stroke="#172A2E" stroke-width="0.3"><polygon points="13.659788889235436,-5.689963591900149 17.519556341243774,-4.348274291003835 16.799616559088573,-2.277153848504792 12.977092426275416,-3.7259846099003973"/><polygon points="17.519556341243774,-4.348274291003835 19.49733022794267,-3.6607825971725627 18.057450663632274,0.481458287825526 16.079676776933375,-0.20603340600574782"/><polygon points="18.255020021577007,-0.0869086036744895 20.49819891746745,0.6928402185107992 19.912643240678236,2.3773649002682387 17.66946434478779,1.5976160780829476"/><polygon points="19.47259156026151,3.6433041547136242 20.49819891746745,0.6928402185107992 24.231857793830834,1.9906930632480586 22.761306304544057,4.786490484192613"/><polygon points="24.231857793830834,1.9906930632480586 18.255020021577007,-0.0869086036744895 19.49733022794267,-3.6607825971725627 26.013125363034085,-1.3958345845570292"/><polygon points="19.594283810523788,-3.627080674440154 13.659788889235436,-5.689963591900149 14.950764240115483,-9.403837316124566 20.885259161403834,-7.340954398664573"/><polygon points="17.444490384734596,-8.536996054519554 14.950764240115483,-9.403837316124566 16.188469110087976,-12.964462692745368 18.68219525470709,-12.097621431140354"/><polygon points="23.08209394707255,-6.217383140879061 24.431426230244856,-10.099137899639752 27.33210809762481,-8.543721060934374 26.152454891409793,-5.150098523313896"/><polygon points="26.013125363034085,-1.3958345845570292 19.594283810523788,-3.627080674440154 20.773631748204018,-7.019825016524681 27.701822012963884,-4.6115248097426305"/><polygon points="21.973295919981055,-10.953605734424416 22.856595485463313,-13.494679074536702 25.378605960498714,-12.6180059295412 24.49530639501646,-10.076932589428916"/><polygon points="23.60203435462124,-15.639155208255255 22.642770850667286,-12.879549055036724 21.973295919981055,-10.953605734424416 18.29590605178262,-12.231898974298 16.188469110087976,-12.964462692745368 16.857944040774207,-14.890406013357676 17.817207544728163,-17.65001216657621 19.924644486422807,-16.91744844812884"/></g><g fill="#899E81" stroke="#17301A" stroke-width="0.3"><polygon points="-31.85107755142532,-31.799016906211396 -28.3808183978481,-28.24260113830825 -25.732937276194384,-25.52898069792266 -22.36783532409722,-22.080332884198597 -19.13851544201403,-18.770838221125665 -22.299449243450518,-16.488615796368798 -25.426918152703692,-19.693730818118524 -29.764762406786552,-16.30947853102247 -32.87323139308719,-19.495121916047978 -28.685886640167986,-23.033610176687464 -31.250255047681815,-25.66164452097953 -34.61106413633202,-29.10589289172929"/><polygon points="-21.8208064898071,-32.02582543973916 -23.151883276590294,-33.75468242978788 -24.577072596406587,-35.605776628238885 -21.937876221352894,-37.637739393705864 -20.011469663024066,-39.12091299710851 -18.85934028327416,-37.059585245671414 -17.783291893468874,-35.13437749836414 -19.48687731498338,-33.8227577276529"/><polygon points="-21.8208064898071,-32.02582543973916 -19.903703609306845,-33.50183598126878 -17.783291893468874,-35.13437749836414 -17.1166323782586,-33.7596818087209 -16.062692242986003,-31.58638805374575 -17.849732328273433,-30.210515099378295 -19.465427841312064,-28.966563283644312 -20.90819698910096,-30.840490881923245"/><polygon points="-18.7389287164546,-19.22073103257606 -20.88465999702927,-21.419734686828356 -24.480791794054255,-25.105148156082947 -21.90381072604873,-27.08921028461404 -19.05260604116628,-29.28440190095911 -16.019173489622087,-26.1756578908578 -14.209192242898444,-24.32073998398577 -16.58847814847286,-21.64191319412041"/><polygon points="-19.05260604116628,-29.28440190095911 -16.062692242986003,-31.58638805374575 -13.699510667397567,-26.713352491085146 -13.997247802130834,-24.55936723116153 -14.209192242898444,-24.32073998398577"/><polygon points="-24.209840256416662,-36.76666515431677 -26.26523365104611,-39.110950816287044 -27.975746538488252,-41.06188188725553 -30.251808100119856,-43.657851349177726 -28.096085786156667,-45.547918535380326 -25.711331396352485,-47.638793593882156 -23.710239651808276,-44.648359555184236 -25.950574078435743,-42.76466563480115 -24.33817242459654,-40.67298672957918 -22.20637293937049,-42.40097923451681 -20.39929055499278,-39.70047302948753 -22.40067184619017,-38.15957508735066"/></g><g fill="#899E81" stroke="#17301A" stroke-width="0.3"><polygon points="-9.265237509738938,-39.67365070888306 -10.074157714252578,-38.3066771512576 -11.11892549579746,-36.54115080729695 -14.054829270188245,-38.27850107889838 -16.070482345982395,-39.47128384284025 -14.505269021939,-40.92883135844125 -13.29338949755278,-42.05734972896841 -11.653631096374362,-41.08700637899292"/><polygon points="-7.935586956037215,-34.65737855123949 -5.4028742832492185,-33.15862062588151 -4.219684800405078,-32.45845647632529 -2.1039699100164198,-31.206461137952644 -3.2981278553766353,-29.18848417826324 -4.073450989327856,-27.878285450610186 -6.222883705185241,-29.073301898383733 -7.424929498329132,-29.741601251597476 -6.6289095706199115,-31.086774961500883 -9.18609586826949,-32.54417553435567"/><polygon points="-11.99911578016402,-27.79052515552046 -17.168052448422923,-38.44921193006258 -16.070482345982395,-39.47128384284025 -7.935586956037215,-34.65737855123949"/><polygon points="-2.1642505811212693,-31.104594374115546 -1.2513599665219752,-32.647264867692826 0.016886950021126168,-34.79044288423996 2.514021172688575,-33.31273886075685 5.241815006871998,-31.69853971702822 3.0454953845712125,-30.104557958709464 1.4645732914793244,-28.957201739639782 -0.4299376524634271,-30.078297441658762"/></g><g fill-rule="nonzero" stroke="#99948A" stroke-width="0.3" stroke-linecap="butt"><line x1="-18.736763849624047" y1="-70.46409669714063" x2="-16.61164474529256" y2="-71.79851558854448"/><line x1="-27.563490579918234" y1="-63.12272670143322" x2="-14.647014439806824" y2="-71.23332611988495"/><line x1="-29.316266730032126" y1="-60.22327870050229" x2="-13.636257320682105" y2="-70.0691742696397"/><line x1="-28.848716775785892" y1="-58.71803260227709" x2="-12.826143389146402" y2="-68.77903321746945"/><line x1="-28.15344529061499" y1="-57.35577891903037" x2="-12.016029457610708" y2="-67.4888921652992"/><line x1="-27.458173805444094" y1="-55.99352523578366" x2="-11.205915526075012" y2="-66.19875111312896"/><line x1="-26.762902320273188" y1="-54.631271552536944" x2="-10.395801594539316" y2="-64.90861006095872"/><line x1="-26.06763083510229" y1="-53.26901786929023" x2="-9.585687663003617" y2="-63.61846900878847"/><line x1="-25.37235934993139" y1="-51.90676418604352" x2="-8.775573731467917" y2="-62.328327956618224"/><line x1="-24.677087864760487" y1="-50.5445105027968" x2="-7.965459799932223" y2="-61.03818690444798"/><line x1="-23.918977305735595" y1="-49.22171514783774" x2="-7.155345868396527" y2="-59.74804585227774"/><line x1="-23.130649008415485" y1="-47.917894315649875" x2="-6.345231936860827" y2="-58.45790480010749"/><line x1="-22.283073492256904" y1="-46.65127639031088" x2="-5.535118005325128" y2="-57.167763747937244"/><line x1="-21.435497976098326" y1="-45.38465846497188" x2="-4.725004073789432" y2="-55.877622695767"/><line x1="-20.587922459939744" y1="-44.11804053963289" x2="-4.422960273959064" y2="-54.268450874674784"/><line x1="-19.740346943781162" y1="-42.85142261429389" x2="-4.542106824363293" y2="-52.3948024136218"/><line x1="-9.11554707958325" y1="-47.72418428839693" x2="-18.89277142762258" y2="-41.58480468895489"/><line x1="-15.046678224213393" y1="-42.20103588954028" x2="-17.035274842493926" y2="-40.952343103612826"/><line x1="-2.2856807258169685" y1="-56.31799227524988" x2="-13.074296345147454" y2="-73.49932364699663"/><line x1="-12.774973797555779" y1="-75.42263998802397" x2="-0.4496293991080673" y2="-55.794002371052855"/><line x1="-11.784982194916058" y1="-76.24603634657187" x2="0.5013342553148146" y2="-56.6795524048018"/><line x1="-10.794990592276335" y1="-77.06943270511977" x2="1.4522979097376965" y2="-57.56510243855074"/><line x1="-9.804998989636614" y1="-77.89282906366765" x2="2.4032615641605837" y2="-58.45065247229968"/><line x1="-8.611005065390684" y1="-78.39134300803056" x2="3.3542252185834656" y2="-59.33620250604862"/><line x1="-6.888730225865003" y1="-78.04854702134651" x2="4.30518887300635" y2="-60.22175253979756"/><line x1="-4.875229297741644" y1="-77.24196104446861" x2="5.256152527429235" y2="-61.107302573546505"/><line x1="-2.861728369618284" y1="-76.43537506759071" x2="5.569724091230798" y2="-63.0079267473986"/><line x1="-0.6677870820603133" y1="-75.34143010808967" x2="1.6333356760666504" y2="-71.67679378870797"/><path d="M -7.544688146922622,-72.66618058724032 L -8.19007207815176,-73.69398207500308 L -7.111549064196869,-74.37121540357359 L -7.744645111736329,-75.37944791149879 L -8.823168125691218,-74.70221458292828 L -9.415254033187109,-75.64513669046923 L -8.33673101923222,-76.32237001903974 L -7.203256724956063,-77.03410872023528 L -6.611170817460172,-76.09118661269433 L -5.787769638575501,-76.60822214546441 L -5.154673591036041,-75.59998963753921 L -5.978074769920712,-75.08295410476913 L -5.332690838691576,-74.05515261700637 L -6.466165132967733,-73.34341391581083 Z" fill="#99948A" stroke="#1A1917" stroke-width="0.3"/></g><g fill-rule="nonzero" stroke="#99948A" stroke-width="0.3" stroke-linecap="butt"><line x1="-50.72783539274272" y1="-32.316698237351574" x2="-48.146694564330645" y2="-31.165871537829208"/><line x1="-57.63769997474778" y1="-37.132634761573186" x2="-45.97924044921579" y2="-31.93459738616305"/><line x1="-57.50031167210938" y1="-38.80648516299959" x2="-44.41247941727652" y2="-32.97114807796432"/><line x1="-57.353653125042136" y1="-40.47620233593945" x2="-43.10061591927674" y2="-34.12134731015944"/><line x1="-56.7083245629558" y1="-41.92358264092613" x2="-41.78875242127697" y2="-35.27154654235456"/><line x1="-56.06299600086947" y1="-43.37096294591281" x2="-40.476888923277194" y2="-36.42174577454967"/><line x1="-55.417667438783134" y1="-44.81834325089949" x2="-39.16502542527742" y2="-37.571945006744784"/><line x1="-54.7723388766968" y1="-46.265723555886176" x2="-37.85316192727764" y2="-38.722144238939904"/><line x1="-54.127010314610466" y1="-47.713103860872856" x2="-36.541298429277866" y2="-39.87234347113501"/><line x1="-53.48168175252413" y1="-49.16048416585954" x2="-35.229434931278085" y2="-41.02254270333013"/><line x1="-52.8363531904378" y1="-50.60786447084622" x2="-33.91757143327831" y2="-42.172741935525245"/><line x1="-52.191024628351464" y1="-52.055244775832904" x2="-32.60570793527854" y2="-43.32294116772036"/><line x1="-51.54569606626513" y1="-53.502625080819584" x2="-31.293844437278764" y2="-44.47314039991547"/><line x1="-50.900367504178796" y1="-54.950005385806264" x2="-29.98198093927899" y2="-45.623339632110586"/><line x1="-50.255038942092455" y1="-56.39738569079296" x2="-28.674782796827547" y2="-46.775618958374466"/><line x1="-49.60971038000612" y1="-57.84476599577964" x2="-27.970706287796208" y2="-48.1968059208119"/><line x1="-48.96438181791979" y1="-59.29214630076632" x2="-27.26662977876487" y2="-49.617992883249336"/><line x1="-48.31905325583345" y1="-60.739526605753" x2="-28.227492791067952" y2="-51.781509296738236"/><line x1="-47.67372469374712" y1="-62.18690691073968" x2="-29.373948780612622" y2="-54.02777414111567"/><line x1="-47.028396131660784" y1="-63.63428721572637" x2="-30.5204047701573" y2="-56.27403898549312"/><line x1="-46.38306756957445" y1="-65.08166752071305" x2="-31.666860759701976" y2="-58.52030382987057"/><line x1="-45.737739007488116" y1="-66.52904782569973" x2="-33.60372420218354" y2="-61.11897951147492"/><line x1="-44.550023822932005" y1="-67.73459978884192" x2="-37.82745784719697" y2="-64.73727847687925"/><line x1="-43.24251095415862" y1="-68.88673879131937" x2="-42.17245140799757" y2="-68.40964235309113"/></g><g fill-rule="nonzero" stroke="#99948A" stroke-width="0.3" stroke-linecap="butt"><line x1="-46.62229719159485" y1="-76.93020943143222" x2="-47.08363833173724" y2="-78.01131470119445"/><line x1="-43.28192520164371" y1="-72.86833319189158" x2="-45.83738009957589" y2="-78.85677756938964"/><line x1="-40.69039016410107" y1="-70.56127893764292" x2="-44.591121867414536" y2="-79.7022404375848"/><line x1="-38.17675085617292" y1="-68.4367652731024" x2="-43.24679084570533" y2="-80.31787986196626"/><line x1="-35.66311154824478" y1="-66.31225160856187" x2="-41.88730828597045" y2="-80.89801322330833"/><line x1="-33.14947224031663" y1="-64.18773794402134" x2="-40.52782572623556" y2="-81.47814658465037"/><line x1="-31.4154246790892" y1="-63.89011694585166" x2="-39.16834316650068" y2="-82.05827994599244"/><line x1="-29.946688668784166" y1="-64.21422614009983" x2="-37.80886060676579" y2="-82.6384133073345"/><line x1="-28.61185866005132" y1="-64.85213020620313" x2="-36.4493780470309" y2="-83.21854666867655"/><line x1="-27.425779533627235" y1="-65.83861658754537" x2="-35.08989548729602" y2="-83.79868003001862"/><line x1="-26.239700407203152" y1="-66.82510296888759" x2="-33.73041292756112" y2="-84.37881339136067"/><line x1="-25.053621280779076" y1="-67.81158935022981" x2="-32.37093036782625" y2="-84.95894675270273"/><line x1="-23.867542154355" y1="-68.79807573157203" x2="-31.011447808091354" y2="-85.53908011404478"/><line x1="-22.681463027930917" y1="-69.78456211291426" x2="-29.651965248356465" y2="-86.11921347538684"/><line x1="-21.49538390150683" y1="-70.77104849425648" x2="-28.29248268862158" y2="-86.6993468367289"/><line x1="-20.309304775082754" y1="-71.75753487559871" x2="-26.933000128886693" y2="-87.27948019807096"/><line x1="-19.12322564865868" y1="-72.74402125694093" x2="-25.57351756915181" y2="-87.85961355941302"/><line x1="-17.937146522234595" y1="-73.73050763828314" x2="-24.21403500941692" y2="-88.43974692075507"/><line x1="-16.751067395810512" y1="-74.71699401962537" x2="-22.854552449682032" y2="-89.01988028209713"/><line x1="-15.564988269386435" y1="-75.70348040096759" x2="-21.49506988994715" y2="-89.60001364343918"/><line x1="-14.37890914296235" y1="-76.68996678230982" x2="-20.135587330212257" y2="-90.18014700478125"/><line x1="-13.192830016538272" y1="-77.67645316365204" x2="-18.776104770477374" y2="-90.7602803661233"/><line x1="-12.051551449924016" y1="-78.76792502555156" x2="-17.375530630580315" y2="-91.24411985728835"/><line x1="-11.136210869206092" y1="-80.38885920055976" x2="-15.801904302875373" y2="-91.32242943597853"/><line x1="-12.569381081940003" y1="-87.51328563752116" x2="-14.228277975170421" y2="-91.40073901466872"/><line x1="-34.10091666733448" y1="-88.528080928009" x2="-41.58966719994503" y2="-106.0771936350208"/><line x1="-32.29435178840864" y1="-87.66366722785065" x2="-40.91859492081644" y2="-107.87368945842661"/><line x1="-30.89851772432211" y1="-87.76175873206117" x2="-39.937440608014064" y2="-108.94354009133447"/><line x1="-29.682297828867604" y1="-88.28075747244863" x2="-38.72122071255956" y2="-109.46253883172191"/><line x1="-28.466077933413096" y1="-88.79975621283607" x2="-37.50500081710505" y2="-109.98153757210936"/><line x1="-27.249858037958596" y1="-89.31875495322352" x2="-36.28878092165054" y2="-110.5005363124968"/><line x1="-26.03363814250409" y1="-89.83775369361096" x2="-35.072561026196034" y2="-111.01953505288427"/><line x1="-24.81741824704958" y1="-90.35675243399841" x2="-33.856341130741534" y2="-111.53853379327171"/><line x1="-23.60119835159508" y1="-90.87575117438585" x2="-32.64012123528703" y2="-112.05753253365916"/><line x1="-22.384978456140566" y1="-91.3947499147733" x2="-31.42390133983252" y2="-112.5765312740466"/><line x1="-21.168758560686065" y1="-91.91374865516075" x2="-30.207681444378014" y2="-113.09553001443405"/><line x1="-19.952538665231558" y1="-92.4327473955482" x2="-28.99146154892351" y2="-113.61452875482149"/><line x1="-18.736318769777053" y1="-92.95174613593565" x2="-27.775241653469006" y2="-114.13352749520894"/><line x1="-17.520098874322546" y1="-93.4707448763231" x2="-26.5590217580145" y2="-114.6525262355964"/><line x1="-16.547419694754957" y1="-94.56045610783102" x2="-25.342801862559988" y2="-115.17152497598384"/><line x1="-15.876347415626359" y1="-96.35695193123682" x2="-23.946967798473466" y2="-115.26961648019439"/><line x1="-20.391036527016198" y1="-110.30574348376129" x2="-22.14040291954762" y2="-114.405202780036"/><line x1="-47.35396404746519" y1="-118.8650680047752" x2="-47.253244955174324" y2="-119.86879301821992"/><line x1="-45.95829407013418" y1="-115.55026596635281" x2="-45.53840605305309" y2="-119.7346971005502"/><line x1="-44.55903372957718" y1="-112.27124400989214" x2="-43.82631348574198" y2="-119.57323234067275"/><line x1="-42.1152477174125" y1="-119.4015349248191" x2="-43.00416551323069" y2="-110.54294608863096"/><line x1="-40.404181949083025" y1="-119.22983750896546" x2="-41.27545848308131" y2="-110.54705422616958"/><line x1="-38.693116180753556" y1="-119.05814009311183" x2="-39.46984656518215" y2="-111.31756481765109"/><line x1="-36.98205041242408" y1="-118.88644267725819" x2="-37.664234647282996" y2="-112.0880754091326"/><line x1="-35.270984644094604" y1="-118.71474526140456" x2="-35.85862272938383" y2="-112.85858600061411"/><line x1="-33.559918875765135" y1="-118.54304784555092" x2="-34.053010811484675" y2="-113.6290965920956"/><line x1="-31.848853107435655" y1="-118.37135042969729" x2="-32.24739889358551" y2="-114.39960718357712"/><line x1="-30.137787339106186" y1="-118.19965301384364" x2="-30.441786975686348" y2="-115.17011777505863"/><line x1="-28.426721570776714" y1="-118.02795559799002" x2="-28.63617505778719" y2="-115.94062836654012"/><line x1="-47.917723951831775" y1="-114.28194672799525" x2="-36.79240416099214" y2="-88.21090990271932"/><line x1="-36.959795278778834" y1="-85.17522365920237" x2="-49.664171727612725" y2="-114.94661652401095"/><line x1="-38.19726534589838" y1="-84.6471568116672" x2="-50.7407669695632" y2="-114.04155615448317"/><line x1="-39.434735413017926" y1="-84.11908996413204" x2="-51.58199303043528" y2="-112.58493244090823"/><line x1="-40.672205480137464" y1="-83.59102311659687" x2="-52.42321909130737" y2="-111.12830872733329"/><line x1="-41.90967554725701" y1="-83.06295626906171" x2="-53.264445152179455" y2="-109.67168501375835"/><line x1="-43.147145614376555" y1="-82.53488942152654" x2="-54.105671213051544" y2="-108.21506130018341"/><line x1="-44.38461568149609" y1="-82.00682257399137" x2="-54.94689727392363" y2="-106.75843758660847"/><line x1="-45.62208574861564" y1="-81.47875572645621" x2="-55.78812333479571" y2="-105.30181387303352"/><line x1="-46.859555815735185" y1="-80.95068887892104" x2="-56.6293493956678" y2="-103.84519015945858"/><line x1="-48.26577416662896" y1="-80.81806618968345" x2="-57.47057545653989" y2="-102.38856644588364"/><line x1="-50.01222194240991" y1="-81.48273598569915" x2="-58.31180151741197" y2="-100.93194273230871"/><line x1="-52.9949874840148" y1="-85.04458865883792" x2="-59.15302757828406" y2="-99.47531901873376"/><line x1="-56.19840517285348" y1="-89.12351682861498" x2="-59.99425363915615" y2="-98.01869530515883"/><line x1="-59.401822861692146" y1="-93.20244499839202" x2="-60.11253878813338" y2="-94.86793430017514"/><path d="M -35.093456996157315,-107.2065765535942 L -34.57717703643956,-105.70212659394619 L -34.266933363748635,-104.79807042814794 L -33.9563088898757,-103.89290460021361 L -35.14554391175071,-103.4847965037953 L -35.45616838562364,-104.38996233172962 L -36.485440424287205,-104.03674850547236 L -36.17481595041427,-103.13158267753803 L -37.45684601088304,-102.6916302392857 L -37.767470484755975,-103.59679606722003 L -38.0777141574469,-104.50085223301828 L -38.593994117164655,-106.00530219266629 L -37.311964056695885,-106.44525463091863 L -36.28269201803232,-106.79846845717589 Z" fill="#99948A" stroke="#1A1917" stroke-width="0.3"/></g><g><path fill="none" stroke="#1A1917" stroke-width="1.9" stroke-linejoin="round" stroke-linecap="round" d="M 22.911089938813205,8.69060409550946 L 11.126030334934761,12.549816045677764 L 1.6935425652456804,17.718369007207016 M -2.7737148529498006,18.19628843317776 L -10.79222086200889,15.649582321098336 L -21.3286172283148,6.0164398215508745 L -22.56787892163571,-11.973290295130917 L -13.116232511690628,-22.614854451828148 M -9.128260478279527,-24.90684770289036 L 3.5408228367408836,-27.37503485097132 L 19.49704344293219,-24.864346270201125 L 28.23650925753505,-12.439913433003554 L 30.288489941443274,-5.3352331845119165 L 22.911089938813205,8.69060409550946"/><g stroke="#1A1917" stroke-width="3.8" stroke-linecap="butt"><line x1="0.027293610986706907" y1="18.63139388224103" x2="-0.9628535720628906" y2="18.77142443568901" stroke="#CCC5B8" stroke-width="3.8" stroke-linecap="butt"/><line x1="3.789852906575177" y1="18.099277779138713" x2="0.027293610986706907" y2="18.63139388224103"/><line x1="-0.9628535720628906" y1="18.77142443568901" x2="-4.725412867651361" y2="19.303540538791328"/></g><g stroke="#1A1917" stroke-width="3.8" stroke-linecap="butt"><line x1="-11.854502227152281" y1="-24.035430633903147" x2="-10.993198472693791" y2="-24.543521022078036" stroke="#CCC5B8" stroke-width="3.8" stroke-linecap="butt"/><line x1="-15.127456494094542" y1="-22.10468715883857" x2="-11.854502227152281" y2="-24.035430633903147"/><line x1="-10.993198472693791" y1="-24.543521022078036" x2="-7.72024420575153" y2="-26.474264497142613"/></g><polygon points="23.408665655232923,6.781455039416841 25.489628681932498,9.244459887465124 23.026623833884216,11.325422914164697 20.94566080718464,8.862418066116415" stroke="none" fill="#1A1917"/><polygon points="12.530917681465333,11.737081968990864 13.81284034208868,14.695709064821017 10.854213246258528,15.977631725444365 9.57229058563518,13.019004629614212" stroke="none" fill="#1A1917"/><polygon points="-8.827323069040766,15.47179487739397 -10.440887707545883,18.26342686556251 -13.232519695714426,16.649862227057397 -11.618955057209309,13.858230238888854" stroke="none" fill="#1A1917"/><polygon points="-19.60388507343678,6.974422444503794 -22.50804297408191,8.375374580774148 -23.908995110352265,5.471216680129016 -21.004837209707134,4.070264543858663" stroke="none" fill="#1A1917"/><polygon points="-22.012063378424973,-10.080276614811812 -25.063808754908756,-11.121261800638127 -24.02282356908244,-14.17300717712191 -20.971078192598654,-13.132021991295595" stroke="none" fill="#1A1917"/><polygon points="1.949547719842977,-26.20872648081723 1.89096245256423,-29.432601131987447 5.114837103734445,-29.491186399266194 5.173422371013192,-26.267311748095977" stroke="none" fill="#1A1917"/><polygon points="17.527367486619333,-24.751172337367766 19.2317256193944,-27.488317447741615 21.968870729768252,-25.78395931496655 20.264512596993182,-23.0468142045927" stroke="none" fill="#1A1917"/><polygon points="26.514057020141134,-13.401989314546492 29.421533766093503,-14.796040594717423 30.815585046264435,-11.888563848765054 27.908108300312065,-10.494512568594123" stroke="none" fill="#1A1917"/><polygon points="29.32054052213404,-7.054391593038849 32.52834413243361,-6.727595023673378 32.20154756306814,-3.5197914133738073 28.99374395276857,-3.8465879827392784" stroke="none" fill="#1A1917"/></g><g id="labels" style="font: bold italic 2px &quot;Archivo Narrow&quot;, sans-serif" fill="#1A1917"><text text-anchor="middle" stroke="#CCC5B8" stroke-width="0.8953542334738016" x="-4.9994959409621265" y="6.5163677640971365">Gate</text><text text-anchor="middle" x="-4.9994959409621265" y="6.5163677640971365">Gate</text><text text-anchor="middle" stroke="#CCC5B8" stroke-width="0.8953542334738016" x="13.56146419311748" y="-10.37064798921157">Craftsmen</text><text text-anchor="middle" x="13.56146419311748" y="-10.37064798921157">Craftsmen</text><text text-anchor="middle" stroke="#CCC5B8" stroke-width="0.8953542334738016" x="11.530228018739962" y="7.569001135190857">Craftsmen</text><text text-anchor="middle" x="11.530228018739962" y="7.569001135190857">Craftsmen</text><text text-anchor="middle" stroke="#CCC5B8" stroke-width="0.8953542334738016" x="-14.734715019244174" y="-7.52317056161707">Merchant</text><text text-anchor="middle" x="-14.734715019244174" y="-7.52317056161707">Merchant</text><text text-anchor="middle" stroke="#CCC5B8" stroke-width="0.8953542334738016" x="0.7721442855204023" y="-22.574494643028434">Gate</text><text text-anchor="middle" x="0.7721442855204023" y="-22.574494643028434">Gate</text><text text-anchor="middle" stroke="#CCC5B8" stroke-width="0.8953542334738016" x="-14.489678718729493" y="-34.869031355803216">Gate</text><text text-anchor="middle" x="-14.489678718729493" y="-34.869031355803216">Gate</text></g></g></svg>