<svg width="81.38030750544547" height="113.3360296643717" xmlns="http://www.w3.org/2000/svg"><rect x="0" y="0" width="81.38030750544547" height="113.3360296643717" id="background" fill="#CCC5B8"/><g id="map" transform="translate(40.690153752722736 56.66801483218585)"><g fill="none"><path d="M 15.040443203095084,2.115117695588946 L 26.725789968779083,-2.251992629530077 C 29.748609681626537,-3.381696988643866 34.95457714107304,-3.7482314300428765 41.26025863416476,-6.3943711745274765 C 44.57233066165719,-7.784261456512885 47.31966398774399,-10.860063666136336 51.10173092468988,-12.481203578943203 C 56.11944233741711,-14.631988421658702 61.980977751650734,-17.711536591661602 69.09523310967258,-18.325515928577026 C 74.34491272926347,-18.77857737347167 81.65279318329407,-13.946858109587478 90.56695720304853,-15.887158558375 C 101.16179464014223,-18.193282586210643 115.47508539902363,-26.73654164299002 136.10875119354927,-32.912005354262746 C 164.111954741617,-41.29310297562468 164.111954741617,-41.29310297562468 221.0771744733018,-54.94764925007746" stroke="#67635C" stroke-width="2.3" stroke-linejoin="round" stroke-linecap="butt"/><path d="M 15.040443203095084,2.115117695588946 L 26.725789968779083,-2.251992629530077 C 29.748609681626537,-3.381696988643866 34.95457714107304,-3.7482314300428765 41.26025863416476,-6.3943711745274765 C 44.57233066165719,-7.784261456512885 47.31966398774399,-10.860063666136336 51.10173092468988,-12.481203578943203 C 56.11944233741711,-14.631988421658702 61.980977751650734,-17.711536591661602 69.09523310967258,-18.325515928577026 C 74.34491272926347,-18.77857737347167 81.65279318329407,-13.946858109587478 90.56695720304853,-15.887158558375 C 101.16179464014223,-18.193282586210643 115.47508539902363,-26.73654164299002 136.10875119354927,-32.912005354262746 C 164.111954741617,-41.29310297562468 164.111954741617,-41.29310297562468 221.0771744733018,-54.94764925007746" stroke="#CCC5B8" stroke-width="1.7" stroke-linejoin="round" stroke-linecap="round"/></g><g fill="none"><path d="M -17.26511296981473,14.851019518584886 L -21.076006657023783,29.49522261859737 C -21.982311149157375,32.97789837462927 -24.57795110328265,38.12314315008498 -29.936379380824064,41.8443001771965 C -33.38252533827527,44.237473992691775 -38.579369985977564,43.93713161946081 -43.60750757474738,45.14220875495496 C -50.06662425509282,46.6902439249467 -56.52380377703476,48.04903290428955 -62.81121640008912,49.72330382926354 C -67.1970574947044,50.89120653686463 -71.63473189011228,51.82342529144692 -75.60842588680484,53.663712005097594 C -81.02489424147922,56.1721725851808 -85.85749639948965,60.44981656907146 -91.80493829790143,63.15080006632589 C -96.78055493998887,65.41043684269046 -96.78055493998887,65.41043684269046 -107.44438709151396,68.12176091115153" stroke="#67635C" stroke-width="2.3" stroke-linejoin="round" stroke-linecap="butt"/><path d="M -17.26511296981473,14.851019518584886 L -21.076006657023783,29.49522261859737 C -21.982311149157375,32.97789837462927 -24.57795110328265,38.12314315008498 -29.936379380824064,41.8443001771965 C -33.38252533827527,44.237473992691775 -38.579369985977564,43.93713161946081 -43.60750757474738,45.14220875495496 C -50.06662425509282,46.6902439249467 -56.52380377703476,48.04903290428955 -62.81121640008912,49.72330382926354 C -67.1970574947044,50.89120653686463 -71.63473189011228,51.82342529144692 -75.60842588680484,53.663712005097594 C -81.02489424147922,56.1721725851808 -85.85749639948965,60.44981656907146 -91.80493829790143,63.15080006632589 C -96.78055493998887,65.41043684269046 -96.78055493998887,65.41043684269046 -107.44438709151396,68.12176091115153" stroke="#CCC5B8" stroke-width="1.7" stroke-linejoin="round" stroke-linecap="round"/></g><g fill-rule="nonzero" fill="#99948A" stroke="#1A1917" stroke-width="0.3"><path d="M -0.8526568959280605,-5.481672379032875 L 0.018016141357187765,-6.618449876808664 L 0.9662891536389344,-5.892154937478485 L 0.09561611635368616,-4.755377439702696 Z"/></g><g fill="#A39D7C" stroke="#302E14" stroke-width="0.3"><polygon points="-15.959881658519258,14.349550311657245 -14.375812169951198,10.675844560871223 -12.743626133037901,11.379628771184743 -14.149064416843622,14.639060723415088"/><polygon points="-8.156686482337157,13.357476655442609 -9.060116699999659,15.45267311621201 -13.6470563507004,13.474825231954144 -12.743626133037901,11.379628771184743"/><polygon points="-8.156686482337157,13.357476655442609 -9.727305730635516,12.680239500873327 -12.223528498265843,11.603890279919503 -14.375812169951198,10.675844560871223 -13.703568892651788,9.116806897710038 -13.15769748447479,7.850845432078703 -11.005413812789435,8.778891151126981 -8.50919104515911,9.855240372080805 -6.93857179686075,10.532477526650087 -7.484443205037748,11.798438992281422"/><polygon points="-5.979910698792298,8.309191986182713 -6.93857179686075,10.532477526650087 -13.15769748447479,7.850845432078703 -12.199036386406338,5.627559891611329"/><polygon points="-5.979910698792298,8.309191986182713 -6.721112886100481,7.989592146287101 -8.543255092253977,7.2039005127145765 -7.672779309061191,5.185130557410367 -7.01721274667914,3.6647688134170315 -5.303654202623509,4.702283000715359 -4.60662115183007,5.124318000174677 -5.196567236922558,6.492495558734384"/><polygon points="-7.53163162599588,4.8577869284033515 -11.18741292014824,3.2814463073001052 -10.455141603514924,1.5831942000120254 -7.01721274667914,3.6647688134170315"/><polygon points="-8.543255092253977,7.2039005127145765 -10.35056090734782,6.424606199992541 -12.199036386406338,5.627559891611329 -11.592142817229796,4.22007845769119 -11.18741292014824,3.2814463073001052 -9.338937441089723,4.0784926156813155 -9.743667338171278,5.017124766072401 -7.936361523077435,5.796419078794437"/><polygon points="-2.453800808625116,16.508879777986674 -2.200377809848406,14.923780531173227 2.1340901844376248,15.616767976231873 1.9026559688077949,17.205382752672715"/><polygon points="2.1340901844376248,15.616767976231873 0.07378092210943521,15.287369200277443 -2.2003778098484066,14.923780531173227 -1.910625327282359,13.111449195442944 -1.6656780932226702,11.579363796362223 0.5841389839779318,11.939060762687468 2.622395547850214,12.26493379034251 2.3987016792631373,13.800417141711073"/><polygon points="2.622395547850214,12.26493379034251 0.027213461576357734,11.850020447851648 -1.6656780932226702,11.579363796362223 -1.5404589114388663,10.79614825676951 0.148143279032527,11.066119131912158 0.418468145252358,9.313796811259547 2.992375808817698,9.725308834867146 2.736749822157725,11.479981187635541"/><polygon points="-1.8234991960340472,12.566496426017505 -5.610487153829974,11.961039167410352 -7.429177850202716,11.670269960971932 -6.712564359046216,10.008330808332687 -4.60662115183007,5.124318000174677 -3.4314067271204616,5.835879121318534 -0.9843040487598014,7.317534799429112 -1.610437554226633,11.233847654659005"/><polygon points="-1.8234991960340472,12.566496426017505 -2.453800808625116,16.508879777986674 -4.397232662623457,16.198167165291576 -3.7669310500323885,12.255783813322406"/><polygon points="-6.954684128922643,15.78928613079588 -9.060116699999659,15.45267311621201 -7.429177850202716,11.670269960971932 -6.324382516331573,11.846902778826708"/><polygon points="-4.397232662623457,16.198167165291576 -6.954684128922643,15.78928613079588 -6.676548469557923,14.04961519998415 -4.119097003258737,14.458496234479847"/></g><g fill="#899E8C" stroke="#173025" stroke-width="0.3"><polygon points="2.0252906963973305,-18.411687001357784 0.0953385502561821,-15.891882117588793 -1.802639103241753,-13.413824114891181 -3.82751869761904,-10.77007903491193 -5.844485995854669,-12.314901172133899 -7.937142137845981,-13.91769440362041 -6.186518616155823,-16.203362319488576 -4.545609036602477,-18.34578433790449 -2.8770556904416016,-20.52429890827445 -0.3807381017865943,-19.448538477433367"/><polygon points="-5.624216868682868,-16.93752077635353 -6.678670872810419,-15.56079319550498 -7.937142137845981,-13.91769440362041 -10.421162092008984,-15.820238395210607 -11.735843220071503,-16.82717019415228 -10.390537227386114,-18.40376111073791 -9.263325720714318,-19.724762750626656 -8.003877391621767,-18.760134488596155"/><polygon points="-5.624216868682868,-16.93752077635353 -6.878931078826821,-17.898523113581764 -9.263325720714318,-19.724762750626656 -7.35240846748147,-20.84092676226211 -5.822031743353431,-21.73481759967355 -3.8924425481497495,-20.941668947341967 -2.877055690441601,-20.52429890827445 -4.098744843494654,-18.929223973144147"/><polygon points="-7.726461193151759,-13.756331059981086 -6.129735415782018,-12.533377504853307 -3.8275186976190403,-10.77007903491193 -4.865822167131931,-9.414438088816926 -5.49237693405883,-8.596388913448576 -7.794593652221808,-10.359687383389954 -9.39131942959155,-11.582640938517734 -8.76476466266465,-12.400690113886082"/><polygon points="-5.49237693405883,-8.596388913448576 -6.867675681691593,-6.800756566887296 -7.866758470038364,-5.496323348478568 -10.401734754482414,-7.437895472611428 -9.402651966135643,-8.742328691020157 -10.766618177224311,-9.787008591956456 -9.39131942959155,-11.582640938517734 -8.027353218502881,-10.537961037581436"/><polygon points="-11.735843220071503,-16.82717019415228 -9.330539713846473,-14.984916179223795 -7.726461193151759,-13.756331059981086 -8.539669910079592,-12.694580746360408 -9.612209136058846,-11.29424054359422 -11.268344996364917,-12.562697073100672 -10.166197604064543,-13.940359986643863 -12.605163474400944,-15.808396454919986"/><polygon points="-13.751708086255283,-14.464737963589325 -12.489548497834905,-13.498033111902142 -9.612209136058846,-11.29424054359422 -10.419888745180426,-10.23970920319054 -11.765700965571082,-8.482575373547727 -14.74632519117723,-10.765475195713584 -16.053791211975252,-11.766880847833555 -14.61511772341561,-13.452890994468"/><polygon points="-7.866758470038364,-5.496323348478568 -11.148034781332676,-1.212188070447585 -18.116682477168766,-9.349337442622163 -16.053791211975252,-11.766880847833555"/></g><g fill="#A3877C" stroke="#301814" stroke-width="0.3"><polygon points="14.427096773204825,-1.384941455918969 15.740604997782825,-2.033677387621199 16.916189007382638,0.3465503596534769 15.536869548616721,0.8620370089417687"/><polygon points="15.740604997782825,-2.033677387621199 17.76013467975512,-3.031114210108949 19.036904002368434,-0.4460145968641047 16.916189007382638,0.3465503596534769"/><polygon points="18.44432829378658,-1.6458141283392056 20.658354826701007,-2.739312089575922 21.36186080273719,-1.3149098938494799 19.036904002368434,-0.4460145968641047"/><polygon points="21.36186080273719,-1.3149098938494799 19.974161212669546,-4.124612171345664 22.14839372889871,-5.19845604286491 23.93547088529958,-2.2767332260756614"/><polygon points="18.548092677710315,-3.420283197695545 16.316824493595973,-2.318269660807329 14.427096773204825,-1.3849414559189688 13.107432032113639,-4.056892255006962 11.367416079171868,-7.579936306365287 13.293498357147817,-8.439656733335081 15.567691649896188,-9.454758970145074 17.26262189038643,-6.023000835323931"/><polygon points="22.767970248020898,-5.555640644201007 19.3503455971763,-11.143173273012794 20.497140222808326,-11.655053152947675 23.507125009483968,-6.3409934733223885"/><polygon points="11.354096030170417,-11.86881150039126 9.661933536719527,-11.033059891654192 8.531563307405836,-13.321742420962826 10.017547147035955,-14.574947949379357"/><polygon points="13.366777573762077,-12.862866057469734 14.827037685628346,-9.906249084016926 11.050919906641909,-8.22075224602619 9.661933536719527,-11.033059891654192"/><polygon points="11.893488356193293,-19.13352806583883 12.866448345728616,-17.979844341762863 10.884365602563932,-16.30825345008044 9.911405613028617,-17.461937174156404"/><polygon points="10.884365602563932,-16.30825345008044 8.182104088657777,-14.029299279692312 6.218207879454148,-18.005638028554085 8.962491884105535,-18.587108133276352"/></g><g fill="#938595" stroke="#20162E" stroke-width="0.3"><polygon points="19.28090812919684,13.003557052656204 11.28986210796947,16.519488890689317 9.94405435277924,13.460723191333196 17.93510037400661,9.944791353300083"/><polygon points="9.94405435277924,13.460723191333196 8.390560423477531,9.929926220680898 7.456304347656843,7.80653940847499 9.861529176513981,6.370905043602027 12.384466944376484,4.865009995237538 15.010447627910263,3.297610529897325 16.108779289885977,5.79391002082517 13.425762447002551,7.231677116929227 10.84802660638218,8.613026542268308 12.488388182008823,12.341257192387665"/><polygon points="7.456304347656843,7.80653940847499 8.670895157956439,10.567073886724021 10.276684800395117,14.216729091733956 11.28986210796947,16.519488890689317 9.809787397035091,17.170697979589367 8.835586416189411,14.906047795892546 7.291570543547305,11.316792705454853 5.122793764369552,12.495610764663152 4.028394792920438,9.852595435093637 6.123704317296299,8.601943802801562"/><polygon points="13.931654200869744,21.894072460102514 15.410328597585112,25.254818828033613 6.731928852005723,29.05031353822069 5.511881558395917,25.576456708623176"/><polygon points="8.980921305341454,24.059273541799435 7.390018666660944,24.75505418414773 5.511881558395917,25.576456708623176 4.3676209714970495,22.318388373520452 3.5300865277180247,19.93366545107002 5.185714330076937,19.20521582297585 6.588137309663754,18.58817224805207 7.599361468510178,20.900336577856653"/></g><g fill="#A39D7C" stroke="#302E14" stroke-width="0.3"><polygon points="-21.893395337674434,8.895419664753598 -22.55287355525917,8.714645384023058 -22.503719427161236,2.012322148594654 -20.18113948682388,2.6489811116326902"/><polygon points="-21.028823542842105,5.741396515410039 -20.54617944638912,3.980674430551913 -20.18113948682388,2.6489811116326902 -18.86885310375576,3.008701297510008 -19.233893063321002,4.340394616429231 -17.728657653655617,4.753005437009427 -18.2113017501086,6.513727521867553 -19.716537159773985,6.101116701287357"/><polygon points="-19.07587354494093,9.667750671211111 -18.442930303962687,7.358725965341458 -18.004780041686562,5.760320745127378 -16.668754339124963,6.126548285291822 -14.811698439975244,6.635599131087293 -15.47437799620276,8.172457024134676 -16.43167183386874,10.392571673148336 -17.969506126439487,9.971024940126"/><polygon points="-22.55287355525917,8.714645384023058 -19.719229820560187,9.49139569105044 -20.649917085900306,12.886613065972163 -22.578397203643426,12.194876816017727"/><polygon points="-20.649917085900306,12.886613065972163 -20.1484087319152,11.057072746113636 -19.719229820560187,9.49139569105044 -18.00005987799541,9.962649633233575 -16.43167183386874,10.392571673148336 -17.12171897561685,11.992899292137487 -17.928059634661857,13.862929829057931 -19.22657017093856,13.397160542340288"/><polygon points="-13.602070621653068,3.8302823791700757 -15.101318691149977,3.4193127911334047 -17.075461594066777,2.8781663911187083 -16.4934908709347,0.75509327680926 -15.74684986374012,-1.9687094600098378 -14.094769655249893,-1.5158459636342196 -14.660420829931603,1.2575691878479167 -13.268309490795007,1.6391707621211626"/><polygon points="-20.49533858651832,1.9407195020288186 -21.966621162926486,1.5374157348844686 -22.913415809030155,1.2778830974370052 -22.352355986826083,-0.7689054723212969 -22.049173550329968,-1.874937879229245 -21.1023789042263,-1.6154052417817821 -19.63109632781813,-1.2121014746374326 -19.934278764314243,-0.10606906772948399"/><polygon points="-16.35181211244623,0.2382384745663086 -16.706311827539917,1.5314801862717338 -17.075461594066777,2.8781663911187083 -19.0001178168922,2.3505851381562146 -20.49533858651832,1.9407195020288184 -20.12618881999146,0.5940332971818434 -18.63096805036534,1.0038989333092396 -18.27646833527165,-0.28934277839618544"/><polygon points="-15.087348986596671,-1.787928967905943 -17.334588281805964,-2.403935769023179 -16.91761335687437,-3.9250917606838875 -14.670374061665076,-3.3090849595666505"/><polygon points="-16.79210216070341,-4.3829660755657 -18.451001663693695,-4.837698857424095 -18.15136551835783,-5.930794126571354 -16.500638431942768,-5.446247752344595"/><polygon points="-17.851729373021975,-7.023889395718614 -18.121666497168754,-6.039138396998743 -18.451001663693695,-4.837698857424095 -19.655917270731024,-5.167986873608937 -19.326582104206082,-6.369426413183584 -20.712982791076005,-6.749462599808712 -20.443045666929226,-7.734213598528583 -19.056644980059303,-7.354177411903454"/><polygon points="-21.193997235983332,-4.994685606764913 -22.9501226951216,-5.476069689337015 -24.20166305913698,-5.819138350404733 -23.464372195414754,-8.50883105826179 -22.19927914201624,-8.215203630768617 -21.85116627976946,-9.485145621327696 -20.067207362023655,-9.105300096107538 -20.424136938752234,-7.803194065797283"/><polygon points="-23.122542753292965,-9.755850658049233 -23.591426434217894,-8.045327607417624 -24.20166305913698,-5.819138350404733 -25.096078453094027,-6.0643129372304685 -26.57460765130699,-6.469603127594809 -25.985639074724688,-8.618204939358472 -25.533096990457555,-10.269112612222742 -24.031134055762756,-9.949310460886624"/><polygon points="-26.57460765130699,-6.469603127594809 -28.93999734403382,-7.117996977381345 -28.37216443601678,-10.873614797932582 -25.533096990457555,-10.269112612222742"/><polygon points="-27.331842027816883,0.0667167535546791 -26.648133286594547,-2.4275043280409774 -26.219822524682435,-3.9900143084247017 -25.61242345477006,-6.20585195064724 -23.086120950042947,-5.513349141574354 -23.693520019955322,-3.297511499351815 -21.801396305895707,-2.778847964542374 -22.22970706780782,-1.2163379841586508 -22.913415809030155,1.2778830974370052 -24.80553952308977,0.759219562627565"/></g><g fill="#A39D7C" stroke="#302E14" stroke-width="0.3"><polygon points="1.242132705336493,25.551550941030115 1.0630022286951757,22.780172724790283 3.287650153178779,22.636380643025078 4.243352448191585,25.357564454489715"/><polygon points="1.469321145977345,29.06644749676411 1.3715770776959135,27.55422139944719 1.242132705336493,25.551550941030115 2.973780731404159,25.439624342752467 4.243352448191585,25.357564454489715 4.995609806073252,27.49947680000242 5.563642955863898,29.11684511611059 3.8316687538306526,29.095525986690614"/><polygon points="-2.0703205229689017,22.982697805880875 -3.848706927752714,23.09764538051166 -5.6035708320960005,23.211072557568773 -5.754525223814854,20.875614512129346 -5.994492009009546,17.163020577366844 -4.213896182393922,17.44769924016816 -2.4094329401842454,17.736193785189503 -2.2012689383738144,20.956757872549666"/><polygon points="0.06053078855132488,20.607160562524772 1.3610664171796396,20.523099294495722 2.5191587807079596,20.44824497260711 2.9343895364548493,21.630537006912128 3.287650153178779,22.636380643025078 1.8354216628246813,22.730246713034887 0.20457169602198655,22.835658139801534 0.13835887746689918,21.811260915945304"/><polygon points="2.5191587807079596,20.44824497260711 0.06053078855132488,20.607160562524772 -0.10118351918348123,18.105232816260006 1.8032061024538146,18.40970342257994"/><polygon points="0.20457169602198655,22.835658139801534 -2.0703205229689017,22.982697805880875 -2.4094329401842454,17.736193785189503 -0.10118351918348123,18.105232816260006"/><polygon points="-6.0802314478925865,25.13866822945496 -9.284477222652297,25.099226689110242 -11.801113306774212,25.06824903925992 -11.773609880858292,22.83386023212247 -9.332664482402727,22.863906194005548 -9.376321055403007,20.838756125730782 -6.355756861864411,20.875936702027932 -6.2247900349339425,22.90216148527307"/><polygon points="-10.207184362065682,16.489502416796523 -10.232647563630529,18.558142619813704 -10.260585996729525,20.82787157635149 -13.123551660133593,20.792630903926117 -14.351555408326977,20.777515222176806 -14.319736869481263,18.192564995478698 -14.290737323756687,15.836630844687924 -13.064959802984509,16.032606090888848"/><polygon points="-6.355756861864411,20.875936702027932 -10.260585996729525,20.82787157635149 -10.238158539114934,19.005856369235623 -6.473636052391672,19.05219443940124"/><polygon points="-6.473636052391672,19.05219443940124 -10.238158539114934,19.005856369235623 -10.207184362065682,16.489502416796523 -6.602022618105574,17.065889606473213"/><polygon points="-14.370838990327492,22.344120775797347 -14.388223557572266,23.756449646658737 -14.405635526973438,25.171004679152997 -16.294938450182507,25.147748966980064 -18.902993885072007,25.115646022672 -18.536000860052503,23.705394035661183 -18.16958539177209,22.297361438348215 -15.966660828241595,22.324477566185003"/><polygon points="-14.45117291883096,28.870479754866377 -16.015808277891267,28.851220424285287 -17.232560912186354,28.836243234179236 -17.206914602440136,26.752727252697216 -17.187023520328832,25.136768158465856 -15.970270886033745,25.151745348571907 -14.405635526973438,25.171004679152997 -14.425526609084741,26.786963773384358"/><polygon points="-17.187023520328832,25.136768158465856 -17.232560912186354,28.836243234179236 -18.948531276929526,28.815121098385376 -18.902993885072007,25.115646022672"/><polygon points="-18.16958539177209,22.297361438348215 -16.40051663152204,15.499322881160849 -14.290737323756687,15.836630844687924 -14.370838990327492,22.344120775797347"/></g><g fill-rule="nonzero" fill="#99948A" stroke="#1A1917" stroke-width="0.3"><path d="M -27.365665810412086,-13.262076444868136 L -25.967136213793864,-16.805912443484882 L -24.985253002271985,-19.293977822896757 L -23.165177787171203,-23.9059989650028 L -22.05460237962565,-26.72016687246453 L -20.448126571832542,-30.790932920126707 L -19.037377583240144,-34.365732525994964 L -15.716720367626037,-33.05527758449291 L -10.98087739463397,-31.18633766592697 L -12.391626383226368,-27.611538060058713 L -13.998102191019477,-23.540772012396534 L -15.108677598565029,-20.726604104934808 L -16.92875281366581,-16.114582962828763 L -17.91063602518769,-13.626517583416884 L -19.30916562180591,-10.08268158480014 L -24.045008594797977,-11.95162150336608 Z"/></g><g fill-rule="nonzero" fill="#99948A" stroke="#1A1917" stroke-width="0.6"><path d="M 0.434410324652148,-35.4218645955089 L 3.7322264077352694,-38.12203689669981 L 6.555863423575506,-40.43396280970016 L 8.859239117334868,-37.620768479504235 L 6.035602101494632,-35.308842566503884 L 8.07076504988698,-32.823225963466 L 4.772948966803858,-30.123053662275083 L 7.819880525029866,-26.401728214880684 L 4.69640877279204,-23.844304848487255 L 1.6494772145660326,-27.565630295881657 L -0.3856857338263153,-30.051246898919544 L 2.7377860184115104,-32.60867026531297 Z"/></g><g fill-rule="nonzero" stroke="#99948A" stroke-width="0.3" stroke-linecap="butt"><line x1="25.778463487797016" y1="-30.146078755683078" x2="27.138220689777036" y2="-31.593628307937735"/><line x1="20.45334282132437" y1="-22.174573374687657" x2="28.958509824102887" y2="-31.228874148969588"/><line x1="19.257191698861917" y1="-18.598623322247793" x2="30.447174503948105" y2="-30.51108429370131"/><line x1="19.67082387792656" y1="-16.736391788054696" x2="31.596209698727858" y2="-29.43173686894702"/><line x1="20.484440699534133" y1="-15.299969794990446" x2="32.74524489350762" y2="-28.35238944419273"/><line x1="21.298057521141708" y1="-13.8635478019262" x2="33.89428008828737" y2="-27.273042019438446"/><line x1="22.111674342749282" y1="-12.427125808861952" x2="35.04331528306712" y2="-26.193694594684157"/><line x1="22.925291164356857" y1="-10.990703815797707" x2="36.19235047784688" y2="-25.114347169929868"/><line x1="23.73890798596443" y1="-9.554281822733458" x2="37.341385672626636" y2="-24.03499974517558"/><line x1="24.552524807572006" y1="-8.117859829669209" x2="38.490420867406385" y2="-22.95565232042129"/><line x1="25.36614162917958" y1="-6.681437836604967" x2="39.639456062186134" y2="-21.87630489566701"/><line x1="26.179758450787155" y1="-5.245015843540717" x2="40.78849125696589" y2="-20.79695747091272"/><line x1="41.93752645174565" y1="-19.71761004615843" x2="27.63475222511811" y2="-4.4913811299917015"/><line x1="43.0865616465254" y1="-18.638262621404145" x2="29.78212236923975" y2="-4.474825876380674"/><line x1="44.23559684130516" y1="-17.558915196649856" x2="32.73579748878309" y2="-5.316634457469544"/><line x1="45.38463203608491" y1="-16.479567771895567" x2="35.689472608326426" y2="-6.158443038558412"/><line x1="46.533667230864665" y1="-15.400220347141278" x2="38.64314772786977" y2="-7.000251619647283"/><line x1="47.48238261975352" y1="-14.10761952324862" x2="42.24474706879071" y2="-8.531817471507988"/><line x1="48.24393448033153" y1="-12.61577100924611" x2="47.406571420976945" y2="-11.72434383395461"/><path d="M 28.13724492521016,-8.858086964167994 L 29.284372738268885,-7.78053124044947 L 28.573739172331337,-7.024015813509928 L 29.785155335084447,-5.886070760552764 L 28.97032107052545,-5.018626945505069 L 27.75890490777234,-6.156571998462233 L 26.828992303017678,-5.166619841791581 L 25.681864489958954,-6.244175565510105 L 26.611777094713617,-7.234127722180757 L 27.426611359272613,-8.101571537228452 Z" fill="#99948A" stroke="#1A1917" stroke-width="0.3"/></g><g fill-rule="nonzero" stroke="#99948A" stroke-width="0.3" stroke-linecap="butt"><line x1="38.50982443442872" y1="23.45548867274696" x2="35.3572608367462" y2="24.84256599592495"/><line x1="41.25579014980237" y1="20.67974948958945" x2="33.29616047922017" y2="24.18185863818056"/><line x1="44.001755865176015" y1="17.904010306431942" x2="31.23506012169414" y2="23.52115128043617"/><line x1="46.747721580549666" y1="15.128271123274429" x2="29.173959764168107" y2="22.86044392269178"/><line x1="47.894128063217906" y1="13.056312298551763" x2="27.112859406642073" y2="22.19973656494739"/><line x1="48.1219839845415" y1="11.38850096026527" x2="25.4453197996296" y2="21.36586880126176"/><line x1="47.66966762706313" y1="10.019954494691909" x2="24.430449448388543" y2="20.244837053039397"/><line x1="23.58391795949669" y1="19.049738910487726" x2="47.07271032869465" y2="8.715047718817207"/><line x1="23.006078922186354" y1="17.736420406966403" x2="46.47575303032616" y2="7.410140942942505"/><line x1="22.42823988487602" y1="16.42310190344508" x2="45.87879573195769" y2="6.105234167067797"/><line x1="21.850400847565684" y1="15.109783399923757" x2="45.2818384335892" y2="4.800327391193093"/><line x1="21.272561810255347" y1="13.796464896402433" x2="44.68488113522072" y2="3.4954206153183858"/><line x1="20.69472277294501" y1="12.483146392881116" x2="44.08792383685225" y2="2.1905138394436836"/><line x1="20.116883735634673" y1="11.169827889359793" x2="43.49096653848376" y2="0.8856070635689779"/><line x1="19.539044698324336" y1="9.85650938583847" x2="42.89400924011528" y2="-0.41929971230572605"/><line x1="18.961205661014002" y1="8.54319088231715" x2="42.29705194174681" y2="-1.7242064881804282"/><line x1="18.383366623703665" y1="7.22987237879583" x2="41.70009464337833" y2="-3.0291132640551304"/><line x1="17.80552758639333" y1="5.916553875274507" x2="40.31727835878119" y2="-3.9882547142708304"/><line x1="17.342366849519802" y1="4.5527787623723555" x2="35.27171709864143" y2="-3.335847233358219"/><line x1="17.527309499357898" y1="2.903848573949004" x2="22.512568962104485" y2="0.7104145204639236"/><path d="M 27.06101945671811,19.215263082125404 L 26.483079452804986,17.90171510067144 L 25.695239095194204,16.111103437798608 L 26.77730975203712,15.635009737012854 L 27.574436563095748,15.284286749495838 L 28.36227692070653,17.07489841236867 L 29.65698914819347,16.505245837521787 L 30.234929152106595,17.818793818975752 L 28.940216924619655,18.388446393822633 L 28.143090113561026,18.73916938133965 Z" fill="#99948A" stroke="#1A1917" stroke-width="0.3"/></g><g fill-rule="nonzero" stroke="#99948A" stroke-width="0.3" stroke-linecap="butt"><line x1="36.53719069147425" y1="42.2513082920496" x2="29.982123433102654" y2="44.94053172835265"/><line x1="37.049697417718114" y1="40.64076277325152" x2="29.045203520247266" y2="43.924615056739874"/><line x1="36.948052357555206" y1="39.282173689430245" x2="28.32670772422056" y2="42.81908965483081"/><line x1="36.8464072973923" y1="37.92358460560896" x2="27.834995677313042" y2="41.62052597443191"/><line x1="36.74476223722938" y1="36.56499552178768" x2="27.34328363040552" y2="40.421962294033"/><line x1="36.64311717706647" y1="35.20640643796641" x2="26.851571583498" y2="39.2233986136341"/><line x1="36.54147211690356" y1="33.84781735414513" x2="26.359859536590477" y2="38.0248349332352"/><line x1="36.439827056740654" y1="32.48922827032384" x2="25.868147489682958" y2="36.82627125283629"/><line x1="36.338181996577745" y1="31.130639186502567" x2="25.376435442775435" y2="35.62770757243739"/><line x1="36.236536936414836" y1="29.77205010268129" x2="24.884723395867915" y2="34.42914389203849"/><line x1="36.00750140018606" y1="28.46572309952144" x2="24.393011348960393" y2="33.230580211639584"/><line x1="35.249799592893474" y1="27.376282006160924" x2="23.901299302052873" y2="32.03201653124068"/><line x1="33.97399615980812" y1="26.49939266544478" x2="23.40958725514535" y2="30.833452850841773"/><line x1="32.05792214411507" y1="25.885175024111298" x2="22.91787520823783" y2="29.634889170442875"/><line x1="30.141848128421998" y1="25.27095738277781" x2="22.426163161330308" y2="28.436325490043973"/><line x1="28.225774112728928" y1="24.65673974144432" x2="21.93445111442279" y2="27.237761809645068"/><line x1="26.30970009703587" y1="24.042522100110833" x2="21.542775383711525" y2="25.9981581222725"/><line x1="24.19274868315702" y1="23.510714628762234" x2="21.22876485012635" y2="24.72669220373368"/><line x1="19.407249888452792" y1="27.13740236654869" x2="26.618621299513936" y2="44.715348470420444"/><line x1="26.127425655395623" y1="46.84619027029523" x2="17.59799771633466" y2="26.055439653886545"/><line x1="24.958745655150803" y1="47.325642505080964" x2="16.44033365033735" y2="26.561743577130528"/><line x1="23.790065654905984" y1="47.805094739866696" x2="15.282669584340049" y2="27.06804750037451"/><line x1="22.621385654661168" y1="48.28454697465242" x2="14.125005518342743" y2="27.574351423618495"/><line x1="21.452705654416345" y1="48.763999209438154" x2="12.967341452345433" y2="28.080655346862482"/><line x1="20.28402565417153" y1="49.24345144422388" x2="11.80967738634813" y2="28.586959270106465"/><line x1="19.115345653926706" y1="49.72290367900961" x2="10.652013320350822" y2="29.09326319335045"/><line x1="17.94666565368189" y1="50.202355913795344" x2="9.494349254353514" y2="29.599567116594432"/><line x1="16.77798565343707" y1="50.68180814858107" x2="8.402947127010888" y2="30.267386612954436"/><line x1="15.609305653192251" y1="51.1612603833668" x2="7.533570230739466" y2="31.476399638673232"/><line x1="14.145212271347852" y1="50.920633148642054" x2="7.336966385758501" y2="34.325318274798086"/><line x1="11.746408201199655" y1="48.40161902116685" x2="7.2497757532531315" y2="37.440935080011485"/><line x1="8.57889257785681" y1="44.00884614778195" x2="7.162585120747764" y2="40.556551885224884"/><path d="M 19.04402016731006,27.578891509674246 L 19.776224596367214,29.36366298479773 L 20.316491794078715,30.680581382385178 L 19.326150872686146,31.086869817082405 L 17.236620669872757,31.944101843968543 L 16.696353472161256,30.627183446381096 L 15.9641490431041,28.84241197125761 L 18.05367924591749,27.985179944371474 Z" fill="#99948A" stroke="#1A1917" stroke-width="0.3"/></g><g fill-rule="nonzero" stroke="#99948A" stroke-width="0.3" stroke-linecap="butt"><line x1="40.07321808749836" y1="-46.11959871819469" x2="51.89279907408672" y2="-39.33503353619836"/><line x1="38.09005006306576" y1="-45.78052502500264" x2="52.147125303520546" y2="-37.711614346586074"/><line x1="37.249375315846464" y1="-44.78564804081054" x2="51.819878047234155" y2="-36.42202452253817"/><line x1="36.40870056862717" y1="-43.79077105661845" x2="51.18199169370555" y2="-35.310744843808266"/><line x1="35.56802582140787" y1="-42.79589407242636" x2="50.544105340176934" y2="-34.19946516507836"/><line x1="34.72735107418857" y1="-41.80101708823427" x2="49.90621898664832" y2="-33.08818548634845"/><line x1="33.88667632696927" y1="-40.80614010404217" x2="49.268332633119705" y2="-31.976905807618547"/><line x1="33.04600157974997" y1="-39.811263119850075" x2="48.63044627959109" y2="-30.86562612888864"/><line x1="32.20532683253067" y1="-38.81638613565798" x2="47.99255992606248" y2="-29.754346450158728"/><line x1="31.364652085311377" y1="-37.82150915146589" x2="47.35467357253386" y2="-28.643066771428824"/><line x1="30.523977338092077" y1="-36.82663216727379" x2="46.71678721900525" y2="-27.531787092698917"/><line x1="29.886763100602323" y1="-35.71496668678994" x2="46.07890086547663" y2="-26.42050741396901"/><line x1="30.14108933003615" y1="-34.09154749717766" x2="45.44101451194802" y2="-25.3092277352391"/><line x1="32.68252406451575" y1="-31.155303703343925" x2="44.803128158419405" y2="-24.197948056509198"/><line x1="36.72651465078442" y1="-27.356576871607224" x2="44.1652418048908" y2="-23.08666837777929"/><line x1="40.77050523705307" y1="-23.557850039870527" x2="42.18339961908475" y2="-22.74683363911593"/><line x1="45.54808240966912" y1="-20.87566683850692" x2="54.377732967833346" y2="-36.25804832589194"/><line x1="45.94038089712155" y1="-18.701521873991876" x2="56.4221595312177" y2="-36.96212194574725"/><line x1="57.70727257343286" y1="-36.34337421789313" x2="47.00605364026207" y2="-17.700481056299573"/><line x1="58.94104118269259" y1="-35.63517791562813" x2="48.07172638340259" y2="-16.699440238607274"/><line x1="60.17480979195231" y1="-34.92698161336313" x2="49.137399126543116" y2="-15.69839942091497"/><line x1="61.40857840121205" y1="-34.218785311098124" x2="50.20307186968364" y2="-14.697358603222664"/><line x1="62.64234701047178" y1="-33.51058900883313" x2="51.69083736766759" y2="-14.43165739328635"/><line x1="63.8761156197315" y1="-32.80239270656813" x2="53.43025363513143" y2="-14.604364035646562"/><line x1="65.10988422899123" y1="-32.094196404303126" x2="55.446428930789544" y2="-15.259220330897161"/><line x1="66.34365283825096" y1="-31.38600010203813" x2="57.46260422644766" y2="-15.91407662614776"/><line x1="67.57742144751069" y1="-30.67780379977313" x2="59.478779522105775" y2="-16.568932921398364"/><line x1="68.81119005677041" y1="-29.969607497508132" x2="61.49495481776389" y2="-17.22378921664896"/><line x1="69.8080816622017" y1="-28.848741133786547" x2="63.511130113422006" y2="-17.878645511899563"/><line x1="70.10891770887308" y1="-26.515256890033466" x2="65.52730540908011" y2="-18.53350180715016"/><line x1="68.84666297751384" y1="-21.458668431827867" x2="67.96226796431043" y2="-19.91793911428345"/><path d="M 41.798582637013475,-42.11257919206646 L 40.67422456823222,-40.153803515896485 L 39.22378157705029,-40.98637321761515 L 38.42119630751794,-41.44706569744425 L 37.486755116335424,-41.98344487852637 L 38.61111318511668,-43.94222055469635 L 39.144007040545404,-44.87058986246116 L 40.07844823172792,-44.33421068137904 L 40.88103350126027,-43.87351820154994 L 40.348139645831544,-42.94514889378513 Z" fill="#99948A" stroke="#1A1917" stroke-width="0.3"/></g><g fill-rule="nonzero" stroke="#99948A" stroke-width="0.3" stroke-linecap="butt"><line x1="76.94597527060336" y1="37.47050309462703" x2="71.36049885709512" y2="43.33954947261394"/><line x1="76.8352473458977" y1="35.27604548300488" x2="69.91009530934804" y2="42.55278169458833"/><line x1="76.18698856873074" y1="33.646408715503505" x2="68.45969176160095" y2="41.766013916562734"/><line x1="75.53872979156378" y1="32.01677194800212" x2="67.29080481094056" y2="40.68343717934449"/><line x1="74.89047101439682" y1="30.38713518050074" x2="66.13681661143468" y2="39.58520529384051"/><line x1="74.24221223722986" y1="28.757498412999354" x2="64.9828284119288" y2="38.486973408336524"/><line x1="73.59395346006289" y1="27.127861645497973" x2="63.82884021242293" y2="37.38874152283255"/><line x1="72.94569468289593" y1="25.498224877996588" x2="62.674852012917064" y2="36.29050963732856"/><line x1="72.29743590572897" y1="23.868588110495203" x2="61.52086381341118" y2="35.192277751824584"/><line x1="71.49869751841322" y1="22.397070677052547" x2="60.366875613905314" y2="34.0940458663206"/><line x1="70.2805581961987" y1="21.366246813085706" x2="59.21288741439943" y2="32.99581398081662"/><line x1="69.04660052347887" y1="20.352044384045058" x2="58.05889921489356" y2="31.897582095312636"/><line x1="67.37194486114372" y1="19.800913812846773" x2="56.90491101538768" y2="30.799350209808658"/><line x1="65.69728919880856" y1="19.249783241648487" x2="55.750922815881815" y2="29.701118324304673"/><line x1="64.02263353647342" y1="18.6986526704502" x2="54.59693461637593" y2="28.602886438800695"/><line x1="62.347977874138266" y1="18.147522099251916" x2="53.44294641687006" y2="27.50465455329671"/><line x1="60.67332221180311" y1="17.59639152805363" x2="52.28895821736418" y2="26.406422667792732"/><line x1="58.998666549467956" y1="17.045260956855344" x2="51.13497001785831" y2="25.308190782288747"/><line x1="57.3240108871328" y1="16.49413038565706" x2="49.98098181835243" y2="24.209958896784766"/><line x1="55.64935522479765" y1="15.942999814458775" x2="48.826993618846565" y2="23.111727011280784"/><line x1="53.974699562462504" y1="15.391869243260489" x2="47.68259842386566" y2="22.00341509243799"/><line x1="52.24541087098226" y1="14.898145374388793" x2="46.762094571925" y2="20.659845054385357"/><line x1="50.15715901692194" y1="14.781608927538295" x2="45.841590719984325" y2="19.316275016332728"/><line x1="68.4050314439219" y1="46.44506349369061" x2="57.272082788289325" y2="58.143222638295256"/><line x1="68.44713418225564" y1="44.71144057879594" x2="55.92099011880007" y2="57.8735264964752"/><line x1="67.68667559086047" y1="43.82112436088529" x2="54.936986371727464" y2="57.21810463476883"/><line x1="66.84301899622801" y1="43.01823003922948" x2="54.057022232805565" y2="56.45336116104966"/><line x1="65.99936240159555" y1="42.21533571757367" x2="53.2078901914374" y2="55.65622026997935"/><line x1="65.15570580696308" y1="41.41244139591787" x2="52.358758150069235" y2="54.859079378909044"/><line x1="64.31204921233062" y1="40.60954707426205" x2="51.50962610870106" y2="54.06193848783873"/><line x1="63.46839261769816" y1="39.80665275260625" x2="50.6604940673329" y2="53.26479759676842"/><line x1="62.624736023065694" y1="39.003758430950434" x2="49.811362025964726" y2="52.467656705698104"/><line x1="61.78107942843323" y1="38.20086410929463" x2="48.96222998459657" y2="51.67051581462779"/><line x1="60.93742283380077" y1="37.397969787638814" x2="48.1130979432284" y2="50.87337492355748"/><line x1="60.0937662391683" y1="36.595075465983" x2="47.263965901860225" y2="50.076234032487164"/><line x1="46.41483386049206" y1="49.27909314141685" x2="59.160858560315624" y2="35.88596343142221"/><line x1="46.57257472377618" y1="47.42396125071559" x2="57.3669991032425" y2="36.081512976555096"/><line x1="44.33953457220105" y1="22.01616976724619" x2="55.4419000705283" y2="32.582111256078726"/><line x1="42.24738912809721" y1="22.52120122633377" x2="55.28702139598273" y2="34.930808133900385"/><line x1="40.97551203880189" y1="23.806868797910482" x2="54.04050403005355" y2="36.24061014361103"/><line x1="39.70363494950656" y1="25.0925363694872" x2="52.79398666412437" y2="37.550412153321666"/><line x1="38.53571034810743" y1="26.477133840723155" x2="51.54746929819518" y2="38.86021416303231"/><line x1="38.15527356763978" y1="28.611170721099796" x2="50.300951932266" y2="40.170016172742955"/><line x1="38.356339012850796" y1="31.298613854681875" x2="49.054434566336816" y2="41.4798181824536"/><line x1="38.557404458061804" y1="33.98605698826395" x2="47.80791720040764" y2="42.789620192164236"/><line x1="38.75846990327282" y1="36.67350012184604" x2="46.56139983447845" y2="44.09942220187489"/><line x1="38.959535348483826" y1="39.36094325542811" x2="45.31488246854927" y2="45.409224211585524"/><line x1="39.496554742184486" y1="42.36810832243227" x2="43.66807138653005" y2="46.33807317275962"/></g><g fill-rule="nonzero" stroke="#99948A" stroke-width="0.3" stroke-linecap="butt"><line x1="84.8855661976642" y1="-15.223989170562827" x2="87.71797056277688" y2="-14.533012321180415"/><line x1="73.92737263609592" y1="-16.468416116380073" x2="88.79462629753378" y2="-12.841487623936235"/><line x1="88.46562741505365" y1="-11.492878228864893" x2="70.43466511586503" y2="-15.891606628766507"/><line x1="88.13662853257351" y1="-10.144268833793557" x2="69.36098149867955" y2="-14.724666178323211"/><line x1="87.80762965009338" y1="-8.795659438722215" x2="68.39815927309478" y2="-13.530680629365753"/><line x1="87.47863076761325" y1="-7.447050043650873" x2="68.06916039061466" y2="-12.18207123429441"/><line x1="87.14963188513312" y1="-6.0984406485795315" x2="67.74016150813452" y2="-10.83346183922307"/><line x1="86.82063300265298" y1="-4.749831253508195" x2="67.41116262565438" y2="-9.48485244415173"/><line x1="86.49163412017285" y1="-3.4012218584368554" x2="67.08216374317425" y2="-8.136243049080392"/><line x1="85.92719895329043" y1="-2.110048126165069" x2="66.75316486069413" y2="-6.787633654009049"/><line x1="85.26315934830986" y1="-0.8431733116852811" x2="66.424165978214" y2="-5.439024258937712"/><line x1="84.59244007389685" y1="0.4220719695978389" x2="66.09516709573387" y2="-4.09041486386637"/><line x1="83.73812898565299" y1="1.6425292627477062" x2="65.76616821325374" y2="-2.7418054687950315"/><line x1="82.88381789740914" y1="2.8629865558975776" x2="65.4371693307736" y2="-1.3931960737236881"/><line x1="82.0295068091653" y1="4.083443849047446" x2="65.10817044829348" y2="-0.044586678652351"/><line x1="81.17519572092145" y1="5.303901142197315" x2="64.77917156581334" y2="1.3040227164189924"/><line x1="80.32088463267759" y1="6.52435843534719" x2="64.45017268333322" y2="2.6526321114903393"/><line x1="79.46657354443374" y1="7.744815728497058" x2="64.12117380085309" y2="4.00124150656168"/><line x1="78.6122624561899" y1="8.96527302164693" x2="63.79217491837295" y2="5.349850901633022"/><line x1="77.75795136794605" y1="10.185730314796798" x2="63.46317603589283" y2="6.6984602967043605"/><line x1="76.90364027970219" y1="11.406187607946666" x2="63.13417715341269" y2="8.047069691775704"/><line x1="76.04932919145834" y1="12.626644901096537" x2="62.805178270932565" y2="9.395679086847043"/><line x1="75.1950181032145" y1="13.847102194246407" x2="62.47617938845244" y2="10.744288481918385"/><line x1="74.34070701497065" y1="15.067559487396275" x2="62.1471805059723" y2="12.092897876989724"/><line x1="73.4863959267268" y1="16.288016780546144" x2="62.13781936769334" y2="13.51948423190205"/><line x1="72.35302346392362" y1="17.440395888337875" x2="62.230225720439236" y2="14.970897190382718"/><line x1="70.84064854819594" y1="18.500315768183327" x2="66.88714356395332" y2="17.535841750392095"/><line x1="66.07759088806455" y1="-13.722861099894818" x2="59.5851770332661" y2="12.890391368527512"/><line x1="57.89890979755751" y1="14.57780654282592" x2="65.29092212268637" y2="-15.72301756636836"/><line x1="56.71902239890845" y1="14.189504618679694" x2="63.90661937603262" y2="-15.27339427709827"/><line x1="55.53913500025939" y1="13.801202694533465" x2="62.522316629378885" y2="-14.823770987828182"/><line x1="54.359247601610335" y1="13.412900770387239" x2="61.13801388272515" y2="-14.37414769855809"/><line x1="53.17936020296128" y1="13.02459884624101" x2="59.7537111360714" y2="-13.924524409287995"/><line x1="51.99947280431222" y1="12.636296922094783" x2="58.36940838941766" y2="-13.474901120017908"/><line x1="50.978499129022275" y1="11.596586887646525" x2="56.985105642763926" y2="-13.025277830747818"/><line x1="50.012169343213316" y1="10.33288441230673" x2="55.60080289611018" y2="-12.575654541477727"/><line x1="49.180862386403604" y1="8.51570572341635" x2="54.21650014945644" y2="-12.126031252207635"/><line x1="48.349555429593885" y1="6.698527034525965" x2="52.82166874247884" y2="-11.633249608953987"/><line x1="47.518248472784165" y1="4.881348345635587" x2="51.39641897073394" y2="-11.015779115091938"/><line x1="46.686941515974446" y1="3.0641696567451984" x2="49.92954012918808" y2="-10.227665626279789"/><line x1="45.855634559164734" y1="1.246990967854817" x2="48.428433856612045" y2="-9.299249426684923"/><line x1="45.02432760235501" y1="-0.5701877210355715" x2="46.92732758403601" y2="-8.37083322709006"/><line x1="44.193020645545296" y1="-2.3873664099259546" x2="45.426221311459976" y2="-7.442417027495193"/><line x1="43.51498861175905" y1="-4.83283902996906" x2="43.925115038883945" y2="-6.514000827900329"/></g><g fill-rule="nonzero" stroke="#99948A" stroke-width="0.3" stroke-linecap="butt"><line x1="51.99162371677457" y1="59.120229073505556" x2="51.21228638951602" y2="60.148025724549655"/><line x1="51.869246123907594" y1="57.14274328283707" x2="47.740415031528634" y2="62.58788060790452"/><line x1="50.92182520401089" y1="56.25333160183602" x2="44.268543673541274" y2="65.02773549125939"/><line x1="49.97440428411417" y1="55.36391992083496" x2="40.806837079497626" y2="67.45418499805315"/><line x1="49.026983364217465" y1="54.47450823983391" x2="39.37844134483739" y2="67.19908696604598"/><line x1="48.07956244432076" y1="53.58509655883286" x2="37.950045610177156" y2="66.94398893403881"/><line x1="47.13214152442404" y1="52.6956848778318" x2="36.734407311142185" y2="66.40830459855044"/><line x1="46.184720604527335" y1="51.806273196830745" x2="35.70464916478088" y2="65.62747994739725"/><line x1="45.23729968463062" y1="50.916861515829694" x2="34.674891018419586" y2="64.84665529624405"/><line x1="44.28987876473391" y1="50.027449834828644" x2="33.64513287205828" y2="64.06583064509084"/><line x1="43.342457844837206" y1="49.138038153827594" x2="32.615374725696974" y2="63.28500599393764"/><line x1="42.3950369249405" y1="48.24862647282654" x2="31.585616579335667" y2="62.50418134278444"/><line x1="41.447616005043784" y1="47.35921479182548" x2="30.55585843297436" y2="61.72335669163124"/><line x1="40.50019508514707" y1="46.46980311082443" x2="29.52610028661306" y2="60.94253204047804"/><line x1="39.55277416525036" y1="45.58039142982338" x2="28.496342140251755" y2="60.16170738932484"/><line x1="38.12498971047734" y1="45.32448723673685" x2="27.466583993890453" y2="59.380882738171636"/><line x1="36.696593975817095" y1="45.06938920472969" x2="26.43682584752915" y2="58.60005808701844"/><line x1="34.77989522605833" y1="45.45826931422697" x2="25.40706770116785" y2="57.819233435865236"/><line x1="32.42574734906292" y1="46.42406102830189" x2="24.377309554806544" y2="57.03840878471204"/><line x1="30.07159947206751" y1="47.38985274237682" x2="23.34755140844524" y2="56.25758413355884"/><line x1="27.717451595072117" y1="48.35564445645174" x2="22.317793262083942" y2="55.47675948240564"/><line x1="25.363303718076715" y1="49.32143617052666" x2="21.28803511572264" y2="54.695934831252444"/><line x1="23.009155841081302" y1="50.287227884601585" x2="20.258276969361336" y2="53.91511018009924"/><line x1="15.649189892837807" y1="53.306661879444476" x2="35.64253469886454" y2="68.46682015419539"/><line x1="36.02427941752842" y1="70.82138575379716" x2="14.608760145132571" y2="54.58284913797116"/><line x1="34.61080207163667" y1="71.81470585390728" x2="14.231972419779908" y2="56.362249750453906"/><line x1="33.19732472574491" y1="72.80802595401741" x2="13.910385172996868" y2="58.18350669063352"/><line x1="31.783847379853153" y1="73.80134605412754" x2="13.588797926213829" y2="60.00476363081314"/><line x1="30.370370033961407" y1="74.79466615423765" x2="13.26721067943079" y2="61.82602057099275"/><line x1="28.956892688069644" y1="75.78798625434777" x2="12.945623432647746" y2="63.64727751117237"/><line x1="27.543415342177898" y1="76.7813063544579" x2="12.624036185864707" y2="65.46853445135199"/><line x1="26.129937996286138" y1="77.77462645456802" x2="12.302448939081664" y2="67.2897913915316"/><line x1="24.71646065039438" y1="78.76794655467815" x2="11.980861692298625" y2="69.11104833171122"/><line x1="22.64840367554695" y1="79.26492495335347" x2="11.659274445515583" y2="70.93230527189083"/><line x1="14.611821556261592" y1="75.23620809021176" x2="12.256812095036068" y2="73.45049806934757"/></g><g fill-rule="nonzero" stroke="#99948A" stroke-width="0.3" stroke-linecap="butt"><line x1="88.24468290992489" y1="0.6594518047262623" x2="98.72482388173525" y2="5.094735776551062"/><line x1="86.46561962268402" y1="1.4909757421824352" x2="99.19390727883417" y2="6.877694335181127"/><line x1="85.47105523769292" y1="2.654506225773991" x2="98.6263142135425" y2="8.221922679210392"/><line x1="84.61543214267778" y1="3.8768378340939726" x2="98.05762226660445" y2="9.565685967267006"/><line x1="83.75980904766263" y1="5.09916944241396" x2="97.4889303196664" y2="10.909449255323624"/><line x1="82.90418595264748" y1="6.321501050733942" x2="96.92023837272835" y2="12.253212543380238"/><line x1="82.04856285763233" y1="7.543832659053928" x2="96.35154642579029" y2="13.596975831436856"/><line x1="81.19293976261719" y1="8.766164267373911" x2="95.78285447885224" y2="14.940739119493472"/><line x1="80.33731666760204" y1="9.988495875693898" x2="95.21416253191418" y2="16.28450240755009"/><line x1="79.48169357258689" y1="11.21082748401388" x2="94.64547058497612" y2="17.628265695606704"/><line x1="78.62607047757174" y1="12.433159092333867" x2="94.07677863803808" y2="18.97202898366332"/><line x1="77.7704473825566" y1="13.655490700653848" x2="93.0896932617578" y2="20.13872464676433"/><line x1="91.31062997451693" y1="20.970248584220506" x2="76.91622699541978" y2="14.87841594676808"/><line x1="79.85740686000513" y1="17.707586561947732" x2="77.38531039251869" y2="16.661374505398147"/><line x1="74.36027643069681" y1="18.52721490786339" x2="90.67911942678906" y2="23.19577628271985"/><line x1="91.55796121931765" y1="24.923747475226097" x2="73.49914978742416" y2="19.757408810962765"/><line x1="91.0005598078791" y1="26.240832335377366" x2="73.49905815010503" y2="21.23393113159496"/><line x1="90.44315839644055" y1="27.557917195528635" x2="74.05211836838518" y2="22.86870139836521"/><line x1="89.885756985002" y1="28.8750020556799" x2="74.71490651597412" y2="24.534863080117308"/><line x1="89.32835557356347" y1="30.19208691583117" x2="75.37769466356305" y2="26.2010247618694"/><line x1="88.77095416212492" y1="31.50917177598244" x2="76.04048281115199" y2="27.867186443621502"/><line x1="88.21355275068638" y1="32.8262566361337" x2="76.70327095874092" y2="29.5333481253736"/><line x1="87.65615133924783" y1="34.143341496284975" x2="77.36605910632986" y2="31.1995098071257"/><line x1="87.09874992780928" y1="35.46042635643624" x2="78.0288472539188" y2="32.86567148887779"/><line x1="86.48454978710876" y1="36.76126200372132" x2="78.69163540150772" y2="34.531833170629895"/><line x1="85.3726283857928" y1="37.91970751628236" x2="79.86814345764374" y2="36.344961945766734"/><line x1="88.62939279107147" y1="37.74499656355937" x2="92.46558999492639" y2="28.6804388604991"/><line x1="89.52634476271878" y1="38.770929758471425" x2="93.85994208290613" y2="28.53106437011451"/><line x1="90.66047584479931" y1="39.23643198014727" x2="95.12281946071958" y2="28.69235172359909"/><line x1="91.86993319026178" y1="39.523945630147125" x2="96.25175634463788" y2="29.170127326037356"/><line x1="93.07939053572424" y1="39.811459280146984" x2="97.38069322855617" y2="29.64790292847562"/><line x1="94.28884788118671" y1="40.09897293014684" x2="98.50963011247447" y2="30.125678530913888"/><line x1="95.49830522664918" y1="40.3864865801467" x2="99.63856699639277" y2="30.603454133352155"/><line x1="96.70776257211166" y1="40.67400023014656" x2="100.76750388031107" y2="31.081229735790423"/><line x1="97.91721991757413" y1="40.96151388014642" x2="101.89644076422937" y2="31.55900533822869"/><line x1="99.12667726303658" y1="41.24902753014628" x2="103.02537764814765" y2="32.03678094066695"/><line x1="100.33613460849907" y1="41.53654118014613" x2="104.15431453206595" y2="32.51455654310522"/><line x1="101.54559195396153" y1="41.824054830146" x2="105.28325141598425" y2="32.992332145543486"/><line x1="102.75504929942399" y1="42.11156848014585" x2="106.41218829990254" y2="33.47010774798175"/><line x1="103.96450664488647" y1="42.39908213014571" x2="107.54112518382084" y2="33.94788335042002"/><line x1="105.19629560552785" y1="42.63382836396883" x2="108.67006206773914" y2="34.425658952858285"/><line x1="106.4500566004591" y1="42.81665683598505" x2="109.79899895165744" y2="34.903434555296556"/><line x1="107.8316573877841" y1="42.6974124182823" x2="110.84789332271102" y2="35.57034276432532"/><line x1="109.26893812874772" y1="42.44660173173549" x2="111.81687553429197" y2="36.4260755676653"/><line x1="111.55003058808845" y1="33.14699367297082" x2="95.18475141959637" y2="26.221069624268583"/><line x1="113.51210846853701" y1="32.36132425540053" x2="94.3926814179166" y2="24.2698216147217"/><line x1="94.64514376868274" y1="22.760628498645914" x2="114.42965399653963" y2="31.13359994435913"/><line x1="95.22517726148006" y1="21.390066250207422" x2="115.0196283825111" y2="29.767244765680438"/><line x1="95.80521075427737" y1="20.01950400176893" x2="115.60960276848257" y2="28.400889587001746"/><line x1="96.38524424707468" y1="18.64894175333044" x2="116.19957715445403" y2="27.034534408323058"/><line x1="96.965277739872" y1="17.278379504891948" x2="116.7895515404255" y2="25.668179229644366"/><line x1="97.5453112326693" y1="15.907817256453457" x2="117.37952592639698" y2="24.301824050965674"/><line x1="98.12534472546662" y1="14.537255008014967" x2="117.96950031236844" y2="22.935468872286986"/><line x1="98.70537821826393" y1="13.166692759576474" x2="118.55947469833991" y2="21.569113693608294"/><line x1="99.28541171106124" y1="11.796130511137983" x2="119.14944908431139" y2="20.202758514929606"/><line x1="99.86544520385856" y1="10.425568262699493" x2="119.73942347028284" y2="18.836403336250918"/><line x1="100.44547869665587" y1="9.055006014261" x2="120.32939785625432" y2="17.470048157572222"/><line x1="101.35545658520974" y1="7.824079014434977" x2="120.5894278464692" y2="15.964057730281054"/><line x1="103.3175344656583" y1="7.038409596864681" x2="119.79735784478945" y2="14.012809720734165"/></g><g fill-rule="nonzero" stroke="#99948A" stroke-width="0.3" stroke-linecap="butt"><line x1="98.80203166593046" y1="-33.93281937577754" x2="97.62208771058884" y2="-20.767875083265597"/><line x1="96.34439967759941" y1="-19.43480140419576" x2="97.72650789452611" y2="-34.855345405198776"/><line x1="95.14604043703962" y1="-18.986819875817183" x2="96.62134349664898" y2="-35.44716318823029"/><line x1="93.94768119647982" y1="-18.538838347438602" x2="95.47236570568401" y2="-35.550143449228585"/><line x1="92.74932195592002" y1="-18.090856819060022" x2="94.32338791471905" y2="-35.65312371022688"/><line x1="91.55096271536023" y1="-17.642875290681445" x2="93.17441012375409" y2="-35.75610397122517"/><line x1="90.37798549254067" y1="-17.47808759372937" x2="92.02543233278912" y2="-35.859084232223466"/><line x1="89.21782506466506" y1="-17.45630024071888" x2="90.87645454182416" y2="-35.96206449322176"/><line x1="88.06174241432299" y1="-17.480009721539567" x2="89.7274767508592" y2="-36.065044754220054"/><line x1="86.91520447837281" y1="-17.61021208508441" x2="88.57849895989423" y2="-36.16802501521835"/><line x1="85.76866654242264" y1="-17.740414448629252" x2="87.42952116892928" y2="-36.27100527621664"/><line x1="84.62212860647247" y1="-17.870616812174095" x2="86.2805433779643" y2="-36.373985537214935"/><line x1="83.4755906705223" y1="-18.00081917571894" x2="85.13156558699936" y2="-36.47696579821323"/><line x1="82.32905273457213" y1="-18.131021539263784" x2="83.9825877960344" y2="-36.57994605921152"/><line x1="81.18251479862194" y1="-18.26122390280863" x2="82.83361000506943" y2="-36.682926320209816"/><line x1="80.03597686267177" y1="-18.391426266353474" x2="81.68463221410447" y2="-36.78590658120811"/><line x1="78.8894389267216" y1="-18.521628629898316" x2="80.5356544231395" y2="-36.888886842206404"/><line x1="77.74290099077143" y1="-18.65183099344316" x2="79.36779974729548" y2="-36.78125274586685"/><line x1="76.59636305482125" y1="-18.782033356988006" x2="78.18457897204117" y2="-36.502175046791805"/><line x1="75.44982511887108" y1="-18.91223572053285" x2="76.94790901489463" y2="-35.62675080184387"/><line x1="74.30328718292091" y1="-19.04243808407769" x2="75.59624521268982" y2="-33.46831005656088"/><line x1="73.15674924697073" y1="-19.172640447622534" x2="74.244581410485" y2="-31.3098693112779"/><line x1="72.02913643547507" y1="-19.513995390105176" x2="72.85792117569498" y2="-28.760964185602084"/><line x1="70.93633885172005" y1="-20.243792962987275" x2="71.12207703578254" y2="-22.316122614836686"/><line x1="104.87494629369559" y1="-34.707411578669344" x2="101.05260702862063" y2="-33.27851002061081"/><line x1="109.1052459675997" y1="-34.32825945932875" x2="100.87079469790316" y2="-31.24998214456096"/><line x1="113.3355456415038" y1="-33.94910733998815" x2="100.68898236718572" y2="-29.22145426851111"/><line x1="117.56584531540791" y1="-33.56995522064755" x2="100.50717003646827" y2="-27.192926392461253"/><line x1="121.79614498931201" y1="-33.190803101306955" x2="100.3253577057508" y2="-25.164398516411396"/><line x1="126.02644466321613" y1="-32.81165098196636" x2="100.14354537503336" y2="-23.135870640361546"/><line x1="127.87592895530801" y1="-31.542480846798355" x2="102.3425484261281" y2="-21.99736078013909"/></g><g fill-rule="nonzero" stroke="#99948A" stroke-width="0.3" stroke-linecap="butt"><line x1="96.54332167832425" y1="55.93066329807493" x2="94.4006860951563" y2="58.54682811797094"/><line x1="103.05846798305649" y1="45.92314752093731" x2="92.74581121258656" y2="58.5149340358778"/><line x1="102.29682354679713" y1="44.80061624040739" x2="91.35287406163964" y2="58.16321315549085"/><line x1="101.3986013586749" y1="43.844846826622856" x2="90.3467467706424" y2="57.33919621340356"/><line x1="99.99154900430142" y1="43.51036065423774" x2="89.34061947964516" y2="56.51517927131626"/><line x1="98.58449664992794" y1="43.17587448185262" x2="88.33449218864791" y2="55.69116232922897"/><line x1="97.17744429555448" y1="42.841388309467504" x2="87.32836489765067" y2="54.867145387141676"/><line x1="95.770391941181" y1="42.50690213708238" x2="86.32223760665343" y2="54.043128445054386"/><line x1="94.36333958680754" y1="42.17241596469726" x2="85.31611031565618" y2="53.21911150296709"/><line x1="92.95628723243406" y1="41.83792979231214" x2="84.30998302465895" y2="52.3950945608798"/><line x1="91.54923487806057" y1="41.50344361992701" x2="83.30385573366169" y2="51.57107761879249"/><line x1="90.14218252368713" y1="41.1689574475419" x2="82.29772844266446" y2="50.74706067670521"/><line x1="88.73513016931363" y1="40.83447127515677" x2="81.29160115166721" y2="49.923043734617906"/><line x1="87.32807781494016" y1="40.49998510277165" x2="80.28547386066997" y2="49.09902679253061"/><line x1="85.9210254605667" y1="40.16549893038653" x2="79.27934656967273" y2="48.275009850443325"/><line x1="84.51397310619322" y1="39.831012758001414" x2="78.27321927867548" y2="47.45099290835603"/><line x1="83.10692075181974" y1="39.49652658561629" x2="77.26709198767824" y2="46.62697596626873"/><line x1="81.69986839744628" y1="39.16204041323117" x2="76.260964696681" y2="45.80295902418144"/><line x1="80.06076987471656" y1="39.11088334590447" x2="75.42375369476376" y2="44.77269475918491"/><line x1="77.26771761833217" y1="40.468707435005385" x2="74.6621092585044" y2="43.65016347865498"/><line x1="60.47803847878751" y1="58.59263218304655" x2="63.308540330443684" y2="55.13658047498856"/><line x1="60.252851172577635" y1="61.03480378505328" x2="72.01339648160577" y2="46.67514078777318"/><line x1="60.81357938384029" y1="62.51737005595558" x2="73.94133346608483" y2="46.48834082484608"/><line x1="61.51364623656054" y1="63.82980340519023" x2="75.0036938649151" y2="47.358412609074385"/><line x1="62.21371308928079" y1="65.14223675442489" x2="76.0660542637454" y2="48.2284843933027"/><line x1="62.91377994200103" y1="66.45467010365954" x2="77.12841466257568" y2="49.09855617753101"/><line x1="63.61384679472128" y1="67.76710345289419" x2="78.19077506140596" y2="49.96862796175932"/><line x1="64.31391364744152" y1="69.07953680212884" x2="79.25313546023625" y2="50.83869974598763"/><line x1="65.01398050016176" y1="70.3919701513635" x2="80.31549585906653" y2="51.70877153021594"/><line x1="65.71404735288202" y1="71.70440350059815" x2="81.37785625789681" y2="52.57884331444425"/><line x1="66.41411420560226" y1="73.0168368498328" x2="82.44021665672709" y2="53.44891509867256"/><line x1="67.11418105832252" y1="74.32927019906747" x2="83.50257705555738" y2="54.31898688290087"/><line x1="67.81424791104276" y1="75.6417035483021" x2="83.58476232656885" y2="56.385855596518944"/><line x1="80.43068401674066" y1="62.40421237213648" x2="68.5867259259062" y2="76.86572263966903"/><line x1="72.73778944719294" y1="73.96447814802079" x2="70.61418125449669" y2="76.55741046400547"/><line x1="72.56980625835529" y1="82.79245440621203" x2="71.11055975669149" y2="81.82138421579313"/><line x1="76.1542450635081" y1="83.59470154079565" x2="71.11143238063902" y2="80.23891136647137"/><line x1="77.81682698734326" y1="83.118029777461" x2="71.77784652155874" y2="79.09932978115536"/><line x1="78.7767365068266" y1="82.17375762946342" x2="72.47004276021896" y2="77.97690515083889"/><line x1="79.6165773429444" y1="81.14958457432907" x2="73.20017292020881" y2="76.87972402815934"/><line x1="80.35105498967219" y1="80.05529653021412" x2="73.93030308019868" y2="75.78254290547979"/><line x1="81.08553263639998" y1="78.96100848609917" x2="74.66043324018855" y2="74.68536178280024"/><line x1="81.82001028312777" y1="77.86672044198424" x2="75.39056340017841" y2="73.5881806601207"/><line x1="82.55448792985555" y1="76.7724323978693" x2="76.12069356016828" y2="72.49099953744114"/><line x1="83.28896557658335" y1="75.67814435375435" x2="76.85082372015815" y2="71.3938184147616"/><line x1="84.02344322331113" y1="74.58385630963942" x2="77.580953880148" y2="70.29663729208205"/><line x1="84.75792087003893" y1="73.48956826552445" x2="78.31108404013787" y2="69.1994561694025"/><line x1="85.49239851676671" y1="72.39528022140952" x2="79.04121420012774" y2="68.10227504672295"/><line x1="86.22687616349451" y1="71.30099217729457" x2="79.77134436011761" y2="67.0050939240434"/><line x1="86.96135381022229" y1="70.20670413317963" x2="80.50147452010746" y2="65.90791280136385"/><line x1="87.69583145695007" y1="69.1124160890647" x2="81.23160468009732" y2="64.8107316786843"/><line x1="88.43030910367787" y1="68.01812804494975" x2="81.96173484008719" y2="63.713550556004755"/><line x1="89.16478675040565" y1="66.9238400008348" x2="82.69186500007706" y2="62.616369433325204"/><line x1="89.89926439713344" y1="65.82955195671987" x2="83.42199516006691" y2="61.51918831064566"/><line x1="90.63374204386123" y1="64.73526391260492" x2="84.15212532005678" y2="60.42200718796611"/><line x1="91.26620749769887" y1="63.57309083367102" x2="84.88225548004665" y2="59.32482606528656"/><line x1="91.68905206739943" y1="62.27142343925124" x2="85.88731335071525" y2="58.41059833948398"/><line x1="89.50504637971221" y1="59.23500144857318" x2="86.92242651313504" y2="57.516371208406596"/><path d="M 82.02236476270807,57.0390160906601 L 81.18314634057272,58.30012631597197 L 80.8564028550785,58.791130254568 L 80.0766677194356,59.962853761414 L 78.60372618580719,58.98267007489798 L 79.38346132145008,57.81094656805198 L 77.99405057551742,56.88634928028426 L 78.32079406101164,56.39534534168823 L 79.16001248314699,55.13423511637635 L 80.54942322907965,56.05883240414408 Z" fill="#99948A" stroke="#1A1917" stroke-width="0.3"/></g><g><path fill="none" stroke="#1A1917" stroke-width="1.9" stroke-linejoin="round" stroke-linecap="round" d="M -6.532374287310514,-24.135108882021623 L -9.065162834840164,-32.81359198665576 L 6.213442516235123,-45.32334569348821 L 24.087999103506167,-34.456463288056085 L 15.644161410416359,-21.816355800819842 L 6.6462512451890365,-20.138893029196435 M 2.0265211566996664,-20.617014769690602 L -6.532374287310514,-24.135108882021623"/><g stroke="#1A1917" stroke-width="3.8" stroke-linecap="butt"><line x1="4.778432424739364" y1="-19.79067922422312" x2="3.7838542855462887" y2="-19.894671171215375" stroke="#CCC5B8" stroke-width="3.8" stroke-linecap="butt"/><line x1="8.55782935367305" y1="-19.395509825652546" x2="4.778432424739364" y2="-19.79067922422312"/><line x1="3.7838542855462887" y1="-19.894671171215375" x2="0.004457356612602936" y2="-20.289840569785948"/></g><polygon points="-4.112866570863962,-23.457937649955355 -7.267624437516831,-20.621125565450665 -10.104436522021523,-23.775883432103534 -6.949678655368652,-26.612695516608223" stroke="none" fill="#1A1917"/><polygon points="-8.406777144396894,-30.388905048079543 -12.459455619038756,-31.64421265228439 -11.204148014833908,-35.69689112692625 -7.151469540192046,-34.4415835227214" stroke="none" fill="#1A1917"/><polygon points="4.191362566384468,-43.832114274863144 3.8949613103545593,-48.06438863924737 8.127235674738783,-48.36078989527728 8.42363693076869,-44.128515530893054" stroke="none" fill="#1A1917"/><polygon points="22.31509585516012,-36.23674206945145 26.45749979107316,-37.153524285537785 27.37428200715949,-33.01112034962475 23.23187807124645,-32.094338133538415" stroke="none" fill="#1A1917"/><polygon points="16.673685414370528,-24.108223771005896 19.00969099487822,-20.566602965804282 15.468070189676606,-18.23059738529659 13.132064609168914,-21.772218190498204" stroke="none" fill="#1A1917"/></g><g id="labels" style="font: bold italic 1px &quot;Archivo Narrow&quot;, sans-serif" fill="#1A1917"><text text-anchor="middle" stroke="#CCC5B8" stroke-width="0.6568600825143217" x="2.738284996885285" y="-3.256471793121351">Market</text><text text-anchor="middle" x="2.738284996885285" y="-3.256471793121351">Market</text><text text-anchor="middle" stroke="#CCC5B8" stroke-width="0.6568600825143217" x="-14.295960678340606" y="6.043610015795775">Craftsmen</text><text text-anchor="middle" x="-14.295960678340606" y="6.043610015795775">Craftsmen</text><text text-anchor="middle" stroke="#CCC5B8" stroke-width="0.6568600825143217" x="-7.980015296158266" y="-12.98767554060215">Craftsmen</text><text text-anchor="middle" x="-7.980015296158266" y="-12.98767554060215">Craftsmen</text><text text-anchor="middle" stroke="#CCC5B8" stroke-width="0.6568600825143217" x="15.43519076974935" y="-10.192913264657195">Gate</text><text text-anchor="middle" x="15.43519076974935" y="-10.192913264657195">Gate</text><text text-anchor="middle" stroke="#CCC5B8" stroke-width="0.6568600825143217" x="11.93212860834036" y="16.549861086433637">Merchant</text><text text-anchor="middle" x="11.93212860834036" y="16.549861086433637">Merchant</text><text text-anchor="middle" stroke="#CCC5B8" stroke-width="0.6568600825143217" x="-17.404590679009395" y="-22.344080743702666">Temple</text><text text-anchor="middle" x="-17.404590679009395" y="-22.344080743702666">Temple</text><text text-anchor="middle" stroke="#CCC5B8" stroke-width="0.6568600825143217" x="6.85464398363881" y="-31.437536628832632">Castle</text><text text-anchor="middle" x="6.85464398363881" y="-31.437536628832632">Castle</text></g></g></svg>