<svg width="84.8229474603272" height="98.790090452792" xmlns="http://www.w3.org/2000/svg"><rect x="0" y="0" width="84.8229474603272" height="98.790090452792" id="background" fill="#CCC5B8"/><g id="map" transform="translate(42.4114737301636 49.395045226396)"><g fill="none"><path d="M 22.789265683126615,-3.6603054316340233 L 33.44289477513634,-4.857208832377095 C 35.21179142711803,-5.055939086643956 38.094207359577254,-4.749673499829733 41.90686842804687,-5.406616917010052 C 46.32562406561627,-6.167993912263092 51.262635270273464,-7.05520909279859 56.40561384157572,-8.81381731667478 C 60.56546828386493,-10.236252609942069 64.31238427565526,-12.974475786314287 68.63311938735372,-14.545485391531964 C 72.6657104263634,-16.01172645755941 78.5763894840119,-15.6802181624889 84.16549162720169,-18.907246678453895 C 89.36096507433476,-21.907002370567398 96.63803841719123,-28.458744410453548 107.10783475656471,-36.75996644040056 C 125.3415071028785,-51.2169585023028 125.3415071028785,-51.2169585023028 161.69883641857672,-80.3813660380817" stroke="#67635C" stroke-width="2.3" stroke-linejoin="round" stroke-linecap="butt"/><path d="M 22.789265683126615,-3.6603054316340233 L 33.44289477513634,-4.857208832377095 C 35.21179142711803,-5.055939086643956 38.094207359577254,-4.749673499829733 41.90686842804687,-5.406616917010052 C 46.32562406561627,-6.167993912263092 51.262635270273464,-7.05520909279859 56.40561384157572,-8.81381731667478 C 60.56546828386493,-10.236252609942069 64.31238427565526,-12.974475786314287 68.63311938735372,-14.545485391531964 C 72.6657104263634,-16.01172645755941 78.5763894840119,-15.6802181624889 84.16549162720169,-18.907246678453895 C 89.36096507433476,-21.907002370567398 96.63803841719123,-28.458744410453548 107.10783475656471,-36.75996644040056 C 125.3415071028785,-51.2169585023028 125.3415071028785,-51.2169585023028 161.69883641857672,-80.3813660380817" stroke="#CCC5B8" stroke-width="1.7" stroke-linejoin="round" stroke-linecap="round"/></g><g fill="none"><path d="M -22.800824618958654,11.981013445595053 C -29.107926284966943,19.950264632193317 -29.107926284966943,19.950264632193317 -31.70812099135399,24.290761255627128 C -33.74027511681936,27.683029572385472 -34.10398033503872,32.330070304920554 -36.96956984777666,35.63285408387996 C -40.894854826945476,40.157007839804656 -45.36915758597529,45.68414726727457 -51.68781014365125,47.318690743619094 C -57.45820032896075,48.81140672179107 -63.31035073973171,44.7197962828466 -69.13149302882076,43.952675634822306 C -72.9165104330063,43.45387920283603 -78.07214853452606,41.776698988998014 -84.13260592266792,43.043056937232606 C -96.77213311281731,45.68413906916727 -96.77213311281731,45.68413906916727 -121.08113586751901,54.80777103495743" stroke="#67635C" stroke-width="2.3" stroke-linejoin="round" stroke-linecap="butt"/><path d="M -22.800824618958654,11.981013445595053 C -29.107926284966943,19.950264632193317 -29.107926284966943,19.950264632193317 -31.70812099135399,24.290761255627128 C -33.74027511681936,27.683029572385472 -34.10398033503872,32.330070304920554 -36.96956984777666,35.63285408387996 C -40.894854826945476,40.157007839804656 -45.36915758597529,45.68414726727457 -51.68781014365125,47.318690743619094 C -57.45820032896075,48.81140672179107 -63.31035073973171,44.7197962828466 -69.13149302882076,43.952675634822306 C -72.9165104330063,43.45387920283603 -78.07214853452606,41.776698988998014 -84.13260592266792,43.043056937232606 C -96.77213311281731,45.68413906916727 -96.77213311281731,45.68413906916727 -121.08113586751901,54.80777103495743" stroke="#CCC5B8" stroke-width="1.7" stroke-linejoin="round" stroke-linecap="round"/></g><g fill="none"><polyline points="-84.13260592266792,43.043056937232606 -74.24677315715687,21.413823174272427 -55.91896678868019,9.96963472708109 -44.874011944130174,-4.783768982478727 -32.67103999385022,-9.101025062346292 -17.60078274861543,-24.07464151799615 0.5004630292767857,-39.262537688663336 2.5668586712600336,-54.683436519759354 -5.438158082201964,-62.83134320585101 -8.611292668300228,-75.31023948103133 2.359078467114499,-99.1977890811821 -0.8236558101175051,-126.72449990908208" stroke="#99948A" stroke-width="4.647274247560312" stroke-linejoin="round" stroke-linecap="butt"/><polyline points="-84.13260592266792,43.043056937232606 -74.24677315715687,21.413823174272427 -55.91896678868019,9.96963472708109 -44.874011944130174,-4.783768982478727 -32.67103999385022,-9.101025062346292 -17.60078274861543,-24.07464151799615 0.5004630292767857,-39.262537688663336 2.5668586712600336,-54.683436519759354 -5.438158082201964,-62.83134320585101 -8.611292668300228,-75.31023948103133 2.359078467114499,-99.1977890811821 -0.8236558101175051,-126.72449990908208" stroke="#67635C" stroke-width="4.0472742475603125" stroke-linejoin="round" stroke-linecap="round"/><polyline points="-84.13260592266792,43.043056937232606 -74.24677315715687,21.413823174272427 -55.91896678868019,9.96963472708109 -44.874011944130174,-4.783768982478727 -32.67103999385022,-9.101025062346292 -17.60078274861543,-24.07464151799615 0.5004630292767857,-39.262537688663336 2.5668586712600336,-54.683436519759354 -5.438158082201964,-62.83134320585101 -8.611292668300228,-75.31023948103133 2.359078467114499,-99.1977890811821 -0.8236558101175051,-126.72449990908208" stroke="#CCC5B8" stroke-width="2.788364548536187" stroke-linejoin="round" stroke-linecap="butt"/><polyline points="-84.13260592266792,43.043056937232606 -74.24677315715687,21.413823174272427 -55.91896678868019,9.96963472708109 -44.874011944130174,-4.783768982478727 -32.67103999385022,-9.101025062346292 -17.60078274861543,-24.07464151799615 0.5004630292767857,-39.262537688663336 2.5668586712600336,-54.683436519759354 -5.438158082201964,-62.83134320585101 -8.611292668300228,-75.31023948103133 2.359078467114499,-99.1977890811821 -0.8236558101175051,-126.72449990908208" stroke="#67635C" stroke-width="2.4883645485361874" stroke-linejoin="round" stroke-linecap="round"/><g fill="none"><line x1="-34.17357916916649" y1="-11.491694975452111" x2="-31.168500818533957" y2="-6.710355149240472" stroke="#1A1917" stroke-width="1.3" stroke-linejoin="round" stroke-linecap="butt"/><line x1="-34.17357916916649" y1="-11.491694975452111" x2="-31.168500818533957" y2="-6.710355149240472" stroke="#CCC5B8" stroke-width="0.7" stroke-linejoin="round" stroke-linecap="round"/></g></g><g fill-rule="nonzero" fill="#99948A" stroke="#1A1917" stroke-width="0.3"><path d="M 4.077500337896794,2.935433601455582 L 3.75720030867494,4.669925386022873 L 2.5204949518071142,4.44154911726908 L 2.840794981028968,2.707057332701788 Z"/></g><g fill="#A3857E" stroke="#301616" stroke-width="0.3"><polygon points="4.006863481144843,-16.497117065013995 1.3639085944727736,-16.420193137843437 0.14968240048952275,-16.38485275129898 0.07379800126671787,-18.992091501647685 1.2793225781457123,-19.32640234242612 1.2365860158455102,-20.794746592719584 3.851030918383145,-21.85121751727596 3.903337022286066,-20.054082633529276"/><polygon points="6.526177182145207,-16.570442381549977 4.605487899822543,-16.51454019297471 4.006863481144843,-16.497117065013995 3.9462354789114427,-18.58017601254594 3.90214810458906,-20.09493150790079 3.851030918383145,-21.85121751727596 4.443197878114023,-22.090506237734896 6.3431683728242545,-22.858265230562804 6.403200083896655,-20.79569367487126 6.454976026856437,-19.016774078707144"/><polygon points="6.526177182145207,-16.570442381549977 6.460335186827189,-18.832643879507202 6.39941543127245,-20.92572689750326 6.3431683728242545,-22.858265230562804 7.9791844227942175,-23.519362883538093 9.792315909170831,-24.252031105345075 9.860122947361083,-21.922314598043968 9.933563022369546,-19.39905802157181 10.012936963233724,-16.671925481702104 8.180033650776528,-16.61857832786715"/><polygon points="6.252512081191945,-16.56247728369643 8.673008419950335,-16.632926493790105 10.012936963233724,-16.671925481702104 10.071921212898536,-14.645342640414682 10.137941764190115,-12.377006310289762 10.224363742962918,-9.407717046014325 8.88330397475582,-9.407584722221207 8.95022095355326,-7.108448905586666 6.527030881923243,-7.130551060436552 6.46076414957431,-9.407345687641062 6.375639853322978,-12.332049132034125 8.797344391032828,-12.360987001764844 8.731677078310145,-14.617186749214286 6.310610643779013,-14.566324908926862"/><polygon points="0.2922356736538907,-11.487002579329909 2.1763596174376634,-11.541840523693926 4.263497085352455,-11.602587232382165 6.395065354356313,-11.664627111727361 6.450026533169107,-9.77626907459212 4.3174702916039855,-9.748173989860685 2.2293654446097304,-9.720664524243324 2.303630212755662,-7.169073113112453 0.4174094566279416,-7.186277518050015 0.3443682176261909,-9.695830873538874"/><polygon points="-10.57824412954986,-14.51799111512799 -11.062193308346368,-15.824933401807712 0.035457877262541515,-20.30938277654287 0.19489181408317116,-14.831546192782024"/><polygon points="0.19489181408317116,-14.831546192782024 0.28067847996685225,-11.884085030199156 0.3525074756981412,-9.416181969922064 0.4174094566279416,-7.186277518050015 -2.161174461768045,-7.209797035451914 -5.0963368867310415,-7.236568940464904 -7.891438195774956,-7.262063334271185 -8.675102023423356,-9.378408272477275 -5.6382088001814505,-9.391115366841296 -2.4491383902314707,-9.404459207290675 -2.767836825811382,-11.83335856466369 -6.237914923176895,-11.77561740893528 -9.542406609885933,-11.720631566043053 -10.57824412954986,-14.51799111512799 -6.954154768632475,-14.623471230382563 -3.1484641189037768,-14.734236900977129"/></g><g fill="#A38591" stroke="#301629" stroke-width="0.3"><polygon points="9.991918127061751,13.446765638697533 8.288104238289671,13.132130744939047 8.85220486730132,10.077407618416183 10.556018756073398,10.392042512174669"/><polygon points="11.569186005354647,13.738031905855978 11.264240010545699,15.389378376281883 10.903839743426655,17.34102135300125 8.67331871521424,16.851497329020837 7.6430227553714065,16.625382166790235 7.992446133934631,14.733181342063277 8.288104238289671,13.132130744939047 9.3248031088194,13.323572803921053"/><polygon points="11.505463735153205,14.083101353482604 15.721777053968394,14.861707104885399 15.192225738702355,17.729338456862443 10.903839743426655,17.34102135300125"/><polygon points="12.964423259244784,10.836790673917207 10.70351376422102,10.419279686683135 8.85220486730132,10.077407618416183 9.221131690922071,8.079591551301567 9.687252841884643,5.555447832296026 11.504466255411707,6.081954088636738 13.723736668881822,6.724949428923143 13.299890313685358,9.020166269187168"/><polygon points="15.192225738702355,17.729338456862443 15.509120147390139,16.013288821214235 18.534698976845785,16.572007516863422 18.26952310698386,18.007990425945263"/><polygon points="16.255183250111273,-2.216554530711749 11.308038271725536,-3.22144494362756 11.61961938896076,-4.9087219925361785 16.596677720821063,-3.897755420086723"/><polygon points="14.20870821304743,-2.6322454300085836 13.82108983565779,-0.7239733591575703 13.48935459069823,0.9091821871206367 11.901326789309518,0.58661352983823 10.651696736025404,0.33278202384375044 10.954373491042734,-1.306276037538489 11.308038271725536,-3.22144494362756 12.585417194404583,-2.96197693962341"/><polygon points="10.651696736025404,0.33278202384375033 15.535829627762073,1.3248730864174705 14.94464900100159,4.235296184704197 10.112300827825214,3.253723909722943"/><polygon points="10.112300827825214,3.253723909722943 14.94464900100159,4.235296184704197 14.519122446405962,6.330192832816527 9.796843066572906,4.961993798425118"/><polygon points="15.84534456856088,-0.19889036622128226 18.275642646075312,0.29476471146331495 21.674082609410867,0.9850739207034678 21.444772953606304,2.7289867322114354 21.06072254808717,5.6497116362707365 17.475178980148325,4.921396947241877 17.976382783407296,2.024468864731899 15.49606179682398,1.5206528675737268"/><polygon points="14.911079059591444,4.40056332720785 17.681451675406727,4.963296154727627 17.24346705670635,7.119524713746919 14.519122446405962,6.330192832816527"/><polygon points="17.681451675406727,4.963296154727627 20.32681676995841,5.500636789334321 19.844881067398106,7.873239572863655 17.24346705670635,7.119524713746919"/><polygon points="20.32681676995841,5.500636789334321 21.06072254808717,5.6497116362707365 20.7344570749561,8.13097888404385 19.844881067398106,7.873239572863655"/><polygon points="16.596677720821063,-3.897755420086723 18.23351114244378,-3.5652731055163573 19.83001066565154,-3.2409836270180694 19.40507345917618,-1.148988380447875 19.078677513391355,0.4578814268473712 17.4821779901836,0.13359194834908344 17.808573935968425,-1.4732778589461628 16.171740514345704,-1.8057601735165285"/><polygon points="19.078677513391355,0.4578814268473712 19.83001066565154,-3.2409836270180694 22.1673446895375,-2.766211902589783 21.674082609410867,0.9850739207034678"/></g><g fill="#948595" stroke="#22162E" stroke-width="0.3"><polygon points="-8.88592067511911,5.610477565352237 -13.990239578110724,10.867826164344443 -16.707203046846253,8.229947444477384 -11.031993930431518,3.526871717644949"/><polygon points="-10.891735654061415,7.676427747892631 -8.88592067511911,5.610477565352237 -6.321439060259874,8.100312838137784 -8.327254039202181,10.166263020678176"/><polygon points="-6.321439060259874,8.100312838137784 -3.359309549503029,10.976221363161937 -8.021437584919152,16.662889639477527 -11.425757963251492,13.357661437129988"/><polygon points="-13.912195048300202,10.943598991899252 -16.248959000717864,13.350420141772585 -19.30532129488469,10.383021739563326 -16.707203046846253,8.229947444477384"/><polygon points="-16.248959000717864,13.350420141772585 -17.551689171313193,14.692206728270952 -20.60805146548002,11.724808326061693 -19.30532129488469,10.383021739563326"/><polygon points="-13.912195048300202,10.943598991899252 -12.304038710025452,12.504945484691287 -15.612155677863743,15.912241234957527 -17.551689171313193,14.692206728270952"/><polygon points="-5.92652413577947,15.115562201337672 -1.1866228879086043,18.244584337841985 -3.2786691007363786,21.413655064156494 -8.018570348607245,18.28463292765218"/></g><g fill="#898D95" stroke="#171E2E" stroke-width="0.3"><polygon points="-15.713721819700954,-4.7238612864175895 -14.701799902004431,-3.4980503182828198 -12.904915974301408,-1.3213606068301766 -14.4688164044943,-0.030341711139224792 -15.657877212663353,0.951242500895594 -17.215763813584957,-1.422742421260701 -18.09309349106363,-2.759660926665722 -17.065393731597172,-3.6080396232587018"/><polygon points="-15.657877212663353,0.9512425008955936 -12.904915974301408,-1.3213606068301769 -11.439540725566562,0.45374972620946963 -14.037671702135453,3.4201920704678486"/><polygon points="-12.710257567520808,-7.203257689946048 -11.643847566845759,-5.911441540403845 -9.950099861841878,-3.8596878648109483 -11.37455433067302,-2.683783312444018 -12.953564114022022,-1.380291461282491 -14.647311819025903,-3.432045136875387 -15.713721819700954,-4.7238612864175895 -14.13471203635195,-6.027353137579117"/><polygon points="-11.04679501026635,-5.188190507286651 -11.91618581976197,-6.241343691577009 -12.710257567520808,-7.203257689946048 -10.593342556535559,-8.950796872742162 -9.83212719879827,-9.579189442726797 -9.373423639977823,-8.34042491054231 -10.045939952428379,-7.785254485193056 -9.446615276228856,-6.509158411163579"/><polygon points="-13.341682650763634,-11.016591952150835 -11.93311572302539,-12.302623934236687 -10.060217824964816,-10.195165866684452 -11.503736440660413,-9.003523628364455"/><polygon points="-13.341682650763634,-11.016591952150835 -14.910242540675178,-12.734606446255885 -16.30475519113637,-14.26199023383972 -14.946558633674643,-15.502033696779291 -13.720578054268321,-13.820778886728853 -12.263433766119723,-15.151162356743889 -11.116627937330946,-13.048083297727183 -12.341584495456724,-11.929688935774434"/><polygon points="-16.30475519113637,-14.26199023383972 -17.09758134826771,-15.130357988247912 -18.09808449179862,-16.226190485967017 -16.287359479678155,-17.87939576183478 -14.872976370844093,-19.170737960109534 -13.98591886273433,-17.97132876148498 -13.282990141463966,-17.020883985851846 -14.608196393419583,-15.810960914882404"/><polygon points="-14.872976370844093,-19.170737960109534 -18.09808449179862,-16.226190485967017 -19.375834608772536,-17.625686440775226 -16.121610369071067,-20.859042370474185"/><polygon points="-20.168375558485785,-10.399626212279625 -16.501082542985422,-13.427021363301144 -14.92436680118671,-11.700073916209059 -18.681521370589383,-8.598496955499234"/><polygon points="-13.935579188424922,-6.996007754527298 -16.645762800521002,-10.279040505640026 -14.92436680118671,-11.700073916209059 -12.050386824439645,-8.552257063581521"/><polygon points="-15.337431674253242,-8.694168573839347 -13.935579188424922,-6.996007754527298 -15.9713377584933,-5.315464204386508 -17.373190244321624,-7.013625023698556"/><polygon points="-17.955947432550516,-7.719559088963651 -16.51626111010171,-5.975567528084527 -15.9713377584933,-5.315464204386508 -17.068145173259687,-4.410036294744781 -17.58080720151419,-5.09677173468613 -18.907873143743053,-4.001262599853251 -20.1560717595213,-5.903329600083541 -18.935259177078013,-6.911125289376341"/><polygon points="-20.168375558485785,-10.399626212279625 -19.367553235022914,-9.429534774925902 -18.469844507133537,-8.34207813860554 -19.500287029609886,-7.49143525766693 -20.60161715864405,-6.58227379218828 -21.379924748326257,-7.768297525630961 -22.07423245969664,-8.826318075493228 -21.089616381878056,-9.639130666962444"/><polygon points="-16.501082542985422,-13.427021363301144 -19.299473532039848,-11.116915441816769 -22.07423245969664,-8.826318075493228 -23.425438618425467,-10.885353082052342 -24.504591039823183,-12.529819101331977 -22.201353755540016,-14.8182864539456 -19.878500264467505,-17.126244220823466 -18.378825055215394,-15.483677837151339"/><polygon points="-23.601389726693835,2.544863835433254 -24.345515025027083,1.002667455468851 -25.10196066779951,-0.5650627836944948 -23.58271494678919,-1.298114157744804 -21.934436497505015,-2.0934251238087778 -21.177990854732588,-0.5256948846454321 -20.43386555639934,1.0165014953189706 -22.082144005683514,1.8118124613829447"/><polygon points="-20.43386555639934,1.0165014953189706 -23.105359823356608,-4.520158522591159 -20.918699317970873,-5.575244257496887 -17.51667579612864,-0.39107196864301896"/><polygon points="-28.0630588167466,-8.994170651914283 -27.390540388819975,-7.600379193229977 -26.235208966109482,-5.205959944544116 -27.75176211491596,-4.4742077637226965 -29.538584324386072,-3.612048036878364 -30.329515451338388,-5.301417502711455 -30.789916464969863,-6.284799478667642 -29.314937305940607,-7.750320063219345"/><polygon points="-20.528136250559683,2.016500680304523 -19.293764541782057,4.5747305712533475 -18.190354769280503,6.861542430198051 -19.692989358658156,8.106783639576673 -22.833556319516298,10.709388043947035 -24.199991119763887,7.790785968586828 -20.881519387148412,5.615511598978188 -22.211114138584215,2.8285544753234313"/><polygon points="-18.190354769280503,6.861542430198051 -19.773134403740393,3.5812386587594665 -16.079472592264683,1.7990096034235081 -14.671117094996482,3.9451316084351493"/><polygon points="-19.773134403740393,3.5812386587594665 -20.528136250559683,2.016500680304523 -17.040932279333006,0.33388961393835803 -16.079472592264683,1.7990096034235081"/></g><g fill="#899E93" stroke="#17302C" stroke-width="0.3"><polygon points="15.875327340713591,-25.425712442047217 16.08490713874118,-24.19809537809034 16.399268096335415,-22.356720973608354 14.222620686789998,-21.9851219319663 13.291545458761645,-21.826168000835928 12.97718450116741,-23.667542405317914 12.767604703139819,-24.89515946927479 13.698679931168172,-25.054113400405164"/><polygon points="13.291545458761645,-21.826168000835928 11.09715635424402,-21.451540082390096 11.005683635216426,-24.59436285085233 12.767604703139819,-24.89515946927479"/><polygon points="13.400197650832562,-21.844717192711837 16.399268096335415,-22.356720973608354 17.326490078380274,-16.925503184743327 14.218300649710116,-17.05266561642315"/><polygon points="11.09715635424402,-21.451540082390096 13.400197650832562,-21.844717192711837 14.218300649710116,-17.05266561642315 11.22161848312889,-17.175266056331683"/><polygon points="14.425557833636717,-10.80707658477454 11.403367691813953,-10.930720608490748 11.239183195122774,-16.571777088662426 14.655685075853508,-16.43200095951631"/><polygon points="17.390371253008674,-16.32011931518647 17.16024401079188,-10.6951949404447 14.425557833636717,-10.80707658477454 14.655685075853508,-16.43200095951631"/><polygon points="17.390371253008674,-16.32011931518647 19.079288688220327,-16.25102222413181 21.075120362717108,-16.169368639375488 20.929467992931798,-12.609235744407448 18.93363631843502,-12.690889329163767 18.849161446003535,-10.626097849390039 17.16024401079188,-10.6951949404447 17.244718883223367,-12.759986420218429"/><polygon points="15.278406189767782,-6.206372609598792 15.35317366898496,-8.033889474770735 15.464890833702974,-10.764555330955705 18.60043200695646,-10.6362738830667 20.844993120500313,-10.54444426463372 20.712062526987523,-7.295265556384214 20.623097814958882,-5.120730406345945 18.393309913857713,-5.573656790036316"/><polygon points="15.464890833702974,-10.764555330955705 15.361254923886328,-8.23141692625945 15.278406189767782,-6.206372609598792 13.217658175289056,-6.62496271201796 11.518643350253386,-6.970075644131236 11.46743032716014,-8.729654420516772 11.403367691813953,-10.930720608490748 13.238746231590724,-10.855631491972254"/><polygon points="20.74800445732044,-8.173782319794785 22.6961024549545,-8.094081618079276 24.651831420061686,-8.01406871776641 24.593114113194666,-6.578860928223852 24.522847584564857,-4.861359315590121 22.569161200951953,-4.991298362516119 22.63831499238881,-6.6816017064919615 20.69114321094005,-6.783941605317615"/><polygon points="24.522847584564857,-4.861359315590121 24.65616363781045,-8.119959689113323 24.806720687716524,-11.799976064610837 27.33251157464759,-11.696640756880154 28.548252375262294,-11.646902296581523 28.410195169164016,-8.27241548567461 28.287947543758108,-5.284357047759704 27.064548673712324,-5.14691183961732"/><polygon points="32.738784621488286,-5.784395296555511 28.287947543758108,-5.284357047759704 28.398075485615,-7.976178053059918 32.35537662913959,-7.8142767121512255"/><polygon points="28.398075485615,-7.976178053059918 28.487135931544678,-10.153053195305274 31.94030849376539,-10.01177679304626 32.35537662913959,-7.8142767121512255"/></g><g fill="#A3967C" stroke="#302714" stroke-width="0.3"><polygon points="-0.33166926522228635,-26.027456109106907 6.121671138493827,-30.12806607273073 9.426166670438853,-25.299313594942493 1.6531510561213436,-22.15831606056016"/><polygon points="-9.038523620870265,-20.374861964352455 -5.558929524128103,-22.434561046584697 -4.034862102711219,-19.859847075817743 -7.826680953181409,-18.327611164929632"/><polygon points="-4.034862102711219,-19.859847075817743 -5.558929524128103,-22.434561046584697 -4.413082026245971,-23.112830113075997 -2.7861974534920737,-20.36441991846629"/><polygon points="-11.627238463335907,-24.748159482274342 -7.826680953181409,-18.327611164929632 -11.592455918095292,-16.80589932659933 -15.23043526660079,-21.72488806759056"/></g><g fill-rule="nonzero" fill="#99948A" stroke="#1A1917" stroke-width="0.6"><path d="M 12.556350475971138,33.13122659768836 L 8.734900553294551,32.763211849420244 L 4.58301074180053,32.36337495119295 L 4.943239738003423,28.622771955895345 L 0.6968263381036532,28.213832210503654 L 0.9124451965944047,25.974854903249682 L 5.158858596494174,26.383794648641373 L 9.310748407988195,26.783631546868666 L 13.132198330664782,27.151646295136782 L 12.91657947217403,29.390623602390754 Z"/></g><g fill-rule="nonzero" stroke="#99948A" stroke-width="0.3" stroke-linecap="butt"><line x1="25.48537915423951" y1="19.131612014855474" x2="21.71237966484373" y2="18.635494772895424"/><line x1="35.750836723664975" y1="19.10850906270849" x2="21.143553387084115" y2="17.187775931988117"/><line x1="36.747323318333216" y1="17.866615509415478" x2="21.239068739755105" y2="15.827412347378829"/><line x1="21.41292667838657" y1="14.477350144411384" x2="37.576285942293765" y2="16.602693983273994"/><line x1="21.590386070316562" y1="13.127761501825415" x2="37.7793134469166" y2="15.256467329362275"/><line x1="21.76784546224656" y1="11.778172859239447" x2="37.98234095153943" y2="13.910240675450556"/><line x1="21.945304854176555" y1="10.42858421665348" x2="38.18536845616225" y2="12.564014021538835"/><line x1="22.122764246106552" y1="9.078995574067513" x2="38.38839596078509" y2="11.217787367627118"/><line x1="22.30022363803655" y1="7.7294069314815435" x2="38.591423465407914" y2="9.871560713715395"/><line x1="22.477683029966546" y1="6.379818288895573" x2="38.794450970030745" y2="8.525334059803672"/><line x1="22.65514242189654" y1="5.030229646309607" x2="38.997478474653576" y2="7.179107405891955"/><line x1="22.832601813826535" y1="3.6806410037236374" x2="39.2005059792764" y2="5.832880751980234"/><line x1="23.010061205756532" y1="2.3310523611376683" x2="39.40353348389924" y2="4.486654098068513"/><line x1="23.18752059768653" y1="0.9814637185516976" x2="39.60656098852206" y2="3.14042744415679"/><line x1="23.364979989616526" y1="-0.36812492403426983" x2="39.809588493144894" y2="1.7942007902450712"/><line x1="24.09211611101843" y1="-1.6454357664875636" x2="40.012615997767725" y2="0.44797413633335115"/><line x1="26.22410322063422" y1="-2.738020690054204" x2="40.21564350239055" y2="-0.8982525175783711"/><line x1="31.8545641522091" y1="-3.370586154700177" x2="40.24664408899088" y2="-2.2670992434917117"/><line x1="38.433577983464225" y1="-3.878425006007027" x2="40.02340054822801" y2="-3.6693769029650687"/></g><g fill-rule="nonzero" stroke="#99948A" stroke-width="0.3" stroke-linecap="butt"><line x1="19.51181283754226" y1="41.47261671955563" x2="19.538118653316705" y2="37.56893778116378"/><line x1="20.881157109959368" y1="43.55283356242107" x2="20.963151135091543" y2="31.38524477799171"/><line x1="22.38818361686638" y1="25.20155177481963" x2="22.252988201885543" y2="45.2640162333621"/><line x1="23.79229774365308" y1="22.122059853763865" x2="23.636724070632745" y2="45.20857714503322"/><line x1="25.18234783327538" y1="21.12961538024465" x2="25.020465932592035" y2="45.152248687751964"/><line x1="26.565647297108324" y1="21.138937053832766" x2="26.406122834948235" y2="44.811735815599505"/><line x1="27.94894676094126" y1="21.14825872742088" x2="27.791779737304434" y2="44.471222943447046"/><line x1="29.332246224774206" y1="21.157580401008993" x2="29.17743663966063" y2="44.13071007129459"/><line x1="30.715545688607147" y1="21.166902074597107" x2="30.563093542016826" y2="43.79019719914213"/><line x1="32.09884515244009" y1="21.176223748185222" x2="31.948750444373026" y2="43.44968432698967"/><line x1="33.48214461627303" y1="21.185545421773334" x2="33.33440734672922" y2="43.10917145483721"/><line x1="34.86544408010597" y1="21.19486709536145" x2="34.72006424908542" y2="42.76865858268475"/><line x1="36.248695326999744" y1="21.211343971872378" x2="36.10572115144162" y2="42.42814571053229"/><line x1="37.628197940282654" y1="21.784103238555833" x2="37.49137805379782" y2="42.08763283837983"/><line x1="39.00750585330932" y1="22.38575525261274" x2="38.87703495615401" y2="41.74711996622737"/><line x1="40.38277919956999" y1="23.586121005296018" x2="40.26269185851021" y2="41.406607094074914"/><line x1="41.758052545830665" y1="24.786486757979297" x2="41.648348760866405" y2="41.066094221922455"/><line x1="43.133325892091335" y1="25.986852510662576" x2="43.03400566322261" y2="40.725581349769996"/><line x1="44.508599238352005" y1="27.187218263345855" x2="44.419662565578804" y2="40.38506847761754"/><line x1="45.883872584612675" y1="28.387584016029134" x2="45.805319467935" y2="40.04455560546508"/><line x1="47.259145930873345" y1="29.587949768712413" x2="47.19247574427091" y2="39.48154156948072"/><line x1="48.63441927713402" y1="30.788315521395695" x2="48.58030635759033" y2="38.81845859427398"/><line x1="50.00561354363128" y1="32.594000565333076" x2="49.993240999834214" y2="34.43003709235232"/></g><g fill-rule="nonzero" stroke="#99948A" stroke-width="0.3" stroke-linecap="butt"><line x1="3.8722760174236823" y1="-36.637298748990304" x2="7.477120771302965" y2="-31.36965566427085"/><line x1="3.871693269132888" y1="-39.3960185971028" x2="8.9934514851005" y2="-31.911758916040732"/><line x1="4.1807337309783605" y1="-41.70229605917696" x2="10.33654974078445" y2="-32.707001157790415"/><line x1="4.489774192823833" y1="-44.00857352125112" x2="11.587290836506412" y2="-33.63720193124235"/><line x1="4.798814654669307" y1="-46.314850983325286" x2="12.838031932228365" y2="-34.56740270469429"/><line x1="5.10785511651478" y1="-48.62112844539944" x2="14.088773027950324" y2="-35.49760347814623"/><line x1="5.416895578360253" y1="-50.9274059074736" x2="15.33951412367228" y2="-36.42780425159817"/><line x1="5.765125654968302" y1="-53.17641685259866" x2="16.590255219394237" y2="-37.358005025050105"/><line x1="6.690086062649425" y1="-54.58267041213708" x2="17.840996315116193" y2="-38.28820579850204"/><line x1="7.8507543558269095" y1="-55.64449165965634" x2="19.091737410838157" y2="-39.21840657195398"/><line x1="9.344785626622683" y1="-56.21918036648497" x2="20.342478506560106" y2="-40.14860734540592"/><line x1="10.838816897418459" y1="-56.79386907331361" x2="21.593219602282065" y2="-41.07880811885785"/><line x1="12.332848168214234" y1="-57.36855778014225" x2="22.843960698004025" y2="-42.009008892309794"/><line x1="13.82687943901001" y1="-57.943246486970885" x2="24.094701793725978" y2="-42.93920966576173"/><line x1="15.320910709805789" y1="-58.517935193799524" x2="25.156433852129815" y2="-44.14560323428671"/><line x1="16.81494198060156" y1="-59.09262390062816" x2="25.83336735566174" y2="-45.91429048949534"/><line x1="19.031497655510606" y1="-58.61151105684285" x2="21.0001985179102" y2="-55.73471213990183"/><line x1="9.192945729785723" y1="-28.990123884433384" x2="26.636021070895495" y2="-41.96288237872028"/><line x1="28.72909686642143" y1="-41.570589031891615" x2="9.777984750521146" y2="-27.476273902820623"/><line x1="29.485579431623748" y1="-40.18424498912737" x2="10.916416338005941" y2="-26.373992866510395"/><line x1="30.242061996826067" y1="-38.79790094636312" x2="13.856142060458403" y2="-26.611369736454684"/><line x1="30.998544562028385" y1="-37.41155690359887" x2="17.257466486620203" y2="-27.192046648816614"/><line x1="31.755027127230704" y1="-36.02521286083463" x2="20.658790912781996" y2="-27.772723561178545"/><line x1="32.21555972221675" y1="-34.41876499951044" x2="24.060115338943792" y2="-28.353400473540475"/><line x1="29.62992741190031" y1="-30.546824335026265" x2="27.88482209697988" y2="-29.248955160305446"/><path d="M 11.664386242446636,-30.912785905175625 L 12.639691888304974,-31.63813991267771 L 13.557527657987976,-30.40402470977798 L 14.618017801975524,-31.192732105376873 L 15.619150071024546,-31.93729388093727 L 16.655752775224332,-30.54348553430706 L 15.654620506175311,-29.798923758746664 L 14.594130362187762,-29.01021636314777 L 13.618824716329424,-28.284862355645686 L 12.582222012129638,-29.678670702275895 Z" fill="#99948A" stroke="#1A1917" stroke-width="0.3"/></g><g fill-rule="nonzero" stroke="#99948A" stroke-width="0.3" stroke-linecap="butt"><line x1="34.37337097238863" y1="-33.060789569373" x2="43.26602345415504" y2="-35.57304799753267"/><line x1="32.49790459773219" y1="-30.944695540119305" x2="44.20239846495002" y2="-34.2513257525956"/><line x1="30.8769340575671" y1="-28.900498990998038" x2="44.95408812608403" y2="-32.877428149721766"/><line x1="30.52612990156957" y1="-27.21513645797409" x2="45.36909813228259" y2="-31.408415360188418"/><line x1="30.536622764970872" y1="-25.63184374988874" x2="45.784108138481145" y2="-29.939402570655066"/><line x1="30.821060260729286" y1="-24.125942991269472" x2="46.1991181446797" y2="-28.470389781121714"/><line x1="31.1054977564877" y1="-22.620042232650203" x2="46.614128150878265" y2="-27.00137699158836"/><line x1="31.38993525224611" y1="-21.114141474030934" x2="47.02913815707682" y2="-25.53236420205501"/><line x1="31.67437274800453" y1="-19.60824071541166" x2="47.44414816327538" y2="-24.06335141252166"/><line x1="31.95881024376294" y1="-18.10233995679239" x2="47.859158169473936" y2="-22.59433862298831"/><line x1="32.24324773952135" y1="-16.596439198173123" x2="48.2741681756725" y2="-21.125325833454955"/><line x1="32.52768523527977" y1="-15.09053843955385" x2="48.68917818187106" y2="-19.656313043921603"/><line x1="32.81212273103819" y1="-13.584637680934577" x2="49.104188188069614" y2="-18.18730025438825"/><line x1="33.0965602267966" y1="-12.078736922315304" x2="49.51919819426817" y2="-16.718287464854896"/><line x1="33.38099772255501" y1="-10.572836163696035" x2="49.93420820046673" y2="-15.249274675321546"/><line x1="33.665435218313426" y1="-9.066935405076764" x2="50.34921820666529" y2="-13.780261885788194"/><line x1="34.20419355017188" y1="-7.632882687889335" x2="50.76422821286385" y2="-12.31124909625484"/><line x1="34.95570693132415" y1="-6.258935284253497" x2="50.844534217480664" y2="-10.747679260819083"/><line x1="44.12922317695759" y1="-7.264283340736087" x2="50.71610036338162" y2="-9.125138441143584"/><line x1="53.929433082611716" y1="-9.567329442655044" x2="46.75277789924962" y2="-34.97056814284605"/><line x1="47.858692792850285" y1="-37.182262470830636" x2="55.552422851458125" y2="-9.948731504098603"/><line x1="49.4615089402421" y1="-37.63507319106646" x2="57.1054940314884" y2="-10.577624709521693"/><line x1="51.06432508763391" y1="-38.08788391130228" x2="58.63383946843483" y2="-11.294039739186044"/><line x1="52.667141235025724" y1="-38.540694631538095" x2="60.16218490538126" y2="-12.01045476885039"/><line x1="54.74318178629989" y1="-37.318430796367" x2="61.69053034232769" y2="-12.726869798514738"/><line x1="57.98686087361694" y1="-31.963071572217892" x2="63.21887577927413" y2="-13.443284828179088"/><line x1="61.57448339789639" y1="-25.39025421398208" x2="64.74722121622055" y2="-14.159699857843432"/><line x1="65.16210592217584" y1="-18.81743685574624" x2="65.89709947096459" y2="-16.21577687823092"/></g><g fill-rule="nonzero" stroke="#99948A" stroke-width="0.3" stroke-linecap="butt"><line x1="43.81311782204442" y1="-4.1834048828354105" x2="47.72834748446703" y2="-5.439248789768791"/><line x1="42.68965661656241" y1="-2.357423061257834" x2="55.11826380220307" y2="-6.344006723401761"/><line x1="42.21429155263119" y1="-0.7393237039671625" x2="56.1122005766794" y2="-5.197198687516839"/><line x1="41.982021888168006" y1="0.8008006933471989" x2="56.90412474102939" y2="-3.985593353024945"/><line x1="41.74975222370482" y1="2.3409250906615613" x2="57.330379937232784" y2="-2.656696522197846"/><line x1="41.51748255924163" y1="3.8810494879759236" x2="57.75663513343618" y2="-1.327799691370747"/><line x1="41.28521289477844" y1="5.421173885290285" x2="58.18289032963957" y2="0.0010971394563512131"/><line x1="41.05294323031525" y1="6.961298282604649" x2="58.60914552584296" y2="1.3299939702834511"/><line x1="40.82067356585207" y1="8.50142267991901" x2="59.035400722046354" y2="2.6588908011105494"/><line x1="40.58840390138889" y1="10.041547077233371" x2="59.46165591824975" y2="3.987787631937649"/><line x1="40.3561342369257" y1="11.581671474547734" x2="59.88791111445314" y2="5.31668446276475"/><line x1="40.12386457246251" y1="13.121795871862094" x2="60.31416631065653" y2="6.645581293591846"/><line x1="39.89159490799932" y1="14.661920269176456" x2="60.740421506859924" y2="7.974478124418946"/><line x1="39.65932524353613" y1="16.20204466649082" x2="61.16667670306332" y2="9.303374955246042"/><line x1="61.59293189926671" y1="10.632271786073142" x2="39.54981428792847" y2="17.70279314212711"/><line x1="62.0191870954701" y1="11.961168616900235" x2="39.89391817135201" y2="19.058040719780458"/><line x1="62.445442291673494" y1="13.290065447727333" x2="40.238022054775556" y2="20.413288297433816"/><line x1="62.87169748787689" y1="14.618962278554427" x2="41.137672318199606" y2="21.590339550350798"/><line x1="63.29795268408028" y1="15.947859109381529" x2="42.36559486895047" y2="22.662094616990075"/><line x1="63.72420788028367" y1="17.276755940208623" x2="43.59351741970132" y2="23.73384968362935"/><line x1="64.15046307648706" y1="18.605652771035725" x2="44.82143997045218" y2="24.80560475026863"/><line x1="63.987079564948175" y1="20.12368133671794" x2="46.04936252120304" y2="25.877359816907905"/><line x1="63.820094316723015" y1="21.642865190713195" x2="47.2772850719539" y2="26.949114883547182"/><line x1="61.799619487625094" y1="23.75657192009534" x2="48.50520762270476" y2="28.02086995018646"/><line x1="57.819339924153" y1="26.498903033396783" x2="49.733130173455606" y2="29.09262501682573"/><line x1="53.83906036068089" y1="29.241234146698243" x2="52.165643630304515" y2="29.77799709186432"/><path d="M 61.52634750494971,17.63290456467082 L 61.95869888223497,18.980806901570315 L 60.36003067705201,19.493593608300785 L 58.818715190755576,19.98798393250203 L 58.38636381347032,18.640081595602535 L 57.77535327418259,16.735189933298972 L 59.316668760479025,16.240799609097728 L 59.92767929976675,18.14569127140129 Z" fill="#99948A" stroke="#1A1917" stroke-width="0.3"/></g><g fill-rule="nonzero" stroke="#99948A" stroke-width="0.3" stroke-linecap="butt"><line x1="37.00163417987621" y1="-73.00031108191806" x2="43.73103782924527" y2="-66.48773792839448"/><line x1="33.76493920983271" y1="-74.05856067385697" x2="43.3114464601316" y2="-64.81965481121877"/><line x1="32.417017999298324" y1="-73.288895353839" x2="42.546797709041" y2="-63.48551086003419"/><line x1="31.38049663792998" y1="-72.21786390936803" x2="41.51027634767266" y2="-62.41447941556323"/><line x1="30.34397527656163" y1="-71.14683246489707" x2="40.473754986304314" y2="-61.343447971092274"/><line x1="29.30745391519328" y1="-70.07580102042611" x2="39.43723362493596" y2="-60.27241652662131"/><line x1="28.270932553824927" y1="-69.00476957595515" x2="38.40071226356761" y2="-59.20138508215035"/><line x1="27.234411192456584" y1="-67.93373813148419" x2="37.36419090219927" y2="-58.1303536376794"/><line x1="26.19788983108824" y1="-66.86270668701324" x2="36.32766954083092" y2="-57.05932219320844"/><line x1="25.16136846971989" y1="-65.79167524254228" x2="35.291148179462574" y2="-55.98829074873748"/><line x1="24.12484710835154" y1="-64.72064379807132" x2="34.25462681809422" y2="-54.91725930426652"/><line x1="23.088325746983188" y1="-63.64961235360036" x2="33.21810545672588" y2="-53.84622785979556"/><line x1="22.051804385614844" y1="-62.578580909129414" x2="32.181584095357536" y2="-52.77519641532461"/><line x1="21.508823127615656" y1="-61.02991189157415" x2="31.145062733989185" y2="-51.70416497085365"/><line x1="21.534538728384312" y1="-58.930870197942035" x2="30.108541372620834" y2="-50.633133526382686"/><line x1="23.932849076644352" y1="-54.53568197160012" x2="28.94216233225553" y2="-49.68777557069016"/><line x1="26.331159424904403" y1="-50.1404937452582" x2="27.170491255632825" y2="-49.32820632240279"/><line x1="29.996643410336727" y1="-47.210227762191394" x2="45.112758224192746" y2="-62.82962055743521"/><line x1="47.65916278844973" y1="-63.33916880766742" x2="29.415491176838717" y2="-44.48808991350672"/><line x1="48.752901094095584" y1="-62.34768553140936" x2="30.15579167671905" y2="-43.13140142513421"/><line x1="49.84663939974144" y1="-61.3562022551513" x2="30.896092176599385" y2="-41.77471293676169"/><line x1="50.9403777053873" y1="-60.36471897889325" x2="31.63639267647972" y2="-40.418024448389176"/><line x1="52.03411601103316" y1="-59.37323570263519" x2="32.37669317636006" y2="-39.06133596001666"/><line x1="53.12785431667902" y1="-58.38175242637713" x2="33.116993676240384" y2="-37.704647471644144"/><line x1="54.22159262232488" y1="-57.39026915011908" x2="33.97520537809278" y2="-36.46979593683013"/><line x1="55.315330927970734" y1="-56.39878587386102" x2="35.69099128653255" y2="-36.121070800810074"/><line x1="56.40906923361659" y1="-55.407302597602964" x2="38.119939681163686" y2="-36.50925227973876"/><line x1="57.32921282166143" y1="-54.236444917618876" x2="40.945831997043356" y2="-37.30759358478773"/><line x1="57.83979031792147" y1="-52.64238499671665" x2="43.77172431292305" y2="-38.10593488983671"/><line x1="56.95865128997311" y1="-49.610272552469155" x2="46.597616628802726" y2="-38.90427619488568"/><line x1="55.77042189230543" y1="-46.26084542998927" x2="49.423508944682396" y2="-39.70261749993465"/><line x1="54.582192494637745" y1="-42.91141830750937" x2="52.78297744929448" y2="-41.052299951874176"/><path d="M 35.651684294002585,-40.58940917716918 L 36.37029570841071,-41.33194613769144 L 37.23035253760178,-42.22063781586351 L 38.495852724442535,-40.99591375827619 L 39.39937724522721,-41.92952034727445 L 40.619000944746894,-40.749194574479155 L 39.71547642396222,-39.815587985480896 L 38.85541959477115,-38.92689630730882 L 37.63579589525146,-40.107222080104115 L 36.91718448084334,-39.36468511958186 Z" fill="#99948A" stroke="#1A1917" stroke-width="0.3"/></g><g fill-rule="nonzero" stroke="#99948A" stroke-width="0.3" stroke-linecap="butt"><line x1="58.15369082729715" y1="-7.645525263414752" x2="59.66901688305131" y2="-2.249400438040813"/><line x1="59.24325160095463" y1="-8.70822865194693" x2="61.08812517165662" y2="-2.138574525867341"/><line x1="60.469784861096784" y1="-9.28316861035363" x2="62.50723346026192" y2="-2.027748613693868"/><line x1="61.69631812123894" y1="-9.85810856876033" x2="63.861959639582835" y2="-2.146189463548403"/><line x1="62.92285138138109" y1="-10.43304852716703" x2="65.20171551169355" y2="-2.31794005890203"/><line x1="64.14938464152326" y1="-11.00798848557373" x2="66.54147138380428" y2="-2.4896906542556607"/><line x1="65.37591790166542" y1="-11.582928443980434" x2="67.881227255915" y2="-2.6614412496092896"/><line x1="66.60245116180756" y1="-12.15786840238713" x2="69.22098312802572" y2="-2.8331918449629185"/><line x1="67.82898442194973" y1="-12.732808360793834" x2="70.56073900013644" y2="-3.0049424403165457"/><line x1="69.08534867893015" y1="-13.201519179938131" x2="71.90049487224717" y2="-3.1766930356701746"/><line x1="70.34500576785395" y1="-13.658504118617369" x2="73.2402507443579" y2="-3.3484436310238053"/><line x1="71.62700309179704" y1="-14.035934761813762" x2="74.58000661646861" y2="-3.5201942263774324"/><line x1="72.91353557859482" y1="-14.397215544210004" x2="75.91976248857934" y2="-3.6919448217310613"/><line x1="74.2000680653926" y1="-14.758496326606247" x2="77.25951836069005" y2="-3.86369541708469"/><line x1="75.48660055219037" y1="-15.119777109002484" x2="78.59927423280077" y2="-4.035446012438319"/><line x1="76.77313303898814" y1="-15.481057891398724" x2="79.93903010491148" y2="-4.207196607791948"/><line x1="78.05966552578592" y1="-15.842338673794966" x2="81.27878597702221" y2="-4.378947203145577"/><line x1="79.3461980125837" y1="-16.20361945619121" x2="82.61854184913292" y2="-4.550697798499204"/><line x1="80.63273049938147" y1="-16.564900238587448" x2="83.95829772124365" y2="-4.722448393852835"/><line x1="81.91926298617923" y1="-16.926181020983687" x2="85.29805359335437" y2="-4.894198989206462"/><line x1="83.38972001265097" y1="-16.632500601623175" x2="86.6378094654651" y2="-5.065949584560091"/><line x1="85.4849739914638" y1="-14.113898138229152" x2="87.83829801191946" y2="-5.7336356061436415"/><line x1="88.57809064885097" y1="-8.041874579934678" x2="89.00955095880774" y2="-6.505430538152202"/><line x1="73.29755590455287" y1="0.5311269351273715" x2="77.23739268892426" y2="20.696939364098263"/><line x1="76.16390317392785" y1="22.201158025177072" x2="71.60707043793536" y2="-1.1227102601129033"/><line x1="74.7602646009458" y1="22.01552902471072" x2="70.27310874127433" y2="-0.9517024516384254"/><line x1="73.35662602796378" y1="21.82990002424437" x2="68.9391470446133" y2="-0.7806946431639474"/><line x1="71.95298745498175" y1="21.644271023778018" x2="67.60518534795227" y2="-0.6096868346894659"/><line x1="70.54934888199972" y1="21.45864202331167" x2="66.27122365129124" y2="-0.438679026214988"/><line x1="69.14571030901769" y1="21.273013022845316" x2="64.9372619546302" y2="-0.26767121774051006"/><line x1="67.63624122222011" y1="20.545697042011792" x2="63.603300257969174" y2="-0.09666340926603212"/><line x1="65.32735659737372" y1="15.72662176367484" x2="62.269338561308146" y2="0.07434439920844937"/><line x1="61.82940389861002" y1="4.821374631972727" x2="61.22716668030094" y2="1.738860445003997"/><line x1="95.84605466735242" y1="23.788064809058547" x2="92.7448236900999" y2="24.39395876567684"/><line x1="97.00908240773924" y1="22.111211246978925" x2="88.32009952945803" y2="23.808795933100722"/><line x1="98.17211014812605" y1="20.43435768489931" x2="83.89537536881618" y2="23.223633100524605"/><line x1="99.33513788851288" y1="18.75750412281969" x2="81.05720298124167" y2="22.328502342884363"/><line x1="100.4098534721045" y1="17.097904290788108" x2="80.09871007364349" y2="21.066134689427333"/><line x1="100.19338156415037" y1="15.690566448826615" x2="79.39659062986128" y2="19.753678818258443"/><line x1="99.95298199659328" y1="14.28790340356868" x2="79.12378632556464" y2="18.357346753923995"/><line x1="99.28137431884967" y1="12.969486385105657" x2="78.85098202126798" y2="16.96101468958955"/><line x1="98.60976664110605" y1="11.651069366642632" x2="78.57817771697134" y2="15.564682625255102"/><line x1="97.93815896336244" y1="10.33265234817961" x2="78.3053734126747" y2="14.168350560920656"/><line x1="97.26655128561882" y1="9.014235329716588" x2="78.03256910837804" y2="12.772018496586208"/><line x1="96.5949436078752" y1="7.6958183112535625" x2="77.7597648040814" y2="11.375686432251763"/><line x1="95.92333593013157" y1="6.377401292790541" x2="77.48696049978474" y2="9.979354367917319"/><line x1="95.25172825238796" y1="5.058984274327514" x2="77.2141561954881" y2="8.583022303582869"/><line x1="94.58012057464434" y1="3.7405672558644927" x2="76.94135189119145" y2="7.186690239248425"/><line x1="93.90851289690073" y1="2.4221502374014663" x2="76.6685475868948" y2="5.790358174913975"/><line x1="93.23690521915711" y1="1.1037332189384457" x2="76.39574328259816" y2="4.3940261105795315"/><line x1="92.56529754141349" y1="-0.21468379952458072" x2="76.1229389783015" y2="2.997694046245082"/><line x1="91.89368986366986" y1="-1.5331008179876053" x2="75.85013467400486" y2="1.6013619819106353"/><line x1="90.31209150322483" y1="-2.673731061046941" x2="75.99951261949441" y2="0.12254729193068055"/><line x1="81.33943728176924" y1="-2.3703553232354535" x2="76.65165445373013" y2="-1.4544934263688682"/></g><g fill-rule="nonzero" stroke="#99948A" stroke-width="0.3" stroke-linecap="butt"><line x1="71.44873764836969" y1="49.5102701207166" x2="86.10901975130335" y2="47.071469246187476"/><line x1="70.15120078725509" y1="48.13583085505538" x2="87.11057623679021" y2="45.31456593072508"/><line x1="69.3552138859184" y1="46.67795660008508" x2="87.13097609864627" y2="43.72088223238602"/><line x1="69.09778628787042" y1="45.13049069260603" x2="86.8735485005983" y2="42.17341632490696"/><line x1="68.84035868982245" y1="43.58302478512697" x2="86.61612090255032" y2="40.62595041742791"/><line x1="68.58293109177448" y1="42.03555887764792" x2="86.35869330450235" y2="39.07848450994886"/><line x1="68.3255034937265" y1="40.48809297016888" x2="86.10126570645437" y2="37.531018602469814"/><line x1="68.06807589567853" y1="38.94062706268982" x2="85.8438381084064" y2="35.983552694990756"/><line x1="67.81064829763056" y1="37.39316115521077" x2="85.58641051035843" y2="34.43608678751171"/><line x1="67.55322069958258" y1="35.84569524773172" x2="85.32898291231045" y2="32.888620880032654"/><line x1="67.29579310153461" y1="34.29822934025267" x2="85.07155531426247" y2="31.341154972553607"/><line x1="67.03836550348665" y1="32.75076343277362" x2="84.8141277162145" y2="29.793689065074553"/><line x1="66.78093790543866" y1="31.203297525294566" x2="84.55670011816653" y2="28.2462231575955"/><line x1="66.5235103073907" y1="29.65583161781551" x2="83.83500511215618" y2="26.775990126851298"/><line x1="66.26608270934271" y1="28.108365710336457" x2="82.61838428647971" y2="25.38809013126658"/><line x1="66.00865511129474" y1="26.56089980285741" x2="78.3506173774462" y2="24.50776138732362"/><line x1="65.80106237339541" y1="25.005143652417186" x2="73.02484518399248" y2="23.80343636519062"/><line x1="65.82697911049537" y1="23.41054219819355" x2="67.60225394992679" y2="23.115217606174376"/><line x1="94.54798375607024" y1="27.753782745600198" x2="95.67050566936179" y2="34.501561167139606"/><line x1="93.04091619739526" y1="26.450530372865078" x2="96.23223336241998" y2="45.63438847617583"/><line x1="91.72162575220855" y1="26.276056280047488" x2="94.98596571827318" y2="45.89887390415076"/><line x1="90.40233530702183" y1="26.101582187229898" x2="93.73044476192219" y2="46.10773520605748"/><line x1="89.08304486183512" y1="25.927108094412308" x2="92.4749238055712" y2="46.31659650796419"/><line x1="87.7637544166484" y1="25.752634001594714" x2="91.2194028492202" y2="46.52545780987091"/><line x1="89.75417571403929" y1="45.47371937504494" x2="86.67065116699419" y2="26.937831429814363"/><line x1="59.33345468703233" y1="27.88444755521117" x2="63.866315937163435" y2="27.13038662355101"/><line x1="56.6725386042188" y1="29.717764247523682" x2="64.2953756748833" y2="28.44967257071963"/><line x1="54.01162252140527" y1="31.5510809398362" x2="64.52048853199669" y2="29.802885957161813"/><line x1="52.4217446281955" y1="33.20622583060221" x2="64.74560138911008" y2="31.156099343603998"/><line x1="51.99007835886127" y1="34.668697244734894" x2="64.97071424622347" y2="32.509312730046176"/><line x1="51.661044685514554" y1="36.11409528585251" x2="65.19582710333685" y2="33.86252611648836"/><line x1="51.33201101216784" y1="37.55949332697012" x2="65.42093996045026" y2="35.21573950293054"/><line x1="51.002977338821125" y1="39.00489136808774" x2="65.64605281756364" y2="36.568952889372724"/><line x1="51.11020768918597" y1="40.377715015678476" x2="65.87116567467703" y2="37.9221662758149"/><line x1="51.42498166283646" y1="41.716012890407676" x2="66.09627853179042" y2="39.27537966225709"/><line x1="51.93431333893367" y1="43.021945255964404" x2="66.32139138890382" y2="40.628593048699265"/><line x1="52.44364501503088" y1="44.32787762152115" x2="66.54650424601721" y2="41.98180643514145"/><line x1="52.9529766911281" y1="45.633809987077875" x2="66.7716171031306" y2="43.33501982158363"/><line x1="53.46230836722531" y1="46.93974235263462" x2="66.99672996024398" y2="44.68823320802582"/><line x1="53.97164004332252" y1="48.245674718191346" x2="67.22184281735738" y2="46.041446594468"/><line x1="54.48097171941974" y1="49.55160708374808" x2="67.44695567447077" y2="47.394659980910184"/><line x1="54.99030339551695" y1="50.85753944930482" x2="67.2356145426807" y2="48.820479362404576"/><line x1="56.449423443890126" y1="52.00547044103664" x2="66.80667624085895" y2="50.28249696742851"/></g><g fill-rule="nonzero" stroke="#99948A" stroke-width="0.3" stroke-linecap="butt"><line x1="55.966774335182464" y1="-40.35276624350143" x2="60.14011867399964" y2="-51.69414583627126"/><line x1="56.73558098848193" y1="-38.42997563191466" x2="61.669338242476265" y2="-51.837834963261066"/><line x1="63.15655724176933" y1="-51.86738435972524" x2="57.895511142294154" y2="-37.570092781307274"/><line x1="64.45683754986739" y1="-51.38891369235283" x2="59.16389609923999" y2="-37.00494407941527"/><line x1="65.75711785796545" y1="-50.91044302498041" x2="60.454172598532054" y2="-36.499287303293784"/><line x1="67.05739816606352" y1="-50.431972357608" x2="61.754452906630114" y2="-36.02081663592137"/><line x1="68.35767847416159" y1="-49.953501690235576" x2="63.05473321472818" y2="-35.54234596854895"/><line x1="69.65795878225966" y1="-49.475031022863156" x2="64.35501352282624" y2="-35.06387530117654"/><line x1="70.95823909035771" y1="-48.99656035549074" x2="65.65529383092431" y2="-34.58540463380412"/><line x1="72.25851939845577" y1="-48.51808968811832" x2="66.95557413902237" y2="-34.1069339664317"/><line x1="73.55879970655384" y1="-48.0396190207459" x2="68.25585444712044" y2="-33.62846329905928"/><line x1="74.85908001465191" y1="-47.56114835337349" x2="69.55613475521851" y2="-33.149992631686864"/><line x1="76.15936032274998" y1="-47.08267768600107" x2="70.85641506331658" y2="-32.671521964314444"/><line x1="77.45964063084803" y1="-46.60420701862866" x2="72.15669537141463" y2="-32.19305129694203"/><line x1="78.75992093894611" y1="-46.125736351256236" x2="73.45697567951271" y2="-31.714580629569607"/><line x1="80.06020124704416" y1="-45.647265683883816" x2="74.75725598761076" y2="-31.236109962197194"/><line x1="81.36048155514223" y1="-45.1687950165114" x2="76.05753629570883" y2="-30.757639294824777"/><line x1="82.6607618632403" y1="-44.69032434913898" x2="77.3578166038069" y2="-30.279168627452357"/><line x1="83.96104217133836" y1="-44.21185368176656" x2="78.65809691190496" y2="-29.80069796007994"/><line x1="85.04657448040724" y1="-43.149789048489076" x2="80.1451770045403" y2="-29.829869867172196"/><line x1="86.08747135131924" y1="-41.966424228520005" x2="81.72781455343122" y2="-30.118726405181178"/><line x1="60.55367642444281" y1="-34.011897873118755" x2="79.26458653447331" y2="-27.12675042319181"/><line x1="80.29129636635669" y1="-25.346162099998804" x2="59.75168563083708" y2="-32.904225692124314"/><line x1="79.83666611119571" y1="-24.11066991926016" x2="60.70980215958279" y2="-31.1488779907612"/><line x1="79.38203585603472" y1="-22.875177738521515" x2="61.667918688328506" y2="-29.393530289398086"/><line x1="78.92740560087374" y1="-21.63968555778287" x2="62.62603521707422" y2="-27.63818258803496"/><line x1="78.47277534571276" y1="-20.404193377044226" x2="63.58415174581993" y2="-25.882834886671844"/><line x1="77.9512066165139" y1="-19.193332882370758" x2="64.54226827456564" y2="-24.12748718530873"/><line x1="76.83851757828191" y1="-18.199989892960573" x2="65.50038480331136" y2="-22.37213948394561"/><line x1="74.67637049363101" y1="-17.592821245130533" x2="66.45850133205707" y2="-20.616791782582485"/><line x1="72.51422340898014" y1="-16.985652597300493" x2="67.41661786080279" y2="-18.86144408121937"/><line x1="70.35207632432927" y1="-16.378483949470453" x2="69.21687851195442" y2="-16.796208382812974"/><line x1="99.96181098474203" y1="-38.3239705192357" x2="102.61661040886499" y2="-34.91231559270238"/><line x1="97.31741672099417" y1="-39.29704154114632" x2="101.4411747046721" y2="-33.9976433594951"/><line x1="94.67302245724633" y1="-40.27011256305693" x2="100.2657390004792" y2="-33.08297112628782"/><line x1="92.02862819349846" y1="-41.243183584967554" x2="99.0903032962863" y2="-32.16829889308053"/><line x1="97.9148675920934" y1="-31.253626659873255" x2="89.89074834931469" y2="-41.565338232871156"/><line x1="96.73943188790051" y1="-30.338954426665975" x2="88.6743822805791" y2="-40.70326518232456"/><line x1="95.56399618370762" y1="-29.424282193458694" x2="87.66047477119655" y2="-39.581014758241025"/><line x1="94.38856047951472" y1="-28.509609960251417" x2="87.05457541556741" y2="-37.93443733032804"/><line x1="93.21312477532183" y1="-27.594937727044137" x2="86.44867605993826" y2="-36.28785990241505"/><line x1="92.03768907112894" y1="-26.680265493836853" x2="85.84277670430912" y2="-34.641282474502056"/><line x1="90.86225336693603" y1="-25.765593260629572" x2="85.23687734867997" y2="-32.99470504658907"/><line x1="89.68681766274314" y1="-24.85092102742229" x2="84.63097799305082" y2="-31.34812761867608"/><line x1="88.51138195855025" y1="-23.93624879421501" x2="84.02507863742167" y2="-29.701550190763093"/><line x1="87.33594625435734" y1="-23.021576561007723" x2="83.41917928179252" y2="-28.0549727628501"/><line x1="86.16051055016445" y1="-22.106904327800446" x2="82.81327992616337" y2="-26.40839533493712"/><line x1="84.96067841422224" y1="-21.223583693441288" x2="82.20738057053421" y2="-24.761817907024124"/><line x1="83.74431234548665" y1="-20.361510642894693" x2="81.60148121490508" y2="-23.115240479111137"/><line x1="82.33748591865276" y1="-19.74419620315351" x2="80.99558185927593" y2="-21.46866305119815"/></g><g><path fill="none" stroke="#1A1917" stroke-width="1.9" stroke-linejoin="round" stroke-linecap="round" d="M -3.5705026710959116,35.59667764212958 L -3.873477156266268,23.886977999711764 L 4.086543335993335,19.930048047987473 M 8.667436937669365,19.09649127594135 L 19.66598502026236,20.09241942765523 L 15.666111542654331,37.449209503242045 L -3.5705026710959116,35.59667764212958"/><g stroke="#1A1917" stroke-width="3.8" stroke-linecap="butt"><line x1="5.787923695644897" y1="19.084291066466232" x2="6.775178848348179" y2="18.92514565038138" stroke="#CCC5B8" stroke-width="3.8" stroke-linecap="butt"/><line x1="2.0363541153724274" y1="19.689043647588665" x2="5.787923695644897" y2="19.084291066466232"/><line x1="6.775178848348179" y1="18.92514565038138" x2="10.52674842862065" y2="18.320393069258948"/></g><polygon points="-1.1392322819669554,36.230320098430674 -4.2425735770012105,39.12328964658273 -7.135543125153267,36.01994835154847 -4.0322018301190115,33.12697880339642" stroke="none" fill="#1A1917"/><polygon points="-3.8138985110145533,26.3987560258344 -7.44891276115632,24.210909732954967 -5.261066468276887,20.5758954828132 -1.6260522181351202,22.76374177569263" stroke="none" fill="#1A1917"/><polygon points="17.33113151463237,19.164498323934712 20.76679011638291,16.67527154193643 23.256016898381194,20.110930143686968 19.82035829663066,22.60015692568525" stroke="none" fill="#1A1917"/><polygon points="16.600685217388165,35.11701085947753 19.080107300217122,38.55975193820827 15.637366221486378,41.039174021037226 13.157944138657422,37.596432942306485" stroke="none" fill="#1A1917"/></g><g id="labels" style="font: bold italic 1px &quot;Archivo Narrow&quot;, sans-serif" fill="#1A1917"><text text-anchor="middle" stroke="#CCC5B8" stroke-width="0.5690222853429469" x="0.8746412144345018" y="2.97604644987452">Market</text><text text-anchor="middle" x="0.8746412144345018" y="2.97604644987452">Market</text><text text-anchor="middle" stroke="#CCC5B8" stroke-width="0.5690222853429469" x="1.2590805494424249" y="-13.817512943606834">Merchant</text><text text-anchor="middle" x="1.2590805494424249" y="-13.817512943606834">Merchant</text><text text-anchor="middle" stroke="#CCC5B8" stroke-width="0.5690222853429469" x="14.779086087320087" y="7.497106738579669">Gate</text><text text-anchor="middle" x="14.779086087320087" y="7.497106738579669">Gate</text><text text-anchor="middle" stroke="#CCC5B8" stroke-width="0.5690222853429469" x="-8.312916407409572" y="13.691103091589502">Craftsmen</text><text text-anchor="middle" x="-8.312916407409572" y="13.691103091589502">Craftsmen</text><text text-anchor="middle" stroke="#CCC5B8" stroke-width="0.5690222853429469" x="-19.70045654472338" y="-6.2063019522945">Gate</text><text text-anchor="middle" x="-19.70045654472338" y="-6.2063019522945">Gate</text><text text-anchor="middle" stroke="#CCC5B8" stroke-width="0.5690222853429469" x="21.34723762429486" y="-15.289266364048578">Craftsmen</text><text text-anchor="middle" x="21.34723762429486" y="-15.289266364048578">Craftsmen</text><text text-anchor="middle" stroke="#CCC5B8" stroke-width="0.5690222853429469" x="-3.7356929228437945" y="-26.672018979760256">Craftsmen</text><text text-anchor="middle" x="-3.7356929228437945" y="-26.672018979760256">Craftsmen</text><text text-anchor="middle" stroke="#CCC5B8" stroke-width="0.5690222853429469" x="7.632078070500586" y="28.09946432850686">Castle</text><text text-anchor="middle" x="7.632078070500586" y="28.09946432850686">Castle</text></g></g></svg>