<svg width="87.59957630666729" height="89.72338621823478" xmlns="http://www.w3.org/2000/svg"><rect x="0" y="0" width="87.59957630666729" height="89.72338621823478" id="background" fill="#CCC5B8"/><g id="map" transform="translate(43.799788153333644 44.86169310911739)"><g fill="none"><path d="M -21.46975262836919,3.6052014175625566 L -29.814654059937357,4.030309884584815 C -31.449428474187442,4.113589052214056 -34.68840795734179,3.881811668507612 -39.24698845097236,4.904965895648999 C -43.722555900172225,5.909488193961703 -48.254277499862056,7.702044822467075 -53.08447315890269,9.253122953080176 C -56.35122042472623,10.302144690486447 -60.08302857182081,11.650864749952504 -64.36062610122771,12.96948685693646 C -71.64860337069028,15.21609558453276 -78.62513430808266,18.59678535571104 -85.96918251215918,19.390239509007863 C -90.27632461449026,19.855585009877153 -95.08147915547215,19.185099092751884 -97.49833794334634,16.549699617153305 C -101.7324823171261,11.93268933990715 -101.7324823171261,11.93268933990715 -104.56368628586144,-0.8856432773974126" stroke="#67635C" stroke-width="2.3" stroke-linejoin="round" stroke-linecap="butt"/><path d="M -21.46975262836919,3.6052014175625566 L -29.814654059937357,4.030309884584815 C -31.449428474187442,4.113589052214056 -34.68840795734179,3.881811668507612 -39.24698845097236,4.904965895648999 C -43.722555900172225,5.909488193961703 -48.254277499862056,7.702044822467075 -53.08447315890269,9.253122953080176 C -56.35122042472623,10.302144690486447 -60.08302857182081,11.650864749952504 -64.36062610122771,12.96948685693646 C -71.64860337069028,15.21609558453276 -78.62513430808266,18.59678535571104 -85.96918251215918,19.390239509007863 C -90.27632461449026,19.855585009877153 -95.08147915547215,19.185099092751884 -97.49833794334634,16.549699617153305 C -101.7324823171261,11.93268933990715 -101.7324823171261,11.93268933990715 -104.56368628586144,-0.8856432773974126" stroke="#CCC5B8" stroke-width="1.7" stroke-linejoin="round" stroke-linecap="round"/></g><g fill="none"><path d="M 11.194167216324653,21.115105580755547 L 0.8720846867977237,35.484744257597825 C -1.7059085140984518,39.07363542391675 -2.444027663063941,45.28680997302019 -1.443108281683219,51.69759360146651 C -0.8760381826009535,55.32961809315255 3.2457924927926785,57.61233431000072 4.879687366441461,61.15301897172806 C 6.931006649817908,65.59827113580197 10.855667079224688,70.72694114994351 10.103967616848859,76.72035068401455 C 9.245071096481047,83.56845800829406 4.063418656440221,89.07966592561388 0.6482979307352903,94.89050457026012 C -1.0826207195312523,97.83566809200696 -5.5979209538904575,100.36887443123968 -6.720766699481473,105.34768898434875 C -8.038834943196232,111.19214035228248 -11.667355512354254,123.95069413681092 -10.265895722953504,143.28517179129906 C -7.302429083624862,184.1690272905855 -7.302429083624862,184.1690272905855 4.883946191763812,265.44579795576" stroke="#67635C" stroke-width="2.3" stroke-linejoin="round" stroke-linecap="butt"/><path d="M 11.194167216324653,21.115105580755547 L 0.8720846867977237,35.484744257597825 C -1.7059085140984518,39.07363542391675 -2.444027663063941,45.28680997302019 -1.443108281683219,51.69759360146651 C -0.8760381826009535,55.32961809315255 3.2457924927926785,57.61233431000072 4.879687366441461,61.15301897172806 C 6.931006649817908,65.59827113580197 10.855667079224688,70.72694114994351 10.103967616848859,76.72035068401455 C 9.245071096481047,83.56845800829406 4.063418656440221,89.07966592561388 0.6482979307352903,94.89050457026012 C -1.0826207195312523,97.83566809200696 -5.5979209538904575,100.36887443123968 -6.720766699481473,105.34768898434875 C -8.038834943196232,111.19214035228248 -11.667355512354254,123.95069413681092 -10.265895722953504,143.28517179129906 C -7.302429083624862,184.1690272905855 -7.302429083624862,184.1690272905855 4.883946191763812,265.44579795576" stroke="#CCC5B8" stroke-width="1.7" stroke-linejoin="round" stroke-linecap="round"/></g><g fill="#899E93" stroke="#17302C" stroke-width="0.3"><polygon points="7.31394295159452,-1.9593767517684846 9.959714483944236,-1.4539308044328942 11.41734357429771,-1.1754665805082705 11.136750715020606,2.148524053014872 10.876166574636745,5.235485154278027 10.590547441713605,8.61901859499871 8.775007461957037,8.272179378621352 9.184267954420115,4.91226627825826 6.113269142297474,4.325585272403885 6.691410032751235,1.2992899430750682"/><polygon points="5.479584760755415,7.6426246235285 2.7688451871037514,7.124767236739088 0.4778332430467671,6.687094259967496 -2.36248386065909,6.144482491845134 -1.8294899693403472,3.354510444386742 -1.392396283202614,1.066530814024425 1.447920820503243,1.6091425821467866 3.738932764560227,2.0468155589183783 6.44967233821189,2.56467294570779 6.012578652074157,4.852652576070107"/><polygon points="-7.056972855984035,1.8877697182590005 -4.023100415154445,2.4673581336610617 -1.7432157194021434,2.902905370363328 -2.0954369630226157,4.746617728474543 -2.36248386065909,6.144482491845134 -4.662336393081153,5.7051206165777515 -7.722780295830832,5.1204560116490905 -7.435664264197942,3.7264252385989005"/><polygon points="-5.750566242762285,-4.455209496764316 -2.8903584832849334,-3.9087978346501173 -0.5281256698199837,-3.4575188834518507 -1.16616524569518,-0.11768214074618344 -1.7432157194021434,2.902905370363328 -4.14675316429936,2.443735617443006 -7.056972855984035,1.8877697182590003 -6.436555829877405,-1.1245330834973712"/><polygon points="-5.750566242762285,-4.455209496764316 -3.795806084523835,-13.946131334250117 11.624723160344358,-3.6321499165663913 11.41734357429771,-1.1754665805082705"/></g><g fill="#948595" stroke="#22162E" stroke-width="0.3"><polygon points="2.8288450419130076,14.321961784406295 1.4074534903309284,15.22809595076646 0.02807619194274613,16.107446117847385 -1.0762723148221904,14.375129099250337 -2.574205133712724,12.025422915936367 -3.710010318741936,10.24376192777543 -2.330633020353753,9.364411760694507 -1.1948278353245416,11.146072748855444 0.2265637162575378,10.239938582495277 1.7244965351480714,12.589644765809247"/><polygon points="-0.9092414687716734,8.458277594334339 9.044092927138081,10.359754147156949 2.8288450419130076,14.321961784406295"/><polygon points="-8.734869464798027,18.704586127771147 -8.540917117415619,15.440886884360548 -8.348573566392906,12.204259380646821 -8.198351278472241,9.676420073482296 -6.241196438899959,9.792728209439458 -3.909196286568326,9.931312334356617 -4.05941857448899,12.459151641521142 -6.391418726820622,12.320567516603983 -6.583762277843337,15.55719502031771 -4.251762125511704,15.69577914523487 -4.445714472894113,18.95947838864547 -6.7777146252257445,18.82089426372831"/></g><g fill="#A3857E" stroke="#301616" stroke-width="0.3"><polygon points="-16.64864117512526,0.5309220801693206 -17.172284042440943,3.37865663175792 -18.297687088295753,3.1717169514114953 -17.774044220980073,0.3239823998228957"/><polygon points="-17.172284042440943,3.37865663175792 -16.979266892958968,2.3289686861421224 -16.64864117512526,0.5309220801693204 -14.610881951782469,0.905626275128411 -13.55558443797449,1.0996749148421276 -13.886210155808195,2.8977215208149296 -14.07922730529017,3.9474094664307273 -15.134524819098148,3.7533608267170107"/><polygon points="-17.774044220980073,0.3239823998228957 -18.297687088295753,3.1717169514114953 -20.811964010256588,2.7093904414119026 -20.404657811512283,-0.15973615553804837"/><polygon points="-16.92599976340984,0.47992124290274774 -18.339226665629386,0.2200563665107128 -20.404657811512283,-0.15973615553804832 -20.221905872609426,-1.4470685118018527 -19.979618569290594,-3.15377699843539 -17.84210595684883,-2.7607300999180966 -16.379558859233047,-2.491796201092264 -16.69104937574175,-0.7978128362443879"/><polygon points="-17.707403153576273,-2.7359608804338733 -19.979618569290594,-3.15377699843539 -19.605466514148276,-5.7893607828752 -17.22638406874331,-5.351893901491437"/><polygon points="-9.744610865889548,-1.6976151009726577 -9.339337373940975,-3.9016197726703203 -7.117006858555433,-3.492976515330746 -7.569170138554055,-1.2975939615368237"/><polygon points="-7.991471326349773,0.7527995603254393 -10.12311899470647,0.3608311106880242 -9.744610865889548,-1.6976151009726577 -7.569170138554055,-1.2975939615368237"/><polygon points="-8.847570956787491,4.909409077529305 -12.237634377517859,4.2860425039057315 -14.07922730529017,3.9474094664307273 -13.777695110155772,2.3075825842230073 -13.311906069730231,-0.22552466685210426 -11.439062300301876,0.11885479116679287 -7.991471326349773,0.7527995603254389 -8.511151750780169,3.275997236497169"/><polygon points="-10.849725519373392,-4.179350707526113 -10.526102115203058,-5.939316530192417 -10.1532555626203,-7.966973310229344 -7.93541834055293,-7.559156281934013 -6.3399559378257395,-7.265781849688432 -6.755940509975826,-5.24605731047218 -7.117006858555433,-3.492976515330746 -8.67875465423621,-3.7801514886083707"/><polygon points="-8.120187174137458,-7.593131668352948 -10.1532555626203,-7.966973310229344 -9.577793975925461,-11.096514350181984 -7.576233598569499,-10.551322237329417"/><polygon points="-6.3399559378257395,-7.265781849688432 -8.120187174137458,-7.593131668352948 -7.576233598569499,-10.551322237329417 -5.764880258937824,-10.057939391861188"/><polygon points="-5.6102102210988285,-10.80890683589469 -8.66947564986702,-11.64220040113313 -7.703466383984597,-15.188704147550768 -4.913733982341355,-14.19049895391193"/></g><g fill="#989E7C" stroke="#263014" stroke-width="0.3"><polygon points="8.352290763646069,-12.546555805689945 15.06995380889827,-6.847344549761541 12.440360137544118,-4.741601793543066 4.577606366731575,-10.000584478003866"/><polygon points="12.331373062681116,-19.139953007413187 17.032258685614053,-15.151759483180594 21.114914807481295,-11.688066891413028 18.072298370629127,-9.251581136352115 15.06995380889827,-6.847344549761541 11.947533610625031,-9.496380713061534 8.352290763646069,-12.546555805689945 10.328577476494628,-15.82129161235031"/></g><g fill="#948595" stroke="#22162E" stroke-width="0.3"><polygon points="0.5562251290836198,34.21039677198518 -1.5046006269571204,31.689333440311124 -3.4381840882500594,29.323929015066415 -5.0780706013798405,27.31781193105779 -3.5655998285472097,26.081453175309044 -0.8879351463711584,23.892614730142018 0.3239796241652062,25.793663691795704 1.7529433591820875,28.035182724930635 3.275942147970765,30.424208204622698 1.5379338460477059,32.84373461749"/><polygon points="-5.0780706013798405,27.31781193105779 -7.4335313210162255,24.43631375875113 -8.699217611495838,22.887965827356375 -6.12156674279211,21.24471874425625 -3.6005241472628526,19.637559317906963 -2.652402819809642,21.124813297226755 -0.8879351463711584,23.892614730142018 -2.9597423725197025,25.58619919490161"/><polygon points="3.275942147970765,30.424208204622698 1.7950228955083725,28.101190055466382 0.47148832377627814,26.025050639993722 2.0878782985221584,24.99460538326693 3.2408618969760368,24.25958073038428 4.2312781833747115,25.81317995917312 5.339467253616085,27.551521410664748 4.480352172562611,28.74751778651724"/><polygon points="3.2408618969760368,24.25958073038428 7.6304702626628025,21.461214500711705 8.610267247594365,22.99815594751922 5.339467253616085,27.551521410664748"/><polygon points="1.4100643549867158,16.443319539004232 3.558457791623672,15.073723178624945 7.6304702626628025,21.461214500711705 5.482076826025847,22.830810861090992"/><polygon points="-1.3008855751566624,23.24484724438913 -2.1302606825376618,21.94386245153092 -3.600524147262852,19.637559317906963 -0.8492230079323977,17.883610547409422 0.621040456792793,20.189913681033378 2.8803278197119067,18.74962267262819 3.709702927092906,20.0506074654864 1.4504155641737921,21.49089847389159"/><polygon points="6.2222192185655985,19.2521860688329 5.1033642368982415,17.497113721461126 3.558457791623672,15.073723178624945 5.193873560775888,14.031149017421033 7.4655935015400985,12.582932266423073 9.010499946814669,15.006322809259256 10.129354928482025,16.761395156631032 7.857634987717814,18.20961190762899"/><polygon points="6.2222192185655985,19.2521860688329 8.341471279393266,17.901167275096768 10.189371589106415,20.7998438573328 8.610267247594365,22.99815594751922"/></g><g fill="#989E7C" stroke="#263014" stroke-width="0.3"><polygon points="21.56350296318523,-1.555360366657403 22.483201991265286,-0.32256564227970963 23.937955277211103,1.6274333480736969 22.327878499041486,2.8285952436718116 20.787616361483817,3.977673482642521 19.429246340482965,1.9557699056290636 20.922384820027908,0.8418472214452724 20.033827850918854,-0.4141803419458274"/><polygon points="22.777858823757548,-2.461303491353575 20.94158246749175,-4.9227085112433215 18.660609219684233,-7.980199821432013 20.462512646133018,-9.423139515493496 22.069658060577,-10.710119649162738 24.400197871042717,-7.586187693627133 26.27637732882806,-5.071295248462738 24.627052770808813,-3.8408534214468215"/><polygon points="20.635334395808975,-5.33321346514059 21.8984612904717,-3.6400767710521835 22.777858823757548,-2.461303491353575 20.330024770494965,-0.6351514522756259 19.484524762755385,-1.8392132254133657 17.74934717307446,-0.5447226575847195 16.569907523062458,-2.3002923553565418 18.270086742645244,-3.5686731692033216"/><polygon points="20.635334395808975,-5.33321346514059 16.569907523062458,-2.3002923553565418 14.820130379290957,-4.904796732861332 18.660609219684233,-7.980199821432012"/><polygon points="12.188623673710776,1.8866082980814758 14.286423032094902,0.4772494192011454 16.474297416155707,-0.9926243209767813 18.387033254701972,1.854440450806862 20.019531907464756,4.284378401777479 17.799259078017887,5.776018302043253 15.670395121757998,7.206247225839975 14.067119735574376,4.756676286586364"/><polygon points="13.787329615503939,4.40334608404324 15.670395121757998,7.206247225839975 13.847187749396099,8.431127712149955 11.9504481069331,4.708110438737203"/><polygon points="14.186747130804283,-4.39759206396505 16.474297416155707,-0.9926243209767813 14.33146054493324,0.4469919885523481 12.612698577917968,-3.137115445739218"/><polygon points="22.95331032360956,8.651242350525017 20.10689896931315,10.563539205365066 17.173120553168346,6.196675256617529 20.019531907464756,4.284378401777479"/><polygon points="19.262440968375323,15.038256349406254 17.441768334243992,12.354046724065011 22.95331032360956,8.651242350525017 24.745627018907356,11.319065904738512"/><polygon points="16.76165384737261,11.35135693910804 17.92451318401342,13.06575532452588 19.262440968375323,15.038256349406254 16.713280356718688,16.767326583650235 15.306162564605582,17.721760556657813 13.968234780243678,15.749259531777438 12.805375443602866,14.0348611463596 14.212493235715971,13.08042717335202"/><polygon points="14.488602685341164,8.000207647555722 16.76165384737261,11.35135693910804 14.297265890665184,13.022926726467556 12.023980377034206,9.65600819845994"/><polygon points="15.306162564605582,17.721760556657813 12.175406968293299,19.8453208719721 12.073009781489093,12.95513768445722"/></g><g fill="#948595" stroke="#22162E" stroke-width="0.3"><polygon points="-16.841616837889223,17.194251917270194 -13.528380885997278,16.72697823661878 -9.60871232293012,16.174177897919037 -9.804414717192667,19.467325749483805 -9.979189524566197,22.408318288581885 -12.9563009165856,23.161517534799533 -15.47280769212461,23.79818535029296 -16.118551488843135,20.682740759999533"/><polygon points="-14.349289938530555,10.91688394621293 -11.043987729997253,10.450729180578247 -9.253578374389196,10.198223418352054 -9.443878960546712,13.400473287688829 -9.55977382971631,15.350673952588306 -10.994359599766684,15.552997053844887 -11.013143829121294,13.621790507984317 -13.910187803800323,14.03036762736643"/><polygon points="-14.349289938530555,10.91688394621293 -14.65225760646131,8.768671001178962 -15.071141412845618,5.798546758266207 -13.137830618752966,6.154044923313327 -12.89014044644186,8.78379887377557 -9.17142039007179,8.81572428969661 -9.253578374389196,10.198223418352054 -12.710992642848769,10.685830915740608"/><polygon points="-14.581695799013051,9.268994316932867 -14.233686448645543,11.736578388059606 -13.64277042225569,15.926508838357188 -17.05239410850686,16.40737631433669 -17.643310134896712,12.217445864039108 -20.48783758051591,12.618616450296164 -20.83584693088342,10.151032379169425 -17.99131948526422,9.74986179291237"/><polygon points="-14.581695799013051,9.268994316932867 -17.58687585256048,9.692822129087162 -20.83584693088342,10.151032379169425 -21.14976574864092,7.925169558221318 -21.32529254471599,6.680584820502766 -18.076321466393047,6.222374570420503 -17.90079467031798,7.466959308139056 -14.89561461677055,7.04313149598476"/><polygon points="-20.892445171121256,9.749718690565365 -20.146041696481987,15.042143513945817 -19.89692155412606,16.808546900593747 -22.572846967308088,17.185939134386278 -26.106916563623212,17.68435751808317 -26.469719000972244,15.93398702048318 -27.556732669493737,10.689599276644817 -23.76412803888096,10.154719071692897"/><polygon points="-20.892445171121256,9.749718690565365 -24.411368955446093,10.246001023761202 -27.556732669493737,10.689599276644817 -28.085758170624402,8.13727179940045 -28.74081355143856,4.976902698108678 -25.378447911750545,4.80561606106718 -21.61674990262945,4.613986514909959 -21.216051167468464,7.45516826810057"/></g><g fill-rule="nonzero" stroke="#99948A" stroke-width="0.3" stroke-linecap="butt"><line x1="27.40470585947527" y1="32.456140172766844" x2="14.520811653462868" y2="22.11771727362217"/><line x1="29.47860189139055" y1="32.056856810328156" x2="14.914415566560027" y2="20.370117149133776"/><line x1="15.922950174415416" y1="19.115955846357274" x2="30.75346449245607" y2="31.016405072350935"/><line x1="17.31648824550492" y1="18.170732862764748" x2="31.743223111276343" y2="29.747177353171843"/><line x1="18.71002631659443" y1="17.225509879172222" x2="32.73298173009662" y2="28.47794963399275"/><line x1="20.10356438768394" y1="16.280286895579696" x2="33.722740348916886" y2="27.208721914813655"/><line x1="21.497102458773444" y1="15.33506391198717" x2="34.71249896773716" y2="25.939494195634566"/><line x1="22.89064052986295" y1="14.389840928394642" x2="35.70225758655744" y2="24.670266476455467"/><line x1="24.284178600952462" y1="13.444617944802115" x2="36.69201620537771" y2="23.401038757276375"/><line x1="25.677716672041967" y1="12.499394961209589" x2="37.68177482419798" y2="22.131811038097283"/><line x1="27.071254743131476" y1="11.554171977617063" x2="38.671533443018255" y2="20.86258331891819"/><line x1="28.464792814220978" y1="10.608948994024539" x2="39.66129206183852" y2="19.593355599739102"/><line x1="29.85833088531049" y1="9.663726010432011" x2="40.651050680658805" y2="18.324127880560006"/><line x1="31.2518689564" y1="8.718503026839485" x2="41.57889810145789" y2="17.00522076033173"/><line x1="32.650426302696616" y1="7.777307660123391" x2="42.13244831714545" y2="15.385966343351745"/><line x1="34.159428453667715" y1="6.924736515205498" x2="41.0752779320532" y2="12.474221435767207"/><line x1="36.65767488424262" y1="6.86596463234078" x2="38.390108674120896" y2="8.25612143416949"/></g><g fill-rule="nonzero" stroke="#99948A" stroke-width="0.3" stroke-linecap="butt"><line x1="25.131326848457704" y1="33.5808444735238" x2="27.65772493950884" y2="36.00119204190262"/><line x1="12.985795711715351" y1="24.046265208271162" x2="26.608130512847826" y2="37.096775746713426"/><line x1="10.813249071561238" y1="24.06603482465269" x2="25.558493966772904" y2="38.19231910015546"/><line x1="9.83736213438593" y1="25.232232002288676" x2="24.507189023301393" y2="39.286264090458985"/><line x1="8.943325466965803" y1="26.476843623822006" x2="23.455884079829886" y2="40.38020908076251"/><line x1="8.049288799545678" y1="27.72145524535535" x2="22.404579136358375" y2="41.47415407106604"/><line x1="7.1552521321255504" y1="28.96606686688868" x2="21.353274192886865" y2="42.568099061369566"/><line x1="6.261215464705423" y1="30.21067848842202" x2="20.301969249415357" y2="43.66204405167309"/><line x1="5.3671787972852965" y1="31.455290109955357" x2="19.250664305943847" y2="44.75598904197662"/><line x1="4.47314212986517" y1="32.69990173148869" x2="18.199359362472336" y2="45.849934032280146"/><line x1="3.5791054624450442" y1="33.94451335302203" x2="17.14805441900083" y2="46.94387902258367"/><line x1="2.8027215802419576" y1="35.30183905299839" x2="16.096749475529318" y2="48.0378240128872"/><line x1="2.185477455591995" y1="36.81162430659398" x2="15.045444532057804" y2="49.131769003190726"/><line x1="1.7546888456686265" y1="38.50003823841642" x2="13.994139588586298" y2="50.22571399349425"/><line x1="1.4907566482749939" y1="40.34830445708363" x2="12.942834645114791" y2="51.31965898379778"/><line x1="1.2268244508813613" y1="42.196570675750834" x2="11.891529701643279" y2="52.41360397410131"/><line x1="0.9628922534877287" y1="44.04483689441805" x2="10.840224758171766" y2="53.50754896440483"/><line x1="0.6989600560940961" y1="45.89310311308525" x2="9.788919814700265" y2="54.60149395470836"/><line x1="0.43502785870046345" y1="47.74136933175245" x2="8.73761487122875" y2="55.69543894501189"/><line x1="0.17109566130682996" y1="49.589635550419665" x2="7.686309927757243" y2="56.78938393531542"/><line x1="0.4108570455805056" y1="51.92045182321918" x2="6.361299409026389" y2="57.62111267954227"/><line x1="3.927900059032899" y1="57.39097939099321" x2="4.975048042596216" y2="58.39417128095216"/></g><g fill-rule="nonzero" stroke="#99948A" stroke-width="0.3" stroke-linecap="butt"><line x1="-33.26056968186153" y1="33.360493714328186" x2="-36.27311541283182" y2="34.25579768849209"/><line x1="-31.068088671161988" y1="31.2067149053897" x2="-41.37923337938295" y2="34.27110285493827"/><line x1="-28.875607660462446" y1="29.05293609645122" x2="-44.07673025639381" y2="33.5705855156707"/><line x1="-26.9646625826612" y1="26.98282746619334" x2="-44.979437864386355" y2="32.33667147180895"/><line x1="-45.57485403764597" y1="31.011432924582966" x2="-26.769153788370943" y2="25.42253248167145"/><line x1="-45.98506222632482" y1="29.631152077770494" x2="-26.716509341248518" y2="23.90469561370884"/><line x1="-46.395270415003665" y1="28.250871230958026" x2="-27.009804419174543" y2="22.48966914573856"/><line x1="-46.805478603682516" y1="26.870590384145558" x2="-27.303099497100572" y2="21.074642677768285"/><line x1="-47.21568679236137" y1="25.490309537333086" x2="-27.5963945750266" y2="19.65961620979801"/><line x1="-47.62589498104021" y1="24.11002869052062" x2="-27.88968965295263" y2="18.24458974182773"/><line x1="-48.03610316971906" y1="22.729747843708147" x2="-28.18298473087866" y2="16.829563273857453"/><line x1="-48.446311358397914" y1="21.349466996895682" x2="-28.476279808804684" y2="15.414536805887176"/><line x1="-48.856519547076765" y1="19.96918615008321" x2="-28.769574886730712" y2="13.999510337916897"/><line x1="-49.26672773575561" y1="18.588905303270742" x2="-29.06286996465674" y2="12.584483869946622"/><line x1="-49.67693592443446" y1="17.20862445645827" x2="-29.35616504258277" y2="11.169457401976342"/><line x1="-50.08714411311331" y1="15.828343609645803" x2="-29.6494601205088" y2="9.754430934006066"/><line x1="-50.497352301792155" y1="14.448062762833334" x2="-29.942755198434828" y2="8.33940446603579"/><line x1="-50.907560490471006" y1="13.067781916020863" x2="-30.444073124065056" y2="6.98620068854015"/><line x1="-50.831529810716575" y1="11.54299485082111" x2="-31.243686703195774" y2="5.721647941735684"/><line x1="-50.512396833353066" y1="9.945959769287452" x2="-37.35211912262337" y2="6.034832773143225"/></g><g fill-rule="nonzero" stroke="#99948A" stroke-width="0.3" stroke-linecap="butt"><line x1="-16.060545532716386" y1="56.685314887058034" x2="-22.653774401573195" y2="47.890086768871925"/><line x1="-13.924737521325895" y1="56.765679110304625" x2="-21.8411856654207" y2="46.20530441407823"/><line x1="-12.411287105143215" y1="56.01583144043859" x2="-20.690537354269647" y2="44.971486395392105"/><line x1="-10.897836688960538" y1="55.265983770572554" x2="-19.36171349501637" y2="43.97535079632349"/><line x1="-9.384386272777862" y1="54.51613610070652" x2="-18.032889635763098" y2="42.97921519725488"/><line x1="-7.870935856595185" y1="53.76628843084048" x2="-16.704065776509825" y2="41.98307959818627"/><line x1="-6.357485440412507" y1="53.01644076097445" x2="-15.375241917256547" y2="40.98694399911766"/><line x1="-4.844035024229827" y1="52.266593091108405" x2="-14.046418058003274" y2="39.99080840004905"/><line x1="-3.556232405374864" y1="51.21573602336785" x2="-12.71759419875" y2="38.99467280098044"/><line x1="-2.5626779759578113" y1="49.772358082934105" x2="-11.388770339496725" y2="37.99853720191183"/><line x1="-2.162268983911945" y1="47.53773665122968" x2="-10.059946480243452" y2="37.00240160284322"/><line x1="-1.830155548707837" y1="45.21201038851913" x2="-8.731122620990174" y2="36.00626600377461"/><line x1="-1.4980421135037298" y1="42.8862841258086" x2="-7.4022987617369" y2="35.010130404706"/><line x1="-1.165928678299621" y1="40.560557863098055" x2="-6.0734749024836185" y2="34.01399480563738"/><line x1="-0.8338152430955121" y1="38.23483160038752" x2="-4.665207300341029" y2="33.12383548240754"/><line x1="-0.7083541673010223" y1="35.633435452963255" x2="-3.1592765817939084" y2="32.36395669464767"/><line x1="-6.064578107057624" y1="31.132826230277654" x2="-23.42282168165851" y2="44.14520875303022"/><line x1="-25.640293428604448" y1="44.40628838341261" x2="-5.480367025541085" y2="29.29366060746372"/><line x1="-26.312787492413676" y1="43.50919549964112" x2="-6.190577385281571" y2="28.424841256546507"/><line x1="-26.9852815562229" y1="42.61210261586964" x2="-6.900787745022061" y2="27.556021905629294"/><line x1="-27.65777562003213" y1="41.71500973209815" x2="-7.610998104762555" y2="26.687202554712087"/><line x1="-28.330269683841358" y1="40.81791684832667" x2="-8.32120846450304" y2="25.818383203794866"/><line x1="-29.00276374765058" y1="39.92082396455519" x2="-9.03141882424353" y2="24.949563852877656"/><line x1="-29.67525781145981" y1="39.0237310807837" x2="-10.235755427594558" y2="24.451159842012437"/><line x1="-30.347751875269037" y1="38.12663819701221" x2="-12.190072567305833" y2="24.514969028686302"/><line x1="-31.020245939078265" y1="37.22954531324073" x2="-15.011468859864742" y2="25.228772874431954"/><line x1="-31.665502633728817" y1="36.31203428837779" x2="-17.832865152423654" y2="25.942576720177605"/><line x1="-31.65048220268988" y1="34.89955506621019" x2="-20.654261444982563" y2="26.656380565923257"/><line x1="-26.992052814980028" y1="30.006204447457964" x2="-23.840798767796322" y2="27.643907656766146"/></g><g fill-rule="nonzero" stroke="#99948A" stroke-width="0.3" stroke-linecap="butt"><line x1="69.20000031768217" y1="19.617583000798145" x2="59.09288886919401" y2="17.399938124583773"/><line x1="70.42206464826073" y1="18.717687919219557" x2="58.893213515459145" y2="16.188093012346332"/><line x1="70.74202600870353" y1="17.619858537644838" x2="58.69353816172428" y2="14.97624790010889"/><line x1="71.02596266297141" y1="16.514124820051556" x2="58.87399226578001" y2="13.847808630249249"/><line x1="71.26687732028587" y1="15.398951460717456" x2="59.11850408133659" y2="12.733424538905831"/><line x1="71.50779197760033" y1="14.283778101383357" x2="59.36301589689317" y2="11.619040447562416"/><line x1="71.7487066349148" y1="13.168604742049254" x2="59.60752771244975" y2="10.504656356218998"/><line x1="71.98962129222926" y1="12.053431382715154" x2="59.85203952800633" y2="9.39027226487558"/><line x1="72.23053594954372" y1="10.938258023381055" x2="60.09655134356291" y2="8.275888173532165"/><line x1="72.47145060685818" y1="9.823084664046952" x2="60.34106315911949" y2="7.161504082188748"/><line x1="72.71236526417263" y1="8.707911304712852" x2="60.58557497467607" y2="6.047119990845333"/><line x1="72.9532799214871" y1="7.592737945378751" x2="60.83008679023265" y2="4.932735899501916"/><line x1="73.19419457880156" y1="6.477564586044651" x2="61.074598605789234" y2="3.818351808158499"/><line x1="73.43510923611602" y1="5.36239122671055" x2="61.31911042134581" y2="2.7039677168150824"/><line x1="73.67602389343048" y1="4.247217867376451" x2="61.56362223690239" y2="1.589583625471667"/><line x1="73.91693855074493" y1="3.132044508042351" x2="61.80813405245897" y2="0.4751995341282501"/><line x1="74.1578532080594" y1="2.0168711487082467" x2="62.05264586801555" y2="-0.6391845572151669"/><line x1="74.18624124968359" y1="0.8550664088113842" x2="62.29715768357213" y2="-1.7535686485585837"/><line x1="73.90253752147215" y1="-0.3752157311628439" x2="62.541669499128716" y2="-2.867952739901999"/><line x1="73.44488468621581" y1="-1.6436647942907574" x2="62.786181314685294" y2="-3.9823368312454126"/><line x1="71.4728505869023" y1="-3.2443907762977857" x2="63.03069313024187" y2="-5.09672092258883"/><line x1="69.50081648758879" y1="-4.8451167583048145" x2="63.27520494579845" y2="-6.211105013932246"/><line x1="67.52878238827527" y1="-6.445842740311839" x2="63.90864018539622" y2="-7.240153740868088"/><line x1="61.866467741906085" y1="-10.52247406153808" x2="56.282141445418056" y2="14.928583882272854"/><line x1="54.42659272598526" y1="16.683222492755252" x2="60.71498752428135" y2="-11.97668953381201"/><line x1="53.02358148872826" y1="16.375381751369186" x2="59.46674539086585" y2="-12.989904069752143"/><line x1="51.62057025147127" y1="16.067541009983124" x2="58.01462147891421" y2="-13.073909479342632"/><line x1="50.217559014214274" y1="15.759700268597058" x2="56.48578986573696" y2="-12.808312798192654"/><line x1="48.814547776957276" y1="15.451859527210994" x2="54.956958252559716" y2="-12.54271611704267"/><line x1="47.41153653970028" y1="15.144018785824928" x2="53.42812663938247" y2="-12.27711943589269"/><line x1="46.00852530244328" y1="14.836178044438864" x2="51.89929502620522" y2="-12.01152275474271"/><line x1="44.71304008414569" y1="14.038278020391576" x2="50.080519324997795" y2="-10.42448040707383"/><line x1="43.54989581620466" y1="12.637222482673458" x2="47.89561086628367" y2="-7.168755834963539"/><line x1="42.45628168520817" y1="10.919277234314771" x2="45.624345129972" y2="-3.5194503796253365"/><line x1="41.362667554211676" y1="9.201331985956084" x2="43.35307939366034" y2="0.1298550757128698"/><line x1="40.269053423215176" y1="7.48338673759739" x2="41.08181365734866" y2="3.7791605310510903"/></g><g fill-rule="nonzero" stroke="#99948A" stroke-width="0.3" stroke-linecap="butt"><line x1="66.61950714881142" y1="22.453904651266363" x2="62.02170024948518" y2="31.344133919603614"/><line x1="65.44786470915906" y1="21.375707859078044" x2="60.29452070380878" y2="31.34011278284486"/><line x1="64.00012412602831" y1="20.831369023483088" x2="58.802726527565895" y2="30.88095511110397"/><line x1="62.44709585430083" y1="20.490612398114354" x2="57.43838749347425" y2="30.175352675595587"/><line x1="60.89406758257335" y1="20.149855772745617" x2="56.07404845938261" y2="29.469750240087205"/><line x1="59.34103931084587" y1="19.809099147376887" x2="54.70970942529096" y2="28.76414780457882"/><line x1="57.78801103911839" y1="19.46834252200815" x2="53.34537039119932" y2="28.05854536907044"/><line x1="56.23498276739091" y1="19.127585896639417" x2="51.98103135710767" y2="27.352942933562055"/><line x1="54.68195449566343" y1="18.786829271270683" x2="50.616692323016025" y2="26.647340498053673"/><line x1="53.12892622393595" y1="18.44607264590195" x2="49.25235328892438" y2="25.94173806254529"/><line x1="51.57589795220847" y1="18.105316020533216" x2="47.88801425483274" y2="25.236135627036912"/><line x1="50.02286968048099" y1="17.764559395164483" x2="46.52367522074109" y2="24.530533191528527"/><line x1="48.4698414087535" y1="17.42380276979575" x2="45.15933618664945" y2="23.824930756020144"/><line x1="46.916813137026026" y1="17.083046144427016" x2="43.7949971525578" y2="23.119328320511762"/><line x1="45.19783519608428" y1="17.063166545567547" x2="42.483855110390536" y2="22.310865224486527"/><line x1="42.08620081744961" y1="19.736100127907612" x2="41.31221267073818" y2="21.232668432298208"/><line x1="29.980740038818837" y1="35.74752218350382" x2="39.10476801065693" y2="24.04722577565293"/><line x1="31.104516569731622" y1="36.79610111642643" x2="41.10061254332328" y2="23.97749883097274"/><line x1="32.233478682290645" y1="37.838030262380464" x2="42.4841168259138" y2="24.69301305942996"/><line x1="33.36244079484967" y1="38.87995940833449" x2="43.86762110850432" y2="25.408527287887175"/><line x1="34.49140290740869" y1="39.92188855428853" x2="45.251125391094845" y2="26.124041516344395"/><line x1="35.62036501996771" y1="40.96381770024256" x2="46.09620357835103" y2="27.530012298483616"/><line x1="36.74932713252673" y1="42.005746846196594" x2="43.77788127453296" y2="32.99260407263996"/><line x1="39.95479877215806" y1="40.384841437558876" x2="38.57557881574981" y2="42.15349913473039"/><line x1="59.69348149319121" y1="33.93101716838979" x2="49.55979168258922" y2="28.690123202611094"/><line x1="59.89077813061151" y1="35.91112768168419" x2="47.76375177407189" y2="29.63932930984789"/><line x1="59.208662335510404" y1="37.43642781522824" x2="46.997427500614876" y2="31.121078899184326"/><line x1="58.44233806205338" y1="38.91817740456468" x2="46.23110322715785" y2="32.60282848852076"/><line x1="57.676013788596364" y1="40.39992699390111" x2="45.464778953700836" y2="34.08457807785719"/><line x1="56.90968951513934" y1="41.88167658323754" x2="44.69845468024381" y2="35.566327667193626"/><line x1="56.143365241682325" y1="43.36342617257397" x2="43.9321304067868" y2="37.04807725653006"/><line x1="55.37704096822531" y1="44.845175761910404" x2="43.165806133329774" y2="38.52982684586649"/><line x1="54.610716694768286" y1="46.32692535124684" x2="42.39948185987275" y2="40.01157643520292"/><line x1="53.84439242131127" y1="47.80867494058327" x2="41.633157586415734" y2="41.49332602453935"/><line x1="53.078068147854246" y1="49.290424529919704" x2="40.86683331295872" y2="42.97507561387578"/><line x1="52.31174387439722" y1="50.77217411925614" x2="40.77377229744094" y2="44.80502032383083"/><line x1="51.45198116786828" y1="52.205599659878736" x2="43.147622928049465" y2="47.910790779583465"/><line x1="49.70231556844895" y1="53.17878941386822" x2="47.7764573812392" y2="52.18278314754917"/></g><g fill-rule="nonzero" stroke="#99948A" stroke-width="0.3" stroke-linecap="butt"><line x1="28.237896947377227" y1="38.44133000174063" x2="21.574996424216923" y2="45.66078660261158"/><line x1="29.87829623778792" y1="38.94572021114141" x2="22.210328319524677" y2="47.25419808955868"/><line x1="31.29450313080726" y1="39.693029743378546" x2="23.130370832146927" y2="48.539116910531796"/><line x1="32.43174802280318" y1="40.742603139931255" x2="24.26761572414285" y2="49.588690307084505"/><line x1="33.5689929147991" y1="41.792176536483964" x2="25.404860616138766" y2="50.63826370363721"/><line x1="34.706237806795016" y1="42.841749933036674" x2="26.542105508134682" y2="51.687837100189924"/><line x1="35.843482698790936" y1="43.89132332958938" x2="27.67935040013061" y2="52.737410496742626"/><line x1="36.980727590786856" y1="44.94089672614209" x2="28.816595292126525" y2="53.78698389329534"/><line x1="38.117972482782776" y1="45.9904701226948" x2="29.953840184122445" y2="54.836557289848045"/><line x1="39.255217374778695" y1="47.04004351924751" x2="31.091085076118365" y2="55.88613068640076"/><line x1="40.392462266774615" y1="48.08961691580022" x2="32.22832996811428" y2="56.935704082953464"/><line x1="41.529707158770535" y1="49.13919031235293" x2="33.36557486011021" y2="57.98527747950617"/><line x1="42.666952050766454" y1="50.18876370890564" x2="34.50281975210613" y2="59.03485087605888"/><line x1="43.80419694276237" y1="51.23833710545834" x2="35.64006464410204" y2="60.084424272611585"/><line x1="44.941441834758294" y1="52.28791050201106" x2="36.77730953609797" y2="61.1339976691643"/><line x1="45.78228441862715" y1="53.65864486929763" x2="38.13027475502159" y2="61.949831490472455"/><line x1="46.41761631393491" y1="55.25205635624473" x2="39.77067404543228" y2="62.45422169987324"/><line x1="26.277612565307265" y1="56.71984760874041" x2="11.787369836055388" y2="72.42046900572637"/><line x1="9.911290872350918" y1="72.06014970391433" x2="26.358061929503023" y2="54.23956999409576"/><line x1="9.322339077025974" y1="70.30518872921259" x2="25.165348017909437" y2="53.138803747425776"/><line x1="8.733387281701035" y1="68.55022775451084" x2="23.972634106315837" y2="52.03803750075579"/><line x1="8.14443548637609" y1="66.7952667798091" x2="22.779920194722248" y2="50.937271254085815"/><line x1="7.555483691051148" y1="65.04030580510735" x2="21.587206283128655" y2="49.83650500741582"/><line x1="6.966531895726204" y1="63.285344830405606" x2="20.39449237153506" y2="48.735738760745846"/><line x1="7.33005009881517" y1="60.49835346694469" x2="17.84642289452585" y2="49.10354174293564"/><line x1="37.07232465609478" y1="64.53609633632144" x2="29.809132333816777" y2="57.83283172800149"/><line x1="36.78338056550762" y1="66.32074805407197" x2="28.27510870849488" y2="58.46838850107717"/><line x1="35.789102324724034" y1="67.45444062930481" x2="26.992764028352088" y2="59.33622200468962"/><line x1="34.79482408394044" y1="68.58813320453767" x2="25.970395392904422" y2="60.44398970556551"/><line x1="33.800545843156854" y1="69.72182577977053" x2="24.948026757456756" y2="61.551757406441396"/><line x1="32.806267602373275" y1="70.85551835500337" x2="23.92565812200909" y2="62.65952510731729"/><line x1="31.81198936158968" y1="71.98921093023621" x2="22.903289486561423" y2="63.76729280819318"/><line x1="30.81771112080609" y1="73.12290350546907" x2="21.880920851113757" y2="64.87506050906907"/><line x1="29.8234328800225" y1="74.25659608070191" x2="20.858552215666087" y2="65.98282820994497"/><line x1="28.829154639238915" y1="75.39028865593475" x2="19.836183580218417" y2="67.09059591082087"/><line x1="27.352587417213808" y1="76.07887245316887" x2="18.813814944770748" y2="68.19836361169676"/><line x1="25.664014999122156" y1="76.57179477477142" x2="17.79144630932308" y2="69.30613131257266"/><line x1="23.30099401345477" y1="76.44226253196769" x2="16.76907767387542" y2="70.41389901344854"/><line x1="20.937973027787372" y1="76.31273028916395" x2="15.74670903842775" y2="71.52166671432444"/><line x1="18.574952042119975" y1="76.18319804636022" x2="14.724340402980081" y2="72.62943441520034"/><line x1="16.211931056452574" y1="76.05366580355648" x2="13.701971767532413" y2="73.73720211607623"/></g><g fill-rule="nonzero" stroke="#99948A" stroke-width="0.3" stroke-linecap="butt"><line x1="-50.88404669635686" y1="46.91197600368834" x2="-41.64871130935417" y2="54.803429818801774"/><line x1="-52.665804421566456" y1="47.35877148474849" x2="-41.707770713824" y2="56.72224484932232"/><line x1="-53.53403204329223" y1="48.58616456386707" x2="-42.68036022177764" y2="57.860462281784436"/><line x1="-54.40225966501801" y1="49.81355764298566" x2="-43.652949729731276" y2="58.99867971424655"/><line x1="-55.27048728674379" y1="51.040950722104235" x2="-44.62553923768492" y2="60.13689714670867"/><line x1="-56.13871490846957" y1="52.26834380122282" x2="-45.59812874563856" y2="61.27511457917079"/><line x1="-57.00694253019534" y1="53.4957368803414" x2="-46.570718253592204" y2="62.4133320116329"/><line x1="-57.87517015192112" y1="54.72312995945998" x2="-47.54330776154585" y2="63.551549444095016"/><line x1="-58.7433977736469" y1="55.95052303857857" x2="-48.51589726949948" y2="64.68976687655713"/><line x1="-59.61162539537267" y1="57.17791611769715" x2="-49.488486777453126" y2="65.82798430901924"/><line x1="-60.47985301709845" y1="58.40530919681572" x2="-50.46107628540677" y2="66.96620174148137"/><line x1="-60.53261896360491" y1="60.329501891576285" x2="-52.24912746857973" y2="67.40761955830149"/><line x1="-25.735536997753115" y1="68.4009955670453" x2="-38.10334934046213" y2="57.83288777164947"/><line x1="-27.06733037755674" y1="69.42920678632498" x2="-40.28452123065249" y2="58.135317954790494"/><line x1="-28.805893321228332" y1="70.10983959159542" x2="-41.354369689401494" y2="59.38735713049882"/><line x1="-30.582760176410495" y1="70.75774228626808" x2="-42.4242181481505" y2="60.63939630620715"/><line x1="-32.359627031592666" y1="71.40564498094076" x2="-43.49406660689951" y2="61.89143548191548"/><line x1="-34.13649388677484" y1="72.05354767561343" x2="-44.563915065648516" y2="63.14347465762381"/><line x1="-35.913360741957014" y1="72.70145037028611" x2="-45.63376352439752" y2="64.39551383333215"/><line x1="-37.690227597139184" y1="73.34935306495878" x2="-46.70361198314653" y2="65.64755300904048"/><line x1="-39.467094452321355" y1="73.99725575963144" x2="-47.77346044189554" y2="66.8995921847488"/><line x1="-41.243961307503525" y1="74.64515845430412" x2="-48.843308900644544" y2="68.15163136045713"/><line x1="-43.56717870037366" y1="74.82621291289706" x2="-49.35567993973676" y2="69.88002652388428"/><line x1="-18.102655714412485" y1="59.31238148309809" x2="-23.671739677703947" y2="65.82985714783217"/><line x1="-18.65864463973971" y1="57.62779704947933" x2="-25.121208644023273" y2="65.19090866843413"/><line x1="-19.362036196704175" y1="56.11571729902673" x2="-26.570677610342607" y2="64.55196018903608"/><line x1="-20.294544096985323" y1="54.87177144668056" x2="-27.778399812573124" y2="63.630096482939635"/><line x1="-21.22705199726647" y1="53.627825594334396" x2="-28.931737569191434" y2="62.644586887653155"/><line x1="-22.159559897547616" y1="52.383879741988224" x2="-30.08507532580974" y2="61.659077292366675"/><line x1="-23.09206779782876" y1="51.139933889642066" x2="-31.238413082428046" y2="60.673567697080195"/><line x1="-24.024575698109913" y1="49.89598803729589" x2="-32.39175083904636" y2="59.68805810179371"/><line x1="-24.95708359839106" y1="48.65204218494973" x2="-33.545088595664666" y2="58.70254850650723"/><line x1="-25.88959149867221" y1="47.40809633260356" x2="-34.698426352282965" y2="57.71703891122075"/><line x1="-26.822099398953355" y1="46.1641504802574" x2="-35.85176410890128" y2="56.73152931593427"/><line x1="-27.7546072992345" y1="44.92020462791123" x2="-37.005101865519585" y2="55.746019720647794"/><line x1="-28.68711519951565" y1="43.67625877556507" x2="-38.15843962213789" y2="54.76051012536131"/><line x1="-29.619623099796797" y1="42.432312923218895" x2="-39.3117773787562" y2="53.77500053007483"/><line x1="-30.552131000077942" y1="41.18836707087273" x2="-40.4651151353745" y2="52.78949093478835"/><line x1="-31.484638900359087" y1="39.944421218526564" x2="-41.61845289199281" y2="51.80398133950187"/><line x1="-32.41714680064024" y1="38.7004753661804" x2="-42.771790648611116" y2="50.81847174421539"/><line x1="-33.553652704227034" y1="37.69526752370491" x2="-43.92512840522943" y2="49.8329621489289"/><line x1="-34.72677015580969" y1="36.73290602268953" x2="-45.078466161847736" y2="48.84745255364242"/><line x1="-36.314643107874375" y1="36.25593114881502" x2="-46.23180391846604" y2="47.86194295835594"/><line x1="-38.315207786451595" y1="36.261927676038354" x2="-47.38514167508435" y2="46.87643336306947"/><line x1="-40.31577246502881" y1="36.26792420326169" x2="-48.3744494883556" y2="45.6989602112809"/><line x1="-42.31633714360601" y1="36.273920730485024" x2="-49.25749879515934" y2="44.397133173891426"/><line x1="-47.29081802686067" y1="39.76027895106809" x2="-44.71122945829484" y2="36.7413972406337"/></g><g fill-rule="nonzero" stroke="#99948A" stroke-width="0.3" stroke-linecap="butt"><line x1="-63.40474979927509" y1="55.739188866793285" x2="-73.25482816349606" y2="38.73982383707437"/><line x1="-61.711533804518034" y1="55.623257665703065" x2="-72.58566158671793" y2="36.85657777604072"/><line x1="-60.40618491131648" y1="54.83794149136117" x2="-71.69728925805812" y2="35.351639222324586"/><line x1="-59.43847879520326" y1="53.46991799174343" x2="-70.37938319173327" y2="34.58799434457254"/><line x1="-58.47077267909005" y1="52.10189449212569" x2="-69.06147712540842" y2="33.82434946682051"/><line x1="-57.50306656297682" y1="50.733870992507946" x2="-67.74357105908356" y2="33.060704589068465"/><line x1="-56.535360446863606" y1="49.3658474928902" x2="-66.4256649927587" y2="32.297059711316415"/><line x1="-55.567654330750386" y1="47.99782399327246" x2="-65.10775892643385" y2="31.533414833564375"/><line x1="-54.599948214637166" y1="46.62980049365471" x2="-63.789852860108994" y2="30.769769955812336"/><line x1="-53.632242098523946" y1="45.26177699403698" x2="-62.47194679378414" y2="30.006125078060293"/><line x1="-52.664535982410726" y1="43.89375349441924" x2="-61.15404072745928" y2="29.24248020030825"/><line x1="-51.69682986629751" y1="42.525729994801495" x2="-59.83613466113442" y2="28.478835322556208"/><line x1="-50.72912375018429" y1="41.15770649518375" x2="-58.51822859480957" y2="27.715190444804165"/><line x1="-49.76141763407107" y1="39.78968299556601" x2="-57.20032252848472" y2="26.95154556705213"/><line x1="-48.79371151795785" y1="38.421659495948276" x2="-55.88241646215986" y2="26.187900689300083"/><line x1="-47.896416268788016" y1="36.932120208844275" x2="-54.564510395835" y2="25.42425581154804"/><line x1="-47.2272496920099" y1="35.04887414781062" x2="-53.24660432951015" y2="24.660610933796"/><line x1="-47.50863320515094" y1="31.52515911180288" x2="-51.75403394746082" y2="24.19840350160292"/><line x1="-49.36224123764051" y1="25.288083072479505" x2="-50.06081795270376" y2="24.082472300512695"/><line x1="-82.48711869047858" y1="20.027942367799998" x2="-54.30656396145653" y2="11.346952481439741"/><line x1="-83.39464244934878" y1="21.674483972021626" x2="-53.20044120520358" y2="12.373192420183996"/><line x1="-82.80332572886348" y1="22.859309362078296" x2="-52.82825908987008" y2="13.62552199209111"/><line x1="-82.13121432300255" y1="24.019246035310125" x2="-52.456076974536586" y2="14.877851563998226"/><line x1="-81.45910291714165" y1="25.179182708541965" x2="-52.083894859203085" y2="16.130181135905342"/><line x1="-80.78699151128072" y1="26.3391193817738" x2="-51.71171274386959" y2="17.382510707812457"/><line x1="-80.1148801054198" y1="27.499056055005628" x2="-51.33953062853609" y2="18.634840279719572"/><line x1="-79.44276869955888" y1="28.65899272823746" x2="-51.018712579100125" y2="19.902992497449894"/><line x1="-78.77065729369797" y1="29.818929401469298" x2="-52.709607771965075" y2="21.79085083802265"/><line x1="-78.09854588783705" y1="30.97886607470113" x2="-56.83603632155628" y2="24.428972636534347"/><line x1="-77.42643448197613" y1="32.138802747932964" x2="-61.87301079565394" y2="27.347587137823346"/><line x1="-76.75432307611521" y1="33.298739421164804" x2="-66.90998526975162" y2="30.266201639112346"/><line x1="-71.94695974384926" y1="33.184816140401345" x2="-74.06632155086824" y2="33.837683289014365"/></g><g fill-rule="nonzero" stroke="#99948A" stroke-width="0.3" stroke-linecap="butt"><line x1="-0.27748115956504193" y1="92.25046710184564" x2="-5.831234725442514" y2="87.07393277498798"/><line x1="0.8279089548144922" y1="91.51763873535107" x2="-5.383354312691771" y2="85.72825374806163"/><line x1="1.5199059710606626" y1="90.39949554752175" x2="-4.647179976331843" y2="84.65128729076686"/><line x1="2.137750498966518" y1="89.21223641913755" x2="-3.767786891088667" y2="83.7078119509748"/><line x1="2.7555950268723675" y1="88.02497729075336" x2="-2.8883938058454905" y2="82.76433661118274"/><line x1="3.373439554778221" y1="86.83771816236916" x2="-2.0090007206023213" y2="81.8208612713907"/><line x1="3.991284082684075" y1="85.65045903398494" x2="-1.1296076353591449" y2="80.87738593159864"/><line x1="4.609128610589926" y1="84.46319990560076" x2="-0.2502145501159676" y2="79.93391059180658"/><line x1="5.226973138495779" y1="83.27594077721656" x2="0.6291785351272008" y2="78.99043525201454"/><line x1="5.844817666401633" y1="82.08868164883235" x2="1.508571620370379" y2="78.04695991222248"/><line x1="6.462662194307485" y1="80.90142252044815" x2="2.3879647056135553" y2="77.10348457243042"/><line x1="7.080506722213338" y1="79.71416339206395" x2="3.2673577908567264" y2="76.16000923263837"/><line x1="7.69835125011919" y1="78.52690426367975" x2="4.146750876099903" y2="75.21653389284631"/><line x1="8.18526459729908" y1="77.21760699596432" x2="5.026143961343077" y2="74.27305855305426"/><line x1="8.363713642672016" y1="75.62079678263952" x2="5.939909713538659" y2="73.36162123732542"/><line x1="5.443885295987448" y1="70.45158885940404" x2="-7.0365965234981855" y2="83.84153588423388"/><line x1="5.7791459756688255" y1="67.91929145050284" x2="-9.074878723081774" y2="83.85574380054373"/><line x1="-10.460236801215126" y1="83.16944836098133" x2="5.243054161414582" y2="66.3218428641475"/><line x1="-11.54385807944003" y1="82.15942825880953" x2="4.70696234716033" y2="64.72439427779216"/><line x1="-12.627479357664933" y1="81.14940815663772" x2="4.170870532906079" y2="63.12694569143683"/><line x1="-13.711100635889837" y1="80.13938805446593" x2="3.5222557186423806" y2="61.65021976875697"/><line x1="-14.794721914114733" y1="79.12936795229412" x2="2.749718741091776" y2="60.306446341470604"/><line x1="-15.878343192339639" y1="78.11934785012232" x2="1.9037941607440843" y2="59.04140834507106"/><line x1="-16.96196447056454" y1="77.10932774795052" x2="1.057869580396396" y2="57.77637034867152"/><line x1="-18.045585748789435" y1="76.09930764577871" x2="0.2119450000487042" y2="56.51133235227197"/><line x1="-19.12920702701434" y1="75.0892875436069" x2="-0.6339795802989805" y2="55.24629435587243"/><line x1="-20.212828305239245" y1="74.0792674414351" x2="-1.4799041606466723" y2="53.98125635947288"/><line x1="-21.296449583464145" y1="73.0692473392633" x2="-3.3227481121076003" y2="53.78578424685129"/><line x1="-22.38007086168905" y1="72.05922723709149" x2="-7.014549872144974" y2="55.57400534944922"/><line x1="-23.1376172005217" y1="70.69937078823554" x2="-10.77719008826986" y2="57.43822697735152"/><line x1="-23.61203178245718" y1="69.03575048789261" x2="-14.928308209028339" y2="59.719235283732786"/></g><g id="labels" style="font: bold italic 1px &quot;Archivo Narrow&quot;, sans-serif" fill="#1A1917"><text text-anchor="middle" stroke="#CCC5B8" stroke-width="0.5142716559072148" x="1.905727958395627" y="-0.8880879791436708">Merchant</text><text text-anchor="middle" x="1.905727958395627" y="-0.8880879791436708">Merchant</text><text text-anchor="middle" stroke="#CCC5B8" stroke-width="0.5142716559072148" x="-10.557105565879617" y="13.483598545561762">Craftsmen</text><text text-anchor="middle" x="-10.557105565879617" y="13.483598545561762">Craftsmen</text><text text-anchor="middle" stroke="#CCC5B8" stroke-width="0.5142716559072148" x="-13.160082183433866" y="-6.484273278941842">Gate</text><text text-anchor="middle" x="-13.160082183433866" y="-6.484273278941842">Gate</text><text text-anchor="middle" stroke="#CCC5B8" stroke-width="0.5142716559072148" x="14.16000398940212" y="-5.489063708145559">Craftsmen</text><text text-anchor="middle" x="14.16000398940212" y="-5.489063708145559">Craftsmen</text></g></g></svg>