<svg width="109.01973559291893" height="94.64170439605012" xmlns="http://www.w3.org/2000/svg"><rect x="0" y="0" width="109.01973559291893" height="94.64170439605012" id="background" fill="#CCC5B8"/><g id="map" transform="translate(54.50986779645947 47.32085219802506)"><g fill="none"><path d="M 21.045122159895293,13.39345817524271 L 41.327675797479756,27.651081731959778 C 45.91284439970656,30.8742265608973 52.258292885037655,35.07635592065626 60.203058232278366,35.24938511467197 C 66.75355090851195,35.392048417946015 71.37290844581011,29.43654907341484 76.47144983780052,28.416478648179446 C 79.30394948075946,27.849777528558985 83.28977049546505,28.198505528113696 87.55702921913851,29.776647978463266 C 93.61418769077358,32.01674156818424 102.26478485457491,41.0702917302055 117.68115364516015,43.656891089996776 C 142.2636178666976,47.78140232096526 142.2636178666976,47.78140232096526 192.441851800567,47.37450248143966" stroke="#67635C" stroke-width="2.3" stroke-linejoin="round" stroke-linecap="butt"/><path d="M 21.045122159895293,13.39345817524271 L 41.327675797479756,27.651081731959778 C 45.91284439970656,30.8742265608973 52.258292885037655,35.07635592065626 60.203058232278366,35.24938511467197 C 66.75355090851195,35.392048417946015 71.37290844581011,29.43654907341484 76.47144983780052,28.416478648179446 C 79.30394948075946,27.849777528558985 83.28977049546505,28.198505528113696 87.55702921913851,29.776647978463266 C 93.61418769077358,32.01674156818424 102.26478485457491,41.0702917302055 117.68115364516015,43.656891089996776 C 142.2636178666976,47.78140232096526 142.2636178666976,47.78140232096526 192.441851800567,47.37450248143966" stroke="#CCC5B8" stroke-width="1.7" stroke-linejoin="round" stroke-linecap="round"/></g><g fill="none"><polyline points="-52.513386759416846,99.56835697203894 -38.598027096820026,74.78260094121096 -40.38223139450739,53.39404883035229 -38.334947846107816,41.500085085035664 -42.0383355827728,34.81619076038551 -55.38716228559285,23.421812497800566 -49.36073472900762,1.1780629837110257 -52.171530072030244,-12.766370125238597 -47.28181520356877,-31.323332102313408 -45.87145130204076,-43.0103846445668 -35.54410997466174,-59.7069570620899 -35.3984979561651,-71.20485789194915" stroke="#99948A" stroke-width="5.453771495452976" stroke-linejoin="round" stroke-linecap="butt"/><polyline points="-52.513386759416846,99.56835697203894 -38.598027096820026,74.78260094121096 -40.38223139450739,53.39404883035229 -38.334947846107816,41.500085085035664 -42.0383355827728,34.81619076038551 -55.38716228559285,23.421812497800566 -49.36073472900762,1.1780629837110257 -52.171530072030244,-12.766370125238597 -47.28181520356877,-31.323332102313408 -45.87145130204076,-43.0103846445668 -35.54410997466174,-59.7069570620899 -35.3984979561651,-71.20485789194915" stroke="#67635C" stroke-width="4.8537714954529765" stroke-linejoin="round" stroke-linecap="round"/><polyline points="-52.513386759416846,99.56835697203894 -38.598027096820026,74.78260094121096 -40.38223139450739,53.39404883035229 -38.334947846107816,41.500085085035664 -42.0383355827728,34.81619076038551 -55.38716228559285,23.421812497800566 -49.36073472900762,1.1780629837110257 -52.171530072030244,-12.766370125238597 -47.28181520356877,-31.323332102313408 -45.87145130204076,-43.0103846445668 -35.54410997466174,-59.7069570620899 -35.3984979561651,-71.20485789194915" stroke="#CCC5B8" stroke-width="3.2722628972717858" stroke-linejoin="round" stroke-linecap="butt"/><polyline points="-52.513386759416846,99.56835697203894 -38.598027096820026,74.78260094121096 -40.38223139450739,53.39404883035229 -38.334947846107816,41.500085085035664 -42.0383355827728,34.81619076038551 -55.38716228559285,23.421812497800566 -49.36073472900762,1.1780629837110257 -52.171530072030244,-12.766370125238597 -47.28181520356877,-31.323332102313408 -45.87145130204076,-43.0103846445668 -35.54410997466174,-59.7069570620899 -35.3984979561651,-71.20485789194915" stroke="#67635C" stroke-width="2.972262897271786" stroke-linejoin="round" stroke-linecap="round"/></g><g fill-rule="nonzero" fill="#99948A" stroke="#1A1917" stroke-width="0.3"><path d="M 3.497170814545118,-2.8553246953506264 L 2.926518740453276,-1.477648718681764 L 1.5488427637844135,-0.9069966445899214 L 0.1711667871155509,-1.4776487186817637 L -0.3994852869762917,-2.855324695350626 L 0.17116678711555045,-4.233000672019489 L 1.5488427637844129,-4.803652746111331 L 2.9265187404532753,-4.2330006720194895 Z"/></g><g fill="#A38589" stroke="#301621" stroke-width="0.3"><polygon points="-7.775380653185172,2.2653350536841144 -10.231872531819292,4.635044329731597 -13.478133988262364,7.76662231405855 -16.552531937132454,10.73240836084561 -17.856504393262846,8.294652599205575 -18.861919905872597,6.415044293689647 -16.425430166193824,3.4617045331060883 -15.142294834383689,5.335894221485024 -12.276356845146797,2.211736763582644 -13.852736955204291,0.3432686012558288 -11.905943678134884,-2.0164958981275607 -10.107661104002363,-0.15235729534762976"/><polygon points="-11.216294476192747,5.584688752909408 -9.853653988144114,4.270187438033428 -7.775380653185172,2.2653350536841144 -5.723113735024675,4.39275931969341 -4.146196194234347,6.027426142067578 -6.224469529193287,8.032278526416892 -7.587110017241921,9.346779841292872 -9.164027558032249,7.7121130189187035"/><polygon points="-1.5966636654728283,8.670326693000261 -3.470366325371299,10.477835446574927 -5.037577488480402,11.989680392225553 -6.319928816870282,10.660367275386365 -7.587110017241921,9.346779841292872 -6.019898854132818,7.834934895642245 -4.146196194234347,6.027426142067578 -2.8790149938627083,7.341013576161073"/><polygon points="-16.552531937132454,10.732408360845609 -12.83715765532337,7.1482903036400955 -11.216294476192747,5.584688752909408 -9.49715049104873,7.366790583034645 -7.621158084151502,9.31148487887196 -9.30242936876571,10.933360445958241 -13.15627229149173,14.651055343240673 -14.928488033063621,12.606250589641345"/><polygon points="-5.037577488480402,11.989680392225553 -10.71561091971101,17.46712105006987 -13.15627229149173,14.651055343240673 -7.621158084151502,9.31148487887196"/><polygon points="-4.472247849752776,11.444322640152581 -1.5966636654728283,8.670326693000261 -0.35481332939389143,9.957655605408094 -3.2303975136738368,12.731651552560411"/><polygon points="-2.344233164476482,13.650268679539487 -6.078725775509006,20.581955997401824 -7.846813310636885,20.77717571810149 -10.71561091971101,17.46712105006987 -4.472247849752776,11.444322640152581"/></g><g fill="#899E88" stroke="#173021" stroke-width="0.3"><polygon points="0.48796446429894325,-17.621650398973657 2.7439275109867243,-19.13287376947875 5.0187861360478,-20.65675490034869 6.334255206279874,-19.068969375521853 3.9433261504022266,-17.570141039267178 5.5507172952436274,-15.475822545192493 3.0253865589056357,-14.022739851493027 1.572256784644492,-16.083762368228538"/><polygon points="-6.998814682154656,-17.857756839951325 -5.820905640380988,-15.650385915542277 -10.803621613353577,-12.991482451582872 -11.981530655127244,-15.19885337599192"/><polygon points="-6.633534666007965,-11.79144197281154 -5.433777844366636,-9.54312887686593 -8.185809600282731,-8.08577078939867 -9.38091624154493,-10.32536956819574"/><polygon points="-3.9445966203467346,-12.134231586856968 -3.19465995058369,-10.728869762407053 -5.433777844366636,-9.54312887686593 -6.179931017782357,-10.941400527513364"/><polygon points="-11.981530655127244,-15.19885337599192 -11.153662562847567,-13.647450091581716 -10.233698203023582,-11.923460795846061 -11.821870845480644,-11.075971642681386 -13.811713499838113,-10.01414119617314 -14.458884387779735,-11.883699998833912 -15.041267958032048,-13.566100042743852 -13.339655390341493,-14.474123613641892"/><polygon points="-10.233698203023582,-11.923460795846061 -9.110546612469005,-9.818703911595636 -12.625121185446238,-7.943237889225147 -13.811713499838113,-10.01414119617314"/><polygon points="-12.625121185446238,-7.943237889225147 -9.110546612469005,-9.818703911595636 -8.185809600282731,-8.08577078939867 -11.084976662627101,-6.550496148710589"/><polygon points="-5.204188758143012,-14.49467450985134 -1.8237693407880609,-16.298551942800525 -0.20161163007757832,-17.164176389285565 0.9128731942223176,-15.583465321266864 2.2884237880747906,-13.632475948497076 0.5104548857590929,-12.690939807613217 -3.19465995058369,-10.728869762407053 -4.304768073725548,-12.809183527792406"/><polygon points="-5.204188758143012,-14.49467450985134 -6.998814682154656,-17.857756839951325 -4.744403265778472,-19.060767879855373 -2.9497773417668274,-15.697685549755388"/><polygon points="-2.9497773417668274,-15.697685549755388 -4.744403265778472,-19.060767879855373 -2.415152356274938,-20.30371516910549 -0.20161163007757832,-17.164176389285565"/></g><g fill="#899895" stroke="#17292E" stroke-width="0.3"><polygon points="20.279614599903816,3.9328758440965963 19.944860761803213,6.571751281471238 19.716716546722978,8.370219579162336 16.876940846210072,7.989156612489414 14.139255335233075,7.621792893431621 14.341551552455849,6.291731151431526 14.63837886900534,4.340144200656913 17.407367973343902,4.140237354771964"/><polygon points="13.87413934150873,-0.3406764709221779 12.116291376718673,-0.4456881699726006 10.665297555795746,-0.5323687757467064 10.867573712195615,-3.918379411402942 11.003682492930025,-6.196778345688907 12.45467631385295,-6.110097739914801 14.212524278643007,-6.005086040864379 14.076415497908597,-3.7266871065784137"/><polygon points="14.212524278643007,-6.005086040864379 16.75703314723186,-5.853080176368985 17.53863749473191,-3.9420928632946546 14.10154958789592,-4.147420313740925"/><polygon points="19.023504897082738,-0.033059636671594284 17.311227248344714,-0.1353490204759078 17.44543872277815,-2.3819879123104064 19.157716371516177,-2.279698528506093"/><polygon points="10.405507954090464,3.8163907125839898 10.511517629523894,2.0418370781433692 10.665297555795746,-0.5323687757467064 11.775174045235039,-0.46606610439704976 13.386386361902398,-0.36981424058787526 13.24535642138191,1.9909626648440097 13.148136071603986,3.618386995072624 11.524169888266272,3.7356290445361626"/><polygon points="13.386386361902398,-0.3698142405878754 15.089076572873449,-0.26809759865294736 16.72300530925671,-0.17048868356374725 16.601436502040226,1.8645177231495045 16.51116667975814,3.3755933920074246 14.864304260434942,3.494488432561222 13.148136071603986,3.618386995072624 13.249660573602513,1.9189131190357922"/><polygon points="16.72300530925671,-0.17048868356374725 18.902153003383994,-0.04030905118043904 20.19182784611569,0.036734555075928155 20.266797797271586,1.2191244654734685 20.385793365224963,3.0958651697259763 18.94524444462545,3.1998654312686465 16.51116667975814,3.3755933920074246 16.64112719102533,1.200113685461469"/><polygon points="11.003682492930025,-6.196778345688907 11.13277527593492,-8.357732676741884 11.219921374706928,-9.816518638220447 12.814186976268536,-9.721279150556553 14.214484037015437,-9.637627107564368 14.127337938243427,-8.178841146085803 13.998245155238529,-6.017886815032824 12.59794809449163,-6.101538858025011"/></g><g fill="#898595" stroke="#17162E" stroke-width="0.3"><polygon points="-0.5359271363201663,14.930559904486177 2.0034745194578423,13.820085349303039 4.091702387810413,18.595385496240446 1.3496247590026924,19.24238639586271"/><polygon points="-0.5359271363201663,14.930559904486177 -1.0359301991950707,13.787167109187768 0.6337965168016189,10.687944615781852 2.0034745194578423,13.820085349303039"/><polygon points="1.649670108423885,13.011015476420608 1.1434812108715338,11.85347709016835 0.6337965168016189,10.687944615781852 1.5408958379804933,10.222172933751168 3.1779217453500905,9.381603116752057 3.7233008764007858,10.628760615276192 4.264939391950837,11.867364180572748 2.582135603898241,12.603250440923194"/><polygon points="7.9786677420716785,7.282247836295912 8.656829117945513,8.833047998929711 6.934794929130296,9.58608962410297 6.256633553256463,8.035289461469171"/><polygon points="3.856083121223926,10.932403279385857 3.177921745350091,9.381603116752057 6.256633553256463,8.035289461469171 6.934794929130296,9.58608962410297"/><polygon points="4.394114674305057,15.022448182282858 5.500343726118007,14.538696739714672 6.7942837138427565,13.972859732783174 7.485127480996763,15.552661627393427 8.188794039214528,17.161786316215416 6.8621321785112475,17.652795873896505 6.174976998745343,16.081428936104587 5.0548890970940885,16.5334883546977"/><polygon points="2.82863132462185,15.70703048238121 4.394114674305057,15.022448182282858 5.727928192109382,18.072575031027082 4.091702387810413,18.595385496240446"/><polygon points="8.188794039214528,17.161786316215416 7.616377851718382,15.852801245339908 6.7942837138427565,13.972859732783174 8.903261752077354,13.050608444346468 10.24464660487039,12.464023906077204 11.118179280147887,14.461593604205076 11.726411623134503,15.852482041647232 10.35110508526734,16.36149543446165"/><polygon points="1.3496247590026924,19.24238639586271 -0.8914835265525511,19.771182175264336 -2.2206195204944397,20.084795537178763 -2.507174136730897,18.870338180052492 -2.893169652528333,17.234436793661548 -1.757704690002358,16.966520654262062 0.15684727990381075,16.514776752525236 0.841415963109624,18.08022896348555"/><polygon points="11.726411623134503,15.852482041647232 10.753899308370539,13.628568516704892 10.052647876060135,12.024966669175793 12.764531165678301,10.839066288708143 14.337062448048515,10.15140194371242 15.011792650924889,11.694355797441302 15.947524688260689,13.834161229167897 14.398227291895061,14.574956164427778"/><polygon points="8.864364561039173,9.307634152538379 7.9786677420716785,7.282247836295912 9.198168782142584,6.748962811480405 10.128553405035166,8.754807252937956"/><polygon points="11.229186073903914,8.273503095873604 11.392742249031164,8.20198035333753 14.337062448048515,10.15140194371242 12.417469388924877,10.990835612511017"/></g><g fill="#9C8595" stroke="#2A162E" stroke-width="0.3"><polygon points="-18.46561879429894,15.511789936837696 -16.399004437078528,13.422555100612161 -13.561288425206918,16.696747431898714 -15.394316261875357,18.54983898657545"/><polygon points="-16.399004437078528,13.422555100612161 -17.798060726499717,14.836924998647007 -19.93314630428943,16.995380518834434 -22.047510176199317,15.23571364864832 -26.99579560262047,11.117532268055202 -23.974255000636912,9.76310576775275 -19.647044229364326,13.31796240808775 -18.074092299288736,12.061318663892216"/></g><g fill="#899E88" stroke="#173021" stroke-width="0.3"><polygon points="-3.0593987471172217,-24.576338812203552 -1.9702047170510637,-22.535217513577916 -6.076446093292361,-20.3440230970461 -7.165640123358516,-22.385144395671734"/><polygon points="-3.23207627594838,-24.89993201246183 -4.56085302670713,-27.390025101686266 -1.1422464855088155,-29.21428015126392 0.4250990247752815,-26.85149339547996"/><polygon points="-3.23207627594838,-24.89993201246183 0.4250990247752815,-26.85149339547996 1.4825357479766152,-24.377687289582024 -1.9702047170510637,-22.535217513577916"/><polygon points="-1.1422464855088155,-29.21428015126392 -5.057333249156788,-27.12509067828762 -6.355507568613448,-29.557835606765508 -2.988633295682593,-31.354485007528147"/><polygon points="-7.052147931701079,-30.863321537949034 -5.812726563487636,-28.540678112811523 -5.057333249156788,-27.12509067828762 -6.808571787417658,-26.190585432381916 -7.615631928712196,-27.702995157550937 -9.528986575566403,-26.813994211658933 -10.943147325433406,-29.46409469564581 -8.939826312719816,-30.184501010602887"/><polygon points="-14.033414741718397,-16.097983062519578 -15.723225397220467,-19.264644304117024 -7.766256748794431,-23.51068433864355 -6.076446093292361,-20.3440230970461"/><polygon points="-10.943147325433406,-29.46409469564581 -9.79845154737018,-27.318964564047693 -7.766256748794431,-23.51068433864355 -9.715057220449168,-22.470755040494687 -11.015924866669733,-21.77657911125241 -12.879053537941216,-25.268033808980896 -13.928517656975334,-27.23470228711589 -12.733450488445886,-28.12714556125629"/><polygon points="-11.015924866669733,-21.77657911125241 -13.30088755041843,-20.557265141162144 -15.723225397220467,-19.264644304117024 -17.19090826892037,-22.015043853105325 -18.247670403012933,-23.99538862174714 -16.025070189802886,-25.662312591941948 -14.884695551794039,-23.525280164477227 -12.709272331462786,-24.949868241521415"/><polygon points="-18.247670403012933,-23.99538862174714 -16.736011103788787,-21.16257839075047 -19.87139493582803,-19.48945815329933 -21.36589041586901,-21.656760355234084"/><polygon points="-16.736011103788787,-21.16257839075047 -15.865323028489277,-19.530931571271257 -15.180901622874524,-18.248343648758755 -16.51058284015505,-17.53879206810148 -17.984081764527467,-16.752495715789642 -18.814709800295955,-17.95706407678624 -17.264356980925335,-18.784371614310704 -18.223272278509175,-20.368938153031436"/><polygon points="-15.180901622874524,-18.248343648758755 -14.033414741718397,-16.097983062519578 -15.83319129994789,-15.137576699606937 -16.980678181104015,-17.287937285846112"/></g><g fill-rule="nonzero" fill="#99948A" stroke="#1A1917" stroke-width="0.6"><path d="M -35.29395654339048,0.14034239987287478 L -33.04257301889203,-2.947695464871748 L -30.340653963385627,-6.653695913079498 L -26.769464546309592,-4.0500630016245385 L -25.157640723030482,-6.260869353994985 L -28.728830140106517,-8.864502265449945 L -26.111362510232766,-12.45466762947612 L -22.54017309315673,-9.851034718021161 L -19.166400913969422,-7.391332009595436 L -21.783868543843173,-3.8011666455692605 L -23.395692367122283,-1.5903602931988141 L -26.09761142262868,2.115640155008936 L -28.34899494712713,5.203678019753559 L -31.722767126314444,2.7439753113278345 Z"/></g><g fill-rule="nonzero" stroke="#99948A" stroke-width="0.3" stroke-linecap="butt"><line x1="22.006949847975726" y1="37.33500787100218" x2="22.133074729270163" y2="38.78174494104222"/><line x1="20.25985972344574" y1="34.54778113086189" x2="20.8573876417197" y2="41.401827540092675"/><line x1="18.56614541679765" y1="32.37281085892135" x2="19.511330018971144" y2="43.21471285289177"/><line x1="16.872431110149563" y1="30.19784058698081" x2="18.04374185664446" y2="43.633561279827"/><line x1="15.178716803501471" y1="28.022870315040265" x2="16.566335001148595" y2="43.93978270373625"/><line x1="13.485002496853385" y1="25.847900043099727" x2="15.073577299106372" y2="44.06991961103636"/><line x1="11.832582034510938" y1="24.14659789047318" x2="13.580819597064146" y2="44.20005651833647"/><line x1="10.27737725846381" y1="23.560424931304365" x2="12.08806189502192" y2="44.33019342563658"/><line x1="8.759455238614947" y1="23.40191021777053" x2="10.595304192979693" y2="44.460330332936685"/><line x1="7.285668287752865" y1="23.7496543782719" x2="9.102546490937469" y2="44.5904672402368"/><line x1="5.811881336890781" y1="24.097398538773266" x2="7.6097887888952425" y2="44.7206041475369"/><line x1="4.338094386028699" y1="24.44514269927463" x2="6.117031086853017" y2="44.850741054837016"/><line x1="2.864307435166614" y1="24.792886859775997" x2="4.624273384810792" y2="44.98087796213712"/><line x1="1.3905204843045298" y1="25.140631020277365" x2="3.131515682768565" y2="45.111014869437234"/><line x1="-0.08326646655755532" y1="25.48837518077873" x2="1.6387579807263384" y2="45.24115177673735"/><line x1="-1.5570534174196393" y1="25.836119341280096" x2="0.14600027868411256" y2="45.37128868403745"/><line x1="-3.03084036828172" y1="26.183863501781463" x2="-1.3467574233581103" y2="45.501425591337565"/><line x1="-4.481323422264825" y1="26.798919005970077" x2="-2.8395151254003363" y2="45.63156249863767"/><line x1="-5.829986819539222" y1="28.581914335412936" x2="-4.374262721491805" y2="45.280047128729485"/><line x1="-6.231416597428442" y1="41.23031526197627" x2="-5.969232470529392" y2="44.2377432307324"/><path d="M 17.079000831415293,42.39521076138354 L 15.756677664220438,42.51048938107821 L 14.899629879776588,42.58520582563136 L 13.467885060847863,42.710023699639606 L 13.374725405927125,41.641419909311075 L 13.251743888592792,40.230739334381575 L 14.683488707521517,40.10592146037333 L 14.585784892732292,38.985193105355776 L 15.44283267717614,38.91047666080262 L 16.765155844370994,38.79519804110795 L 16.862859659160222,39.915926396125506 L 16.985841176494553,41.32660697105501 Z" fill="#99948A" stroke="#1A1917" stroke-width="0.3"/></g><g fill="#A38B7C" stroke="#301C14" stroke-width="0.3"><polygon points="26.795058106684355,10.098268426243038 29.088047724902648,10.923144945755979 28.57158474950313,12.35880739070528 26.27859513128484,11.533930871192338"/><polygon points="26.472164271615597,7.513864526198148 27.581240103815613,7.912841741390221 26.27859513128484,11.533930871192338 25.169519299084822,11.134953656000265"/><polygon points="25.169519299084822,11.134953656000265 23.378962554374024,10.490821557087788 23.728764890460766,7.7333183186688474 26.087916385058858,8.581995808704727"/><polygon points="23.87511858692463,6.5796073501588745 26.472164271615597,7.513864526198148 26.087916385058858,8.581995808704727 23.728764890460766,7.7333183186688474"/><polygon points="28.66376931688125,3.163643624061672 27.867500068273102,5.377110824513748 25.656144738097172,4.581601296834648 26.526049392978702,2.1634425842301264"/><polygon points="27.02702244755259,7.713468343569916 23.87511858692463,6.5796073501588745 24.19524268100845,4.056058662613301 27.867500068273102,5.377110824513748"/><polygon points="29.994802023558513,13.532568280744648 29.34773857395546,15.331273586533193 27.636821105734484,14.715790797101015 28.283884555337536,12.917085491312474"/><polygon points="28.574335519398044,15.053050774377718 29.34773857395546,15.331273586533193 28.579333730889587,17.467283384434896 27.882146639886138,16.9771956336642"/><polygon points="25.494707763647785,15.29894518402644 25.92590363751351,14.100308007668842 28.574335519398044,15.053050774377718 28.143139645532315,16.25168795073531"/><polygon points="23.768938760508448,13.37256494423601 23.18196483998529,12.043760972716363 23.29867706385355,11.123714700641198 24.431354838437503,11.531182441883946"/><polygon points="26.09398577343776,13.633073720396581 25.494707763647785,15.29894518402644 24.225895612702804,14.407033527555335 24.686468041306423,13.126735480219377"/><polygon points="23.952373524758695,12.86265346040023 24.431354838437503,11.531182441883946 26.572967087116563,12.301602701880297 26.09398577343776,13.633073720396581"/><polygon points="30.972397344143733,17.719018678463208 30.561667295771827,18.86076500597799 28.579333730889587,17.467283384434896 28.77335657873743,16.927939173164404"/><polygon points="30.561667295771827,18.86076500597799 31.43193027649378,16.44161022012784 33.60034619523491,17.221672790710905 32.62466115925829,20.310946794276237"/><polygon points="37.834719589385394,22.61358462077956 41.58818840315937,23.075212977808484 41.38801330973133,24.702823065092183 37.68079254425319,23.865154968880876"/><polygon points="38.01951920394224,21.110991507780835 33.58871825981517,20.56606001596887 34.219106580628925,18.57008572115781 38.27073367482486,19.068383709387785"/></g><g fill="#A38B7C" stroke="#301C14" stroke-width="0.3"><polygon points="38.3550038965779,26.783791390975377 36.21531105971616,28.591309899377784 35.24814195831511,27.4464005727613 37.087365822761925,25.8927050521655"/><polygon points="33.552678359183545,26.828314580076917 31.873964050315443,24.841096764533127 33.56236792248517,23.41480734764601 35.76260588490379,24.961464892050703"/><polygon points="28.579254704594156,24.745699269483538 27.4527925970949,23.412223074795662 29.086128355833573,22.370399373074303 30.04599364985507,23.50666264474906"/><polygon points="31.465062416431238,25.186518901126203 29.086128355833573,22.370399373074303 30.653971819121367,21.37034995157415 33.56236792248517,23.41480734764601"/><polygon points="24.176423644970882,21.43603011690587 26.112130725979593,20.201338776931724 27.530512893493977,22.425030088552624 25.594805812485266,23.659721428526773"/><polygon points="27.530512893493977,22.425030088552624 26.112130725979593,20.201338776931724 27.62143557472939,19.238628228204867 29.039817742243773,21.46231953982577"/><polygon points="24.63703165698902,17.82591286389644 25.148048601401378,17.499960553220802 27.62143557472939,19.238628228204867 26.14061064482492,20.18317285218697"/><polygon points="22.67284465713498,19.078770128615343 21.40707493204424,17.094339412647166 23.0658577922717,16.036284269638067 25.148048601401378,17.499960553220802"/><polygon points="20.62665018520859,15.87081604309326 22.407606123958285,18.66293817920097 20.8901904104651,19.630822245427773 18.98984957211673,16.651532524971813"/><polygon points="17.887124184959273,21.546328934626167 15.812859181066731,18.29436682399256 18.98984957211673,16.651532524971813 20.8901904104651,19.630822245427773"/><polygon points="15.812859181066731,18.29436682399256 17.2438198807419,20.537778330437895 14.940116346100483,22.007196318312054 13.375735440263796,19.55461315134313"/><polygon points="14.940116346100483,22.007196318312054 13.070483244780892,23.199742350599838 11.725076619540184,21.47204872359053 13.375735440263796,19.55461315134313"/></g><g fill-rule="nonzero" stroke="#99948A" stroke-width="0.3" stroke-linecap="butt"><line x1="-8.25630567033283" y1="42.42884484482418" x2="-8.634017725388116" y2="44.42179772319634"/><line x1="-8.099322342496126" y1="34.74056347031572" x2="-10.085319863720354" y2="45.219443938625034"/><line x1="-8.202678806156538" y1="28.425934140730856" x2="-11.453216784743223" y2="45.57701241313113"/><line x1="-9.215879791419528" y1="26.911991561622077" x2="-12.708265512752847" y2="45.3391507760621"/><line x1="-10.360534629324299" y1="26.091649651301054" x2="-13.963314240762477" y2="45.10128913899307"/><line x1="-11.589780894764294" y1="25.717644379526728" x2="-15.218362968772103" y2="44.863427501924036"/><line x1="-12.819027160204293" y1="25.343639107752406" x2="-16.47341169678173" y2="44.625565864855005"/><line x1="-14.04827342564429" y1="24.969633835978083" x2="-17.728460424791358" y2="44.387704227785974"/><line x1="-15.277519691084288" y1="24.59562856420376" x2="-18.983509152800984" y2="44.14984259071694"/><line x1="-16.506765956524283" y1="24.221623292429435" x2="-20.23855788081061" y2="43.91198095364791"/><line x1="-17.73601222196428" y1="23.847618020655112" x2="-21.493606608820237" y2="43.67411931657888"/><line x1="-18.965258487404277" y1="23.47361274888079" x2="-22.74865533682986" y2="43.43625767950986"/><line x1="-20.194504752844274" y1="23.099607477106467" x2="-24.003704064839486" y2="43.19839604244083"/><line x1="-21.42375101828427" y1="22.725602205332144" x2="-25.258752792849116" y2="42.960534405371796"/><line x1="-22.652997283724268" y1="22.35159693355782" x2="-26.513801520858742" y2="42.722672768302765"/><line x1="-23.970744696433968" y1="22.444557472987423" x2="-27.768850248868368" y2="42.484811131233734"/><line x1="-25.32487767711409" y1="22.729502148076254" x2="-29.023898976877994" y2="42.2469494941647"/><line x1="-26.762312630765912" y1="23.45397980758021" x2="-30.27894770488762" y2="42.00908785709567"/><line x1="-28.30472490539759" y1="24.732357855516234" x2="-31.53399643289725" y2="41.77122622002664"/><line x1="-29.84713718002926" y1="26.01073590345225" x2="-32.74059660586119" y2="41.277731526138325"/><line x1="-31.389549454660923" y1="27.28911395138826" x2="-33.94375538551593" y2="40.76607872845276"/><line x1="-35.0494236935438" y1="39.740029015333306" x2="-32.93196172929259" y2="28.56749199932427"/><line x1="-36.018184661371535" y1="37.99160395286944" x2="-34.47437400392427" y2="29.84587004726029"/><line x1="-36.98694562919927" y1="36.24317889040559" x2="-36.01678627855594" y2="31.124248095196307"/><line x1="-37.955706597026996" y1="34.494753827941736" x2="-37.68356133651169" y2="33.058811625355865"/><path d="M -10.948906567694975,44.52541878267016 L -11.908185292544967,44.34361260829144 L -13.186291037630138,44.10138111712422 L -14.499371189131162,43.852521142632064 L -14.260037523302184,42.589705429388786 L -14.040764458258128,41.432737097877435 L -13.825864093675746,40.29884080194111 L -12.512783942174721,40.54770077643327 L -12.727684306757101,41.68159707236959 L -12.946957371801158,42.83856540388094 L -11.66885162671599,43.08079689504816 L -10.709572901865997,43.26260306942688 Z" fill="#99948A" stroke="#1A1917" stroke-width="0.3"/></g><g fill-rule="nonzero" stroke="#99948A" stroke-width="0.3" stroke-linecap="butt"><line x1="-42.832858962275125" y1="-28.157995722462232" x2="-29.87389067955134" y2="-23.01222928672417"/><line x1="-44.50947481647893" y1="-27.217962539424406" x2="-29.912322484161905" y2="-21.42170354023155"/><line x1="-44.89251784803619" y1="-25.764275532429657" x2="-30.28852754192835" y2="-19.965301300414747"/><line x1="-45.27556087959344" y1="-24.31058852543491" x2="-31.19641858597562" y2="-18.720021724290515"/><line x1="-45.658603911150706" y1="-22.85690151844016" x2="-32.1043096300229" y2="-17.474742148166282"/><line x1="-46.041646942707956" y1="-21.403214511445412" x2="-33.01220067407017" y2="-16.22946257204205"/><line x1="-46.42468997426522" y1="-19.949527504450664" x2="-33.92009171811744" y2="-14.984182995917816"/><line x1="-46.80773300582247" y1="-18.495840497455916" x2="-34.827982762164716" y2="-13.738903419793584"/><line x1="-47.19077603737973" y1="-17.042153490461168" x2="-35.73587380621199" y2="-12.49362384366935"/><line x1="-47.573819068936984" y1="-15.588466483466416" x2="-36.64376485025927" y2="-11.248344267545116"/><line x1="-47.927143684103186" y1="-14.122978843407981" x2="-37.55165589430654" y2="-10.003064691420885"/><line x1="-48.02261057039211" y1="-12.555100672135636" x2="-38.45954693835381" y2="-8.757785115296652"/><line x1="-48.001748977921245" y1="-10.941030615177398" x2="-39.367437982401086" y2="-7.512505539172418"/><line x1="-47.64990732887245" y1="-9.195534504162998" x2="-40.27532902644836" y2="-6.267225963048183"/><line x1="-47.298065679823665" y1="-7.450038393148601" x2="-41.183220070495636" y2="-5.021946386923951"/><line x1="-46.94622403077487" y1="-5.704542282134203" x2="-42.09111111454291" y2="-3.7766668107997177"/><line x1="-46.59438238172608" y1="-3.959046171119803" x2="-42.99900215859019" y2="-2.5313872346754835"/><line x1="-46.24254073267729" y1="-2.213550060105402" x2="-43.94467152778611" y2="-1.3011087321943942"/></g><g fill-rule="nonzero" stroke="#99948A" stroke-width="0.3" stroke-linecap="butt"><line x1="-46.724902134424255" y1="5.701094828805656" x2="-43.83431829132786" y2="2.7342605019117716"/><line x1="-47.548036345890665" y1="8.739311258758262" x2="-42.72563575788456" y2="3.7897009450149257"/><line x1="-48.37117055735708" y1="11.77752768871088" x2="-41.62932297499558" y2="4.8578374393491695"/><line x1="-49.194304768823486" y1="14.815744118663487" x2="-40.53301019210661" y2="5.925973933683409"/><line x1="-50.017438980289896" y1="17.853960548616097" x2="-39.43669740921763" y2="6.994110428017652"/><line x1="-38.34038462632866" y1="8.06224692235189" x2="-50.533313487983904" y2="20.576812095242328"/><line x1="-37.24407184343968" y1="9.130383416686135" x2="-50.17726012280396" y2="22.40473525222982"/><line x1="-36.147759060550705" y1="10.198519911020375" x2="-49.310663072048406" y2="23.708647131923904"/><line x1="-35.051446277661725" y1="11.266656405354617" x2="-48.14395606715037" y2="24.70453248060457"/><line x1="-33.955868044962095" y1="12.33554682651986" x2="-46.97724906225235" y2="25.70041782928523"/><line x1="-32.8626256879708" y1="13.406834741274977" x2="-45.810542057354326" y2="26.696303177965888"/><line x1="-31.772028914487656" y1="14.480838027177494" x2="-44.643835052456296" y2="27.692188526646547"/><line x1="-30.683806390254873" y1="15.55727819246456" x2="-43.477128047558274" y2="28.688073875327206"/><line x1="-29.595583866022086" y1="16.633718357751633" x2="-42.310421042660245" y2="29.683959224007868"/><line x1="-28.507361341789302" y1="17.7101585230387" x2="-41.14371403776222" y2="30.67984457268853"/><line x1="-27.41913881755652" y1="18.786598688325768" x2="-38.951979447451116" y2="30.623663213918462"/><line x1="-27.1170724216102" y1="20.6699329325612" x2="-29.548892710659338" y2="23.165902017706113"/></g><g fill-rule="nonzero" stroke="#99948A" stroke-width="0.3" stroke-linecap="butt"><line x1="-77.46193680929105" y1="23.425850039621356" x2="-77.72259209751273" y2="7.454313377890862"/><line x1="-75.93329189045593" y1="24.80368435303815" x2="-76.23686621137716" y2="6.202303083421805"/><line x1="-74.42902594614206" y1="24.687707863697618" x2="-74.73859951370018" y2="5.718725429119098"/><line x1="-72.92579569314626" y1="24.508269850251644" x2="-73.23284188097742" y2="5.694151482475016"/><line x1="-71.42256544015046" y1="24.328831836805673" x2="-71.72708424825464" y2="5.669577535830935"/><line x1="-69.91933518715466" y1="24.149393823359702" x2="-70.22132661553186" y2="5.645003589186853"/><line x1="-68.41610493415885" y1="23.96995580991373" x2="-68.71556898280909" y2="5.6204296425427716"/><line x1="-66.91287468116305" y1="23.79051779646776" x2="-67.20981135008631" y2="5.595855695898691"/><line x1="-65.40964442816724" y1="23.61107978302179" x2="-65.70405371736354" y2="5.571281749254609"/><line x1="-63.90641417517144" y1="23.43164176957582" x2="-64.19829608464076" y2="5.546707802610528"/><line x1="-62.403183922175636" y1="23.252203756129845" x2="-62.69253845191798" y2="5.522133855966446"/><line x1="-60.90064622486689" y1="23.030329701498435" x2="-61.18678081919521" y2="5.497559909322365"/><line x1="-59.41492033873132" y1="21.77831940702937" x2="-59.68102318647243" y2="5.472985962678283"/><line x1="-57.959575906506885" y1="18.664699059341455" x2="-58.17526555374966" y2="5.448412016034202"/><line x1="-56.53898996111579" y1="13.421267916128556" x2="-56.668575224776994" y2="5.480988616578498"/><line x1="-55.1184040157247" y1="8.17783677291566" x2="-55.13993030594188" y2="6.85882292999529"/><line x1="-53.73608723090378" y1="3.0756584057204557" x2="-76.54934309759888" y2="3.4479704699351097"/><line x1="-78.10910645583931" y1="2.1556324495155863" x2="-53.37747611025874" y2="1.7520125366385564"/><line x1="-78.13060710093603" y1="0.8381899999263953" x2="-53.35681794324162" y2="0.4338820557374538"/><line x1="-78.15210774603275" y1="-0.4792524496627956" x2="-53.577488635256614" y2="-0.8803099410566088"/><line x1="-78.17360839112948" y1="-1.7966948992519853" x2="-53.84224678849949" y2="-2.1937824310081737"/><line x1="-78.19510903622621" y1="-3.1141373488411768" x2="-54.10700494174236" y2="-3.507254920959739"/><line x1="-78.07004375729616" y1="-4.433971752566015" x2="-54.371763094985226" y2="-4.820727410911303"/><line x1="-75.51575481710978" y1="-5.793451057529253" x2="-54.63652124822809" y2="-6.13419990086287"/><line x1="-70.0884636094696" y1="-7.19981772530205" x2="-54.90127940147096" y2="-7.447672390814435"/><line x1="-64.52330376250603" y1="-8.608434407627653" x2="-55.166037554713824" y2="-8.761144880765999"/><line x1="-58.95814391554245" y1="-10.017051089953258" x2="-56.686188816046666" y2="-10.054129370135579"/></g><g fill-rule="nonzero" stroke="#99948A" stroke-width="0.3" stroke-linecap="butt"><line x1="5.043159495329736" y1="46.95194571743416" x2="3.8558417247480694" y2="47.41131451673617"/><line x1="9.106428235024904" y1="46.59771460103146" x2="3.4239719020424673" y2="48.796235677229475"/><line x1="13.169696974720047" y1="46.24348348462877" x2="3.321650391753476" y2="50.053655829704795"/><line x1="17.232965714415197" y1="45.88925236822607" x2="3.731478520142268" y2="51.112927204816906"/><line x1="18.94995156996071" y1="46.442789313600684" x2="4.141306648531057" y2="52.17219857992902"/><line x1="20.126451788838864" y1="47.20543812785115" x2="4.551134776919849" y2="53.23146995504113"/><line x1="20.72264710000182" y1="48.192604737835126" x2="4.960962905308641" y2="54.29074133015324"/><line x1="21.13247522839061" y1="49.25187611294723" x2="5.370791033697429" y2="55.35001270526535"/><line x1="21.542303356779403" y1="50.31114748805935" x2="5.7806191620862215" y2="56.40928408037746"/><line x1="21.95213148516819" y1="51.37041886317145" x2="6.190447290475014" y2="57.46855545548958"/><line x1="22.361959613556984" y1="52.42969023828357" x2="6.6002754188638" y2="58.52782683060168"/><line x1="22.771787741945776" y1="53.48896161339568" x2="7.010103547252596" y2="59.5870982057138"/><line x1="23.181615870334568" y1="54.54823298850779" x2="7.4199316756413864" y2="60.64636958082591"/><line x1="23.591443998723356" y1="55.6075043636199" x2="7.829759804030179" y2="61.70564095593802"/><line x1="24.00127212711215" y1="56.666775738732014" x2="8.239587932418969" y2="62.764912331050134"/><line x1="24.41110025550094" y1="57.726047113844125" x2="8.64941606080776" y2="63.824183706162245"/><line x1="24.82092838388973" y1="58.785318488956236" x2="9.059244189196553" y2="64.88345508127436"/><line x1="25.23075651227852" y1="59.84458986406835" x2="9.46907231758534" y2="65.94272645638647"/><line x1="25.640584640667313" y1="60.90386123918046" x2="9.878900445974136" y2="67.00199783149858"/><line x1="26.00662181411447" y1="61.980075170775976" x2="10.288728574362924" y2="68.06126920661069"/><line x1="26.35893756921616" y1="63.0615978677469" x2="10.698556702751716" y2="69.1205405817228"/><line x1="26.17087685246056" y1="64.35219019813748" x2="11.74396279054287" y2="69.93390922438408"/><line x1="17.820459031119224" y1="68.80076792680173" x2="12.81632080284219" y2="70.7368502683797"/><line x1="0.35962264620548545" y1="48.771952111128584" x2="8.817054510128683" y2="70.63164123406762"/><line x1="8.025499243847651" y1="73.25780695428743" x2="-1.9173671569026993" y2="47.558756461376234"/><line x1="6.488483359425484" y1="73.95720132971276" x2="-3.665996292322415" y2="47.71119994727289"/><line x1="4.951467475003321" y1="74.65659570513809" x2="-5.414625427742135" y2="47.86364343316953"/><line x1="3.4144515905811583" y1="75.35599008056342" x2="-6.555413047314387" y2="49.587157994332046"/><line x1="1.8774357061589906" y1="76.05538445598876" x2="-6.927514981117422" y2="53.29747308720748"/><line x1="0.34041982173682733" y1="76.75477883141409" x2="-7.109151601542752" y2="57.50007858290601"/><line x1="-1.2706007167578541" y1="77.26289543390497" x2="-7.290788221968085" y2="61.702684078604534"/><line x1="-3.480315737941558" y1="76.22358304355623" x2="-7.472424842393416" y2="65.90528957430308"/><line x1="-6.594194655438165" y1="72.84730335538083" x2="-7.368449735656535" y2="70.84610776459795"/><line x1="3.1131930005417425" y1="83.16851812419095" x2="1.1399059005802434" y2="78.83194676511805"/><line x1="4.530434123536728" y1="83.12722546751678" x2="2.2377560891832493" y2="78.08874835004775"/><line x1="5.898457685982493" y1="82.97777041346752" x2="3.427453030026549" y2="77.54739587781917"/><line x1="7.193144611845771" y1="82.66714795616481" x2="4.617149970869855" y2="77.0060434055906"/><line x1="8.487831537709049" y1="82.35652549886208" x2="5.80684691171316" y2="76.46469093336202"/><line x1="9.782518463572323" y1="82.04590304155936" x2="6.996543852556461" y2="75.92333846113344"/><line x1="11.077205389435598" y1="81.73528058425663" x2="8.186240793399767" y2="75.38198598890487"/><line x1="12.371892315298872" y1="81.4246581269539" x2="9.375937734243067" y2="74.84063351667629"/><line x1="13.666579241162149" y1="81.11403566965117" x2="10.56563467508637" y2="74.29928104444772"/><line x1="14.961266167025428" y1="80.80341321234846" x2="11.755331615929677" y2="73.75792857221914"/><line x1="16.2559530928887" y1="80.49279075504573" x2="12.945028556772977" y2="73.21657609999056"/><line x1="17.550640018751977" y1="80.182168297743" x2="14.134725497616282" y2="72.675223627762"/><line x1="18.845326944615252" y1="79.87154584044028" x2="15.32442243845959" y2="72.13387115553341"/><line x1="20.14001387047853" y1="79.56092338313755" x2="16.51411937930289" y2="71.59251868330485"/><line x1="21.43470079634181" y1="79.25030092583482" x2="17.7038163201462" y2="71.05116621107626"/><line x1="22.583854503864302" y1="78.61984909020056" x2="18.8935132609895" y2="70.5098137388477"/><line x1="23.66428862978926" y1="77.83837646830099" x2="20.08321020183281" y2="69.96846126661912"/><line x1="24.312181105296006" y1="76.10633373785191" x2="21.27290714267611" y2="69.42710879439053"/><line x1="24.68252368866722" y1="73.76433672706919" x2="22.462604083519416" y2="68.88575632216197"/><line x1="25.05286627203844" y1="71.42233971628647" x2="23.765683199276598" y2="68.59357686300913"/></g><g fill-rule="nonzero" stroke="#99948A" stroke-width="0.3" stroke-linecap="butt"><line x1="-9.044706105530944" y1="49.018064800210084" x2="-9.424202058201244" y2="57.798627731588766"/><line x1="-10.431326745749695" y1="48.17688541204597" x2="-10.868564592882713" y2="58.29344767237502"/><line x1="-11.826854832921992" y1="47.54180149863776" x2="-12.305689719099703" y2="58.62081254536606"/><line x1="-13.23827003567179" y1="47.27430468897795" x2="-13.72601301530331" y2="58.559426168819925"/><line x1="-14.649685238421588" y1="47.00680787931813" x2="-15.146336311506916" y2="58.498039792273794"/><line x1="-16.061100441171384" y1="46.739311069658314" x2="-16.56665960771052" y2="58.43665341572766"/><line x1="-17.47251564392118" y1="46.4718142599985" x2="-17.986982903914125" y2="58.37526703918153"/><line x1="-18.883930846670978" y1="46.204317450338685" x2="-19.40730620011773" y2="58.313880662635405"/><line x1="-20.295346049420775" y1="45.936820640678874" x2="-20.827629496321336" y2="58.252494286089274"/><line x1="-21.706761252170573" y1="45.66932383101906" x2="-22.24795279252494" y2="58.19110790954314"/><line x1="-23.11817645492037" y1="45.40182702135924" x2="-23.668276088728547" y2="58.12972153299701"/><line x1="-24.52959165767017" y1="45.13433021169943" x2="-25.088599384932156" y2="58.06833515645088"/><line x1="-25.941006860419964" y1="44.86683340203961" x2="-26.508922681135758" y2="58.00694877990475"/><line x1="-27.35242206316976" y1="44.5993365923798" x2="-27.929245977339363" y2="57.945562403358615"/><line x1="-28.763837265919555" y1="44.33183978271998" x2="-29.349569273542965" y2="57.88417602681249"/><line x1="-30.175252468669353" y1="44.064342973060164" x2="-30.76989256974657" y2="57.82278965026636"/><line x1="-31.58666767141915" y1="43.79684616340035" x2="-32.19021586595018" y2="57.76140327372023"/><line x1="-33.010952210498836" y1="43.827112786353105" x2="-33.61034866555203" y2="57.695609294436686"/><line x1="-34.445977841968705" y1="44.10590073613468" x2="-35.021777740244154" y2="57.42843344594038"/><line x1="-36.39735087245507" y1="56.33164305951624" x2="-36.15969584397218" y2="50.83291528951154"/><line x1="-33.99765879727669" y1="59.98543274721793" x2="-11.172257085819089" y2="60.97194666839448"/><line x1="-9.326237613796968" y1="62.47969223922624" x2="-35.98058724675729" y2="61.32769117895034"/><line x1="-9.387839005359213" y1="63.904990431385656" x2="-35.86103767191439" y2="62.76081871634768"/><line x1="-9.44944039692146" y1="65.33028862354507" x2="-35.74148809707148" y2="64.19394625374503"/><line x1="-9.511041788483706" y1="66.7555868157045" x2="-35.62193852222858" y2="65.62707379114237"/><line x1="-9.57264318004595" y1="68.18088500786392" x2="-35.502388947385676" y2="67.0602013285397"/><line x1="-9.634244571608196" y1="69.60618320002334" x2="-35.382839372542776" y2="68.49332886593704"/><line x1="-11.483631468152812" y1="70.95421329802004" x2="-35.26328979769987" y2="69.92645640333438"/><line x1="-19.77542422328274" y1="72.02380259809756" x2="-35.14374022285696" y2="71.35958394073172"/><line x1="-30.242005387236954" y1="72.99939753750448" x2="-33.20976507980657" y2="72.87113095589348"/><path d="M -13.592867150312458,57.51661806223589 L -14.940937241380775,57.45835446940313 L -17.022370258364678,57.36839492901001 L -16.95455950808974,55.799428103347026 L -14.873126491105838,55.88938764374015 L -14.795458363103856,54.09234638181066 L -13.447388272035539,54.150609974643416 L -13.52505640003752,55.94765123657291 Z" fill="#99948A" stroke="#1A1917" stroke-width="0.3"/></g><g fill-rule="nonzero" stroke="#99948A" stroke-width="0.3" stroke-linecap="butt"><line x1="-66.38030519483108" y1="58.12931965341477" x2="-72.07247330896398" y2="59.077710530716736"/><line x1="-72.94580692473205" y1="57.50600671364436" x2="-62.70235758213491" y2="55.799311880703044"/><line x1="-73.65099001502686" y1="55.90628678369991" x2="-62.390405644780685" y2="54.030123733751516"/><line x1="-73.92937259903498" y1="54.23545621568679" x2="-62.65813967385962" y2="52.35751897492941"/><line x1="-74.20775518304309" y1="52.564625647673665" x2="-62.936522257867736" y2="50.68668840691629"/><line x1="-74.4861377670512" y1="50.893795079660535" x2="-63.21490484187585" y2="49.01585783890316"/><line x1="-74.76452035105932" y1="49.22296451164741" x2="-63.49328742588396" y2="47.345027270890036"/><line x1="-75.04290293506743" y1="47.55213394363429" x2="-63.77167000989208" y2="45.67419670287691"/><line x1="-75.32128551907554" y1="45.88130337562116" x2="-64.05005259390019" y2="44.00336613486378"/><line x1="-75.59966810308366" y1="44.210472807608035" x2="-64.3284351779083" y2="42.33253556685066"/><line x1="-75.87805068709177" y1="42.53964223959491" x2="-64.60681776191642" y2="40.661704998837536"/><line x1="-76.15643327109989" y1="40.868811671581774" x2="-64.88520034592453" y2="38.990874430824405"/><line x1="-76.434815855108" y1="39.19798110356865" x2="-65.16358292993264" y2="37.32004386281129"/><line x1="-76.71319843911611" y1="37.52715053555553" x2="-65.44196551394076" y2="35.64921329479816"/><line x1="-76.99158102312423" y1="35.8563199675424" x2="-65.72034809794887" y2="33.97838272678503"/><line x1="-77.26996360713234" y1="34.18548939952927" x2="-65.99873068195699" y2="32.30755215877191"/><line x1="-77.54834619114045" y1="32.51465883151615" x2="-66.2771132659651" y2="30.636721590758782"/><line x1="-77.82672877514857" y1="30.843828263503024" x2="-66.55549584997321" y2="28.96589102274566"/><line x1="-78.09613147525717" y1="29.171501527457128" x2="-67.41109399808491" y2="27.39123224099326"/><line x1="-78.3638355536006" y1="27.49889177844433" x2="-71.43624565980735" y2="26.344663209430326"/><line x1="-60.036455143290844" y1="54.09795076049794" x2="-64.54538332168593" y2="27.03571532547269"/><line x1="-63.60995356008453" y1="25.410452163435572" x2="-58.491018929822054" y2="56.133898769758645"/><line x1="-62.42725525917839" y1="25.26927549858494" x2="-57.28794224746492" y2="56.11503156178827"/><line x1="-61.24455695827224" y1="25.128098833734303" x2="-56.124659822548054" y2="55.857322322806866"/><line x1="-60.0618586573661" y1="24.986922168883666" x2="-54.96137739763119" y2="55.59961308382546"/><line x1="-58.740425562176355" y1="25.67842092430751" x2="-53.798094972714324" y2="55.341903844844055"/><line x1="-57.37673938066501" y1="26.623519410011067" x2="-52.634812547797466" y2="55.08419460586265"/><line x1="-55.97052962489304" y1="27.823841073518622" x2="-51.471530122880594" y2="54.82648536688124"/><line x1="-54.56431986912106" y1="29.02416273702618" x2="-50.308247697963736" y2="54.568776127899845"/><line x1="-53.15811011334909" y1="30.224484400533736" x2="-49.14496527304687" y2="54.31106688891844"/><line x1="-51.75190035757711" y1="31.4248060640413" x2="-47.981682848130006" y2="54.053357649937034"/><line x1="-50.34569060180513" y1="32.62512772754886" x2="-46.81840042321314" y2="53.795648410955636"/><line x1="-48.93948084603316" y1="33.82544939105641" x2="-45.659798022692144" y2="53.50985003037968"/><line x1="-47.53327109026119" y1="35.02577105456397" x2="-44.59891859803368" y2="52.63752596663251"/><line x1="-46.118367489969515" y1="36.27827249515353" x2="-43.707984229126474" y2="50.74520492626547"/><line x1="-44.664111470985596" y1="37.766964085031844" x2="-43.0950555896533" y2="47.184315169661396"/><line x1="-42.93920355285627" y1="40.88008727501978" x2="-42.48212695018013" y2="43.62342541305731"/></g><g fill-rule="nonzero" stroke="#99948A" stroke-width="0.3" stroke-linecap="butt"><line x1="-82.41728453471023" y1="84.61959459821321" x2="-75.96677615803792" y2="69.22713316030158"/><line x1="-81.96285927622458" y1="87.23887826153617" x2="-74.30863449570748" y2="68.97406053068993"/><line x1="-80.96077234303671" y1="88.55130970227125" x2="-72.65049283337707" y2="68.72098790107827"/><line x1="-79.95868540984884" y1="89.86374114300637" x2="-71.31460882573936" y2="69.23689939384494"/><line x1="-78.95659847666097" y1="91.17617258374146" x2="-69.99437960214553" y2="69.79016695928735"/><line x1="-77.9545115434731" y1="92.48860402447656" x2="-68.67415037855172" y2="70.34343452472976"/><line x1="-76.95242461028523" y1="93.80103546521167" x2="-67.35392115495789" y2="70.89670209017217"/><line x1="-75.80711540470693" y1="94.77170418336941" x2="-66.03369193136406" y2="71.44996965561458"/><line x1="-74.52457255879725" y1="95.41490049261985" x2="-64.71346270777025" y2="72.00323722105699"/><line x1="-73.12176456210949" y1="95.77111528234073" x2="-63.39323348417642" y2="72.5565047864994"/><line x1="-71.65295410319897" y1="95.96983235323913" x2="-62.07300426058259" y2="73.10977235194181"/><line x1="-70.18414364428845" y1="96.16854942413752" x2="-60.75277503698877" y2="73.66303991738422"/><line x1="-68.71533318537794" y1="96.36726649503592" x2="-59.43254581339495" y2="74.21630748282662"/><line x1="-67.24652272646743" y1="96.56598356593432" x2="-58.112316589801125" y2="74.76957504826903"/><line x1="-65.77771226755692" y1="96.76470063683271" x2="-56.792087366207305" y2="75.32284261371144"/><line x1="-64.3089018086464" y1="96.96341770773113" x2="-55.47185814261348" y2="75.87611017915386"/><line x1="-62.84009134973589" y1="97.16213477862952" x2="-54.15162891901966" y2="76.42937774459627"/><line x1="-61.371280890825375" y1="97.36085184952792" x2="-52.831399695425844" y2="76.98264531003868"/><line x1="-59.84111173329516" y1="97.41315233630098" x2="-51.511170471832024" y2="77.53591287548109"/><line x1="-58.15785668862297" y1="97.1001531479286" x2="-50.190941248238204" y2="78.0891804409235"/><line x1="-56.196000910464264" y1="96.12234573106475" x2="-48.87071202464438" y2="78.64244800636591"/><line x1="-53.787161292276615" y1="94.07792757296119" x2="-47.83814919034998" y2="79.8821566312894"/><line x1="-47.90792974321175" y1="83.75232119663163" x2="-46.83527420641952" y2="81.1927075937803"/><line x1="-45.76896788404724" y1="77.44849651051936" x2="-73.76758957498826" y2="65.71513310524467"/><line x1="-74.16741371120189" y1="64.15723124695678" x2="-44.003578118269274" y2="76.79796937383931"/><line x1="-73.67180069892926" y1="62.97457962726088" x2="-43.371673356483" y2="75.67243344518835"/><line x1="-72.86451187057881" y1="61.92254178045151" x2="-42.73976859469673" y2="74.54689751653738"/><line x1="-71.02724178668032" y1="61.30213747994189" x2="-42.603421418457735" y2="73.21368860656435"/><line x1="-69.00495931234403" y1="60.75926619643032" x2="-42.58403732913263" y2="71.83146405507466"/><line x1="-66.83459447992024" y1="60.27845168630316" x2="-42.70421963522276" y2="70.3907515089027"/><line x1="-64.66422964749644" y1="59.797637176175996" x2="-42.82440194131291" y2="68.95003896273072"/><line x1="-62.49386481507264" y1="59.31682266604883" x2="-42.94458424740305" y2="67.50932641655874"/><line x1="-60.323499982648855" y1="58.83600815592167" x2="-43.064766553493186" y2="66.06861387038676"/><line x1="-58.15313515022506" y1="58.35519364579451" x2="-43.18494885958333" y2="64.62790132421478"/><line x1="-55.98277031780126" y1="57.87437913566735" x2="-43.30513116567347" y2="63.1871887780428"/><line x1="-53.81240548537747" y1="57.393564625540186" x2="-43.425313471763616" y2="61.74647623187082"/><line x1="-51.642040652953675" y1="56.912750115413026" x2="-43.54549577785376" y2="60.30576368569884"/><line x1="-49.47167582052988" y1="56.43193560528586" x2="-43.6656780839439" y2="58.86505113952687"/><line x1="-47.30131098810608" y1="55.9511210951587" x2="-43.785860390034046" y2="57.42433859335488"/></g><g><path fill="none" stroke="#1A1917" stroke-width="1.9" stroke-linejoin="round" stroke-linecap="round" d="M -21.36174897321471,6.455082488468048 M -12.88115056644715,-4.467758208770359 M -17.793666046071706,-13.041338560503467 M -24.034994551628678,-22.092449917976985 L -10.234181437600666,-32.44289713346012 L -1.6335133194696951,-33.48247355239454 L 2.8250635155738344,-26.7611308577793 M 5.6831059565835265,-22.911426100822943 L 10.642792446718733,-16.92503037710849 L 19.092494110754032,-6.859796376717028 L 22.73663228738316,0.059228602774670826 L 21.35694196757855,10.935372448575258 M 18.86734647742047,14.519594595680708 L 9.644610128466399,19.288708045809706 L -6.863141045218941,23.183758188776974 L -22.326731636459172,18.47887149171344 L -30.390589166787862,10.502322633824186 M -21.36174897321471,6.455082488468048"/><g stroke="#1A1917" stroke-width="3.8" stroke-linecap="butt"><line x1="3.875351339335726" y1="-25.17781298468574" x2="4.470940120127852" y2="-24.37452349502803" stroke="#CCC5B8" stroke-width="3.8" stroke-linecap="butt"/><line x1="1.6121139723256435" y1="-28.230313045385046" x2="3.875351339335726" y2="-25.17781298468574"/><line x1="4.470940120127852" y1="-24.37452349502803" x2="6.734177487137934" y2="-21.322023434328724"/></g><g stroke="#1A1917" stroke-width="3.8" stroke-linecap="butt"><line x1="21.117834173429863" y1="12.820266998086542" x2="20.555054632861687" y2="13.646874032122591" stroke="#CCC5B8" stroke-width="3.8" stroke-linecap="butt"/><line x1="23.25639642758893" y1="9.679160268749555" x2="21.117834173429863" y2="12.820266998086542"/><line x1="20.555054632861687" y1="13.646874032122591" x2="18.41649237870262" y2="16.787980761459576"/></g><polygon points="-11.306436263909209,-30.786786841417957 -12.50809448022765,-33.77891276309211 -9.5159685585535,-34.98057097941055 -8.314310342235059,-31.9884450577364" stroke="none" fill="#1A1917"/><polygon points="-3.573881645684253,-33.12553872560784 -2.222678596314415,-36.05317434490435 0.7049570229820936,-34.701971295534506 -0.6462460263877441,-31.774335676238" stroke="none" fill="#1A1917"/><polygon points="9.466445545205302,-18.04326698138755 11.94271768533699,-20.108424672220778 14.007875376170217,-17.63215253208909 11.531603236038528,-15.566994841255863" stroke="none" fill="#1A1917"/><polygon points="17.249474553731773,-7.5638635783273624 19.925955528545437,-9.361987487144686 21.72407943736276,-6.685506512331022 19.047598462549097,-4.887382603513697" stroke="none" fill="#1A1917"/><polygon points="21.330148064728995,-1.3243297962005411 24.502868020534237,-1.8993498671851985 25.077888091518894,1.273370088620041 21.90516813571365,1.8483901596046985" stroke="none" fill="#1A1917"/><polygon points="10.761858577011479,17.662612225701448 11.881046458416254,20.68655311237842 8.857105571739284,21.805740993783193 7.73791769033451,18.781800107106225" stroke="none" fill="#1A1917"/><polygon points="-5.215572975459324,22.09842360098457 -5.3181593186398715,25.321198188539963 -8.540933906195265,25.218611845359415 -8.438347563014718,21.995837257804023" stroke="none" fill="#1A1917"/><polygon points="-20.35960231570514,18.32776243381249 -22.01089850936455,21.09724268844619 -24.78037876399825,19.445946494786778 -23.129082570338838,16.67646624015308" stroke="none" fill="#1A1917"/></g><g><path fill="none" stroke="#1A1917" stroke-width="1.9" stroke-linejoin="round" stroke-linecap="round" d="M -30.390589166787862,10.502322633824186 L -40.56883774412048,0.5856647935264867 L -24.034994551628678,-22.092449917976985 L -19.171498677796095,-15.039457481914951 M -16.6135441718407,-10.981727805988214 L -12.88115056644715,-4.467758208770359 L -21.36174897321471,6.455082488468048 L -30.390589166787862,10.502322633824186"/><g stroke="#1A1917" stroke-width="3.8" stroke-linecap="butt"><line x1="-18.092901775622593" y1="-13.475287183443035" x2="-17.558139242416576" y2="-12.630284797009077" stroke="#CCC5B8" stroke-width="3.8" stroke-linecap="butt"/><line x1="-20.124999401805457" y1="-16.686296251892074" x2="-18.092901775622593" y2="-13.475287183443035"/><line x1="-17.558139242416576" y1="-12.630284797009077" x2="-15.526041616233712" y2="-9.419275728560038"/></g><polygon points="-28.066796133570907,9.547040263917307 -28.807516644012058,13.72451954279013 -32.98499592288488,12.983799032348983 -32.244275412443734,8.80631975347616" stroke="none" fill="#1A1917"/><polygon points="-39.04883585228547,2.58620789886077 -43.27643764165354,2.9431156047623066 -43.63334534755507,-1.2844861846057634 -39.405743558187005,-1.6413938905072998" stroke="none" fill="#1A1917"/><polygon points="-26.17382194858116,-20.77411921836933 -26.118075113636735,-25.016393642589627 -21.875800689416433,-24.960646807645197 -21.93154752436086,-20.7183723834249" stroke="none" fill="#1A1917"/><polygon points="-14.075942912636961,-6.677973066418548 -9.843673620271442,-6.381499396592927 -10.140147290097062,-2.149230104227409 -14.37241658246258,-2.445703774053029" stroke="none" fill="#1A1917"/><polygon points="-20.525585913116153,4.085818931071115 -17.904272354591683,7.42179183682077 -21.24024526034134,10.043105395345238 -23.86155881886581,6.707132489595583" stroke="none" fill="#1A1917"/><polygon points="-32.83947882286494,-8.520065018305797 -36.267728671965884,-11.019485545575936 -33.768308144695744,-14.447735394676883 -30.3400582955948,-11.948314867406744" stroke="none" fill="#1A1917"/></g><g id="labels" style="font: bold italic 1px &quot;Archivo Narrow&quot;, sans-serif" fill="#1A1917"><text text-anchor="middle" stroke="#CCC5B8" stroke-width="0.6307955047881577" x="1.5030652055955556" y="-3.0420864511573225">Market</text><text text-anchor="middle" x="1.5030652055955556" y="-3.0420864511573225">Market</text><text text-anchor="middle" stroke="#CCC5B8" stroke-width="0.6307955047881577" x="-10.131761311934904" y="8.87762043446009">Merchant</text><text text-anchor="middle" x="-10.131761311934904" y="8.87762043446009">Merchant</text><text text-anchor="middle" stroke="#CCC5B8" stroke-width="0.6307955047881577" x="15.580248000516502" y="-0.4127651940019925">Craftsmen</text><text text-anchor="middle" x="15.580248000516502" y="-0.4127651940019925">Craftsmen</text><text text-anchor="middle" stroke="#CCC5B8" stroke-width="0.6307955047881577" x="6.521031670183497" y="14.315713286938243">Gate</text><text text-anchor="middle" x="6.521031670183497" y="14.315713286938243">Gate</text><text text-anchor="middle" stroke="#CCC5B8" stroke-width="0.6307955047881577" x="-19.631578408077438" y="14.540241316207922">Craftsmen</text><text text-anchor="middle" x="-19.631578408077438" y="14.540241316207922">Craftsmen</text><text text-anchor="middle" stroke="#CCC5B8" stroke-width="0.6307955047881577" x="-7.04480900564577" y="-19.40229991923287">Gate</text><text text-anchor="middle" x="-7.04480900564577" y="-19.40229991923287">Gate</text><text text-anchor="middle" stroke="#CCC5B8" stroke-width="0.6307955047881577" x="-26.19553051465919" y="-4.074839164768395">Castle</text><text text-anchor="middle" x="-26.19553051465919" y="-4.074839164768395">Castle</text><text text-anchor="middle" stroke="#CCC5B8" stroke-width="0.6307955047881577" x="28.61862037364007" y="19.054955684856694">Gate</text><text text-anchor="middle" x="28.61862037364007" y="19.054955684856694">Gate</text></g></g></svg>