<svg width="133.57400503043544" height="149.1403689827898" xmlns="http://www.w3.org/2000/svg"><rect x="0" y="0" width="133.57400503043544" height="149.1403689827898" id="background" fill="#CCC5B8"/><g id="map" transform="translate(66.78700251521772 74.5701844913949)"><g fill="none"><path d="M 18.10957654973858,27.092494633820003 L 27.785726772562406,37.84551022418484 L 34.19709424115232,43.24733495301629 C 36.33645378700516,45.04982800231755 39.76756710028752,48.10759015095526 45.320543944625584,50.497995639093986 C 51.556888441313994,53.182572313676665 60.45422015630241,52.60481675415498 61.96205479428015,57.661713403646694 C 62.9607794996165,61.011183888655246 66.54665642630509,65.29977109538692 65.98566934936383,71.15590066395364 C 65.3309865412343,77.99011754399986 60.63240306308177,86.38303042537981 63.72559131591366,94.7487967269438 C 66.9373576832018,103.43526668859471 72.97951467547352,112.47387289681652 74.4038109617367,123.62886569524524 C 75.26162195771816,130.34718376914225 76.66646617705197,142.7577680610529 79.13919543439056,160.71607865767857 C 83.68472448501936,193.72819362130227 83.68472448501936,193.72819362130227 92.78943282366625,259.8515590289209" stroke="#67635C" stroke-width="2.3" stroke-linejoin="round" stroke-linecap="butt"/><path d="M 18.10957654973858,27.092494633820003 L 27.785726772562406,37.84551022418484 L 34.19709424115232,43.24733495301629 C 36.33645378700516,45.04982800231755 39.76756710028752,48.10759015095526 45.320543944625584,50.497995639093986 C 51.556888441313994,53.182572313676665 60.45422015630241,52.60481675415498 61.96205479428015,57.661713403646694 C 62.9607794996165,61.011183888655246 66.54665642630509,65.29977109538692 65.98566934936383,71.15590066395364 C 65.3309865412343,77.99011754399986 60.63240306308177,86.38303042537981 63.72559131591366,94.7487967269438 C 66.9373576832018,103.43526668859471 72.97951467547352,112.47387289681652 74.4038109617367,123.62886569524524 C 75.26162195771816,130.34718376914225 76.66646617705197,142.7577680610529 79.13919543439056,160.71607865767857 C 83.68472448501936,193.72819362130227 83.68472448501936,193.72819362130227 92.78943282366625,259.8515590289209" stroke="#CCC5B8" stroke-width="1.7" stroke-linejoin="round" stroke-linecap="round"/></g><g fill="none"><path d="M 1.3551502025417648,-36.33980965116588 C 6.542206537357124,-52.26162261159452 6.542206537357124,-52.26162261159452 9.353919778361714,-60.133614015327794 C 11.39938741133646,-65.86033727734824 14.73482881109766,-70.55144507560816 15.251818862209982,-75.24649993312102 C 15.856396894624913,-80.73698668761098 14.039545567978063,-86.38454850865847 12.866289920442359,-92.03126941793838 C 11.89556340745644,-96.70324496698696 9.236425119848171,-101.80448133383412 8.435646450236442,-108.05181679717353 C 7.323600919348026,-116.72752426242836 7.816493665530686,-126.09899075714026 7.24344414165037,-135.89832678569746 C 6.831684284699062,-142.93955626620433 6.7480780770821625,-150.2544662907199 5.538131009645629,-157.60028733427234 C 4.203412479286175,-165.70361989435406 -4.597275645299808,-175.78065042755182 -1.2708397328204413,-187.59017954449396 C 3.5419842405641955,-204.6766908568491 3.5419842405641955,-204.6766908568491 26.757750730858454,-232.93428550570326" stroke="#67635C" stroke-width="2.3" stroke-linejoin="round" stroke-linecap="butt"/><path d="M 1.3551502025417648,-36.33980965116588 C 6.542206537357124,-52.26162261159452 6.542206537357124,-52.26162261159452 9.353919778361714,-60.133614015327794 C 11.39938741133646,-65.86033727734824 14.73482881109766,-70.55144507560816 15.251818862209982,-75.24649993312102 C 15.856396894624913,-80.73698668761098 14.039545567978063,-86.38454850865847 12.866289920442359,-92.03126941793838 C 11.89556340745644,-96.70324496698696 9.236425119848171,-101.80448133383412 8.435646450236442,-108.05181679717353 C 7.323600919348026,-116.72752426242836 7.816493665530686,-126.09899075714026 7.24344414165037,-135.89832678569746 C 6.831684284699062,-142.93955626620433 6.7480780770821625,-150.2544662907199 5.538131009645629,-157.60028733427234 C 4.203412479286175,-165.70361989435406 -4.597275645299808,-175.78065042755182 -1.2708397328204413,-187.59017954449396 C 3.5419842405641955,-204.6766908568491 3.5419842405641955,-204.6766908568491 26.757750730858454,-232.93428550570326" stroke="#CCC5B8" stroke-width="1.7" stroke-linejoin="round" stroke-linecap="round"/></g><g fill-rule="nonzero" fill="#99948A" stroke="#1A1917" stroke-width="0.3"><path d="M 1.8715866174793068,-1.33822516417815 L 1.4432858770988362,-0.3042157079771797 L 0.4092764208978658,0.12408503240329116 L -0.6247330353031046,-0.30421570797717945 L -1.0530337756835755,-1.3382251641781497 L -0.6247330353031049,-2.3722346203791203 L 0.4092764208978654,-2.800535360759591 L 1.4432858770988357,-2.3722346203791203 Z"/></g><g fill="#A3858F" stroke="#301627" stroke-width="0.3"><polygon points="-0.7215949139677487,13.286422007786584 2.27311839756299,11.665342018894258 4.428530415532533,10.498587499623609 6.222381410533316,13.81247052232516 8.211883046148408,17.487790106992747 6.056471028178866,18.654544626263394 3.061757716648128,20.275624615155724 1.0722560810330355,16.600305030488137"/><polygon points="-0.7215949139677487,13.286422007786584 0.42154088429032854,15.398201818399098 1.6356573152904317,17.641108191050456 3.061757716648128,20.275624615155724 1.7623708082707825,20.97900083046446 -0.4647212640823706,22.18455676064699 -1.8908216654400665,19.550040336541723 -3.1049380964401694,17.307133963890365 -4.248073894698246,15.195354153277849 -2.020981822345094,13.98979822309532"/><polygon points="11.21138881864825,15.86411589228767 8.211883046148408,17.487790106992747 4.428530415532533,10.498587499623609 8.342777187384202,8.379751252760382"/><polygon points="-4.248073894698246,15.195354153277849 -8.778357429473083,6.826303582325528 7.870413163447324,7.147327679207431 8.342777187384202,8.379751252760382"/><polygon points="-0.4647212640823705,22.18455676064699 -11.166082685777564,27.977352614533643 -11.905050316796768,27.476621439102992 -9.488136810468216,6.812617509621381 -8.778357429473083,6.826303582325528"/></g><g fill="#A19E7C" stroke="#2F3014" stroke-width="0.3"><polygon points="-10.897606722174759,-6.516509416799079 -8.482978537714914,-14.220792027600744 -4.735478110472087,-13.046273826488925 -7.443183616291958,-5.433845681071193"/><polygon points="-8.482978537714914,-14.220792027600744 -10.897606722174759,-6.516509416799079 -14.928694985533287,-7.779907948039869 -12.514066801073444,-15.484190558841535"/><polygon points="-17.925004441068936,-17.18005287203986 -14.928017113564767,-16.24075580376843 -12.514066801073444,-15.484190558841535 -13.796827134637144,-11.391325166436722 -14.928694985533287,-7.779907948039869 -17.024940443451968,-8.436900119788575 -19.627488242473017,-9.25257441217623 -18.829441282745425,-12.96861569138401"/><polygon points="-19.627488242473017,-9.25257441217623 -12.0239114988621,-6.869508832249911 -13.309096425020496,-2.768907364085774 -20.533634593565505,-5.033177038853002"/><polygon points="-18.252204192297906,2.071250452025605 -16.42879026565313,-3.746662342065937 -13.309096425020496,-2.768907364085774 -15.161999449757522,3.1430954216253912"/><polygon points="-16.42879026565313,-3.746662342065937 -18.252204192297906,2.071250452025605 -21.79543051311746,0.8422738551539286 -20.533634593565505,-5.033177038853002"/><polygon points="-12.0239114988621,-6.869508832249911 -7.443183616291958,-5.433845681071193 -11.006626120484698,4.5843966850907805 -15.161999449757522,3.1430954216253912"/></g><g fill="#899E92" stroke="#17302A" stroke-width="0.3"><polygon points="0.36671860649784893,-14.892436719507097 -2.055598305838835,-13.366501973713763 -2.28614085023057,-14.629986052242131 -0.2685870347435042,-15.900940918998112"/><polygon points="-1.4398844706868839,-18.569018886083402 0.40529035645546374,-18.172604071911902 1.8951902939027812,-17.85251602488819 1.6364595808496547,-16.64821340634962 0.1465596434023373,-16.968301453373332 -0.09094958989598756,-15.862777535424216 -1.936124417038335,-16.25919234959572 -1.6986151837400103,-17.364716267544832"/><polygon points="-1.4398844706868839,-18.569018886083402 -1.1140445734598785,-20.085691710983962 -0.7282720683099402,-21.88133024430667 1.1525866102971285,-21.477249160717644 2.583945441793122,-21.169738004130394 4.257458785225183,-20.810202706286788 3.871686280075245,-19.01456417296408 3.54584638284824,-17.49789134806352 1.8723330394161786,-17.857426645907125 0.4409742079201848,-18.164937802494375"/><polygon points="4.257458785225183,-20.810202706286788 4.989090213140651,-20.65302001970727 6.309336998509815,-20.3693800218144 6.133940207129062,-19.552968190955603 5.87864734730069,-18.36466759858496 4.558400561931526,-18.64830759647783 3.8267691340160592,-18.805490283057352 4.08206199384443,-19.993790875427994"/><polygon points="7.640400264737993,-24.25350406640955 8.698615198820278,-20.14110193083051 7.0174703761039,-20.21724562394688 6.2331399434344705,-24.55583793231451"/><polygon points="-0.7282720683099402,-21.88133024430667 -0.21430461165778303,-24.273672253439173 0.12809756759797952,-25.867436813529714 2.151244222273731,-25.432786777469413 3.1405622204837647,-25.220243063644567 2.7981600412280017,-23.626478503554026 2.2841925845758446,-21.234136494421524 1.2948745863658113,-21.44668020824637"/><polygon points="2.992381272999423,-25.252078053964556 1.5021201926581593,-25.572243688429353 0.12809756759797963,-25.867436813529714 0.6532245299050787,-28.31172248919972 2.0272471549652584,-28.016529364099362 2.362001781670528,-29.57469719331366 3.8522628620117922,-29.254531558848864 3.5175082353065226,-27.696363729634566"/><polygon points="5.825400133123326,-24.643436190624342 4.391041505745398,-24.951591819220205 2.992381272999423,-25.252078053964556 3.1576740138176476,-26.021458999287155 4.553836157504962,-25.7093450178436 4.8144845533492635,-26.922573791223567 6.2421795900211325,-26.583401436234936 5.985632936401496,-25.389264864331327"/><polygon points="6.2421795900211325,-26.583401436234936 7.363299982369823,-25.330362610244666 7.640400264737993,-24.25350406640955 5.825400133123326,-24.643436190624342"/><polygon points="9.329239226038759,-26.497928309048582 12.699575822992133,-22.661500810878557 11.062568992252944,-21.63027092126172 8.372159168815491,-24.692743149499222"/><polygon points="8.105940657495069,-25.727313291371402 1.648533101402906,-32.944542090568774 1.8506868418097913,-33.885498330539356 2.6552477609884324,-34.09488002070142 9.329239226038759,-26.497928309048582"/><polygon points="10.165958961038505,-7.980765754683167 9.299159676450373,-6.721069299268445 8.753811208581784,-5.928528806729468 6.56363553075448,-7.4355924350366704 5.741597099325519,-8.001238485086075 6.286945567194108,-8.79377897762505 7.153744851782241,-10.053475433039775 7.975783283211202,-9.48782938299037"/><polygon points="8.753811208581784,-5.928528806729468 9.314129632417991,-6.742824740009358 10.165958961038505,-7.980765754683167 11.134109670013329,-7.314579596656243 13.220957765997973,-5.878615854067105 11.962973572606625,-4.920150696217424 10.153566994715524,-6.165206455883522 9.5085831841478,-5.409168919960234"/><polygon points="12.709120096995044,-10.277695246999043 11.024767873718716,-11.436700891457798 9.043597197352064,-12.799947820938305 9.992267066430742,-14.178624629612637 10.788590599536978,-15.335900540948787 12.80668457727521,-14.026313267961987 14.52242826293174,-12.912928004823016 13.694929452047363,-11.710345887526676"/><polygon points="13.220957765997973,-5.878615854067105 12.012626000035654,-6.710071008028327 10.819267751425219,-7.531222859100513 11.853643246604465,-9.034453385489648 12.670848007178478,-10.222075431961763 13.657851141641256,-9.542916887725868 14.657238577781634,-8.855236684333018 14.023328428187163,-7.5414893026795635"/><polygon points="7.806268280645831,-11.001770459385 6.548363365553625,-11.867336982014335 5.342390686833804,-12.697168844010822 6.4774899237066235,-14.346778517964427 7.026146596045465,-15.14412673648918 8.230853489455031,-16.894895375116747 9.482766767068101,-16.131827769407057 10.788590599536978,-15.335900540948787 9.544737207110757,-13.528241331539764 8.25889917817586,-14.353213399233605 7.701516197819082,-13.543183468258807 8.978252141822814,-12.70498358147405"/><polygon points="3.1186701199664846,-14.227314767815871 1.8698566998060837,-15.08662541723952 4.695030261944746,-16.866339078737877 4.857608887960055,-16.754468448227136"/><polygon points="8.230853489455031,-16.894895375116747 7.560638632173219,-15.920889864157719 7.081329454827375,-15.224322524422085 5.797625787981868,-16.107641212239233 4.695030261944746,-16.866339078737877 5.429641950992262,-17.329106561916696 6.456844624345793,-17.976191277487594 7.276529869034993,-17.476575794302452"/><polygon points="7.806268280645831,-11.001770459385 6.971706112742522,-9.788923352305813 5.741597099325519,-8.001238485086075 3.299924279962809,-9.681357726451331 0.9138127463785208,-11.323245152083107 -1.4845192813022408,-12.973541520595212 0.5139820617117148,-14.232494312151239 1.8698566998060837,-15.08662541723952 3.8401385599200064,-13.730871100838383 5.800381018665806,-12.382024913682333"/><polygon points="18.955020456109416,-10.24743012873733 18.047682549099004,-11.438309876150011 17.06689715806999,-12.725589344703378 16.018574929335408,-14.101510819290482 17.732622040758173,-15.407452852459203 18.535154998323,-16.018907179065874 19.679585424127975,-14.716211074685837 18.846403731562972,-14.081405306316896 19.888431441359362,-12.84078670125674 20.852425450549834,-11.693073553396289"/><polygon points="18.955020456109416,-10.24743012873733 17.422283432500482,-9.079629260496715 16.369755988106213,-8.277702743111101 15.574877805670063,-9.320979257637411 15.22885083838029,-9.775139173386744 16.281378282774558,-10.577065690772358 17.81411530638349,-11.744866559012973 18.160142273673262,-11.29070664326364"/><polygon points="17.81411530638349,-11.744866559012973 16.80124121999783,-10.973152155772079 15.115542757904574,-13.1856290546663 16.018574929335408,-14.101510819290482"/><polygon points="16.80124121999783,-10.973152155772079 15.22885083838029,-9.775139173386744 15.115542757904574,-13.1856290546663"/><polygon points="15.002314319267745,-20.040311788929756 13.507120366503708,-18.726770245150355 12.637561725702264,-17.96285503713767 11.717770854797152,-19.00984571245951 10.428094608176494,-20.47787398617696 11.419886678543973,-21.10265184784665 13.125259308325465,-22.176948665515418 14.220905060195001,-20.929783769722782"/><polygon points="12.637561725702264,-17.96285503713767 11.875179657776075,-17.293095427287547 10.58846815826827,-16.16270762285739 9.174170069375187,-17.772591954215706 8.3790010407425,-18.677726571896677 9.665712540250304,-19.808114376326838 10.46088156888299,-18.902979758645863 11.223263636809179,-19.572739368495984"/><polygon points="10.58846815826827,-16.16270762285739 12.300949919485756,-17.667138490950045 15.002314319267745,-20.040311788929756 17.252922931727607,-17.478461801523665 18.535154998323,-16.018907179065874 16.437763438252585,-14.420892877092763 14.936321559275285,-15.599106275395673 13.467753453966665,-14.407722372654819"/></g><g fill="#899E92" stroke="#17302A" stroke-width="0.3"><polygon points="24.127981359931532,-0.33431711444510315 21.67686306169326,-9.964296651065782 22.696132947148644,-10.740884049211655 26.63520719804099,-1.7520326863470235"/><polygon points="17.854273641837732,-6.3993700437376395 17.715174529282557,-6.945864110723802 21.13373887109833,-9.5504873076692 21.687457862833085,-7.375030266988436"/><polygon points="21.687457862833085,-7.375030266988436 22.56101189591012,-3.9430019276338566 20.79224304142631,-3.492797263325649 19.918689008349276,-6.924825602680229"/><polygon points="15.991368725254226,-2.2708309196628904 15.622406105288839,-3.7204151696757943 15.274707166166088,-5.0864584451323065 16.752302917639,-6.2122468712615415 17.715174529282557,-6.945864110723802 18.206478157851162,-5.0156252100621295 18.727827674914767,-2.9673417043830597 17.648174376174733,-2.6925375943398873"/><polygon points="15.991368725254226,-2.2708309196628904 18.039940936435574,-2.7922539209262034 20.357838908329317,-3.3822283970663527 22.56101189591012,-3.9430019276338566 23.193757172935367,-1.4570655801201267 20.990584185354564,-0.896292049552623 21.333323525460347,0.45026590074534534 19.015425553566605,1.0402403768854938 16.966853342385257,1.5616633781488063 16.624114002279473,0.21510542785083864"/><polygon points="16.32167344015007,-0.9731262566188807 16.493984638948813,-0.2961481933588922 16.966853342385257,1.561663378148806 15.419496616140595,1.9555120224971494 13.643902747980594,2.4074538572576714 11.851305910919855,2.8637234569982217 11.378437207483415,1.005911885490527 11.206126008684675,0.3289338222305398 12.998722845745412,-0.12733577751001235 14.774316713905412,-0.5792776122705361"/><polygon points="15.274707166166088,-5.0864584451323065 15.959571668372623,-2.395755533588984 16.32167344015007,-0.9731262566188805 15.066444338306722,-0.6536328445810504 13.203690837463022,-0.17950627207250447 12.958232977141837,-1.1438637140183485 12.493984005101817,-2.967809993500605 14.15525106883903,-4.233538614607394"/><polygon points="12.757557559577794,-1.9322794204465092 13.203690837463022,-0.1795062720725047 12.204908423073846,0.07471377507901744 11.75877514518862,-1.6780593732949873"/><polygon points="10.4069071798402,3.231366207041274 11.601090044518271,2.9274108912564407 14.00965379017255,2.3143592594231492 14.53437924443447,4.375906182930746 11.64237244765308,4.898766339555247 11.684616523618045,6.9160444771659195 10.005461042949747,7.12952296104667 10.208495114125958,5.158004086860233"/><polygon points="18.867739588437225,1.0778308795594613 23.53649651304115,-0.11050762982215821 23.973486911560755,1.6063448772429347 19.30472998695683,2.7946833866245555"/><polygon points="21.753566002517562,2.1713812555763976 22.76052970009941,1.9150788267479075 23.973486911560755,1.6063448772429347 24.409049572717286,3.3175880746309137 24.89740500594744,5.236244074214477 23.646349319721764,5.395296332460125 22.607757316822617,5.527337140296062 22.156257371217816,3.753479370932328"/><polygon points="20.082004394169648,5.848447311922775 19.519741186870466,3.6394216666173196 19.30472998695683,2.7946833866245555 20.699335544847223,2.439714490920183 21.753566002517562,2.1713812555763976 21.989854110990237,3.0997124793178785 22.607757316822617,5.527337140296062 21.520413924823,5.665575928457267"/><polygon points="14.646882667665004,4.817910823950518 15.751247851437995,4.536816798818959 16.89022036740031,4.2469141708383615 17.052001243685822,4.882520591452901 17.385128159952053,6.191313149138555 16.210380997327324,6.340663966324662 15.071328168609385,6.485476804524737 14.785630058818771,5.363023044168789"/><polygon points="16.252991489907856,1.7433626063109924 17.63380592190349,1.3919039653174852 18.867739588437225,1.0778308795594613 19.269320345350508,2.6555656115612116 19.755387301051744,4.56523061638563 18.49312137880286,4.767991635745521 18.809313391259092,6.01025016393853 17.385128159952053,6.191313149138555 17.080602173168653,4.994888226195775 16.62741089063437,3.2143855143859126"/><polygon points="26.062765056139305,14.099220123432557 25.88722915359,10.978622459217284 27.233335305662656,10.902903002960283 27.408871208211963,14.023500667175556"/><polygon points="29.63030180780523,10.768071882896667 30.918479821565782,10.695610926816803 32.06180263214128,10.63129818193431 31.815738078853116,11.845379746922303 31.5433269969057,13.189454983567511 30.726337294676448,13.518234621224114 30.827290454441133,12.03520644734564 29.71360979859867,12.249083560308138"/><polygon points="30.78065878893842,13.833835147978867 26.262565554028342,17.65118275880533 26.062765056139305,14.099220123432557"/><polygon points="28.560163563321687,10.828267942373365 27.39105693994523,10.89403104559685 25.88722915359,10.978622459217284 25.789144394246822,9.23491609227928 25.693758819804298,7.539194610335905 25.595286193564665,5.788592921623074 27.093160403677714,5.598161529711858 27.19364117660475,7.384463139472741 28.359680541970413,7.264171714435743 28.45852354173877,9.021357735765656"/><polygon points="32.06180263214128,10.63129818193431 30.764019564395888,10.704299429330675 28.560163563321687,10.828267942373365 28.481021078854607,9.421308747237822 28.44037925426259,8.698796822045402 30.144622077988238,8.602931915890933 31.148198300245816,8.546480018880587 31.458176688025155,9.253841565268724"/><polygon points="28.44037925426259,8.698796822045402 28.36652150814709,7.385787308521546 30.584879470549453,7.261003049540291 31.148198300245816,8.546480018880587"/><polygon points="28.36652150814709,7.385787308521546 28.257638594543042,5.450116252451892 29.71038073323912,5.265422700955941 30.584879470549453,7.261003049540291"/><polygon points="12.256570657556505,7.4844029894378385 12.584323452224817,10.062404722760396 11.197171054483416,10.238759559576058 10.239755365459324,7.740809662781193"/><polygon points="16.374679906409742,9.580519895224965 14.80736491667042,9.779779601443451 12.584323452224817,10.062404722760396 12.450054526255666,9.006287034335703 12.256570657556505,7.4844029894378385 14.479612122002106,7.201777868120893 16.04692711174143,7.002518161902408 16.24041098044059,8.524402206800271"/><polygon points="19.494594237223033,6.564200948668293 19.66249223945217,7.884834510942403 19.822347031891344,9.142202681990849 18.46326443559182,9.314988880450127 16.374679906409742,9.580519895224965 16.214825113970566,8.323151724176519 16.04692711174143,7.002518161902408 18.13551164092351,6.736987147127571"/><polygon points="15.959638842062937,16.798918499969837 15.740331496793896,15.07391500516784 15.435429634720911,12.675651613659904 16.665972028862235,12.519207301220339 18.550527071316168,12.279615460033142 18.83519456679463,14.518721605586398 19.039947900517546,16.129247763800997 17.176438945634924,16.53438159615078"/><polygon points="18.550527071316168,12.279615460033142 20.19464606780965,12.070591319784212 20.665705919698954,15.775801876106915 19.039947900517546,16.129247763800997"/><polygon points="15.063130598802607,9.74726297586654 15.322826107757248,11.78994722787629 15.568249132874191,13.720368552853992 15.747723635839598,15.132059276041462 14.83775616212927,15.247747476988263 14.658281659163864,13.836056753800793 13.017496781807965,14.044657012695815 12.772073756691022,12.114235687718114 12.512378247736383,10.071551435708367 14.153163125092279,9.862951176813343"/><polygon points="21.388063743929514,6.323475772102001 21.88482279888092,10.230828281496823 19.991353292174438,10.471553458063115 19.494594237223033,6.564200948668293"/><polygon points="21.59065844822257,7.91702282135912 21.388063743929514,6.323475772102001 24.987666501699767,5.8658423080490305 25.078106751454182,7.473648050554646"/><polygon points="21.88482279888092,10.230828281496823 21.700799421040262,8.783357520720577 21.59065844822257,7.91702282135912 23.396587368953785,7.687427067760017 25.078106751454182,7.473648050554646 25.127274754757064,8.347734513966296 25.2094245834539,9.808156910888899 23.60642380644608,10.011953509521383"/><polygon points="20.336295160569005,13.18475910903752 20.119964546587905,11.483169658432214 19.991353292174438,10.471553458063115 21.809473012580373,10.24040783403104 23.553585788906688,10.018671041045673 23.63359218678068,11.03646659240564 25.266837900405946,10.82882482083444 25.36340999406579,12.545639703297795 23.768166981602718,12.748450022915392 22.087880392990122,12.962072309565947"/><polygon points="20.665705919698954,15.775801876106915 20.336295160569005,13.18475910903752 25.36340999406579,12.545639703297795 25.4861590803777,14.727817289002305"/><polygon points="14.483904385561859,17.935943055603083 16.877528829648952,17.41556012870687 18.3432464545386,17.096907622659977 21.060929960642927,16.506073040911915 21.365470023834366,17.906877144548933 21.788758289275627,19.853891711492057 19.445996016152865,20.363217011758458 18.182483194689407,20.63790943555463 16.119074033528452,21.086502322096162 15.16809686382932,19.25420930103577"/><polygon points="22.07844165001784,21.186358895712623 18.105354147228304,24.54322988039914 17.045406778664095,22.871311756195126 20.210669023913237,20.196974233414572"/><polygon points="21.639302750214377,19.16643558426101 21.37853309034195,17.966963810907842 21.060929960642927,16.506073040911915 22.298375751741638,16.23704768723203 23.15872112577363,16.05000537782282 23.476324255472655,17.510896147818748 22.61597888144066,17.69793845722796 22.876748541313088,18.897410230581126"/><polygon points="23.15872112577363,16.05000537782282 24.378161377609388,15.78489449587435 25.531515935665492,15.534150891482712 25.60089356037212,16.7675148384821 25.67836544172004,18.14477480903867 24.73476325832217,18.41969508076404 23.73709391534508,18.710367921171915 23.431967740035372,17.306867856117357"/><polygon points="25.449594566451246,18.33806386013356 22.07844165001784,21.186358895712623 21.639302750214377,19.16643558426101"/></g><g fill="#A19E7C" stroke="#2F3014" stroke-width="0.3"><polygon points="-12.35177437997357,14.079936797969546 -15.988922563882866,13.65452686288591 -20.244266642637125,13.15681119204523 -19.868710038645713,9.945896477761544 -19.097443637324236,3.3517623038025697 -14.952058478673624,4.7895991461927006 -11.408894912496269,6.018553976465345 -12.043004317689725,11.44003025450704"/><polygon points="-22.882575519781348,12.848227996804019 -21.667578099036565,2.460304965698567 -19.097443637324236,3.3517623038025697 -20.244266642637125,13.15681119204523"/><polygon points="-22.882575519781348,12.848227996804019 -26.17028626048735,12.46368913777017 -28.073346554115552,12.241102453082924 -27.57521870136286,7.982234322422304 -27.280132393192474,5.4593204425491795 -26.90106878738392,2.2184217428475836 -24.982346451108835,2.307101893456764 -21.667578099036565,2.460304965698567 -22.060455381559525,5.819307134622235 -22.366295101034645,8.43415998247019"/><polygon points="-12.35177437997357,14.079936797969546 -13.067882490892721,20.202481431536345 -16.47534321179093,19.803936315752992 -15.759235100871777,13.681391682186193"/><polygon points="-21.195097202534132,25.267246178906543 -20.855516165479134,22.363913533485817 -20.501022633253093,19.333082796798745 -15.225334832126652,19.950140417636856 -13.067882490892721,20.202481431536345 -13.480811181200972,23.732918104914518 -13.87636918194674,27.11483974188903 -16.000613660116453,26.57857983264971"/><polygon points="-19.784914522333942,13.210538163231947 -21.195097202534132,25.267246178906543 -25.46460847186874,23.590751213595325 -24.19024688822324,12.695279487743917"/></g><g fill="#8B8595" stroke="#18162E" stroke-width="0.3"><polygon points="0.4539368959783623,26.442619806450992 1.5147203610312006,28.979684668100685 2.7826810378060025,32.012253128091416 3.7594073171918865,34.34827928660279 1.7222514063008942,35.71139100182891 -0.2080870972070752,37.003028531591134 -2.4931966849648823,38.53205222241205 -4.74488498253668,36.04321133159266 -1.9938210610678748,34.5700361176347 0.3301307711213224,33.32557639756195 -1.4770840647939107,30.228373870987593 -2.9890107758125213,27.637235763718454"/><polygon points="4.036738971950267,20.955695467292667 4.4621035400938895,21.741495639524537 5.7795887895223546,24.17536111269267 4.478098986101151,24.879875654351785 2.2914407282867773,26.06354419806195 1.194521795701502,26.65732168060241 0.12154712172026166,24.091099230422866 -0.2248745243855046,23.2625661559504 0.7946622749222274,22.7106766989752 2.827062751498535,21.61051003884538"/><polygon points="1.194521795701502,26.65732168060241 2.5205849676403442,25.939505232610482 5.7795887895223546,24.17536111269267 7.088043489827122,26.592543938578448 7.98554692496573,28.250553107016017 4.4355462204938085,30.172217888888426 2.991078692426088,30.954128262525643 2.2601418898071235,29.20595425802343"/><polygon points="2.991078692426088,30.954128262525643 4.365515029756596,30.210126746963514 5.55594423117263,29.565730854649463 6.31728663316607,30.972201998272944 6.978740489344075,32.194143347023484 5.720582113557155,33.03600842591915 4.267947561463429,34.00800235398093 3.6743349254955424,32.58826514109897"/><polygon points="7.98554692496573,28.250553107016017 8.696503135114249,29.563942971202806 9.28494476342695,30.651004676634734 7.6855759840355535,31.721182127707582 6.978740489344075,32.194143347023484 6.3344170018530574,31.003847903157258 5.55594423117263,29.565730854649463 6.300600479220708,29.16263806521068"/><polygon points="9.28494476342695,30.651004676634734 8.422451907307448,29.05767254310681 7.279586332331048,26.946391931339676 6.285358987819006,25.109699181013074 7.554349036507936,24.422777208845517 8.527213640176338,26.220005352358395 10.27732486156745,25.201065405349247 11.361187272998874,27.203346115506776 9.645522717856515,28.285921349275267 10.489483382655312,29.845017911196468"/><polygon points="10.850821571367899,26.260518512368357 10.019065612201924,24.723968397675158 9.334426877125024,23.459196302792098 11.023606708600148,22.544819753991447 11.69997648083126,23.814067953530866 12.918069729539402,23.1546971274546 12.24769216546415,21.882205262254985 13.833262938885138,21.023913738365682 14.495878732679643,22.30060715782829 15.300879394910892,23.851640287069408 13.732500034520804,24.70062585985552 12.521686617622995,25.356056011669317"/><polygon points="10.850821571367899,26.260518512368357 13.858340846046957,24.632506477420634 15.300879394910892,23.851640287069408 15.479905988785227,24.915536178049805 15.720425531675218,26.3448643456893 14.57248005270663,27.112983232642115 12.179151876487225,28.714418674055413 11.417639923932432,27.307634310031613"/><polygon points="6.285358987819006,25.109699181013074 5.05996925899864,22.8459670037879 4.036738971950267,20.955695467292667 6.94885056064658,19.37932894042668 9.441252478885982,18.03015709870888 11.6569748318593,16.830755755843608 12.64729062053722,18.73884436833317 13.833262938885138,21.023913738365682 11.63857240568785,22.211930264514898 9.16982857253456,23.548295655558128"/></g><g fill="#9A8595" stroke="#28162E" stroke-width="0.3"><polygon points="-1.3931553959366036,-28.308255090139852 -4.666964667230641,-29.011595757280247 -3.781180602254236,-33.1346163926069 -0.17488446849723616,-33.978887890905874"/><polygon points="-4.666964667230641,-29.011595757280247 -9.179491934327306,-29.981060889644077 -8.0300965100204,-32.139900909866185 -4.172914577126234,-31.311229264956534"/><polygon points="-6.3230280642955785,-29.367382132721126 -7.564969096395046,-23.586573123313862 -10.421432966426774,-24.200251880236813 -9.179491934327306,-29.981060889644077"/><polygon points="-7.060759120720063,-25.933497409314512 -6.661958039857154,-27.78977948843743 -6.3230280642955785,-29.367382132721126 -4.051090162342075,-28.87928212834002 -1.3931553959366036,-28.308255090139852 -1.7320853714981796,-26.730652445856155 -2.1308864523610884,-24.87437036673324 -4.78882121876656,-25.445397404933406"/><polygon points="-2.1308864523610884,-24.87437036673324 -2.6350964280360696,-22.527446080732588 -7.564969096395046,-23.586573123313862 -7.060759120720063,-25.933497409314512"/><polygon points="-10.37427452598851,-15.940796402844686 -11.45912028741793,-16.280801992419846 -13.067782098604978,-22.677920265136706 -12.068837302632893,-24.554177954989235 -8.680192559209711,-23.826166193449144"/><polygon points="-8.680192559209711,-23.826166193449144 -5.511740589944878,-23.14546034372071 -2.6350964280360696,-22.527446080732588 -2.9326471806542873,-21.142449509209744 -3.4894182713947526,-18.55087128259373 -6.366062433303562,-19.16888554558185 -5.809291342563096,-21.760463772197866 -8.977743311827929,-22.4411696219263"/><polygon points="-9.534514402568396,-19.849591395310284 -7.548979319863127,-19.42302177748139 -6.007880162047982,-19.091934160590757 -6.455100800447212,-17.01027566889831 -6.917614830863281,-14.857431689271797 -8.428135906115177,-15.330849779673894 -10.37427452598851,-15.940796402844686 -9.947335933254074,-17.928048937025572"/><polygon points="-6.917614830863281,-14.857431689271797 -6.007880162047982,-19.091934160590757 -3.489418271394753,-18.55087128259373 -4.44912359604635,-14.083772568781562"/><polygon points="-21.326288404619433,-24.389387788769184 -23.095640798785304,-24.76951301604829 -26.208030472270227,-28.81388397988253 -26.171789761586318,-28.903862887218352 -22.096452247437387,-29.516085035272425"/><polygon points="-21.326288404619433,-24.389387788769184 -22.096452247437387,-29.516085035272425 -19.454374683466106,-29.912994100085864 -18.534480895359778,-23.78959971519149"/><polygon points="-15.766414272734682,-30.467022088383146 -14.637519008648027,-22.95238179988601 -18.534480895359778,-23.78959971519149 -19.454374683466106,-29.912994100085864"/><polygon points="-11.30779375452511,-27.336821962333957 -12.840215098053884,-28.15270366911323 -11.10002438271732,-31.421198809811123 -9.567603039188544,-30.605317103031844"/><polygon points="-12.840215098053884,-28.15270366911323 -14.706496467110822,-29.14633693789179 -14.118027454854346,-30.714652846562807 -11.970119740385604,-29.786951239462176"/><polygon points="-11.30779375452511,-27.336821962333957 -12.863130321100046,-24.415527206996337 -15.030688156516034,-25.569564113210163 -13.475351589941098,-28.490858868547782"/><polygon points="-17.514736282468927,-18.17871537314336 -17.566273713238726,-20.16873851428616 -17.655153972678356,-23.60068633228424 -16.007279747768006,-23.24665930729088 -13.744297872700352,-22.760483403369765 -13.670840681031383,-19.924068993082905 -13.628246352953898,-18.279367321122656 -15.87712896159167,-18.22112597238863"/></g><g fill="#A19E7C" stroke="#2F3014" stroke-width="0.3"><polygon points="-23.645944746653658,-23.13253949317375 -24.23587019534589,-20.385599238249668 -25.15809296840746,-16.091343303120183 -27.548528922051634,-16.604706853709146 -29.88749243648271,-17.107016322672695 -28.79553401550584,-21.364820289807607 -26.54051466570964,-20.880538442267042 -25.895710308421215,-23.615693051427872"/><polygon points="-19.675998216813717,-14.914023483255136 -25.15809296840746,-16.091343303120183 -24.402018857530557,-19.611941398146968 -19.062858767782743,-17.769057857783103"/><polygon points="-25.124887988831354,-11.02125187923518 -24.57855644954856,-13.565200612278378 -24.085516843133448,-15.8609997596723 -21.867409923455984,-15.384645125641777 -19.675998216813717,-14.914023483255136 -20.16903782322883,-12.618224335861216 -20.71536936251162,-10.074275602818018 -22.906781069153887,-10.544897245204657"/><polygon points="-24.085516843133448,-15.8609997596723 -24.63328657676395,-13.310354190686722 -25.124887988831354,-11.02125187923518 -28.9469477861143,-11.842067088739253 -30.589138234797424,-12.194739461405858 -30.257274043021095,-14.518146505617473 -29.88749243648271,-17.107016322672695 -28.143804194912025,-16.73254655892591"/><polygon points="-28.097032438376566,-24.08844302948152 -27.456220169356335,-26.23326296650954 -25.01537206852708,-25.504005753433905 -25.598610123956284,-23.551888620547786"/><polygon points="-24.85658690585209,-10.96363226538394 -25.627254327049158,-7.37508159828227 -26.2101780047981,-4.6607445248322446 -28.1234511514329,-5.07163388344719 -30.57376223849817,-5.597856055509857 -30.591921290156336,-8.358028177019175 -27.804080411701936,-7.806067960170187 -27.381849108034995,-11.4211883246051"/><polygon points="-22.06896046145763,-3.771387862266321 -23.593313635451935,-4.098753820998784 -26.2101780047981,-4.6607445248322446 -25.619141382667742,-7.412858869218239 -24.85658690585209,-10.96363226538394 -22.239722536505926,-10.40164156155048 -20.71536936251162,-10.074275602818018 -21.47792383932727,-6.523502206652315"/><polygon points="-22.06896046145763,-3.771387862266321 -22.540563769882468,-1.5754051069208672 -23.109152114398228,1.0721806439454675 -26.721962977154977,0.6448756966249922 -30.535659113885515,0.1938110578416401 -30.556486999288307,-2.972023244575078 -30.57376223849817,-5.597856055509857 -26.206334902470914,-4.659919190586015"/></g><g fill="#899E92" stroke="#17302A" stroke-width="0.3"><polygon points="18.065241347870064,-24.43062265996302 16.601134691177133,-23.14439158971628 14.914883641469968,-21.663004641262283 13.20580620791453,-23.60843396975159 12.147283965878973,-24.813341467845607 13.833535015586135,-26.294728416299606 15.297641672279065,-27.58095948654634 16.356163914314624,-26.376051988452325"/><polygon points="14.914883641469968,-21.663004641262283 16.312117044249156,-22.890486947162408 17.83673087894107,-24.229874125920414 18.751355924547585,-23.18876366868842 20.478260062862763,-21.223042343131564 18.953646228170847,-19.88365516437356 17.55641282539166,-18.656172858473436 15.829508687076483,-20.62189418403029"/><polygon points="20.478260062862763,-21.223042343131564 21.461761768687012,-20.103530128199676 20.000838149951463,-18.820095385870612 19.017336444127213,-19.9396076008025"/><polygon points="19.184770817081116,-25.994052418886877 18.077527987760188,-27.254418176241273 16.704712068939422,-28.817083681416747 18.03331736524647,-29.984275568969856 19.158770979715285,-30.97299684855276 20.531586898536048,-29.410331343377287 21.638829727856976,-28.14996558602289 20.513376113388162,-27.161244306439986"/><polygon points="25.185553327031215,-27.82980133396401 24.05177734827849,-26.83376878134581 23.30906350063909,-26.181287882656303 22.748869443545125,-26.81895234824394 21.605378832492278,-28.12057866892299 22.348092680131675,-28.7730595676125 23.4818686588844,-29.769092120230702 24.62535926993725,-28.467465799551647"/><polygon points="19.1882479381051,-16.79866785302314 18.53991453121591,-17.53666064354155 20.68076223763324,-19.41741490695035 21.32909564452243,-18.67942211643194"/><polygon points="20.559003377697252,-15.238347775060845 20.050118382966737,-15.817607540674476 19.1882479381051,-16.79866785302314 20.01444515138993,-17.524489650923137 21.32909564452243,-18.67942211643194 22.190966089384066,-17.698361804083277 22.69985108411458,-17.119102038469645 21.38520059098208,-15.964169572960841"/><polygon points="22.659970939069648,-12.846833012856285 21.778698222069742,-13.84997877816105 20.559003377697252,-15.238347775060845 21.78636788177315,-16.316598701961382 22.69985108411458,-17.119102038469645 23.700598533318296,-15.97995913021556 24.423674003924408,-15.156888039573424 23.67111551093422,-14.171205378884837"/><polygon points="26.193783246396613,-20.26288196282123 27.33245616305562,-18.966739585575898 23.801669298795943,-15.8649110770656 22.66299638213694,-17.161053454310927"/><polygon points="27.33245616305562,-18.966739585575898 25.869479318092452,-20.632034560053 24.211549101892913,-22.51924341546065 25.66085766017696,-23.792474221097518 27.18315391834359,-22.059656427625185 28.406578658723273,-23.38920022207851 27.010598262841988,-24.978233668324332 28.34315891285206,-26.14890037023157 29.614431237255616,-24.701821135649173 30.736216675552416,-23.424901641489793 29.638407945168364,-21.98701868571771 28.526445786186486,-20.53059791622335"/><polygon points="32.746063673685995,-26.057349956338737 30.736216675552416,-23.424901641489793 28.04661523428265,-26.486453694697907 29.386384316799187,-27.66345307039991"/><polygon points="28.04661523428265,-26.486453694697907 25.92965254132202,-28.89617558871162 29.386384316799187,-27.66345307039991"/><polygon points="13.88194384163926,-26.33725601212677 13.433469724667157,-25.943267404251756 12.147283965878973,-24.813341467845607 11.252846350616625,-25.831472732744178 9.745264421079998,-27.547541322287064 11.031450179868182,-28.677467258693213 11.479924296840284,-29.071455866568225 12.987506226376912,-27.35538727702534"/><polygon points="9.745264421079998,-27.547541322287064 8.69997481807849,-28.737386212002598 7.801157136918189,-29.760503271278473 8.626956241623354,-30.48597532715513 9.232531527599697,-31.017978746875723 10.131349208759998,-29.994861687599847 11.176638811761507,-28.805016797884313 10.571063525785164,-28.27301337816372"/><polygon points="7.801157136918189,-29.760503271278473 6.619414348179935,-31.10567174334675 9.041403121398414,-33.23341100172767 10.325154092880556,-31.977857649886328"/><polygon points="13.686706229607726,-31.010133950032422 12.826251236360958,-30.25421637954421 12.269261377042366,-29.764895700894918 11.68777038104922,-30.426802303630964 10.774198527142731,-31.46671392107868 11.331188386461326,-31.956034599727975 12.191643379708093,-32.711952170216186 13.10521523361458,-31.672040552768472"/><polygon points="16.088725774406697,-28.275934095590966 15.22299345846705,-29.261390345250895 14.454747770172432,-30.135878337515013 15.35729527942141,-30.92877456776097 16.237577097186236,-31.70211018467557 17.005822785480852,-30.827622192411447 17.871555101420498,-29.842165942751514 16.991273283655673,-29.06883032583692"/><polygon points="14.454747770172432,-30.135878337515013 12.191643379708093,-32.711952170216186 16.237577097186236,-31.70211018467557"/><polygon points="6.619414348179935,-31.10567174334675 4.110352259702417,-33.961717278843814 9.041403121398414,-33.23341100172767"/></g><g fill-rule="nonzero" fill="#99948A" stroke="#1A1917" stroke-width="0.3"><path d="M 30.72368129387792,4.947294638429616 L 28.97410504975805,0.9548132063190686 L 26.560250569639845,-4.55353158521465 L 25.122698618616738,-7.83398277529197 L 23.551045440525648,-11.420449013808357 L 26.87579732348154,-12.877414314943755 L 30.431824470402915,-14.435728542697115 L 33.05395183241423,-15.584791304701383 L 37.35053698085453,-17.46763119622608 L 38.92219015894562,-13.881164957709693 L 40.35974210996872,-10.600713767632373 L 42.77359659008693,-5.092368976098655 L 44.523172834206804,-1.0998875439881086 L 40.2265876857665,0.7829523475365887 L 37.60446032375519,1.9320151095408544 L 34.04843317683381,3.4903293372942183 Z"/></g><g fill-rule="nonzero" fill="#99948A" stroke="#1A1917" stroke-width="0.6"><path d="M -28.20715545078352,45.08827794480908 L -30.067488696779378,43.10870622116934 L -32.68735567593047,40.32091827898872 L -28.18644911606646,36.0911214949447 L -25.61922430313335,33.67853213917044 L -22.99935732398226,36.46632008135106 L -20.15411858631368,33.792462825627084 L -18.29378534031782,35.77203454926682 L -21.139024077986402,38.4458918049908 L -17.968809567061157,41.819301927724254 L -20.536034379994266,44.23189128349852 L -23.70624889091951,40.85848116076506 Z"/></g><g fill="#A3857F" stroke="#301618" stroke-width="0.3"><polygon points="30.345902199581385,32.91376503710383 29.13583377568002,33.948220672525615 27.150918180077262,35.64507275390448 25.460228717897728,33.76622530666254 22.97744150205844,31.007127005717894 25.92482582633845,29.668579819175065 27.721646160570373,28.852558378300834 29.282807237391946,31.268556537932096"/><polygon points="28.377635449670116,20.969819767091735 29.977395280029214,22.86324546574366 26.4769548018238,25.820775866637128 25.12058661095881,23.72170799877564"/><polygon points="31.535713412601563,24.707622067089776 27.798186343057598,27.86546748716262 26.4769548018238,25.820775866637128 29.977395280029214,22.86324546574366"/><polygon points="28.88927447469788,26.94360455606243 32.428934557879145,31.13303551863597 30.806077034554324,32.52037368673517 27.798186343057598,27.86546748716262"/><polygon points="28.377635449670116,20.969819767091735 31.477142965839494,18.35103856971272 33.48302853083648,16.65626113352178 34.35631320605353,18.42407593262783 35.11710374140907,19.96416567150599 33.37732252020593,21.434110921153486 30.68900117939326,23.705479950944945 29.612878636476562,22.431814967620692"/><polygon points="35.0624280819581,28.88173124276115 32.91917162968294,26.345039941649773 34.131204533379396,25.320990487906972 36.26853216285694,27.85066461979412"/><polygon points="36.693776009802704,23.155867814582763 34.81298520499868,24.744952393384267 32.582814754709,22.105392402679435 35.11710374140907,19.96416567150599"/><polygon points="33.19206899413359,31.276220481438205 34.78943044488782,33.144755570743264 36.102031267379445,34.68018807659109 33.966101997784335,36.50613777179204 32.65350117529271,34.970705265944225 30.912583541691596,36.45896991388667 29.315222090937365,34.59043482458161 31.056139724538482,33.10217017663916"/><polygon points="32.22518436418322,37.994402419734485 30.879664587714387,39.144651850136206 27.555547883626737,36.09473397354214 29.315222090937365,34.59043482458161"/><polygon points="36.825537678406675,39.28739838409417 35.48619722236505,41.05233169348612 34.57266653934489,42.256148635131424 32.63839452326959,40.62644975109285 30.879664587714387,39.144651850136206 32.04231778177343,38.150730246300064 33.68240732029572,39.53256903031785 35.2130494778853,37.92881479343297"/><polygon points="37.38736959415924,36.18372991058407 38.33743270634541,37.29507904282713 36.825537678406675,39.28739838409417 35.28002444718773,37.98524379195208"/><polygon points="34.92513641275058,18.20549132240936 35.87955353731424,17.57859568493549 37.50123185989358,16.51341879356766 38.14405696327159,17.145103720183958 39.88784974832192,18.858676528199823 37.68247441138712,20.307246699600483 36.38453020238205,21.15978333307901 35.31821775528039,19.00121697098319"/><polygon points="37.50123185989358,16.51341879356766 34.92513641275058,18.20549132240936 33.96053267102893,16.25281676131647 35.686510688823894,14.730146790417372"/><polygon points="43.467569539241964,12.856483828080423 41.84272205598693,14.521965710322531 39.14530482770589,17.28684030245966 37.1935586395752,15.368917929571277 39.879376750356776,12.615932527185455 38.785334831510696,11.553826847107805 40.39930195687206,9.899497420176713 41.497237254853246,10.957612354983162"/><polygon points="44.386846063045404,17.643154501726816 41.52325137861103,14.849425752302153 43.467569539241964,12.856483828080423 46.62143912509595,15.895967591249427"/><polygon points="40.91826009250358,9.36756111141931 42.0808169047747,8.175930925898207 43.92096369641566,9.971181847026509 42.7693903829872,11.151553856925233"/><polygon points="43.57503507083734,6.644345155947055 45.4151818624783,8.439596077075356 43.92096369641566,9.971181847026509 42.0808169047747,8.175930925898207"/><polygon points="45.31392198520264,10.705410376125247 46.409180450327284,11.773946743615344 44.958317997001664,13.26109255547853 43.856522134893936,12.19925707305276"/><polygon points="44.23324062222869,9.651095458892428 45.31392198520264,10.705410376125247 43.856522134893936,12.19925707305276 42.7693903829872,11.151553856925233"/><polygon points="47.5911216905769,10.562447361798268 44.75308089240671,7.793649035349956 46.5575695720879,5.944033466078519 49.3956103702581,8.712831792526828"/><polygon points="44.75308089240671,7.793649035349956 43.57503507083734,6.644345155947055 46.44866338766519,3.69885276524771 47.62067266742353,4.854344149091054"/></g><g fill-rule="nonzero" stroke="#99948A" stroke-width="0.3" stroke-linecap="butt"><line x1="-59.72572410047565" y1="10.448944061224601" x2="-60.088618065060004" y2="8.751077983978906"/><line x1="-57.45505306675732" y1="15.451489120086176" x2="-58.94274375202188" y2="8.491054958999486"/><line x1="-55.19169600704357" y1="20.419814407983967" x2="-57.79686943898376" y2="8.231031934020065"/><line x1="-56.64809640275446" y1="7.984571117988539" x2="-53.02505424842516" y2="24.935639393022008"/><line x1="-55.49913380115804" y1="7.738997218350435" x2="-51.63224998606284" y2="25.830923497202917"/><line x1="-54.350171199561615" y1="7.493423318712332" x2="-50.2621033121973" y2="26.620199911382873"/><line x1="-53.2012085979652" y1="7.24784941907423" x2="-49.05636953577674" y2="26.640240382073877"/><line x1="-52.052245996368775" y1="7.002275519436126" x2="-47.850635759356166" y2="26.660280852764885"/><line x1="-50.90328339477235" y1="6.756701619798022" x2="-46.64490198293559" y2="26.68032132345589"/><line x1="-49.75432079317593" y1="6.511127720159919" x2="-45.43916820651502" y2="26.7003617941469"/><line x1="-48.605358191579505" y1="6.2655538205218155" x2="-44.23343443009445" y2="26.7204022648379"/><line x1="-47.45639558998308" y1="6.019979920883713" x2="-43.027700653673875" y2="26.74044273552891"/><line x1="-46.30743298838666" y1="5.774406021245609" x2="-41.82196687725331" y2="26.760483206219913"/><line x1="-45.158470386790235" y1="5.528832121607506" x2="-40.61623310083274" y2="26.78052367691092"/><line x1="-44.00950778519382" y1="5.283258221969403" x2="-39.410499324412164" y2="26.80056414760193"/><line x1="-42.860545183597395" y1="5.0376843223313" x2="-38.20476554799159" y2="26.820604618292933"/><line x1="-41.71158258200097" y1="4.792110422693196" x2="-36.99903177157102" y2="26.84064508898394"/><line x1="-40.56261998040455" y1="4.546536523055093" x2="-35.79329799515045" y2="26.860685559674945"/><line x1="-39.413657378808125" y1="4.300962623416989" x2="-34.58800533049279" y2="26.878662207950565"/><line x1="-38.24230815630202" y1="4.160128642146594" x2="-33.40797708382635" y2="26.778434635558675"/><line x1="-36.880057374600064" y1="4.912462674356993" x2="-32.281846709006814" y2="26.42603596864495"/><line x1="-35.517806592898104" y1="5.664796706567394" x2="-31.355015023221693" y2="25.141181773740684"/><line x1="-50.11257307855839" y1="28.923002923009996" x2="-35.51434731999747" y2="29.16563966519668"/><line x1="-35.43822460851044" y1="30.801679839133598" x2="-50.576787267713556" y2="30.550062170947864"/><line x1="-36.60350103883346" y1="32.4170867492408" x2="-49.826371538891046" y2="32.197309752121214"/><line x1="-37.768777469156475" y1="34.032493659348006" x2="-49.07595581006854" y2="33.84455733329456"/><line x1="-38.934053899479494" y1="35.64790056945521" x2="-48.32554008124603" y2="35.49180491446791"/><line x1="-40.09933032980251" y1="37.263307479562414" x2="-47.57512435242353" y2="37.13905249564126"/><line x1="-41.66725936070122" y1="38.872021910949776" x2="-45.092955816032045" y2="38.81508349655689"/></g><g fill-rule="nonzero" stroke="#99948A" stroke-width="0.3" stroke-linecap="butt"><line x1="-59.91497678431579" y1="4.482541983303392" x2="-62.449187476063166" y2="-15.30186970959679"/><line x1="-58.34422149701294" y1="5.593020726107447" x2="-61.25274813725547" y2="-17.113650292887016"/><line x1="-56.86539185266246" y1="5.985842183656256" x2="-59.9008983659929" y2="-17.712152127463973"/><line x1="-55.474946320125696" y1="5.688654850330529" x2="-58.495445521059665" y2="-17.89217838660489"/><line x1="-54.08450078758894" y1="5.391467517004802" x2="-57.08999267612643" y2="-18.072204645745803"/><line x1="-52.69405525505217" y1="5.094280183679071" x2="-55.68453983119319" y2="-18.252230904886716"/><line x1="-51.303609722515404" y1="4.797092850353344" x2="-54.279086986259955" y2="-18.43225716402763"/><line x1="-49.913164189978644" y1="4.499905517027617" x2="-52.873634141326725" y2="-18.61228342316854"/><line x1="-48.52271865744189" y1="4.2027181837018865" x2="-51.468181296393496" y2="-18.792309682309455"/><line x1="-47.132273124905126" y1="3.9055308503761594" x2="-50.06272845146026" y2="-18.97233594145037"/><line x1="-45.74182759236836" y1="3.6083435170504288" x2="-48.65727560652702" y2="-19.152362200591284"/><line x1="-44.35138205983159" y1="3.3111561837247017" x2="-47.251822761593786" y2="-19.332388459732197"/><line x1="-42.96093652729484" y1="3.0139688503989746" x2="-45.84636991666056" y2="-19.51241471887311"/><line x1="-41.570490994758075" y1="2.7167815170732474" x2="-44.44091707172732" y2="-19.692440978014023"/><line x1="-40.180045462221315" y1="2.419594183747517" x2="-43.008633871766655" y2="-19.663004467757727"/><line x1="-41.56210910527272" y1="-19.522385009547015" x2="-38.78959992968455" y2="2.1224068504217897"/><line x1="-40.028515802607906" y1="-18.702027370642703" x2="-37.50943662070046" y2="0.9642536470207013"/><line x1="-38.494922499943094" y1="-17.881669731738388" x2="-36.2915319778073" y2="-0.6799487571847997"/><line x1="-36.93766991568645" y1="-16.87660567955298" x2="-36.36887493031287" y2="-12.436061648966227"/><line x1="-46.96813491224451" y1="-21.687518116963073" x2="-63.2585426568655" y2="-19.600858876336897"/><line x1="-63.4719525534019" y1="-20.925312327006573" x2="-47.91095210475964" y2="-22.918540850722874"/><line x1="-63.448397095269165" y1="-22.28011897415728" x2="-49.94979958166528" y2="-24.009171658339213"/><line x1="-61.94970981958586" y1="-23.823877149501012" x2="-51.98864705857093" y2="-25.099802465955555"/><line x1="-60.119087334657124" y1="-25.410153331914877" x2="-54.027494535476585" y2="-26.190433273571898"/><line x1="-58.28846484972839" y1="-26.99642951432874" x2="-56.099060736990296" y2="-27.27687309775092"/></g><g fill="#899395" stroke="#17242E" stroke-width="0.3"><polygon points="23.85426367474473,40.26049374039579 25.422458200391198,38.58417938666649 26.20713912247402,39.31824953505599 24.758876070790993,41.106759957800485"/><polygon points="24.237383813005806,37.47554056683705 25.190624710315912,36.45657807679519 26.945358225974594,38.406597083972926 26.20713912247402,39.31824953505599"/><polygon points="25.190624710315912,36.45657807679519 22.669189287359337,39.15185492056634 21.49564754926336,38.05400491098697 24.111703912571834,35.25758344651906"/><polygon points="19.485372466193624,40.20287925124458 18.226546229562963,39.02524546875468 16.93769987562458,37.819527822688414 17.660886671299668,37.01156667865165 18.95854476662764,38.225527721654665 20.232674270502923,36.83352497197872 21.51508762171529,38.03322453460141 20.22597749946145,39.41121289390971"/><polygon points="22.450875849784186,37.032917995388026 21.23619966695179,35.89658665269374 19.833457794092475,34.58431958236816 20.821512987252554,33.480441291155906 22.174958594660417,34.87096769274432 22.976146336558468,33.9956488922346 24.111703912571834,35.25758344651906 23.346947665412518,36.07506613329788"/><polygon points="12.831994914467668,32.970126529287576 13.443700954841168,32.56081879518145 14.559186018111076,31.814419980160007 14.950487780211073,32.399216287535175 15.52392730183332,33.256215532690575 14.382401208242904,34.02003904913848 13.75641487307289,34.43890208386247 13.206942234361541,33.56586600092817"/><polygon points="15.52392730183332,33.256215532690575 16.769014176180104,35.11698457848195 17.531056394219867,36.25584854061191 16.67189893886484,37.21571927482293 15.986227947690654,37.981766887659624 15.139639799653118,36.63665532331554 15.862836440844662,35.96215055988402 14.540923989061607,33.913967511604724"/><polygon points="15.882934779743696,33.79274837699811 16.511602914511702,33.372090883425706 18.240469166374915,32.215263450937684 18.77627919203065,33.01602581596377 17.17521208308362,34.36384770363136 18.051862279657026,35.67399206655104 17.531056394219867,36.25584854061191 16.593015587585263,34.85395656613376"/><polygon points="15.882934779743696,33.79274837699811 14.924682111480033,32.36064999102205 14.559186018111076,31.814419980160007 15.823934620805593,30.968145216440654 16.916720404742296,30.236935054099582 17.282216498111254,30.783165064961622 16.18943071417455,31.514375227302693 17.147683382438213,32.946473613278755"/><polygon points="19.484102390628003,34.07386003217779 18.069842005565246,31.960262980089034 16.916720404742296,30.236935054099582 18.00690902031477,29.994883130030242 19.060214920338034,31.39139438177697 20.09687323749002,30.79593952329865 21.26057184878026,32.089146947897525 20.352055092868547,33.104163043148226"/><polygon points="8.101032154095611,36.13573144371021 8.745477797194589,37.09884857961514 9.408377114660164,38.089544534918105 8.34925747196058,38.79822784436518 7.6863581544950055,37.80753188906221 6.706918945212999,38.462899037637584 6.062473302114023,37.49978190173266 7.0419125113960295,36.84441475315729"/><polygon points="8.101032154095611,36.13573144371021 9.256898611047246,35.362312433272976 10.368113820771747,37.44736082151689 9.408377114660164,38.089544534918105"/><polygon points="8.22165387694861,40.7266542274361 5.080895315229613,38.156580159625946 6.062473302114023,37.49978190173266"/><polygon points="14.66133355106792,37.46343525190391 13.590621193711693,38.13732165339145 11.967596419799978,39.15882319570774 11.285692436618847,37.87932054975185 12.84756462296051,36.878780506205786 12.059437609906956,35.54390195969931 11.188951018527675,34.069528087711745 12.129270462122527,33.440336947865 13.047018032221109,34.89851099926166 13.877934508502364,36.2187224430916"/></g><g fill-rule="nonzero" stroke="#99948A" stroke-width="0.3" stroke-linecap="butt"><line x1="10.148969013156183" y1="-54.267164619972014" x2="8.819304991842717" y2="-54.4635533168927"/><line x1="10.600724446090823" y1="-52.82937712279251" x2="8.380196468647945" y2="-53.15734463110724"/><line x1="11.052479879025459" y1="-51.391589625613015" x2="7.941087945453177" y2="-51.8511359453218"/><line x1="11.504235311960095" y1="-49.953802128433516" x2="7.501979422258406" y2="-50.54492725953635"/><line x1="11.955990744894734" y1="-48.516014631254016" x2="7.062870899063636" y2="-49.2387185737509"/><line x1="12.407746177829372" y1="-47.07822713407452" x2="6.623762375868868" y2="-47.93250988796545"/><line x1="12.85950161076401" y1="-45.640439636895024" x2="6.1846538526740975" y2="-46.62630120218"/><line x1="13.311257043698646" y1="-44.202652139715525" x2="5.7455453294793255" y2="-45.32009251639455"/><line x1="13.763012476633286" y1="-42.764864642536025" x2="5.306436806284555" y2="-44.0138838306091"/><line x1="14.214767909567922" y1="-41.327077145356526" x2="4.867328283089789" y2="-42.70767514482366"/><line x1="14.621809218118093" y1="-39.89589383425791" x2="4.472933884279486" y2="-41.394862272957326"/><line x1="14.182700694923323" y1="-38.58968514847246" x2="4.924689317214128" y2="-39.95707477577782"/><path d="M 14.421477157465862,-42.39822783591208 L 14.986593417797131,-40.59965047674463 L 14.032199872077832,-40.29977829794057 L 14.472649932980694,-38.89797204497691 L 12.297128358302022,-38.2144192301447 L 11.856678297399162,-39.61622548310836 L 11.291562037067893,-41.41480284227581 L 13.467083611746563,-42.09835565710802 Z" fill="#99948A" stroke="#1A1917" stroke-width="0.3"/></g><g fill-rule="nonzero" stroke="#99948A" stroke-width="0.3" stroke-linecap="butt"><line x1="-13.621799631043295" y1="-36.73629522712363" x2="-9.38027634158999" y2="-38.05215144405224"/><line x1="-14.7949052206205" y1="-37.8809145928973" x2="-8.827179922410421" y2="-39.73229389667191"/><line x1="-15.470303380300846" y1="-39.17993872581436" x2="-8.580695415037855" y2="-41.317315525285075"/><line x1="-15.897217312323303" y1="-40.55605061552516" x2="-8.427231206686312" y2="-42.87347928128635"/><line x1="-16.32413124434576" y1="-41.93216250523596" x2="-8.273766998334768" y2="-44.429643037287626"/><line x1="-16.75104517636822" y1="-43.30827439494676" x2="-8.120302789983224" y2="-45.98580679328891"/><line x1="-17.177959108390674" y1="-44.684386284657556" x2="-7.9668385816316825" y2="-47.541970549290184"/><line x1="-17.604873040413132" y1="-46.060498174368355" x2="-7.813374373280139" y2="-49.09813430529146"/><line x1="-18.03178697243559" y1="-47.43661006407916" x2="-7.659910164928595" y2="-50.65429806129274"/><line x1="-18.45870090445805" y1="-48.81272195378996" x2="-7.506445956577052" y2="-52.21046181729402"/><line x1="-18.885614836480507" y1="-50.18883384350076" x2="-7.352981748225508" y2="-53.76662557329529"/><line x1="-19.31252876850296" y1="-51.56494573321156" x2="-7.199517539873964" y2="-55.32278932929657"/><line x1="-19.73944270052542" y1="-52.94105762292236" x2="-7.046053331522421" y2="-56.87895308529785"/><line x1="-20.166356632547878" y1="-54.31716951263316" x2="-6.899527140633269" y2="-58.43296444632495"/><line x1="-20.593270564570332" y1="-55.693281402343956" x2="-7.542415152286395" y2="-59.7420742672073"/><line x1="-21.02018449659279" y1="-57.069393292054755" x2="-8.656761662023484" y2="-60.904922579336365"/><line x1="-21.414666317722848" y1="-58.45556666011509" x2="-12.346520627773643" y2="-61.26879555639495"/><line x1="-21.754619189582897" y1="-59.858656652699906" x2="-16.0362795935238" y2="-61.63266853345354"/><line x1="-21.222175146704622" y1="-61.53239207749116" x2="-19.85736219446572" y2="-61.95580071764028"/><line x1="-6.422145568973042" y1="-39.76984200066399" x2="-4.545549396306704" y2="-58.79897576366163"/><line x1="-2.9629817135098273" y1="-60.343419055715025" x2="-5.094165783463177" y2="-38.732703158809755"/><line x1="-1.546498148898875" y1="-60.20372968944642" x2="-3.630105315189138" y2="-39.07545496822988"/><line x1="-0.1300145842879224" y1="-60.06404032317781" x2="-2.1660448469150992" y2="-39.418206777650006"/><line x1="1.2864689803230311" y1="-59.9243509569092" x2="-0.7019843786410591" y2="-39.760958587070135"/><line x1="2.702952544933984" y1="-59.784661590640596" x2="0.8018869328232421" y2="-40.507401862624306"/><line x1="4.119436109544936" y1="-59.64497222437199" x2="2.583960425431256" y2="-44.07488175503334"/><line x1="5.535919674155889" y1="-59.505282858103385" x2="4.607972428508877" y2="-50.095675975375364"/><line x1="6.8328034170087335" y1="-58.15282271066451" x2="6.631984431586496" y2="-56.11647019571739"/><path d="M -15.454105728753383,-39.14223543062314 L -15.825322034089526,-40.338811913867794 L -16.14386838252411,-41.365612363851085 L -14.654972542665842,-41.82751548533299 L -14.999146849563795,-42.93692494782468 L -14.111005426913204,-43.21245483007536 L -13.05945066519655,-43.53868075793631 L -12.715276358298597,-42.42927129544462 L -12.39673000986401,-41.40247084546133 L -13.448284771580663,-41.07624491760038 L -14.336426194231255,-40.8007150353497 L -13.965209888895112,-39.60413855210504 Z" fill="#99948A" stroke="#1A1917" stroke-width="0.3"/></g><g fill-rule="nonzero" stroke="#99948A" stroke-width="0.3" stroke-linecap="butt"><line x1="-37.7323530537409" y1="-54.782800316254864" x2="-34.87152269037523" y2="-42.361258351884594"/><line x1="-39.583191246342984" y1="-55.65235406118151" x2="-36.18746577852979" y2="-40.9083318576773"/><line x1="-41.15061872884307" y1="-55.29135667879756" x2="-37.70913450471227" y2="-40.3486528900043"/><line x1="-42.71804621134315" y1="-54.93035929641361" x2="-39.27656198721235" y2="-39.98765550762035"/><line x1="-44.28547369384323" y1="-54.56936191402966" x2="-40.843989469712426" y2="-39.6266581252364"/><line x1="-45.852901176343316" y1="-54.208364531645714" x2="-42.41141695221251" y2="-39.265660742852454"/><line x1="-47.420328658843395" y1="-53.847367149261764" x2="-43.97884443471259" y2="-38.904663360468504"/><line x1="-48.987756141343475" y1="-53.486369766877814" x2="-45.54627191721267" y2="-38.543665978084555"/><line x1="-50.55518362384356" y1="-53.125372384493865" x2="-47.11369939971276" y2="-38.182668595700605"/><line x1="-52.12261110634364" y1="-52.764375002109915" x2="-48.68112688221284" y2="-37.821671213316655"/><line x1="-53.52023618810438" y1="-51.66610648563708" x2="-50.248554364712916" y2="-37.460673830932706"/><line x1="-54.57460603352349" y1="-49.077445746924504" x2="-51.815981847213" y2="-37.099676448548756"/><line x1="-55.03777525248827" y1="-43.92182980356118" x2="-53.38340932971309" y2="-36.738679066164806"/><line x1="-55.50094447145305" y1="-38.76621386019787" x2="-55.23424752231517" y2="-37.60823281109145"/><line x1="-55.31077681199773" y1="-33.93457115835302" x2="-35.169918392408206" y2="-38.573252851518475"/><line x1="-33.40166547403995" y1="-37.315913787098616" x2="-56.10089988338129" y2="-32.08800736375219"/><line x1="-33.037601888584284" y1="-35.73517304750564" x2="-56.25360242779257" y2="-30.388249175333385"/><line x1="-32.673538303128616" y1="-34.154432307912664" x2="-54.86249443469522" y2="-29.044049103101525"/><line x1="-32.30947471767295" y1="-32.57369156831969" x2="-52.86859995523525" y2="-27.83867800135973"/><line x1="-32.26551552288215" y1="-30.919226941395532" x2="-50.693341072297585" y2="-26.675077300892667"/><line x1="-32.57603608864624" y1="-29.183121366422988" x2="-48.51808218935993" y2="-25.511476600425603"/><line x1="-33.110119460561876" y1="-27.395526591012036" x2="-46.342823306422275" y2="-24.347875899958538"/><line x1="-33.644202832477504" y1="-25.607931815601088" x2="-44.16756442348462" y2="-23.184275199491474"/><line x1="-34.17828620439314" y1="-23.82033704019014" x2="-41.99230554054696" y2="-22.020674499024413"/><line x1="-34.71236957630877" y1="-22.03274226477919" x2="-39.8170466576093" y2="-20.85707379855735"/><line x1="-35.2464529482244" y1="-20.24514748936824" x2="-37.161422622262776" y2="-19.80410696443763"/><line x1="-17.9340266377913" y1="-36.27084350745034" x2="-21.86646365006105" y2="-35.36515601398184"/><line x1="-17.550240740224243" y1="-37.69588509672287" x2="-29.779503611487804" y2="-34.87933891879713"/><line x1="-17.52071718074909" y1="-39.03933581295263" x2="-30.812125199048374" y2="-35.97816484563624"/><line x1="-17.907736517319446" y1="-40.286851695321246" x2="-31.322008299874405" y2="-37.19738372684765"/><line x1="-18.294755853889797" y1="-41.53436757768985" x2="-31.61434833044978" y2="-38.466705390990356"/><line x1="-18.68177519046015" y1="-42.78188346005847" x2="-31.906688361025154" y2="-39.73602705513306"/><line x1="-19.068794527030505" y1="-44.02939934242708" x2="-32.19902839160053" y2="-41.005348719275766"/><line x1="-19.45581386360086" y1="-45.27691522479569" x2="-32.4913684221759" y2="-42.27467038341847"/><line x1="-19.84283320017121" y1="-46.5244311071643" x2="-32.78370845275127" y2="-43.543992047561176"/><line x1="-20.229852536741564" y1="-47.77194698953291" x2="-33.076048483326645" y2="-44.813313711703884"/><line x1="-20.61687187331192" y1="-49.01946287190152" x2="-33.36838851390202" y2="-46.08263537584659"/><line x1="-21.00389120988227" y1="-50.26697875427013" x2="-33.660728544477394" y2="-47.3519570399893"/><line x1="-21.390910546452623" y1="-51.51449463663874" x2="-33.95306857505277" y2="-48.621278704132"/><line x1="-21.777929883022978" y1="-52.762010519007355" x2="-34.24540860562814" y2="-49.89060036827471"/><line x1="-22.164949219593332" y1="-54.009526401375965" x2="-34.53774863620352" y2="-51.15992203241741"/><line x1="-22.551968556163683" y1="-55.257042283744575" x2="-34.83008866677889" y2="-52.42924369656012"/><line x1="-22.938987892734033" y1="-56.50455816611318" x2="-35.122428697354266" y2="-53.69856536070283"/><line x1="-23.728939264550434" y1="-57.65927395940179" x2="-35.04939049783097" y2="-55.0520380213786"/><line x1="-24.761560852111003" y1="-58.75809988624089" x2="-34.66560460026392" y2="-56.477079610651124"/><path d="M -49.48905701552381,-27.4905400015341 L -51.1734403709644,-28.39155903316258 L -52.53866063533496,-29.121849698045683 L -52.06870626181643,-30.000391989367145 L -51.37377329778996,-31.299513846579845 L -50.89196369954176,-32.20021853681708 L -49.5267434351712,-31.46992787193398 L -47.84236007973061,-30.5689088403055 L -48.32416967797881,-29.668204150068263 L -49.01910264200528,-28.369082292855563 Z" fill="#99948A" stroke="#1A1917" stroke-width="0.3"/></g><g fill-rule="nonzero" stroke="#99948A" stroke-width="0.3" stroke-linecap="butt"><line x1="-1.9132924136491698" y1="73.37858734253997" x2="-3.8521660990158" y2="74.63988003295933"/><line x1="6.893180919806879" y1="65.6585196210767" x2="-5.833005606599771" y2="73.93726731042646"/><line x1="8.731469880824687" y1="62.471454787209396" x2="-6.985982158751921" y2="72.69610609851239"/><line x1="8.521012792232495" y1="60.617157753741616" x2="-7.8961475762552125" y2="71.29698931084502"/><line x1="7.724527711541423" y1="59.144088661214035" x2="-8.80631299375851" y2="69.89787252317764"/><line x1="6.8273593727686155" y1="57.736516902744135" x2="-9.7164784112618" y2="68.49875573551027"/><line x1="5.9171939552653186" y1="56.33740011507676" x2="-10.626643828765097" y2="67.09963894784289"/><line x1="5.007028537762023" y1="54.93828332740939" x2="-11.53680924626839" y2="65.70052216017552"/><line x1="4.096863120258728" y1="53.539166539742006" x2="-12.446974663771687" y2="64.30140537250814"/><line x1="3.18669770275544" y1="52.14004975207463" x2="-13.35714008127498" y2="62.90228858484077"/><line x1="2.276532285252147" y1="50.74093296440726" x2="-14.267305498778274" y2="61.503171797173394"/><line x1="1.3663668677488534" y1="49.34181617673988" x2="-15.17747091628157" y2="60.10405500950602"/><line x1="0.4562014502455547" y1="47.94269938907251" x2="-16.087636333784864" y2="58.704938221838646"/><line x1="-0.45396396725773513" y1="46.543582601405134" x2="-16.997801751288158" y2="57.305821434171264"/><line x1="-2.513820053441913" y1="45.892372419307236" x2="-17.58954665931895" y2="55.699563013653616"/><line x1="-14.207450335610691" y1="51.508207412072444" x2="-17.367286923679263" y2="53.56377133123353"/><line x1="-20.662272147400202" y1="55.890618707966034" x2="-7.563806409500057" y2="76.02573146236345"/><line x1="-7.770304549657514" y1="78.51305248236363" x2="-22.460883968892567" y2="55.930524196028024"/><line x1="-8.932247381111726" y1="79.53165289227086" x2="-23.81385835332342" y2="56.65546869723574"/><line x1="-10.094190212565932" y1="80.55025330217806" x2="-24.482680781727694" y2="58.43209948379804"/><line x1="-11.25613304402014" y1="81.56885371208529" x2="-24.486500671027855" y2="61.23097985094128"/><line x1="-12.418075875474354" y1="82.58745412199251" x2="-24.345507892853245" y2="64.2524679223924"/><line x1="-14.19521803106981" y1="82.660363028339" x2="-24.204515114678642" y2="67.27395599384351"/><line x1="-16.836529152955436" y1="81.40486142285309" x2="-24.063522336504032" y2="70.29544406529463"/><line x1="-19.47784027484106" y1="80.14935981736716" x2="-23.922529558329426" y2="73.31693213674575"/><line x1="-22.119151396726693" y1="78.89385821188122" x2="-23.40859601815525" y2="76.91170905315253"/></g><g fill-rule="nonzero" stroke="#99948A" stroke-width="0.3" stroke-linecap="butt"><line x1="42.66676610962828" y1="50.68570022744367" x2="37.26364335442294" y2="46.79801453551095"/><line x1="31.305626069859173" y1="42.51106796795956" x2="28.04365429081627" y2="40.16399543464426"/><line x1="26.806919358067802" y1="41.049101396136685" x2="42.39367063973362" y2="52.26416954965362"/><line x1="25.691137576946232" y1="42.02123625892902" x2="41.949597980883034" y2="53.719616390001484"/><line x1="24.782974663251156" y1="43.14275823299727" x2="41.14532328565076" y2="54.91588860735989"/><line x1="23.874811749556084" y1="44.26428020706551" x2="40.34104859041849" y2="56.112160824718295"/><line x1="22.966648835861008" y1="45.385802181133755" x2="39.53677389518621" y2="57.30843304207671"/><line x1="22.058485922165936" y1="46.507324155202" x2="38.732499199953935" y2="58.504705259435106"/><line x1="21.150323008470856" y1="47.62884612927025" x2="37.92822450472166" y2="59.70097747679351"/><line x1="20.242160094775784" y1="48.75036810333849" x2="37.12394980948939" y2="60.897249694151924"/><line x1="19.333997181080708" y1="49.87189007740674" x2="36.319675114257116" y2="62.09352191151033"/><line x1="18.425834267385632" y1="50.99341205147498" x2="35.515400419024836" y2="63.289794128868735"/><line x1="17.517671353690556" y1="52.11493402554323" x2="34.71112572379256" y2="64.48606634622713"/><line x1="16.60950843999548" y1="53.23645599961148" x2="33.90685102856028" y2="65.68233856358555"/><line x1="15.701345526300404" y1="54.35797797367972" x2="33.10257633332801" y2="66.87861078094396"/><line x1="14.793182612605332" y1="55.47949994774796" x2="32.29830163809574" y2="68.07488299830236"/><line x1="13.885019698910256" y1="56.60102192181621" x2="31.494026942863464" y2="69.27115521566077"/><line x1="12.976856785215176" y1="57.722543895884456" x2="30.689752247631183" y2="70.46742743301918"/><line x1="12.096895668926159" y1="58.86435778802114" x2="29.885477552398907" y2="71.6636996503776"/><line x1="11.273698613324964" y1="60.047014880756855" x2="28.35108187391876" y2="72.33463105492214"/><line x1="10.693566030153256" y1="61.404563108581236" x2="26.74955884997515" y2="72.95726260911734"/><line x1="10.760653955363239" y1="63.227803126868245" x2="15.266674633933777" y2="66.47000081759346"/></g><g fill-rule="nonzero" stroke="#99948A" stroke-width="0.3" stroke-linecap="butt"><line x1="-38.588693185231726" y1="45.43119931252612" x2="-38.154701299912766" y2="46.34411563271495"/><line x1="-41.847009843159206" y1="41.964040115871114" x2="-39.30944166544773" y2="47.301898913212675"/><line x1="-43.93334788403652" y1="40.962176798264885" x2="-40.50002745196716" y2="48.184280162179974"/><line x1="-45.63686541254309" y1="40.7655891212146" x2="-41.81329537967652" y2="48.80859545950931"/><line x1="-47.198414209714805" y1="40.86763737763768" x2="-43.12656330738588" y2="49.43291075683866"/><line x1="-48.44248047326423" y1="41.637520669975494" x2="-44.439831235095234" y2="50.057226054168005"/><line x1="-49.63771832541227" y1="42.51011614464929" x2="-45.75309916280459" y2="50.68154135149735"/><line x1="-50.796558812181146" y1="43.459274684188" x2="-47.06636709051394" y2="51.3058566488267"/><line x1="-51.95539929895001" y1="44.40843322372671" x2="-48.3796350182233" y2="51.93017194615604"/><line x1="-53.11423978571889" y1="45.357591763265425" x2="-49.69290294593265" y2="52.55448724348538"/><line x1="-54.27308027248775" y1="46.30675030280414" x2="-51.006170873642006" y2="53.17880254081473"/><line x1="-55.43192075925663" y1="47.255908842342855" x2="-52.31943880135137" y2="53.803117838144075"/><line x1="-56.590761246025494" y1="48.20506738188156" x2="-53.632706729060715" y2="54.427433135473414"/><line x1="-57.74960173279436" y1="49.15422592142028" x2="-54.945974656770076" y2="55.05174843280276"/><line x1="-58.908442219563234" y1="50.10338446095899" x2="-56.25924258447942" y2="55.6760637301321"/><line x1="-60.0672827063321" y1="51.0525430004977" x2="-57.572510512188785" y2="56.300379027461446"/><line x1="-61.226123193100975" y1="52.00170154003642" x2="-58.88577843989814" y2="56.92469432479079"/><line x1="-62.38496367986984" y1="52.95086007957512" x2="-60.199046367607494" y2="57.54900962212014"/><line x1="-63.48278035299265" y1="54.02838423442186" x2="-61.51231429531685" y2="58.173324919449485"/><line x1="-64.51812778201347" y1="55.23731451546528" x2="-62.826902938267395" y2="58.79486204847939"/><line x1="-65.20760230580149" y1="57.17379992041638" x2="-64.15431078529073" y2="59.389433556709086"/><line x1="-45.754801604349964" y1="55.78037118809819" x2="-31.3949767682046" y2="77.78601752117987"/><line x1="-31.787554125977696" y1="80.38441673242933" x2="-48.78469489597188" y2="54.337227945236684"/><line x1="-33.466066896647405" y1="81.01219024132624" x2="-50.378451852305666" y2="55.094885104960184"/><line x1="-35.14457966731712" y1="81.63996375022315" x2="-51.97220880863945" y2="55.852542264683684"/><line x1="-36.823092437986844" y1="82.26773725912007" x2="-53.56596576497323" y2="56.610199424407185"/><line x1="-38.50160520865655" y1="82.89551076801698" x2="-55.15972272130701" y2="57.367856584130685"/><line x1="-40.18011797932627" y1="83.52328427691388" x2="-56.7534796776408" y2="58.125513743854185"/><line x1="-43.280364860870336" y1="81.97232800459311" x2="-58.347236633974575" y2="58.883170903577685"/><line x1="-48.85854999819558" y1="76.62406685466136" x2="-59.94099359030835" y2="59.640828063301186"/><line x1="-54.79550447516556" y1="70.72601131005825" x2="-61.534750546642144" y2="60.398485223024686"/><line x1="-60.73245895213556" y1="64.82795576545513" x2="-61.88669972221714" y2="63.059144901850104"/><line x1="-25.89837549225352" y1="77.81725785411943" x2="-27.20721452473486" y2="78.67134316298342"/><line x1="-25.79678857663943" y1="76.0582108042496" x2="-28.474153375293085" y2="77.80533010941313"/><line x1="-25.873444089848366" y1="74.41547617790629" x2="-29.333987525942167" y2="76.67366013796908"/><line x1="-25.950099603057303" y1="72.77274155156296" x2="-30.137095379246215" y2="75.5049733172515"/><line x1="-26.026755116266244" y1="71.13000692521965" x2="-30.911813241889494" y2="74.31776055610857"/><line x1="-26.10341062947518" y1="69.48727229887632" x2="-31.686531104532783" y2="73.13054779496562"/><line x1="-26.18006614268412" y1="67.84453767253301" x2="-32.46124896717606" y2="71.94333503382269"/><line x1="-26.256721655893056" y1="66.20180304618968" x2="-33.23596682981935" y2="70.75612227267975"/><line x1="-26.333377169101993" y1="64.55906841984637" x2="-34.01068469246263" y2="69.56890951153682"/><line x1="-26.410032682310934" y1="62.91633379350305" x2="-34.78540255510592" y2="68.38169675039387"/><line x1="-26.48668819551987" y1="61.27359916715973" x2="-35.5601204177492" y2="67.19448398925093"/><line x1="-26.68896080498064" y1="59.71283620714687" x2="-36.33483828039248" y2="66.007271228108"/><line x1="-27.163581942099686" y1="58.3297947778884" x2="-37.10955614303577" y2="64.82005846696507"/><line x1="-27.71789924890227" y1="56.998759230186195" x2="-37.88427400567905" y2="63.63284570582211"/><line x1="-28.703982156800734" y1="55.949473116613945" x2="-38.65899186832234" y2="62.44563294467917"/><line x1="-29.690065064699187" y1="54.9001870030417" x2="-39.43370973096562" y2="61.25842018353624"/><line x1="-30.676147972597647" y1="53.85090088946945" x2="-40.2084275936089" y2="60.07120742239329"/><line x1="-31.662230880496104" y1="52.8016147758972" x2="-40.98314545625219" y2="58.883994661250355"/><line x1="-32.64831378839456" y1="51.752328662324956" x2="-41.757863318895474" y2="57.69678190010742"/><line x1="-33.634396696293024" y1="50.7030425487527" x2="-42.53258118153876" y2="56.50956913896447"/><line x1="-34.62047960419147" y1="49.653756435180455" x2="-43.307299044182045" y2="55.322356377821535"/><line x1="-36.075032186118854" y1="48.910171065784404" x2="-43.721215362488486" y2="53.899701907815945"/><line x1="-42.158522668728104" y1="51.18720760519631" x2="-44.100317409292224" y2="52.45432932115021"/></g><g><path fill="none" stroke="#1A1917" stroke-width="1.9" stroke-linejoin="round" stroke-linecap="round" d="M 33.99879781027136,13.667654183843103 L 19.907079075359587,25.573780518180367 M 16.074729524324766,28.45406141631602 L -2.808957200786477,41.089606130417394 M -13.16520709467676,29.642614004884866 M -27.00286970932209,25.60329467505107 L -32.47516469304771,1.795375282197476 L -32.59130389078383,-15.857758914462892 L -28.195165537100824,-30.571779919911535 L -14.485721719426799,-32.63129649088095 L -0.9883822276622833,-35.79116429238905 M 3.740371061156652,-35.98751733612776 L 17.583064561019835,-33.9429793966676 L 34.840464633170214,-27.78873108982079 L 47.64350815283682,-11.403649604335712 L 46.23538539423735,1.1250524125448436 L 33.99879781027136,13.667654183843103"/><g stroke="#1A1917" stroke-width="3.8" stroke-linecap="butt"><line x1="18.455749882393462" y1="26.800011970086693" x2="17.65383120993015" y2="27.39744518204823" stroke="#CCC5B8" stroke-width="3.8" stroke-linecap="butt"/><line x1="21.50304083775405" y1="24.529765764632852" x2="18.455749882393462" y2="26.800011970086693"/><line x1="17.65383120993015" y1="27.39744518204823" x2="14.606540254569563" y2="29.66769138750207"/></g><g stroke="#1A1917" stroke-width="3.8" stroke-linecap="butt"><line x1="0.8615974501200121" y1="-36.22426380958171" x2="1.8607620045400983" y2="-36.26513180672508" stroke="#CCC5B8" stroke-width="3.8" stroke-linecap="butt"/><line x1="-2.9352278566763155" y1="-36.06896542043689" x2="0.8615974501200121" y2="-36.22426380958171"/><line x1="1.8607620045400983" y1="-36.26513180672508" x2="5.657587311336426" y2="-36.4204301958699"/></g><polygon points="34.403967781276556,11.736781581482816 36.600992366368956,14.096841532522102 34.240932415329674,16.293866117614503 32.04390783023727,13.933806166575218" stroke="none" fill="#1A1917"/><polygon points="-31.15863507207073,3.2647906315933293 -34.36127787366628,3.638794756421119 -34.73528199849407,0.43615195482556857 -31.53263919689852,0.06214782999777868" stroke="none" fill="#1A1917"/><polygon points="-31.693492034114712,-14.10095340958357 -34.88550186193594,-14.556884609538866 -34.42957066198065,-17.748894437360097 -31.237560834159417,-17.2929632374048" stroke="none" fill="#1A1917"/><polygon points="-28.66736370843964,-28.656196301550224 -30.780826722420855,-31.091370646136962 -28.345652377834117,-33.204833660118176 -26.232189363852903,-30.769659315531438" stroke="none" fill="#1A1917"/><polygon points="-16.033781803286395,-32.14369510387469 -16.64128290115748,-35.31035618711133 -13.474621817920848,-35.91785728498242 -12.86712072004976,-32.75119620174578" stroke="none" fill="#1A1917"/><polygon points="15.743457229352657,-33.23004421221792 16.524296168398216,-36.35847681517905 19.652728771359357,-35.577637876133494 18.871889832313798,-32.44920527317236" stroke="none" fill="#1A1917"/><polygon points="32.86765313492444,-27.809861739105266 34.754330809416295,-30.424674801749326 37.36914387206035,-28.53799712725747 35.4824661975685,-25.92318406461341" stroke="none" fill="#1A1917"/><polygon points="46.110398573980184,-12.64542524074028 49.21305106884997,-13.523119661412005 50.0907454895217,-10.420467166542217 46.988092994651915,-9.542772745870492" stroke="none" fill="#1A1917"/><polygon points="45.898030393878436,-0.8188157197323382 48.811895175021576,0.5618334164400806 47.43124603884916,3.4756981975832195 44.51738125770602,2.0950490614108013" stroke="none" fill="#1A1917"/></g><g><path fill="none" stroke="#1A1917" stroke-width="1.9" stroke-linejoin="round" stroke-linecap="round" d="M -25.85132585486724,53.436061941259574 L -37.86134754145711,40.65625521456392 L -27.00286970932209,25.60329467505107 L -15.470804496249931,28.969592526450175 M -11.529988247349081,31.450057573808913 L -2.808957200786477,41.089606130417394 L -25.85132585486724,53.436061941259574"/><g stroke="#1A1917" stroke-width="3.8" stroke-linecap="butt"><line x1="-13.646922676875498" y1="29.501997549863184" x2="-12.804686168133065" y2="30.04110576102432" stroke="#CCC5B8" stroke-width="3.8" stroke-linecap="butt"/><line x1="-16.84742141009674" y1="27.45338634745087" x2="-13.646922676875498" y2="29.501997549863184"/><line x1="-12.804686168133065" y1="30.04110576102432" x2="-9.604187434911822" y2="32.08971696343663"/></g><polygon points="-23.54035684695259,52.45016097668934 -24.22581981254742,56.63706204105639 -28.41272087691447,55.95159907546155 -27.72725791131964,51.7646980110945" stroke="none" fill="#1A1917"/><polygon points="-36.380646768720226,42.68605906939791 -40.61440461336572,42.96045752584898 -40.88880306981679,38.726699681203485 -36.65504522517129,38.45230122475242" stroke="none" fill="#1A1917"/><polygon points="-28.571631019844972,27.565835481783274 -29.950176363577803,23.553403210046774 -25.937744091841303,22.174857866313943 -24.55919874810847,26.18729013805044" stroke="none" fill="#1A1917"/><polygon points="-3.7729265581698,38.76940322000018 0.4072946372003168,39.494489944315575 -0.31779208711508233,43.67471113968569 -4.498013282485198,42.949624415370295" stroke="none" fill="#1A1917"/></g><g id="labels" style="font: bold italic 2px &quot;Archivo Narrow&quot;, sans-serif" fill="#1A1917"><text text-anchor="middle" stroke="#CCC5B8" stroke-width="0.8730698610071848" x="0.4038686414043671" y="-1.3373462262230453">Market</text><text text-anchor="middle" x="0.4038686414043671" y="-1.3373462262230453">Market</text><text text-anchor="middle" stroke="#CCC5B8" stroke-width="0.8730698610071848" x="-1.9926304233386576" y="15.19960343391742">Merchant</text><text text-anchor="middle" x="-1.9926304233386576" y="15.19960343391742">Merchant</text><text text-anchor="middle" stroke="#CCC5B8" stroke-width="0.8730698610071848" x="-17.191383649066402" y="4.00077086589604">Craftsmen</text><text text-anchor="middle" x="-17.191383649066402" y="4.00077086589604">Craftsmen</text><text text-anchor="middle" stroke="#CCC5B8" stroke-width="0.8730698610071848" x="14.110998497256565" y="-4.814588155299518">Gate</text><text text-anchor="middle" x="14.110998497256565" y="-4.814588155299518">Gate</text><text text-anchor="middle" stroke="#CCC5B8" stroke-width="0.8730698610071848" x="3.1652559071240485" y="28.50797639549277">Craftsmen</text><text text-anchor="middle" x="3.1652559071240485" y="28.50797639549277">Craftsmen</text><text text-anchor="middle" stroke="#CCC5B8" stroke-width="0.8730698610071848" x="-11.273332404869864" y="-25.431545439031403">Gate</text><text text-anchor="middle" x="-11.273332404869864" y="-25.431545439031403">Gate</text><text text-anchor="middle" stroke="#CCC5B8" stroke-width="0.8730698610071848" x="35.80716752499103" y="-7.4674079763457035">Temple</text><text text-anchor="middle" x="35.80716752499103" y="-7.4674079763457035">Temple</text><text text-anchor="middle" stroke="#CCC5B8" stroke-width="0.8730698610071848" x="-21.523037854095804" y="39.153826533105985">Castle</text><text text-anchor="middle" x="-21.523037854095804" y="39.153826533105985">Castle</text><text text-anchor="middle" stroke="#CCC5B8" stroke-width="0.8730698610071848" x="37.23701890670466" y="23.019080606529172">Gate</text><text text-anchor="middle" x="37.23701890670466" y="23.019080606529172">Gate</text><text text-anchor="middle" stroke="#CCC5B8" stroke-width="0.8730698610071848" x="12.57213247023597" y="42.35677259754898">Gate</text><text text-anchor="middle" x="12.57213247023597" y="42.35677259754898">Gate</text></g></g></svg>