<svg width="100.40606713546454" height="172.34095555569846" xmlns="http://www.w3.org/2000/svg"><rect x="0" y="0" width="100.40606713546454" height="172.34095555569846" id="background" fill="#CCC5B8"/><g id="map" transform="translate(50.20303356773227 86.17047777784923)"><g id="waterbody"><polygon points="-43.66448953484455,-13.821345609772944 -36.20711673838041,-6.321838810443763 -32.4516352540555,11.636494738580978 -37.87723745417564,23.364914444150372 -26.4462355332426,44.49722846746379 -33.08306529837318,58.85160478044743 -38.32267494050277,76.25774950338094 -59.91763963421002,86.70770891625945 -83.67910831062831,83.19586407288344 -121.86337613762419,104.02026788816018 -145.4252075300882,102.14464063738627 -227.83064422260503,86.24150849816982 -259.26827631904223,83.58100017084068 -273.10637743839595,72.26834236000354 -195.3588550030519,-6.856378180207129 -173.3032209683608,-49.48089122009469 -158.3417797371468,-56.33745170849331 -124.83294942428086,-35.45189129179771 -111.8267481379221,-24.48945671819127 -85.53241796918948,-24.265654095540476 -70.00281492102394,-35.462496977441745 -51.93811932640603,-30.821499802801515" fill="#67635C" stroke="#99948A" stroke-width="0.3"/><polygon points="-39.879678371182266,-4.342293027535886 -36.63801681177998,11.159005482330931 -41.39549718204185,25.268029912868652 -30.917999160444246,44.637616227571414 -41.646487218981015,73.4224449498451 -60.55127622664835,82.57060891497179 -85.59427735309526,79.68415116622717 -122.73306093460664,99.93838335456263 -144.88585476841578,98.17492180085854 -227.07268406622293,82.31397792523506 -257.6960783955611,79.69975406767296 -267.181350439106,71.94553721769991 -192.50570676357935,-4.052890152125902 -170.3839573164042,-46.41869660038705 -158.63146866176328,-51.80465160996506 -127.19183586975447,-32.20879153292426 -111.86079266615423,-20.489601599552916 -85.56646249742161,-20.265798976902122 -69.18333542937758,-31.122068516980317 -54.7252255014175,-27.407638513172667" fill="none" stroke="#CCC5B8" stroke-width="0.15"/><polygon points="-47.407449890349646,-1.2566069819799957 -48.43201663777427,29.074260850305212 -39.68315121917413,45.24815117526411 -48.021384771763486,67.61986127532971 -61.94400656987679,74.35711853759963 -89.42461543802916,72.66072535291462 -124.47243052857152,91.77461428736756 -143.8071492450708,90.2354841278031 -225.55676375345877,74.45891677936554 -255.33129644052613,71.29992693309266 -186.7994102846343,1.5540859040365511 -164.5605377943087,-40.287383735214256 -159.21084651099625,-42.73905141290858 -111.9288817226185,-12.489891362276206 -85.63455155388588,-12.266088739625411 -67.72913719162888,-22.488678440630785 -59.7543827401962,-20.43988593905243" fill="none" stroke="#CCC5B8" stroke-width="0.15"/><polygon points="-64.42289591296827,28.534094203638876 -57.2134553366339,46.46922107064949 -65.14105243805562,58.129306825497494 -97.08529160789698,58.61387372628955 -127.9511697165013,75.44707615297742 -141.64973819838107,74.3566087816922 -220.87931280185552,59.06637497158023 -175.38681732674414,12.768038016361455 -156.24265786468456,-21.84592815319577 -120.55145615929007,0.9879129872481567 -85.77072966681442,3.7333317349280097 -68.10450217266417,-3.8503789863519335" fill="none" stroke="#CCC5B8" stroke-width="0.15"/><polygon points="-117.54869916921723,33.324472885223564 -134.9086480923609,42.79199988419715 -156.249056539469,38.94868539817821 -144.75105662634667,23.49433434257799 -137.79660503263324,27.943521686296883 -123.06954549032005,32.8886845472113" fill="none" stroke="#CCC5B8" stroke-width="0.15"/></g><g fill="none"><path d="M 2.308326291438578,-35.69820213254894 L 2.976581019248454,-54.79194230237114 L 1.2734105047279987,-69.90873148154103 C 0.4051468691909256,-77.61515794821169 -6.251935062048938,-82.00453177401019 -7.740334567447141,-86.73134319897966 C -8.452952388013884,-88.99445202404645 -11.551934149962227,-92.000117276147 -10.659952581684257,-96.003372473506 C -9.874668032821118,-99.52776643347447 -9.46453877103541,-105.23435541907816 -7.005475553533765,-112.40483711903266 C -2.7164336487195726,-124.91142754335453 3.4272801682294265,-135.55108119594644 4.438261690678595,-145.77409249428928 C 5.266798162919132,-154.15222555480722 -0.2801481134867183,-166.58936672068654 7.135695560157953,-173.05045344836068 C 15.175472048659849,-180.05514441129688 15.175472048659849,-180.05514441129688 31.279168498602083,-194.08556144516604" stroke="#67635C" stroke-width="2.3" stroke-linejoin="round" stroke-linecap="butt"/><path d="M 2.308326291438578,-35.69820213254894 L 2.976581019248454,-54.79194230237114 L 1.2734105047279987,-69.90873148154103 C 0.4051468691909256,-77.61515794821169 -6.251935062048938,-82.00453177401019 -7.740334567447141,-86.73134319897966 C -8.452952388013884,-88.99445202404645 -11.551934149962227,-92.000117276147 -10.659952581684257,-96.003372473506 C -9.874668032821118,-99.52776643347447 -9.46453877103541,-105.23435541907816 -7.005475553533765,-112.40483711903266 C -2.7164336487195726,-124.91142754335453 3.4272801682294265,-135.55108119594644 4.438261690678595,-145.77409249428928 C 5.266798162919132,-154.15222555480722 -0.2801481134867183,-166.58936672068654 7.135695560157953,-173.05045344836068 C 15.175472048659849,-180.05514441129688 15.175472048659849,-180.05514441129688 31.279168498602083,-194.08556144516604" stroke="#CCC5B8" stroke-width="1.7" stroke-linejoin="round" stroke-linecap="round"/></g><g fill="none"><path d="M 14.330131592800921,38.658355871376 L 24.048353658322057,65.23382368853984 C 26.41180733855352,71.69692844091931 30.25756338307362,80.95404978824642 31.768019947382026,93.48993145909262 C 32.671408661884065,100.98751483578557 29.68055802554884,108.80900843882932 30.259159664401956,116.77978072732921 C 30.769319025341943,123.80769738681097 34.1754596353478,134.1212875630181 35.74591171869712,148.28906676797016 C 37.14299499344236,160.8928052566402 39.40588910443013,187.27087608139573 42.504526304522905,227.25093274803643 C 49.50942830885636,317.6314326236371 49.50942830885636,317.6314326236371 62.90531537469823,498.71230998165896" stroke="#67635C" stroke-width="2.3" stroke-linejoin="round" stroke-linecap="butt"/><path d="M 14.330131592800921,38.658355871376 L 24.048353658322057,65.23382368853984 C 26.41180733855352,71.69692844091931 30.25756338307362,80.95404978824642 31.768019947382026,93.48993145909262 C 32.671408661884065,100.98751483578557 29.68055802554884,108.80900843882932 30.259159664401956,116.77978072732921 C 30.769319025341943,123.80769738681097 34.1754596353478,134.1212875630181 35.74591171869712,148.28906676797016 C 37.14299499344236,160.8928052566402 39.40588910443013,187.27087608139573 42.504526304522905,227.25093274803643 C 49.50942830885636,317.6314326236371 49.50942830885636,317.6314326236371 62.90531537469823,498.71230998165896" stroke="#CCC5B8" stroke-width="1.7" stroke-linejoin="round" stroke-linecap="round"/></g><g fill-rule="nonzero" fill="#99948A" stroke="#1A1917" stroke-width="0.3"><path d="M 3.6244831045752366,0.23031228933213427 L 3.109139790624348,1.474461107150666 L 1.864990972805816,1.9898044211015549 L 0.6208421549872845,1.4744611071506661 L 0.10549884103639551,0.2303122893321345 L 0.620842154987284,-1.0138365284863973 L 1.8649909728058158,-1.5291798424372862 L 3.109139790624347,-1.0138365284863977 Z"/></g><g fill="#899E84" stroke="#17301D" stroke-width="0.3"><polygon points="-16.867353062712237,-5.325647922025341 -14.25969929357532,1.9450429901083837 -18.00082892289916,3.286809666292552 -20.608482692036077,-3.9838812458411734"/><polygon points="-13.26581188954101,7.701354564575378 -14.221558938329977,5.036529400984531 -15.208307963951984,2.2852641609211215 -12.423159368754584,1.2863627745683477 -10.614894758918034,0.6378235803677006 -9.525387689230485,3.675600007605798 -8.47011107942365,6.6179346639621635 -10.358009177682284,7.0444388290402165"/><polygon points="-18.00082892289916,3.286809666292552 -15.208307963951984,2.2852641609211215 -13.26581188954101,7.701354564575378 -16.18131163391763,8.360009173850944"/><polygon points="-10.233285322304043,1.7018315002888116 -11.601223682774021,-2.1122703270101666 -8.533419511196502,-3.2125469317600137 -7.165481150726526,0.6015548955389642"/><polygon points="-11.601223682774021,-2.1122703270101666 -12.694925403158692,-5.161742328662363 -13.22254852805495,-6.632867331766025 -9.546962624577715,-7.951126566111078 -8.053350449706537,-8.486814778483264 -7.525727324810279,-7.015689775379602 -6.432025604425608,-3.9662177737274042 -7.925637779296785,-3.4305295613552182"/><polygon points="-9.234765483831836,4.485916259197584 -10.233285322304043,1.7018315002888116 -8.699383236515287,1.1516931979138878 -7.700863398043079,3.93577795682266"/><polygon points="-23.60102778839503,-12.327730683893227 -24.962898315053028,-16.124914105583585 -24.055495743380494,-17.112788807067442 -17.377217244720534,-15.339834713799796 -17.129377900717714,-14.64880613959345"/><polygon points="-14.136832804358763,-6.304956701541396 -16.650436300279768,-5.4034457296865135 -20.608482692036077,-3.9838812458411734 -21.14144114513809,-5.469882273805932 -17.18339475338178,-6.889446757651272 -18.074686626326763,-9.374557241787592 -15.561083130405757,-10.276068213642477 -14.669791257460773,-7.790957729506156"/><polygon points="-23.60102778839503,-12.327730683893227 -19.536898724469584,-13.785342016829663 -17.129377900717714,-14.64880613959345 -16.31842233113139,-12.387690281452874 -15.561083130405757,-10.276068213642477 -17.96860395415763,-9.41260409087869 -22.03273301808307,-7.954992757942252 -22.790072218808703,-10.066614825752652"/><polygon points="-14.743365977816989,-14.640598018946198 -5.127915339576388,-12.087881391284979 -7.588059048228235,-8.653692849835057 -15.757025024539647,-10.822395707670594"/></g><g fill="#A3857C" stroke="#301714" stroke-width="0.3"><polygon points="29.915445563329428,-18.00960181921641 28.211766655061936,-16.211582876565334 27.167025009857788,-15.108989389530995 25.643261147735267,-16.552803073301586 23.73611404501848,-18.35988430964904 24.780855690222626,-19.462477796683377 26.484534598490114,-21.26049673933445 28.391681701206902,-19.453415502987"/><polygon points="23.73611404501848,-18.35988430964904 20.393540789968814,-21.527076500389065 26.484534598490114,-21.26049673933445"/><polygon points="17.63250792189698,-16.013484922013436 20.549422716396464,-19.091921844110843 21.691489460026126,-20.29722973919195 24.446513210790226,-17.68675899018403 27.167025009857788,-15.108989389530995 26.024958266228126,-13.903681494449888 23.108043471728642,-10.825244572352483 20.38753167266108,-13.403014173005516"/><polygon points="17.63250792189698,-16.013484922013436 14.902518640795403,-18.600234731863278 16.69283063226994,-21.689042586808586 21.691489460026126,-20.29722973919195"/><polygon points="23.108043471728642,-10.825244572352483 20.68555566219937,-8.268613185570608 17.259337116212535,-4.652670171043642 15.595477940569923,-6.229228524589169 13.504347538035574,-8.210639663663045 16.93056608402241,-11.826582678190013 19.021696486556756,-9.845171539116135 21.44418429608603,-12.40180292589801"/><polygon points="15.100963308055087,-2.374777914729039 12.723687113728701,-3.752677181248754 14.66832230293006,-7.107737347304539 17.259337116212535,-4.652670171043642"/><polygon points="12.723687113728701,-3.752677181248754 10.238264888983512,-5.1932592510316 7.9128810638003575,-6.541081045883918 9.529604742413092,-9.33039867407125 10.519732067876863,-11.038655712426673 12.525022767561,-9.13858036340973 14.66832230293006,-7.107737347304539 13.929716055056382,-5.833427176223752"/><polygon points="11.678309247860351,-13.037537645371753 9.57233829422136,-9.404126455108104 7.9128810638003575,-6.541081045883918 5.549818755845687,-7.910741764584611 2.54249355365587,-9.653825382791528 4.201950784076872,-12.516870792015713 6.307921737715863,-16.150281982279363 9.31524693990568,-14.407198364072446"/><polygon points="0.39438919875236733,-19.577840028510977 3.537200564926879,-17.756226920788443 6.307921737715864,-16.150281982279363 4.47387471673032,-12.986018506563395 2.54249355365587,-9.653825382791528 0.046986278108800406,-11.100252875220633 -2.783651718592223,-12.740926360592557 -1.15355599953883,-16.24774832779476"/><polygon points="0.39438919875236733,-19.577840028510977 1.6811503919742874,-22.34604705230118 16.69283063226994,-21.689042586808586 11.678309247860351,-13.037537645371753"/></g><g fill="#A3917C" stroke="#302214" stroke-width="0.3"><polygon points="21.905929207525663,18.33564956506273 20.769127539445027,21.070312761324363 19.594398615263923,23.896212867510883 16.020060354572387,22.410357606580302 12.978423524863961,21.145946754657157 9.08658474953218,19.528106276990236 5.873798539083788,18.192548491220855 7.0485274632648895,15.366648385034338 8.185329131345526,12.631985188772706 11.39811534179392,13.967542974542086 10.261313673713282,16.70220617080372 14.153152449045063,18.32004664847064 15.2899541171257,15.585383452209008 18.331590946834126,16.849794304132153"/><polygon points="16.658340400024663,16.154222719547207 18.19399161112073,12.460096499298611 19.008822212177126,10.49995928410708 20.684431157037814,11.196511256639724 24.256411019678126,12.681386129622604 23.441580418621733,14.641523344814136 21.905929207525663,18.33564956506273 18.33394934488535,16.850774692079852"/><polygon points="22.651629649173916,8.432354319970681 17.35516721907297,6.2306106706261835 18.27512721109186,4.017576679873125 23.571589641192812,6.2193203292176245"/><polygon points="21.382019205767357,11.486499163930443 22.745443928556206,8.206676909113508 23.571589641192812,6.2193203292176245 25.25232719941581,7.556242498620044 26.10499173661524,8.234484093964893 25.40750468205353,9.912342450030868 24.256411019678126,12.681386129622604 23.28897992369595,12.279224252734421"/><polygon points="15.885565956348803,9.76584869779834 15.004096265258976,11.886291331308334 13.735074963513949,14.939018950026071 10.110254868483,13.43217835036593 7.233291101776084,12.236222221848568 3.9088237579978315,10.854238500031165 6.457146729263675,8.333317603939342 8.227226915616713,6.582271060840087 10.818235176651562,7.659355257965958 13.060470132030558,8.591454114230263"/><polygon points="17.930100297086376,4.847565260945137 12.33285841201397,2.520787352682259 14.28743829954259,0.5872250306724593 18.903447687195296,2.506103808480619"/><polygon points="11.595982261363279,7.982665340338729 8.227226915616713,6.582271060840087 12.33285841201397,2.520787352682259 13.640516602100854,3.064381903485529"/><polygon points="12.393963745891387,32.424525175430546 10.284874692276533,28.112955028885267 8.871493252757627,25.22360656355312 7.376508201033052,22.167437404882683 9.18115645746747,21.72757119730444 12.456885142716132,20.929142833938798 13.80522677402788,23.68553167154807 15.07996930983336,26.2914632951987 16.982177343186134,30.180110555050312 14.023786053084903,31.627265645699026"/></g><g fill="#8D9E7C" stroke="#1A3014" stroke-width="0.3"><polygon points="2.481357253334757,14.874765333111846 3.1174873267992576,16.557423294717672 -0.5328557152920739,17.937438152472915 -1.1689857887565744,16.254780190867088"/><polygon points="-1.6663825749935457,13.21535839230712 2.078789929616032,13.809915327438496 1.5885018098322061,15.21230998676589 -1.764317366474713,14.680040273939255"/><polygon points="-2.1485195764598912,13.663768705489048 -1.220322068786237,16.11898815097706 -3.1647927161648037,16.854096701847396 -3.7927712223502956,15.193000839179746"/><polygon points="-2.4773263626706394,18.67254670334325 -5.327764370509,19.75015687766636 -6.324956235099489,17.548053181456165 -3.3526742459979797,16.35712231689071"/><polygon points="-3.1187437999647445,18.915035034791146 -2.1006269357145877,21.608104453983266 -4.137684712246942,22.37821563676951 -5.327764370509,19.75015687766636"/><polygon points="-2.1006269357145877,21.608104453983266 -1.2788620423780435,23.781793920997693 -3.2424875007811997,24.355084039135907 -4.137684712246942,22.37821563676951"/><polygon points="0.8334723030548875,23.165087511301095 -0.1538851593370114,20.553381251296127 1.3860420446602,19.97121064517136 2.4185396668477943,22.70231929226159"/><polygon points="-2.2060636324878913,21.32920882450173 -0.1538851593370114,20.553381251296127 0.8334723030548875,23.165087511301095 -1.2788620423780435,23.781793920997693"/><polygon points="2.4185396668477943,22.70231929226159 0.47336187718334494,17.557036855460773 3.1174873267992576,16.557423294717672 5.14017283566349,21.907725091925606"/><polygon points="-3.09399703849876,9.83651413093757 1.363159595031518,11.916967437870632 1.8139035097790277,13.109251639534936 -1.877343786977744,12.523255486655334"/><polygon points="-2.723003926018589,10.655780044821256 -1.877343786977744,12.523255486655334 -6.608005024979949,16.9229951474543 -8.30199523407369,13.18214824200836"/><polygon points="-9.619031002873049,10.273731679960765 -10.582143068212996,8.146886571952692 -7.9754750654086966,7.558001630971401 -7.070455805805619,9.119645041267724"/><polygon points="-8.30199523407369,13.18214824200836 -9.142917046189549,11.325136470813685 -9.619031002873049,10.273731679960765 -7.9949994837372635,9.538311716991792 -7.070455805805619,9.119645041267724 -6.594341849122118,10.171049832120643 -5.75342003700626,12.028061603315317 -6.6779637149379045,12.446728279039386"/><polygon points="-6.081157855912613,8.442206254436666 -3.09399703849876,9.83651413093757 -3.8869198269527776,11.182843084348665 -6.7390081200089185,9.851582595023208"/><polygon points="-16.508906813486206,24.981114111473868 -18.409576155190887,20.43370152748915 -15.61917985866379,19.267407377999863 -13.718510516959107,23.814819961984583"/><polygon points="-12.710827552062286,25.85844547037563 -10.713725092372702,25.023722131054424 -10.150255634358125,26.371840947854206 -12.241103914115424,26.982274394915905"/><polygon points="-16.508906813486206,24.981114111473868 -13.58782611854182,23.76019816883882 -12.241103914115424,26.982274394915905 -14.54816249724768,27.655831504300316"/><polygon points="-9.419917675169918,16.67631907102437 -7.734928612912755,15.97204889703158 -5.46639896747637,20.981654063866095 -7.3000893728827085,21.748076523092323"/><polygon points="-10.015102809032479,22.882863108892803 -8.730120180662459,25.957225411812253 -10.150255634358125,26.371840947854206 -11.371564698269708,23.449819697600848"/><polygon points="-10.015102809032479,22.882863108892803 -7.883662453267145,21.991990934209806 -6.498628060849073,25.305730303354736 -8.730120180662459,25.957225411812253"/><polygon points="-7.258873888685938,23.486817687377787 -7.883662453267145,21.991990934209806 -5.46639896747637,20.981654063866095 -4.797782844485252,22.458162334808634"/><polygon points="-6.498628060849073,25.305730303354736 -7.258873888685938,23.486817687377787 -4.797782844485252,22.458162334808634 -3.857481440580014,24.53463454704604"/><polygon points="-16.716011389148793,19.725846990528073 -18.409576155190887,20.43370152748915 -19.37832973645323,18.11592739942246 -17.68476497041114,17.408072862461385"/><polygon points="-17.092301248968226,13.244463961724545 -16.5550209166805,14.529924452175447 -15.698962223582546,16.578072432576764 -17.11776334144161,17.171084774625584 -19.37832973645323,18.11592739942246 -20.103845600818907,16.01321679736137 -20.559194524706072,14.693511664887426 -18.429170164049015,13.803231329726486"/><polygon points="-20.559194524706072,14.693511664887426 -20.144117034716036,12.98359995550333 -15.785015294870355,9.322292531143548 -15.033602623348491,9.152537270310292 -13.883821849174224,11.903424784818405"/><polygon points="-7.734928612912755,15.97204889703158 -9.707051196751024,16.79633146738509 -11.521729242526202,17.554807383737312 -12.31207853934831,15.663871249160172 -12.909441060006735,14.234662188942146 -11.141411831401102,13.495683948462396 -10.523968588896029,14.916499925433998 -8.580719193289596,14.104285400954048"/><polygon points="-9.21998539504948,12.692590705334169 -12.909441060006735,14.234662188942146 -13.635178281148052,12.498312525341952 -9.996631503217463,10.977519287110843"/><polygon points="-11.961155726171755,11.79862599177971 -13.236797356971381,8.746612326241076 -11.213821722251032,8.289592143395675 -9.996631503217463,10.977519287110843"/><polygon points="-11.961155726171755,11.79862599177971 -13.635178281148052,12.498312525341952 -15.033602623348491,9.152537270310292 -13.236797356971381,8.746612326241076"/></g><g fill="#899E90" stroke="#173028" stroke-width="0.3"><polygon points="-25.210646994462756,-13.408493519085926 -24.44060244300411,-11.261446242912617 -23.683302268347205,-9.149932988046098 -25.415382812976752,-8.52871742335825 -27.438905654930952,-7.802975258064087 -28.196205829587857,-9.914488512930607 -28.966250381046503,-12.061535789103917 -26.942727539092303,-12.787277954398078"/><polygon points="-27.438905654930952,-7.802975258064087 -33.83221874443128,-5.5099955156182165 -33.611341060530144,-6.409189606815584 -28.966250381046503,-12.061535789103917"/><polygon points="-23.683302268347205,-9.149932988046098 -22.60286019972575,-6.1374317034092885 -27.558481860764154,-4.360084040168993 -28.63892392938561,-7.372585324805801"/><polygon points="-27.558481860764154,-4.360084040168993 -25.91729610248446,-4.948699933782317 -24.798671982933588,-1.829739005620429 -26.428726906958087,-1.2100879890082068"/><polygon points="-25.91729610248446,-4.948699933782317 -22.60286019972575,-6.1374317034092885 -21.50671521545676,-3.081147364655479 -24.798671982933588,-1.829739005620429"/><polygon points="-28.63892392938561,-7.372585324805801 -27.831984992931293,-5.122668690410307 -33.48880605833603,-3.093833886290322 -33.83221874443128,-5.5099955156182165"/><polygon points="-29.71169023605812,-4.448507111910799 -27.831984992931293,-5.122668690410307 -26.428726906958087,-1.2100879890082068 -28.29568363127508,-0.5003808404062239"/><polygon points="-29.71169023605812,-4.448507111910799 -28.91376021283331,-2.2237092353508823 -28.29568363127508,-0.500380840406224 -29.768852062443084,0.059631158306384435 -30.30764986072883,-1.7059484059669479 -32.99019304034638,-0.7095167417860968 -33.48880605833603,-3.093833886290322 -31.00323185255215,-3.985292074309995"/><polygon points="-24.05190736669649,3.036175161008467 -22.50246820557069,2.480464442813144 -19.852852437552514,1.53017228657437 -18.95096509278322,4.044825189882491 -17.94480062520022,6.850224793599391 -20.594416393218395,7.800516949838165 -22.143855554344196,8.356227668033487 -23.150020021927197,5.550828064316588"/><polygon points="-21.639964717515834,2.17112513810325 -24.05190736669649,3.036175161008467 -25.45611597944197,-0.8790558103208461 -23.060531584484288,-1.78971611006765"/><polygon points="-19.852852437552514,1.53017228657437 -21.639964717515834,2.17112513810325 -23.060531584484288,-1.78971611006765 -21.28553984022714,-2.464463581822603"/><polygon points="-25.45611597944197,-0.8790558103208461 -24.11488177479132,2.8605891756099417 -31.6764700396742,5.572574099446664 -32.468214561209585,1.7865316804673599"/><polygon points="-31.6764700396742,5.572574099446664 -27.091086255654943,3.9280132933501664 -24.11488177479132,2.8605891756099417 -23.270267324141148,5.215553121851762 -22.143855554344196,8.356227668033487 -25.37809427155766,9.087778313003703 -30.361026681918958,10.214865005535621 -31.11278272925383,7.561865739877079"/><polygon points="-17.94480062520022,6.850224793599391 -17.312214637412744,8.614008485662094 -20.487866405677007,11.281309707390138 -24.097681059809126,12.041104180616248 -28.687039375379594,10.702958970364612"/></g><g fill="#899E84" stroke="#17301D" stroke-width="0.3"><polygon points="-8.38159160239551,-14.221035894264046 -7.719512397059924,-16.71492411065512 -7.432170486153422,-17.797269848008103 -6.050657568934585,-17.430504822863263 -3.16534371246557,-16.664509662102137 -3.644754333506852,-15.63315446159041 -4.749388885449159,-13.256756151231455 -7.205557224256999,-13.908821456821444"/><polygon points="-7.432170486153422,-17.797269848008103 -6.5596517166007775,-21.083831728266006 -5.9484854678707055,-23.385943460035783 -2.930508161649771,-22.584728712922896 -0.6899152105788087,-21.989894513548762 -1.7096049242679916,-19.796237879831644 -3.16534371246557,-16.664509662102137 -4.9833705761951155,-17.147160718114044"/><polygon points="-12.90468561441148,-25.232680388702832 -8.256625821374293,-23.99871019152228 -5.9484854678707055,-23.385943460035783 -7.230440991889363,-18.557134837860286 -8.38159160239551,-14.221035894264046 -10.689731955899095,-14.833802625750543 -15.337791748936283,-16.067772822931094 -14.186641138430137,-20.403871766527335"/><polygon points="-6.161170973147112,-23.44240735821466 -5.273616666969409,-26.785604377160155 -4.753903183943218,-28.743236214519598 -2.727031929284678,-28.205141002079078 0.3439032282140211,-27.389866967200277 -0.03789289173104715,-25.395620730867144 -3.1919099171691183,-26.232951398734368 -3.9858174709842418,-22.864892973820886"/><polygon points="0.3439032282140211,-27.389866967200277 -4.753903183943218,-28.743236214519598 -4.14212977928092,-31.047634952153164 0.6720717536986003,-30.23653012257973"/><polygon points="-5.118331573212501,-27.37052482531898 -5.639669720672414,-25.406773279842756 -6.161170973147112,-23.44240735821466 -9.302046684525985,-24.276249260742606 -8.368844467835734,-26.131316519570902 -11.49925524944369,-26.962380185150987 -10.094264447639691,-28.691538999751955 -7.435934119977302,-27.98580358655643"/><polygon points="-13.341013287981621,-23.58914222161849 -15.110636940661436,-24.05894315896955 -15.160800382860122,-25.583528102553476 -12.847767885891514,-25.44707536035542"/><polygon points="-13.341013287981621,-23.58914222161849 -15.337791748936283,-16.067772822931094 -18.271917937926435,-16.846726716210284 -16.275139476971773,-24.368096114897682"/><polygon points="-17.233467476492436,-20.758312140137683 -18.271917937926435,-16.846726716210284 -20.878111691759855,-17.538620874957136 -19.839661230325863,-21.450206298884538"/></g><g fill="#A38587" stroke="#30161F" stroke-width="0.3"><polygon points="22.95600074741911,-26.012826207930477 25.458476730539743,-24.43669323260293 24.184497377340755,-22.413956075092802 21.682021394220122,-23.990089050420348"/><polygon points="25.458476730539743,-24.43669323260293 27.231744901805325,-23.31983678415655 26.594755225205834,-22.30846820540149 24.82148705394025,-23.425324653847863"/><polygon points="21.714020227853254,-24.72121993885782 19.06472518349278,-24.837169562530192 19.157110218490853,-26.948045024144903 21.802349631735893,-26.739429611006607"/><polygon points="19.06472518349278,-24.837169562530192 21.714020227853254,-24.72121993885782 21.61795617827896,-22.526283875956025 18.968661133918488,-22.642233499628393"/><polygon points="15.798075643198416,-24.147687498397637 19.02836160735913,-24.006310099645514 18.968661133918488,-22.642233499628393 15.738375169757774,-22.783610898380516"/><polygon points="15.92682425433014,-27.089422422897023 16.0318032676791,-29.48805357855398 20.82091494128227,-27.35756604435825 21.64393106850035,-26.839206281433704"/><polygon points="11.820174818534927,-28.828936094828904 9.462431008436639,-28.93212562371082 9.580055794003988,-31.619695894555942 11.913492472396602,-30.961120659960816"/><polygon points="13.522620145496912,-27.892229289650594 11.782511850365474,-27.96838724812304 11.913492472396602,-30.961120659960816 13.635661141801641,-30.475066058193317"/><polygon points="16.0318032676791,-29.48805357855398 15.957296496166377,-27.785672714449554 13.522620145496912,-27.892229289650594 13.597126917009632,-29.59461015375502"/><polygon points="15.738375169757774,-22.783610898380516 9.20584671385858,-23.069514960935923 9.311350680722976,-25.48014060784622 15.843879136622167,-25.194236545290817"/><polygon points="6.900439046085101,-25.011966946529103 6.819995324547507,-23.173934652248786 4.58301743379024,-23.271838713613658 4.663461155327835,-25.109871007893975"/><polygon points="9.367579889168093,-26.764903408826843 9.20584671385858,-23.069514960935923 6.819995324547507,-23.173934652248786 6.981728499857017,-26.869323100139706"/><polygon points="4.744750609099752,-26.967227161504578 4.58301743379024,-23.271838713613658 1.8959727960968245,-23.389440494206056 2.320657215536859,-27.073320560700946"/><polygon points="9.580055794003988,-31.619695894555942 9.479773409270942,-29.32837647069469 6.06028256074627,-29.478034651606457 6.195818145621517,-32.57484292033443"/><polygon points="2.6079106185135403,-29.56506981454433 2.7264924322373014,-30.59369521220259 3.0232370091504572,-33.167774650229134 4.191069373823054,-32.949515499579775 6.195818145621517,-32.57484292033443 6.096980558113607,-30.316535195928697 6.057484165247095,-29.414095027713646 3.8777043476267727,-29.50949574575738"/><polygon points="5.948089040643421,-26.91456158973861 2.320657215536859,-27.073320560700946 2.6079106185135403,-29.56506981454433 6.057484165247095,-29.414095027713646"/></g><g fill-rule="nonzero" fill="#99948A" stroke="#1A1917" stroke-width="0.3"><path d="M 37.694690904858525,12.02586790514361 L 27.871804095088166,8.077514327186814 L 16.041393888794126,-1.3328410257579808 L 32.603318102705394,-18.811870271736364 L 35.27912918533944,-9.638380694696078 L 37.049993085783505,0.2592813333601507 L 37.869280772856314,11.89872165380465 Z M 32.72268752629903,0.7971340421133064 L 31.03378405721235,-8.642437079552188 L 30.547095497313016,-10.310952641236142 L 22.468186567031662,-1.7846797490215742 L 30.085272489164055,4.274238245473996 L 33.05135701180798,5.466469273307372 Z"/></g><g fill="#8E8595" stroke="#1B162E" stroke-width="0.3"><polygon points="2.727218122859252,33.12780919335891 1.066644451331147,33.18994799291365 0.09531705047000383,33.22629514191343 0.058588533086685324,32.24477619726007 -0.032625229214845675,29.807214267446827 0.9419851292091639,29.85859962909582 2.6081713191206752,29.946447638511202 2.693043238596512,32.21453257004357"/><polygon points="-0.03262522921484548,29.807214267446827 0.039125919993396235,31.724664719191043 0.09531705047000374,33.22629514191343 -1.4079082202664044,33.282545951730235 -2.5620495220070953,33.32573401151726 -2.618796166150654,31.80925825261002 -2.691256657628157,29.87285160755538 -1.5365660065835893,29.844344149856358"/><polygon points="-5.574467095667464,32.39920137782951 -3.5104514890324836,30.590653071792396 -2.6266530898176246,31.599292809536315 -5.213530209624924,33.424952630839066"/><polygon points="-0.6036431801814837,38.889766580312966 -0.6944362158143419,36.46344799015081 2.8470789428684533,36.33092420976173 2.922114407711996,38.33614346476654"/><polygon points="2.727218122859252,33.12780919335891 2.7738412887976245,34.373748966822646 2.8470789428684533,36.33092420976173 0.5056002126249606,36.41854253105332 -0.694436215814342,36.46344799015081 -0.7676738698851704,34.506272747211725 -0.8142970358235431,33.260332973747985 0.3857393926157595,33.21542751465049"/><polygon points="-0.8142970358235432,33.260332973747985 -0.6036431801814837,38.889766580312966 -3.1499080730446156,39.28958734729758 -3.46632924198894,33.35957223093794"/><polygon points="0.45166671376484624,27.515231215992845 0.9606884883637516,29.25872562460044 -2.6816874715762955,29.066684975385744 -2.8529630685049066,28.480034147312104"/><polygon points="-3.432757788377121,26.494129216164612 -0.12812800610736805,25.529326284845354 0.45166671376484624,27.515231215992845 -2.8529630685049066,28.480034147312104"/><polygon points="-0.12812800610736805,25.529326284845354 1.476094122789287,25.060965737848267 2.5856426377138906,29.34439971569302 0.9606884883637516,29.25872562460044"/><polygon points="-3.432757788377121,26.494129216164612 -3.088922633399826,27.67182867834972 -2.6816874715762955,29.066684975385744 -5.151130627609309,29.787651060134433 -6.368359869741625,30.14302712894483 -6.851389343848601,28.77029935446245 -7.259218847923062,27.611283357495765 -5.995835560089345,27.242432387858695"/><polygon points="7.5679359473510175,34.20644293256824 3.4220896266301706,34.85743390385208 3.347816077539417,32.87257579595779 7.26198100103281,32.257964006665254"/><polygon points="5.285857356117513,34.564780517641786 5.806918158029788,37.883164494948836 3.548582221424985,38.23777395008174 3.4220896266301706,34.85743390385208"/><polygon points="7.5679359473510175,34.20644293256824 7.782976817665712,35.575934124190404 8.088996749263293,37.52482690987529 6.722589820498486,37.739383481661314 5.806918158029788,37.883164494948836 5.5008982264322075,35.93427170926395 5.285857356117513,34.564780517641786 6.201529018586211,34.42099950435426"/><polygon points="8.088996749263293,37.52482690987529 7.771387129352191,35.50212501043549 7.5413445314237295,34.03709507868405 7.26198100103281,32.257964006665254 8.443347203396797,32.07246298419004 8.722710733787716,33.85159405620883 10.163942026059816,33.62528837909976 10.39398462398828,35.09031831085121 10.71159424389938,37.113020210291005 9.27036295162728,37.33932588740007"/><polygon points="6.419193041870706,32.39030064186062 5.045113862858678,32.60606192922315 3.347816077539417,32.87257579595779 3.286854101599396,31.243451111610753 3.2149629569657874,29.322259475306076 4.683251152544504,29.09170525678931 5.871931333349877,28.90505577545644 6.168072443696637,30.791035131397432"/><polygon points="9.884578495668897,31.846157307080965 6.419193041870706,32.39030064186062 5.871931333349877,28.90505577545644 8.262277106780191,28.529717811535225"/><polygon points="8.262277106780191,28.529717811535225 6.19034549534169,28.855057601730227 3.2149629569657874,29.322259475306076 3.0817984787432495,25.763622551135924 3.0384364513323803,24.604832204709435 4.74268932210739,24.10726719023945 5.9294595445242315,23.76078378216348 6.502493598057077,24.93222626532058"/><polygon points="-7.998483864254937,40.05092262590832 -8.195316422150574,38.797391360581614 -8.537485462726062,36.61828240130245 -6.953345566578414,36.36953686423601 -6.427853725205623,38.51986002710177 -4.315922308731379,38.18823936928241 -3.8876242053185557,39.40542534618348 -6.125564824033468,39.756832278411366"/><polygon points="-8.537485462726062,36.61828240130245 -8.900930351769547,34.30367786377079 -9.13358866688575,32.82198969564249 -7.1941503300141045,32.51745432481725 -6.35755722523761,32.38609042087179 -5.851304010968424,33.824818045998825 -5.060465552450078,36.07231219559298 -6.10831063030715,36.2368474031765"/><polygon points="-7.998483864254937,40.05092262590832 -10.329080942079026,40.41687870290545 -11.722591624636609,40.63569117267757 -11.99325475162205,38.911968757673264 -12.357839096026895,36.590107580609114 -10.964328413469312,36.371295110836996 -10.599744069064467,38.69315628790115 -8.269146991240378,38.32720021090402"/><polygon points="-11.722591624636609,40.63569117267757 -13.389991283599997,40.89751036218342 -13.897065709314655,36.83180072369598 -12.357839096026895,36.590107580609114"/><polygon points="-11.61673908722744,33.21190007314559 -11.465528191221882,34.17488906148935 -11.116881755986915,36.39524941134297 -12.33592237516981,36.58666616327369 -12.653723891498947,34.36146246849981 -14.175366212482842,34.60039448282293 -14.296067485147509,33.63261479849197 -12.791557086333329,33.396372880663144"/><polygon points="-8.781235442478426,32.766662326983045 -9.03944128623938,31.122274317678027 -6.91940062327728,30.789380326059213 -6.35755722523761,32.38609042087179"/><polygon points="-6.91940062327728,30.789380326059213 -9.03944128623938,31.122274317678027 -9.488545614968958,28.262146280554298 -7.965171722294954,27.817389774081846"/><polygon points="-8.781235442478426,32.766662326983045 -12.190962676372006,33.30206607137929 -14.296067485147509,33.63261479849197 -14.109045022736437,31.492115932397144 -12.21729904795641,31.07449883116341 -12.24104830944395,29.06575299085564 -9.488545614968958,28.262146280554298 -9.153158135386807,30.398066761139944"/></g><g fill="#989E7C" stroke="#263014" stroke-width="0.3"><polygon points="27.513632074984073,24.256230106639734 21.884486304605,21.838666005720505 23.015757043812265,19.11730788109612 29.768025211746963,22.01722232432776"/><polygon points="24.746157267971284,23.06767539220356 27.513632074984073,24.256230106639734 23.890993375663776,27.854145708853423 22.877444934984474,27.418854383192134"/><polygon points="23.57518927492265,25.79420062593478 22.877444934984474,27.418854383192134 20.066620071590496,26.21168200555181 20.745379371489413,24.57887469300816"/><polygon points="21.884486304605,21.838666005720505 23.1187315951174,22.368740590353344 21.947763602068758,25.095265824084564 20.745379371489413,24.57887469300816"/><polygon points="19.38315112623451,31.85547381507607 16.825378677775966,34.00873561546578 17.965475764380727,31.26614503837138"/><polygon points="17.965475764380727,31.26614503837138 19.220942761235634,28.246023334805493 20.710347575424038,28.865170101958135 19.38315112623451,31.85547381507607"/><polygon points="19.220942761235634,28.246023334805493 20.066620071590496,26.21168200555181 23.890993375663776,27.854145708853423 22.199752389612446,29.484316869110785"/><polygon points="23.265459120591025,18.516630473092416 24.025733703666543,16.6877319239725 27.56584671558635,18.15935972173783 26.320587978711497,19.828724732569558"/><polygon points="24.025733703666543,16.6877319239725 25.140014724965578,14.007243862775224 29.355823152596507,15.759758782854153 27.56584671558635,18.15935972173783"/><polygon points="27.564761224007476,15.015212913059614 25.140014724965578,14.007243862775224 26.163430954421933,11.545337994994052 28.58817745346383,12.553307045278439"/><polygon points="26.163430954421933,11.545337994994052 27.250546916568773,8.930197557374077 29.687165512527763,9.909607372205858 28.58817745346383,12.553307045278439"/><polygon points="29.355823152596507,15.759758782854153 27.564761224007476,15.015212913059614 28.082061484365482,13.770807645950821 30.186812157345567,14.645754176554105"/><polygon points="28.082061484365482,13.770807645950821 28.60401986421198,12.515196916810584 31.02528394602956,13.521718323482053 30.186812157345567,14.645754176554105"/><polygon points="28.60401986421198,12.515196916810584 29.687165512527763,9.909607372205858 32.789526668341956,11.15661540628902 31.02528394602956,13.521718323482053"/><polygon points="31.54977673773778,20.24763055801852 28.471724709536915,17.951565194360995 29.89869277938161,16.038604861835168 33.13358661414724,18.45166598655438"/><polygon points="26.889275204012453,20.072960337156925 28.471724709536915,17.951565194360995 31.54977673773778,20.24763055801852 30.265630805718164,21.523012694580885"/><polygon points="33.13358661414724,18.45166598655438 31.175935436688494,16.99136089050515 29.89869277938161,16.038604861835168 31.0522245069913,14.492206954370076 32.22765443977768,12.916452820412074 33.5859907237941,13.929700441100387 35.66793545886629,15.482722011707978 34.38884635110539,16.981151838245676"/><polygon points="35.66793545886629,15.482722011707978 32.22765443977768,12.916452820412074 33.36719462973012,11.388811644155606 37.36381892254498,13.496025112414834"/></g><g fill-rule="nonzero" fill="#99948A" stroke="#1A1917" stroke-width="0.6"><path d="M -25.544158614039546,18.79297728564398 L -24.147097542827208,22.13549087095189 L -22.531081911390437,26.001860289906503 L -26.179889583674523,27.526942245502923 L -24.345220843260826,31.916446266290635 L -27.900080489339707,33.402261027669674 L -29.734749229753405,29.012757006881962 L -31.350764861190175,25.14638758792735 L -27.795905215111294,23.66057282654831 L -29.19296628632363,20.318059241240398 Z"/></g><g stroke="#CCC5B8" stroke-width="0.6" stroke-linecap="square"><polyline points="-35.55753994684922,-3.215628132342279 -43.38814807539707,-1.578076198167264"/><polyline points="-34.329375996217955,2.6573279640686085 -42.159984124765806,4.294879898243623"/><polyline points="-33.10121204558669,8.530284060479497 -40.93182017413454,10.167835994654512"/></g><g fill="#898C95" stroke="#171D2E" stroke-width="0.3"><polygon points="22.181529853286523,36.32775014171604 21.594590941317907,35.09176320384143 25.117503793100823,33.418821061150695 25.704442705069436,34.65480799902529"/><polygon points="25.25223214845175,33.702534551565826 24.678911991911207,32.4952262435724 28.889833986081157,28.950259810013605 29.263970720638756,29.07715887640312 29.806993971509105,31.53959345018285"/><polygon points="21.013680716752425,39.652018715060755 19.042229631604116,40.588210934782815 17.906504702708293,38.19658013895503 19.63251619886569,36.743536642474716"/><polygon points="22.74133163017319,37.506591193010834 20.500249001951357,38.57082460772815 19.63251619886569,36.743536642474716 21.594590941317907,35.09176320384143"/><polygon points="17.906504702708293,38.19658013895503 19.042229631604116,40.588210934782815 17.85976562816876,41.14973315993825 16.871253826286885,39.068106520186326"/><polygon points="17.85976562816876,41.14973315993825 16.535855718882512,41.77842446555768 16.275803432230003,41.067285007319434 16.789898804740247,39.13659527893882 16.871253826286885,39.068106520186326"/><polygon points="18.234379128360374,40.97183869077071 19.140330318058567,42.87960764932085 17.26431789522889,43.770478464014666 16.535855718882512,41.77842446555768"/><polygon points="19.140330318058567,42.87960764932085 20.145366752105758,44.996032168533546 18.072453075555018,45.98040640473036 17.26431789522889,43.770478464014666"/><polygon points="20.145366752105758,44.996032168533546 20.82659658836213,46.430578698221375 18.620220079731837,47.47833105521268 18.072453075555018,45.98040640473036"/><polygon points="22.701002309227025,58.63764559625039 26.521606846465822,57.24051183465978 27.34744058778208,59.49883829259726 23.64810150652892,61.22758479169811"/><polygon points="25.25033912897215,53.76410081158643 25.79557445423229,55.2551023282774 21.974969916993498,56.65223608986801 21.429734591733364,55.161234573177055"/><polygon points="25.79557445423229,55.2551023282774 26.521606846465822,57.24051183465978 22.701002309227025,58.63764559625039 21.974969916993498,56.65223608986801"/><polygon points="22.990394891480967,46.078065917180254 23.826688014880382,48.92879178589855 24.25653176803898,50.39402768507135 21.500403664498446,51.202569469285464 20.12921237986755,51.60482415634087 19.688323434673162,50.39916844123569 18.8305410652901,48.053475206611324 20.212541045267052,47.397198396774506"/><polygon points="22.050769309064076,51.04111339630555 22.767742461170762,53.48510564579205 20.91105108845582,53.742841717394235 20.12921237986755,51.60482415634087"/></g><g fill="#898C95" stroke="#171D2E" stroke-width="0.3"><polygon points="15.789139712552466,54.85277300833564 12.502127999539356,49.46875333146892 15.23716476247482,47.59439240479808 18.62340928372064,53.310469520711095"/><polygon points="14.19990321721529,44.94845365963478 15.385404712004718,44.45581630252994 16.819587227703483,48.37773443044708"/><polygon points="15.113768151907884,43.71299846896448 13.477260904810073,44.39305210756102 12.669228858579759,42.44857269521321 14.38991183917961,41.73353967357323"/><polygon points="12.055404602885847,44.98390714556941 11.24737255665553,43.03942773322161 12.669228858579759,42.44857269521321 13.477260904810073,44.39305210756102"/><polygon points="13.639040122841726,42.04556581566357 11.24737255665553,43.03942773322161 10.543452888819537,41.345488354901896 13.147048415023715,40.86161803616513"/><polygon points="12.055404602885847,44.98390714556941 10.608330585690881,45.58524145218928 8.968152253178527,41.63825319222097 10.543452888819537,41.345488354901896"/><polygon points="9.678263862446272,43.34709309669269 5.863534786594655,44.93231087858367 4.815396370216896,42.410030256861326 8.968152253178527,41.63825319222097"/><polygon points="5.863534786594655,44.93231087858367 9.678263862446272,43.34709309669269 10.608330585690881,45.58524145218928 6.793601509839267,47.17045923408026"/><polygon points="6.052954794298326,45.388138474759934 3.5071614185876787,46.446047659908515 2.0440177984825523,42.925082544879494 4.815396370216896,42.410030256861326"/><polygon points="3.5071614185876787,46.446047659908515 1.5995653722420542,47.23875275460962 0.8968748921588701,44.3463638154786 2.3787403806526175,43.730571848074874"/><polygon points="16.160189965744696,63.253023263009645 16.55254906702351,61.404293422267294 16.88984907413482,59.814992737265044 19.17720316934401,60.30044181550479 21.34800534183413,60.76115487951327 21.01070533472282,62.35045556451552 20.618346233444008,64.19918540525788 18.447544060953888,63.7384723412494"/><polygon points="19.60084285407974,57.51700926918085 20.20886152371176,57.64605011307277 21.34800534183413,60.76115487951327 19.01731205963831,60.266507851372204"/><polygon points="16.944999375802936,59.55513382718119 15.362554516078555,59.219288843613754 16.1338905533144,55.58488366572917 17.716335413038784,55.92072864929662"/></g><g fill="#A38593" stroke="#30162B" stroke-width="0.3"><polygon points="-6.431069837075153,-34.336010651008344 -8.401951261263418,-39.314989389195865 -1.2224895710012174,-40.30947099924394 0.11616386457168115,-36.9276709012171"/><polygon points="-11.842501058983522,-34.07360707268097 -9.406630436222066,-39.17582366805972 -7.629159383641021,-37.36270840440214 -9.690024731531928,-33.04598432201654"/><polygon points="-2.644428124529406,-53.710469363840886 1.9604427538932558,-54.34832490271068 1.8743823449182546,-51.88935975140866 -2.3118506929251033,-51.30949291025572"/><polygon points="-1.2865425459815083,-46.97445530512035 -1.8950192291869576,-51.36723139303629 1.8743823449182546,-51.88935975140866 1.7169280283225417,-47.390488760179686"/><polygon points="0.2571361313697693,-40.51442516074579 -5.012484693956042,-39.78449007246183 -5.429833617628732,-42.797457410123705 -0.16021279230292151,-43.52739249840767"/><polygon points="-0.6499067726317738,-47.062640547442044 1.7169280283225417,-47.390488760179686 1.4822143169931419,-40.68412001796969 0.2571361313697693,-40.51442516074579"/></g><g fill="#A38593" stroke="#30162B" stroke-width="0.3"><polygon points="9.782430772416097,-66.03637680164843 2.75142516186263,-65.72218448667503 2.326164744615827,-69.49665804581586 9.662188885397288,-68.7271535710432"/><polygon points="5.423985256607332,-65.84161233093859 5.475116106676798,-64.69740454297528 2.879950506974116,-64.5814352019345 2.75142516186263,-65.72218448667503"/><polygon points="5.6533134997538825,-60.7096976169893 3.327877373280538,-60.605781591264225 2.879950506974116,-64.5814352019345 5.475116106676798,-64.69740454297528"/><polygon points="3.327877373280538,-60.605781591264225 8.685316210965155,-60.84518775931136 8.83057056099404,-57.59468129769759 3.6929967765575045,-57.36510016946526"/><polygon points="7.430051918326473,-52.259999374014214 7.50735877044519,-49.90827166913941 3.8020085474241014,-49.786468043173116 3.884499638370562,-52.14344868440097"/><polygon points="7.430051918326473,-52.259999374014214 3.884499638370562,-52.14344868440097 3.9697622546864073,-54.90861953568398 7.339344364111242,-55.01938566957577"/><polygon points="3.6929967765575045,-57.36510016946526 8.83057056099404,-57.59468129769759 8.94329584325549,-55.072111348465704 3.9697622546864073,-54.90861953568398"/><polygon points="9.847614932081516,-44.55939240111665 9.7911348852532,-41.796738614479864 9.741910631649903,-39.388993255753604 6.692892368635536,-39.45132777450816 3.442618432268386,-39.51777678995079 3.526861162431533,-41.9248062264701 3.6235215076122866,-44.686638561956 6.83499479615933,-44.620982791912574"/><polygon points="9.941411753950758,-49.147351506377994 9.892803353347393,-46.769729858905784 9.847614932081516,-44.55939240111665 6.235617747555109,-44.633236532839774 3.6235215076122866,-44.686638561956 3.6953155412160785,-46.73797702067065 3.772543137325526,-48.94456620393983 6.361462907526786,-49.029670120267944"/><polygon points="7.4012084274346925,-39.4368468705441 12.705154761712777,-39.3284123143272 12.612903989579072,-34.816076378593266 7.3371818725049565,-36.30506468630434"/><polygon points="3.442618432268386,-39.51777678995079 7.4012084274346925,-39.4368468705441 7.3371818725049565,-36.30506468630434 4.343849050674712,-37.149885068023934"/><polygon points="12.705154761712777,-39.3284123143272 14.698837916188326,-39.28765320130686 17.33525614000315,-39.23375393044623 17.26041298388547,-35.57289066521435 17.218366923446904,-33.51625802047074 14.595978034753468,-34.25638540149768 12.612903989579072,-34.816076378593266 12.646087388825928,-36.439202575026336"/><polygon points="18.39198814494543,-43.43494997598197 21.66718139186929,-43.43362684411541 24.13918809922141,-43.43262818827978 24.137827001498998,-40.06345676893714 21.633868381015233,-39.922090141596875 21.578767205425507,-34.11385499638813 18.191219005967465,-33.61456820959844 18.316341636450044,-39.73479169219212"/></g><g><path fill="none" stroke="#1A1917" stroke-width="1.9" stroke-linejoin="round" stroke-linecap="round" d="M -16.79486359053713,29.353514362425972 M -23.05481511160463,14.376378835788088 M -32.4516352540555,11.636494738580978 M -36.20711673838041,-6.321838810443763 L -26.396587005018258,-18.259713463680878 L -13.934767467618697,-29.26852780686022 L 0.04153192720276988,-34.80091312212161 M 4.6350795710040655,-35.0415131805306 L 18.487121895939193,-31.131995468633715 L 33.86631133638045,-21.445729636559122 L 38.625482599495264,-5.12985133675157 L 39.93586130644356,13.486411298903798 L 28.96679501362998,26.336474678142306 L 16.230566342787167,37.05847408605741 M 12.020270109983064,39.08763661052304 L -0.14037184214860154,41.34765497289911 L -15.05994096961328,43.26407909260081 M -16.79486359053713,29.353514362425972"/><g stroke="#1A1917" stroke-width="3.8" stroke-linecap="butt"><line x1="1.8081601603864252" y1="-35.50021612205683" x2="2.806512518928303" y2="-35.55759702649262" stroke="#CCC5B8" stroke-width="3.8" stroke-linecap="butt"/><line x1="-1.9855788020727105" y1="-35.2821686852008" x2="1.8081601603864252" y2="-35.50021612205683"/><line x1="2.806512518928303" y1="-35.55759702649262" x2="6.6002514813874384" y2="-35.77564446334865"/></g><g stroke="#1A1917" stroke-width="3.8" stroke-linecap="butt"><line x1="14.777052572404964" y1="38.282115258668604" x2="13.888284200087904" y2="38.7404718669649" stroke="#CCC5B8" stroke-width="3.8" stroke-linecap="butt"/><line x1="18.154372387209786" y1="36.54036014714267" x2="14.777052572404964" y2="38.282115258668604"/><line x1="13.888284200087904" y1="38.7404718669649" x2="10.510964385283081" y2="40.482226978490836"/></g><polygon points="-34.29904168545278,-5.073780481520304 -37.45517506730386,-4.413763757516133 -38.115191791308035,-7.569897139367223 -34.95905840945695,-8.229913863371394" stroke="none" fill="#1A1917"/><polygon points="-26.697730393031755,-16.30990722412637 -29.018037806915316,-18.548874286205887 -26.7790707448358,-20.86918170008945 -24.458763330952237,-18.63021463800993" stroke="none" fill="#1A1917"/><polygon points="-14.714369103064778,-27.456166639222893 -16.40039220379052,-30.204643690940653 -13.651915152072759,-31.890666791666398 -11.965892051347016,-29.142189739948638" stroke="none" fill="#1A1917"/><polygon points="16.551876205614654,-30.748256195128587 17.86245581874025,-33.69430118420455 20.80850080781621,-32.38372157107895 19.497921194690612,-29.43767658200299" stroke="none" fill="#1A1917"/><polygon points="31.987549669513815,-22.047964068539255 34.56170179417804,-23.989752120589895 36.50348984622869,-21.415599995925668 33.92933772156446,-19.473811943875024" stroke="none" fill="#1A1917"/><polygon points="37.22211289543038,-6.516568750525112 40.39611777676035,-7.08445343361975 40.96400245985499,-3.910448552289776 37.78999757852502,-3.3425638691951374" stroke="none" fill="#1A1917"/><polygon points="39.36005844171282,11.599381152637498 42.42264147558024,12.60803627737906 41.413986350838684,15.670619311246483 38.351403316971265,14.661964186504921" stroke="none" fill="#1A1917"/><polygon points="29.309325386607828,24.393511823238075 31.58150537299008,26.68130510705634 29.293712089171816,28.95348509343859 27.021532102789564,26.665691809620327" stroke="none" fill="#1A1917"/><polygon points="1.275911478051686,39.97412911989437 1.77608714041452,43.1595057548906 -1.4092894945817092,43.65968141725344 -1.909465156944543,40.47430478225721" stroke="none" fill="#1A1917"/></g><g><path fill="none" stroke="#1A1917" stroke-width="1.9" stroke-linejoin="round" stroke-linecap="round" d="M -37.87723745417564,23.364914444150372 L -32.4516352540555,11.636494738580978 L -23.05481511160463,14.376378835788088 L -17.736423780555338,27.100801298286317 M -16.501836121630948,31.7030010339227 L -15.05994096961328,43.26407909260081 L -26.4462355332426,44.49722846746379 L -37.87723745417564,23.364914444150372"/><g stroke="#1A1917" stroke-width="3.8" stroke-linecap="butt"><line x1="-17.003712365252305" y1="28.853836945922904" x2="-16.736981918069514" y2="29.817608116142093" stroke="#CCC5B8" stroke-width="3.8" stroke-linecap="butt"/><line x1="-18.017288064546914" y1="25.19150649908998" x2="-17.003712365252305" y2="28.853836945922904"/><line x1="-16.736981918069514" y1="29.817608116142093" x2="-15.723406218774906" y2="33.479938562975015"/></g><polygon points="-36.46522713915164,25.443088002289432 -40.70579212795397,25.57578531101804 -40.83848943668258,21.3352203222157 -36.597924447880246,21.20252301348709" stroke="none" fill="#1A1917"/><polygon points="-33.82512848278369,13.740323348073769 -35.581800202930985,9.878444988048074 -31.719921842905286,8.121773267900782 -29.963250122757994,11.983651627926475" stroke="none" fill="#1A1917"/><polygon points="-25.53367466097609,13.966703596150047 -22.706587814118414,10.80322766604969 -19.543111884018053,13.630314512907365 -22.370198730875728,16.793790443007723" stroke="none" fill="#1A1917"/><polygon points="-14.799359505121526,40.765144165907856 -11.47235371045982,43.39782957101942 -14.105039115571383,46.72483536568113 -17.43204491023309,44.092149960569564" stroke="none" fill="#1A1917"/><polygon points="-23.94218988444981,44.29147653856774 -25.91463663191299,48.047731831864766 -29.670891925210015,46.07528508440158 -27.698445177746834,42.319029791104555" stroke="none" fill="#1A1917"/></g><g id="labels" style="font: bold italic 2px &quot;Archivo Narrow&quot;, sans-serif" fill="#1A1917"><text text-anchor="middle" stroke="#CCC5B8" stroke-width="1.013170021471609" x="1.8326392027429583" y="0.08332152090099244">Market</text><text text-anchor="middle" x="1.8326392027429583" y="0.08332152090099244">Market</text><text text-anchor="middle" stroke="#CCC5B8" stroke-width="1.013170021471609" x="-11.695624546725885" y="-14.088185896724578">Craftsmen</text><text text-anchor="middle" x="-11.695624546725885" y="-14.088185896724578">Craftsmen</text><text text-anchor="middle" stroke="#CCC5B8" stroke-width="1.013170021471609" x="13.11778107837843" y="-14.419781616621995">Craftsmen</text><text text-anchor="middle" x="13.11778107837843" y="-14.419781616621995">Craftsmen</text><text text-anchor="middle" stroke="#CCC5B8" stroke-width="1.013170021471609" x="14.391115451049906" y="15.84800013102065">Merchant</text><text text-anchor="middle" x="14.391115451049906" y="15.84800013102065">Merchant</text><text text-anchor="middle" stroke="#CCC5B8" stroke-width="1.013170021471609" x="-8.85038346166846" y="17.66933951851989">Craftsmen</text><text text-anchor="middle" x="-8.85038346166846" y="17.66933951851989">Craftsmen</text><text text-anchor="middle" stroke="#CCC5B8" stroke-width="1.013170021471609" x="-26.98934862884243" y="0.2707707505952676">Docks</text><text text-anchor="middle" x="-26.98934862884243" y="0.2707707505952676">Docks</text><text text-anchor="middle" stroke="#CCC5B8" stroke-width="1.013170021471609" x="13.330255039920052" y="-27.14276777688269">Gate</text><text text-anchor="middle" x="13.330255039920052" y="-27.14276777688269">Gate</text><text text-anchor="middle" stroke="#CCC5B8" stroke-width="1.013170021471609" x="29.974817488218722" y="-2.5319398440321637">Temple</text><text text-anchor="middle" x="29.974817488218722" y="-2.5319398440321637">Temple</text><text text-anchor="middle" stroke="#CCC5B8" stroke-width="1.013170021471609" x="-2.1815183941244065" y="33.706187521336496">Gate</text><text text-anchor="middle" x="-2.1815183941244065" y="33.706187521336496">Gate</text><text text-anchor="middle" stroke="#CCC5B8" stroke-width="1.013170021471609" x="27.144925178857086" y="20.759927414301345">Craftsmen</text><text text-anchor="middle" x="27.144925178857086" y="20.759927414301345">Craftsmen</text><text text-anchor="middle" stroke="#CCC5B8" stroke-width="1.013170021471609" x="-25.951000325287858" y="28.447968919158974">Castle</text><text text-anchor="middle" x="-25.951000325287858" y="28.447968919158974">Castle</text><text text-anchor="middle" stroke="#CCC5B8" stroke-width="1.013170021471609" x="18.09329857487203" y="48.35694149632219">Gate</text><text text-anchor="middle" x="18.09329857487203" y="48.35694149632219">Gate</text><text text-anchor="middle" stroke="#CCC5B8" stroke-width="1.013170021471609" x="1.772800529775635" y="-47.10829258682658">Gate</text><text text-anchor="middle" x="1.772800529775635" y="-47.10829258682658">Gate</text></g></g></svg>