<svg width="89.77230214763215" height="123.51576612172508" xmlns="http://www.w3.org/2000/svg"><rect x="0" y="0" width="89.77230214763215" height="123.51576612172508" id="background" fill="#CCC5B8"/><g id="map" transform="translate(44.88615107381607 61.75788306086254)"><g fill="none"><path d="M 25.1017371714667,-6.38344980625086 C 32.36730361408557,-11.645451409385448 32.36730361408557,-11.645451409385448 35.528771482650214,-14.792182225164817 C 38.86662907377052,-18.114480530043696 41.214104801281565,-22.825534892123923 45.201980816057784,-26.389996989608697 C 49.29785898486401,-30.050994080423315 54.87305038807776,-32.33284391412496 59.54336088115097,-36.257015479871484 C 63.5554040588145,-39.628085943320386 66.60364310510703,-45.5907650240704 72.58453084130704,-49.39785147082265 C 80.75461370488084,-54.59845263751782 90.27022905150773,-58.696427293883325 100.36344939457304,-62.240717664091754 C 107.80452959104333,-64.85369429472863 115.64786034309745,-68.73048250168439 123.01316842909971,-67.10614758544637 C 133.27263867576843,-64.8435381264557 133.27263867576843,-64.8435381264557 150.27857493879614,-51.232504521728266" stroke="#67635C" stroke-width="2.3" stroke-linejoin="round" stroke-linecap="butt"/><path d="M 25.1017371714667,-6.38344980625086 C 32.36730361408557,-11.645451409385448 32.36730361408557,-11.645451409385448 35.528771482650214,-14.792182225164817 C 38.86662907377052,-18.114480530043696 41.214104801281565,-22.825534892123923 45.201980816057784,-26.389996989608697 C 49.29785898486401,-30.050994080423315 54.87305038807776,-32.33284391412496 59.54336088115097,-36.257015479871484 C 63.5554040588145,-39.628085943320386 66.60364310510703,-45.5907650240704 72.58453084130704,-49.39785147082265 C 80.75461370488084,-54.59845263751782 90.27022905150773,-58.696427293883325 100.36344939457304,-62.240717664091754 C 107.80452959104333,-64.85369429472863 115.64786034309745,-68.73048250168439 123.01316842909971,-67.10614758544637 C 133.27263867576843,-64.8435381264557 133.27263867576843,-64.8435381264557 150.27857493879614,-51.232504521728266" stroke="#CCC5B8" stroke-width="1.7" stroke-linejoin="round" stroke-linecap="round"/></g><g fill="none"><path d="M -10.946087818112971,22.845253886695744 L -15.025553120674312,35.405915885034965 C -16.062607894503625,38.59900456743056 -16.291509978441248,43.94575389551471 -15.293964442854172,50.708163316379164 C -14.715536436837507,54.629354738359616 -12.586868732830613,58.225617259794916 -11.101505420545584,62.00722498683456 C -9.449206696246254,66.2138359698242 -8.086995366657437,71.30708020490505 -5.217280000192978,76.36253853632903 C -2.304996044960817,81.492988181964 2.6367295813768656,86.31965449156287 6.39969806212413,92.83836802992097 C 11.143726671981922,101.05660416016275 13.86391040687073,109.13838063517525 17.396063373180255,115.53637386068854 C 18.831801700256026,118.13700984045987 21.795688748725297,120.12550400574527 23.23639835277234,123.33565833049204 C 25.116652859467564,127.52519598564268 29.272246900542285,137.35320410566624 34.2910611257327,153.18139958245234 C 46.109421415751605,190.45381264500367 46.109421415751605,190.45381264500367 68.33287585256787,265.5596636739391" stroke="#67635C" stroke-width="2.3" stroke-linejoin="round" stroke-linecap="butt"/><path d="M -10.946087818112971,22.845253886695744 L -15.025553120674312,35.405915885034965 C -16.062607894503625,38.59900456743056 -16.291509978441248,43.94575389551471 -15.293964442854172,50.708163316379164 C -14.715536436837507,54.629354738359616 -12.586868732830613,58.225617259794916 -11.101505420545584,62.00722498683456 C -9.449206696246254,66.2138359698242 -8.086995366657437,71.30708020490505 -5.217280000192978,76.36253853632903 C -2.304996044960817,81.492988181964 2.6367295813768656,86.31965449156287 6.39969806212413,92.83836802992097 C 11.143726671981922,101.05660416016275 13.86391040687073,109.13838063517525 17.396063373180255,115.53637386068854 C 18.831801700256026,118.13700984045987 21.795688748725297,120.12550400574527 23.23639835277234,123.33565833049204 C 25.116652859467564,127.52519598564268 29.272246900542285,137.35320410566624 34.2910611257327,153.18139958245234 C 46.109421415751605,190.45381264500367 46.109421415751605,190.45381264500367 68.33287585256787,265.5596636739391" stroke="#CCC5B8" stroke-width="1.7" stroke-linejoin="round" stroke-linecap="round"/></g><g fill="#A38B7C" stroke="#301C14" stroke-width="0.3"><polygon points="-5.3677257915520045,-5.859509788865138 -2.3624679976964873,-4.323596073190001 4.198995068249836,-0.970192868151246 2.112962712510072,2.869103098696769 0.48815224092659193,5.859530487456356 -7.214867233812751,3.5579150589107185 -10.742976602106896,2.5037374104844847 -8.389397048677754,-1.1581508069010127"/><polygon points="-2.314853747875625,-10.609413462032261 -0.9965819223753876,-9.762129921363647 2.7993267818857275,-7.322412326867736 1.8569701292238108,-5.856218113067007 -2.034219564811629,-8.14768988630437 -3.629493803689142,-5.665634019387587 -5.031728267678677,-6.382281739339376 -3.3855812916006585,-8.943489499239448"/><polygon points="2.7993267818857275,-7.322412326867736 -2.314853747875625,-10.609413462032261 -0.6065204081370617,-13.267375764194913 4.507660121624291,-9.980374629030386"/><polygon points="4.759957972693683,-1.377990517826131 2.918204083849066,-2.3192658601804936 0.40818181397263853,-3.6020768186398495 2.8172830169404803,-7.350350080439652 4.507660121624291,-9.980374629030386 6.429644833873347,-7.782647580091556 4.98173888027532,-5.529879134836383 6.569929969801283,-4.194090411432537"/><polygon points="4.759957972693683,-1.377990517826131 6.828479399995913,-4.59636239355526 12.5568347060997,-0.7764051108585537 10.559568007138623,1.586048246396897"/></g><g fill="#989E7C" stroke="#253014" stroke-width="0.3"><polygon points="-11.000686479884799,3.4937770280675657 -8.554502136481686,4.224682051001302 -5.677982315489378,5.084168700648811 -6.382784012003852,7.442990737878075 -6.897828206852519,9.166734597979705 -9.043165393237661,8.525720878124892 -10.867554086254025,7.980604618548934 -10.92376533963556,6.086173100497189"/><polygon points="-9.244261239849655,8.465634660675173 -6.897828206852519,9.166734597979705 -8.361389840566734,14.06496547841212 -10.70050255496837,13.610574899736568"/><polygon points="-1.1839647477770994,11.532663138368662 -3.696660154885764,10.781885013608338 -2.296140556377224,6.094642475925854 0.21655485073143999,6.845420600686178"/><polygon points="-2.296140556377224,6.094642475925854 -3.696660154885764,10.781885013608338 -7.0785019139979175,9.771411238331295 -5.677982315489378,5.084168700648811"/><polygon points="-5.472164103963379,14.626219729349458 -4.272124083290149,10.609939887345778 -1.1839647477770994,11.532663138368662 -2.2928383078192494,15.24382814104055"/><polygon points="-4.272124083290149,10.609939887345778 -5.472164103963379,14.626219729349458 -8.361389840566734,14.06496547841212 -7.0785019139979175,9.771411238331295"/><polygon points="-1.3215327806687767,11.993074214573419 -0.5026685544266204,9.252509042964158 0.21655485073143987,6.845420600686178 2.6443023656636906,7.570816811263781 5.163871741385216,8.323648836091031 4.173740063997698,10.649791532206912 1.7921388438290249,9.938183554197897 0.8219170491342584,12.633524003745881"/><polygon points="-2.2928383078192494,15.24382814104055 -1.3215327806687767,11.993074214573419 3.0464360801908925,13.298196777813688 1.742440796706867,16.02771204545173"/><polygon points="-4.732131893516017,18.946765245278804 -7.300068694219789,20.104516419555917 -10.46547022634913,21.5316338392202 -10.546666088862722,18.795171087943572 -10.606287963795396,16.78579481107692 -8.44363735980861,15.810766424229309 -7.959453270551537,17.628729344640675 -5.860572942113524,16.68245170873847"/></g><g fill="#989E7C" stroke="#253014" stroke-width="0.3"><polygon points="-2.644958045971011,-11.977360660726799 -4.481321836355827,-9.120198294132512 -10.467467037476592,-12.967631124639537 -8.631103247091776,-15.824793491233823"/><polygon points="-6.252820726080577,-14.296216762115003 -8.631103247091776,-15.824793491233823 -6.062121674545022,-19.821821480996505 -3.8307563069422543,-18.064659237436796"/><polygon points="-2.644958045971011,-11.977360660726799 -4.277050579315555,-13.026343968722655 -6.252820726080577,-14.296216762115003 -5.388576240353495,-15.640877789023296 -3.8307563069422543,-18.064659237436796 -1.9770383231089335,-16.604887880091162 -0.4457674486630925,-15.399038132530729 -1.860239715703647,-13.198288503758809"/><polygon points="-10.467467037476592,-12.967631124639537 -13.77071731422869,-15.090705847213584 -9.16131540066928,-22.262383784279564 -6.062121674545022,-19.821821480996505"/><polygon points="-9.16131540066928,-22.262383784279564 -10.969714221064438,-19.44873156543255 -14.501439627415248,-21.718652494544965 -13.303602180889452,-25.524364111606737"/><polygon points="-13.312608342194306,-20.954563358211193 -10.969714221064438,-19.44873156543255 -13.77071731422869,-15.090705847213584 -16.113611435358553,-16.596537639992224"/><polygon points="-9.36667706252745,-8.685886054064751 -7.424372631992567,-7.437522444127586 -6.107009425013112,-6.590822893424102 -7.069193346299041,-5.093779821656612 -8.008614792988576,-3.6321524371989597 -9.32597799996803,-4.478851987902445 -11.268282430502913,-5.72721559783961 -10.328860983813378,-7.1888429822972615"/><polygon points="-7.7409894738701635,-11.215261454773163 -4.481321836355827,-9.120198294132512 -6.107009425013112,-6.590822893424102 -9.36667706252745,-8.685886054064751"/><polygon points="-8.008614792988576,-3.6321524371989597 -11.68656785052959,2.0903025127020545 -14.519067336944044,0.2214419260583549 -10.863104692578448,-5.466798571739192"/><polygon points="-14.102793641229276,-7.549020970777608 -10.863104692578448,-5.466798571739192 -14.519067336944044,0.2214419260583549 -17.733798376810224,-1.8996119932386102"/><polygon points="-14.203514339841668,-7.392311613340266 -18.2017852571204,-9.962092043911763 -17.135221371845095,-13.350727605693187 -12.350455796705008,-10.27544901795911"/><polygon points="-14.45650275316115,-11.629053705219565 -17.135221371845095,-13.350727605693187 -16.113611435358553,-16.596537639992224 -12.68154764105267,-14.390671514971618"/><polygon points="-14.203514339841668,-7.392311613340266 -17.733798376810224,-1.8996119932386102 -20.22258775323734,-3.541695388618128 -16.711625699187657,-9.004332314860948"/></g><g fill="#A38594" stroke="#30162D" stroke-width="0.3"><polygon points="7.742447577582311,-22.734377581905175 11.116285963853045,-26.3664679403188 12.181044043097788,-24.775894364492217 9.107150830838183,-21.466708617933083"/><polygon points="8.959982239970058,-21.60341310271389 7.52313929264261,-20.05658636768727 6.305604630254863,-21.18755084687856 7.742447577582311,-22.734377581905175"/><polygon points="6.305604630254863,-21.18755084687856 8.85145060662519,-18.822721772427165 7.074449292904443,-16.909699096320963 4.479314691756372,-19.221466726109444"/><polygon points="12.080631741251114,-12.450149858380398 13.013499961277713,-13.45442489461718 14.265734457558219,-12.29122783858115 13.22037729153102,-11.434854979969499"/><polygon points="3.499083556897059,-15.34448527378685 5.491409590434368,-17.489314796941922 6.3321293784054005,-16.740394571110762 4.323835802315886,-14.578375262698813"/><polygon points="3.499083556897059,-15.34448527378685 2.0920534646551276,-16.651471517905854 4.057138817133494,-18.766975209855307 5.491409590434368,-17.489314796941922"/><polygon points="7.81926487144826,-15.415641823255179 5.782726570295999,-13.22321578463531 4.323835802315886,-14.578375262698813 6.3321293784054005,-16.740394571110762"/><polygon points="5.782726570295999,-13.22321578463531 4.362762137838257,-11.694559537967606 1.0288027207467234,-15.506833769031793 2.0920534646551276,-16.651471517905854"/><polygon points="5.124397958599913,-12.514495114155244 7.571715762704391,-10.241188578219335 6.573539956968103,-9.166606957840083 4.362762137838257,-11.694559537967606"/><polygon points="5.124397958599913,-12.514495114155244 6.8517677589678305,-14.374087210463715 7.81926487144826,-15.415641823255179 8.94938938297326,-14.408917446716782 7.974186333343578,-13.359067042361549 9.329456133259763,-12.133475973628752 7.571715762704391,-10.241188578219335 6.233058349159457,-11.484663635887344"/><polygon points="8.338553383809014,-11.066724128889735 10.415727949797429,-9.137242592318644 8.192214223772908,-7.315705544885883 6.573539956968103,-9.166606957840083"/><polygon points="8.338553383809014,-11.066724128889735 9.609653303199197,-12.435120961584657 10.313963754407466,-13.193343172101123 11.475940970271903,-12.158244139858718 12.734671037290362,-11.036956857770367 11.907877842019422,-10.35963500536876 10.415727949797429,-9.137242592318644 9.335629542549352,-10.140542925660311"/><polygon points="22.907766942335712,-8.75193330580367 24.089901880090736,-6.986017994423016 19.728772173169812,-4.7309013119918895 18.85372131813195,-6.038083473516266"/><polygon points="22.907766942335712,-8.75193330580367 18.85372131813195,-6.038083473516266 17.4384441029973,-8.152275030023985 21.49248972720106,-10.866124862311388"/><polygon points="21.49248972720106,-10.866124862311388 19.986384070914333,-9.857911102131117 18.675260507918644,-11.816514220149994 20.18136616420537,-12.824727980330264"/><polygon points="20.18136616420537,-12.824727980330264 18.592023204628557,-11.760793697365244 17.16578323742402,-13.891361803720851 18.652197129846677,-15.109055196469775"/><polygon points="16.425735371321487,-9.665095434969839 13.697440532772571,-7.838726623079424 12.309094764036235,-9.912687024891106 14.860699706322528,-12.00300150255211"/><polygon points="13.697440532772571,-7.838726623079424 11.718223617153381,-6.513803819437201 10.458055942133623,-8.396287215495589 12.309094764036235,-9.912687024891106"/><polygon points="11.718223617153381,-6.513803819437201 9.936546848727641,-5.321117883611746 8.58740341288954,-6.863819551810782 10.458055942133623,-8.396287215495589"/><polygon points="14.078478973347984,-4.4063681251458995 16.05147395098864,-5.727125853476996 17.492466560363255,-3.574519724337846 15.370022018243821,-2.47701508308109"/><polygon points="16.05147395098864,-5.727125853476996 18.130312599055735,-7.118737206523251 19.728772173169812,-4.7309013119918895 17.492466560363255,-3.574519724337846"/><polygon points="12.373901745613736,-6.952726353592485 15.370022018243821,-2.47701508308109 13.341251500977851,-1.4279487755483409 9.936546848727641,-5.321117883611746"/></g><g fill="#A38594" stroke="#30162D" stroke-width="0.3"><polygon points="24.895967565965968,-5.151264683916224 26.299391921772695,0.3168183115084358 23.158642308007657,0.4731682069562977 21.893589385680276,-3.5987510976808417"/><polygon points="23.70013813011143,1.0774734924175542 23.99250282012087,3.226882623780477 20.034826743365127,3.7652095167181505 19.69634904905091,1.2767864212405184"/><polygon points="22.691388750413896,7.043527483016495 20.520904348717515,7.338758851494915 20.213700779239804,5.080257124075803 22.384185180936186,4.785025755597385"/><polygon points="22.205311145061508,3.4699781482397314 22.384185180936186,4.785025755597385 20.213700779239804,5.080257124075803 20.034826743365127,3.7652095167181505"/><polygon points="23.995599602286887,3.249649572365358 23.70013813011143,1.0774734924175542 26.459365971925738,0.9401161613225288 26.94901876592607,2.8479226672145517"/><polygon points="17.968009594792452,4.128064108166404 17.487159984814586,0.5929499927602193 18.95732200132074,0.3929771462938385 19.438171611298607,3.9280912617000228"/><polygon points="14.97905866204127,0.9341043384105147 14.857391275791102,0.03962904802325973 18.642996072243434,-1.917886802978173 18.95732200132074,0.3929771462938385"/><polygon points="15.459908272019135,4.469218453816699 12.68608740082253,4.846516227105156 12.562162774678528,2.315109956794122 15.119587658943423,1.967246573038783"/><polygon points="17.57450128486962,4.181589485614566 19.438171611298607,3.9280912617000228 19.965459506599803,7.8046107448870465 18.101789180170815,8.058108968801589"/><polygon points="16.394851481560377,6.364678466712266 12.784450065032512,6.855768727542921 12.68608740082253,4.846516227105156 16.12472888180523,4.378788917319499"/><polygon points="12.784450065032512,6.855768727542921 16.394851481560377,6.364678466712266 16.652016777106425,8.255308400506522 13.780594542982172,8.645882004720079"/><polygon points="7.1905773523361205,8.6688533108481 9.18102958685012,6.314460396606728 11.483523382608878,8.261036048020193 7.953899245940345,10.510534054095329"/><polygon points="7.953899245940345,10.510534054095329 5.830676165137341,11.863705355566285 6.816102431807259,9.548617206055608"/><polygon points="12.03254631830301,4.601770330077258 12.189653951119306,7.811005323957836 10.712076306386196,7.608838809662678 10.568374707078585,4.673448638557293"/><polygon points="13.091838734604758,8.83374811191242 10.287586778120378,11.307442841414499 8.997761952476546,9.845260079856894 12.189653951119306,7.811005323957836"/><polygon points="14.381626613787109,10.295888989891726 11.577374657302727,12.769583719393804 10.287586778120378,11.307442841414499 13.091838734604758,8.83374811191242"/><polygon points="8.997761952476546,9.845260079856894 11.577374657302727,12.769583719393804 9.528672278371982,14.576790901815743 6.665861384202535,11.331425596519802"/><polygon points="14.381626613787109,10.295888989891726 15.157337872094397,11.175257728415508 16.267117019169252,12.433335496595358 15.08191638652004,13.47882805713633 14.24036875805527,14.221176450027562 13.130589610980415,12.963098681847711 12.354878352673127,12.083729943323927 13.196425981137898,11.341381550432695"/><polygon points="4.607732507607315,17.898679118141974 3.689160234025763,16.89482571615783 5.830676165137341,11.863705355566285 6.665861384202535,11.331425596519802 9.023161033472379,14.00372872052553"/><polygon points="6.860271439492158,15.911663054582776 8.299219834407399,17.542896611252623 9.251273089773903,18.622171742576626 8.402033141051687,19.371305706940667 7.048114383187855,20.565628381034667 6.076398822594205,19.503697818445932 4.607732507607315,17.898679118141974 5.991997156168772,16.67758764044344"/><polygon points="9.315033366202904,18.565927345781496 11.88913733642983,21.484006124304035 9.675380104255623,23.436811964365486 7.048114383187855,20.565628381034667"/><polygon points="9.675380104255623,23.436811964365486 13.72632276629509,19.863382875930448 16.49879164223711,23.00633385404787 11.940034077936367,25.911718578879693"/></g><g fill="#989E7C" stroke="#253014" stroke-width="0.3"><polygon points="-26.255817982879694,10.787484657742695 -26.031148222518226,8.870215232122241 -25.58828322311013,5.090928150155962 -23.729572927745327,5.43146584639549 -21.31999730445307,5.872928581990778 -21.304876973157008,9.518905556251683 -21.29720628070352,11.36854545596253 -24.096491546648103,11.040519179906081"/><polygon points="-28.222275071032946,-0.7654629119071135 -34.71765434524445,-0.9865391291811502 -34.93127632977668,-4.064702724683923 -28.136891098062698,-3.274105837045099"/><polygon points="-28.222275071032946,-0.7654629119071135 -28.382958768374905,3.9555404157593337 -34.45184247277284,2.8436491863433626 -34.71765434524445,-0.9865391291811502"/><polygon points="-24.881999747297378,2.266192797271055 -21.334454156847073,2.3869367795135923 -21.322584465627088,5.2490844423041585 -24.960837853437354,4.582513417163631"/><polygon points="-21.334454156847073,2.3869367795135923 -23.96015696411516,2.2975685656170897 -23.78774438820514,-2.768037703514993 -21.3546583804929,-2.484923019926524"/><polygon points="-23.885544038424477,0.10538680542890938 -27.27488730642403,-0.009972615029802054 -27.167628223887327,-3.1613220920124965 -23.78774438820514,-2.768037703514993"/><polygon points="-27.27488730642403,-0.009972615029802054 -23.885544038424477,0.10538680542890938 -23.96015696411516,2.2975685656170897 -27.349500232114714,2.182209145158379"/><polygon points="-20.68192501515459,12.806479665411748 -20.69270720145655,10.206562889820239 -20.705227803971063,7.187460491999731 -18.426926207801635,7.178012084845866 -15.924487537990299,7.1676341526749425 -15.91349656748054,9.817895222932796 -15.904031632263708,12.100182243483914 -18.4049801248355,12.469887745704431"/><polygon points="-11.820566351400398,10.242597141917662 -11.783522072972437,11.491063318985114 -15.904031632263708,12.100182243483914 -15.911664913043074,10.259563449180046"/><polygon points="-15.911664913043074,10.259563449180046 -15.924487537990299,7.1676341526749425 -11.912299847249466,7.15099509885363 -11.820566351400398,10.242597141917662"/><polygon points="-20.717736233542688,4.171293365147621 -12.001785578674156,4.135147206685257 -11.912299847249466,7.15099509885363 -20.705227803971063,7.187460491999731"/><polygon points="-17.950161275544442,4.1598158789904 -20.717736233542688,4.171293365147621 -20.730969712431797,0.9802945454578653 -17.96339475443355,0.9688170593006449"/><polygon points="-20.730969712431797,0.9802945454578653 -20.745046236303516,-2.4139883514574283 -20.313278365837483,-2.3637477008420404 -16.28396886019093,0.29475859813838623 -16.281202385289756,0.9618407931023867"/><polygon points="-15.391651745413863,0.8835023188673388 -12.032505023540143,3.0998405541868306 -13.370471200292684,4.140823320436149 -16.275968883295793,2.2237991054652637"/><polygon points="-15.476631160892522,21.485145426730895 -15.732199608472367,12.871978258431165 -11.759971070583308,12.284779141417447 -11.467183831921437,22.152293911806638"/><polygon points="-17.18604433824896,18.094566127865733 -15.578651036948571,18.04687182417504 -15.476631160892522,21.485145426730895 -17.09342208968096,21.216120912795652"/><polygon points="-15.578651036948571,18.04687182417504 -19.12324344459254,18.15204637393403 -19.264419461848348,13.394132600563488 -15.732199608472367,12.871978258431165"/><polygon points="-21.816978143121368,18.231974416852868 -21.948751562022224,13.790946989252044 -19.264419461848348,13.394132600563488 -19.12324344459254,18.15204637393403"/></g><g fill="#898995" stroke="#171A2E" stroke-width="0.3"><polygon points="-7.558415425277514,22.414860113080813 -5.0931547851493715,21.303400360556807 -3.2022474202190487,20.450887081570603 -0.5067956659102757,19.235645946000975 0.21379355838422676,20.8339406645633 1.1942846255135855,23.008707704307316 -1.2746231310606326,24.12181175483235 -2.385692611925288,22.005915833643844 -4.209278412196195,22.82807726732091 -6.586768912620631,23.899965959419838"/><polygon points="2.6907017628105354,26.327818685531735 2.02178883429213,24.84414398601655 1.0140385761257997,22.608915008183843 2.621645747551703,21.884127275874945 5.168855808198385,20.735720727070493 6.911156666129563,22.63977846298999 3.913612794567757,23.99121746113696 4.771179889158514,25.389837659995166"/><polygon points="3.8635256355309187,28.929187313279478 3.151567362005279,27.35003637672909 2.6907017628105354,26.327818685531735 4.207396050534131,25.64401891594623 6.088599619309006,24.795880581620203 8.067641181806577,23.903632107165212 8.52850678100132,24.92584979836257 9.240465054526961,26.505000734912958 7.26142349202939,27.39724920936795 5.380219923254515,28.245387543693973"/><polygon points="5.168855808198385,20.735720727070493 3.9910339038401856,21.26674029596576 1.0140385761257997,22.608915008183843 0.13123760543173724,20.65082837375847 -0.5067956659102757,19.235645946000975 1.6759136565082333,18.251574110415667 2.5394833191335193,17.86223478138681 3.6425799514981083,19.067743960102664"/><polygon points="-13.022792464289413,32.47673886564854 -12.499843114599699,30.86657931371422 -11.824393098926725,28.786870647405838 -11.247151793056894,27.00954631768092 -10.172231380591885,27.358660124440924 -8.501915754852213,27.901147028429897 -9.079157060722045,29.678471358154816 -10.749472686461717,29.135984454165843 -11.42492270213469,31.21569312047422 -9.754607076395018,31.7581800244632 -10.277556426084733,33.368339576397524 -11.947872051824405,32.825852672408544"/></g><g fill="#989E7C" stroke="#253014" stroke-width="0.3"><polygon points="-18.254102975901144,-13.453263284370557 -19.554131448065085,-13.805014089827894 -21.684610690592613,-14.381461302804542 -21.22734918277024,-16.07144458122464 -20.659126636511292,-18.171526449414472 -18.432827787735352,-17.569153170664524 -17.07432974035664,-17.201582157714107 -17.728044197681683,-15.124631974115406"/><polygon points="-21.684610690592613,-14.381461302804542 -18.254102975901144,-13.453263284370557 -18.814743624229358,-11.672022737476555 -22.171931497344975,-12.580382487839858"/><polygon points="-33.72845633873834,-10.115231904626242 -26.903515748020762,-8.451748745445235 -27.818890878485504,-4.696146622777507 -34.8498749800157,-5.514274232286863"/><polygon points="-19.913723296186845,-8.180397294797366 -26.53311786840262,-9.971417585715427 -25.66674347823961,-13.525979415540544 -18.814743624229358,-11.672022737476555"/><polygon points="-26.53311786840262,-9.971417585715427 -23.152169826847334,-9.05662900816456 -24.438422589053822,-4.302794227050568 -27.818890878485504,-4.696146622777507"/><polygon points="-23.949283090587574,-6.1105947068230035 -23.152169826847334,-9.05662900816456 -19.913723296186845,-8.180397294797366 -20.830766219005117,-5.266812555201717"/><polygon points="-24.438422589053822,-4.302794227050568 -23.949283090587574,-6.1105947068230035 -20.830766219005117,-5.266812555201717 -21.250927515969938,-3.9318962578889796"/><polygon points="-18.992432212801504,-23.49425448882602 -15.399691945508406,-22.522160946354752 -16.891159745512034,-17.78354106983453 -20.288847828954683,-18.70285902758233"/><polygon points="-20.73147239090007,-23.964789401304227 -19.918735806233805,-26.968565608900075 -14.27776070281205,-26.08670701749156 -15.399691945508406,-22.522160946354752"/></g><g fill="#899E8C" stroke="#173024" stroke-width="0.3"><polygon points="-3.3797779550849882,-19.185470524405893 -1.8665299897815404,-21.10709677989215 -0.5815909198686331,-22.738800710813738 0.7457121864908465,-21.693572108579026 2.0416012238360923,-20.673081550946883 0.756662153923185,-19.041377620025294 -0.7565858113802633,-17.119751364539034 -2.0524748487255087,-18.140241922171178"/><polygon points="-0.7565858113802633,-17.119751364539034 2.0416012238360923,-20.673081550946883 3.336237236721072,-19.653577728747585 0.2478428944029447,-16.32878085662713"/><polygon points="-5.664992742434667,-20.985038269364292 -2.866805707218316,-24.538368455772137 -0.5815909198686331,-22.738800710813738 -3.3797779550849882,-19.185470524405893"/><polygon points="5.537210093279574,-22.02302503955151 3.8986548695001284,-23.479585306686086 6.518233906798363,-26.426476700416224 8.221300508320667,-24.91257035898723"/><polygon points="2.8245351473260016,-24.434402139685943 4.38829896081943,-23.04432617223478 5.537210093279574,-22.02302503955151 4.161810911987562,-20.54234531118356 3.336237236721072,-19.653577728747585 2.2182689916147407,-20.533958691149106 0.6966210269122319,-21.73223056109269 1.4947907434567405,-22.74580131672122"/><polygon points="-7.729972820107015,-27.325263593683996 -9.049808820079539,-25.64924514288464 -10.021311083723841,-24.41556480768005 -11.032456157279022,-25.21182434088298 -12.92733828111606,-26.704011757764775 -12.407609034045276,-28.29345565321271 -11.701530009638816,-30.452797274589333 -9.111866454874582,-28.41348130777255"/><polygon points="-8.044560798452874,-26.925778160555712 -3.688242457163697,-23.49525162223996 -5.664992742434667,-20.985038269364292 -10.021311083723841,-24.41556480768005"/><polygon points="7.251424747508151,-31.695618986980055 9.057869211543576,-30.745467454437374 11.422054414128336,-29.501956104837102 10.265195257122928,-27.759898265362665 8.127491363255354,-29.174725391288366 6.915486119193766,-27.12851629343917 5.507527828009225,-28.38009211765328 6.494098446066752,-30.255777174541798"/></g><g fill-rule="nonzero" stroke="#99948A" stroke-width="0.3" stroke-linecap="butt"><line x1="42.486094160262724" y1="-25.6317556840188" x2="33.419480226044065" y2="-14.761226025714421"/><line x1="41.8968860798421" y1="-26.90612534372081" x2="28.3731798669688" y2="-10.691709405881124"/><line x1="41.2353643285091" y1="-28.093793627357055" x2="25.469380925740246" y2="-9.190971535715512"/><line x1="40.21573704344221" y1="-28.852106822809247" x2="24.317956767633145" y2="-9.791265229328301"/><line x1="39.19610975837533" y1="-29.61042001826144" x2="23.419213374837152" y2="-10.694513672456873"/><line x1="38.17648247330844" y1="-30.368733213713636" x2="22.68361866968269" y2="-11.79337126587993"/><line x1="37.15685518824155" y1="-31.127046409165832" x2="21.94802396452823" y2="-12.892228859302987"/><line x1="36.13722790317466" y1="-31.885359604618024" x2="21.212429259373767" y2="-13.991086452726044"/><line x1="35.11760061810777" y1="-32.64367280007022" x2="20.476834554219305" y2="-15.0899440461491"/><line x1="34.09797333304089" y1="-33.40198599552241" x2="19.741239849064844" y2="-16.18880163957216"/><line x1="33.078346047974" y1="-34.16029919097461" x2="19.00564514391038" y2="-17.287659232995217"/><line x1="32.05871876290711" y1="-34.9186123864268" x2="18.27005043875592" y2="-18.386516826418276"/><line x1="31.039091477840223" y1="-35.676925581879" x2="17.534455733601458" y2="-19.48537441984133"/><line x1="30.019464192773338" y1="-36.43523877733119" x2="16.798861028446993" y2="-20.584232013264383"/><line x1="28.999836907706452" y1="-37.19355197278339" x2="16.063266323292535" y2="-21.683089606687446"/><line x1="27.980209622639563" y1="-37.95186516823558" x2="15.327671618138073" y2="-22.781947200110494"/><line x1="26.96058233757268" y1="-38.710178363687774" x2="14.592076912983611" y2="-23.880804793533557"/><line x1="25.940955052505796" y1="-39.46849155913996" x2="13.856482207829151" y2="-24.979662386956612"/><line x1="24.92132776743891" y1="-40.22680475459216" x2="13.322636468988787" y2="-26.320409415372865"/><line x1="23.815677288374044" y1="-40.881979370587715" x2="12.942711412682684" y2="-27.845701562469017"/><line x1="13.499779612499125" y1="-30.494413439820732" x2="22.65739503774174" y2="-41.47405046878224"/><line x1="15.042092238775455" y1="-34.32439638884452" x2="20.98927191631727" y2="-41.45484150727943"/><line x1="16.584404865051773" y1="-38.15437933786828" x2="18.387700134424904" y2="-40.31646265261239"/></g><g fill-rule="nonzero" stroke="#99948A" stroke-width="0.3" stroke-linecap="butt"><line x1="27.1701242167341" y1="-5.920412430810737" x2="28.913403596072992" y2="-7.787262067847671"/><line x1="26.85122264607529" y1="-3.8506486015588486" x2="34.893291188734146" y2="-12.462769480073653"/><line x1="27.146597172667917" y1="-2.438703090349124" x2="36.13330543025557" y2="-12.062423331448183"/><line x1="27.494536174361052" y1="-1.083048023703503" x2="37.373319671777" y2="-11.662077182822713"/><line x1="27.842475176054187" y1="0.27260704294211635" x2="38.25510034294168" y2="-10.878104508970669"/><line x1="28.190414177747314" y1="1.628262109587741" x2="39.11720652434925" y2="-10.073062742867965"/><line x1="28.53835317944045" y1="2.9839171762333603" x2="39.97931270575682" y2="-9.268020976765257"/><line x1="28.886292181133584" y1="4.339572242878981" x2="40.84141888716438" y2="-8.462979210662551"/><line x1="29.23423118282672" y1="5.695227309524596" x2="41.70352506857195" y2="-7.657937444559848"/><line x1="29.582170184519853" y1="7.050882376170219" x2="42.56563124997952" y2="-6.852895678457141"/><line x1="29.930109186212988" y1="8.406537442815837" x2="43.42773743138709" y2="-6.047853912354436"/><line x1="30.278048187906123" y1="9.762192509461455" x2="44.28984361279465" y2="-5.242812146251732"/><line x1="30.625987189599257" y1="11.117847576107076" x2="45.15194979420222" y2="-4.4377703801490265"/><line x1="46.014055975609786" y1="-3.6327286140463215" x2="31.00199481390839" y2="12.44344440965257"/><line x1="46.87616215701735" y1="-2.827686847943612" x2="31.613650546356737" y2="13.516689502930857"/><line x1="47.738268338424916" y1="-2.0226450818409063" x2="32.22530627880508" y2="14.589934596209137"/><line x1="48.600374519832485" y1="-1.217603315738204" x2="33.36822860035165" y2="15.094254908535785"/><line x1="49.462480701240054" y1="-0.4125615496354982" x2="34.54489350983809" y2="15.562440830245068"/><line x1="50.32458688264762" y1="0.39248021646720943" x2="35.72155841932452" y2="16.03062675195435"/><line x1="51.186693064055184" y1="1.1975219825699117" x2="36.898223328810964" y2="16.498812673663636"/><line x1="51.48376037835005" y1="2.6076547148613773" x2="38.07488823829741" y2="16.966998595372917"/><line x1="51.67458729395324" y1="4.131558568458379" x2="40.10330350023688" y2="16.523058867476898"/><path d="M 36.63803227570045,-8.501729827128045 L 37.406153306632824,-7.784452159181379 L 38.3695748065278,-6.884801324396207 L 39.2214949189634,-6.08927139237112 L 38.02992788707981,-4.8132415675815645 L 36.98773575351997,-3.6971749007477195 L 36.13581564108437,-4.492704832772807 L 35.17239414118939,-5.392355667557978 L 36.21458627474923,-6.508422334391823 L 35.44646524381686,-7.225700002338489 Z" fill="#99948A" stroke="#1A1917" stroke-width="0.3"/></g><g fill-rule="nonzero" stroke="#99948A" stroke-width="0.3" stroke-linecap="butt"><line x1="-16.443361074667354" y1="42.11079856933458" x2="-17.59544020408636" y2="34.331278212293356"/><line x1="-16.793069595964596" y1="48.66265077850553" x2="-18.890006181366996" y2="34.5028934866698"/><line x1="-17.939222567650145" y1="49.83643853287382" x2="-20.181659598015447" y2="34.69417609478285"/><line x1="-19.19427694165634" y1="50.27485954494982" x2="-21.47331301466389" y2="34.8854587028959"/><line x1="-20.485930358304785" y1="50.46614215306287" x2="-22.764966431312335" y2="35.07674131100895"/><line x1="-21.777583774953236" y1="50.65742476117592" x2="-24.05661984796079" y2="35.26802391912201"/><line x1="-23.06923719160168" y1="50.848707369288974" x2="-25.34827326460923" y2="35.45930652723506"/><line x1="-24.360890608250127" y1="51.03998997740202" x2="-26.63992668125768" y2="35.65058913534811"/><line x1="-25.652544024898575" y1="51.23127258551508" x2="-27.931580097906124" y2="35.84187174346116"/><line x1="-26.94419744154702" y1="51.42255519362813" x2="-29.223233514554572" y2="36.03315435157421"/><line x1="-28.23585085819547" y1="51.61383780174118" x2="-30.514886931203023" y2="36.22443695968727"/><line x1="-29.527504274843913" y1="51.80512040985423" x2="-31.806540347851463" y2="36.415719567800316"/><line x1="-30.81915769149236" y1="51.99640301796728" x2="-33.09819376449991" y2="36.607002175913365"/><line x1="-32.20378042515434" y1="51.5599017561896" x2="-34.3487541645702" y2="37.07576916061017"/><line x1="-34.505364816041826" y1="44.931532508217636" x2="-35.48849876083206" y2="38.29283005984422"/><line x1="-16.47414324758311" y1="31.82004135354729" x2="-34.9156675262955" y2="34.55107029377605"/><line x1="-36.78151574329629" y1="33.305613346541804" x2="-14.645582407677246" y2="30.027474639301975"/><line x1="-37.07105727616451" y1="31.82671912438493" x2="-14.12636655039946" y2="28.42881049982529"/><line x1="-37.36059880903273" y1="30.34782490222806" x2="-13.607150693121675" y2="26.830146360348607"/><line x1="-37.65014034190095" y1="28.86893068007118" x2="-13.087934835843889" y2="25.231482220871925"/><line x1="-37.93968187476917" y1="27.39003645791431" x2="-13.77737498550113" y2="23.81180949684625"/><line x1="-38.22922340763739" y1="25.91114223575743" x2="-17.268337034942178" y2="22.807017737612956"/><line x1="-38.41763509450871" y1="24.417271565235215" x2="-22.10726681340605" y2="22.001848245108732"/><line x1="-37.56600897399207" y1="22.769380364306656" x2="-26.94619659186993" y2="21.196678752604505"/><line x1="-34.687701841625916" y1="20.82135537767134" x2="-32.096416462203536" y2="20.437608608334966"/></g><g fill-rule="nonzero" stroke="#99948A" stroke-width="0.3" stroke-linecap="butt"><line x1="-36.6977498961824" y1="-3.4378887709061954" x2="-36.240691300938046" y2="3.148049151042745"/><line x1="-38.20210296542839" y1="-4.010860936731191" x2="-37.670364754930304" y2="3.6511650737333197"/><line x1="-39.69568423099284" y1="-4.428617926444668" x2="-39.106342044569466" y2="4.063446537401307"/><line x1="-41.17011549683346" y1="-4.570435002329523" x2="-40.56391131421963" y2="4.1646006282465065"/><line x1="-42.644546762674096" y1="-4.7122520782143775" x2="-42.021480583869796" y2="4.265754719091705"/><line x1="-44.118978028514725" y1="-4.854069154099234" x2="-43.47904985351997" y2="4.366908809936904"/><line x1="-45.593409294355354" y1="-4.995886229984089" x2="-44.93661912317013" y2="4.468062900782102"/><line x1="-47.06784056019598" y1="-5.137703305868942" x2="-46.3941883928203" y2="4.569216991627301"/><line x1="-48.54227182603661" y1="-5.279520381753798" x2="-47.85175766247047" y2="4.6703710824725"/><line x1="-50.01670309187724" y1="-5.4213374576386535" x2="-49.309326932120634" y2="4.771525173317698"/><line x1="-51.49113435771787" y1="-5.563154533523508" x2="-50.766896201770805" y2="4.8726792641628975"/><line x1="-52.965565623558504" y1="-5.704971609408364" x2="-52.22446547142097" y2="4.973833355008097"/><line x1="-54.439996889399126" y1="-5.846788685293218" x2="-53.682034741071135" y2="5.074987445853295"/><line x1="-55.914428155239754" y1="-5.988605761178072" x2="-55.1396040107213" y2="5.176141536698493"/><line x1="-57.38885942108039" y1="-6.130422837062929" x2="-56.59717328037147" y2="5.277295627543693"/><line x1="-58.86329068692101" y1="-6.272239912947784" x2="-58.05474255002164" y2="5.378449718388891"/><line x1="-60.33772195276165" y1="-6.414056988832638" x2="-59.51231181967181" y2="5.47960380923409"/><line x1="-61.80605513721785" y1="-6.46800440017401" x2="-60.96988108932197" y2="5.5807579000792895"/><line x1="-63.27027802091108" y1="-6.462724863489278" x2="-62.44059982764178" y2="5.492436100380113"/><line x1="-64.68341225981825" y1="-5.721288854574653" x2="-63.93178446610839" y2="5.109213057632304"/><line x1="-65.75602964354415" y1="-0.07321091192211604" x2="-66.05465157117551" y2="-4.376172278311989"/><line x1="-62.078794459657225" y1="7.963247590381382" x2="-37.92226792789114" y2="6.286804809802456"/><line x1="-35.64520323665437" y1="7.395456071216922" x2="-64.13740169149298" y2="9.372790864761187"/><line x1="-35.557718214086165" y1="8.656062334242021" x2="-63.92289987330496" y2="10.62458226817685"/><line x1="-35.470233191517956" y1="9.916668597267119" x2="-63.70839805511692" y2="11.876373671592514"/><line x1="-35.38274816894975" y1="11.17727486029222" x2="-63.49389623692889" y2="13.128165075008178"/><line x1="-35.295263146381544" y1="12.437881123317318" x2="-63.27939441874086" y2="14.379956478423841"/><line x1="-35.20777812381334" y1="13.69848738634242" x2="-63.064892600552824" y2="15.631747881839507"/><line x1="-35.12029310124514" y1="14.959093649367516" x2="-62.85039078236479" y2="16.88353928525517"/><line x1="-35.03280807867693" y1="16.219699912392613" x2="-62.63588896417676" y2="18.13533068867083"/><line x1="-35.02054088484736" y1="17.485526229956342" x2="-62.42138714598873" y2="19.38712209208649"/><line x1="-35.36694573733662" y1="18.776244088191536" x2="-62.20688532780069" y2="20.638913495502155"/><line x1="-37.30448446811533" y1="20.177385309640187" x2="-60.458372244294125" y2="21.784245797370737"/><line x1="-39.3899068129939" y1="21.588789530485613" x2="-47.0428235969697" y2="22.11989556826784"/></g><g fill-rule="nonzero" stroke="#99948A" stroke-width="0.3" stroke-linecap="butt"><line x1="-34.627703682917804" y1="-36.881902462603996" x2="-32.25410151356967" y2="-48.67703170680187"/><line x1="-33.55740250350916" y1="-34.75889056589618" x2="-30.650248463635023" y2="-49.20539641928639"/><line x1="-32.33086733417377" y1="-33.412251444424285" x2="-29.136725420151546" y2="-49.28488468799286"/><line x1="-31.104332164838368" y1="-32.06561232295239" x2="-27.697481652130833" y2="-48.99525732916801"/><line x1="-29.87779699550297" y1="-30.718973201480498" x2="-26.25823788411012" y2="-48.70562997034317"/><line x1="-28.513711591127816" y1="-30.05586176666778" x2="-24.818994116089407" y2="-48.416002611518316"/><line x1="-27.105775184002983" y1="-29.610658897831033" x2="-23.37975034806869" y2="-48.12637525269347"/><line x1="-25.653922396312403" y1="-29.383689476620734" x2="-21.94050658004798" y2="-47.836747893868626"/><line x1="-24.202069608621812" y1="-29.156720055410435" x2="-20.501262812027264" y2="-47.54712053504378"/><line x1="-22.750216820931225" y1="-28.929750634200133" x2="-19.062019044006547" y2="-47.25749317621893"/><line x1="-21.298364033240645" y1="-28.702781212989834" x2="-17.622775275985838" y2="-46.967865817394085"/><line x1="-19.846511245550055" y1="-28.475811791779535" x2="-16.18353150796512" y2="-46.67823845856924"/><line x1="-18.39465845785947" y1="-28.248842370569236" x2="-14.744287739944408" y2="-46.38861109974439"/><line x1="-16.942805670168887" y1="-28.021872949358933" x2="-13.305043971923695" y2="-46.09898374091954"/><line x1="-15.445056465904903" y1="-28.02297635868426" x2="-11.865800203902978" y2="-45.8093563820947"/><line x1="-13.687649261325301" y1="-29.31439695450503" x2="-10.499399282896825" y2="-45.15775143235451"/><line x1="-9.850329888680006" y1="-40.94151455790483" x2="-9.299757484009739" y2="-43.677471221256766"/><line x1="-7.761522575558953" y1="-47.32953688168044" x2="-30.00065935190608" y2="-51.80484717323434"/><line x1="-31.586754279287767" y1="-53.5139512296981" x2="-7.335093406355902" y2="-48.633649058647094"/><line x1="-31.317937583062058" y1="-54.849780677415254" x2="-7.456017582881881" y2="-50.04790831937389"/><line x1="-31.049120886836345" y1="-56.185610125132406" x2="-8.099214033193007" y2="-51.56726745449644"/><line x1="-30.780304190610636" y1="-57.52143957284956" x2="-8.872988739827665" y2="-53.11290360838346"/><line x1="-30.511487494384923" y1="-58.85726902056671" x2="-9.64676344646232" y2="-54.658539762270486"/><line x1="-30.24267079815921" y1="-60.193098468283864" x2="-10.420538153096977" y2="-56.20417591615751"/><line x1="-29.9738541019335" y1="-61.52892791600102" x2="-11.194312859731632" y2="-57.74981207004453"/><line x1="-29.705037405707788" y1="-62.86475736371817" x2="-11.968087566366293" y2="-59.29544822393156"/><line x1="-28.85649132119872" y1="-64.08392450912599" x2="-12.741862273000951" y2="-60.84108437781858"/><line x1="-26.653372885653795" y1="-65.03050321532368" x2="-13.515636979635609" y2="-62.386720531705606"/><line x1="-22.243179834025106" y1="-65.53293951424537" x2="-14.289411686270263" y2="-63.93235668559262"/><line x1="-17.832986782396432" y1="-66.03537581316706" x2="-16.228444943224343" y2="-65.71248456615999"/></g><g fill-rule="nonzero" stroke="#99948A" stroke-width="0.3" stroke-linecap="butt"><line x1="-36.967559010838904" y1="-6.476829858433788" x2="-44.28307456827765" y2="-7.180467287306833"/><line x1="-36.047940009861634" y1="-7.8725157938511305" x2="-44.61248534345252" y2="-8.696290223784054"/><line x1="-35.49289289076332" y1="-9.303267804870467" x2="-44.78730814404783" y2="-10.197244230776562"/><line x1="-35.139441123770126" y1="-10.753410115057957" x2="-44.645865896056186" y2="-11.667778519037993"/><line x1="-34.78598935677692" y1="-12.203552425245448" x2="-44.50442364806455" y2="-13.138312807299423"/><line x1="-34.43253758978373" y1="-13.653694735432936" x2="-44.36298140007291" y2="-14.608847095560854"/><line x1="-34.07908582279053" y1="-15.103837045620423" x2="-44.22153915208128" y2="-16.079381383822287"/><line x1="-33.72563405579733" y1="-16.553979355807915" x2="-44.08009690408964" y2="-17.549915672083714"/><line x1="-33.37218228880413" y1="-18.004121665995402" x2="-43.938654656098" y2="-19.020449960345147"/><line x1="-33.01873052181094" y1="-19.45426397618289" x2="-43.79721240810637" y2="-20.490984248606576"/><line x1="-32.66527875481774" y1="-20.904406286370378" x2="-43.65577016011473" y2="-21.96151853686801"/><line x1="-32.311826987824546" y1="-22.354548596557866" x2="-43.51432791212309" y2="-23.43205282512944"/><line x1="-31.958375220831343" y1="-23.804690906745357" x2="-43.37288566413146" y2="-24.902587113390872"/><line x1="-31.604923453838147" y1="-25.254833216932845" x2="-43.23144341613982" y2="-26.3731214016523"/><line x1="-31.314029602007714" y1="-26.71099261371323" x2="-43.090001168148184" y2="-27.84365568991373"/><line x1="-31.326832038121914" y1="-28.1963628123202" x2="-42.94855892015655" y2="-29.314189978175158"/><line x1="-31.66698199254765" y1="-29.713218688775058" x2="-42.80711667216491" y2="-30.78472426643659"/><line x1="-33.148547215032764" y1="-31.339860744780452" x2="-42.56695003649891" y2="-32.24576282281627"/><line x1="-34.630112437517866" y1="-32.96650280078585" x2="-42.126587532502796" y2="-33.68754568833494"/><line x1="-38.75817360296261" y1="-34.84769610286624" x2="-36.36166099964613" y2="-34.617189318591166"/><line x1="-44.98911596157692" y1="-32.12190088940854" x2="-47.17606592169658" y2="-9.38481244000763"/><line x1="-48.91022677350688" y1="-7.324141967567186" x2="-46.326277879032396" y2="-34.188713921094376"/><line x1="-50.43210405420838" y1="-7.470522603141697" x2="-47.875207126422644" y2="-34.05384305546916"/><line x1="-51.953981334909884" y1="-7.616903238716208" x2="-49.4241363738129" y2="-33.91897218984393"/><line x1="-53.475858615611386" y1="-7.763283874290719" x2="-50.973065621203155" y2="-33.78410132421871"/><line x1="-54.99773589631289" y1="-7.90966450986523" x2="-52.52199486859341" y2="-33.649230458593486"/><line x1="-56.51961317701439" y1="-8.056045145439741" x2="-54.070924115983665" y2="-33.51435959296826"/><line x1="-58.0414904577159" y1="-8.202425781014254" x2="-55.61985336337391" y2="-33.379488727343045"/><line x1="-59.563367738417405" y1="-8.348806416588765" x2="-57.16878261076417" y2="-33.24461786171782"/><line x1="-61.085245019118915" y1="-8.495187052163276" x2="-58.71771185815442" y2="-33.109746996092596"/><line x1="-62.417898212742145" y1="-10.608875986104351" x2="-60.47542863116094" y2="-30.80417239986686"/><path d="M -55.15684413609606,-28.594508394652724 L -55.275725953397,-27.35852840229431 L -55.37891169682555,-26.285735966328563 L -56.623692548383154,-26.40546428773303 L -56.52050680495461,-27.478256723698777 L -57.24189543906921,-27.547642953519652 L -57.34508118249776,-26.474850517553904 L -57.46192606871746,-25.260047910597063 L -59.00086945400911,-25.408070036762414 L -58.88402456778941,-26.622872643719255 L -58.78083882436086,-27.695665079685003 L -58.661957007059925,-28.931645072043416 L -57.12301362176827,-28.783622945878065 L -56.40162498765367,-28.71423671605719 Z" fill="#99948A" stroke="#1A1917" stroke-width="0.3"/></g><g fill-rule="nonzero" stroke="#99948A" stroke-width="0.3" stroke-linecap="butt"><line x1="60.0222210793195" y1="-34.0764657774003" x2="66.05442639584346" y2="-28.644777625293397"/><line x1="58.420205449441625" y1="-33.85622727791576" x2="65.52205096131054" y2="-27.461383584640934"/><line x1="57.34189560520547" y1="-33.16441886961731" x2="64.98967552677765" y2="-26.277989543988483"/><line x1="56.2951131610416" y1="-32.444221672069546" x2="64.22399411528527" y2="-25.304675440004488"/><line x1="55.248330716877724" y1="-31.724024474521794" x2="63.39715903825405" y2="-24.386427041369622"/><line x1="54.20154827271385" y1="-31.003827276974036" x2="62.57032396122285" y2="-23.468178642734756"/><line x1="53.154765828549984" y1="-30.283630079426274" x2="61.74348888419164" y2="-22.54993024409989"/><line x1="52.10798338438611" y1="-29.56343288187852" x2="60.916653807160436" y2="-21.63168184546502"/><line x1="51.061200940222236" y1="-28.843235684330757" x2="60.089818730129224" y2="-20.71343344683016"/><line x1="50.01441849605837" y1="-28.123038486783003" x2="59.26298365309802" y2="-19.795185048195293"/><line x1="48.96763605189449" y1="-27.40284128923524" x2="58.43614857606681" y2="-18.876936649560424"/><line x1="47.92085360773062" y1="-26.682644091687486" x2="57.6093134990356" y2="-17.958688250925558"/><line x1="46.9389015468313" y1="-25.90407049509541" x2="56.782478422004395" y2="-17.040439852290696"/><line x1="46.01071152766538" y1="-25.077086967177483" x2="55.95564334497319" y2="-16.122191453655823"/><line x1="45.09822238424401" y1="-24.2359656146524" x2="55.12880826794198" y2="-15.203943055020959"/><line x1="44.30620460835946" y1="-23.286366041413352" x2="54.30197319091077" y2="-14.285694656386093"/><line x1="43.514186832474905" y1="-22.3367664681743" x2="53.47513811387956" y2="-13.367446257751226"/><line x1="42.722169056590346" y1="-21.387166894935245" x2="52.648303036848354" y2="-12.44919785911636"/><line x1="41.9301512807058" y1="-20.437567321696193" x2="51.82146795981715" y2="-11.530949460481489"/><line x1="41.13813350482125" y1="-19.48796774845714" x2="50.994632882785936" y2="-10.61270106184662"/><line x1="40.346115728936695" y1="-18.53836817521809" x2="50.16779780575473" y2="-9.694452663211754"/><line x1="39.55409795305214" y1="-17.588768601979034" x2="49.340962728723525" y2="-8.776204264576888"/><line x1="38.76208017716759" y1="-16.639169028739985" x2="48.43904977861489" y2="-7.925559598288952"/><line x1="38.02128479358451" y1="-15.643446346822195" x2="47.21408647077596" y2="-7.365805030819579"/><line x1="38.06976622929501" y1="-13.937020808629622" x2="45.98912316293704" y2="-6.80605046335021"/><line x1="49.68993951565259" y1="-5.726560193281383" x2="67.12679203678451" y2="-25.091198135652316"/><line x1="69.93171716341386" y1="-25.557176978386586" x2="49.62100434039023" y2="-3.000950176980364"/><line x1="71.24899476047158" y1="-24.37103679556249" x2="50.91678659407509" y2="-1.790938166292964"/><line x1="72.5662723575293" y1="-23.18489661273838" x2="52.212568847759954" y2="-0.5809261556055638"/><line x1="73.88354995458701" y1="-21.99875642991428" x2="53.508351101444816" y2="0.6290858550818399"/><line x1="75.20082755164472" y1="-20.812616247090183" x2="55.21148738375959" y2="1.3867075465172611"/><line x1="76.09053311321314" y1="-19.151632473572256" x2="57.496818698025564" y2="1.4977678248812083"/><line x1="76.18545750577414" y1="-16.60799802886291" x2="60.19291637797643" y2="1.1526481854101363"/><line x1="75.49606559283009" y1="-13.193334751972039" x2="62.88901405792729" y2="0.8075285459390606"/><line x1="74.80667367988605" y1="-9.778671475081165" x2="65.58511173787815" y2="0.4624089064679886"/><line x1="74.117281766942" y1="-6.364008198190282" x2="68.28120941782902" y2="0.11728926699691122"/><line x1="73.42788985399795" y1="-2.9493449212994047" x2="70.97730709777987" y2="-0.2278303724741626"/><path d="M 64.49078683279787,-26.054294313405858 L 63.650281564767724,-25.12086437332155 L 62.7538794600841,-24.125357748089687 L 61.95967314382618,-23.243345484280027 L 61.13263402556983,-23.988051333011086 L 60.42569907210404,-24.62460960806381 L 59.371672184561014,-25.573706175016984 L 60.16587850081893,-26.455718438826644 L 61.21990538836196,-25.50662187187347 L 61.92684034182774,-24.870063596820746 L 62.82324244651137,-25.865570222052607 L 63.66374771454151,-26.799000162136917 Z" fill="#99948A" stroke="#1A1917" stroke-width="0.3"/></g><g fill-rule="nonzero" stroke="#99948A" stroke-width="0.3" stroke-linecap="butt"><line x1="24.67822205110758" y1="-65.98057449807632" x2="27.801542206736407" y2="-64.8886895837406"/><line x1="28.20548234319412" y1="-63.33530782435827" x2="16.340698911196274" y2="-67.48313046044358"/><line x1="28.050086792405473" y1="-61.97746484054886" x2="15.216264602840766" y2="-66.46405479732879"/><line x1="27.610169497967146" y1="-60.7190881247529" x2="14.427303998799315" y2="-65.32770051446165"/><line x1="27.17025220352882" y1="-59.46071140895694" x2="13.98738670436099" y2="-64.06932379866569"/><line x1="26.730334909090494" y1="-58.20233469316098" x2="13.547469409922662" y2="-62.81094708286973"/><line x1="26.290417614652167" y1="-56.94395797736502" x2="13.107552115484335" y2="-61.55257036707377"/><line x1="25.85050032021384" y1="-55.685581261569055" x2="12.66763482104601" y2="-60.29419365127781"/><line x1="25.410583025775512" y1="-54.427204545773094" x2="12.227717526607682" y2="-59.03581693548185"/><line x1="24.970665731337185" y1="-53.16882782997713" x2="11.787800232169356" y2="-57.777440219685886"/><line x1="24.53074843689886" y1="-51.91045111418117" x2="11.347882937731029" y2="-56.519063503889925"/><line x1="24.090831142460534" y1="-50.65207439838521" x2="10.907965643292703" y2="-55.26068678809396"/><line x1="23.650913848022206" y1="-49.39369768258925" x2="10.468048348854378" y2="-54.002310072298"/><line x1="23.21099655358388" y1="-48.13532096679329" x2="10.02813105441605" y2="-52.74393335650204"/><line x1="22.77107925914555" y1="-46.876944250997326" x2="9.588213759977723" y2="-51.48555664070608"/><line x1="22.258538733811942" y1="-45.643955970037915" x2="9.148296465539397" y2="-50.22717992491012"/><line x1="21.614634484949026" y1="-44.45689127707641" x2="8.70837917110107" y2="-48.96880320911416"/><line x1="20.51340320494548" y1="-43.42970404186461" x2="8.268461876662744" y2="-47.710426493318195"/><line x1="18.719410050770648" y1="-42.64470018906123" x2="8.26996544542417" y2="-46.29773297444579"/><line x1="16.788003589702928" y1="-41.90773480473023" x2="9.297594514668999" y2="-44.526315117892594"/><line x1="8.328518241422449" y1="-69.9828000983206" x2="11.544170316243303" y2="-68.85863676721875"/><line x1="-6.403779422168965" y1="-73.3791308437234" x2="12.55545150377733" y2="-66.75115253732403"/><line x1="-9.049735578102851" y1="-72.55018422268736" x2="12.23253766598392" y2="-65.11009100774433"/><line x1="-10.223162109085584" y1="-71.206454357129" x2="11.686148916426449" y2="-63.547154317351534"/><line x1="-11.396588640068323" y1="-69.86272449157063" x2="11.13976016686898" y2="-61.98421762695874"/><line x1="-12.57001517105106" y1="-68.51899462601226" x2="10.593371417311507" y2="-60.421280936565935"/><line x1="-13.007250535483273" y1="-66.91789888415235" x2="10.046982667754037" y2="-58.85834424617313"/><line x1="-12.597666451751524" y1="-65.02076260384491" x2="9.500593918196566" y2="-57.295407555780336"/><line x1="-11.533335652096508" y1="-62.894732701940896" x2="8.954205168639097" y2="-55.73247086538754"/><line x1="-10.469004852441484" y1="-60.768702800036884" x2="8.407816419081625" y2="-54.16953417499474"/><line x1="-9.404674052786469" y1="-58.64267289813287" x2="7.861427669524154" y2="-52.606597484601934"/><line x1="-8.340343253131453" y1="-56.51664299622887" x2="7.315038919966684" y2="-51.04366079420914"/><line x1="-7.276012453476434" y1="-54.390613094324856" x2="6.768650170409214" y2="-49.48072410381634"/><line x1="-6.211681653821416" y1="-52.26458319242085" x2="6.036995372655063" y2="-47.98255477414382"/><line x1="-1.7828974089023628" y1="-48.96237032533215" x2="4.717458671939639" y2="-46.68990372286411"/></g><g fill-rule="nonzero" stroke="#99948A" stroke-width="0.3" stroke-linecap="butt"><line x1="32.908691071974644" y1="-64.00080657871722" x2="49.81293937338589" y2="-57.183164444700736"/><line x1="30.820071905838326" y1="-63.02231804273883" x2="50.41217930191732" y2="-55.12063708680229"/><line x1="30.011500959944353" y1="-61.527574035100805" x2="50.38436264625126" y2="-53.31100753971513"/><line x1="29.45360785130495" y1="-59.93172930089641" x2="49.752736738137195" y2="-51.74489993616536"/><line x1="28.895714742665554" y1="-58.33588456669201" x2="49.121110830023134" y2="-50.1787923326156"/><line x1="28.337821634026152" y1="-56.74003983248762" x2="48.489484921909074" y2="-48.61268472906583"/><line x1="27.77992852538675" y1="-55.14419509828322" x2="47.857859013795014" y2="-47.04657712551607"/><line x1="27.22203541674735" y1="-53.54835036407882" x2="47.226233105680954" y2="-45.48046952196631"/><line x1="26.66414230810795" y1="-51.95250562987443" x2="46.594607197566894" y2="-43.914361918416546"/><line x1="26.10624919946855" y1="-50.35666089567004" x2="45.962981289452834" y2="-42.348254314866786"/><line x1="25.54835609082915" y1="-48.76081616146564" x2="45.331355381338774" y2="-40.782146711317026"/><line x1="24.99046298218975" y1="-47.16497142726125" x2="44.699729473224714" y2="-39.21603910776726"/><line x1="24.55394911985845" y1="-45.52017330281611" x2="44.068103565110654" y2="-37.649931504217506"/><line x1="25.153189048389883" y1="-43.457645944917665" x2="43.436477656996594" y2="-36.08382390066774"/><line x1="27.826602186412003" y1="-40.558585047394665" x2="42.80485174888253" y2="-34.51771629711797"/><line x1="33.175640270441924" y1="-36.58041947503052" x2="41.93462278241801" y2="-33.04783954837526"/><line x1="38.52467835447185" y1="-32.60225390266637" x2="39.8460036162817" y2="-32.06935101239688"/><line x1="43.13075772637896" y1="-29.17663866249732" x2="53.16733299941673" y2="-54.06218665345389"/><line x1="55.204518832326414" y1="-55.33216972707783" x2="44.30387396553223" y2="-28.304173265603964"/><line x1="56.51615915716358" y1="-54.80317286286717" x2="45.926016328247464" y2="-28.545061860795194"/><line x1="57.82779948200074" y1="-54.27417599865652" x2="47.99260063926129" y2="-29.887938049632147"/><line x1="59.139439806837906" y1="-53.745179134445856" x2="50.10325771788494" y2="-31.34009204923736"/><line x1="60.45108013167507" y1="-53.216182270235194" x2="52.21391479650858" y2="-32.79224604884257"/><line x1="61.76269856652069" y1="-52.68713113009672" x2="54.32457187513222" y2="-34.24440004844779"/><line x1="63.074268205591125" y1="-52.15795900151625" x2="56.43522895375587" y2="-35.696554048053"/><line x1="64.38576931646756" y1="-51.62861695823735" x2="58.654929925316075" y2="-37.41908085481319"/><line x1="65.69727042734397" y1="-51.099274914958464" x2="61.080065875942296" y2="-39.65098081840133"/><line x1="67.0087715382204" y1="-50.56993287167957" x2="63.6490825232107" y2="-42.239630956611265"/><line x1="68.32027264909682" y1="-50.04059082840068" x2="66.21809917047908" y2="-44.828281094821186"/><line x1="69.63177375997326" y1="-49.51124878512178" x2="68.78711581774748" y2="-47.41693123303113"/><path d="M 57.07166063155031,-47.545830231897085 L 57.51268196053656,-48.63933644780782 L 57.963695628691454,-49.757618528907464 L 58.463090781026104,-50.99586182323723 L 59.511071085098784,-50.573201522153695 L 60.45848070640186,-50.191102322165655 L 61.76295888479384,-49.664994018895655 L 61.26356373245919,-48.42675072456589 L 59.95908555406721,-48.95285902783589 L 59.011675932764135,-49.33495822782393 L 58.56066226460924,-48.21667614672429 L 58.11964093562299,-47.12316993081355 Z" fill="#99948A" stroke="#1A1917" stroke-width="0.3"/></g><g fill-rule="nonzero" stroke="#99948A" stroke-width="0.3" stroke-linecap="butt"><line x1="-64.57267518520332" y1="-41.283158558289976" x2="-63.309526170464274" y2="-55.00279522928712"/><line x1="-63.39671949303546" y1="-38.874604460638295" x2="-61.858446615431475" y2="-55.58248669410229"/><line x1="-62.17157032264302" y1="-37.00036313206512" x2="-60.411237801674694" y2="-56.12013627523252"/><line x1="-60.91115400383293" y1="-35.50917436266455" x2="-59.02527797043679" y2="-55.99253276522143"/><line x1="-59.532257678426646" y1="-35.30485089918595" x2="-57.63931813919888" y2="-55.86492925521035"/><line x1="-58.14724247803845" y1="-35.16698732334335" x2="-56.25335830796097" y2="-55.737325745199264"/><line x1="-56.73823872233353" y1="-35.28967437087718" x2="-54.86739847672307" y2="-55.60972223518818"/><line x1="-55.329234966628604" y1="-35.41236141841102" x2="-53.481438645485156" y2="-55.48211872517709"/><line x1="-53.92023121092368" y1="-35.53504846594485" x2="-52.09547881424726" y2="-55.354515215166"/><line x1="-52.51122745521876" y1="-35.657735513478684" x2="-50.709518983009346" y2="-55.22691170515492"/><line x1="-51.10222369951384" y1="-35.780422561012514" x2="-49.32355915177144" y2="-55.099308195143834"/><line x1="-49.69321994380891" y1="-35.903109608546345" x2="-47.937599320533536" y2="-54.97170468513275"/><line x1="-48.284216188104" y1="-36.025796656080175" x2="-46.551639489295624" y2="-54.844101175121665"/><line x1="-46.875212432399074" y1="-36.14848370361401" x2="-45.16567965805772" y2="-54.71649766511058"/><line x1="-45.466208676694144" y1="-36.27117075114785" x2="-43.779719826819814" y2="-54.58889415509949"/><line x1="-44.05720492098922" y1="-36.39385779868168" x2="-42.3937599955819" y2="-54.461290645088404"/><line x1="-42.6482011652843" y1="-36.51654484621551" x2="-41.00780016434399" y2="-54.33368713507732"/><line x1="-41.23919740957938" y1="-36.63923189374934" x2="-39.621840333106086" y2="-54.206083625066235"/><line x1="-39.83019365387445" y1="-36.76191894128318" x2="-38.23588050186818" y2="-54.07848011505515"/><line x1="-38.36726411400597" y1="-37.47031848773027" x2="-36.84992067063027" y2="-53.95087660504406"/><line x1="-36.87509353548163" y1="-38.49631827101383" x2="-35.525858550745326" y2="-53.15097386460178"/><line x1="-34.48933222273276" y1="-49.228013948509165" x2="-34.216258661017925" y2="-52.19399025650381"/><line x1="-35.20976122623527" y1="-56.10959683897325" x2="-60.70775403584584" y2="-58.45716370737065"/><line x1="-32.811013087893315" y1="-57.56807672907122" x2="-63.042459380594394" y2="-60.35144647234492"/><line x1="-62.96439966833301" y1="-62.023589112354976" x2="-32.47921920421486" y2="-59.216858395586364"/><line x1="-62.81108558572304" y1="-63.688803180855444" x2="-32.1474253205364" y2="-60.8656400621015"/><line x1="-62.657771503113075" y1="-65.3540172493559" x2="-31.81563143685794" y2="-62.51442172861664"/><line x1="-62.504457420503115" y1="-67.01923131785638" x2="-31.546457134894737" y2="-64.1689686981674"/><line x1="-62.35114333789315" y1="-68.68444538635684" x2="-33.763833156736794" y2="-66.05244910574815"/><line x1="-62.19782925528318" y1="-70.34965945485732" x2="-37.70374847656156" y2="-68.0945214548849"/><line x1="-62.044515172673215" y1="-72.01487352335778" x2="-42.11329158601869" y2="-70.17983182074128"/><line x1="-61.891201090063255" y1="-73.68008759185825" x2="-46.522834695475865" y2="-72.2651421865977"/><line x1="-61.73788700745329" y1="-75.34530166035871" x2="-50.932377804933" y2="-74.35045255245409"/><line x1="-61.56737293192888" y1="-77.00893214799444" x2="-55.34192091439017" y2="-76.43576291831049"/><line x1="-61.22403563643724" y1="-78.65665102767285" x2="-59.89931409343035" y2="-78.53468564681185"/></g><g fill-rule="nonzero" stroke="#99948A" stroke-width="0.3" stroke-linecap="butt"><line x1="30.236516179551362" y1="-66.98787328425833" x2="13.441130274827838" y2="-71.09919690310258"/><line x1="30.63837482371776" y1="-68.55839852166935" x2="12.670567110776865" y2="-72.95671795583551"/><line x1="31.03989205849006" y1="-70.12900733230185" x2="12.58596714984718" y2="-74.6463228478652"/><line x1="31.440632321232606" y1="-71.69980633704333" x2="12.971398599364754" y2="-76.22086927977182"/><line x1="31.841372583975147" y1="-73.27060534178479" x2="13.356830048882323" y2="-77.79541571167842"/><line x1="32.24211284671769" y1="-74.84140434652626" x2="13.742261498399897" y2="-79.36996214358503"/><line x1="32.64285310946024" y1="-76.41220335126773" x2="14.127692947917467" y2="-80.94450857549162"/><line x1="33.04359337220278" y1="-77.9830023560092" x2="14.513124397435039" y2="-82.51905500739824"/><line x1="33.44433363494532" y1="-79.55380136075067" x2="14.898555846952611" y2="-84.09360143930485"/><line x1="33.845073897687875" y1="-81.12460036549213" x2="15.283987296470182" y2="-85.66814787121145"/><line x1="34.24581416043041" y1="-82.69539937023362" x2="15.669418745987755" y2="-87.24269430311806"/><line x1="34.64655442317296" y1="-84.26619837497509" x2="16.054850195505328" y2="-88.81724073502467"/><line x1="35.04729468591551" y1="-85.83699737971656" x2="16.440281645022896" y2="-90.39178716693127"/><line x1="35.44803494865805" y1="-87.40779638445802" x2="16.825713094540472" y2="-91.96633359883788"/><line x1="35.84877521140059" y1="-88.9785953891995" x2="17.211144544058044" y2="-93.54088003074449"/><line x1="36.249515474143145" y1="-90.54939439394097" x2="18.459521662453582" y2="-94.90418696328125"/><line x1="36.65025573688568" y1="-92.12019339868243" x2="19.84833968961719" y2="-96.23311552377311"/><line x1="27.07086645023567" y1="-96.134017087007" x2="36.57571475094248" y2="-93.80733596554272"/><line x1="34.318237124879346" y1="-96.02883713647898" x2="35.802569667574886" y2="-95.66548904340021"/><line x1="15.013214613926474" y1="-94.23526380166771" x2="10.00804427435245" y2="-73.78837730829721"/><line x1="7.924515478608845" y1="-72.14074535151673" x2="13.844788204746347" y2="-96.32596508000911"/><line x1="6.339297445977041" y1="-72.52878909016903" x2="12.170529324611636" y2="-96.35026333576133"/><line x1="4.754079413345241" y1="-72.91683282882131" x2="10.496270444476927" y2="-96.37456159151355"/><line x1="3.1688613807134383" y1="-73.30487656747361" x2="8.822011564342215" y2="-96.39885984726578"/><line x1="1.5836433480816334" y1="-73.69292030612591" x2="7.147752684207505" y2="-96.423158103018"/><line x1="-0.0015746845501655195" y1="-74.0809640447782" x2="5.473493804072798" y2="-96.44745635877022"/><line x1="-1.5867927171819711" y1="-74.4690077834305" x2="3.7992349239380854" y2="-96.47175461452244"/><line x1="-3.17201074981377" y1="-74.85705152208278" x2="2.124976043803379" y2="-96.49605287027467"/><line x1="-4.757228782445574" y1="-75.24509526073508" x2="0.4507171636686671" y2="-96.5203511260269"/><line x1="-6.0704719630931745" y1="-76.74419787456753" x2="-1.223541716466043" y2="-96.54464938177911"/><line x1="-4.53610837216946" y1="-89.87620975738346" x2="-3.3178804754597557" y2="-94.85285707148881"/></g><g fill-rule="nonzero" stroke="#99948A" stroke-width="0.3" stroke-linecap="butt"><line x1="-79.66319949895696" y1="-6.3007347226153865" x2="-78.57094980605946" y2="-6.550104540830571"/><line x1="-85.38395114307322" y1="-6.7443167211536705" x2="-78.08122163190863" y2="-8.411591468416667"/><line x1="-91.1047027871895" y1="-7.187898719691954" x2="-78.09657403119728" y2="-10.157764240639171"/><line x1="-92.32926017261352" y1="-8.657999793713696" x2="-78.50915091977251" y2="-11.813247311296054"/><line x1="-93.44787961883836" y1="-10.15228739286058" x2="-78.92172780834773" y2="-13.468730381952941"/><line x1="-93.82755533336764" y1="-11.815282079079596" x2="-79.33430469692296" y2="-15.124213452609826"/><line x1="-94.20723104789693" y1="-13.478276765298611" x2="-79.74688158549819" y2="-16.77969652326671"/><line x1="-94.58690676242621" y1="-15.141271451517627" x2="-80.15945847407342" y2="-18.435179593923593"/><line x1="-94.9665824769555" y1="-16.80426613773664" x2="-80.57203536264863" y2="-20.090662664580478"/><line x1="-95.34625819148478" y1="-18.46726082395566" x2="-80.98461225122387" y2="-21.74614573523736"/><line x1="-95.72593390601406" y1="-20.130255510174674" x2="-81.3971891397991" y2="-23.401628805894244"/><line x1="-96.10560962054336" y1="-21.79325019639369" x2="-81.80976602837433" y2="-25.057111876551126"/><line x1="-96.48528533507265" y1="-23.456244882612705" x2="-82.22234291694954" y2="-26.71259494720801"/><line x1="-96.86496104960193" y1="-25.119239568831716" x2="-82.63491980552477" y2="-28.368078017864892"/><line x1="-97.24463676413122" y1="-26.782234255050735" x2="-83.0474966941" y2="-30.02356108852178"/><line x1="-97.6243124786605" y1="-28.445228941269747" x2="-83.46007358267522" y2="-31.67904415917866"/><line x1="-98.00398819318978" y1="-30.108223627488762" x2="-83.87265047125045" y2="-33.334527229835544"/><line x1="-98.38366390771907" y1="-31.77121831370778" x2="-84.59354102375153" y2="-34.9196196903358"/><line x1="-98.38059931641281" y1="-33.5215958402338" x2="-85.71778100945494" y2="-36.41262407290945"/><line x1="-97.89087114226199" y1="-35.38308276781989" x2="-94.64173281684984" y2="-36.124888454589765"/><line x1="-75.108229614197" y1="-7.678035790039527" x2="-81.94412420618283" y2="-35.107366135973336"/><line x1="-81.20147246242024" y1="-37.885851695005236" x2="-73.20508145387909" y2="-5.799977988633046"/><line x1="-79.81174950474914" y1="-38.06793529891502" x2="-71.74170129167885" y2="-5.686508791340117"/><line x1="-78.42202654707805" y1="-38.25001890282479" x2="-70.27832112947861" y2="-5.573039594047188"/><line x1="-77.03230358940695" y1="-38.43210250673457" x2="-68.81494096727837" y2="-5.459570396754266"/><line x1="-75.64258063173585" y1="-38.61418611064435" x2="-67.46360335907112" y2="-5.795676918472381"/><line x1="-74.25285767406476" y1="-38.79626971455413" x2="-66.31042109168976" y2="-6.926890537028491"/><line x1="-72.86313471639366" y1="-38.97835331846391" x2="-65.2074455623144" y2="-8.259560919410827"/><line x1="-71.47341175872258" y1="-39.160436922373684" x2="-64.62344483764772" y2="-11.674640731607845"/><line x1="-70.08368880105148" y1="-39.342520526283465" x2="-64.20378937006689" y2="-15.749163179547082"/><line x1="-68.69396584338038" y1="-39.52460413019324" x2="-63.784133902486055" y2="-19.82368562748632"/><line x1="-67.23983928357816" y1="-39.44826542308705" x2="-63.364478434905216" y2="-23.898208075425558"/><line x1="-65.58515724711377" y1="-38.56718896761029" x2="-62.94482296732438" y2="-27.97273052336479"/><line x1="-63.26577870302617" y1="-35.01898828398055" x2="-62.69752723801076" y2="-32.73885406837371"/></g><g fill-rule="nonzero" stroke="#99948A" stroke-width="0.3" stroke-linecap="butt"><line x1="63.54934763949301" y1="-67.48080914657041" x2="51.3918723451207" y2="-70.4170690537196"/><line x1="64.77109701027825" y1="-68.62811264524868" x2="50.82509179103389" y2="-71.99633631000218"/><line x1="65.48110593966732" y1="-69.89901112598992" x2="50.77005167834328" y2="-73.45200858422184"/><line x1="65.80691340700793" y1="-71.26270151639706" x2="51.09921302770111" y2="-74.81488894877559"/><line x1="66.13272087434854" y1="-72.62639190680417" x2="51.42837437705894" y2="-76.17776931332932"/><line x1="66.45852834168916" y1="-73.99008229721132" x2="51.75753572641676" y2="-77.54064967788307"/><line x1="66.78433580902977" y1="-75.35377268761846" x2="52.08669707577459" y2="-78.90353004243681"/><line x1="67.11014327637038" y1="-76.71746307802559" x2="52.41585842513241" y2="-80.26641040699054"/><line x1="67.435950743711" y1="-78.08115346843273" x2="52.745019774490245" y2="-81.62929077154429"/><line x1="67.76175821105161" y1="-79.44484385883987" x2="53.07418112384807" y2="-82.99217113609804"/><line x1="68.08756567839222" y1="-80.80853424924699" x2="53.403342473205896" y2="-84.35505150065177"/><line x1="68.41337314573285" y1="-82.17222463965413" x2="53.73250382256372" y2="-85.71793186520551"/><line x1="68.73918061307347" y1="-83.53591503006128" x2="54.061665171921554" y2="-87.08081222975926"/><line x1="69.06498808041408" y1="-84.8996054204684" x2="54.39082652127938" y2="-88.44369259431299"/><line x1="69.39079554775469" y1="-86.26329581087555" x2="54.719987870637205" y2="-89.80657295886674"/><line x1="69.33383977841574" y1="-87.71943075235761" x2="55.431912456674596" y2="-91.07700877234554"/><line x1="68.7670592243289" y1="-89.2986980086402" x2="56.65366182745987" y2="-92.22431227102382"/><line x1="52.78863841829785" y1="-91.60676726138102" x2="48.23317839847022" y2="-72.745053926431"/><line x1="46.473076072005775" y1="-71.29642555572835" x2="51.880518904137574" y2="-93.68574214085328"/><line x1="45.140571669269946" y1="-71.61825053658306" x2="50.54801450140175" y2="-94.007567121708"/><line x1="43.80806726653413" y1="-71.94007551743776" x2="49.21551009866594" y2="-94.3293921025627"/><line x1="42.475562863798324" y1="-72.26190049829248" x2="47.88300569593012" y2="-94.65121708341741"/><line x1="41.1430584610625" y1="-72.58372547914719" x2="46.55050129319431" y2="-94.97304206427211"/><line x1="39.81055405832669" y1="-72.90555046000189" x2="45.217996890458494" y2="-95.29486704512682"/><line x1="38.47804965559087" y1="-73.2273754408566" x2="43.88549248772268" y2="-95.61669202598152"/><line x1="37.14554525285506" y1="-73.54920042171132" x2="42.552988084986865" y2="-95.93851700683624"/><line x1="35.81304085011924" y1="-73.87102540256602" x2="41.22024431410071" y2="-96.25935089273815"/><line x1="34.902834227752756" y1="-75.94135868788241" x2="39.863781339349906" y2="-96.48197629434192"/><line x1="32.65260061139386" y1="-67.14120178861617" x2="33.7681260117574" y2="-71.75999335476598"/><line x1="33.807930552162276" y1="-66.42307934587802" x2="35.078967330764954" y2="-71.68576000860706"/><line x1="34.963260492930694" y1="-65.70495690313989" x2="36.389808649772505" y2="-71.61152666244813"/><line x1="36.16247518382554" y1="-65.16853764143241" x2="37.65964892140734" y2="-71.3675299996075"/><line x1="37.373302408980265" y1="-64.68019964733539" x2="38.91518202577863" y2="-71.06429504109843"/><line x1="38.584129634134996" y1="-64.19186165323838" x2="40.170715130149915" y2="-70.76106008258937"/><line x1="39.79495685928973" y1="-63.703523659141354" x2="41.426248234521196" y2="-70.45782512408032"/><line x1="41.00578408444444" y1="-63.21518566504433" x2="42.681781338892485" y2="-70.15459016557125"/><line x1="42.21661130959917" y1="-62.726847670947315" x2="43.937314443263766" y2="-69.85135520706218"/><line x1="43.427438534753904" y1="-62.23850967685029" x2="45.192847547635054" y2="-69.54812024855312"/><line x1="44.63826575990863" y1="-61.750171682753276" x2="46.44838065200634" y2="-69.24488529004405"/><line x1="45.84909298506335" y1="-61.26183368865625" x2="47.703913756377624" y2="-68.94165033153499"/><line x1="47.05992021021808" y1="-60.77349569455923" x2="48.95944686074892" y2="-68.63841537302591"/><line x1="48.270747435372805" y1="-60.285157700462214" x2="50.2149799651202" y2="-68.33518041451686"/><line x1="49.48157466052752" y1="-59.7968197063652" x2="51.47051306949148" y2="-68.03194545600779"/><line x1="50.69240188568226" y1="-59.308481712268176" x2="52.72604617386278" y2="-67.72871049749872"/><line x1="51.903229110836975" y1="-58.82014371817115" x2="53.98157927823406" y2="-67.42547553898966"/><line x1="53.1140563359917" y1="-58.33180572407414" x2="55.23711238260534" y2="-67.1222405804806"/><line x1="54.32488356114643" y1="-57.843467729977114" x2="56.49264548697663" y2="-66.81900562197153"/><line x1="55.53571078630115" y1="-57.35512973588009" x2="57.748178591347916" y2="-66.51577066346246"/><line x1="56.746538011455876" y1="-56.866791741783075" x2="59.0037116957192" y2="-66.2125357049534"/><line x1="57.95736523661061" y1="-56.37845374768605" x2="60.25924480009049" y2="-65.90930074644433"/><line x1="59.18949277579374" y1="-55.97830891419181" x2="61.492219328168154" y2="-65.51266283906887"/><line x1="60.50033409480128" y1="-55.90407556803288" x2="62.647549268936565" y2="-64.79454039633073"/><line x1="61.81117541380884" y1="-55.82984222187395" x2="63.80287920970498" y2="-64.0764179535926"/><path d="M 38.92751805463706,-67.80117360786684 L 37.34248421163608,-68.4404326461397 L 35.800147217972466,-69.06247164399183 L 36.34617042789401,-70.41632855484285 L 37.88850742155762,-69.79428955699072 L 38.11477750926792,-70.35532307424629 L 36.572440515604306,-70.97736207209842 L 37.140735315346376,-72.38644107835907 L 38.68307230900999,-71.76440208050694 L 40.26810615201097,-71.12514304223409 L 39.6998113522689,-69.71606403597343 L 39.473541264558605,-69.15503051871787 Z" fill="#99948A" stroke="#1A1917" stroke-width="0.3"/></g><g fill-rule="nonzero" stroke="#99948A" stroke-width="0.3" stroke-linecap="butt"><line x1="-39.715334554211076" y1="-100.14890765478019" x2="-38.03986406436476" y2="-99.94073330340906"/><line x1="-47.54018426305529" y1="-99.5793231931765" x2="-37.319569683905875" y2="-98.3094292597872"/><line x1="-51.75016141161521" y1="-98.56059697999505" x2="-37.049657341742154" y2="-96.73408441643743"/><line x1="-53.19732396784549" y1="-97.1985957648351" x2="-37.23831205964688" y2="-95.21571574835808"/><line x1="-53.751007045467674" y1="-95.72558124800865" x2="-37.426966777551606" y2="-93.69734708027873"/><line x1="-54.304690123089856" y1="-94.2525667311822" x2="-37.61562149545633" y2="-92.1789784121994"/><line x1="-54.85837320071204" y1="-92.77955221435575" x2="-37.80427621336106" y2="-90.66060974412005"/><line x1="-55.41205627833423" y1="-91.3065376975293" x2="-37.99293093126578" y2="-89.1422410760407"/><line x1="-55.965739355956416" y1="-89.83352318070283" x2="-38.18158564917051" y2="-87.62387240796136"/><line x1="-56.51942243357859" y1="-88.36050866387639" x2="-38.37024036707523" y2="-86.10550373988201"/><line x1="-57.07310551120078" y1="-86.88749414704994" x2="-38.558895084979966" y2="-84.58713507180266"/><line x1="-57.62678858882296" y1="-85.41447963022348" x2="-38.74754980288469" y2="-83.06876640372332"/><line x1="-58.18047166644514" y1="-83.94146511339702" x2="-38.93620452078942" y2="-81.55039773564397"/><line x1="-58.734154744067325" y1="-82.46845059657056" x2="-39.124859238694135" y2="-80.03202906756464"/><line x1="-58.02944407701597" y1="-80.83908280276641" x2="-39.31351395659887" y2="-78.51366039948529"/><line x1="-56.24602058134042" y1="-79.07568677941396" x2="-39.502168674503594" y2="-76.99529173140594"/><line x1="-51.8239250166196" y1="-76.98444025091474" x2="-39.69082339240832" y2="-75.4769230633266"/><line x1="-47.40182945189882" y1="-74.89319372241556" x2="-40.25089361194825" y2="-74.00470213799215"/><line x1="-42.979733887178" y1="-72.80194719391633" x2="-41.80747737737217" y2="-72.65629632149079"/><line x1="-34.299020002439754" y1="-84.27145307724616" x2="-9.539372167597307" y2="-81.19510905362301"/><line x1="-8.364118272548154" y1="-79.78114062233217" x2="-36.703165216485246" y2="-83.30221888171168"/><line x1="-8.584888424002182" y1="-78.54062579833582" x2="-36.85831016621375" y2="-82.05355023830424"/><line x1="-8.80565857545621" y1="-77.30011097433946" x2="-37.01345511594225" y2="-80.8048815948968"/><line x1="-9.035778611571299" y1="-76.06075785756892" x2="-37.16860006567076" y2="-79.55621295148934"/><line x1="-9.702010040880086" y1="-74.87559083775076" x2="-37.32374501539926" y2="-78.3075443080819"/><line x1="-10.675877375131831" y1="-73.7286470545447" x2="-37.47888996512777" y2="-77.05887566467446"/><line x1="-11.674745709605013" y1="-72.5848096029847" x2="-37.63403491485627" y2="-75.810207021267"/><line x1="-12.673614044078182" y1="-71.44097215142475" x2="-37.78917986458478" y2="-74.56153837785956"/><line x1="-13.67248237855135" y1="-70.29713469986478" x2="-37.94432481431329" y2="-73.31286973445212"/><line x1="-14.67135071302453" y1="-69.15329724830481" x2="-38.09946976404179" y2="-72.06420109104468"/><line x1="-16.86786700555342" y1="-68.15826551331826" x2="-37.65260213244084" y2="-70.7407334109517"/><line x1="-22.19146567889094" y1="-67.55176843188362" x2="-35.32967249472967" y2="-69.1841682256381"/><line x1="-27.51506435222852" y1="-66.94527135044898" x2="-31.69305104310113" y2="-67.46437907253686"/><line x1="-34.40890905027306" y1="-99.33422473027323" x2="-35.81436936161265" y2="-88.02251768860364"/><line x1="-32.99143998380258" y1="-100.11746635637289" x2="-34.59181580448415" y2="-87.23700129160918"/><line x1="-31.593928800933735" y1="-100.74007894823227" x2="-33.366554109570316" y2="-86.47328107129005"/><line x1="-30.26172740829471" y1="-100.83705221177193" x2="-32.06647168244146" y2="-86.31174804660432"/><line x1="-28.929526015655686" y1="-100.93402547531159" x2="-30.7663892553126" y2="-86.1502150219186"/><line x1="-27.597324623016657" y1="-101.03099873885125" x2="-29.46630682818374" y2="-85.98868199723287"/><line x1="-26.265123230377633" y1="-101.1279720023909" x2="-28.16622440105488" y2="-85.82714897254715"/><line x1="-24.932921837738608" y1="-101.22494526593057" x2="-26.86614197392602" y2="-85.66561594786143"/><line x1="-23.60072044509958" y1="-101.32191852947022" x2="-25.566059546797156" y2="-85.50408292317572"/><line x1="-22.268519052460555" y1="-101.41889179300989" x2="-24.2659771196683" y2="-85.34254989848999"/><line x1="-20.936317659821526" y1="-101.51586505654956" x2="-22.965894692539436" y2="-85.18101687380427"/><line x1="-19.604116267182498" y1="-101.61283832008921" x2="-21.665812265410572" y2="-85.01948384911854"/><line x1="-18.271914874543473" y1="-101.70981158362888" x2="-20.365729838281712" y2="-84.85795082443283"/><line x1="-16.939713481904445" y1="-101.80678484716853" x2="-19.065647411152852" y2="-84.69641779974711"/><line x1="-15.607512089265418" y1="-101.9037581107082" x2="-17.76556498402399" y2="-84.53488477506139"/><line x1="-14.275310696626393" y1="-102.00073137424785" x2="-16.46548255689513" y2="-84.37335175037566"/><line x1="-12.943109303987365" y1="-102.09770463778752" x2="-15.16540012976627" y2="-84.21181872568994"/><line x1="-11.610907911348338" y1="-102.19467790132718" x2="-13.865317702637405" y2="-84.05028570100421"/><line x1="-10.286724483909774" y1="-102.22711937219637" x2="-12.565235275508545" y2="-83.88875267631849"/><line x1="-8.983721431415644" y1="-102.08909270926549" x2="-11.265152848379685" y2="-83.72721965163278"/><line x1="-7.685951898921848" y1="-101.90894458295149" x2="-9.927214410568943" y2="-83.87036695064232"/><line x1="-6.609937650293604" y1="-99.94402118707578" x2="-8.548661871131726" y2="-84.34039279303909"/><line x1="-5.533923401665358" y1="-97.97909779120005" x2="-6.4786131577179225" y2="-90.37585657583784"/><path d="M -9.676721575712818,-93.76077861702262 L -10.832700586686432,-93.90440703797448 L -12.0338016283933,-94.0536417943034 L -13.218663763027926,-94.20085889411898 L -13.086922509493693,-95.26116522454905 L -12.94825499083003,-96.37721690858666 L -11.763392856195404,-96.22999980877108 L -11.600848090516843,-97.53822513230244 L -10.399747048809974,-97.38899037597352 L -10.562291814488535,-96.08076505244216 L -9.406312803514922,-95.9371366314903 L -9.544980322178585,-94.82108494745269 Z" fill="#99948A" stroke="#1A1917" stroke-width="0.3"/></g><g id="labels" style="font: bold italic 1px &quot;Archivo Narrow&quot;, sans-serif" fill="#1A1917"><text text-anchor="middle" stroke="#CCC5B8" stroke-width="0.7183319210249098" x="1.3954146493504307" y="-1.9430241732241278">Merchant</text><text text-anchor="middle" x="1.3954146493504307" y="-1.9430241732241278">Merchant</text><text text-anchor="middle" stroke="#CCC5B8" stroke-width="0.7183319210249098" x="14.844629524962219" y="-0.9772094993850864">Gate</text><text text-anchor="middle" x="14.844629524962219" y="-0.9772094993850864">Gate</text><text text-anchor="middle" stroke="#CCC5B8" stroke-width="0.7183319210249098" x="-17.17695021197708" y="-1.232212863423701">Craftsmen</text><text text-anchor="middle" x="-17.17695021197708" y="-1.232212863423701">Craftsmen</text><text text-anchor="middle" stroke="#CCC5B8" stroke-width="0.7183319210249098" x="-2.3335523117115677" y="25.944450999039713">Craftsmen</text><text text-anchor="middle" x="-2.3335523117115677" y="25.944450999039713">Craftsmen</text><text text-anchor="middle" stroke="#CCC5B8" stroke-width="0.7183319210249098" x="0.6138094647390513" y="-33.15062082851213">Craftsmen</text><text text-anchor="middle" x="0.6138094647390513" y="-33.15062082851213">Craftsmen</text></g></g></svg>