<svg width="80.57002836180128" height="90.7450448531759" xmlns="http://www.w3.org/2000/svg"><rect x="0" y="0" width="80.57002836180128" height="90.7450448531759" id="background" fill="#CCC5B8"/><g id="map" transform="translate(40.28501418090064 45.37252242658795)"><g fill="none"><path d="M -4.1798420170431685,-29.058485221838517 L -12.52311042777455,-35.91043535548996 C -14.626076507761892,-37.63750657068661 -17.706172309432084,-41.281724447789664 -23.03270499866138,-45.252380251113415 C -25.888632950833202,-47.381327459134084 -30.040592394530673,-48.65778711695332 -33.655496892630126,-51.66354114688613 C -39.07132855922879,-56.16674665781324 -46.722657232980005,-60.094523660508486 -49.78112448497566,-67.4934020284778 C -52.51908779436669,-74.11693461295413 -49.159939019816825,-81.57382703350903 -48.76105594205196,-88.20609167245543 C -48.40962685708296,-94.04933452546797 -48.13608964263448,-99.36657438315305 -47.580455153752084,-104.08412798575145 C -47.040758155305994,-108.66636607621271 -47.040758155305994,-108.66636607621271 -45.28164051699842,-117.74768619516675" stroke="#67635C" stroke-width="2.3" stroke-linejoin="round" stroke-linecap="butt"/><path d="M -4.1798420170431685,-29.058485221838517 L -12.52311042777455,-35.91043535548996 C -14.626076507761892,-37.63750657068661 -17.706172309432084,-41.281724447789664 -23.03270499866138,-45.252380251113415 C -25.888632950833202,-47.381327459134084 -30.040592394530673,-48.65778711695332 -33.655496892630126,-51.66354114688613 C -39.07132855922879,-56.16674665781324 -46.722657232980005,-60.094523660508486 -49.78112448497566,-67.4934020284778 C -52.51908779436669,-74.11693461295413 -49.159939019816825,-81.57382703350903 -48.76105594205196,-88.20609167245543 C -48.40962685708296,-94.04933452546797 -48.13608964263448,-99.36657438315305 -47.580455153752084,-104.08412798575145 C -47.040758155305994,-108.66636607621271 -47.040758155305994,-108.66636607621271 -45.28164051699842,-117.74768619516675" stroke="#CCC5B8" stroke-width="1.7" stroke-linejoin="round" stroke-linecap="round"/></g><g fill="none"><path d="M 9.446666023767932,10.050839111049388 L 22.54646348113277,9.766157732001403 C 24.482040124494976,9.724094285610052 27.248185129023376,11.335728778560618 29.664104221135904,13.957477916954165 C 32.90193192798457,17.47116015424899 34.752516525064124,22.97507432075674 38.897172655366454,27.509904958315353 C 42.53848513474185,31.49400758909055 47.566063267235265,33.42858851436486 50.59420710166747,36.85792340770344 C 53.02157583754906,39.60688804085757 53.993160937467394,43.698388727477536 56.30280931816257,47.2215700614666 C 59.30834952270005,51.80627794847099 61.90887912426708,57.80426780805467 67.1557207847525,62.12116969166256 C 72.33152176175616,66.37962200118767 72.33152176175616,66.37962200118767 85.21463016884468,71.00911730704071" stroke="#67635C" stroke-width="2.3" stroke-linejoin="round" stroke-linecap="butt"/><path d="M 9.446666023767932,10.050839111049388 L 22.54646348113277,9.766157732001403 C 24.482040124494976,9.724094285610052 27.248185129023376,11.335728778560618 29.664104221135904,13.957477916954165 C 32.90193192798457,17.47116015424899 34.752516525064124,22.97507432075674 38.897172655366454,27.509904958315353 C 42.53848513474185,31.49400758909055 47.566063267235265,33.42858851436486 50.59420710166747,36.85792340770344 C 53.02157583754906,39.60688804085757 53.993160937467394,43.698388727477536 56.30280931816257,47.2215700614666 C 59.30834952270005,51.80627794847099 61.90887912426708,57.80426780805467 67.1557207847525,62.12116969166256 C 72.33152176175616,66.37962200118767 72.33152176175616,66.37962200118767 85.21463016884468,71.00911730704071" stroke="#CCC5B8" stroke-width="1.7" stroke-linejoin="round" stroke-linecap="round"/></g><g fill="#9C8595" stroke="#2A162E" stroke-width="0.3"><polygon points="-7.428271778918341,1.8306372779329347 -9.20249622445497,-0.7318004259363029 1.3347253231667904,-8.975066617828414 3.849130763536821,-2.6585151215589304"/><polygon points="-7.428271778918341,1.8306372779329347 -2.6370178366575514,-0.07659881215987374 0.12110603131053566,-1.1745146073416572 3.849130763536821,-2.6585151215589304 4.797863195512365,-0.2751615197338424 1.1579336638376416,1.0011529044140457 2.615237414351589,4.059142800984481 0.01389691602249954,4.787438857243387 -4.5050019857022825,6.052592823390004 -6.213048347006486,3.585733341675013"/></g><g fill="#A38B7C" stroke="#301C14" stroke-width="0.3"><polygon points="-14.484076158346776,-13.369346267424959 -13.741602279804834,-11.10923485682463 -12.954860127521144,-8.714369573390714 -15.352106007373191,-8.161128811597298 -16.049114659335057,-10.282842791191776 -18.956251395386328,-9.241706564277292 -19.50735061938282,-10.91926813314143 -16.7069041469038,-12.285172529103331"/><polygon points="-4.910330574763195,-7.363612283278661 -4.74057626753027,-6.7616451607185635 -10.262656904544363,-2.441722644305862 -11.200699329263953,-5.297150220962596"/><polygon points="-8.207061676778922,-6.280596323825005 -9.122967523638634,-9.068639533625621 -9.614814478242703,-10.565835524618162 -8.073415759394607,-11.072203608861734 -6.135664359491108,-11.70877833291672 -5.70755177483474,-10.190644832105171 -4.910330574763195,-7.363612283278661 -6.746481672011231,-6.760414484989294"/><polygon points="-12.608452130727732,-9.582389421755753 -11.27948166295371,-10.018972261454698 -9.614814478242703,-10.565835524618162 -8.863998873017435,-8.28033166290815 -8.207061676778922,-6.280596323825005 -9.87172886148993,-5.733733060661541 -11.200699329263953,-5.297150220962596 -11.857636525502464,-7.296885560045741"/><polygon points="-10.495872404168372,-12.5609089957659 -9.8184863795072,-10.498926846677506 -12.608452130727732,-9.582389421755753 -13.285838155388904,-11.644371570844147"/><polygon points="-10.495872404168372,-12.5609089957659 -13.285838155388904,-11.644371570844147 -13.939733322234096,-13.634846886723883 -11.275555666130101,-14.934286818126884"/><polygon points="-6.135664359491108,-11.70877833291672 -8.292873161186774,-11.000109203462452 -9.8184863795072,-10.498926846677506 -10.323337387661601,-12.035707543156088 -11.275555666130101,-14.934286818126884 -9.735037711909568,-15.685667094953017 -7.556753694632031,-16.748114723962367 -6.628048894742821,-13.45482711783424"/><polygon points="-4.6644548031471444,-9.806907674164055 -5.245487319223328,-11.867311781238131 -5.510024971146909,-12.805390889409097 -3.981949249215461,-13.236307173462514 -0.28869269577996004,-14.27780293654601 -0.13506219821866083,-13.308448088471051 -3.7498696982193094,-12.289074903548096 -3.2401284025489345,-10.208566722217757"/><polygon points="0.20237299822688704,-11.179349707759851 0.28004363971747775,-10.68927505411268 -3.9746601280629914,-7.3608211949094855 -4.6644548031471444,-9.806907674164055"/><polygon points="-1.9737286937149772,-13.802623964519274 -2.930324893896634,-17.194817490926514 -0.8442368655059771,-17.783092854837275 -0.28869269577996004,-14.27780293654601"/><polygon points="-2.930324893896634,-17.194817490926514 -3.3789817112865013,-18.785803061681833 -1.173630617770075,-19.86145252789245 -0.8442368655059771,-17.783092854837275"/><polygon points="-1.9737286937149772,-13.802623964519274 -3.51888691747384,-13.366890426906915 -5.510024971146909,-12.805390889409097 -6.184196074638737,-15.196074495011462 -6.734909866093952,-17.14896512736272 -4.845329432159685,-18.070598962038254 -4.248954875314805,-15.955790320043832 -2.747173595721361,-16.54534319037497"/></g><g fill="#899895" stroke="#172A2E" stroke-width="0.3"><polygon points="13.080722853846877,-10.834370710558344 13.440081330446295,-8.924066116854005 14.066677219158764,-5.593160955159493 14.517897122925914,-3.1945325351652087 12.099638375025062,-2.739619856562621 10.032908204004748,-2.3508352573696065 9.556586531977706,-4.882901529368215 8.895132551545998,-8.399107935016008 8.515782640334509,-10.415684487950493 10.619355210685326,-10.608619512784918"/><polygon points="13.862023125953291,-6.681076448541912 13.29171023009889,-9.7127882787708 13.080722853846877,-10.834370710558344 15.415752820584043,-11.0485344960019 18.065225640693175,-11.291538284675868 18.25263806884094,-10.295277320426948 15.615696324931125,-9.98565990222588 16.156156901279825,-7.112639258647478"/><polygon points="11.22872097258678,4.00595545103205 7.869815582194846,4.637818625161882 2.1113495460837077,-9.828284045719201 8.515782640334509,-10.415684487950493"/><polygon points="16.343874504487694,3.04371425302939 18.61653323456629,2.616191238237427 20.610913079222104,2.241016878557787 21.475805630069114,6.83867721087671 19.437722219110015,6.98152889304374 19.784685065906608,8.825939873278115 17.441182934250797,8.876868249904776 17.115261896942087,7.144312890010648"/><polygon points="13.49897358521441,8.962539314486662 12.987287560651273,6.242480579523592 12.520837020602505,3.762888007162177 14.240542333958562,3.43938426663607 16.343874504487694,3.04371425302939 16.867155330684135,5.825409499346778 17.441182934250797,8.876868249904776 15.272285615890642,8.924002160304063"/><polygon points="12.520837020602505,3.762888007162177 13.041176010637455,6.528944821386915 13.49897358521441,8.962539314486662 11.392971415329443,9.008306403936112 9.6248542963169,9.046730663654408 8.803442955935695,6.983226127817076 7.869815582194846,4.637818625161882 9.992504640766185,4.23850727507856"/></g><g fill="#909E7C" stroke="#1E3014" stroke-width="0.3"><polygon points="6.813968272792416,14.408402535056187 0.6208662456701419,12.775620481595892 1.5156506648705945,9.381725265364262 7.786594410645466,10.71925560132777"/><polygon points="7.786594410645466,10.71925560132777 8.942190082475534,10.965732739353804 8.991009907341239,17.8090089735331 6.117171604383918,17.051335099428385"/><polygon points="1.5156506648705945,9.381725265364262 1.2298312601662977,10.465831212581 -1.6287146556789742,9.712189103998922 -1.3788246004286777,8.764362292423826"/><polygon points="-1.3788246004286777,8.764362292423826 -2.3611430708292724,12.490272004271056 -4.905871804139839,11.819366311376323 -3.9555382836460984,8.214774725047281"/><polygon points="-7.295007873068268,11.7372861354742 -5.111372937353255,7.968246614548314 -3.9555382836460984,8.214774725047281 -5.040911361162882,12.331568018008717"/><polygon points="-5.040911361162882,12.331568018008717 -5.714096412431086,14.88494230136889 -8.667515104606496,14.106287434095705 -7.295007873068268,11.7372861354742"/><polygon points="-5.807872531468772,14.860218671185287 -6.48014009967643,17.410112963942872 -10.038151747763356,16.472060023823868 -8.667515104606496,14.106287434095705"/><polygon points="-7.75877463251044,22.25994218668636 -12.645065165556998,20.971694801868356 -10.038151747763356,16.472060023823868 -6.48014009967643,17.410112963942872"/></g><g fill="#A38B7C" stroke="#301C14" stroke-width="0.3"><polygon points="-14.03424131922194,9.299044776080734 -13.005937336806905,8.08816093742047 -11.97584356108447,6.875169519846251 -10.7579143816256,7.909456530334971 -11.719772837435332,9.180394589005028 -8.870626831138505,11.599939793273727 -9.679919982338031,12.996811505205228 -12.679960059161868,10.449124386170027"/><polygon points="-7.259617747080829,5.587552328789018 -9.871021230266702,8.662621888069049 -11.97584356108447,6.875169519846251 -8.88673465280562,3.2375758540983046"/><polygon points="-9.871021230266702,8.662621888069049 -7.259617747080829,5.587552328789018 -6.240242437661312,7.059793190885748 -8.059925081420921,10.200636785067907"/><polygon points="-12.243640213327629,3.9479052582522116 -13.63361764161865,2.7675118304564617 -11.175487575400911,-0.06797367682658972 -10.103895577403671,1.479681551203018"/><polygon points="-8.88673465280562,3.2375758540983046 -10.643751677266955,5.3065589131491055 -12.243640213327629,3.9479052582522116 -10.103895577403671,1.479681551203018"/><polygon points="-10.643751677266955,5.3065589131491055 -12.607450430918178,7.618920943692968 -14.03424131922194,9.299044776080734 -15.477875820567537,8.073084812383572 -17.064807343065652,6.725434482678734 -15.620888995259271,5.059855591971486 -13.63361764161865,2.7675118304564617 -12.067998377908916,4.0970634128771675"/><polygon points="-13.913249680193955,20.303704555578456 -15.37359620645229,19.42341911471069 -18.254923592389947,17.686577548268797 -16.880285972409848,15.406127162513169 -15.885418373378712,13.755694956228016 -13.049394285314468,15.465228049766942 -11.612008882460703,16.33167270539944 -12.578214775937791,17.999381963162445"/><polygon points="-11.612008882460703,16.33167270539944 -13.503017286771268,15.191787659664273 -11.804104467050104,12.373382038585458 -10.138307486385514,13.788006310891841"/><polygon points="-17.298472000373128,-5.289300370836306 -18.115896933153124,-4.203386642061231 -19.968519391196413,-1.7422576982886158 -21.82246314529954,-3.137819618557459 -24.279490404982553,-4.987354521160214 -22.994531908402838,-7.875794275400628 -22.42757499382396,-9.150248582967846 -19.50425543720223,-6.949710705284453"/><polygon points="-20.4748304324474,-1.0696453412676554 -19.226909157240716,-2.7274548731701573 -17.298472000373128,-5.289300370836306 -15.779101725705155,-4.145589676581295 -14.747613097743324,-3.369133407512728 -16.67605025461091,-0.807287909846578 -17.923971529817596,0.8505216220559246 -18.955460157779427,0.07406535298735739"/><polygon points="-17.923971529817596,0.8505216220559246 -17.08125199761407,-0.2689948898939418 -16.162722403173706,-1.4892217962311034 -13.996912841536867,0.14109807948525432 -13.06104669709301,0.8455742270297049 -14.063872427045112,2.002346955490304 -14.983930784600577,3.0636464263996195 -15.871026940829912,2.395882038990025"/><polygon points="-13.06104669709301,0.8455742270297049 -16.162722403173706,-1.4892217962311034 -14.747613097743324,-3.369133407512728 -11.66108441644237,-0.7693007594821744"/><polygon points="-16.60969469560304,1.8398475918767414 -14.983930784600577,3.0636464263996195 -17.29623158727378,5.730915951542014 -18.727626710176494,4.653428826077446"/></g><g fill="#899895" stroke="#172A2E" stroke-width="0.3"><polygon points="0.5519636344380299,-21.366283412010578 -0.8051781188426959,-24.24512153469065 -1.861419900880152,-26.485675332071303 -3.0390909606858667,-28.98381109036629 -0.024530049887649952,-30.484532358604845 3.878464288774193,-32.42753725622144 5.499863766189691,-29.8483745348803 1.346510819698942,-27.95108633436891 2.5761841136807377,-25.67886310101873 4.156164188827736,-22.759333619041936"/><polygon points="0.7126180914536724,-20.73668793462133 2.955495797370861,-21.603576778741996 4.258821493845559,-22.10732181287781 5.22514653188578,-19.607175572458193 3.724393463734601,-19.02712339701954 4.835519936191593,-15.303915897871162 1.7619218166294175,-14.115947461549702 1.1417653395844802,-18.028918500055493"/><polygon points="8.440312762403787,-23.723499156358407 9.342931117624715,-21.38817946732701 9.859961203244854,-20.05048172188867 10.803064630352692,-17.61041611788393 8.656495279932496,-16.78075116642388 6.6215733617944625,-15.994238774403332 5.678469934686626,-18.434304378408072 5.161439849066488,-19.772002123846413 7.196361767204522,-20.55851451586696 6.293743411983593,-22.893834204898358"/><polygon points="10.803064630352692,-17.61041611788393 12.919963457978284,-12.133421900730543 2.231495823256732,-11.153099283097708 1.7619218166294175,-14.115947461549702"/><polygon points="12.919963457978284,-12.133421900730543 12.456074982579155,-13.333627817049608 11.824488533822542,-14.967714095680316 14.636467811550018,-16.05456491207986 17.360200701887635,-17.107307846199248 18.228975148687848,-14.859551572238592 18.867073788051112,-13.208616481643812 15.940920925203152,-12.67958918495005"/><polygon points="13.97602493046888,-25.86309290687734 15.81952423304587,-26.57561904030498 23.38112378322777,-18.0173782049319 18.867073788051112,-13.208616481643812"/></g><g fill="#A38B7C" stroke="#301C14" stroke-width="0.3"><polygon points="-12.891595154681278,-19.39437212784344 -11.69928934105463,-18.930276344175674 -10.658708278412739,-18.525238242191 -11.058400765965581,-17.498390566898813 -11.599547016394311,-16.108134841433476 -12.640128079036202,-16.513172943418148 -13.83243389266285,-16.977268727085914 -13.29128764223412,-18.36752445255125"/><polygon points="-19.34152955855297,-15.83137534210187 -17.83659009839957,-19.6977066699072 -17.28848938044439,-21.10582907797183 -14.450459153247575,-20.00114783989464 -12.891595154681278,-19.39437212784344 -13.393947123499368,-18.103782568561044 -14.773272630644422,-14.56016532632839 -16.39289113758764,-15.010856979676554"/><polygon points="-15.351329395497498,-14.278220899256594 -21.022821578136448,-11.5119776662365 -19.34152955855297,-15.83137534210187"/><polygon points="-1.5020765454167186,-21.03312785234955 -8.425821402144198,-17.656104356538567 -8.99365621228571,-21.026542776680287 -2.8078569726444815,-23.803015717537928"/><polygon points="-7.24123647005959,-25.528674276470152 -6.422677137997029,-27.63163035743986 -4.205987389289474,-26.768801077973748 -5.024546721352032,-24.665844997004033"/><polygon points="-6.974032006094418,-26.215147730925704 -14.204275959985633,-29.029464071197282 -13.070448611941147,-31.942373402194548 -5.840204658049931,-29.12805706192297"/><polygon points="-13.29202481540431,-24.454499746885233 -15.630711948635547,-25.36481556137353 -14.204275959985633,-29.029464071197282 -11.865588826754394,-28.119148256708982"/></g><g fill-rule="nonzero" stroke="#99948A" stroke-width="0.3" stroke-linecap="butt"><line x1="23.906988758976464" y1="-16.151903062384964" x2="25.91842430970445" y2="-17.385506065942717"/><line x1="20.090723489407463" y1="-11.973355574976045" x2="27.775731175924385" y2="-16.686530978990643"/><line x1="19.975292465322987" y1="-10.064510559141114" x2="28.69824201362859" y2="-15.414250330210592"/><line x1="20.158205254409964" y1="-8.338638258433932" x2="29.517399497271555" y2="-14.07858360477918"/><line x1="20.46820681455157" y1="-6.69070884266518" x2="30.33655698091452" y2="-12.74291687934777"/><line x1="20.778208374693182" y1="-5.042779426896428" x2="31.155714464557484" y2="-11.40725015391636"/><line x1="21.088209934834794" y1="-3.3948500111276747" x2="31.974871948200448" y2="-10.07158342848495"/><line x1="21.3982114949764" y1="-1.7469205953589233" x2="32.79402943184341" y2="-8.735916703053539"/><line x1="21.708213055118012" y1="-0.09899117959017101" x2="33.61318691548638" y2="-7.400249977622127"/><line x1="22.018214615259623" y1="1.5489382361785822" x2="34.43234439912934" y2="-6.064583252190716"/><line x1="22.32821617540123" y1="3.1968676519473354" x2="35.2515018827723" y2="-4.728916526759306"/><line x1="22.638217735542842" y1="4.844797067716087" x2="36.07065936641527" y2="-3.3932498013278947"/><line x1="22.948219295684453" y1="6.492726483484841" x2="36.88981685005824" y2="-2.0575830758964813"/><line x1="37.7089743337012" y1="-0.7219163504650734" x2="23.521859191364207" y2="7.978967873775911"/><line x1="38.003487326678204" y1="0.9355121233113572" x2="24.341332574987412" y2="9.31444085938588"/><line x1="37.94235032376654" y1="2.811058897216654" x2="25.87029215305282" y2="10.214789637247854"/><line x1="34.58852476825798" y1="6.7059945035375215" x2="27.399251731118227" y2="11.115138415109826"/><line x1="31.23469921274944" y1="10.600930109858385" x2="28.928211309183638" y2="12.015487192971797"/><path d="M 30.464358931439154,7.173806312030808 L 31.197772603507058,8.369664565563562 L 29.19658673808173,9.596981490220948 L 29.722251938498648,10.45409813864814 L 28.77106508277053,11.037456109897175 L 28.245399882353613,10.180339461469982 L 27.51198621028571,8.984481207937229 L 26.81854607182692,7.853801286783448 L 27.769732927555037,7.270443315534415 L 28.463173066013827,8.401123236688194 Z" fill="#99948A" stroke="#1A1917" stroke-width="0.3"/></g><g fill-rule="nonzero" stroke="#99948A" stroke-width="0.3" stroke-linecap="butt"><line x1="35.23841084422206" y1="27.739532798772668" x2="17.00276999631192" y2="35.99662731468965"/><line x1="14.741293657835913" y1="35.34586889368807" x2="36.079987989867604" y2="25.683712382964714"/><line x1="14.046376573237147" y1="33.98577275694994" x2="35.20799880581784" y2="24.403794457318433"/><line x1="13.351459488638385" y1="32.62567662021181" x2="34.33600962176807" y2="23.123876531672146"/><line x1="12.656542404039621" y1="31.265580483473684" x2="33.464020437718304" y2="21.843958606025865"/><line x1="11.961625319440857" y1="29.90548434673556" x2="32.59203125366854" y2="20.564040680379577"/><line x1="11.266708234842094" y1="28.54538820999743" x2="31.720042069618763" y2="19.284122754733296"/><line x1="10.849868307585037" y1="27.059378792226948" x2="30.848052885569" y2="18.00420482908701"/><line x1="10.557028403574504" y1="25.517222188818085" x2="29.97606370151923" y2="16.724286903440724"/><line x1="10.545119201582622" y1="23.84786021991987" x2="28.981768403935554" y2="15.499749161454927"/><line x1="10.533209999590742" y1="22.17849825102165" x2="27.79200746422797" y2="14.363718222991553"/><line x1="10.521300797598862" y1="20.509136282123443" x2="26.18423828389185" y2="13.416961331987698"/><line x1="10.509391595606981" y1="18.839774313225227" x2="24.576469103555723" y2="12.470204440983842"/><line x1="10.4974823936151" y1="17.170412344327016" x2="22.968699923219603" y2="11.523447549979988"/><line x1="10.485573191623219" y1="15.5010503754288" x2="20.164976445203813" y2="11.11821852492935"/><line x1="10.473663989631337" y1="13.831688406530585" x2="16.279848765001695" y2="11.202649105583525"/><line x1="11.277135581227236" y1="11.793122177948279" x2="12.394721084799587" y2="11.287079686237705"/></g><g fill-rule="nonzero" stroke="#99948A" stroke-width="0.3" stroke-linecap="butt"><line x1="-15.381523239674124" y1="-31.323757651839635" x2="-19.488879152490856" y2="-26.790505692414616"/><line x1="-14.39728625905286" y1="-34.879300664641704" x2="-20.732743157091807" y2="-27.886913589718805"/><line x1="-15.155854651991337" y1="-36.51132498505751" x2="-21.961383364392482" y2="-29.000123855847683"/><line x1="-16.3950720229814" y1="-37.612861330289874" x2="-23.190023571693153" y2="-30.11333412197656"/><line x1="-17.634289393971457" y1="-38.71439767552223" x2="-24.418663778993825" y2="-31.226544388105438"/><line x1="-18.873506764961515" y1="-39.81593402075459" x2="-25.647303986294492" y2="-32.33975465423432"/><line x1="-20.112724135951574" y1="-40.917470365986944" x2="-26.875944193595164" y2="-33.45296492036319"/><line x1="-21.351941506941635" y1="-42.019006711219305" x2="-28.104584400895835" y2="-34.566175186492075"/><line x1="-22.591158877931694" y1="-43.12054305645166" x2="-29.333224608196502" y2="-35.67938545262095"/><line x1="-23.906265766443113" y1="-44.13832082042009" x2="-30.561864815497177" y2="-36.79259571874983"/><line x1="-25.28065451486517" y1="-45.09066972618812" x2="-31.790505022797845" y2="-37.905805984878704"/><line x1="-26.72701156117192" y1="-45.96358786570961" x2="-33.019145230098516" y2="-39.019016251007585"/><line x1="-28.17336860747868" y1="-46.83650600523111" x2="-34.109174494475276" y2="-40.2852101742495"/><line x1="-29.61972565378543" y1="-47.7094241447526" x2="-35.0213110525293" y2="-41.74774268528911"/><line x1="-34.51059025453616" y1="-44.78067012537682" x2="-31.066082700092178" y2="-48.58234228427409"/><line x1="-33.53607271348068" y1="-48.325485879720816" x2="-32.83463144831711" y2="-49.099660326060345"/><line x1="-24.400554233886186" y1="-12.381918675198552" x2="-39.56063860342728" y2="-20.130716931521814"/><line x1="-22.387726626549657" y1="-13.324160750518788" x2="-40.59936405036408" y2="-22.632704217333053"/><line x1="-21.747818396543433" y1="-14.968145310762383" x2="-40.1242536835243" y2="-24.360922173883832"/><line x1="-21.10791016653721" y1="-16.612129871005976" x2="-39.64914331668452" y2="-26.08914013043461"/><line x1="-20.468001936530985" y1="-18.25611443124957" x2="-39.174032949844744" y2="-27.817358086985386"/><line x1="-19.828093706524758" y1="-19.900098991493163" x2="-38.69892258300496" y2="-29.54557604353617"/><line x1="-19.188185476518534" y1="-21.544083551736758" x2="-38.22381221616518" y2="-31.273794000086944"/><line x1="-37.7487018493254" y1="-33.00201195663773" x2="-19.859249731050742" y2="-23.858147582163845"/><line x1="-37.273591482485614" y1="-34.73022991318851" x2="-23.486728098676217" y2="-27.683328303374896"/><line x1="-36.798481115645835" y1="-36.45844786973929" x2="-28.47778101152295" y2="-32.20547507047459"/><line x1="-34.86029117659761" y1="-37.43883961624807" x2="-33.46883392436969" y2="-36.72762183757429"/><path d="M -26.49977620889411,-19.638567890423865 L -25.385487169952096,-18.628965575430136 L -26.072749773755376,-17.87043999073246 L -25.431300326249985,-17.289254297864318 L -24.564283644169397,-16.503693264079175 L -25.339722103573518,-15.64784877674412 L -26.206738785654107,-16.433409810529263 L -27.104249929130894,-15.442834794354988 L -27.745699376636285,-16.02402048722313 L -28.8599884155783,-17.033622802216858 L -27.962477272101513,-18.024197818391134 L -27.18703881269739,-18.88004230572619 Z" fill="#99948A" stroke="#1A1917" stroke-width="0.3"/></g><g fill-rule="nonzero" stroke="#99948A" stroke-width="0.3" stroke-linecap="butt"><line x1="-42.92568645541246" y1="-18.781249930353724" x2="-35.585619483195664" y2="-15.515929472287109"/><line x1="-44.495352106883075" y1="-17.81393262674161" x2="-25.33298184592091" y2="-9.28931290937277"/><line x1="-44.893642871452926" y1="-16.32551457612808" x2="-24.85502316772737" y2="-7.41108435121824"/><line x1="-45.22216706784687" y1="-14.806059996390749" x2="-25.473574399024574" y2="-6.020651919922695"/><line x1="-45.50524367765812" y1="-13.266387490195797" x2="-26.09212563032178" y2="-4.63021948862715"/><line x1="-45.788320287469375" y1="-11.726714984000857" x2="-26.710676861618985" y2="-3.239787057331603"/><line x1="-46.07139689728062" y1="-10.18704247780591" x2="-27.32922809291619" y2="-1.8493546260360587"/><line x1="-46.35447350709187" y1="-8.647369971610965" x2="-27.947779324213396" y2="-0.45892219474051266"/><line x1="-46.637550116903114" y1="-7.107697465416022" x2="-28.5663305555106" y2="0.9315102365550312"/><line x1="-46.92062672671437" y1="-5.568024959221077" x2="-29.184881786807807" y2="2.321942667850576"/><line x1="-47.20370333652562" y1="-4.028352453026134" x2="-29.80343301810501" y2="3.7123750991461204"/><line x1="-47.48677994633687" y1="-2.4886799468311844" x2="-30.421984249402215" y2="5.102807530441667"/><line x1="-47.76985655614811" y1="-0.9490074406362403" x2="-31.040535480699422" y2="6.493239961737213"/><line x1="-48.05293316595937" y1="0.5906650655587065" x2="-31.714636873900755" y2="7.858960209778705"/><line x1="-48.33600977577062" y1="2.130337571753656" x2="-32.63808842000361" y2="9.113753928324856"/><line x1="-48.46564003241055" y1="3.7382726044517725" x2="-34.233236748395726" y2="10.069734944871335"/><line x1="-48.151704494711566" y1="5.5435334201755495" x2="-36.503226817661925" y2="10.725504185316279"/><line x1="-42.26106098274964" y1="9.82966242224565" x2="-38.84366433795985" y2="11.349933997395894"/><path d="M -46.048685940620175,3.028756374361432 L -45.6552550270001,0.8888594708628181 L -45.42242142947957,-0.3775379501740397 L -43.92356304411708,-0.1019652237608466 L -43.03516884657482,0.061370561352151576 L -41.87268338870446,0.27509941670598836 L -42.10551698622499,1.5414968377428462 L -43.26800244409535,1.3277679823890094 L -44.15639664163761,1.1644321972760112 L -44.549827555257686,3.304329100774625 Z" fill="#99948A" stroke="#1A1917" stroke-width="0.3"/></g><g fill-rule="nonzero" stroke="#99948A" stroke-width="0.3" stroke-linecap="butt"><line x1="-17.759788615727718" y1="38.10920516202813" x2="-16.376050872322445" y2="32.86072205583065"/><line x1="-16.815791666825323" y1="41.18030192240723" x2="-12.208033041451502" y2="23.703187188804666"/><line x1="-15.69693201299211" y1="43.588148759087034" x2="-10.324970912055367" y2="23.21243289834042"/><line x1="-8.685267680067703" y1="23.644732898964556" x2="-14.570794302931617" y2="45.96839010813966"/><line x1="-7.045564448080038" y1="24.07703289958869" x2="-12.890677525813896" y2="46.24740252960543"/><line x1="-5.405861216092375" y1="24.50933290021283" x2="-11.186940646058416" y2="46.43682448477673"/><line x1="-3.7661579841047095" y1="24.941632900836964" x2="-9.370408282843227" y2="46.19841595529509"/><line x1="-2.1264547521170454" y1="25.373932901461103" x2="-7.553875919628043" y2="45.96000742581346"/><line x1="-0.4867515201293821" y1="25.806232902085238" x2="-5.737343556412858" y2="45.72159889633183"/><line x1="1.152951711858284" y1="26.238532902709373" x2="-3.920811193197671" y2="45.483190366850195"/><line x1="2.792654943845944" y1="26.67083290333351" x2="-2.104278829982489" y2="45.24478183736856"/><line x1="4.432358175833611" y1="27.103132903957647" x2="-0.28774646676730153" y2="45.00637330788693"/><line x1="6.072061407821275" y1="27.535432904581782" x2="1.5287858964478849" y2="44.76796477840529"/><line x1="7.637631188508199" y1="28.24891925616759" x2="3.345318259663074" y2="44.52955624892366"/><line x1="9.1554513474358" y1="29.14351874449155" x2="5.161850622878259" y2="44.29114771944203"/><line x1="10.370404058929356" y1="31.18688698531255" x2="6.978382986093444" y2="44.05273918996039"/><line x1="11.52717688142501" y1="33.45093010905934" x2="8.794915349308633" y2="43.81433066047876"/><line x1="12.68394970392066" y1="35.71497323280613" x2="10.640451075981625" y2="43.46591308928623"/><line x1="13.761679644897066" y1="38.27882405515481" x2="12.544210256787657" y2="42.89665539368565"/><path d="M -8.942614720713262,30.411968334007994 L -9.861096270694958,30.532513302058867 L -9.992793799989974,29.52905581402337 L -10.17914954688099,28.109134949469137 L -10.32600749285707,26.990164029087655 L -9.407525942875374,26.869619061036783 L -8.312725887450757,26.72593339015327 L -6.871170124864213,26.536738197992896 L -6.724312178888132,27.655709118374375 L -8.165867941474676,27.844904310534748 L -7.979512194583662,29.264825175088983 L -9.074312250008278,29.408510845972497 Z" fill="#99948A" stroke="#1A1917" stroke-width="0.3"/></g><g fill-rule="nonzero" stroke="#99948A" stroke-width="0.3" stroke-linecap="butt"><line x1="66.65246981060069" y1="18.702653348822672" x2="65.584214242247" y2="20.331410128357252"/><line x1="66.40716155231982" y1="15.959911466761488" x2="62.29719522412373" y2="22.226329090986628"/><line x1="65.8815671158178" y1="13.644518644711395" x2="60.69464854514943" y2="21.552952765854926"/><line x1="65.35597267931577" y1="11.329125822661306" x2="59.22609947342299" y2="20.675271855086727"/><line x1="64.83037824281374" y1="9.01373300061121" x2="57.796760028744586" y2="19.737808484231813"/><line x1="64.30478380631172" y1="6.698340178561114" x2="56.36742058406619" y2="18.8003451133769"/><line x1="63.779189369809686" y1="4.382947356511034" x2="54.93808113938778" y2="17.862881742521985"/><line x1="62.594279034781735" y1="3.072805779005334" x2="53.508741694709386" y2="16.925418371667075"/><line x1="61.139908388612426" y1="2.1735071885044768" x2="52.07940225003098" y2="15.98795500081216"/><line x1="59.12275741487485" y1="2.132273185795219" x2="50.650062805352576" y2="15.050491629957246"/><line x1="57.044725505572" y1="2.1838636339794704" x2="49.220723360674185" y2="14.113028259102338"/><line x1="54.96669359626914" y1="2.23545408216372" x2="47.79138391599578" y2="13.175564888247424"/><line x1="52.888661686966294" y1="2.2870445303479716" x2="46.36204447131738" y2="12.238101517392511"/><line x1="50.81062977766344" y1="2.338634978532223" x2="44.932705026638985" y2="11.300638146537601"/><line x1="48.732597868360585" y1="2.390225426716473" x2="43.50336558196058" y2="10.363174775682687"/><line x1="46.654565959057734" y1="2.441815874900726" x2="42.07402613728218" y2="9.425711404827775"/><line x1="44.57653404975488" y1="2.493406323084976" x2="40.644686692603784" y2="8.488248033972864"/><line x1="42.44246437165915" y1="2.630436902390712" x2="39.30418000848112" y2="7.41534239135624"/><line x1="39.31510447713459" y1="4.281925465329594" x2="38.0327683659938" y2="6.237088346325725"/><line x1="50.07098714259125" y1="34.39159835086531" x2="39.659416256777995" y2="26.0708947422278"/><line x1="51.8582103826472" y1="34.16434075846564" x2="36.81107878708302" y2="22.138996692715214"/><line x1="52.77442331103005" y1="33.240990451240975" x2="34.33503914905478" y2="18.50463106606288"/><line x1="53.69063623941291" y1="32.317640144016295" x2="31.976841615931225" y2="14.964442316107029"/><line x1="54.60684916779577" y1="31.39428983679162" x2="31.71939850029558" y2="13.103131331491138"/><line x1="55.523062096178634" y1="30.470939529566945" x2="32.56385215644186" y2="12.122432556681646"/><line x1="56.43927502456149" y1="29.547589222342268" x2="33.40830581258815" y2="11.141733781872155"/><line x1="57.355487952944344" y1="28.624238915117587" x2="34.252759468734425" y2="10.161035007062665"/><line x1="58.271700881327206" y1="27.700888607892917" x2="35.09721312488071" y2="9.180336232253174"/><line x1="59.18791380971007" y1="26.777538300668237" x2="36.89907682826852" y2="8.964778983386058"/><line x1="60.10412673809293" y1="25.85418799344356" x2="44.673935905349836" y2="13.522711220912107"/><line x1="56.22655320714452" y1="21.099746611811856" x2="59.26217652569447" y2="23.525751503690365"/><path d="M 33.84993719749236,12.922053907622834 L 34.71736608302323,13.490976013588819 L 35.69608617475576,14.132890878343323 L 36.82888037398801,14.875858598468119 L 36.0827395299957,16.013490822574397 L 35.40974356142989,17.03959991001897 L 34.70319331490983,18.116868812885436 L 33.57039911567759,17.37390109276064 L 34.27694936219765,16.296632189894176 L 33.298229270465114,15.654717325139671 L 32.430800384934244,15.085795219173685 L 33.10379635350005,14.05968613172911 Z" fill="#99948A" stroke="#1A1917" stroke-width="0.3"/></g><g fill-rule="nonzero" stroke="#99948A" stroke-width="0.3" stroke-linecap="butt"><line x1="53.42364723115554" y1="47.071161082864556" x2="49.147029793899975" y2="49.40361461065819"/><line x1="53.71905343734328" y1="45.2253383094029" x2="39.80494345220537" y2="52.81404957410986"/><line x1="53.00544780892014" y1="43.929827376491076" x2="38.195975622643736" y2="52.006866333664895"/><line x1="52.29184218049699" y1="42.63431644357926" x2="37.408309151698624" y2="50.75174794835551"/><line x1="51.578236552073854" y1="41.338805510667434" x2="36.70012804874272" y2="49.453278496532825"/><line x1="50.864630923650715" y1="40.04329457775562" x2="35.99194694578682" y2="48.154809044710134"/><line x1="50.15102529522757" y1="38.7477836448438" x2="35.28376584283092" y2="46.85633959288745"/><line x1="49.16469144960951" y1="37.60101781285768" x2="34.57558473987502" y2="45.55787014106477"/><line x1="48.07637609781183" y1="36.50987236949604" x2="33.867403636919114" y2="44.259400689242085"/><line x1="46.82340859904018" y1="35.50852768262072" x2="33.15922253396322" y2="42.960931237419395"/><line x1="45.570441100268525" y1="34.50718299574542" x2="32.45104143100731" y2="41.66246178559671"/><line x1="44.31747360149688" y1="33.5058383088701" x2="31.742860328051407" y2="40.36399233377402"/><line x1="43.06450610272523" y1="32.5044936219948" x2="31.03467922509551" y2="39.06552288195134"/><line x1="41.81153860395358" y1="31.503148935119484" x2="30.326498122139604" y2="37.76705343012865"/><line x1="40.55857110518193" y1="30.501804248244177" x2="29.6183170191837" y2="36.46858397830596"/><line x1="39.09860692151458" y1="29.61335489395592" x2="29.117851803953698" y2="35.05682694296353"/><line x1="32.75080667926963" y1="31.390715756590502" x2="29.070111879159374" y2="33.39815497630199"/><line x1="34.15541105344489" y1="48.96446560559351" x2="36.1519744034993" y2="53.317300719861095"/><line x1="35.65268960866904" y1="55.59321388095631" x2="26.61893784547478" y2="35.89815542596823"/><line x1="34.37772427732" y1="56.17801642604188" x2="24.68371682349301" y2="35.043492424166544"/><line x1="33.10275894597096" y1="56.76281897112744" x2="23.405903561020313" y2="35.622086012948394"/><line x1="31.827793614621918" y1="57.347621516213" x2="22.128090298547612" y2="36.20067960173025"/><line x1="30.552828283272877" y1="57.93242406129856" x2="20.850277036074917" y2="36.7792731905121"/><line x1="29.277862951923836" y1="58.51722660638413" x2="19.572463773602216" y2="37.35786677929396"/><line x1="28.00289762057479" y1="59.102029151469694" x2="18.294650511129518" y2="37.936460368075814"/><line x1="26.727932289225755" y1="59.68683169655525" x2="17.01683724865682" y2="38.51505395685767"/><line x1="25.452966957876715" y1="60.27163424164081" x2="15.898404496570755" y2="39.44112316274024"/><line x1="24.178001626527674" y1="60.85643678672638" x2="15.278956895349404" y2="41.45506172479567"/><line x1="22.866810688644915" y1="61.36226157628453" x2="14.700167455911224" y2="43.55764173881731"/><line x1="21.19455733875619" y1="61.080911170335405" x2="18.815215904986935" y2="55.89355713949021"/></g><g id="labels" style="font: bold italic 1px &quot;Archivo Narrow&quot;, sans-serif" fill="#1A1917"><text text-anchor="middle" stroke="#CCC5B8" stroke-width="0.52044109210855" x="-0.425381836918051" y="0.9666971905004521">Merchant</text><text text-anchor="middle" x="-0.425381836918051" y="0.9666971905004521">Merchant</text><text text-anchor="middle" stroke="#CCC5B8" stroke-width="0.52044109210855" x="-13.513008671269462" y="-2.156780966316882">Craftsmen</text><text text-anchor="middle" x="-13.513008671269462" y="-2.156780966316882">Craftsmen</text><text text-anchor="middle" stroke="#CCC5B8" stroke-width="0.52044109210855" x="0.041584930681367455" y="17.07715833721294">Craftsmen</text><text text-anchor="middle" x="0.041584930681367455" y="17.07715833721294">Craftsmen</text><text text-anchor="middle" stroke="#CCC5B8" stroke-width="0.52044109210855" x="11.079900796729905" y="-11.378209229650063">Craftsmen</text><text text-anchor="middle" x="11.079900796729905" y="-11.378209229650063">Craftsmen</text></g></g></svg>