<svg width="109.52461665818647" height="115.83042884312937" xmlns="http://www.w3.org/2000/svg"><rect x="0" y="0" width="109.52461665818647" height="115.83042884312937" id="background" fill="#CCC5B8"/><g id="map" transform="translate(54.76230832909324 57.915214421564684)"><g fill="none"><path d="M 11.61816642326978,-20.32625193097668 L 13.622077064855784,-34.01142498116396 L 11.935669011318598,-46.36267868463724 C 11.409297142184483,-50.21782660355907 15.046578078417557,-56.57965695330783 21.01265766941493,-58.811267871851314 C 28.03501032032674,-61.43797752441525 35.91366986907651,-61.55813304145807 40.126985885420495,-65.96097864872863 C 43.14813199467665,-69.11802640504746 47.25870414375461,-72.86745222017493 51.59532266906167,-77.9452010604072 C 57.627981278550116,-85.00884409912207 63.3975258873155,-91.22570454029359 68.05722154843887,-97.22044684349343 C 72.76110491831854,-103.27203704969537 74.89427826582497,-111.8258205717456 80.77258367110842,-113.57887983156017 C 86.06395899105952,-115.15690170389385 86.06395899105952,-115.15690170389385 96.66259964693755,-118.31768425298264" stroke="#67635C" stroke-width="2.3" stroke-linejoin="round" stroke-linecap="butt"/><path d="M 11.61816642326978,-20.32625193097668 L 13.622077064855784,-34.01142498116396 L 11.935669011318598,-46.36267868463724 C 11.409297142184483,-50.21782660355907 15.046578078417557,-56.57965695330783 21.01265766941493,-58.811267871851314 C 28.03501032032674,-61.43797752441525 35.91366986907651,-61.55813304145807 40.126985885420495,-65.96097864872863 C 43.14813199467665,-69.11802640504746 47.25870414375461,-72.86745222017493 51.59532266906167,-77.9452010604072 C 57.627981278550116,-85.00884409912207 63.3975258873155,-91.22570454029359 68.05722154843887,-97.22044684349343 C 72.76110491831854,-103.27203704969537 74.89427826582497,-111.8258205717456 80.77258367110842,-113.57887983156017 C 86.06395899105952,-115.15690170389385 86.06395899105952,-115.15690170389385 96.66259964693755,-118.31768425298264" stroke="#CCC5B8" stroke-width="1.7" stroke-linejoin="round" stroke-linecap="round"/></g><g fill="none"><path d="M -11.794360839358001,-25.561043376791122 L -16.209423803344286,-43.12826743364783 C -17.383123532460974,-47.79833585284172 -19.101834422527556,-53.91065671717379 -21.77691380107506,-61.24625466957265 C -22.978225538192287,-64.54048959570584 -24.278563385637042,-67.87151934765174 -26.272171196868072,-70.72231558317239 C -29.51762754268535,-75.36321570459066 -33.373939441522005,-80.46595586270445 -38.476302632748556,-85.1258535298088 C -42.75503917504222,-89.03354760887245 -48.56785799310364,-90.84015167864571 -52.52621309779333,-94.69966568959866 C -55.53031830564943,-97.62875765670408 -59.201481193280195,-102.30630549827482 -62.76450541177635,-108.80757395339182 C -67.54823237277816,-117.53619640507425 -76.99699597655169,-129.29130200646492 -81.33327834274891,-147.26244749425715 C -86.81430236067865,-169.97782249292922 -86.81430236067865,-169.97782249292922 -88.8771096765971,-217.02778903126165" stroke="#67635C" stroke-width="2.3" stroke-linejoin="round" stroke-linecap="butt"/><path d="M -11.794360839358001,-25.561043376791122 L -16.209423803344286,-43.12826743364783 C -17.383123532460974,-47.79833585284172 -19.101834422527556,-53.91065671717379 -21.77691380107506,-61.24625466957265 C -22.978225538192287,-64.54048959570584 -24.278563385637042,-67.87151934765174 -26.272171196868072,-70.72231558317239 C -29.51762754268535,-75.36321570459066 -33.373939441522005,-80.46595586270445 -38.476302632748556,-85.1258535298088 C -42.75503917504222,-89.03354760887245 -48.56785799310364,-90.84015167864571 -52.52621309779333,-94.69966568959866 C -55.53031830564943,-97.62875765670408 -59.201481193280195,-102.30630549827482 -62.76450541177635,-108.80757395339182 C -67.54823237277816,-117.53619640507425 -76.99699597655169,-129.29130200646492 -81.33327834274891,-147.26244749425715 C -86.81430236067865,-169.97782249292922 -86.81430236067865,-169.97782249292922 -88.8771096765971,-217.02778903126165" stroke="#CCC5B8" stroke-width="1.7" stroke-linejoin="round" stroke-linecap="round"/></g><g fill="none"><polyline points="-123.90426244848857,-42.47981112444192 -104.97342442988305,-37.232866288144805 -88.64239689114378,-24.43769832944964 -72.52928112804517,-19.562253950207925 -58.40764790770514,-2.786441323488528 -43.735256940911036,2.0560137318590033 -29.026482905896955,16.7688437893272 -18.398271346907443,14.163095447853973 -6.051900271046562,10.028970840318069 9.857902782156353,3.467005314676631 23.45830810437582,8.811256755734941 37.11408703661708,15.660163096623242 47.48775691968636,17.47736886619894 65.61035668371053,25.798551964691942 76.29241895587425,25.521007705170327 104.03080840576835,22.71697211399648 118.37536077239876,22.720332740370463 151.51629408773397,16.12690629867162 159.50111056216718,15.043717287310637" stroke="#99948A" stroke-width="3.914738628601068" stroke-linejoin="round" stroke-linecap="butt"/><polyline points="-123.90426244848857,-42.47981112444192 -104.97342442988305,-37.232866288144805 -88.64239689114378,-24.43769832944964 -72.52928112804517,-19.562253950207925 -58.40764790770514,-2.786441323488528 -43.735256940911036,2.0560137318590033 -29.026482905896955,16.7688437893272 -18.398271346907443,14.163095447853973 -6.051900271046562,10.028970840318069 9.857902782156353,3.467005314676631 23.45830810437582,8.811256755734941 37.11408703661708,15.660163096623242 47.48775691968636,17.47736886619894 65.61035668371053,25.798551964691942 76.29241895587425,25.521007705170327 104.03080840576835,22.71697211399648 118.37536077239876,22.720332740370463 151.51629408773397,16.12690629867162 159.50111056216718,15.043717287310637" stroke="#67635C" stroke-width="3.314738628601068" stroke-linejoin="round" stroke-linecap="round"/><polyline points="-123.90426244848857,-42.47981112444192 -104.97342442988305,-37.232866288144805 -88.64239689114378,-24.43769832944964 -72.52928112804517,-19.562253950207925 -58.40764790770514,-2.786441323488528 -43.735256940911036,2.0560137318590033 -29.026482905896955,16.7688437893272 -18.398271346907443,14.163095447853973 -6.051900271046562,10.028970840318069 9.857902782156353,3.467005314676631 23.45830810437582,8.811256755734941 37.11408703661708,15.660163096623242 47.48775691968636,17.47736886619894 65.61035668371053,25.798551964691942 76.29241895587425,25.521007705170327 104.03080840576835,22.71697211399648 118.37536077239876,22.720332740370463 151.51629408773397,16.12690629867162 159.50111056216718,15.043717287310637" stroke="#CCC5B8" stroke-width="2.348843177160641" stroke-linejoin="round" stroke-linecap="butt"/><polyline points="-123.90426244848857,-42.47981112444192 -104.97342442988305,-37.232866288144805 -88.64239689114378,-24.43769832944964 -72.52928112804517,-19.562253950207925 -58.40764790770514,-2.786441323488528 -43.735256940911036,2.0560137318590033 -29.026482905896955,16.7688437893272 -18.398271346907443,14.163095447853973 -6.051900271046562,10.028970840318069 9.857902782156353,3.467005314676631 23.45830810437582,8.811256755734941 37.11408703661708,15.660163096623242 47.48775691968636,17.47736886619894 65.61035668371053,25.798551964691942 76.29241895587425,25.521007705170327 104.03080840576835,22.71697211399648 118.37536077239876,22.720332740370463 151.51629408773397,16.12690629867162 159.50111056216718,15.043717287310637" stroke="#67635C" stroke-width="2.048843177160641" stroke-linejoin="round" stroke-linecap="round"/><g fill="none"><line x1="8.839207409101922" y1="1.2307308047420014" x2="9.878518403414164" y2="5.924288152085876" stroke="#1A1917" stroke-width="2.3" stroke-linejoin="round" stroke-linecap="butt"/><line x1="8.839207409101922" y1="1.2307308047420014" x2="9.878518403414164" y2="5.924288152085876" stroke="#CCC5B8" stroke-width="1.7" stroke-linejoin="round" stroke-linecap="round"/></g></g><g fill="#898A95" stroke="#171C2E" stroke-width="0.3"><polygon points="-5.900986679753633,-1.7701083677809164 -2.1650549428281907,-1.8812621277529475 -0.23549858914088517,-1.9386714860852747 -0.10870650837003026,2.3228717910998 -0.04828249549572394,4.353752144821648 -1.9561348944219406,5.140641940245345 -5.650044280845,6.664187264313431 -5.7310359650914595,3.942017508836619"/><polygon points="7.7060643012791274,1.155487767560177 -0.048282495495723804,4.353752144821648 -0.16300729180354423,0.49779614615331536 6.209227494377907,-2.1304189768363972"/><polygon points="4.149360375551344,-2.069132531734283 0.5784759155130397,-1.962889360790907 0.4325857430123539,-6.866328755805372 4.003470203050659,-6.972571926748748"/><polygon points="0.5784759155130397,-1.962889360790907 -2.0309881602869697,-1.88525096588388 -5.900986679753633,-1.7701083677809164 -6.0365259377008975,-6.325648508680576 -6.103571721309202,-8.579089785631773 -2.23357320184254,-8.694232383734736 0.37589087395746934,-8.771870778641762 0.44293665756577394,-6.518429501690566"/></g><g fill="#A3997C" stroke="#302A14" stroke-width="0.3"><polygon points="17.038020907467008,13.48899422561962 14.561313036229093,10.504237689155351 16.206429674901745,9.139143659432035 18.68313754613966,12.123900195896303"/><polygon points="13.824421378513737,9.616186975716722 15.739331166556056,11.923903429874864 17.038020907467008,13.48899422561962 14.747188186554833,15.389894135631586 13.32723279499301,16.568152614044664 12.028543054082057,15.003061818299907 13.448498445643882,13.824803339886829 11.53358865760156,11.517086885728688"/><polygon points="10.113633266039738,12.695345364141765 6.321065326333873,8.12480554413305 9.884648891575424,6.6550128367902746 12.946367336900245,10.34478353951302"/><polygon points="2.581426381249205,14.674536436893163 0.8876797269966374,12.633350451212898 6.321065326333873,8.12480554413305 8.01481198058644,10.165991529813315"/><polygon points="-0.5141416295864754,10.943972585697674 2.581426381249205,14.674536436893163 -1.1976486621010967,17.810358334431204 -4.151273045051051,12.444099952497554"/><polygon points="8.01481198058644,10.165991529813315 13.32723279499301,16.568152614044664 11.542027379886923,18.04949028743742 6.22960656548035,11.647329203206073"/><polygon points="6.834311679060953,21.955884792095397 4.37489869371076,18.991970852491363 1.5218908646543836,15.553723707864046 3.92317710657833,13.561171061170297 6.22960656548035,11.647329203206073 9.082614394536728,15.085576347833385 11.542027379886923,18.04949028743742 9.235597920984901,19.963332145401644"/><polygon points="1.5218908646543836,15.553723707864046 3.081536269985843,17.433300169904676 3.864068138091365,18.376353299199305 2.049897744829451,19.88172569318396 0.603186829166479,21.082185519120983 0.001519663698502649,19.98905347143586 -1.1976486621010967,17.810358334431204 0.008892498463632936,16.80918790299526"/><polygon points="3.864068138091365,18.376353299199305 5.039708362218478,19.793153352303605 6.834311679060953,21.955884792095397 5.151244806317772,23.352469378013 2.8869251469058312,25.231369132465872 1.507104164792884,22.724457301166506 0.603186829166479,21.082185519120983 2.4737099194847607,19.53005247090544"/></g><g fill="#899E83" stroke="#17301B" stroke-width="0.3"><polygon points="-20.316886143703744,-1.6391409607003482 -19.818186448783486,0.06692281596474392 -19.25897723826652,1.9799911161028108 -20.52569078122235,1.7519583453896286 -21.853612439088785,1.5129069382129678 -22.265211551563045,0.20450012949237217 -21.012836022897577,0.1340887305386691 -21.447269467190647,-1.3087184839581276"/><polygon points="-24.65687845409714,-7.398220976139255 -23.270587733595672,-7.81642968094456 -22.17421577223925,-8.14717725875267 -21.634252964291655,-6.357292396307854 -21.1926303258419,-4.893388468408309 -22.27206519358991,-4.567750381615603 -23.63694006570307,-4.156002294402504 -24.095817979787835,-5.614700743849617"/><polygon points="-21.1926303258419,-4.893388468408309 -20.902270621637125,-3.9308954382022003 -20.392824384634206,-2.2421678176704205 -21.626438320461705,-1.8815699889953912 -22.812393723647553,-1.5349032313704702 -23.337598663436346,-3.204444535923989 -23.63694006570307,-4.156002294402504 -22.43885811933891,-4.517433191709763"/><polygon points="-7.393842163703001,-12.606040621214241 -7.295880922935895,-9.31351584776068 -7.213685766367619,-6.5508968043540925 -10.835065548239712,-6.555972240189293 -12.76784667706717,-6.558681071406597 -13.38440854715481,-8.392085519563 -14.1192348839512,-10.5771604323426 -11.77887918618801,-11.283186311814122"/><polygon points="-17.443830765105865,4.491088438972024 -20.604001857248253,5.485216265366104 -21.125213558445225,3.8283688185106177 -17.965042466302837,2.834240992116537"/><polygon points="-15.258932681109886,6.566753356046796 -14.337575919480702,6.276912594877452 -13.121003111863178,5.894202657464842 -12.664617112943505,7.344979712841976 -13.877864050615669,7.738262051286437 -13.367733161840267,9.359885392989252 -14.283776057508312,9.666618072030786 -14.796702004703477,8.036109693027464"/><polygon points="-17.298488299346072,7.208357539633073 -16.44665200921473,6.9403865548792805 -15.258932681109886,6.566753356046796 -14.809414917397191,7.995697405869855 -15.99397655852846,8.379368379349614 -15.46464529065337,10.06202661151425 -16.311568669678934,10.345614943698159 -16.84354814495976,8.654538489784349"/><polygon points="-17.016882666610872,8.103536163877187 -16.73414569254328,9.002311138690164 -16.311568669678934,10.345614943698159 -17.285660020795536,10.671784876538789 -17.711622504919077,9.317719239379203 -19.242932231520662,9.811835812088622 -19.531482894939245,8.894580061928739 -17.996624616512985,8.411743759821933"/><polygon points="-17.016882666610872,8.103536163877187 -18.641112771306553,8.614487089148229 -19.531482894939245,8.894580061928739 -20.104781601080365,7.072156475938475 -20.604001857248253,5.485216265366104 -19.713631733615564,5.205123292585593 -18.08940162891988,4.694172367314551 -17.590181372751992,6.281112577886923"/><polygon points="-12.158176859772897,8.9548711226541 -12.384469547765425,8.23552337685053 -12.7739034975293,6.997576024741328 -11.948085889397866,6.737790006885852 -11.017811229730764,6.445143849953447 -10.63478311817534,7.662728081556592 -10.41221274136784,8.370243203938333 -11.337122101669502,8.679944777191652"/><polygon points="-11.017811229730764,6.445143849953447 -9.562865824970286,5.987446570096354 -8.965658640805314,7.885871329277945 -10.41221274136784,8.370243203938333"/><polygon points="-13.713804194790942,4.009784179356164 -12.142747153535607,3.5155604566445366 -10.502766522231928,2.999654724711191 -9.98201994901495,4.6550236051715945 -9.562865824970286,5.987446570096354 -11.202846456273965,6.5033523020297 -12.7739034975293,6.997576024741328 -13.193057621573963,5.665153059816568"/><polygon points="-8.965658640805314,7.885871329277945 -10.502766522231928,2.999654724711191 -8.330251030548146,2.316223973469526 -6.8056729927196695,7.162610237835931"/><polygon points="-11.180920756153165,1.2123824518420605 -8.394412025679726,-1.2535384664013853 -7.009514269069577,0.3114061597856437 -9.796022999543016,2.7773270780290895"/></g><g fill="#A3858E" stroke="#301626" stroke-width="0.3"><polygon points="-2.5143469174168023,-22.875889603973228 -3.0184476068236368,-20.621306731663452 -3.387343336360852,-18.971426041237343 -4.982465934907757,-19.328078445321353 -7.044852900119917,-19.789206179305253 -6.675957170582701,-21.439086869731362 -6.171856481175866,-23.693669742041138 -4.109469515963706,-23.232542008057237"/><polygon points="-6.171856481175866,-23.693669742041138 -7.044852900119917,-19.789206179305253 -8.90463374837886,-21.213501565897204 -8.246384393644256,-24.1575120623714"/><polygon points="-5.461072353744786,-19.43508973714542 -5.97633919482908,-17.130566416725497 -7.333947756089688,-17.434113214708116 -6.951829913561943,-19.768407231424256"/><polygon points="-3.9026101774451454,-16.66690272081742 -4.615173852058576,-13.479972232577191 -5.96989236183513,-14.151919897437356 -5.618278966767415,-17.050507967762762"/><polygon points="3.9288166814697387,-17.45883164295695 -0.7916067358642058,-18.51426798472796 -3.36110419389942,-19.088780217537423 -3.0418393274991464,-20.516687607156967 -2.514346917416802,-22.875889603973228 0.055150540618412514,-22.301377371163767 -0.4723418694639321,-19.942175374347507 4.2480815478700125,-18.886739032576497"/><polygon points="3.199692408457134,-14.197834123485496 2.275049902938385,-10.062384202944465 -0.18453787365958052,-11.282352964776916 0.5974256439821912,-14.779673223792503"/><polygon points="-4.090228466912025,-15.827782698065965 0.5974256439821912,-14.779673223792503 -0.18453787365958052,-11.282352964776916 -4.615173852058576,-13.479972232577191"/><polygon points="3.3709452009989223,-14.963759703460909 5.716614914861925,-14.439292967550834 4.347314562634379,-9.034529789643036 2.275049902938385,-10.062384202944465"/><polygon points="4.775573957952355,-21.245941029392757 7.386860953544696,-20.662085101591522 10.307869328504472,-20.00897877595363 8.508074651451317,-16.695234393928825 6.119526038279382,-17.229288394502404 5.137321489085082,-14.568816800491062 3.3709452009989223,-14.963759703460909 3.984240845198795,-17.706715394916625"/></g><g fill="#A3858E" stroke="#301626" stroke-width="0.3"><polygon points="14.963371547271276,-15.695664121513765 15.853490737262497,-17.538696823982203 19.228379859981153,-15.908745511560522 18.338260669989936,-14.065712809092084"/><polygon points="18.338260669989936,-14.065712809092084 19.228379859981153,-15.908745511560522 22.155662110502863,-14.49497238522356 21.329390377449997,-12.621103633792536"/><polygon points="14.460690128022105,-18.211369939579058 12.930722687275823,-15.043502019514156 10.519433306205,-16.208068957387006 12.200391341174452,-19.30301379516139"/><polygon points="12.930722687275823,-15.043502019514156 14.460690128022105,-18.211369939579058 15.853490737262497,-17.538696823982203 14.323523296516214,-14.370828903917301"/><polygon points="10.719341465761751,-11.751502626776372 8.643465768570541,-12.754076694849882 10.519433306205,-16.208068957387006 12.42680185011921,-15.286877846100838"/><polygon points="8.643465768570541,-12.754076694849882 10.124009112203082,-12.039026961865744 12.556315057249567,-10.864309771706347 11.894453514056163,-9.493895020145153 9.353588083348779,-10.563102344910806 8.043272780909454,-8.052881909055225 6.38426173851189,-8.594477403939456 7.806964638152227,-11.213928278576272"/><polygon points="14.68205788101279,-9.837651656587973 13.033312826533026,-6.423849226972581 10.768773819886718,-7.163123464844316 12.556315057249567,-10.864309771706347"/><polygon points="14.68205788101279,-9.837651656587973 19.15045210069684,-7.679576307160073 17.89666969662453,-4.83617313347939 13.033312826533026,-6.423849226972581"/><polygon points="12.635837301035291,-5.898831690509363 17.644281057230614,-4.263790991312854 14.783142758523539,2.2248705917969644 11.754650622238112,1.0348308040021783"/><polygon points="22.370950793675295,-2.3568123708709194 20.896115316817735,0.9879082616191588 19.52846976649897,4.089537129288588 17.521935461856298,3.301073580220657 18.977315697893758,0.00047471344759841827 16.899947143529392,-1.0685600008944531 18.571823109503047,-4.860140910157077 20.546762111787395,-3.5588102946147577"/><polygon points="19.52846976649897,4.089537129288588 21.266649201669793,0.1475892232257765 23.531158404438557,1.1461116341774522 21.833826767597703,4.9954224454524745"/><polygon points="21.833826767597703,4.9954224454524745 23.531158404438557,1.1461116341774522 25.643956665300117,2.0777379710059973 24.097917980275533,5.885092454497937"/></g><g fill="#A3997C" stroke="#302A14" stroke-width="0.3"/><g fill="#A3997C" stroke="#302A14" stroke-width="0.3"><polygon points="-4.929444488033564,25.63156680918219 -2.4588955735068816,23.1282886199811 -0.5033752420433384,21.146861996323327 0.42883924031791043,22.840545122928177 2.0730145864541187,25.827746130444233 0.5897972325985283,27.330612813196225 -1.2840574978366184,29.229291948366587 -3.610435032055878,26.933330789619415"/><polygon points="-0.5033752420433384,21.146861996323327 -4.929444488033564,25.63156680918219 -7.269129516249203,23.322472146140672 -2.1569557054598976,18.14257340999052"/><polygon points="-5.529584010407017,21.559881533871092 -7.269129516249203,23.322472146140672 -10.936717227769078,19.702836550418652 -9.334195238152677,17.805013944862587"/><polygon points="-2.1569557054598976,18.14257340999052 -3.6281415124496315,19.633249154658042 -5.529584010407017,21.559881533871092 -6.709190664518578,20.39569772423472 -9.334195238152677,17.805013944862587 -6.9725106266307915,15.008135978768026 -5.145225875822129,12.84413303257278 -3.0834586163318267,16.499810154697627"/><polygon points="-11.681863715923962,19.609333863559993 -18.71840352507337,27.94251393923278 -22.064013288514854,24.031716710748764 -15.061293459543188,16.16448188293259"/></g><g fill="#A3858E" stroke="#301626" stroke-width="0.3"><polygon points="-12.400885951428624,-32.07703138180297 -8.562953655142822,-32.53003042817568 -8.22026483126854,-29.62667662367079 -11.682352944701417,-29.218039239587398"/><polygon points="-4.73754095760099,-32.981551760546644 -4.39485213372671,-30.078197956041755 -8.22026483126854,-29.62667662367079 -8.562953655142822,-32.53003042817568"/><polygon points="-3.9926120266761638,-26.670309330067482 -3.717383340575136,-24.338496334632715 -8.102225311167393,-25.31890024325066 -8.203076539524146,-26.17333953960189"/><polygon points="-11.682352944701417,-29.218039239587398 -8.605316646574693,-29.581228165576164 -8.382603407440598,-27.69434045548614 -11.215378820643947,-27.359982144368708"/><polygon points="-11.215378820643947,-27.359982144368708 -8.382603407440598,-27.69434045548614 -8.21178654609906,-26.247133106723908 -10.857218459323061,-25.934887334412043"/><polygon points="-3.717383340575136,-24.338496334632715 -4.245590493171195,-28.81361235598005 -1.3383102900340418,-29.156764620764378 -0.6896973890398317,-23.661538040386155"/><polygon points="-0.8756689910077649,-25.237140512620712 -1.0942180401915753,-27.08874806213195 -1.3383102900340418,-29.156764620764378 0.0440675505457504,-29.31992952185329 2.4412139863398323,-29.60286964835874 3.0074196368413073,-27.57287279722965 3.514374309263151,-25.755306356891133 0.7300089022171157,-25.42666197841534"/><polygon points="3.514374309263151,-25.755306356891133 4.4168274135325465,-22.519773545913342 -0.6896973890398317,-23.661538040386155 -0.8756689910077649,-25.237140512620712"/><polygon points="-2.1102153460444137,-29.065655078628534 -2.3241902445075975,-30.87850916735582 -2.6021658104742076,-33.23359448319513 0.17668524809675423,-33.561587991773344 1.300067010527437,-33.69418305281339 1.9448696876022655,-31.382395095730647 2.4412139863398323,-29.60286964835874 1.130940371327776,-29.448215357384875"/><polygon points="-4.245590493171195,-28.81361235598005 -4.73754095760099,-32.981551760546644 -2.6021658104742076,-33.23359448319513 -2.1102153460444137,-29.065655078628534"/><polygon points="-8.991357038129763,-43.35596394772645 -8.791405124643685,-41.66191643787591 -8.626438525584042,-40.2642741174139 -9.709668226231015,-40.136418286848425 -9.874812338296646,-41.53556454623514 -11.76793907950537,-41.314779469439394 -11.968482117328605,-43.01383514697341 -10.074979410884133,-43.2314349430669"/><polygon points="-11.968482117328605,-43.01383514697341 -11.602484784330086,-39.91300525358383 -14.290514868374785,-39.59573153151431 -15.06026914377599,-42.65852948819105"/><polygon points="-11.446479507958346,-36.246049379601935 -13.390977616286536,-36.01653626661694 -14.290514868374785,-39.59573153151431 -11.875494403673857,-39.88078136643163"/><polygon points="-8.197423629868533,-36.629542130584205 -8.037246427800172,-35.272476896409145 -7.797974416615218,-33.24529872312788 -8.971500775217185,-33.10678499221752 -10.691856299349352,-32.9037278896709 -10.931128310534305,-34.93090606295216 -11.091305512602668,-36.28797129712722 -9.3709499884705,-36.491028399673844"/><polygon points="-13.390977616286536,-36.01653626661694 -11.091305512602668,-36.28797129712722 -10.691856299349352,-32.9037278896709 -12.553432227473339,-32.684002252247154"/><polygon points="11.823053711184215,-28.62753453503655 9.20189768120903,-29.011348641183545 6.062424584385218,-29.471059565161383 6.43953283378871,-32.04641973574037 6.783486917256688,-34.39536237614295 9.93855382364038,-34.04214521386782 9.587161334045176,-31.642403963509228 12.215126336171135,-31.305089915919485"/><polygon points="2.392012805669364,-32.1229001730643 2.327688630420095,-32.353519336069546 6.783486917256688,-34.39536237614295 6.365533384331858,-31.54106023995262"/><polygon points="7.742292547850191,-26.539786584230598 7.066881878031108,-21.927249625446056 5.113989210890241,-22.363895601929816 5.7650163295505585,-26.829317804674414"/><polygon points="8.127243948137586,-29.168709461088742 9.813350636080509,-28.921813998208798 11.823053711184215,-28.62753453503655 11.538869120801447,-26.68677170016946 11.138826756171188,-23.95478910885078 9.129123681067481,-24.249068572023027 9.52916604569774,-26.981051163341707 7.843059357754818,-27.22794662622165"/><polygon points="7.44301699312456,-24.495964034902972 11.138826756171188,-23.95478910885078 10.722258363853651,-21.10994642085953 7.066881878031108,-21.927249625446056"/><polygon points="6.861459739041973,-38.858461905008355 10.308890243752659,-39.32916509892939 11.857852013187577,-39.540656309887325 12.280206714682164,-36.44733019579963 12.564517566365073,-34.36503732936039 10.946282818304644,-34.6609014598362 10.689842377826968,-36.53907141610909 7.150264683486114,-36.743254300202864"/><polygon points="11.303973703798306,-43.59726141549553 11.56545503180501,-41.68217199561409 11.857852013187577,-39.540656309887325 8.894828404363789,-39.136092773528574 6.861459739041973,-38.858461905008355 6.569062757659407,-40.99997759073512 6.307581429652702,-42.91506701061656 8.340950094974518,-43.19269787913678"/><polygon points="11.022881081433333,-45.655983968274086 11.303973703798306,-43.59726141549553 6.307581429652702,-42.91506701061656 6.011968815528859,-45.08013399267483"/></g><g fill="#899E83" stroke="#17301B" stroke-width="0.3"><polygon points="-27.996370164916595,-0.21439927250129798 -24.66774321341739,-4.052477950091872 -22.223940745889973,3.7159736591934203 -23.32374996418916,3.8379953865954057"/><polygon points="-22.064491022034574,8.161503844745415 -20.914183424272988,7.879479715058606 -19.788166657852855,11.458904352447204 -21.17282662597797,11.7983853079608"/><polygon points="-20.914183424272988,7.879479715058606 -23.062813508084062,8.406265359685207 -24.46168689873287,8.749231059735756 -24.678411709929584,7.865263445972088 -24.9816789341968,6.6283104497371665 -23.636697034171206,6.298557477108495 -21.570842760371615,5.792066209240802 -21.187869098149825,7.009477355245127"/><polygon points="-24.9816789341968,6.6283104497371665 -25.456794109423605,4.690431600568675 -22.036761678742522,4.310985549363645 -21.570842760371615,5.792066209240802"/></g><g fill-rule="nonzero" stroke="#99948A" stroke-width="0.3" stroke-linecap="butt"><line x1="-9.994039251780222" y1="-17.84166105387114" x2="-9.074817459285494" y2="-14.794597168361115"/><line x1="-10.187039767008677" y1="-13.429963151351341" x2="-13.797607512910039" y2="-25.398381083290737"/><line x1="-11.583819937170867" y1="-13.008590045968397" x2="-15.203286814332994" y2="-25.006507084324213"/><line x1="-12.980600107333055" y1="-12.587216940585453" x2="-16.601243153664203" y2="-24.58903277967405"/><line x1="-14.377380277495245" y1="-12.165843835202509" x2="-17.99802332382639" y2="-24.16765967429111"/><line x1="-15.774160447657435" y1="-11.744470729819565" x2="-19.394803493988583" y2="-23.74628656890816"/><line x1="-17.170940617819625" y1="-11.32309762443662" x2="-20.791583664150775" y2="-23.32491346352522"/><line x1="-18.567720787981813" y1="-10.901724519053678" x2="-22.18836383431296" y2="-22.903540358142273"/><line x1="-19.964500958144" y1="-10.480351413670734" x2="-23.58514400447515" y2="-22.482167252759332"/><line x1="-21.361281128306192" y1="-10.05897830828779" x2="-24.981924174637342" y2="-22.060794147376384"/><line x1="-22.75806129846838" y1="-9.637605202904846" x2="-26.378704344799527" y2="-21.63942104199344"/><line x1="-24.182493148267245" y1="-9.307892712057514" x2="-27.775484514961718" y2="-21.218047936610496"/><line x1="-25.655458784693003" y1="-9.139061468440538" x2="-29.172264685123906" y2="-20.796674831227552"/><line x1="-27.23171333417943" y1="-9.312615402514584" x2="-30.56904485528609" y2="-20.375301725844608"/><line x1="-28.87508158418903" y1="-9.708639838002727" x2="-31.965825025448282" y2="-19.953928620461664"/><line x1="-30.51844983419863" y1="-10.104664273490872" x2="-33.35508636226635" y2="-19.507631861471836"/><line x1="-32.16181808420823" y1="-10.500688708979014" x2="-34.61560112993563" y2="-18.634562125122635"/><line x1="-33.94361254944458" y1="-11.355572502098962" x2="-34.7428613156863" y2="-14.004946212598263"/><line x1="-15.466498743046575" y1="-27.333736426897396" x2="-34.44097695917969" y2="-21.609618215780003"/><line x1="-36.15005198212861" y1="-22.804726572849358" x2="-14.112875736970715" y2="-29.45278300052272"/><line x1="-36.41102274623629" y1="-24.436691209454345" x2="-14.512513934371377" y2="-31.042915194034418"/><line x1="-36.67199351034397" y1="-26.068655846059333" x2="-14.91215213177204" y2="-32.633047387546114"/><line x1="-36.93296427445165" y1="-27.700620482664323" x2="-15.311790329172705" y2="-34.22317958105781"/><line x1="-36.12784929462387" y1="-29.65419611441568" x2="-15.711428526573364" y2="-35.81331177456951"/><line x1="-31.87231589290883" y1="-32.64867535888966" x2="-16.11106672397403" y2="-37.40344396808121"/><line x1="-26.036000831939987" y1="-36.12003628519253" x2="-16.510704921374693" y2="-38.99357616159291"/><line x1="-20.199685770971172" y1="-39.591397211495384" x2="-18.310803317004268" y2="-40.161225078710146"/></g><g fill-rule="nonzero" stroke="#99948A" stroke-width="0.3" stroke-linecap="butt"><line x1="13.566362797844008" y1="-24.658261859957715" x2="13.46357620639773" y2="-21.62584848658954"/><line x1="15.188801687979247" y1="-32.03586291020724" x2="14.779379112268128" y2="-19.95706472772113"/><line x1="16.584216099106182" y1="-32.71578037605129" x2="16.128073526176514" y2="-19.258647311789332"/><line x1="17.961599905180066" y1="-32.863758343528396" x2="17.47833692548876" y2="-18.606518154416882"/><line x1="19.33239290011705" y1="-32.81729398587669" x2="18.828600324801013" y2="-17.954388997044436"/><line x1="20.703185895054034" y1="-32.77082962822497" x2="20.17886372411326" y2="-17.302259839671986"/><line x1="22.07397888999102" y1="-32.724365270573266" x2="21.529127123425514" y2="-16.650130682299533"/><line x1="23.444771884928006" y1="-32.67790091292156" x2="22.87939052273776" y2="-15.998001524927083"/><line x1="24.815564879864993" y1="-32.63143655526984" x2="24.229653922050016" y2="-15.345872367554634"/><line x1="26.186357874801978" y1="-32.584972197618136" x2="25.579917321362263" y2="-14.693743210182184"/><line x1="27.55715086973896" y1="-32.53850783996643" x2="26.930180720674514" y2="-14.041614052809734"/><line x1="28.927943864675946" y1="-32.49204348231471" x2="28.28044411998676" y2="-13.389484895437285"/><line x1="30.29873685961293" y1="-32.445579124663006" x2="29.631184638528993" y2="-12.751431725149608"/><line x1="31.669529854549918" y1="-32.3991147670113" x2="30.993356921755144" y2="-12.450638849428987"/><line x1="33.040322849486905" y1="-32.35265040935958" x2="32.36089127420916" y2="-12.308037914959652"/><line x1="34.40967622751076" y1="-32.26371442658174" x2="33.75504127042481" y2="-12.950652570850618"/><line x1="35.74793915451379" y1="-31.25754694373114" x2="35.14919126664047" y2="-13.593267226741588"/><line x1="37.01091105615334" y1="-28.030141174891654" x2="36.543341262856124" y2="-14.235881882632555"/><line x1="38.072284472163616" y1="-18.855170307617115" x2="37.95734588026464" y2="-15.46424822053995"/><path d="M 27.7929051094756,-18.682970933751857 L 29.460284270103447,-18.626453500451156 L 29.413391932636763,-17.243034231053645 L 30.93057665030129,-17.191607784022146 L 30.907939950292537,-16.523779122038132 L 29.39075523262801,-16.575205569069627 L 29.34135506537338,-15.11780022347201 L 27.673975904745536,-15.174317656772711 L 27.723376072000164,-16.63172300237033 L 27.746012772008918,-17.299551664354347 Z" fill="#99948A" stroke="#1A1917" stroke-width="0.3"/></g><g fill-rule="nonzero" stroke="#99948A" stroke-width="0.3" stroke-linecap="butt"><line x1="-28.43323035370848" y1="19.737459695571022" x2="-25.469273584881257" y2="22.4652999388258"/><line x1="-30.401761304065126" y1="19.979075997324912" x2="-21.92444315018311" y2="27.781068880029355"/><line x1="-31.510354234284247" y1="21.012125413997047" x2="-22.453830372345198" y2="29.347182967609637"/><line x1="-32.56723633482994" y1="22.092766240800003" x2="-23.467296212080203" y2="30.46778140266675"/><line x1="-33.59037331664763" y1="23.204463962173026" x2="-24.49043319389788" y2="31.57947912403977"/><line x1="-34.6135102984653" y1="24.31616168354605" x2="-25.513570175715557" y2="32.69117684541279"/><line x1="-35.63664728028298" y1="25.42785940491907" x2="-26.536707157533233" y2="33.80287456678581"/><line x1="-36.65978426210066" y1="26.539557126292088" x2="-27.559844139350915" y2="34.91457228815883"/><line x1="-37.68292124391833" y1="27.651254847665108" x2="-28.58298112116859" y2="36.02627000953185"/><line x1="-38.706058225736015" y1="28.76295256903813" x2="-29.60611810298627" y2="37.137967730904876"/><line x1="-39.72919520755369" y1="29.874650290411154" x2="-30.629255084803944" y2="38.249665452277895"/><line x1="-40.75233218937137" y1="30.986348011784173" x2="-31.652392066621626" y2="39.36136317365092"/><line x1="-41.775469171189044" y1="32.09804573315719" x2="-32.6755290484393" y2="40.47306089502394"/><line x1="-42.79860615300672" y1="33.20974345453022" x2="-33.69866603025699" y2="41.58475861639696"/><line x1="-43.8217431348244" y1="34.321441175903246" x2="-34.834018959986295" y2="42.593179804904274"/><line x1="-44.690773497071405" y1="35.57496898165472" x2="-36.43476790095625" y2="43.17327964207999"/><line x1="-43.189567732075446" y1="39.009913723682224" x2="-45.08324917510269" y2="37.26708788272421"/><line x1="-32.99494499894104" y1="44.21650799971847" x2="-20.584331623152547" y2="30.731656160823484"/><line x1="-18.430503017131358" y1="30.69315864759973" x2="-32.8649305252033" y2="46.37700201873801"/><line x1="-17.40998856862514" y1="31.886072752662777" x2="-31.586246558067295" y2="47.289399955693426"/><line x1="-16.389474120118923" y1="33.07898685772582" x2="-30.307562590931283" y2="48.201797892648834"/><line x1="-15.368959671612705" y1="34.27190096278887" x2="-29.02887862379528" y2="49.11419582960424"/><line x1="-14.348445223106488" y1="35.46481506785192" x2="-27.750194656659268" y2="50.02659376655966"/><line x1="-13.327930774600276" y1="36.65772917291497" x2="-26.471510689523257" y2="50.93899170351506"/><line x1="-12.307416326094057" y1="37.850643277978016" x2="-25.192826722387252" y2="51.85138964047047"/><line x1="-11.45341328398284" y1="39.224481691673795" x2="-23.543487382274407" y2="52.3610489990383"/><line x1="-11.98338995613043" y1="42.10209440158806" x2="-16.186305349058927" y2="46.668805945081864"/><path d="M -17.12646933007166,42.69363697048328 L -15.862295877586547,41.32003913214574 L -14.93842926178797,40.31620442585721 L -14.139682450837272,41.0513209828861 L -15.063549066635849,42.055155689174626 L -14.244979843450647,42.80851555338678 L -13.250006745585988,43.72422649959772 L -14.514180198071102,45.097824337935265 L -15.50915329593576,44.18211339172433 L -16.32772251912096,43.42875352751217 Z" fill="#99948A" stroke="#1A1917" stroke-width="0.3"/></g><g fill-rule="nonzero" stroke="#99948A" stroke-width="0.3" stroke-linecap="butt"><line x1="10.009320163503972" y1="58.31957404873498" x2="3.5153662743935135" y2="53.32673613362764"/><line x1="11.616660837247426" y1="57.4983777224181" x2="3.8795057948210254" y2="51.54971197724415"/><line x1="12.563223124461048" y1="56.169145854413436" x2="4.836079664189461" y2="50.22817745477449"/><line x1="13.50978541167467" y1="54.83991398640878" x2="5.830036045230462" y2="48.93538425459134"/><line x1="14.45634769888829" y1="53.51068211840413" x2="6.823992426271463" y2="47.64259105440819"/><line x1="15.40290998610191" y1="52.18145025039947" x2="7.817948807312462" y2="46.34979785422505"/><line x1="16.34947227331553" y1="50.85221838239482" x2="8.811905188353462" y2="45.057004654041904"/><line x1="17.29603456052915" y1="49.52298651439016" x2="9.805861569394459" y2="43.764211453858756"/><line x1="18.24259684774277" y1="48.19375464638551" x2="10.799817950435461" y2="42.471418253675616"/><line x1="19.18915913495639" y1="46.86452277838085" x2="11.793774331476461" y2="41.17862505349247"/><line x1="20.135721422170008" y1="45.5352909103762" x2="12.787730712517456" y2="39.88583185330932"/><line x1="20.743531585105355" y1="43.94561148164034" x2="13.781687093558459" y2="38.59303865312618"/><line x1="17.552188191384374" y1="39.434975383532915" x2="15.389308782639642" y2="37.77205838378426"/><line x1="13.362708095521306" y1="35.36451271055174" x2="1.8284488548475348" y2="50.366591473681666"/><line x1="-0.3394725726307511" y1="50.741385117283905" x2="12.286714315636758" y2="34.31908644830388"/><line x1="-1.5208807270306648" y1="49.83306646777885" x2="11.16265803409537" y2="33.3361728641885"/><line x1="-2.702288881430578" y1="48.9247478182738" x2="9.96621331305935" y2="32.44741158306705"/><line x1="-3.8836970358304916" y1="48.01642916876875" x2="8.75698566712604" y2="31.575276462510487"/><line x1="-5.065105190230405" y1="47.108110519263704" x2="7.547758021192727" y2="30.703141341953927"/><line x1="-6.246513344630322" y1="46.199791869758656" x2="6.338530375259416" y2="29.831006221397363"/><line x1="-7.427921499030234" y1="45.2914732202536" x2="5.129302729326103" y2="28.9588711008408"/><line x1="-8.609329653430148" y1="44.38315457074855" x2="3.92007508339279" y2="28.086735980284235"/><line x1="-9.665814331919917" y1="43.31235372053492" x2="1.712284910874546" y2="28.513385060876082"/><line x1="-9.48241226308895" y1="40.62888939080858" x2="-6.636627596164602" y2="36.92750858903525"/><path d="M 11.568074952693005,41.670102461417606 L 12.285046143631023,40.73757111693233 L 12.891362861963454,39.94896293897931 L 13.703109945491995,38.89316096429395 L 15.019763169113753,39.905461982779855 L 14.208016085585212,40.96126395746521 L 15.597151238797505,42.029292277437904 L 14.990834520465075,42.81790045539093 L 14.273863329527057,43.7504317998762 L 12.884728176314763,42.68240347990351 Z" fill="#99948A" stroke="#1A1917" stroke-width="0.3"/></g><g fill-rule="nonzero" stroke="#99948A" stroke-width="0.3" stroke-linecap="butt"><line x1="-53.75112898241028" y1="1.8646629907029029" x2="-50.15380702733381" y2="5.138155880302444"/><line x1="-57.12582183946395" y1="0.7508841578685823" x2="-51.128032177359465" y2="6.208755890618543"/><line x1="-58.57082603161609" y1="1.3930844124167097" x2="-52.10225732738512" y2="7.279355900934648"/><line x1="-59.413718399929245" y1="2.5831946952288583" x2="-53.07648247741078" y2="8.349955911250747"/><line x1="-59.973926775696214" y1="4.030541903498201" x2="-54.05070762743643" y2="9.420555921566848"/><line x1="-60.53413515146319" y1="5.477889111767549" x2="-55.024932777462084" y2="10.491155931882952"/><line x1="-61.09434352723016" y1="6.925236320036892" x2="-55.99915792748774" y2="11.561755942199053"/><line x1="-61.65455190299713" y1="8.372583528306233" x2="-56.97338307751339" y2="12.632355952515153"/><line x1="-62.2147602787641" y1="9.819930736575579" x2="-57.94760822753905" y2="13.702955962831254"/><line x1="-62.77496865453107" y1="11.26727794484492" x2="-58.9218333775647" y2="14.773555973147355"/><line x1="-63.33517703029804" y1="12.714625153114266" x2="-59.896058527590355" y2="15.844155983463457"/><line x1="-63.8564494484925" y1="14.197403324153996" x2="-60.896236731346086" y2="16.89113922054944"/><line x1="-63.6201634599033" y1="16.369544885246455" x2="-62.069418326693516" y2="17.78069274205134"/><line x1="-33.30545670798526" y1="19.498502394990343" x2="-46.61601902176612" y2="33.96120099487406"/><line x1="-33.15591628433945" y1="17.613744151657215" x2="-48.28407268203428" y2="34.05136423065556"/><line x1="-33.601438071072224" y1="16.375555541823026" x2="-49.477642240526656" y2="33.62597294720274"/><line x1="-34.426742841485634" y1="15.550023189241834" x2="-50.22426951801484" y2="32.71495293152005"/><line x1="-35.252047611899044" y1="14.724490836660642" x2="-50.97089679550303" y2="31.80393291583737"/><line x1="-36.07735238231245" y1="13.89895848407945" x2="-51.717524072991225" y2="30.892912900154684"/><line x1="-36.90265715272586" y1="13.073426131498259" x2="-52.46415135047941" y2="29.981892884472"/><line x1="-37.727961923139276" y1="12.24789377891707" x2="-53.210778627967606" y2="29.070872868789316"/><line x1="-38.553266693552686" y1="11.422361426335879" x2="-53.95740590545579" y2="28.159852853106628"/><line x1="-39.3785714639661" y1="10.596829073754684" x2="-54.70403318294399" y2="27.24883283742394"/><line x1="-40.20387623437951" y1="9.771296721173492" x2="-55.450660460432175" y2="26.337812821741252"/><line x1="-41.02918100479292" y1="8.9457643685923" x2="-56.19728773792037" y2="25.42679280605857"/><line x1="-41.85448577520633" y1="8.120232016011109" x2="-56.94391501540856" y2="24.515772790375884"/><line x1="-42.679790545619746" y1="7.294699663429913" x2="-57.69054229289675" y2="23.604752774693203"/><line x1="-43.50509531603315" y1="6.469167310848729" x2="-58.43716957038494" y2="22.693732759010516"/><line x1="-44.34066410073902" y1="5.654787405597514" x2="-59.183796847873126" y2="21.782712743327828"/><line x1="-45.189511304584954" y1="4.854835273522102" x2="-59.46105045434898" y2="20.361690988083456"/><line x1="-46.289165015348345" y1="4.327398969923845" x2="-59.393827153155584" y2="18.566375076604825"/><path d="M -43.42164454092001,11.820862394935805 L -44.323956377323064,12.801276582208265 L -45.03355847313425,12.148203239840456 L -46.434697059842726,13.670621647006582 L -47.346492961591025,12.831461784560975 L -45.94535437488255,11.309043377394849 L -46.99464896243742,10.343338333021292 L -46.092337126034366,9.362924145748831 L -45.0430425384795,10.328629190122388 L -44.1312466367312,11.167789052567995 Z" fill="#99948A" stroke="#1A1917" stroke-width="0.3"/></g><g fill-rule="nonzero" stroke="#99948A" stroke-width="0.3" stroke-linecap="butt"><line x1="-53.7879570246872" y1="-4.376038540275811" x2="-54.73050582021161" y2="-5.037097826026304"/><line x1="-48.22741668920586" y1="-2.54084571322024" x2="-54.480912620639415" y2="-6.926752918774581"/><line x1="-43.65298886587279" y1="-1.3972657088065779" x2="-53.74547115202143" y2="-8.47565694246036"/><line x1="-41.93279082235962" y1="-2.255507900309828" x2="-52.77483445041458" y2="-9.859606118747449"/><line x1="-40.962154120752764" y1="-3.63945707659692" x2="-51.804197748807724" y2="-11.24355529503454"/><line x1="-39.99151741914591" y1="-5.023406252884007" x2="-50.833561047200874" y2="-12.627504471321627"/><line x1="-39.02088071753906" y1="-6.407355429171099" x2="-49.86292434559402" y2="-14.01145364760872"/><line x1="-38.0502440159322" y1="-7.7913046054581905" x2="-48.89228764398717" y2="-15.395402823895807"/><line x1="-37.079607314325344" y1="-9.175253781745276" x2="-47.92165094238031" y2="-16.7793520001829"/><line x1="-36.67637161394242" y1="-10.957151268384314" x2="-46.95101424077346" y2="-18.16330117646999"/><line x1="-36.602814552402364" y1="-12.970269808570414" x2="-45.980377539166604" y2="-19.54725035275708"/><line x1="-36.9746942580572" y1="-15.295796695748276" x2="-45.00974083755975" y2="-20.931199529044168"/><line x1="-37.346573963712025" y1="-17.62132358292613" x2="-44.0391041359529" y2="-22.31514870533126"/><line x1="-37.71845366936686" y1="-19.946850470103993" x2="-43.06846743434604" y2="-23.69909788161835"/><line x1="-38.090333375021686" y1="-22.272377357281847" x2="-42.09783073273919" y2="-25.08304705790544"/><line x1="-38.46221308067652" y1="-24.597904244459713" x2="-41.12719403113233" y2="-26.466996234192532"/><line x1="-42.65186015082052" y1="-28.29863802063258" x2="-56.420398025631805" y2="-8.6672387350112"/><line x1="-42.66187259926577" y1="-30.3812174038325" x2="-58.29360745020462" y2="-8.093242371483628"/><line x1="-59.42105648773833" y1="-8.582562974686978" x2="-43.46498871195969" y2="-31.33297702611658"/><line x1="-60.22329141533608" y1="-9.535579004632101" x2="-44.56702493391415" y2="-31.858531624108927"/><line x1="-61.02552634293383" y1="-10.488595034577227" x2="-45.66906115586862" y2="-32.384086222101274"/><line x1="-61.827761270531575" y1="-11.441611064522348" x2="-46.77109737782309" y2="-32.909640820093614"/><line x1="-62.62999619812933" y1="-12.394627094467474" x2="-47.87313359977756" y2="-33.43519541808597"/><line x1="-63.43223112572708" y1="-13.3476431244126" x2="-48.97516982173203" y2="-33.96075001607831"/><line x1="-64.23446605332482" y1="-14.30065915435772" x2="-50.077206043686495" y2="-34.48630461407065"/><line x1="-65.03670098092257" y1="-15.253675184302843" x2="-51.179242265640966" y2="-35.011859212063"/><line x1="-65.83893590852033" y1="-16.206691214247975" x2="-52.28127848759544" y2="-35.53741381005534"/><line x1="-66.64117083611806" y1="-17.159707244193093" x2="-53.38331470954991" y2="-36.06296840804769"/><line x1="-67.44340576371582" y1="-18.11272327413822" x2="-54.48535093150437" y2="-36.58852300604003"/><line x1="-68.24564069131357" y1="-19.065739304083344" x2="-55.58738715345885" y2="-37.114077604032374"/><line x1="-68.83102023922855" y1="-20.327951167638048" x2="-57.108257969673204" y2="-37.042451206532874"/><line x1="-68.8410326876738" y1="-22.410530550837965" x2="-58.98146739424601" y2="-36.468454843005304"/><path d="M -42.502370930289565,-10.833063248302938 L -41.879049064179334,-11.721805433444825 L -41.24025828750142,-12.632603436178151 L -40.46380637609747,-13.739680864257183 L -39.315251691375735,-12.934138760619886 L -40.09170360277968,-11.827061332540854 L -38.4343201940102,-10.664650752188578 L -39.07311097068811,-9.75385274945525 L -39.696432836798344,-8.865110564313364 L -41.35381624556783,-10.027521144665641 Z" fill="#99948A" stroke="#1A1917" stroke-width="0.3"/></g><g fill-rule="nonzero" stroke="#99948A" stroke-width="0.3" stroke-linecap="butt"><line x1="8.414378640779695" y1="70.42417456051824" x2="7.721381681081708" y2="73.33609349934838"/><line x1="8.881105555358474" y1="61.40007343860074" x2="5.952340067191679" y2="73.706516595439"/><line x1="7.654251612955701" y1="59.492266411298" x2="4.254459987700906" y2="73.77792449841287"/><line x1="6.2498824003530355" y1="58.33036464374112" x2="2.6636722588131208" y2="73.39933873321743"/><line x1="4.8289843799464816" y1="57.23791563179432" x2="1.0728845299253353" y2="73.020752968022"/><line x1="3.408086359539927" y1="56.14546661984752" x2="-0.5179031989624501" y2="72.64216720282656"/><line x1="1.987188339133371" y1="55.05301760790071" x2="-2.1086909278502364" y2="72.26358143763112"/><line x1="0.566290318726816" y1="53.960568595953916" x2="-3.6994786567380227" y2="71.88499567243568"/><line x1="-0.8546077016797415" y1="52.86811958400711" x2="-5.29026638562581" y2="71.50640990724024"/><line x1="-2.2755057220862955" y1="51.77567057206031" x2="-6.881054114513595" y2="71.1278241420448"/><line x1="-3.6964037424928513" y1="50.68322156011351" x2="-8.471841843401382" y2="70.74923837684936"/><line x1="-5.117301762899403" y1="49.59077254816671" x2="-10.062629572289165" y2="70.37065261165392"/><line x1="-6.538199783305959" y1="48.49832353621991" x2="-11.653417301176951" y2="69.99206684645848"/><line x1="-7.95909780371251" y1="47.4058745242731" x2="-13.244205030064734" y2="69.61348108126305"/><line x1="-9.404107261657913" y1="46.41473988409844" x2="-14.834992758952517" y2="69.23489531606761"/><line x1="-11.01295607148916" y1="46.112045366215156" x2="-16.425780487840303" y2="68.85630955087217"/><line x1="-12.705426970976518" y1="46.16072431854204" x2="-18.01656821672809" y2="68.47772378567673"/><line x1="-14.8647338857217" y1="48.17101163744774" x2="-19.550156337819416" y2="67.85878974924391"/><line x1="-17.024040800466878" y1="50.181298956353444" x2="-21.00419398102422" y2="66.90559083630761"/><line x1="-21.98700756068137" y1="63.972345321615784" x2="-19.183347715212054" y2="52.19158627525915"/><line x1="-22.108158898364184" y1="57.41846256434007" x2="-21.503186430922803" y2="54.87641564658577"/><path d="M -17.08620761833731,58.59283969675646 L -18.154157397766927,58.33868222678506 L -19.433625694061313,58.03418623703124 L -19.056418485640652,56.44919109572202 L -17.776950189346266,56.75368708547584 L -17.407150453296218,55.199817562804604 L -16.3392006738666,55.453975032776 L -15.08405226765174,55.75268322065781 L -15.45385200370179,57.30655274332904 L -16.709000409916648,57.007844555447235 Z" fill="#99948A" stroke="#1A1917" stroke-width="0.3"/></g><g fill-rule="nonzero" stroke="#99948A" stroke-width="0.3" stroke-linecap="butt"><line x1="-46.12432002982415" y1="-54.105159904245596" x2="-44.43239853585341" y2="-54.983534376162254"/><line x1="-52.28759679132568" y1="-49.338684903442726" x2="-42.75341830445417" y2="-54.28842933508934"/><line x1="-57.0431231337871" y1="-45.30305470561758" x2="-41.807989396841734" y2="-53.21249530227473"/><line x1="-57.42720618415915" y1="-43.53689398783972" x2="-41.167280149159716" y2="-51.978363639529995"/><line x1="-57.302691389867775" y1="-42.03477587772193" x2="-40.5265709014777" y2="-50.74423197678526"/><line x1="-57.13634371938244" y1="-40.55437563729643" x2="-39.88586165379567" y2="-49.51010031404052"/><line x1="-55.888190820070164" y1="-39.635603167410956" x2="-39.245152406113654" y2="-48.275968651295784"/><line x1="-54.47815017521534" y1="-38.800876005483005" x2="-38.604443158431636" y2="-47.04183698855105"/><line x1="-52.905179226631404" y1="-38.050735403869616" x2="-37.96373391074962" y2="-45.8077053258063"/><line x1="-51.33220827804747" y1="-37.30059480225623" x2="-37.3230246630676" y2="-44.57357366306157"/><line x1="-49.75923732946353" y1="-36.55045420064285" x2="-36.68231541538558" y2="-43.339442000316836"/><line x1="-48.1862663808796" y1="-35.800313599029465" x2="-36.04160616770356" y2="-42.1053103375721"/><line x1="-46.613295432295665" y1="-35.05017299741608" x2="-35.400896920021545" y2="-40.87117867482736"/><line x1="-45.04032448371173" y1="-34.30003239580269" x2="-34.760187672339526" y2="-39.637047012082625"/><line x1="-43.4673535351278" y1="-33.54989179418931" x2="-34.1194784246575" y2="-38.40291534933789"/><line x1="-41.894382586543855" y1="-32.79975119257592" x2="-33.47876917697548" y2="-37.168783686593144"/><line x1="-40.321411637959926" y1="-32.04961059096254" x2="-33.12045975891417" y2="-35.788041910970016"/><line x1="-33.27977257927682" y1="-34.138572442041834" x2="-38.21088985762011" y2="-31.578543770050285"/><line x1="-31.149327142366147" y1="-37.6735270595468" x2="-40.58267199519655" y2="-55.8439992520224"/><line x1="-40.21951659455661" y1="-58.67174015822089" x2="-28.850602750234927" y2="-36.77298249699581"/><line x1="-38.91291650808823" y1="-59.682221577309576" x2="-27.451446118158643" y2="-37.60518185765899"/><line x1="-37.60631642161986" y1="-60.69270299639826" x2="-26.05228948608235" y2="-38.43738121832217"/><line x1="-36.29971633515148" y1="-61.703184415486945" x2="-24.65313285400606" y2="-39.269580578985355"/><line x1="-34.99311624868311" y1="-62.71366583457562" x2="-23.25397622192977" y2="-40.10177993964854"/><line x1="-33.68651616221473" y1="-63.724147253664306" x2="-21.854819589853477" y2="-40.93397930031172"/><line x1="-32.37991607574636" y1="-64.73462867275299" x2="-20.455662957777186" y2="-41.766178660974894"/><line x1="-31.073315989277983" y1="-65.74511009184167" x2="-19.0565063257009" y2="-42.59837802163808"/><line x1="-29.766715902809604" y1="-66.75559151093037" x2="-18.32738449130784" y2="-44.72119580548349"/><line x1="-28.46011581634123" y1="-67.76607293001905" x2="-20.325475058135762" y2="-52.09715951714813"/><line x1="-26.806439011868815" y1="-68.10801652381494" x2="-23.281001363364282" y2="-61.31733222701031"/></g><g fill-rule="nonzero" stroke="#99948A" stroke-width="0.3" stroke-linecap="butt"><line x1="-66.83600016038359" y1="66.27194689194542" x2="-67.7088127115267" y2="65.64659879786711"/><line x1="-63.59193009808419" y1="66.94035279711261" x2="-67.08571359561958" y2="64.43714538053214"/><line x1="-60.431573640154525" y1="67.54878002430083" x2="-66.30174892147328" y2="63.3429480627067"/><line x1="-57.27121718222486" y1="68.15720725148904" x2="-65.5109659466211" y2="62.25363588470388"/><line x1="-54.11086072429517" y1="68.76563447867726" x2="-64.70561292134639" y2="61.17476277892843"/><line x1="-63.90025989607169" y1="60.095889673152996" x2="-52.17814237653424" y2="68.49449008260403"/><line x1="-63.09490687079698" y1="59.01701656737755" x2="-50.917224618623536" y2="67.7420175732798"/><line x1="-62.289553845522285" y1="57.93814346160211" x2="-49.70280765888894" y2="66.95622841942007"/><line x1="-61.48420082024758" y1="56.85927035582667" x2="-48.92096454186375" y2="65.86051105963323"/><line x1="-60.678847794972874" y1="55.78039725005122" x2="-48.13912142483858" y2="64.7647936998464"/><line x1="-59.87349476969817" y1="54.70152414427579" x2="-47.357278307813395" y2="63.66907634005955"/><line x1="-59.06814174442347" y1="53.622651038500344" x2="-46.57543519078821" y2="62.5733589802727"/><line x1="-58.26278871914877" y1="52.5437779327249" x2="-45.79359207376302" y2="61.477641620485855"/><line x1="-57.45743569387407" y1="51.46490482694946" x2="-45.01174895673785" y2="60.381924260699016"/><line x1="-56.65208266859937" y1="50.386031721174014" x2="-44.22990583971266" y2="59.28620690091217"/><line x1="-55.846729643324664" y1="49.30715861539857" x2="-43.44806272268748" y2="58.19048954112533"/><line x1="-55.041376618049966" y1="48.22828550962313" x2="-42.6662196056623" y2="57.09477218133849"/><line x1="-54.236023592775254" y1="47.149412403847684" x2="-41.88437648863711" y2="55.99905482155164"/><line x1="-53.43067056750055" y1="46.07053929807225" x2="-41.10253337161193" y2="54.90333746176481"/><line x1="-52.62531754222586" y1="44.991666192296805" x2="-40.320690254586744" y2="53.80762010197796"/><line x1="-51.819964516951146" y1="43.91279308652136" x2="-39.53884713756156" y2="52.71190274219112"/><line x1="-51.01461149167645" y1="42.833919980745925" x2="-38.75700402053638" y2="51.616185382404275"/><line x1="-50.20925846640174" y1="41.755046874970475" x2="-37.975160903511195" y2="50.52046802261743"/><line x1="-49.25876518531979" y1="40.780163087662366" x2="-37.19331778648602" y2="49.42475066283059"/><line x1="-47.96797984411761" y1="40.04908994554658" x2="-36.89621581249314" y2="47.98172854726362"/><line x1="-46.67719450291543" y1="39.31801680343078" x2="-36.71225743922465" y2="46.45764190647015"/><line x1="-47.59851042585089" y1="67.96694397419193" x2="-34.73151946356539" y2="49.93444479553317"/><line x1="-32.55850034614586" y1="49.052599487486994" x2="-47.291867818451216" y2="69.70073995964235"/><line x1="-31.535548653952507" y1="49.782521061191204" x2="-46.17148203545734" y2="70.29411211262467"/><line x1="-30.512596961759158" y1="50.512442634895415" x2="-44.8141555009602" y2="70.55542264223311"/><line x1="-29.489645269565806" y1="51.242364208599625" x2="-43.45682896646305" y2="70.81673317184156"/><line x1="-28.466693577372457" y1="51.972285782303835" x2="-42.0995024319659" y2="71.07804370145001"/><line x1="-27.443741885179108" y1="52.702207356008046" x2="-40.74217589746876" y2="71.33935423105846"/><line x1="-26.420790192985752" y1="53.432128929712256" x2="-39.38484936297161" y2="71.60066476066692"/><line x1="-25.397838500792403" y1="54.16205050341647" x2="-38.027522828474474" y2="71.86197529027537"/><line x1="-24.656168025868105" y1="55.286174834722935" x2="-36.67019629397733" y2="72.12328581988382"/><line x1="-24.121767283743196" y1="56.700778214116184" x2="-35.312869759480186" y2="72.38459634949227"/><line x1="-24.082783228351566" y1="58.80968541503204" x2="-33.955543224983046" y2="72.64590687910072"/><line x1="-24.04379917295994" y1="60.9185926159479" x2="-32.5982166904859" y2="72.90721740870917"/><line x1="-24.004815117568313" y1="63.02749981686377" x2="-31.22469290404551" y2="73.14582823073104"/><line x1="-23.965831062176683" y1="65.13640701777963" x2="-29.600039558742367" y2="73.03249246499179"/><line x1="-24.21749278867632" y1="67.65264098519413" x2="-25.85104000066539" y2="69.94198266926264"/><line x1="-65.89279857128443" y1="71.13987089621946" x2="-65.43463150552716" y2="68.76001151390955"/><line x1="-64.64589649974698" y1="71.86794971313354" x2="-64.0789260551205" y2="68.92293241926379"/><line x1="-63.39137518581725" y1="72.5564518628261" x2="-62.73407456142483" y2="69.14223208390557"/><line x1="-62.1252685321874" y1="73.18477622707044" x2="-61.396576044767706" y2="69.3997253523678"/><line x1="-60.85916187855755" y1="73.8131005913148" x2="-60.059077528110585" y2="69.65721862083004"/><line x1="-59.5930552249277" y1="74.44142495555914" x2="-58.721579011453464" y2="69.91471188929228"/><line x1="-58.326948571297855" y1="75.06974931980349" x2="-57.384080494796336" y2="70.1722051577545"/><line x1="-57.06084191766801" y1="75.69807368404784" x2="-56.046581978139216" y2="70.42969842621675"/><line x1="-55.79473526403816" y1="76.32639804829219" x2="-54.709083461482095" y2="70.68719169467897"/><line x1="-54.52862861040832" y1="76.95472241253653" x2="-53.371584944824974" y2="70.94468496314121"/><line x1="-53.262521956778464" y1="77.58304677678088" x2="-52.034086428167846" y2="71.20217823160345"/><line x1="-51.996415303148616" y1="78.21137114102523" x2="-50.696587911510726" y2="71.45967150006568"/><line x1="-50.73030864951876" y1="78.83969550526957" x2="-49.3590893948536" y2="71.71716476852792"/><line x1="-49.464201995888914" y1="79.46801986951392" x2="-48.02159087819648" y2="71.97465803699015"/><line x1="-48.19809534225907" y1="80.09634423375827" x2="-46.684092361539356" y2="72.23215130545239"/><line x1="-46.931988688629225" y1="80.72466859800262" x2="-45.346593844882236" y2="72.48964457391463"/><line x1="-45.66588203499937" y1="81.35299296224697" x2="-44.00909532822511" y2="72.74713784237686"/><line x1="-44.39977538136953" y1="81.98131732649131" x2="-42.67159681156799" y2="73.0046311108391"/><line x1="-43.133668727739675" y1="82.60964169073566" x2="-41.33409829491086" y2="73.26212437930134"/><line x1="-41.82698204443748" y1="83.02718101264935" x2="-39.99659977825374" y2="73.51961764776357"/><line x1="-40.47127659403082" y1="83.19010191800359" x2="-38.65910126159662" y2="73.77711091622581"/><line x1="-39.115571143624166" y1="83.35302282335783" x2="-37.32160274493949" y2="74.03460418468804"/><line x1="-37.4491172846163" y1="81.90182178276837" x2="-35.98410422828236" y2="74.29209745315028"/><line x1="-35.71847298552155" y1="80.11719603203977" x2="-34.64660571162525" y2="74.5495907216125"/><line x1="-33.987828686426795" y1="78.33257028131118" x2="-33.397539932809366" y2="75.26643058345542"/></g><g fill-rule="nonzero" stroke="#99948A" stroke-width="0.3" stroke-linecap="butt"><line x1="-94.22360114034804" y1="20.298010473269716" x2="-96.33728846743767" y2="19.35118454873043"/><line x1="-92.11878121608703" y1="19.879775888763117" x2="-97.6225722840348" y2="17.41435349653258"/><line x1="-90.01396129182604" y1="19.46154130425652" x2="-98.9078561006319" y2="15.477522444334745"/><line x1="-100.19313991722903" y1="13.540691392136898" x2="-88.14570844911168" y2="18.9373365306731"/><line x1="-101.47842373382615" y1="11.603860339939061" x2="-87.31454622504783" y2="17.948567168349484"/><line x1="-102.08901887697141" y1="9.969255978903158" x2="-86.58014512712718" y2="16.916453673927506"/><line x1="-102.11837392613778" y1="8.595018031720269" x2="-86.07234125246202" y2="15.782835986970902"/><line x1="-101.79819821907054" y1="7.3773523349285774" x2="-85.56453737779685" y2="14.649218300014297"/><line x1="-101.29039434440537" y1="6.243734647971972" x2="-85.05673350313168" y2="13.515600613057691"/><line x1="-100.78259046974021" y1="5.110116961015365" x2="-84.54892962846651" y2="12.381982926101085"/><line x1="-100.27478659507504" y1="3.976499274058761" x2="-84.04112575380135" y2="11.248365239144482"/><line x1="-99.76698272040989" y1="2.8428815871021524" x2="-83.5333218791362" y2="10.114747552187872"/><line x1="-99.25917884574471" y1="1.70926390014555" x2="-83.02551800447102" y2="8.98112986523127"/><line x1="-98.75137497107954" y1="0.5756462131889396" x2="-82.51771412980585" y2="7.847512178274661"/><line x1="-98.24357109641439" y1="-0.5579714737676623" x2="-82.0099102551407" y2="6.71389449131806"/><line x1="-97.73576722174923" y1="-1.691589160724273" x2="-81.50210638047552" y2="5.58027680436145"/><line x1="-97.22796334708406" y1="-2.8252068476808754" x2="-80.99430250581037" y2="4.446659117404849"/><line x1="-96.62206861568168" y1="-3.914884749916842" x2="-80.77028596173521" y2="3.18591893781902"/><line x1="-94.88570547017176" y1="-4.498169493793086" x2="-81.34146892638361" y2="1.5689692562927835"/><line x1="-84.15899702224402" y1="17.137611146290464" x2="-78.3248570891308" y2="4.11351947168893"/><line x1="-76.61475775961584" y1="3.357575053161351" x2="-83.21807461100076" y2="18.09877170165958"/><line x1="-75.47249000504068" y1="3.8692537243327436" x2="-81.71869912051993" y2="17.813245653117814"/><line x1="-74.33022225046552" y1="4.380932395504137" x2="-80.21322400066805" y2="17.51410283620566"/><line x1="-73.18795449589037" y1="4.892611066675529" x2="-78.70774888081617" y2="17.2149600192935"/><line x1="-72.0456867413152" y1="5.404289737846927" x2="-77.20227376096427" y2="16.915817202381334"/><line x1="-70.90341898674004" y1="5.915968409018319" x2="-75.69679864111238" y2="16.616674385469175"/><line x1="-69.76115123216488" y1="6.427647080189711" x2="-74.1913235212605" y2="16.317531568557015"/><line x1="-68.6188834775897" y1="6.93932575136111" x2="-72.6858484014086" y2="16.018388751644856"/><line x1="-67.47661572301455" y1="7.4510044225325025" x2="-71.18037328155673" y2="15.719245934732694"/><line x1="-66.33434796843939" y1="7.9626830937038955" x2="-69.67489816170483" y2="15.420103117820535"/><line x1="-65.2353867430521" y1="8.571038946553882" x2="-68.16942304185294" y2="15.120960300908372"/><line x1="-64.29446433180885" y1="9.532199501922983" x2="-66.4539733679394" y2="14.353071812348734"/><line x1="-60.9305002465982" y1="0.9612026356642787" x2="-63.32283599057713" y2="6.3018356001158295"/><line x1="-61.3616526465691" y1="-1.31024826987756" x2="-64.65715197162362" y2="6.046600522776283"/><line x1="-62.1922086128433" y1="-2.690073550676912" x2="-65.9914679526701" y2="5.791365445436741"/><line x1="-63.13771361050837" y1="-3.813287447466811" x2="-67.24778918003169" y2="5.362015445627669"/><line x1="-64.08321860817342" y1="-4.9365013442567065" x2="-68.45433359616871" y2="4.82154405344706"/><line x1="-65.02872360583848" y1="-6.059715241046598" x2="-69.66087801230572" y2="4.281072661266457"/><line x1="-65.97422860350353" y1="-7.182929137836496" x2="-70.86742242844274" y2="3.740601269085848"/><line x1="-66.9197336011686" y1="-8.306143034626395" x2="-72.07396684457976" y2="3.200129876905239"/><line x1="-67.86523859883366" y1="-9.429356931416283" x2="-73.28051126071676" y2="2.6596584847246363"/><line x1="-68.81074359649871" y1="-10.552570828206182" x2="-74.48705567685379" y2="2.1191870925440273"/><line x1="-69.75624859416378" y1="-11.675784724996078" x2="-75.6936000929908" y2="1.5787157003634178"/><line x1="-70.70175359182882" y1="-12.798998621785966" x2="-76.90014450912781" y2="1.038244308182815"/><line x1="-71.64725858949389" y1="-13.922212518575865" x2="-78.10668892526483" y2="0.49777291600220597"/><line x1="-72.59276358715894" y1="-15.045426415365764" x2="-79.31323334140185" y2="-0.04269847617840217"/><line x1="-73.64551191219091" y1="-15.929231085923666" x2="-80.51977775753888" y2="-0.5831698683590112"/><line x1="-74.73615095687386" y1="-16.728448788735015" x2="-81.7263221736759" y2="-1.1236412605396193"/><line x1="-75.84945183736124" y1="-17.4770763736514" x2="-82.9328665898129" y2="-1.6641126527202248"/><line x1="-77.12518836083228" y1="-17.86308380723507" x2="-84.13941100594992" y2="-2.204584044900834"/><line x1="-78.40092488430334" y1="-18.24909124081874" x2="-85.34595542208694" y2="-2.7450554370814437"/><line x1="-79.67666140777438" y1="-18.635098674402407" x2="-86.55249983822397" y2="-3.28552682926205"/><line x1="-80.95239793124541" y1="-19.021106107986075" x2="-87.75904425436099" y2="-3.825998221442658"/><line x1="-82.22813445471644" y1="-19.407113541569743" x2="-88.965588670498" y2="-4.366469613623265"/><line x1="-83.50387097818749" y1="-19.793120975153414" x2="-90.17213308663503" y2="-4.90694100580388"/><line x1="-84.77960750165853" y1="-20.17912840873708" x2="-91.37867750277204" y2="-5.447412397984481"/><line x1="-86.05534402512957" y1="-20.56513584232075" x2="-92.48371452846482" y2="-6.214488152410786"/><line x1="-87.33108054860061" y1="-20.951143275904414" x2="-93.44953522006105" y2="-7.292349441408231"/><line x1="-89.11858154743494" y1="-20.194691406257178" x2="-94.41535591165729" y2="-8.370210730405667"/></g><g fill-rule="nonzero" stroke="#99948A" stroke-width="0.3" stroke-linecap="butt"><line x1="-85.66202129760512" y1="48.92675309273649" x2="-77.50783620692798" y2="38.46988184996583"/><line x1="-85.21350696425957" y1="50.43891020942093" x2="-75.923358754146" y2="38.52528762431641"/><line x1="-84.49197556106847" y1="51.60095210125999" x2="-74.63112265276526" y2="38.95546171081997"/><line x1="-83.47978285733923" y1="52.390251927376454" x2="-73.61892994903603" y2="39.74476153693642"/><line x1="-82.46759015361002" y1="53.17955175349291" x2="-72.6067372453068" y2="40.534061363052885"/><line x1="-81.45539744988079" y1="53.968851579609364" x2="-71.59454454157758" y2="41.32336118916934"/><line x1="-80.44320474615157" y1="54.758151405725826" x2="-70.58235183784835" y2="42.1126610152858"/><line x1="-79.43101204242234" y1="55.54745123184228" x2="-69.57015913411912" y2="42.90196084140226"/><line x1="-78.41881933869311" y1="56.336751057958736" x2="-68.5579664303899" y2="43.69126066751871"/><line x1="-77.40662663496389" y1="57.1260508840752" x2="-67.54577372666067" y2="44.480560493635174"/><line x1="-76.39443393123466" y1="57.91535071019166" x2="-66.53358102293144" y2="45.26986031975163"/><line x1="-75.38224122750543" y1="58.704650536308115" x2="-65.5213883192022" y2="46.05916014586809"/><line x1="-74.3700485237762" y1="59.49395036242457" x2="-64.50919561547298" y2="46.848459971984546"/><line x1="-73.35785582004698" y1="60.28325018854103" x2="-63.497002911743756" y2="47.637759798101"/><line x1="-72.34566311631775" y1="61.07255001465749" x2="-62.48481020801452" y2="48.42705962421746"/><line x1="-71.33347041258853" y1="61.86184984077395" x2="-61.4726175042853" y2="49.21635945033392"/><line x1="-70.04123431120779" y1="62.29202392727752" x2="-60.86972107680445" y2="50.5305380243915"/><line x1="-68.4567568584258" y1="62.347429701628094" x2="-60.421206743458896" y2="52.04269514107595"/><line x1="-59.46994570593011" y1="47.861398784412614" x2="-73.99805280975372" y2="36.532496324830376"/><line x1="-57.32077531118406" y1="47.938418189599126" x2="-74.31992794569658" y2="34.68261406345403"/><line x1="-73.92707183293429" y1="33.39007354959721" x2="-56.566376993295194" y2="46.92780541399689"/><line x1="-73.1517357607008" y1="32.395787868433224" x2="-55.81197867540634" y2="45.91719263839466"/><line x1="-72.3763996884673" y1="31.40150218726923" x2="-55.05758035751747" y2="44.90657986279242"/><line x1="-71.6010636162338" y1="30.40721650610524" x2="-54.30318203962862" y2="43.895967087190186"/><line x1="-70.82572754400032" y1="29.412930824941252" x2="-53.54878372173975" y2="42.885354311587946"/><line x1="-70.05039147176682" y1="28.41864514377726" x2="-52.794385403850896" y2="41.87474153598572"/><line x1="-69.27505539953331" y1="27.424359462613264" x2="-52.03998708596204" y2="40.86412876038348"/><line x1="-68.49971932729983" y1="26.43007378144928" x2="-51.28558876807317" y2="39.85351598478125"/><line x1="-67.72438325506633" y1="25.43578810028529" x2="-50.53119045018431" y2="38.84290320917901"/><line x1="-66.94904718283283" y1="24.441502419121296" x2="-50.275974895744895" y2="37.443031681819974"/><line x1="-66.17371111059934" y1="23.44721673795731" x2="-50.59785003168775" y2="35.59314942044363"/><line x1="-65.39837503836584" y1="22.452931056793318" x2="-53.82242683128902" y2="31.479763470538003"/><line x1="-64.62303896613234" y1="21.458645375629324" x2="-57.453055062860045" y2="27.049741841015965"/><line x1="-62.47301412475311" y1="21.5363310715098" x2="-61.08368329443107" y2="22.61972021149393"/><line x1="-96.59153614410282" y1="41.78538115046571" x2="-88.97935830562884" y2="47.721296932251825"/><line x1="-97.1407113012327" y1="39.62321357645125" x2="-87.81732798984459" y2="46.89351378646377"/><line x1="-96.95084970022913" y1="38.03734099304408" x2="-86.65529767406032" y2="46.06573064067572"/><line x1="-96.76098809922557" y1="36.4514684096369" x2="-85.62316228536164" y2="45.13665646306702"/><line x1="-96.571126498222" y1="34.86559582622973" x2="-84.7823429765775" y2="44.05839552679717"/><line x1="-96.38126489721844" y1="33.27972324282255" x2="-83.94152366779335" y2="42.98013459052733"/><line x1="-96.19140329621489" y1="31.693850659415375" x2="-83.10070435900923" y2="41.90187365425748"/><line x1="-96.00154169521132" y1="30.107978076008198" x2="-82.25988505022508" y2="40.82361271798763"/><line x1="-95.81168009420776" y1="28.522105492601025" x2="-81.41906574144093" y2="39.74535178171778"/><line x1="-95.62181849320419" y1="26.936232909193844" x2="-80.5782464326568" y2="38.66709084544793"/><line x1="-95.43195689220063" y1="25.350360325786674" x2="-79.73742712387266" y2="37.588829909178095"/><line x1="-94.86724393818976" y1="24.056793848378987" x2="-78.89660781508852" y2="36.510568972908246"/><line x1="-93.76266318511345" y1="23.184211990163167" x2="-78.05578850630437" y2="35.43230803663839"/><line x1="-92.65808243203713" y1="22.311630131947343" x2="-77.21496919752023" y2="34.354047100368554"/><line x1="-91.17791940436385" y1="21.731924346577753" x2="-76.3741498887361" y2="33.2757861640987"/><line x1="-89.40588725937086" y1="21.379815779307474" x2="-75.53333057995195" y2="32.19752522782886"/><line x1="-87.63385511437787" y1="21.027707212037196" x2="-74.6925112711678" y2="31.119264291559006"/><line x1="-85.86182296938489" y1="20.675598644766918" x2="-73.85169196238367" y2="30.041003355289163"/><line x1="-84.0897908243919" y1="20.32349007749664" x2="-73.01087265359953" y2="28.962742419019314"/><line x1="-82.3177586793989" y1="19.97138151022636" x2="-72.17005334481539" y2="27.88448148274947"/><line x1="-80.54572653440593" y1="19.61927294295608" x2="-71.32923403603125" y2="26.806220546479622"/><line x1="-78.77369438941292" y1="19.2671643756858" x2="-70.4884147272471" y2="25.72795961020977"/><line x1="-77.00166224441996" y1="18.915055808415524" x2="-69.64759541846297" y2="24.649698673939927"/><line x1="-75.22963009942697" y1="18.562947241145245" x2="-68.80677610967882" y2="23.571437737670088"/><line x1="-73.457597954434" y1="18.210838673874967" x2="-67.96595680089469" y2="22.493176801400235"/><line x1="-71.68556580944099" y1="17.858730106604686" x2="-67.12513749211054" y2="21.414915865130382"/><line x1="-69.91353366444801" y1="17.50662153933441" x2="-66.33192022511739" y2="20.29953523498211"/><line x1="-68.09673388890896" y1="17.189422414579845" x2="-65.54493165788477" y2="19.179297514262228"/><line x1="-66.21123428306649" y1="16.925794871514157" x2="-64.93369795676688" y2="17.922007545731855"/></g><g fill-rule="nonzero" stroke="#99948A" stroke-width="0.3" stroke-linecap="butt"><line x1="-101.15377904567353" y1="-39.96533035362326" x2="-91.75873654133385" y2="-51.83962509506196"/><line x1="-100.9040728574615" y1="-38.1953374929731" x2="-90.30756130425941" y2="-51.58815624346427"/><line x1="-100.07774607271548" y1="-37.154129298711204" x2="-88.85638606718499" y2="-51.336687391866576"/><line x1="-99.05908013657171" y1="-36.35601652130987" x2="-87.67580921359222" y2="-50.74321210862858"/><line x1="-98.04041420042795" y1="-35.557903743908525" x2="-86.66097002138773" y2="-49.94026275008203"/><line x1="-97.02174826428418" y1="-34.75979096650719" x2="-85.64613082918324" y2="-49.13731339153547"/><line x1="-96.00308232814042" y1="-33.961678189105854" x2="-84.63129163697874" y2="-48.33436403298892"/><line x1="-94.98441639199666" y1="-33.163565411704525" x2="-83.61645244477425" y2="-47.531414674442374"/><line x1="-93.96575045585288" y1="-32.36545263430318" x2="-82.60161325256976" y2="-46.72846531589582"/><line x1="-92.94708451970912" y1="-31.56733985690184" x2="-81.58677406036527" y2="-45.92551595734926"/><line x1="-91.92841858356535" y1="-30.769227079500503" x2="-80.57193486816078" y2="-45.12256659880271"/><line x1="-90.90975264742158" y1="-29.971114302099167" x2="-79.55709567595629" y2="-44.31961724025616"/><line x1="-89.89108671127781" y1="-29.173001524697824" x2="-78.5422564837518" y2="-43.5166678817096"/><line x1="-88.87242077513406" y1="-28.374888747296495" x2="-77.52741729154732" y2="-42.71371852316305"/><line x1="-87.73047687332695" y1="-27.73258568536322" x2="-76.51257809934283" y2="-41.9107691646165"/><line x1="-86.57395160044956" y1="-27.108711863930218" x2="-75.49773890713834" y2="-41.10781980606995"/><line x1="-85.37475500543522" y1="-26.53876987471903" x2="-74.48289971493385" y2="-40.30487044752339"/><line x1="-84.04335396359191" y1="-26.13591968600275" x2="-73.46806052272936" y2="-39.50192108897684"/><line x1="-82.71195292174859" y1="-25.73306949728647" x2="-72.45322133052487" y2="-38.69897173043029"/><line x1="-81.38055187990527" y1="-25.330219308570186" x2="-71.43838213832038" y2="-37.896022371883724"/><line x1="-80.04915083806196" y1="-24.927369119853907" x2="-70.42354294611589" y2="-37.093073013337175"/><line x1="-78.71774979621864" y1="-24.52451893113762" x2="-69.4087037539114" y2="-36.29012365479062"/><line x1="-77.38634875437533" y1="-24.121668742421345" x2="-68.39386456170692" y2="-35.48717429624407"/><line x1="-76.05494771253201" y1="-23.718818553705063" x2="-67.37902536950243" y2="-34.68422493769752"/><line x1="-74.7235466706887" y1="-23.31596836498878" x2="-66.57373455149445" y2="-33.61642960781562"/><line x1="-73.39214562884538" y1="-22.913118176272498" x2="-65.84719754911394" y2="-32.449098164250195"/><line x1="-66.61688819396431" y1="-29.39070044021802" x2="-71.443772091102" y2="-23.290052992285517"/><line x1="-64.61827963414964" y1="-35.43274753087941" x2="-87.2311579722944" y2="-53.32424826910273"/><line x1="-62.32052266374235" y1="-35.29738635313275" x2="-87.93754129016742" y2="-55.56578831471016"/><line x1="-87.89095298789746" y1="-57.211570841252716" x2="-61.54368549335433" y2="-36.36538979433958"/><line x1="-87.072187319528" y1="-58.24640009997072" x2="-60.766848322966304" y2="-37.43339323554641"/><line x1="-86.25342165115855" y1="-59.28122935868873" x2="-59.99001115257828" y2="-38.501396676753245"/><line x1="-85.4346559827891" y1="-60.316058617406725" x2="-59.35447235900973" y2="-39.68119658965962"/><line x1="-84.61589031441964" y1="-61.35088787612472" x2="-59.24687850166191" y2="-41.278711004669"/><line x1="-83.7971246460502" y1="-62.38571713484273" x2="-59.39614743724131" y2="-43.079457435548186"/><line x1="-82.97835897768074" y1="-63.420546393560734" x2="-59.575968891128284" y2="-44.9043772775111"/><line x1="-82.15959330931128" y1="-64.45537565227873" x2="-60.94475115433124" y2="-47.67001297525751"/><line x1="-81.34082764094184" y1="-65.49020491099674" x2="-62.67559042672917" y2="-50.7221112431564"/><line x1="-80.52206197257237" y1="-66.52503416971474" x2="-64.48236845901963" y2="-53.834292900633585"/><line x1="-79.70329630420292" y1="-67.55986342843275" x2="-66.28914649131008" y2="-56.94647455811075"/><line x1="-78.88453063583347" y1="-68.59469268715074" x2="-68.09592452360053" y2="-60.05865621558791"/><line x1="-78.06576496746402" y1="-69.62952194586875" x2="-69.90270255589098" y2="-63.1708378730651"/><line x1="-77.24699929909457" y1="-70.66435120458675" x2="-71.70948058818145" y2="-66.28301953054228"/><line x1="-74.73099626059974" y1="-70.3563118905183" x2="-73.5162586204719" y2="-69.39520118801946"/><path d="M -75.50615340693554,-29.659247325856022 L -74.50796329322029,-28.869470859129194 L -75.30574891560916,-27.861158058377963 L -76.65130196604973,-26.160527805370254 L -77.64949207976498,-26.950304272097082 L -79.29745285124355,-28.254184782953402 L -77.95189980080298,-29.95481503596111 L -76.30393902932441,-28.65093452510479 Z" fill="#99948A" stroke="#1A1917" stroke-width="0.3"/></g><g id="labels" style="font: bold italic 1px &quot;Archivo Narrow&quot;, sans-serif" fill="#1A1917"><text text-anchor="middle" stroke="#CCC5B8" stroke-width="0.6719228794874962" x="-0.22849834148874812" y="-1.209784425348063">Merchant</text><text text-anchor="middle" x="-0.22849834148874812" y="-1.209784425348063">Merchant</text><text text-anchor="middle" stroke="#CCC5B8" stroke-width="0.6719228794874962" x="-2.0463488589952474" y="18.00587853016694">Craftsmen</text><text text-anchor="middle" x="-2.0463488589952474" y="18.00587853016694">Craftsmen</text><text text-anchor="middle" stroke="#CCC5B8" stroke-width="0.6719228794874962" x="-0.0064654970893148435" y="-17.28843487791721">Craftsmen</text><text text-anchor="middle" x="-0.0064654970893148435" y="-17.28843487791721">Craftsmen</text><text text-anchor="middle" stroke="#CCC5B8" stroke-width="0.6719228794874962" x="-22.349902784107226" y="1.6763310127529414">Craftsmen</text><text text-anchor="middle" x="-22.349902784107226" y="1.6763310127529414">Craftsmen</text></g></g></svg>