<svg width="109.63092926971142" height="136.93803534784874" xmlns="http://www.w3.org/2000/svg"><rect x="0" y="0" width="109.63092926971142" height="136.93803534784874" id="background" fill="#CCC5B8"/><g id="map" transform="translate(54.81546463485571 68.46901767392437)"><g id="waterbody"><polygon points="30.392583429281892,-1.7264212168320285 30.57012213663776,-21.62529907080635 42.63265308662676,-28.9236061246505 43.77955386237976,-33.70445063245873 35.4708788221563,-55.157514728270314 37.15791685123327,-68.97814283548026 47.32147202877725,-73.3399007875749 62.869487514099845,-83.44357226544373 71.34735399703384,-98.70436038818373 99.7227639560063,-117.17807898346386 123.91915562410374,-105.61523920240477 135.38596236568517,-98.38253977239788 178.64968939189555,-67.06595321686873 186.3600044891637,-48.75889075479247 193.55963946666571,-26.903899541552455 183.47085137001125,9.681843328413931 185.2457807501161,32.90279978858277 165.50922011101108,62.69903864917007 143.64259715544026,62.382019467492185 126.77775628289609,36.91153689867155 100.47606318915896,30.5341968177962 84.41469798069319,38.25381148007742 63.44333315200687,28.455950388530923 56.91294529300138,5.237072952313507 51.344694813564786,1.0545883091495678 39.11619877741476,4.024453313924377" fill="#67635C" stroke="#99948A" stroke-width="0.3"/><polygon points="34.411847804986465,-3.8677655506308675 34.55005373158926,-19.358150115906124 44.703303437840184,-25.501266702118052 47.50957666469211,-35.14907165342924 39.562835867528726,-55.66761869601065 40.849671517203724,-66.20969103980289 65.04905592832601,-80.08954758937058 74.3618478634058,-95.89390949353296 100.02372721395096,-112.60099278971975 133.14397785693563,-95.06745084530662 175.39768943151688,-64.48196719023271 189.38201877679427,-26.80119085513391 179.614777414893,8.61850253042915 181.15276892954802,31.83859986147055 163.3815469554088,58.66777159349027 145.8119783745442,58.41305049342575 130.1129200704454,34.70321570142244 101.41862690421124,26.646836062339247 84.39042495488843,33.827446551442435 66.79753841114153,25.608016868964903 60.763545657111905,4.1540785682505526 53.74700888281355,-2.1436748308514924 39.8641139126354,-0.27346467397705343" fill="none" stroke="#CCC5B8" stroke-width="0.15"/><polygon points="42.455233119395444,-8.694787087172624 52.38494288541037,-23.266895336938642 54.96962226931683,-38.03831369537025 48.30528212330893,-61.263458719104605 69.02932503462638,-73.14999012210865 80.30072388622544,-90.21434076783518 100.4423766254212,-103.32749843800651 128.90641834100194,-88.25890868887153 168.74164175456355,-59.42405538938878 180.98342630688802,-26.43856611282338 171.90262950465657,6.49182093445959 172.99176268711324,29.672431299667952 159.12620064420426,50.60523748213068 150.15074081275208,50.47511254529288 132.2754293107847,27.001037192361046 103.58113614455054,18.944657553277857 84.55675455708729,25.075107003776445 73.50594892941086,19.912149829832874 68.46474638533296,1.9880898001246452 59.09069165989804,-8.097249755037012" fill="none" stroke="#CCC5B8" stroke-width="0.15"/><polygon points="68.14548811867985,-20.509140099419113 70.73016750258631,-35.28055845785072 67.14327586556357,-53.62324308098214 82.37986361318376,-64.33165016141021 91.8179839981226,-78.62050621252291 101.27967544836169,-84.78050973458001 120.43129930913446,-74.64182437600138 155.4295464006569,-49.308231787700905 164.18624136707552,-25.71331662820233 156.47833368418367,2.2384577425204712 156.7638815655255,25.19798427981967 154.08871156687104,29.236682091973023 136.6004477914633,11.596680174238267 107.90615462522915,3.540300535155078 86.66026186622489,7.587064850348587 80.18417013507604,-8.904802697920008" fill="none" stroke="#CCC5B8" stroke-width="0.15"/><polygon points="102.15380854275142,-39.564899758082674 107.17533862757308,-44.73354130494569 128.8053556928436,-29.076584584325158 130.35252910487952,-23.394872095753133 116.55619158658637,-27.26841350109048 105.19100602872602,-27.754574699619095" fill="none" stroke="#CCC5B8" stroke-width="0.15"/></g><g fill="none"><path d="M 15.967978331506282,-27.37446492582548 L 10.277559499109787,-40.059406835509726 C 8.877077097028625,-43.181327811659195 2.9653368433333274,-46.69139097991408 1.7914120003387068,-54.108668332813615 C 0.9939128609482067,-59.14755335246144 2.7924103074971423,-64.96420598305423 5.507685900935465,-70.1971755581484 C 8.261185886994934,-75.50381245603526 14.831378603185387,-79.02069723097537 18.031581707364285,-85.40726438567923 C 21.429652231930486,-92.18871071738948 21.22083083893189,-100.56181579594114 24.38251494467635,-107.86521077253681 C 27.038392599220792,-114.000208094189 30.67086947675359,-120.316427849101 35.59338525288008,-125.97450118243678 C 41.20578808778381,-132.4255494391262 46.47159551218995,-143.48452000151104 56.93230309554053,-145.27882135664663 C 70.16664932638818,-147.54887863404713 70.16664932638818,-147.54887863404713 96.26148513135948,-136.38076222721688" stroke="#67635C" stroke-width="2.3" stroke-linejoin="round" stroke-linecap="butt"/><path d="M 15.967978331506282,-27.37446492582548 L 10.277559499109787,-40.059406835509726 C 8.877077097028625,-43.181327811659195 2.9653368433333274,-46.69139097991408 1.7914120003387068,-54.108668332813615 C 0.9939128609482067,-59.14755335246144 2.7924103074971423,-64.96420598305423 5.507685900935465,-70.1971755581484 C 8.261185886994934,-75.50381245603526 14.831378603185387,-79.02069723097537 18.031581707364285,-85.40726438567923 C 21.429652231930486,-92.18871071738948 21.22083083893189,-100.56181579594114 24.38251494467635,-107.86521077253681 C 27.038392599220792,-114.000208094189 30.67086947675359,-120.316427849101 35.59338525288008,-125.97450118243678 C 41.20578808778381,-132.4255494391262 46.47159551218995,-143.48452000151104 56.93230309554053,-145.27882135664663 C 70.16664932638818,-147.54887863404713 70.16664932638818,-147.54887863404713 96.26148513135948,-136.38076222721688" stroke="#CCC5B8" stroke-width="1.7" stroke-linejoin="round" stroke-linecap="round"/></g><g fill="none"><path d="M 19.29624545465986,29.108154403274295 C 31.721788664424135,42.88886735020478 31.721788664424135,42.88886735020478 36.853212721500725,50.56307060804026 C 41.196795992671625,57.059033623283604 44.34944436198437,63.52246457120859 46.28994877080852,69.47807192044993 C 48.20758880247277,75.36350614767716 46.801103687420266,81.97109526122522 48.91270301449037,87.57488500559369 C 50.90322055766431,92.85734633782982 55.06989789570505,98.34867859661156 59.56919365880003,104.71870463060318 C 64.1653167098091,111.22581708373461 68.51893502687433,121.82833763727564 78.92864056125123,130.07093631563447 C 93.6395565344298,141.71931351108293 93.6395565344298,141.71931351108293 127.55194079857218,158.54870970375146" stroke="#67635C" stroke-width="2.3" stroke-linejoin="round" stroke-linecap="butt"/><path d="M 19.29624545465986,29.108154403274295 C 31.721788664424135,42.88886735020478 31.721788664424135,42.88886735020478 36.853212721500725,50.56307060804026 C 41.196795992671625,57.059033623283604 44.34944436198437,63.52246457120859 46.28994877080852,69.47807192044993 C 48.20758880247277,75.36350614767716 46.801103687420266,81.97109526122522 48.91270301449037,87.57488500559369 C 50.90322055766431,92.85734633782982 55.06989789570505,98.34867859661156 59.56919365880003,104.71870463060318 C 64.1653167098091,111.22581708373461 68.51893502687433,121.82833763727564 78.92864056125123,130.07093631563447 C 93.6395565344298,141.71931351108293 93.6395565344298,141.71931351108293 127.55194079857218,158.54870970375146" stroke="#CCC5B8" stroke-width="1.7" stroke-linejoin="round" stroke-linecap="round"/></g><g fill="none"><polyline points="26.248966622771135,-0.5102338256722274 22.105349816260375,0.7059535654875736 10.177474273386116,-3.4378196290851837 -4.561796791885813,-9.075242298866385 -11.22632923679945,-23.61730603594722 -19.369186269100194,-40.72495119864152 -24.82595767487019,-41.10972057252275 -41.15966429961382,-25.743255810336006 -42.907192375712334,-13.031314723135788 -53.067524783190834,1.6116239415754532 -64.89213637028229,7.705854909393461 -80.74943105870905,27.97970009084799 -108.02656216680396,31.32956485189987 -121.4048497722382,28.468946772044667 -148.62644235470987,36.61291934907891" stroke="#99948A" stroke-width="5.7881925216821" stroke-linejoin="round" stroke-linecap="butt"/><polyline points="26.248966622771135,-0.5102338256722274 22.105349816260375,0.7059535654875736 10.177474273386116,-3.4378196290851837 -4.561796791885813,-9.075242298866385 -11.22632923679945,-23.61730603594722 -19.369186269100194,-40.72495119864152 -24.82595767487019,-41.10972057252275 -41.15966429961382,-25.743255810336006 -42.907192375712334,-13.031314723135788 -53.067524783190834,1.6116239415754532 -64.89213637028229,7.705854909393461 -80.74943105870905,27.97970009084799 -108.02656216680396,31.32956485189987 -121.4048497722382,28.468946772044667 -148.62644235470987,36.61291934907891" stroke="#67635C" stroke-width="5.1881925216821" stroke-linejoin="round" stroke-linecap="round"/><polyline points="26.248966622771135,-0.5102338256722274 22.105349816260375,0.7059535654875736 10.177474273386116,-3.4378196290851837 -4.561796791885813,-9.075242298866385 -11.22632923679945,-23.61730603594722 -19.369186269100194,-40.72495119864152 -24.82595767487019,-41.10972057252275 -41.15966429961382,-25.743255810336006 -42.907192375712334,-13.031314723135788 -53.067524783190834,1.6116239415754532 -64.89213637028229,7.705854909393461 -80.74943105870905,27.97970009084799 -108.02656216680396,31.32956485189987 -121.4048497722382,28.468946772044667 -148.62644235470987,36.61291934907891" stroke="#CCC5B8" stroke-width="3.47291551300926" stroke-linejoin="round" stroke-linecap="butt"/><polyline points="26.248966622771135,-0.5102338256722274 22.105349816260375,0.7059535654875736 10.177474273386116,-3.4378196290851837 -4.561796791885813,-9.075242298866385 -11.22632923679945,-23.61730603594722 -19.369186269100194,-40.72495119864152 -24.82595767487019,-41.10972057252275 -41.15966429961382,-25.743255810336006 -42.907192375712334,-13.031314723135788 -53.067524783190834,1.6116239415754532 -64.89213637028229,7.705854909393461 -80.74943105870905,27.97970009084799 -108.02656216680396,31.32956485189987 -121.4048497722382,28.468946772044667 -148.62644235470987,36.61291934907891" stroke="#67635C" stroke-width="3.17291551300926" stroke-linejoin="round" stroke-linecap="round"/><g><path fill="#67635C" stroke="#67635C" stroke-width="0.3" stroke-linejoin="round" stroke-linecap="round" d="M 25.476151017278475,-3.1432587645341528 C 29.619767823789232,-4.359446155693954 30.436968106120858,-6.701140680325609 30.481352782959824,-11.67586014381919 L 34.754391103348325,1.1490160485461747 C 32.57348726631511,-0.28870258414292693 31.165399034774552,0.9066037220298968 27.021782228263795,2.122791113189698 Z"/><path fill="none" stroke="#99948A" stroke-width="0.3" stroke-linejoin="round" stroke-linecap="round" d="M 25.476151017278475,-3.1432587645341528 C 29.619767823789232,-4.359446155693954 30.436968106120858,-6.701140680325609 30.481352782959824,-11.67586014381919 M 27.021782228263795,2.122791113189698 C 31.165399034774552,0.9066037220298968 32.57348726631511,-0.28870258414292693 34.754391103348325,1.1490160485461747"/></g><g fill="none"><line x1="10.912641427437451" y1="-6.7513402165358265" x2="9.014175399676086" y2="-0.24930505984135287" stroke="#1A1917" stroke-width="2.3" stroke-linejoin="round" stroke-linecap="butt"/><line x1="10.912641427437451" y1="-6.7513402165358265" x2="9.014175399676086" y2="-0.24930505984135287" stroke="#CCC5B8" stroke-width="1.7" stroke-linejoin="round" stroke-linecap="round"/></g><g fill="none"><line x1="-6.883249902917833" y1="-6.599208195479489" x2="-2.240343680853793" y2="-11.551276402253283" stroke="#1A1917" stroke-width="1.3" stroke-linejoin="round" stroke-linecap="butt"/><line x1="-6.883249902917833" y1="-6.599208195479489" x2="-2.240343680853793" y2="-11.551276402253283" stroke="#CCC5B8" stroke-width="0.7" stroke-linejoin="round" stroke-linecap="round"/></g></g><g fill-rule="nonzero" fill="#99948A" stroke="#1A1917" stroke-width="0.3"><path d="M -1.0791352857941432,3.899277700099472 L -1.4648236398631305,4.830411755342177 L -2.3959576951058357,5.2161001094111645 L -3.327091750348541,4.830411755342177 L -3.7127801044175284,3.899277700099472 L -3.327091750348541,2.9681436448567666 L -2.395957695105836,2.582455290787779 L -1.4648236398631307,2.9681436448567666 Z"/></g><g fill="#908595" stroke="#1E162E" stroke-width="0.3"><polygon points="4.8878791453486645,-9.630172924368035 1.6153156370315367,-10.881851085953246 -1.684624271303461,-12.144000073225445 0.3659562669568155,-16.600148501500897 2.962597135629728,-15.765976744190832 3.8539346996116715,-18.99722772694744 5.967603638025128,-18.45076947876327 5.537696194118768,-14.938725300688315"/><polygon points="11.268942043000058,-12.9740144214686 9.183808005763359,-13.436640807970178 10.06145966861543,-17.39236276513962 12.130551035732909,-16.85742939726002"/><polygon points="9.183808005763359,-13.436640807970178 7.661941718441043,-13.774295600740976 6.196995585433193,-14.099321581723487 6.493161312675724,-16.51878915050097 6.706277057743536,-18.259796249425605 8.351898241677356,-17.834344915489538 10.06145966861543,-17.39236276513962 9.694194417063642,-15.737037217247803"/><polygon points="11.268942043000058,-12.9740144214686 10.737288242960547,-10.577762355364635 5.897370034422941,-11.65158966420577 6.196995585433193,-14.099321581723487"/><polygon points="7.900535796656972,-11.207149488372217 10.737288242960547,-10.577762355364635 10.085942049463968,-7.642036772665629 7.34236688393106,-8.691389401159308"/><polygon points="5.897370034422941,-11.65158966420577 7.900535796656972,-11.207149488372217 7.34236688393106,-8.691389401159308 5.615846969930535,-9.351742444394128"/></g><g fill="#899E83" stroke="#17301B" stroke-width="0.3"><polygon points="9.286186664532517,0.37493541692459975 11.309771446863545,1.0779337293925768 14.712499331266738,2.2600497353093787 13.41308510648762,6.000421233466097 12.329862285798862,9.118484501817557 8.261573497313558,7.705151006769704 5.842183066406179,6.864648842007512 7.4079369856280906,3.9142180597984755"/><polygon points="16.63173862041048,2.9267981677304222 15.34101901269166,6.642142159477277 13.421779723547917,5.975393727056234 14.712499331266738,2.2600497353093787"/><polygon points="16.63173862041048,2.9267981677304222 17.94025428992972,3.381379718027656 19.49567830225407,3.921737831699869 18.98938498030962,5.379106140431455 18.20495869453525,7.637081823446725 16.6495346822109,7.096723709774511 15.34101901269166,6.642142159477277 16.12544529846603,4.384166476462008"/><polygon points="19.49567830225407,3.921737831699869 21.191152427531595,4.510749697825002 20.456208473127806,11.941597082078255 17.113041256786197,10.780172598208047"/><polygon points="19.711051314269554,19.475707801107642 19.012626063418562,26.53732306752983 16.63731200115196,25.362807473137757 17.14819704015165,20.197367669248724"/><polygon points="14.349915482255723,23.299378046243195 12.695111286475257,21.806601588329514 11.40137308056529,20.63953787081517 12.878712457778024,19.001846314893882 14.17245066368799,20.168910032408224 17.00216350229735,17.032056785989067 18.656967698077814,18.524833243902748 15.827254859468455,21.661686490321905"/><polygon points="15.708425296387384,15.864993068474728 16.76160894373554,14.697495611424216 18.156727214412243,13.150949539045516 19.634910560336316,14.484398719862234 20.15804022335333,14.956306905361973 18.762921952676628,16.502852977740673 17.709738305328475,17.67035043479119 17.18660864231146,17.19844224929145"/><polygon points="19.53603738894951,11.621927392422844 17.597692867641268,13.7706621408338 13.96243974382919,17.800489976152008 11.40137308056529,20.63953787081517 9.22169112684536,18.673276294642523 11.521315730182216,16.124047693033734 9.928112369605035,15.029915045799875 12.95006893999058,11.679951703579542 14.561399090144125,9.893725856349684 16.52594230147359,10.576212982361838"/><polygon points="10.198282118925002,14.730420749532312 8.799965797227435,16.28051199320548 7.799118330771826,17.389992637843807 6.014012202190877,15.779672570721742 4.260704396598614,14.19803734019828 2.698377588702769,12.788683481692745 3.420565415888869,11.427827749697903 4.42955735515199,9.526532252330043 6.196483729488618,11.120452609313725 8.179401636532416,12.909216003290004"/><polygon points="9.683999208634674,8.199305184741888 7.892674956275865,10.185061908792575 6.666440036249624,11.544393830135938 5.50464456756281,10.496353869282135 6.392143462142119,9.2812187208876 5.003601102800414,8.4448320422241 5.842183066406179,6.864648842007512 7.688631001224378,7.506109379550156"/></g><g fill="#A3858E" stroke="#301627" stroke-width="0.3"><polygon points="-18.689101091367363,20.313759530908925 -15.770826651763569,17.697299821740884 -12.289041431233017,14.57560892733282 -9.055830088006324,11.67678382165624 -5.287685576664543,8.298349580362942 -2.685270574266575,12.43992808224621 -6.037204945018017,15.977419165180466 -8.913292153628257,19.012721092025515 -5.541618042239024,23.444476825271124 -8.254706833818185,26.859929005735967 -10.528694794406556,29.72260609999418 -14.606433667997926,25.021024093629528"/><polygon points="-8.535837928386766,10.214116662030339 -11.009349222882607,7.4552800701633295 -12.225557325421878,6.098779526148478 -10.717370208411115,4.74657262881475 -9.977596995858818,4.0833084826134485 -8.614653344640919,5.308249209700178 -5.842712828860633,7.799520824492875 -6.728983720958146,8.594131519467947"/><polygon points="-10.664996895435959,12.123073056294068 -12.446134555936288,10.136477012089522 -14.354716292471073,8.007735920412205 -13.270503000296557,7.03565448878914 -12.225557325421878,6.098779526148478 -10.316975588887093,8.227520617825792 -8.535837928386766,10.214116662030339 -9.580783603261445,11.150991624671002"/><polygon points="-14.354716292471073,8.007735920412205 -17.79893261168748,4.1662212150199025 -11.421850750768819,2.785290590930002 -9.977596995858818,4.0833084826134485"/><polygon points="-17.980820428458557,11.2923911733176 -16.10812549105625,9.61337470222061 -14.338030204559008,8.026346787485807 -12.237567429935279,10.369102842564818 -10.664996895435959,12.123073056294068 -12.435092181933197,13.710100971028872 -14.307787119335506,15.389117442125864 -15.880357653834828,13.635147228396612"/><polygon points="-25.004057602133322,13.03269352291231 -23.43354848738384,11.624610113806662 -21.622850377601505,10.001178614212872 -20.245598668632258,8.766365480465893 -19.08426656886728,10.06165994678625 -18.227679332982266,11.017056518350106 -19.61565569061899,12.261485132653888 -21.440453692921928,13.897558281087516 -23.02319235029972,15.316606425077001 -23.8640504860796,14.347107493526693"/><polygon points="-18.227679332982266,11.017056518350106 -15.706415744186023,13.829153743048956 -14.307787119335506,15.389117442125864 -15.586814265687885,16.535864625991657 -17.410127688061593,18.170606733205464 -18.80875631291211,16.610643034128557 -21.330019901708354,13.798545809429706 -19.506706479334646,12.163803702215898"/><polygon points="-21.330019901708354,13.798545809429706 -17.410127688061593,18.170606733205464 -19.17527923515785,19.753202201567248 -23.02319235029972,15.316606425077001"/><polygon points="-16.602808444732712,5.500321094634097 -19.987530801818963,8.53498759270301 -21.449667534095695,6.904189977873398 -17.79893261168748,4.1662212150199025"/><polygon points="-19.987530801818963,8.53498759270301 -21.8065771102464,10.165903900820158 -23.28440105934329,11.490887859690242 -25.004057602133322,13.03269352291231 -26.552201299303125,11.24770317028833 -27.922108423523202,9.6682173608031 -26.204584991838853,8.161679099841272 -24.728594177789358,6.867002943945648 -22.911804266372435,5.2733923630437936 -21.538975862255928,6.8045797257451115"/><polygon points="-27.922108423523202,9.6682173608031 -29.327665763484813,8.047627297698561 -26.696889777196485,6.0930369294290365 -25.488498474559023,7.486297013325512"/></g><g fill="#9C9E7C" stroke="#2A3014" stroke-width="0.3"><polygon points="-19.216725455246923,1.8175791027854906 -18.080091463795704,0.12282716171088426 -16.44733840494883,1.217879824789443 -17.583972396400046,2.9126317658640497"/><polygon points="-22.835376212950205,-3.06644092757147 -20.38760001874223,-1.4247696254942317 -22.474167163575412,1.6863582709833518 -24.92194335778339,0.044686968906112234"/><polygon points="-19.898466414184977,3.413825844619635 -28.40899551639935,5.2567456190198865 -28.308583609070407,5.094258935570642 -24.92194335778339,0.044686968906112234"/><polygon points="-13.489732293997339,-2.54007325290246 -10.685231947690186,-0.3292688873790546 -11.818742403839638,1.6641951258329994 -14.989152132000779,-0.3043978287514957"/><polygon points="-16.067873644610277,-0.8382253202345139 -14.429581985549124,-3.2809623755422566 -13.489732293997339,-2.54007325290246 -15.076882867391042,-0.1735889358160283"/><polygon points="-16.067873644610277,-0.8382253202345139 -17.715788143414176,-1.9434464378206815 -15.992454182756186,-4.512983858759473 -14.429581985549124,-3.2809623755422566"/><polygon points="-21.128632696672575,-5.611241548424766 -17.077924687855024,-2.8945180559316444 -18.78466820413265,-0.3497174350783494 -22.835376212950205,-3.06644092757147"/><polygon points="-17.077924687855024,-2.8945180559316444 -21.128632696672575,-5.611241548424766 -19.834121290230485,-7.541392973871656 -15.992454182756186,-4.512983858759473"/><polygon points="-19.485411336827653,-8.061328920575974 -18.055717998118702,-10.193040253460586 -15.34263183168466,-8.373431209939065 -16.912336737857547,-6.032958853262216"/><polygon points="-15.34263183168466,-8.373431209939065 -18.055717998118702,-10.193040253460586 -16.801292365018572,-12.063422709571954 -14.088206198584526,-10.243813666050436"/><polygon points="-15.777918146394237,-7.724407573196162 -13.883228017759361,-6.453679302421657 -15.115424017861816,-4.616441828736944 -16.912336737857547,-6.032958853262216"/><polygon points="-15.115424017861816,-4.616441828736944 -13.74359598036719,-6.661874436639356 -10.978268856864585,-4.807228497091377 -12.492804409476962,-2.549015134723799"/><polygon points="-11.054383776925345,-4.693739098139815 -8.990580955672435,-3.3095905502399026 -10.373164628665881,-0.8780904415160827 -12.492804409476962,-2.549015134723799"/><polygon points="-9.428188946447046,-7.11843945572795 -7.543541551317997,-5.854446632185072 -8.990580955672435,-3.3095905502399026 -11.054383776925345,-4.693739098139815"/><polygon points="-8.988088165299962,-6.823273245622404 -10.68421154335189,-7.960827030612588 -9.986314271297319,-9.001410688483885 -8.290190893245391,-7.8638569034937"/><polygon points="-10.68421154335189,-7.960827030612588 -13.33231616644434,-9.736854338548554 -11.936521622335198,-11.818021654291146 -9.288416999242749,-10.041994346355182"/><polygon points="-13.33231616644434,-9.736854338548554 -15.679473991670173,-11.311043045929978 -16.801292365018572,-12.063422709571954 -15.690882081101783,-13.719074395348548 -14.315892538365686,-15.769220892845148 -13.194074165017287,-15.016841229203171 -10.846916339791452,-13.442652521821747 -12.221905882527551,-11.392506024325147"/></g><g fill="#A38C7C" stroke="#301D14" stroke-width="0.3"><polygon points="14.027835345937149,-16.175269024874506 17.667625031223054,-14.991836884705103 14.736379818264123,-5.976435216093705 11.97766686977005,-6.934818855024252"/><polygon points="20.167410676617482,-10.715107068665883 20.60964897472729,-12.075264817692412 21.185993715825173,-13.847883265858405 22.742569035595636,-13.341782248687647 24.99244474048531,-12.610263273479719 24.416099999387427,-10.837644825313724 23.97386170127762,-9.477487076287195 21.723985996387945,-10.209006051495125"/><polygon points="16.649041992015366,-11.859060687512581 17.150316125220602,-13.400790337748273 17.667625031223054,-14.991836884705103 19.790666396542772,-14.301556510323765 21.185993715825173,-13.847883265858405 20.668684809822718,-12.256836718901575 19.27335749054032,-12.710509963366935 18.772083357335084,-11.168780313131244"/><polygon points="23.97386170127762,-9.477487076287195 22.934044758495258,-6.279403422430205 22.013555486902746,-3.4483265550407776 19.454908614367792,-4.337206748892371 17.33442334607101,-5.07386852765346 14.736379818264123,-5.976435216093705 15.634497162487444,-8.738704496031016 16.649041992015366,-11.859060687512581 19.264095043436505,-11.008808860652767 21.398463237041792,-10.314845709573229"/><polygon points="23.84455587611774,-9.079791261978023 25.617251801374913,-8.503421330171953 28.44476622247544,-7.584090343480614 27.30580459679526,-5.895478006108138 26.45078390464096,-4.627833463107599 24.19738221407002,-5.360498868505672 22.784623373643687,-5.819839754279311 23.239123001747927,-7.217708717093944"/><polygon points="23.84455587611774,-9.079791261978023 24.50306292742895,-11.1051099023079 24.99244474048531,-12.610263273479719 26.775858958763614,-12.03040842261356 28.479494415551276,-11.476492639279959 28.46468867379422,-9.817036787939754 26.529193995788788,-10.44633870017333 26.197284200416732,-8.314831042623036"/><polygon points="28.485333589817884,-12.130958458198103 27.426506820024894,-12.475222753278205 24.362662158649954,-13.471393564854296 24.794184970757357,-14.798594531569016 27.54703722257129,-13.90353901638245 27.655160346929993,-15.184825842581592 28.510100247495448,-14.90685281564201 28.498388867206387,-13.594218915439376"/><polygon points="25.181287259403128,-15.989174768101844 25.56248186822652,-17.16158521580471 26.10807448777414,-18.83962176863424 27.693824279812745,-18.324035036315113 28.538139238730732,-18.049516576402812 28.521632897027665,-16.19945423080425 28.510100247495448,-14.90685281564201 27.353519296234598,-15.282900661473047"/><polygon points="28.538139238730732,-18.049516576402812 26.10807448777414,-18.83962176863424 26.81333208935621,-21.008727420387487 28.556785818209708,-20.139460865018417"/><polygon points="24.362662158649954,-13.471393564854296 21.936220492966104,-14.260320756176585 20.10079512833238,-14.857086381446244 20.75310030252943,-16.863330393343013 22.57918896196827,-16.237848594066094 23.63222281788032,-19.47658247403057 21.82142552519876,-20.149094734208372 22.63571512441812,-22.65354157443865 24.434857163957577,-21.945182163650294 26.81333208935621,-21.008727420387487 26.02610604720295,-18.587517846167444 24.993287455904795,-15.410958474676637"/><polygon points="20.10079512833238,-14.857086381446244 18.710483077337123,-15.309128974089447 16.040827914115454,-16.177133995395383 14.163663800884198,-16.787470453282225 14.706481756637327,-18.828614751186866 15.115958604343462,-20.36835993456002 17.053739262471254,-19.73831476445099 19.809601737519877,-18.842280512789785 21.244809124125553,-18.37564076270096 20.75289502039693,-16.86269902314182"/><polygon points="22.63571512441812,-22.65354157443865 21.727346126618343,-19.859742085308806 21.244809124125553,-18.37564076270096 19.53609742972783,-18.931207021270303 18.346468752323492,-19.317999922354346 18.848882834493573,-20.863235624473504 19.79467015016818,-23.772119707657108 20.96078183533985,-23.312997432668155"/><polygon points="18.346468752323492,-19.317999922354346 16.46158152069448,-19.930847455694582 15.115958604343462,-20.36835993456002 15.785379791365553,-22.251552269148654 16.75177152758826,-24.970171794712535 18.019247539461105,-24.471140289013046 19.79467015016818,-23.772119707657108 18.93911396560939,-21.140752458079206"/></g><g fill-rule="nonzero" fill="#99948A" stroke="#1A1917" stroke-width="0.3"><path d="M 12.417388705366651,-18.04034017915345 L 1.1450852492504913,-20.95462968196142 L 2.1773749044593664,-24.94746643922668 L 13.449678360575527,-22.03317693641871 Z"/></g><g fill="#898B95" stroke="#171C2E" stroke-width="0.3"><polygon points="-1.459506985484532,25.476980885858154 -0.10553201698230219,26.038102902098412 2.9677336814818074,27.311743172621156 1.973152147235289,29.71164633544365 1.3375097773747502,31.245437262909416 -1.4182337310207738,30.10338634642724 -2.6323193637224165,29.600238065286213 -2.175026817817049,27.992534388218786"/><polygon points="5.606631242499556,27.7028683613756 4.005406464645171,27.03927967125571 1.9544619182291605,26.18931555385776 2.5308985720817527,24.798386704775833 3.2028065021792944,23.17708778553919 5.595815830929755,24.168812337814764 7.464099318909884,24.94307701926856 6.464337276851006,26.428504770561894"/><polygon points="7.464099318909884,24.94307701926856 3.202806502179295,23.17708778553919 4.052802846471883,21.126065476341843 8.728847125635687,23.063938372807282"/><polygon points="4.052802846471883,21.126065476341843 3.075254300656857,23.484868416204705 1.9544619182291605,26.18931555385776 0.23397010489062842,25.47629953976312 -1.2807590998807743,24.84855683756269 -0.4744409148545732,22.013783512346016 0.2288250794496145,19.541310835668494 2.019209961867666,20.283292333435632"/><polygon points="0.2288250794496145,19.541310835668494 1.651903879079791,14.538191848910305 9.625769425801744,21.731307987403987 8.728847125635687,23.063938372807282"/><polygon points="10.076016982802965,22.13747021193689 11.96260458273675,23.83933534024277 13.582159787509843,25.300314160662428 12.621875301694796,26.769115702785097 10.906897400562347,25.430500221991096 9.766698909706447,27.149010645625438 7.648903175987023,25.74363053061328 8.909153802257375,23.871173710796818"/></g><g fill="#9D8595" stroke="#2B162E" stroke-width="0.3"><polygon points="33.446616523319534,9.368954842056224 31.04736501237577,13.179345519176014 27.897078897331234,17.11267725357493 21.392080430620013,13.016738353225495 22.211358981741554,4.733203476725878 24.852959686607786,3.9578708096971242"/><polygon points="36.421883116659544,4.643761156651702 35.32485699601043,6.386012055989047 33.446616523319534,9.368954842056224 32.158775907636894,8.558052809992969 33.897544603229946,5.796613253891846 32.16317598156776,5.0804177012060805 33.07975449683879,3.624746124672108 34.913109279088395,4.183736006445185"/><polygon points="30.59388348125579,7.572702268116949 28.552817312967015,6.287524053292888 26.914274332856436,5.255798686027346 27.717732500334893,3.9797801040440763 28.38412518403372,2.921443177846607 30.022668164144307,3.9531685451121503 32.063734332433086,5.238346759936212 31.397341648734255,6.29668368613368"/><polygon points="24.255043690169547,21.43284176636803 20.157012647968983,25.504221442372117 20.595488368088272,21.070895420185586"/><polygon points="20.940053201217033,17.587080533868704 22.79962852546297,17.77100082877466 24.599608523298308,17.94902688005115 24.39607385945337,20.006918526583526 24.255043690169547,21.43284176636803 22.45506369233421,21.254815715091542 20.595488368088272,21.070895420185586 20.736518537372095,19.644972180401084"/><polygon points="20.940053201217033,17.587080533868704 21.392080430620013,13.016738353225495 27.897078897331234,17.11267725357493 27.034361316529854,18.18983479243611"/></g><g fill="#899E8F" stroke="#173028" stroke-width="0.3"><polygon points="-27.267576183530803,14.696558558235342 -28.2559391443715,10.873466092875763 -25.939296794135558,13.544525796965852"/><polygon points="-25.939296794135558,13.544525796965852 -24.45999010312731,15.25014794098845 -25.788269492522556,16.402180702257937 -27.267576183530803,14.696558558235342"/><polygon points="-26.636450735544646,17.137818541147094 -25.814083936848746,16.424569881684477 -24.45999010312731,15.25014794098845 -23.474414991002455,16.38650373931988 -22.061186374739073,18.015938688216355 -23.415280208460516,19.190360628912384 -24.237647007156415,19.903609288375005 -25.650875623419793,18.274174339478527"/><polygon points="-24.11256328484722,19.79512266488886 -22.061186374739073,18.015938688216355 -18.728998251752756,21.857909988123676 -20.780375161860903,23.63709396479618"/><polygon points="-20.780375161860903,23.63709396479618 -23.293583083494145,25.81682955711136 -23.341945242840573,25.74189555681829 -25.44265907205945,20.94873080992879 -24.11256328484722,19.79512266488886"/><polygon points="-21.738094728861572,24.467735715396508 -18.276129489228545,28.459338410392814 -19.77865870873248,29.76250015441513 -23.293583083494145,25.81682955711136"/><polygon points="-20.43801940796937,25.966706327568676 -21.738094728861572,24.467735715396508 -18.728998251752756,21.857909988123676 -17.428922930860555,23.35688060029585"/><polygon points="-16.92474892275143,27.287269719156576 -19.086638841492256,24.79463763633244 -17.428922930860555,23.35688060029585 -15.267033012119729,25.849512683119986"/><polygon points="-15.267033012119729,25.849512683119986 -14.210087423753384,27.068157749421914 -12.775185359746624,28.72258191295057 -14.353599965517269,30.091559969247854 -15.788502029524027,28.437135805719198 -17.0042397798607,29.4915598438258 -18.061185368227044,28.272914777523873 -16.845447617890372,27.21849073941727"/><polygon points="-12.775185359746624,28.72258191295057 -8.721241234164188,33.39672887196353 -15.569337715853942,31.145984007354457"/></g><g fill-rule="nonzero" stroke="#99948A" stroke-width="0.3" stroke-linecap="butt"><line x1="1.6204995834498312" y1="-51.29701695846306" x2="8.47266298331553" y2="-39.95290168814645"/><line x1="-0.3488322465624165" y1="-51.48126729568241" x2="8.176450735060097" y2="-37.36721495748367"/><line x1="-1.732807453880099" y1="-50.6964290962477" x2="7.455785074167411" y2="-35.48423307474245"/><line x1="-3.0772279867434413" y1="-49.84610606227173" x2="6.7351194132747265" y2="-33.60125119200123"/><line x1="-4.421648519606785" y1="-48.99578302829576" x2="5.718084288690745" y2="-32.208924473551896"/><line x1="-5.766069052470129" y1="-48.14545999431979" x2="4.341156207453732" y2="-31.412419387921048"/><line x1="-7.11048958533347" y1="-47.295136960343825" x2="2.7261786154389274" y2="-31.010017731049455"/><line x1="-8.454910118196816" y1="-46.44481392636786" x2="1.1112010234241216" y2="-30.607616074177862"/><line x1="-9.799330651060158" y1="-45.59449089239189" x2="-0.5037765685906808" y2="-30.20521441730627"/><line x1="-11.143751183923506" y1="-44.74416785841592" x2="-2.1187541606054845" y2="-29.802812760434676"/><line x1="-12.488171716786846" y1="-43.89384482443995" x2="-3.733731752620292" y2="-29.40041110356308"/><line x1="-13.83259224965019" y1="-43.043521790463984" x2="-5.348709344635094" y2="-28.998009446691487"/><line x1="-14.639114663954173" y1="-41.302680258236286" x2="-6.963686936649899" y2="-28.595607789819894"/><line x1="-10.998458877765946" y1="-32.199302372159885" x2="-9.208532908304646" y2="-29.235986213747758"/></g><g stroke="#CCC5B8" stroke-width="0.6" stroke-linecap="square"><polyline points="34.03463304473292,-23.721464834318358 38.17593374715976,-16.87678598925346"/><polyline points="39.168142178531596,-26.827440361138493 43.30944288095844,-19.982761516073595"/></g><g fill-rule="nonzero" stroke="#99948A" stroke-width="0.3" stroke-linecap="butt"><line x1="-37.10055080928849" y1="-12.79228309920441" x2="-38.76597324646468" y2="-14.562535523303957"/><line x1="-34.62502248844093" y1="-12.254091596967736" x2="-38.51491026079728" y2="-16.388828288857596"/><line x1="-32.149494167593375" y1="-11.715900094731063" x2="-38.263847275129876" y2="-18.215121054411235"/><line x1="-29.673965846745816" y1="-11.17770859249439" x2="-38.01278428946247" y2="-20.041413819964873"/><line x1="-27.198437525898257" y1="-10.639517090257717" x2="-37.76172130379508" y2="-21.867706585518512"/><line x1="-37.234740105540084" y1="-23.400713471295855" x2="-25.70761945747659" y2="-11.148018410502933"/><line x1="-36.429715608779524" y1="-24.638175627882045" x2="-24.437016083684256" y2="-11.890595835577697"/><line x1="-35.489099272262145" y1="-25.73151111866888" x2="-23.579229389647715" y2="-13.071974679279617"/><line x1="-34.444466725099275" y1="-26.714283100203943" x2="-22.721442695611174" y2="-14.253353522981536"/><line x1="-33.3998341779364" y1="-27.69705508173901" x2="-21.863656001574633" y2="-15.434732366683459"/><line x1="-32.35520163077352" y1="-28.67982706327407" x2="-21.00586930753809" y2="-16.61611121038538"/><line x1="-31.31056908361064" y1="-29.662599044809138" x2="-20.14808261350155" y2="-17.797490054087305"/><line x1="-30.265936536447764" y1="-30.645371026344204" x2="-19.29029591946501" y2="-18.978868897789226"/><line x1="-29.221303989284888" y1="-31.62814300787927" x2="-18.432509225428465" y2="-20.160247741491148"/><line x1="-28.176671442122007" y1="-32.61091498941433" x2="-17.57472253139192" y2="-21.341626585193076"/><line x1="-27.132038894959138" y1="-33.5936869709494" x2="-16.71693583735538" y2="-22.523005428894997"/><line x1="-26.087406347796257" y1="-34.576458952484465" x2="-16.439852268044117" y2="-24.321639745610796"/><line x1="-25.04277380063338" y1="-35.55923093401953" x2="-17.311665916365577" y2="-27.341488595741936"/><line x1="-23.95704483390889" y1="-36.4983196825641" x2="-19.328208456512872" y2="-31.578121278284648"/><line x1="-22.499221070383967" y1="-37.04189213366546" x2="-21.379744151000377" y2="-35.85194975867112"/></g><g fill="#A38582" stroke="#30161A" stroke-width="0.3"><polygon points="7.946124775390346,-33.128449158721914 9.946312819856576,-38.35461443089567 11.562913672898183,-34.75092751153713"/><polygon points="11.623648676377133,-29.507176090812724 9.87807674907624,-29.579910406115097 9.583261163551935,-30.237106068964117 11.00924217761222,-30.8767959685965"/><polygon points="11.00924217761222,-30.8767959685965 12.916933651196414,-31.73257942940984 13.531340149961324,-30.36295955162606 11.623648676377133,-29.507176090812724"/></g><g fill="#8F9E7C" stroke="#1D3014" stroke-width="0.3"><polygon points="26.98600717044561,-37.68288451138408 28.26958830879518,-35.33583124479174 23.40300989950018,-32.67434573724732 22.119428761150612,-35.02139900383966"/><polygon points="19.454161108008726,-33.501996789207986 15.458417454934803,-31.316762538341493 14.379089537794549,-33.359576169997894 18.345683957672186,-35.52886898209917"/><polygon points="15.458417454934803,-31.316762538341493 17.750996477915436,-32.570552230275624 19.454161108008726,-33.501996789207986 20.28771194122661,-31.977832755066498 18.791398963853897,-31.159513400256177 19.320638640092998,-30.441735671297092 17.448133764527107,-29.417680540569865 16.77725677047681,-30.057998165739818"/><polygon points="19.068824289867848,-40.5994890641312 20.279695496039242,-38.385387333467406 21.036965077209405,-37.00070506362526 19.072739193975853,-35.92648858500346 16.552210190999556,-34.54803521415998 14.379089537794549,-33.359576169997894 13.731112923337264,-34.8040297252317 12.695000759018807,-37.1137055159611 14.775407259977438,-38.25146007089176 17.188400259658795,-39.571103022948584"/><polygon points="16.377578580452973,-39.12767234806468 14.897898674445184,-38.318449461996984 12.695000759018807,-37.1137055159611 12.266384175162532,-38.06916707826132 14.412718766046622,-39.274611577397934 13.279186936623237,-41.50850497062028 14.63210894152185,-42.31929778988024 15.854405257036802,-40.084305022876926"/><polygon points="21.560924688024027,-28.30979121554808 20.453466724908974,-27.704132974551534 18.39384344754105,-28.515049233045378 17.448133764527107,-29.417680540569865 20.14763793918676,-30.894013732836903"/><polygon points="22.6861532134194,-28.925168008264592 23.247374700249367,-29.23209470872987 24.918839701929812,-30.146203041977632 25.748244600927684,-28.629619929807834 26.382522045606002,-27.469831191892723 24.711057043925553,-26.555722858644955 24.076779599247235,-27.71551159656007 23.515558112417267,-27.408584896094787"/><polygon points="23.505552953092547,-32.73042555926646 25.18559937746399,-33.649226991074514 28.26958830879518,-35.33583124479174 29.637878740736518,-32.833885374767306 30.69083657481633,-30.90853133969735 32.121595123052685,-28.292361294801815 29.037606191721494,-26.605757041084587 27.35755976735005,-25.68695560927653 25.926801219113695,-28.303125654172067 24.873843385033886,-30.22847968924202"/><polygon points="27.35755976735005,-25.68695560927653 28.659013871128696,-26.398708496957397 29.271627068556995,-25.278533259706364 27.846204389282185,-24.793459341807807"/><polygon points="32.121595123052685,-28.292361294801815 32.89269266113337,-26.882394334753904 33.514936119362474,-25.744609976898523 32.0052744078174,-25.04407756499907 29.92720969941314,-24.079787571334414 29.360854040609293,-25.115379992673514 28.659013871128696,-26.398708496957397 30.664592629752967,-27.495540470346004"/><polygon points="31.619564000564935,-30.472337773697642 33.63139395533382,-31.572588466881644 35.664844815818384,-32.68466342803847 37.00267036043474,-30.238423201526675 37.98213968294196,-28.44744435006626 35.99727733851503,-27.24652433507936 34.03351927668543,-26.058373243561757 33.013193735724236,-27.924058491149427"/><polygon points="29.044009588343346,-35.181789491150916 30.82485555895392,-36.15571723736708 33.08929040359679,-37.394115145491746 34.44453525558336,-34.91602337407677 35.664844815818384,-32.68466342803847 33.40040997117551,-31.446265519913805 31.619564000564935,-30.472337773697642 30.399254440329916,-32.70369771973594"/><polygon points="36.68158555870253,-30.825533053988153 35.93898619915258,-32.183390536096475 34.6064492460813,-34.619960469324354 36.958219868627154,-35.90612148483777 40.11373383908911,-37.63184210308525 41.12537480344599,-35.01977720161412 41.68914448389982,-33.56411946659626 38.8199587936536,-31.99498906515054"/><polygon points="40.11373383908911,-37.63184210308525 38.683294099002026,-36.84954819605892 36.149102822523666,-35.46362305760631 34.6064492460813,-34.619960469324354 33.74827038116331,-36.18915734208 35.34881264901098,-37.06447870584406 34.734284347106815,-38.29374670845766 37.43659507011221,-39.771614775357385 38.961930858349184,-40.60580642976035 39.462218027467266,-39.3140610367291"/><polygon points="33.66877686594758,-40.09862537126179 38.1988525084634,-42.576080711878085 38.961930858349184,-40.60580642976035 34.673906289465805,-38.26072652222614"/><polygon points="35.902248655445675,-41.320089878625936 35.44009381650824,-42.165149058752476 34.55557526544634,-43.78250856381709 35.87839775304115,-44.50594761764248 37.17647938493187,-45.21585613248078 37.847991869388984,-43.482005632797666 38.1988525084634,-42.576080711878085 37.061390342195004,-41.95401345716761"/><polygon points="37.17647938493187,-45.21585613248078 36.47133833350577,-44.830221189137276 34.55557526544634,-43.78250856381709 34.069580289347385,-44.671159901953125 32.99616707672237,-46.63391699756947 35.186425816350635,-47.83174869841278 36.070890886468156,-45.76565765835599 36.80751969104858,-46.16851295481768"/><polygon points="32.99616707672237,-46.63391699756947 31.62287220496547,-49.14501358387171 30.24027575740266,-51.67311828382369 31.785356003966903,-52.599069642851646 33.840086294945934,-53.83044924892625 34.919976374119784,-51.0421645979087 35.99260136921853,-48.27263845093304 34.282271272256814,-47.3372751662305"/><polygon points="28.621734149867773,-45.82672969729594 26.099676001950076,-44.447440051608375 24.465482859020657,-43.553715343890126 23.35295787830486,-45.58798907395757 22.546623067622537,-47.06238807752385 24.145545270583792,-48.02060639019994 26.613169606980314,-49.499429327026476 27.45719975326439,-47.956103663573984"/><polygon points="30.885676867604488,-50.4929897055016 27.178559667831053,-48.465602520468046 26.613169606980314,-49.499429327026476 30.24027575740266,-51.67311828382369"/><polygon points="32.054457958316306,-39.21576969405552 29.927468122390106,-38.05253915569624 28.038880164825116,-37.01968834018656 27.063426355719788,-38.80332474669716 25.459083675470175,-41.736896778812735 27.347671633035166,-42.76974759432241 29.47466146896136,-43.93297813268169 31.079004149210977,-40.99940610056611"/></g><g fill-rule="nonzero" stroke="#99948A" stroke-width="0.3" stroke-linecap="butt"><line x1="-60.80244133598864" y1="-36.5007710539072" x2="-54.128588154865774" y2="-45.10259897570898"/><line x1="-60.05438889511489" y1="-35.071809272148286" x2="-52.37070656051425" y2="-44.97519064034655"/><line x1="-58.69966901687613" y1="-34.424771928993266" x2="-51.124567761085544" y2="-44.18820479515832"/><line x1="-57.30970979487858" y1="-33.82315404036682" x2="-49.96553350582835" y2="-43.28895122698669"/><line x1="-55.919750572881014" y1="-33.22153615174038" x2="-48.80649925057114" y2="-42.38969765881505"/><line x1="-54.529791350883464" y1="-32.61991826311393" x2="-47.64746499531394" y2="-41.49044409064342"/><line x1="-53.1398321288859" y1="-32.018300374487495" x2="-46.488430740056735" y2="-40.591190522471784"/><line x1="-51.74987290688835" y1="-31.41668248586105" x2="-45.32939648479954" y2="-39.691936954300154"/><line x1="-50.359913684890785" y1="-30.815064597234606" x2="-44.170362229542334" y2="-38.792683386128516"/><line x1="-48.96995446289323" y1="-30.21344670860816" x2="-43.01132797428514" y2="-37.89342981795688"/><line x1="-47.57999524089568" y1="-29.611828819981717" x2="-41.852293719027934" y2="-36.99417624978524"/><line x1="-46.19003601889812" y1="-29.010210931355275" x2="-40.69325946377073" y2="-36.09492268161361"/><line x1="-44.48002122605779" y1="-28.821107803106045" x2="-39.55678725313053" y2="-35.166589237080835"/><line x1="-40.06165826287069" y1="-32.1227534644084" x2="-38.80873481225678" y2="-33.73762745532194"/><line x1="-37.526068682818256" y1="-36.5486937812785" x2="-50.931622680223306" y2="-46.94958763821537"/><line x1="-51.28544866529924" y1="-49.25647600262044" x2="-35.1534961907775" y2="-36.740266271554525"/><line x1="-50.30113192387032" y1="-50.5251468889188" x2="-33.969579322916644" y2="-37.854074499491155"/><line x1="-49.316815182441395" y1="-51.79381777521716" x2="-32.78566245505577" y2="-38.967882727427785"/><line x1="-48.33249844101247" y1="-53.062488661515516" x2="-31.601745587194902" y2="-40.08169095536442"/><line x1="-47.34818169958354" y1="-54.331159547813876" x2="-30.417828719334032" y2="-41.19549918330105"/><line x1="-46.363864958154615" y1="-55.599830434112235" x2="-29.23391185147316" y2="-42.30930741123769"/><line x1="-45.37954821672569" y1="-56.868501320410594" x2="-28.852250158669726" y2="-44.04555697383053"/><line x1="-44.39523147529676" y1="-58.137172206708954" x2="-30.091013954320992" y2="-47.039037197070066"/><line x1="-43.410914733867834" y1="-59.40584309300732" x2="-33.050064417780575" y2="-51.36722682798058"/><line x1="-42.42659799243891" y1="-60.67451397930568" x2="-36.00911488124015" y2="-55.6954164588911"/><line x1="-40.14304472988282" y1="-60.9351533322623" x2="-38.96816534469973" y2="-60.0236060898016"/><path d="M -43.41045140573975,-37.129510440711016 L -42.29239572553216,-36.262050695426666 L -41.18425881257429,-35.40228656983667 L -42.33150187981678,-33.92362241869638 L -43.439638792774645,-34.78338654428638 L -44.37487864669287,-33.57797011232614 L -45.49293432690046,-34.44542985761049 L -46.13931711362738,-34.94693533489245 L -45.20407725970915,-36.15235176685269 L -44.557694472982234,-35.65084628957073 Z" fill="#99948A" stroke="#1A1917" stroke-width="0.3"/></g><g fill-rule="nonzero" stroke="#99948A" stroke-width="0.3" stroke-linecap="butt"><line x1="-73.22116845247824" y1="-32.13947303892581" x2="-76.08147686397749" y2="-25.531105619204425"/><line x1="-71.26451206009675" y1="-32.936339577484446" x2="-74.88004159591142" y2="-24.5831328066822"/><line x1="-69.51988520009066" y1="-33.243339691801815" x2="-73.67049728068021" y2="-23.653894884032617"/><line x1="-67.77525834008456" y1="-33.55033980611918" x2="-72.31305662794014" y2="-23.06635205075185"/><line x1="-66.03063148007847" y1="-33.85733992043655" x2="-70.95561597520008" y2="-22.478809217471078"/><line x1="-64.31273633597351" y1="-34.1025799113616" x2="-69.59817532246" y2="-21.8912663841903"/><line x1="-62.841238264135605" y1="-33.77855178485629" x2="-68.24073466971993" y2="-21.30372355090953"/><line x1="-61.389194347741366" y1="-33.40957738385301" x2="-66.88329401697986" y2="-20.716180717628763"/><line x1="-60.0317536950013" y1="-32.82203455057224" x2="-65.5258533642398" y2="-20.12863788434799"/><line x1="-58.67431304226123" y1="-32.23449171729147" x2="-64.16841271149973" y2="-19.54109505106722"/><line x1="-57.316872389521166" y1="-31.6469488840107" x2="-62.81097205875965" y2="-18.95355221778645"/><line x1="-55.95943173678109" y1="-31.05940605072993" x2="-61.453531406019586" y2="-18.366009384505677"/><line x1="-54.60199108404103" y1="-30.47186321744916" x2="-60.09609075327951" y2="-17.778466551224906"/><line x1="-53.24455043130096" y1="-29.88432038416839" x2="-58.738650100539445" y2="-17.190923717944138"/><line x1="-51.88710977856089" y1="-29.29677755088762" x2="-57.38120944779938" y2="-16.603380884663366"/><line x1="-50.529669125820824" y1="-28.709234717606847" x2="-56.02376879505931" y2="-16.015838051382598"/><line x1="-49.17222847308076" y1="-28.121691884326076" x2="-54.666328142319244" y2="-15.428295218101828"/><line x1="-47.81478782034069" y1="-27.534149051045308" x2="-53.30888748957918" y2="-14.840752384821059"/><line x1="-46.542619242700674" y1="-26.749596272739794" x2="-51.95144683683911" y2="-14.253209551540287"/><line x1="-45.47514268656161" y1="-25.492129426662583" x2="-50.585857445077494" y2="-13.684493310960262"/><line x1="-45.71206115621271" y1="-21.221028961139336" x2="-49.18527589427341" y2="-13.196621864190691"/><line x1="-46.46222775814644" y1="-15.764136004857534" x2="-47.6420588499118" y2="-13.038291016865568"/><line x1="-75.59863627686713" y1="-21.982252681778963" x2="-51.398913930162585" y2="-11.507854848260276"/><line x1="-50.25027277745384" y1="-9.279367092552558" x2="-78.11675817809844" y2="-21.340854828920744"/><line x1="-51.174127093063774" y1="-7.9479202917916085" x2="-78.73548335011479" y2="-19.877338577328466"/><line x1="-52.097981408673704" y1="-6.616473491030659" x2="-79.35420852213115" y2="-18.41382232573618"/><line x1="-53.02183572428364" y1="-5.285026690269709" x2="-79.97293369414751" y2="-16.950306074143906"/><line x1="-53.94569003989357" y1="-3.95357988950876" x2="-80.59165886616387" y2="-15.486789822551621"/><line x1="-54.8695443555035" y1="-2.6221330887478134" x2="-79.75376058384411" y2="-13.392801314469661"/><line x1="-56.11817884891107" y1="-1.4312613219461534" x2="-78.08733532303555" y2="-10.940200378353916"/><line x1="-57.69695889296678" y1="-0.3832868905317135" x2="-76.06618117553033" y2="-8.33406166899145"/><line x1="-59.52282847606757" y1="0.557739448860028" x2="-74.04502702802515" y2="-5.727922959629"/><line x1="-61.34869805916837" y1="1.4987657882517693" x2="-72.02387288051995" y2="-3.121784250266547"/><line x1="-63.17456764226917" y1="2.4397921276435093" x2="-70.00271873301475" y2="-0.5156455409040932"/><line x1="-65.00043722536996" y1="3.380818467035252" x2="-67.98156458550955" y2="2.090493168458363"/><path d="M -50.255548757169024,-13.172915284686024 L -51.25067539190526,-13.603637262303154 L -50.504183252350245,-15.328309439010054 L -51.90806951982408,-15.935955389152001 L -51.341878653852085,-17.244065122001413 L -49.93799238637825,-16.636419171859465 L -48.94286575164201,-16.205697194242337 L -48.05060538270227,-15.819498958516311 L -48.61679624867427,-14.5113892256669 L -49.50905661761401,-14.897587461392924 Z" fill="#99948A" stroke="#1A1917" stroke-width="0.3"/></g><g stroke="#CCC5B8" stroke-width="0.6" stroke-linecap="square"/><g fill-rule="nonzero" stroke="#99948A" stroke-width="0.3" stroke-linecap="butt"><line x1="-39.87243821631538" y1="-65.706235041691" x2="-29.019450783497163" y2="-74.47550853683607"/><line x1="-39.31968961648162" y1="-64.15408878815656" x2="-27.49413947271511" y2="-73.70919829907879"/><line x1="-38.470797741124656" y1="-62.84122792888677" x2="-25.994625629458024" y2="-72.92204356577508"/><line x1="-37.59117270026456" y1="-61.55319963625697" x2="-25.01752854429747" y2="-71.71277322065907"/><line x1="-36.71092901646626" y1="-60.265671210521376" x2="-24.040431459136904" y2="-70.50350287554306"/><line x1="-35.830685332667954" y1="-58.97814278478579" x2="-23.063334373976353" y2="-69.29423253042705"/><line x1="-34.950441648869656" y1="-57.6906143590502" x2="-22.0862372888158" y2="-68.08496218531104"/><line x1="-34.07019796507136" y1="-56.403085933314614" x2="-21.109140203655237" y2="-66.87569184019502"/><line x1="-33.18995428127306" y1="-55.11555750757903" x2="-20.13204311849468" y2="-65.666421495079"/><line x1="-32.30971059747476" y1="-53.82802908184344" x2="-19.15494603333412" y2="-64.45715114996298"/><line x1="-31.429466913676464" y1="-52.54050065610785" x2="-18.177848948173565" y2="-63.24788080484697"/><line x1="-30.549223229878166" y1="-51.252972230372265" x2="-17.20075186301301" y2="-62.03861045973096"/><line x1="-29.668979546079868" y1="-49.96544380463668" x2="-16.223654777852452" y2="-60.82934011461494"/><line x1="-28.78873586228157" y1="-48.67791537890109" x2="-15.246557692691896" y2="-59.620069769498926"/><line x1="-27.908492178483264" y1="-47.3903869531655" x2="-14.269460607531336" y2="-58.410799424382915"/><line x1="-26.774240239688233" y1="-46.30809859352962" x2="-13.292363522370776" y2="-57.2015290792669"/><line x1="-25.56183496863695" y1="-45.28895855589766" x2="-12.315266437210223" y2="-55.99225873415089"/><line x1="-23.541175216994535" y1="-44.92289258085488" x2="-11.338169352049661" y2="-54.78298838903487"/><line x1="-21.26601332207746" y1="-44.762465736354855" x2="-10.361072266889106" y2="-53.57371804391885"/><line x1="-18.99085142716038" y1="-44.602038891854825" x2="-9.383975181728545" y2="-52.36444769880284"/><line x1="-16.715689532243307" y1="-44.441612047354795" x2="-8.73009302477647" y2="-50.89401791526316"/><line x1="-10.200109787765363" y1="-47.70746613118698" x2="-8.120370392456172" y2="-49.387906993114534"/><line x1="-6.428575697004309" y1="-52.36639682604692" x2="-24.865559134310065" y2="-75.18429042406684"/><line x1="-25.079704184543466" y1="-78.04453775392122" x2="-3.8251200507084846" y2="-51.73953830077417"/><line x1="-23.811034018979115" y1="-79.06963022047316" x2="-2.437375796868075" y2="-52.61726284860971"/><line x1="-22.54236385341477" y1="-80.09472268702508" x2="-1.0496315430276653" y2="-53.494987396445254"/><line x1="-21.273693687850415" y1="-81.11981515357702" x2="0.17278393414670745" y2="-54.5773253750779"/><line x1="-20.005023522286063" y1="-82.14490762012896" x2="0.9443356675384429" y2="-56.21765924104321"/><line x1="-17.926200800038586" y1="-82.16734285159576" x2="1.4105297446339868" y2="-58.23590842783096"/><line x1="-14.76053231828384" y1="-80.84468109459773" x2="1.8767238217295272" y2="-60.2541576146187"/><line x1="-10.799507669788902" y1="-78.5376743417429" x2="2.3429178988250676" y2="-62.27240680140645"/><line x1="-6.838483021293964" y1="-76.23066758888807" x2="2.809111975920615" y2="-64.29065598819419"/><line x1="-2.8774583727990457" y1="-73.92366083603325" x2="3.2753060530161537" y2="-66.30890517498193"/><line x1="1.0835662756958975" y1="-71.61665408317842" x2="3.737941307495573" y2="-68.33155881524577"/><path d="M -25.566767711777043,-51.9563436055818 L -24.986246851063974,-51.23788208088471 L -24.006723759985583,-50.02560927362028 L -25.35901942989759,-48.93294693993881 L -24.72588865024501,-48.14937457231862 L -25.81513822726291,-47.26925492743107 L -26.44826900691549,-48.05282729505126 L -27.42779209799388,-49.265100102315685 L -28.00831295870695,-49.983561627012776 L -26.91906338168905,-50.863681271900326 Z" fill="#99948A" stroke="#1A1917" stroke-width="0.3"/></g><g stroke="#CCC5B8" stroke-width="0.6" stroke-linecap="square"><polyline points="41.792147873723785,-38.835948476895986 49.2521934783485,-41.725190518836996"/><polyline points="39.62521634226803,-44.43098268036452 47.08526194689275,-47.32022472230553"/><polyline points="37.45828481081227,-50.02601688383306 44.91833041543699,-52.91525892577407"/></g><g fill-rule="nonzero" stroke="#99948A" stroke-width="0.3" stroke-linecap="butt"><line x1="-70.14084777783715" y1="-87.12886805973187" x2="-60.06232778226001" y2="-79.44967751299873"/><line x1="-71.70548405952071" y1="-86.24879471343091" x2="-60.261530136010165" y2="-77.52923044950752"/><line x1="-72.7537918093811" y1="-84.97531190003309" x2="-60.97706102158348" y2="-76.00219285311317"/><line x1="-73.51866948999871" y1="-83.48587341959843" x2="-61.976021976399565" y2="-74.69111092375566"/><line x1="-74.28354717061634" y1="-81.99643493916378" x2="-62.97498293121566" y2="-73.38002899439816"/><line x1="-75.04842485123396" y1="-80.50699645872912" x2="-63.97394388603175" y2="-72.06894706504065"/><line x1="-75.81330253185158" y1="-79.01755797829445" x2="-64.97290484084785" y2="-70.75786513568313"/><line x1="-76.57818021246919" y1="-77.5281194978598" x2="-65.97186579566393" y2="-69.44678320632563"/><line x1="-77.34305789308681" y1="-76.03868101742513" x2="-66.97082675048003" y2="-68.13570127696812"/><line x1="-78.10793557370442" y1="-74.54924253699048" x2="-67.96978770529613" y2="-66.82461934761062"/><line x1="-78.87281325432205" y1="-73.05980405655582" x2="-68.96874866011221" y2="-65.51353741825312"/><line x1="-79.63769093493967" y1="-71.57036557612116" x2="-69.96770961492831" y2="-64.20245548889561"/><line x1="-80.40256861555729" y1="-70.0809270956865" x2="-70.9666705697444" y2="-62.8913735595381"/><line x1="-81.1674462961749" y1="-68.59148861525185" x2="-71.96563152456051" y2="-61.58029163018059"/><line x1="-81.73185173823293" y1="-66.9493030529138" x2="-73.16506471793616" y2="-60.42195678272646"/><line x1="-81.93105409198309" y1="-65.0288559894226" x2="-74.72970099961974" y2="-59.54188343642551"/><line x1="-41.84002106873935" y1="-65.22252118283679" x2="-55.45768103367508" y2="-47.35008301186818"/><line x1="-42.7097314553311" y1="-66.55038025076401" x2="-57.75008563116174" y2="-46.81073329459393"/><line x1="-43.87365575125736" y1="-67.49209956214277" x2="-59.221705535256255" y2="-47.348618852844325"/><line x1="-45.06403761630837" y1="-68.39909475281696" x2="-60.41208740030726" y2="-48.25561404351853"/><line x1="-46.25441948135936" y1="-69.30608994349117" x2="-61.60246926535826" y2="-49.16260923419273"/><line x1="-47.44480134641037" y1="-70.21308513416537" x2="-62.79285113040927" y2="-50.06960442486693"/><line x1="-48.63518321146137" y1="-71.12008032483956" x2="-63.98323299546027" y2="-50.97659961554113"/><line x1="-49.825565076512376" y1="-72.02707551551377" x2="-65.17361486051126" y2="-51.883594806215335"/><line x1="-51.01594694156338" y1="-72.93407070618797" x2="-66.36399672556227" y2="-52.790589996889544"/><line x1="-52.20632880661439" y1="-73.84106589686218" x2="-67.55437859061327" y2="-53.69758518756374"/><line x1="-53.39671067166539" y1="-74.74806108753637" x2="-68.74476045566428" y2="-54.60458037823795"/><line x1="-54.58709253671639" y1="-75.65505627821057" x2="-69.93514232071527" y2="-55.51157556891214"/><line x1="-70.97890752473234" y1="-56.6109971541292" x2="-55.87923700946018" y2="-76.42849358017342"/><line x1="-71.01291063758667" y1="-59.03567657278922" x2="-58.263361630989365" y2="-75.76876631910966"/><line x1="-85.01197782331326" y1="-61.10507171374104" x2="-83.93376746183701" y2="-62.520164179730145"/><line x1="-87.88136476431052" y1="-55.070310404476025" x2="-82.56563551201695" y2="-62.04691597693528"/><line x1="-87.33822469508634" y1="-53.51430522173989" x2="-81.1975035621969" y2="-61.57366777414042"/><line x1="-86.6991860921672" y1="-52.08416164948331" x2="-80.1014851286599" y2="-60.74328537885018"/><line x1="-85.84493340914626" y1="-50.936474853945" x2="-79.00773911587933" y2="-59.909920554892146"/><line x1="-84.99068072612533" y1="-49.78878805840669" x2="-77.91399310309876" y2="-59.07655573093412"/><line x1="-84.1364280431044" y1="-48.641101262868375" x2="-76.8202470903182" y2="-58.243190906976096"/><line x1="-83.28217536008347" y1="-47.49341446733006" x2="-75.72650107753763" y2="-57.40982608301807"/><line x1="-82.42792267706254" y1="-46.34572767179175" x2="-74.63275506475706" y2="-56.57646125906003"/><line x1="-81.57366999404161" y1="-45.19804087625344" x2="-73.53900905197649" y2="-55.743096435102004"/><line x1="-80.71941731102069" y1="-44.050354080715124" x2="-72.44526303919594" y2="-54.90973161114398"/><line x1="-79.86516462799975" y1="-42.902667285176804" x2="-71.35151702641537" y2="-54.07636678718595"/><line x1="-79.01091194497883" y1="-41.75498048963849" x2="-70.2577710136348" y2="-53.24300196322792"/><line x1="-78.15665926195788" y1="-40.60729369410017" x2="-69.16402500085422" y2="-52.40963713926989"/><line x1="-77.30240657893697" y1="-39.459606898561866" x2="-68.07027898807365" y2="-51.57627231531186"/><line x1="-76.44815389591604" y1="-38.311920103023546" x2="-66.97653297529308" y2="-50.742907491353826"/><line x1="-75.5939012128951" y1="-37.16423330748523" x2="-65.88278696251253" y2="-49.909542667395804"/><line x1="-74.62602308444058" y1="-36.1656737300879" x2="-64.78904094973196" y2="-49.076177843437776"/><line x1="-73.52057572411718" y1="-35.347666288456566" x2="-63.695294936951385" y2="-48.24281301947975"/><line x1="-72.2084043613774" y1="-34.800972858274704" x2="-62.60154892417083" y2="-47.40944819552171"/><line x1="-70.2120176342852" y1="-35.15227488593971" x2="-61.50780291139026" y2="-46.57608337156368"/><line x1="-68.215630907193" y1="-35.50357691360472" x2="-60.44714953027872" y2="-45.69928626812869"/><line x1="-66.2192441801008" y1="-35.85487894126973" x2="-59.60218241676571" y2="-44.539412667563674"/><line x1="-63.841523319209955" y1="-36.706661282464765" x2="-58.75721530325269" y2="-43.37953906699867"/><path d="M -59.27799824134683,-49.30658043205733 L -58.53992481621711,-50.27526166585462 L -57.86082292753771,-51.1665459649532 L -57.04869313099635,-52.23242215901745 L -55.573225907154054,-51.10821007606117 L -56.38535570369542,-50.04233388199692 L -57.064457592374815,-49.15104958289834 L -55.818634003035996,-48.2018113282393 L -56.556707428165716,-47.23313009444201 L -57.802531017504535,-48.18236834910105 Z" fill="#99948A" stroke="#1A1917" stroke-width="0.3"/></g><g fill-rule="nonzero" stroke="#99948A" stroke-width="0.3" stroke-linecap="butt"><line x1="-2.8881954422360154" y1="-101.66313851337343" x2="-5.2512577621187955" y2="-97.6058690305674"/><line x1="-1.7721350702197125" y1="-101.0131150867801" x2="-5.15574867990777" y2="-95.20360590681253"/><line x1="-0.6560746982034094" y1="-100.36309166018678" x2="-5.0602395976967465" y2="-92.80134278305765"/><line x1="0.45998567381289385" y1="-99.71306823359346" x2="-4.964730515485722" y2="-90.39907965930277"/><line x1="1.5760460458291967" y1="-99.06304480700014" x2="-4.869221433274699" y2="-87.9968165355479"/><line x1="2.692106417845501" y1="-98.41302138040682" x2="-4.7737123510636765" y2="-85.59455341179302"/><line x1="3.808166789861804" y1="-97.7629979538135" x2="-4.678203268852656" y2="-83.19229028803814"/><line x1="4.9242271618781075" y1="-97.11297452722019" x2="-4.582694186641632" y2="-80.79002716428326"/><line x1="6.040287533894411" y1="-96.46295110062687" x2="-4.23342768040075" y2="-78.82345388412205"/><line x1="7.156347905910715" y1="-95.81292767403355" x2="-3.6901287320163156" y2="-77.19002539644453"/><line x1="8.27240827792701" y1="-95.16290424744022" x2="-2.7821893110411526" y2="-76.18266785458603"/><line x1="9.388468649943315" y1="-94.5128808208469" x2="-1.6661289390248477" y2="-75.53264442799271"/><line x1="10.504529021959616" y1="-93.86285739425358" x2="-0.5500685670085463" y2="-74.88262100139939"/><line x1="11.620589393975921" y1="-93.21283396766026" x2="0.5659918050077586" y2="-74.23259757480606"/><line x1="12.736649765992226" y1="-92.56281054106694" x2="1.6820521770240635" y2="-73.58257414821274"/><line x1="13.85271013800853" y1="-91.91278711447362" x2="2.7981125490403667" y2="-72.93255072161942"/><line x1="14.968770510024832" y1="-91.2627636878803" x2="3.9141729210566716" y2="-72.2825272950261"/><line x1="16.04319255792969" y1="-90.54124917097118" x2="5.769529963973067" y2="-72.90184230117111"/><line x1="17.075949285699746" y1="-89.74819721281396" x2="10.197176743786876" y2="-77.93766065665088"/><line x1="17.282997611811787" y1="-87.53744184854858" x2="15.304456146575635" y2="-84.14037701457198"/><line x1="-7.777540041173374" y1="-103.25166158858568" x2="-6.869753313148316" y2="-80.41883218132126"/><line x1="-8.178561291083357" y1="-79.32565930342852" x2="-9.213114361057912" y2="-105.34694054740665"/><line x1="-9.562887181911822" y1="-80.1319277470007" x2="-10.597440251886377" y2="-106.15320899097883"/><line x1="-10.947213072740288" y1="-80.93819619057288" x2="-11.981766142714845" y2="-106.95947743455102"/><line x1="-12.331538963568752" y1="-81.74446463414506" x2="-13.35608700092595" y2="-107.51409734007592"/><line x1="-13.715864854397218" y1="-82.55073307771724" x2="-14.685130627751548" y2="-106.92989546252879"/><line x1="-15.10019074522568" y1="-83.35700152128942" x2="-15.990060271811679" y2="-105.73917397215213"/><line x1="-16.484516636054146" y1="-84.1632699648616" x2="-17.294989915871813" y2="-104.54845248177547"/><line x1="-17.93793461196562" y1="-86.7073560514881" x2="-18.56927931316778" y2="-102.58706150949888"/><line x1="19.20048085456163" y1="-94.31797854359328" x2="18.535862980084016" y2="-93.1768601747899"/><line x1="20.738683878191466" y1="-99.75731788884545" x2="16.954008267591586" y2="-93.25920367154083"/><line x1="22.276886901821296" y1="-105.19665723409759" x2="15.37248830133713" y2="-93.3421219122096"/><line x1="21.719456097236908" y1="-107.03788953544779" x2="14.155501819953326" y2="-94.0509274056953"/><line x1="20.84733346416063" y1="-108.33881041907294" x2="12.938515338569516" y2="-94.759732899181"/><line x1="19.713945291859538" y1="-109.19115037011466" x2="11.721528857185712" y2="-95.4685383926667"/><line x1="18.46636554025644" y1="-109.84742862358829" x2="10.504542375801908" y2="-96.17734388615241"/><line x1="17.218785788653335" y1="-110.5037068770619" x2="9.287555894418103" y2="-96.88614937963811"/><line x1="15.971206037050237" y1="-111.15998513053552" x2="8.070569413034299" y2="-97.59495487312381"/><line x1="14.723626285447136" y1="-111.81626338400915" x2="6.853582931650495" y2="-98.30376036660951"/><line x1="13.476046533844029" y1="-112.47254163748276" x2="5.636596450266683" y2="-99.01256586009521"/><line x1="12.22846678224093" y1="-113.1288198909564" x2="4.419609968882878" y2="-99.7213713535809"/><line x1="10.980887030637831" y1="-113.78509814443001" x2="3.202623487499075" y2="-100.43017684706662"/><line x1="9.733307279034733" y1="-114.44137639790362" x2="1.985637006115271" y2="-101.13898234055232"/><line x1="8.485727527431632" y1="-115.09765465137724" x2="0.7686505247314676" y2="-101.84778783403802"/><line x1="7.2381477758285335" y1="-115.75393290485087" x2="-0.448335956652335" y2="-102.55659332752371"/><line x1="5.990568024225433" y1="-116.41021115832449" x2="-1.6653224380361389" y2="-103.26539882100941"/><line x1="4.74298827262233" y1="-117.0664894117981" x2="-2.8823089194199496" y2="-103.97420431449511"/><line x1="3.495408521019228" y1="-117.72276766527173" x2="-4.0992954008037525" y2="-104.68300980798082"/><line x1="2.247828769416131" y1="-118.37904591874535" x2="-5.316281882187554" y2="-105.39181530146652"/><line x1="0.7827054476684916" y1="-118.66181185267426" x2="-6.533268363571359" y2="-106.10062079495222"/><line x1="-0.7991492648239333" y1="-118.74415534942521" x2="-7.750254844955163" y2="-106.80942628843792"/><line x1="-3.2130260027060222" y1="-117.39795523806539" x2="-8.967241326338968" y2="-107.51823178192362"/><line x1="-6.691464376214009" y1="-114.22395168688548" x2="-9.852963441482586" y2="-108.7958029793769"/><line x1="-10.169902749721993" y1="-111.04994813570558" x2="-10.725086074558861" y2="-110.09672386300204"/><path d="M -6.903242731177587,-106.2761946540652 L -8.025368106464605,-106.9297505008637 L -8.822414976677868,-107.39397192716119 L -9.915832583043914,-108.03080760111624 L -9.272811581615953,-109.1348451307005 L -8.179393975249907,-108.49800945674545 L -7.664911755375417,-109.38135180137164 L -8.758329361741463,-110.01818747532668 L -8.128914446204968,-111.09886398027635 L -7.035496839838922,-110.4620283063213 L -6.238449969625658,-109.99780688002382 L -5.116324594338641,-109.3442510332253 L -5.745739509875136,-108.26357452827564 L -6.260221729749626,-107.38023218364945 Z" fill="#99948A" stroke="#1A1917" stroke-width="0.3"/></g><g fill-rule="nonzero" stroke="#99948A" stroke-width="0.3" stroke-linecap="butt"><line x1="-56.14131470737149" y1="-80.50289999056962" x2="-51.86860266873137" y2="-88.52052064241131"/><line x1="-55.40041090283845" y1="-79.00130626507382" x2="-50.39617940085262" y2="-88.39160204772341"/><line x1="-54.384752280612226" y1="-78.01528201409639" x2="-49.01420792071833" y2="-88.09295328754399"/><line x1="-53.28868263296199" y1="-77.18014672831131" x2="-47.81395278330552" y2="-87.45331906216"/><line x1="-52.19261298531175" y1="-76.34501144252624" x2="-46.6136976458927" y2="-86.81368483677603"/><line x1="-51.09654333766151" y1="-75.50987615674117" x2="-45.41344250847989" y2="-86.17405061139205"/><line x1="-50.00047369001127" y1="-74.67474087095611" x2="-44.213187371067086" y2="-85.53441638600806"/><line x1="-48.90440404236103" y1="-73.83960558517103" x2="-43.01293223365427" y2="-84.89478216062408"/><line x1="-47.80833439471078" y1="-73.00447029938596" x2="-41.812677096241444" y2="-84.2551479352401"/><line x1="-46.712264747060544" y1="-72.16933501360089" x2="-40.612421958828634" y2="-83.61551370985612"/><line x1="-45.616195099410305" y1="-71.33419972781581" x2="-39.41216682141583" y2="-82.97587948447213"/><line x1="-44.52012545176006" y1="-70.49906444203074" x2="-38.21191168400301" y2="-82.33624525908814"/><line x1="-43.42405580410982" y1="-69.66392915624567" x2="-37.011656546590196" y2="-81.69661103370417"/><line x1="-42.25357144755847" y1="-68.96843092100153" x2="-35.811401409177385" y2="-81.05697680832019"/><line x1="-40.78114817967972" y1="-68.83951232631362" x2="-34.611146271764575" y2="-80.4173425829362"/><line x1="-38.92677611740096" y1="-69.42730960534564" x2="-33.41089113435176" y2="-79.77770835755223"/><line x1="-36.22020484785302" y1="-71.61423406680746" x2="-32.21063599693894" y2="-79.13807413216824"/><line x1="-33.51363357830508" y1="-73.80115852826928" x2="-31.11437991355274" y2="-78.3032886876534"/><line x1="-28.618015602511985" y1="-79.8297263138302" x2="-48.589695642597086" y2="-90.47293848919529"/><line x1="-25.843887680202887" y1="-79.99835536785508" x2="-49.520646349136726" y2="-92.61606031969667"/><line x1="-49.23062141986095" y1="-94.10850565593957" x2="-24.61562413001141" y2="-80.99079906710573"/><line x1="-48.54704318898879" y1="-95.39122044959423" x2="-23.387360579819923" y2="-81.98324276635638"/><line x1="-47.86346495811664" y1="-96.67393524324888" x2="-22.159097029628434" y2="-82.97568646560704"/><line x1="-47.17988672724447" y1="-97.95665003690354" x2="-20.93083347943696" y2="-83.9681301648577"/><line x1="-46.496308496372315" y1="-99.23936483055819" x2="-20.324812405031917" y2="-85.29217634727588"/><line x1="-45.81273026550016" y1="-100.52207962421285" x2="-19.975774096474012" y2="-86.75317255577266"/><line x1="-45.129152034628" y1="-101.8047944178675" x2="-20.07471857795773" y2="-88.45290560942996"/><line x1="-44.44557380375584" y1="-103.08750921152216" x2="-20.173663059441445" y2="-90.15263866308726"/><line x1="-43.76199557288368" y1="-104.37022400517682" x2="-20.27260754092516" y2="-91.85237171674456"/><line x1="-43.07841734201153" y1="-105.65293879883147" x2="-20.371552022408878" y2="-93.55210477040185"/><line x1="-42.39483911113936" y1="-106.93565359248613" x2="-20.47049650389259" y2="-95.25183782405915"/><line x1="-41.53910755937425" y1="-108.12662526201302" x2="-20.569440985376307" y2="-96.95157087771645"/><line x1="-39.74476913667821" y1="-108.8173990485114" x2="-20.668385466860023" y2="-98.65130393137375"/><line x1="-34.21495646442168" y1="-107.517481769767" x2="-20.76732994834374" y2="-100.35103698503104"/><line x1="-24.83545414300623" y1="-104.16600630147278" x2="-22.386079286374546" y2="-102.86069717155422"/><line x1="-45.75030270209356" y1="-111.63928147821927" x2="-43.86030600262085" y2="-110.63207347955047"/><line x1="-53.49278740871467" y1="-114.01862429492593" x2="-44.096306115806364" y2="-109.01109644040667"/><line x1="-55.65327260778645" y1="-113.4232346403338" x2="-44.39976300042954" y2="-107.42606814116034"/><line x1="-57.36484371246165" y1="-112.58861183432" x2="-45.12473810311377" y2="-106.06567331399053"/><line x1="-59.07641481713684" y1="-111.75398902830621" x2="-45.84971320579801" y2="-104.70527848682072"/><line x1="-60.787985921812044" y1="-110.9193662222924" x2="-46.574688308482244" y2="-103.34488365965092"/><line x1="-62.34309749018108" y1="-110.00136374874822" x2="-47.29966341116648" y2="-101.9844888324811"/><line x1="-63.65892069087851" y1="-108.95584086314486" x2="-48.02463851385072" y2="-100.6240940053113"/><line x1="-64.75573311684154" y1="-107.79360380329521" x2="-48.74961361653496" y2="-99.2636991781415"/><line x1="-65.83991392228921" y1="-106.62463516067467" x2="-49.4745887192192" y2="-97.90330435097168"/><line x1="-66.9240947277369" y1="-105.45566651805414" x2="-50.19956382190343" y2="-96.54290952380187"/><line x1="-68.00827553318456" y1="-104.28669787543362" x2="-50.92453892458767" y2="-95.18251469663207"/><line x1="-69.09245633863223" y1="-103.11772923281308" x2="-51.649514027271906" y2="-93.82211986946226"/><line x1="-70.17663714407992" y1="-101.94876059019255" x2="-52.374489129956146" y2="-92.46172504229244"/><line x1="-71.26081794952758" y1="-100.77979194757202" x2="-53.09946423264038" y2="-91.10133021512264"/><line x1="-72.02307566607703" y1="-99.43926559261001" x2="-53.82443933532462" y2="-89.74093538795283"/><line x1="-72.3171240020888" y1="-97.84922333465153" x2="-54.54941443800886" y2="-88.38054056078302"/><line x1="-71.84468443087908" y1="-95.85070800832641" x2="-55.27438954069309" y2="-87.02014573361322"/><line x1="-71.37224485966935" y1="-93.8521926820013" x2="-55.99936464337733" y2="-85.6597509064434"/><line x1="-70.89980528845963" y1="-91.8536773556762" x2="-56.724339746061574" y2="-84.2993560792736"/><line x1="-68.75254195766237" y1="-88.96262296434227" x2="-57.985964574445404" y2="-83.2249500564011"/><line x1="-61.125537399108396" y1="-83.15133109493675" x2="-59.371559641861346" y2="-82.21660966019601"/><path d="M -41.39763092542457,-90.55835330909328 L -42.52148400126347,-91.15727171335783 L -43.49504635303894,-91.67609790399861 L -44.568503056957965,-92.24815931485374 L -43.971558141482966,-93.36830919601623 L -43.043139482374194,-95.11045997695085 L -41.969682778455166,-94.53839856609572 L -40.996120426679695,-94.01957237545494 L -39.8722673508408,-93.42065397119039 L -40.80068600994957,-91.67850319025577 Z" fill="#99948A" stroke="#1A1917" stroke-width="0.3"/></g><g><path fill="none" stroke="#1A1917" stroke-width="1.9" stroke-linejoin="round" stroke-linecap="round" d="M -31.42101635941006,6.421403774857313 L -22.183974560020186,-8.525989684645984 L -13.280653197590855,-20.788007234437114 M -7.943350895107157,-24.435321054051833 L 5.588235230585823,-27.806967016201877 L 13.66629913851305,-27.470371062679405 M 18.303282701948262,-26.455007322421807 L 30.57012213663776,-21.62529907080635 M 30.392583429281892,-1.7264212168320285 M 39.11619877741476,4.024453313924377 L 30.047769724243455,18.426552202979156 L 21.036687390118487,27.379031356054423 M 16.928393378646575,29.48326181782441 L 5.8417900173286155,31.239565416826462 L -5.257309621342572,36.587830962275724 L -22.272051851425516,30.995642855785007 L -26.93632817054088,23.76865200618431 L -31.42101635941006,6.421403774857313"/><g stroke="#1A1917" stroke-width="3.8" stroke-linecap="butt"><line x1="-15.285801060766321" y1="-20.158366989669833" x2="-12.164317209761364" y2="-22.3254707176707"/><line x1="-9.786981751480003" y1="-23.9759461903186" x2="-6.665497900475046" y2="-26.143049918319466"/></g><g stroke="#1A1917" stroke-width="3.8" stroke-linecap="butt"><line x1="15.564651880056523" y1="-27.39127069179291" x2="16.535374921886298" y2="-27.15106915961472" stroke="#CCC5B8" stroke-width="3.8" stroke-linecap="butt"/><line x1="11.87590432110338" y1="-28.304036514070035" x2="15.564651880056523" y2="-27.39127069179291"/><line x1="16.535374921886298" y1="-27.15106915961472" x2="20.22412248083944" y2="-26.238303337337598"/></g><g stroke="#1A1917" stroke-width="3.8" stroke-linecap="butt"><line x1="19.688808720069865" y1="28.718144155943946" x2="18.804991858578205" y2="29.18597719811074" stroke="#CCC5B8" stroke-width="3.8" stroke-linecap="butt"/><line x1="23.04731279373816" y1="26.94037859571013" x2="19.688808720069865" y2="28.718144155943946"/><line x1="18.804991858578205" y1="29.18597719811074" x2="15.446487784909909" y2="30.96374275834456"/></g><polygon points="-30.537985795770222,8.18568514006748 -33.726055250764844,7.702970783402696 -33.24334089410006,4.514901328408074 -30.05527143910544,4.997615685072859" stroke="none" fill="#1A1917"/><polygon points="-22.13752170713548,-6.553611971222713 -24.815421464812836,-8.34962224063421 -23.01941119540134,-11.027521998311567 -20.34151143772398,-9.231511728900069" stroke="none" fill="#1A1917"/><polygon points="4.099267503495527,-26.512591947053256 3.773270132752967,-29.72047687551764 6.981155061217349,-30.0464742462602 7.307152431959909,-26.838589317795815" stroke="none" fill="#1A1917"/><polygon points="28.972366421016492,-23.251821948973014 32.196645014804425,-23.223054786427618 32.167877852259025,-19.998776192639685 28.943599258471096,-20.02754335518508" stroke="none" fill="#1A1917"/><polygon points="36.88281447246154,4.483141166814145 38.65751092452499,1.7910690089711583 41.34958308236798,3.5657654610346095 39.574886630304526,6.257837618877597" stroke="none" fill="#1A1917"/><polygon points="30.168003386997,16.457294581871444 32.68471169196348,18.472977917049057 30.669028356785866,20.989686222015536 28.152320051819387,18.974002886837923" stroke="none" fill="#1A1917"/><polygon points="7.324643841593045,30.579724775675757 8.286982208516552,33.657175809818625 5.2095311743736845,34.61951417674213 4.247192807450178,31.542063142599265" stroke="none" fill="#1A1917"/><polygon points="-3.723300355829095,35.34716691215227 -3.511465547102161,38.56460782284692 -6.728906457796811,38.77644263157385 -6.940741266523745,35.5590017208792" stroke="none" fill="#1A1917"/><polygon points="-20.300974892832055,31.08100874623247 -22.271805682975696,33.63299346339318 -24.8237904001364,31.662162673249533 -22.85295960999276,29.11017795608883" stroke="none" fill="#1A1917"/><polygon points="-25.247607483809603,24.788776583947136 -28.200832820677135,26.083094979738387 -29.495151216468386,23.129869642870855 -26.541925879600853,21.835551247079604" stroke="none" fill="#1A1917"/></g><g id="labels" style="font: bold italic 2px &quot;Archivo Narrow&quot;, sans-serif" fill="#1A1917"><text text-anchor="middle" stroke="#CCC5B8" stroke-width="0.7993842714242074" x="-0.536731789940326" y="0.9085810443933887">Market</text><text text-anchor="middle" x="-0.536731789940326" y="0.9085810443933887">Market</text><text text-anchor="middle" stroke="#CCC5B8" stroke-width="0.7993842714242074" x="2.106403325547538" y="-13.877204736579591">Craftsmen</text><text text-anchor="middle" x="2.106403325547538" y="-13.877204736579591">Craftsmen</text><text text-anchor="middle" stroke="#CCC5B8" stroke-width="0.7993842714242074" x="13.383417040438673" y="11.061137775198732">Gate</text><text text-anchor="middle" x="13.383417040438673" y="11.061137775198732">Gate</text><text text-anchor="middle" stroke="#CCC5B8" stroke-width="0.7993842714242074" x="-12.219514771473538" y="15.716632950039434">Merchant</text><text text-anchor="middle" x="-12.219514771473538" y="15.716632950039434">Merchant</text><text text-anchor="middle" stroke="#CCC5B8" stroke-width="0.7993842714242074" x="-15.900211628163726" y="-6.382898656722081">Craftsmen</text><text text-anchor="middle" x="-15.900211628163726" y="-6.382898656722081">Craftsmen</text><text text-anchor="middle" stroke="#CCC5B8" stroke-width="0.7993842714242074" x="21.27034461159637" y="-12.259899813585271">Docks</text><text text-anchor="middle" x="21.27034461159637" y="-12.259899813585271">Docks</text><text text-anchor="middle" stroke="#CCC5B8" stroke-width="0.7993842714242074" x="5.585609537130324" y="-23.32559444345289">Temple</text><text text-anchor="middle" x="5.585609537130324" y="-23.32559444345289">Temple</text><text text-anchor="middle" stroke="#CCC5B8" stroke-width="0.7993842714242074" x="5.01561893483931" y="25.624042776828123">Craftsmen</text><text text-anchor="middle" x="5.01561893483931" y="25.624042776828123">Craftsmen</text><text text-anchor="middle" stroke="#CCC5B8" stroke-width="0.7993842714242074" x="27.49847078369172" y="10.689417101811523">Docks</text><text text-anchor="middle" x="27.49847078369172" y="10.689417101811523">Docks</text><text text-anchor="middle" stroke="#CCC5B8" stroke-width="0.7993842714242074" x="-20.49373556739462" y="24.16945155687263">Craftsmen</text><text text-anchor="middle" x="-20.49373556739462" y="24.16945155687263">Craftsmen</text><text text-anchor="middle" stroke="#CCC5B8" stroke-width="0.7993842714242074" x="10.6112576870673" y="-31.746946259179037">Gate</text><text text-anchor="middle" x="10.6112576870673" y="-31.746946259179037">Gate</text><text text-anchor="middle" stroke="#CCC5B8" stroke-width="0.7993842714242074" x="28.360702506825643" y="-36.911916019538346">Docks</text><text text-anchor="middle" x="28.360702506825643" y="-36.911916019538346">Docks</text></g></g></svg>