<svg width="135.53233765490967" height="167.0098205802672" xmlns="http://www.w3.org/2000/svg"><rect x="0" y="0" width="135.53233765490967" height="167.0098205802672" id="background" fill="#CCC5B8"/><g id="map" transform="translate(67.76616882745483 83.5049102901336)"><g id="waterbody"><polygon points="-65.35166073111544,14.01248279306498 -54.57180735621237,16.372554348204723 -39.806532451879406,29.199243846047956 -45.512827972390596,42.45018251205408 -70.52059490218495,43.92556116428304 -85.92756493277102,48.42132127520277 -108.30371034795242,36.75315396228081 -113.15705151192157,15.630910539713424 -103.34811081662144,5.903132342299649 -76.57983336627748,8.807413533002844" fill="#67635C" stroke="#99948A" stroke-width="0.3"/><polygon points="-56.42443563522467,20.06169366103015 -44.636514526651894,30.301936722157606 -48.2109745001723,38.60240936731945 -85.50413908848832,44.13094895548553 -104.81843011511913,34.059402893924116 -108.76028842494135,16.904027257968895 -101.88474799277766,10.0853773762864 -77.66530598066709,12.713117245449915" fill="none" stroke="#CCC5B8" stroke-width="0.15"/><polygon points="-55.368500175195294,31.576050487112372 -84.10812631319827,35.836567464071244 -98.95802234509009,18.4498674442599 -79.42676344121872,20.568952916625214" fill="none" stroke="#CCC5B8" stroke-width="0.15"/></g><g fill="none"><path d="M 34.74187723475826,-4.99831159709755 C 45.88847517846226,-6.070540411229648 45.88847517846226,-6.070540411229648 51.33762596114307,-7.260047184453455 C 55.00186976843944,-8.059922798351977 58.53993203838015,-9.566563540184593 62.11307071468974,-10.973227934351147 C 67.43370772282404,-13.067843148490383 72.89084583891109,-15.060705718254908 78.02828170985472,-17.767558507088886 C 81.53501960684571,-19.615216267619985 84.7983400276098,-21.998991898083396 87.88470897018524,-24.551992251246663 C 91.30045445957904,-27.377448184412383 94.98027532333879,-32.080587822527406 100.71055402319239,-36.53001053532072 C 106.1151608343195,-40.72655690919269 112.76380594135156,-50.59452213428193 125.93664881903642,-54.09840252159688 C 147.7848781405965,-59.909872598952596 147.7848781405965,-59.909872598952596 193.45591780951708,-61.199602680521146" stroke="#67635C" stroke-width="2.3" stroke-linejoin="round" stroke-linecap="butt"/><path d="M 34.74187723475826,-4.99831159709755 C 45.88847517846226,-6.070540411229648 45.88847517846226,-6.070540411229648 51.33762596114307,-7.260047184453455 C 55.00186976843944,-8.059922798351977 58.53993203838015,-9.566563540184593 62.11307071468974,-10.973227934351147 C 67.43370772282404,-13.067843148490383 72.89084583891109,-15.060705718254908 78.02828170985472,-17.767558507088886 C 81.53501960684571,-19.615216267619985 84.7983400276098,-21.998991898083396 87.88470897018524,-24.551992251246663 C 91.30045445957904,-27.377448184412383 94.98027532333879,-32.080587822527406 100.71055402319239,-36.53001053532072 C 106.1151608343195,-40.72655690919269 112.76380594135156,-50.59452213428193 125.93664881903642,-54.09840252159688 C 147.7848781405965,-59.909872598952596 147.7848781405965,-59.909872598952596 193.45591780951708,-61.199602680521146" stroke="#CCC5B8" stroke-width="1.7" stroke-linejoin="round" stroke-linecap="round"/></g><g fill="none"><path d="M -18.962412423893994,-23.875952577946293 C -24.172456631568487,-32.510512921921375 -24.172456631568487,-32.510512921921375 -26.76939551377011,-36.823837496823984 C -28.739868591512646,-40.09664842382022 -29.758356337124827,-43.79781914796981 -32.20899462868053,-45.877551825801575 C -34.90081526731966,-48.16196375404493 -39.111965038990434,-48.97718411770244 -43.24390711708564,-50.80492162939237 C -47.27258217786038,-52.5869796524279 -52.62765801052914,-53.623243521106595 -57.4973540136585,-57.06369194670267 C -62.62680606526827,-60.687658457916235 -66.04476501644116,-68.63330510544169 -73.811431368854,-72.40092898155243 C -79.58650314399097,-75.2024267309053 -89.92132614089844,-76.94594808366445 -103.78061384221417,-79.51578488875754 C -130.6997742493299,-84.50722822028196 -130.6997742493299,-84.50722822028196 -184.88416582045093,-92.99641752234861" stroke="#67635C" stroke-width="2.3" stroke-linejoin="round" stroke-linecap="butt"/><path d="M -18.962412423893994,-23.875952577946293 C -24.172456631568487,-32.510512921921375 -24.172456631568487,-32.510512921921375 -26.76939551377011,-36.823837496823984 C -28.739868591512646,-40.09664842382022 -29.758356337124827,-43.79781914796981 -32.20899462868053,-45.877551825801575 C -34.90081526731966,-48.16196375404493 -39.111965038990434,-48.97718411770244 -43.24390711708564,-50.80492162939237 C -47.27258217786038,-52.5869796524279 -52.62765801052914,-53.623243521106595 -57.4973540136585,-57.06369194670267 C -62.62680606526827,-60.687658457916235 -66.04476501644116,-68.63330510544169 -73.811431368854,-72.40092898155243 C -79.58650314399097,-75.2024267309053 -89.92132614089844,-76.94594808366445 -103.78061384221417,-79.51578488875754 C -130.6997742493299,-84.50722822028196 -130.6997742493299,-84.50722822028196 -184.88416582045093,-92.99641752234861" stroke="#CCC5B8" stroke-width="1.7" stroke-linejoin="round" stroke-linecap="round"/></g><g fill="none"><polyline points="-48.79599673575344,6.293716146148915 -43.020186115294514,-3.7851220559068923 -33.23325945237203,-3.4351073014848303 -23.098424011019596,7.55247262441248 -12.562388410292,4.075464775764064 -6.092573191638913,-4.1856994975226325 6.9586356831255864,-7.328092681011976 8.576226564733151,-19.391573170388767 10.143337958818549,-28.41891171763145 5.709625416727151,-37.47170240813585 0.5905537080455131,-51.64433959632154 -8.618571081313195,-59.68259514177142 -9.108645025232553,-71.5137638818848 1.9151258886126155,-92.193803905164 2.723572025955165,-113.25539267925289" stroke="#99948A" stroke-width="3.6841150818784327" stroke-linejoin="round" stroke-linecap="butt"/><polyline points="-48.79599673575344,6.293716146148915 -43.020186115294514,-3.7851220559068923 -33.23325945237203,-3.4351073014848303 -23.098424011019596,7.55247262441248 -12.562388410292,4.075464775764064 -6.092573191638913,-4.1856994975226325 6.9586356831255864,-7.328092681011976 8.576226564733151,-19.391573170388767 10.143337958818549,-28.41891171763145 5.709625416727151,-37.47170240813585 0.5905537080455131,-51.64433959632154 -8.618571081313195,-59.68259514177142 -9.108645025232553,-71.5137638818848 1.9151258886126155,-92.193803905164 2.723572025955165,-113.25539267925289" stroke="#67635C" stroke-width="3.0841150818784326" stroke-linejoin="round" stroke-linecap="round"/><polyline points="-48.79599673575344,6.293716146148915 -43.020186115294514,-3.7851220559068923 -33.23325945237203,-3.4351073014848303 -23.098424011019596,7.55247262441248 -12.562388410292,4.075464775764064 -6.092573191638913,-4.1856994975226325 6.9586356831255864,-7.328092681011976 8.576226564733151,-19.391573170388767 10.143337958818549,-28.41891171763145 5.709625416727151,-37.47170240813585 0.5905537080455131,-51.64433959632154 -8.618571081313195,-59.68259514177142 -9.108645025232553,-71.5137638818848 1.9151258886126155,-92.193803905164 2.723572025955165,-113.25539267925289" stroke="#CCC5B8" stroke-width="2.2104690491270595" stroke-linejoin="round" stroke-linecap="butt"/><polyline points="-48.79599673575344,6.293716146148915 -43.020186115294514,-3.7851220559068923 -33.23325945237203,-3.4351073014848303 -23.098424011019596,7.55247262441248 -12.562388410292,4.075464775764064 -6.092573191638913,-4.1856994975226325 6.9586356831255864,-7.328092681011976 8.576226564733151,-19.391573170388767 10.143337958818549,-28.41891171763145 5.709625416727151,-37.47170240813585 0.5905537080455131,-51.64433959632154 -8.618571081313195,-59.68259514177142 -9.108645025232553,-71.5137638818848 1.9151258886126155,-92.193803905164 2.723572025955165,-113.25539267925289" stroke="#67635C" stroke-width="1.9104690491270595" stroke-linejoin="round" stroke-linecap="round"/><g><path fill="#67635C" stroke="#67635C" stroke-width="0.3" stroke-linejoin="round" stroke-linecap="round" d="M -47.32791419951956,7.1350201272724885 C -53.10372481997849,17.213858329328296 -50.88048863012912,19.57922672266553 -47.18916990404588,22.78589909712634 L -59.96173404366391,15.192518570634851 C -57.266770699938135,15.782536459419788 -56.03988989244625,15.53125036708115 -50.26407927198732,5.452412165025342 Z"/><path fill="none" stroke="#99948A" stroke-width="0.3" stroke-linejoin="round" stroke-linecap="round" d="M -47.32791419951956,7.1350201272724885 C -53.10372481997849,17.213858329328296 -50.88048863012912,19.57922672266553 -47.18916990404588,22.78589909712634 M -50.26407927198732,5.452412165025342 C -56.03988989244625,15.53125036708115 -57.266770699938135,15.782536459419788 -59.96173404366391,15.192518570634851"/></g><g fill="none"><line x1="-7.301172065397599" y1="-6.191820702091162" x2="-4.826077886071726" y2="-2.2156174773908495" stroke="#1A1917" stroke-width="2.3" stroke-linejoin="round" stroke-linecap="butt"/><line x1="-7.301172065397599" y1="-6.191820702091162" x2="-4.826077886071726" y2="-2.2156174773908495" stroke="#CCC5B8" stroke-width="1.7" stroke-linejoin="round" stroke-linecap="round"/></g><g fill="none"><line x1="9.217037306962393" y1="-6.707725345861643" x2="5.219510059089346" y2="-8.896746750235273" stroke="#1A1917" stroke-width="2.3" stroke-linejoin="round" stroke-linecap="butt"/><line x1="9.217037306962393" y1="-6.707725345861643" x2="5.219510059089346" y2="-8.896746750235273" stroke="#CCC5B8" stroke-width="1.7" stroke-linejoin="round" stroke-linecap="round"/></g><g fill="none"><line x1="-32.255331877431395" y1="-5.563226467142847" x2="-34.21118702731267" y2="-1.3069881358268138" stroke="#1A1917" stroke-width="1.3" stroke-linejoin="round" stroke-linecap="butt"/><line x1="-32.255331877431395" y1="-5.563226467142847" x2="-34.21118702731267" y2="-1.3069881358268138" stroke="#CCC5B8" stroke-width="0.7" stroke-linejoin="round" stroke-linecap="round"/></g></g><g fill-rule="nonzero" fill="#99948A" stroke="#1A1917" stroke-width="0.3"><path d="M 1.560027191630359,3.3432933416317363 L 1.109440690234167,4.431105384324667 L 0.02162864754123604,4.881691885720859 L -1.0661833951516948,4.431105384324667 L -1.516769896547887,3.3432933416317363 L -1.066183395151695,2.255481298938806 L 0.021628647541235665,1.8048947975426133 L 1.1094406902341665,2.2554812989388053 Z"/></g><g fill="#899E7E" stroke="#173016" stroke-width="0.3"><polygon points="-5.1431612360602985,-15.672724025181589 -4.62474229592953,-13.453596811082317 -4.3732352119853335,-12.377003786956827 -7.230278164784889,-11.709558869834483 -9.18306881453979,-11.253359850458244 -9.782675971889883,-12.248631862445286 -11.018616137603974,-14.300136152124148 -8.633183637673497,-14.857406316948564"/><polygon points="-9.18306881453979,-11.253359850458244 -6.992777542942759,-11.765042313899121 -4.3732352119853335,-12.377003786956827 -3.7832627534064365,-9.851586914511461 -3.2996478522017174,-7.7814407347892995 -5.103113035120311,-7.347213012909704 -6.611053564308857,-6.9841399761129574 -7.769659698967677,-8.907279559433736"/><polygon points="1.810776405728161,-12.955473212259056 2.6829898019990592,-9.221904983292596 0.5803406767521986,-8.71564151437966 -0.2952078598722788,-12.46348603641443"/><polygon points="-0.2952078598722788,-12.46348603641443 0.5803406767521986,-8.71564151437966 -1.3598101129838447,-8.248503437354744 -2.23843604141525,-12.009520942431907"/><polygon points="-3.2996478522017174,-7.7814407347892995 -4.18135067589148,-11.555629097399237 -2.23843604141525,-12.009520942431907 -1.3598101129838447,-8.248503437354744"/><polygon points="-5.1431612360602985,-15.672724025181589 -1.9312699312351,-16.423066446059234 0.8489658455593423,-17.072568140041408 1.2721322444712824,-15.261175848546424 1.810776405728161,-12.955473212259056 -0.9694593710662813,-12.305971518276882 -4.18135067589148,-11.555629097399237 -4.719994837148358,-13.861331733686605"/><polygon points="0.8489658455593425,-17.072568140041408 5.544878147712569,-18.169598478438406 4.40053440289861,-9.63544525362277 2.6829898019990592,-9.221904983292596"/></g><g fill="#A38C7C" stroke="#301D14" stroke-width="0.3"><polygon points="12.724377991266648,-4.707240982478164 12.389798319713986,-0.3785657318062574 12.177730687950769,2.3650914211285636 11.842429209028182,6.7031051641345885 9.016440052548441,6.1450867997362595 9.515310125710284,2.0974244219761564 9.830829744988195,-0.462594631285576 6.695538797283674,-0.5655482394248676 7.393310496510866,-4.249519648432124 10.328625894776362,-4.501543559452128"/><polygon points="5.4379998656183695,6.073783041994881 6.377054679557588,6.2592083222558585 9.504050774315186,6.876663361768536 9.010197273407886,9.377700473617688 8.640126602847761,11.251860481347407 5.539246735807771,10.639562338718719 4.608034774439192,10.455685704089891 4.963558728946066,8.578653309294994"/><polygon points="12.39710799713071,10.033293339493476 12.888455737881493,7.544946224036622 17.00707669264765,8.35820699805112 16.362790974338594,10.816355059171277"/><polygon points="12.070217374104653,11.688775336080809 12.39710799713071,10.033293339493476 16.362790974338594,10.816355059171277 15.93415165762367,12.451745811069385"/><polygon points="9.504050774315186,6.876663361768536 11.01540779873351,7.175095141966303 12.888455737881493,7.544946224036622 12.460129784487874,9.71413020964675 12.070217374104653,11.688775336080809 10.197169434956669,11.318924254010492 8.685812410538347,11.020492473812723 9.075724820921568,9.045847347378665"/><polygon points="15.93415165762367,12.451745811069385 14.917735763903952,16.329684879773577 14.572675887411735,16.487612852499705 8.221410534314023,13.372376838539406 8.685812410538347,11.020492473812723"/></g><g fill="#899795" stroke="#17282E" stroke-width="0.3"><polygon points="-7.2668989365600805,14.312447784151992 -4.595454347052248,16.971046660234904 -2.0484307730712077,19.50582280260296 -4.171519152711536,23.373569063523107 -4.989362989878535,24.863479928069935 -8.122688054656523,21.745221541450775 -11.40907471278517,18.474637562284514 -10.257177055407077,17.317174211136432"/><polygon points="-2.0484307730712077,19.50582280260296 -4.923626368106595,16.644452663202877 -7.2668989365600805,14.312447784151992 -5.675293914892816,12.713152507975884 -3.4254710299427398,10.452459017348176 -1.5858257872653194,11.883682686377973 -3.5406874467124156,14.671939944933591 -0.9215251703849519,17.075372258430267"/><polygon points="-7.579484925698554,14.626544113971505 -9.270267262085051,16.325495905913154 -11.40907471278517,18.474637562284514 -13.053634066093762,16.83798611702157 -15.239824743408429,14.662307796595496 -13.10101729270831,12.513166140224135 -11.410234956321812,10.814214348282487 -9.224044279007147,12.98989266870856"/><polygon points="-3.4254710299427398,10.452459017348176 -5.0675308018402285,12.10245282903111 -7.579484925698554,14.626544113971505 -10.000501943877756,12.217168621480134 -11.410234956321812,10.814214348282487 -9.520240877918784,8.915088270868864 -7.881623808438805,10.088052574051137 -6.496517084270902,8.696253345721868"/><polygon points="-10.267807799281378,9.6662672566629 -15.239824743408429,14.662307796595496 -17.771679444278316,12.142627587402753 -12.799662500151264,7.146587047470155"/></g><g fill="#A38584" stroke="#30161C" stroke-width="0.3"><polygon points="-19.23141898691652,-8.14117692270168 -17.595660589370233,-5.410551038545029 -16.093553963870566,-2.9030345015641865 -13.759044377983507,0.9940399756919458 -16.22128182033754,1.9468071253694301 -18.79050957326502,2.940974365669658 -22.25059388223645,4.279860131922451 -24.820344953463206,1.4938903499605733 -26.473814330205066,-0.2987018472296017 -22.85619890725863,-2.381646681719486 -20.169999059482258,-3.9283025428823573 -21.85355222914687,-6.433181698588854"/><polygon points="-19.200272404863544,-14.667192875951372 -18.409010133687627,-13.552778964279495 -16.4100794703381,-10.737484692263147 -19.010659300595368,-9.043528848041653 -20.260621510542855,-8.229333195994666 -22.183180077534416,-10.937064995054502 -22.94421100575949,-12.008901078387774 -21.728854383595525,-12.871835245908558"/><polygon points="-19.200272404863544,-14.667192875951372 -17.751408499363762,-15.695923164117515 -15.510525577671714,-17.28700713344564 -13.696076089664516,-14.654814015875901 -12.67351169958912,-13.171396060392054 -14.942830245108123,-11.693215937691555 -16.4100794703381,-10.737484692263147 -17.415767866270095,-12.153896392985342"/><polygon points="-22.94421100575949,-12.008901078387774 -24.75850711384626,-14.56415601268316 -19.215002800741768,-22.50439345811603 -15.510525577671714,-17.28700713344564"/><polygon points="-28.834800230401488,-8.725478271219306 -27.693406418972508,-7.117939041195983 -25.88245976454743,-4.567401477983567 -27.722472927302444,-3.3688606701880284 -28.711480234363513,-2.724644834826373 -30.21723674893446,-4.35709561792277 -31.166276944597087,-5.385988002320559 -30.351207724991163,-6.553452258249011"/></g><g fill-rule="nonzero" fill="#99948A" stroke="#1A1917" stroke-width="0.3"><path d="M 24.887576817978584,-26.79567860208836 L 26.51852050932132,-22.920977697919433 L 23.157278939460348,-21.506159917392054 L 25.202081941276017,-16.64823619995238 L 26.4542892223148,-13.673315171223708 L 29.81553079217577,-15.088132951751087 L 31.667020712677722,-10.689471178748786 L 28.30577914281675,-9.274653398221407 L 25.766291487223427,-8.205729248056315 L 22.006941393603686,-6.623339156438924 L 18.568440854812412,-5.176001439252445 L 16.71695093431046,-9.574663212254745 L 15.46474365327168,-12.549584240983416 L 13.419940651456011,-17.407507958423093 L 11.788996960113275,-21.282208862592014 L 15.22749749890455,-22.729546579778493 L 18.986847592524292,-24.311936671395884 L 21.52633524811761,-25.38086082156098 Z"/></g><g fill="#899E7E" stroke="#173016" stroke-width="0.3"><polygon points="-9.322610476299362,-24.736538719033078 -11.466493979914182,-23.55513230386346 -13.045961615062312,-26.421372544315705 -10.902078111447493,-27.602778959485324"/><polygon points="-9.887281197720895,-20.68935454189341 -10.935884114411914,-22.59224119128874 -11.466493979914182,-23.55513230386346 -10.541016313481139,-24.065125151131827 -10.031950444296466,-23.09036202432915 -7.368422666825857,-24.558123121413278 -6.487848939475548,-22.562642465912603 -9.025923248195237,-21.164013638626585"/><polygon points="-17.716047485288126,-23.84787944304642 -14.781280846328768,-25.465109170522922 -13.045961615062312,-26.421372544315705 -11.259505290018542,-23.179512506980615 -9.887281197720895,-20.68935454189341 -11.37923588575622,-19.867199403045905 -13.902425144766262,-18.47677311717011 -15.559175357880019,-20.810140387311108"/><polygon points="-13.902425144766262,-18.47677311717011 -11.306941022160997,-19.907038142180376 -9.32986558120626,-20.996523464157963 -8.003386664124822,-18.589378698640967 -6.780211869025692,-16.369698636319686 -8.866735692910849,-15.882257689958621 -11.605902516871987,-15.242350273791999 -12.707639816096313,-16.79403726556368"/><polygon points="-6.487848939475548,-22.562642465912603 -4.037724969431182,-17.010381668268977 -6.780211869025692,-16.369698636319686 -9.32986558120626,-20.996523464157963"/><polygon points="-2.5033472366784144,-23.278507386259673 -2.763802683776798,-25.046241075770357 -3.007060733219065,-26.69725453712952 -0.8226545404184402,-27.019101936976185 0.42827068034731486,-27.203411536094237 0.6715287297895816,-25.552398074735073 0.9319841768879646,-23.78466438522439 -0.31894104387779,-23.600354786106337"/><polygon points="-2.5033472366784144,-23.278507386259673 -5.429144631630187,-22.847424427812246 -4.062314094496476,-26.541774960288024 -3.007060733219065,-26.69725453712952"/><polygon points="-2.3144096524121203,-17.41297206258432 -3.3718631960436674,-17.16593622712434 -5.634308428364102,-22.292895566247502 -5.429144631630187,-22.847424427812246 -3.164281543762348,-23.18112623576417"/><polygon points="-2.695398752221978,-19.998778098024367 1.4008669684283348,-20.602316247484584 1.7315182969134464,-18.35815702810067 -2.3144096524121203,-17.41297206258432"/><polygon points="1.0313505503319664,-23.110256197957288 0.7246959056086604,-25.191547845190737 0.4282706803473151,-27.203411536094237 4.6322024186680375,-27.82281304830872 7.0930931114578275,-28.185397293579417 6.790018451466379,-26.085204115278884 6.476484904844717,-23.912534794122955 4.4659466508229,-23.616304856906222"/><polygon points="1.0313505503319664,-23.110256197957288 2.7393613198571565,-23.361912152281878 6.476484904844717,-23.912534794122955 6.087286786278907,-21.670560680793265 5.672073346649516,-19.27872542067942 2.9675778731621114,-18.64691771355665 1.7315182969134464,-18.35815702810067 1.3701124277238976,-20.811049980314234"/><polygon points="-1.4636336034071513,-32.80391926035527 0.09554824602730294,-33.663120535159635 3.4933007860219236,-35.53548283522876 5.610228104182884,-31.21312324687299 6.792224726122207,-28.799712834331324 3.1472576658563014,-28.262668407914795 1.474632477512815,-28.01622611638467 0.4218587109552516,-29.731645212371248"/><polygon points="-5.951773295818295,-30.33068924769291 -5.329443279381466,-28.92041834070833 -4.539415261364374,-27.130124605735823 -5.748205137413393,-26.534372195579156 -7.191998155288533,-25.822798424811072 -7.951368325852249,-27.54361797535999 -6.524262283602886,-28.29300633907561 -7.135587003144133,-29.678337986142388"/></g><g fill="#A38C7C" stroke="#301D14" stroke-width="0.3"><polygon points="33.95449933219691,3.7204028896316554 29.48078170845255,3.9928935860051635 29.356779541242346,1.9570417634886623 34.01880846428849,1.6730811708460245"/><polygon points="29.356779541242346,1.9570417634886623 29.26282648368949,0.41453240455351636 29.152980092164594,-1.3889116917397852 31.087872898773686,-1.5067645230143067 34.12450150164255,-1.6917232334683845 34.067533738406745,0.12188138456961695 34.01880846428849,1.6730811708460245 31.17121932424486,1.8465256331513318"/><polygon points="34.12450150164255,-1.6917232334683845 29.152980092164594,-1.3889116917397855 29.033624358517713,-3.3484789585028354 34.194818427853285,-3.9303068614432703"/><polygon points="23.464654483888058,7.127675016985043 23.32677982443325,4.8640663797739325 23.182209526709048,2.490529604367117 25.149276850009457,2.3707170480504596 26.917110174836644,2.2630396812006346 27.061680472560845,4.63657645660745 27.199555132015654,6.9001850938185605 25.431721807188467,7.0078624606683855"/><polygon points="29.36633118974343,2.1138595147139565 29.64877614692244,6.751004927331882 27.199555132015654,6.9001850938185605 26.917110174836644,2.263039681200635"/><polygon points="23.182209526709048,2.4905296043671172 22.868889387278234,-2.653520626707035 25.96941174168713,-3.0030464138119366 26.292482319955713,2.3010852829720623"/><polygon points="26.292482319955713,2.3010852829720623 25.96941174168713,-3.0030464138119366 29.033624358517713,-3.3484789585028354 29.36633118974343,2.1138595147139565"/><polygon points="23.464654483888058,7.127675016985043 18.77707151775447,7.413192086719373 21.371329299134764,-2.484698793250194 22.868889387278234,-2.653520626707035"/><polygon points="33.744727923732356,10.398607781561028 33.65096103529175,13.383735724728206 28.963823198694442,13.23650641362415 29.057590087135047,10.251378470456972"/><polygon points="29.073980772285474,9.729570686665854 28.99909697563003,12.113543511232773 28.963823198694442,13.23650641362415 27.38730474500447,13.186985846068556 24.90660361455164,13.109063683071794 25.06549553968226,11.98998379317828 25.40281214270438,9.614254336448932 27.647470579501537,9.684762080585056"/><polygon points="28.438113758399183,15.878922978962573 28.384389528084725,17.589267683835864 24.28875061507109,17.460618150428562 24.530753233515174,15.756187523260362"/><polygon points="24.90660361455164,13.109063683071794 28.521551997887677,13.222614079648494 28.438113758399183,15.878922978962573 24.530753233515174,15.756187523260362"/><polygon points="30.774449609702597,17.66434268943232 30.91161207950555,13.29768908524495 33.65096103529175,13.383735724728206 33.5137985654888,17.750389328915578"/><polygon points="33.42152458052033,20.68798974989189 33.389124274695895,21.719473889892306 28.827435135759576,23.290103682715138 27.796623687800224,23.157231448060646 27.879653907068526,20.513912129406886"/><polygon points="33.42152458052033,20.68798974989189 27.879653907068526,20.513912129406886 27.971927892036998,17.576311708430577 33.5137985654888,17.750389328915578"/><polygon points="24.28875061507109,17.460618150428562 26.53830271590748,17.531279611141922 27.971927892036998,17.576311708430577 27.898560780716014,19.911999900243 27.796623687800224,23.157231448060646 26.44517488909986,22.98302886012865 24.324568656097597,22.709681402105105 24.30374093555275,19.657420044560457"/><polygon points="24.14049194462249,14.043622709295757 20.186748388228494,13.482252666976432 20.408358329712872,11.921448184862111 24.362101886106867,12.482818227181436"/><polygon points="24.362101886106867,12.482818227181436 22.481041843616403,12.215736981117729 20.408358329712872,11.921448184862111 20.69637813283787,9.892917349809862 20.976023578801037,7.923367326292826 23.108937305665282,7.793453193211848 25.044659165163072,7.675549864964122 24.70841516396047,10.043724959663432"/><polygon points="20.186748388228494,13.482252666976432 17.294009699076852,13.071528800548212 18.60550960832196,8.067753507295983 20.976023578801037,7.923367326292826"/><polygon points="24.14049194462249,14.043622709295757 23.88031597707994,15.876048698666226 23.698703402929777,17.155150700332864 21.513771783080436,16.844924420250518 19.764307620418123,16.596527740743664 19.945920194568284,15.317425739077027 20.206096162110835,13.484999749706558 21.95556032477315,13.73339642921341"/><polygon points="20.206096162110835,13.484999749706558 20.020154087889146,14.794594531036829 19.764307620418123,16.596527740743664 18.158618261541953,16.368544845422523 16.798438263920296,16.175420457880513 17.085431223444672,14.377909565229068 18.431327100494993,14.569005829991934 18.62952427583516,13.261151082261563"/><polygon points="23.698703402929777,17.155150700332864 23.430551366845357,19.043752344308064 20.12532853312559,18.574462149945454 20.39348056921001,16.685860505970254"/><polygon points="20.12532853312559,18.574462149945454 23.430551366845357,19.043752344308064 23.231454335292383,20.445997826356756 19.952059861673597,19.794797831642892"/><polygon points="17.838321258796892,16.323067656671896 20.39348056921001,16.685860505970254 20.125942300935986,18.570139367569276 17.570782990522858,18.207346518270906"/></g><g fill-rule="nonzero" fill="#99948A" stroke="#1A1917" stroke-width="0.6"><path d="M 19.548961410160327,26.67699452663249 L 17.94444716170456,30.03308119760411 L 15.97993900303933,34.14215012775336 L 14.377604793831033,37.49367691359609 L 9.133452849560364,34.98649597919749 L 10.735787058768661,31.634969193354763 L 6.820192121756916,29.762959175866833 L 8.784700280422145,25.653890245717577 L 3.9772283530822916,23.35548202128554 L 5.581742601538059,19.99939535031392 L 10.389214528877913,22.29780357474596 L 14.304809465889658,24.169813592233893 Z"/></g><g fill="#899E8D" stroke="#173025" stroke-width="0.3"><polygon points="-16.504872580490392,30.951664187048795 -15.664421874869198,28.69546822487601 -15.02445714812568,26.977478314516507 -12.913590057845754,27.763918091413892 -10.77739115295178,28.559795670778904 -9.482440665657043,29.042251708400002 -9.974849813380509,30.49975936476508 -11.304278214907281,30.078167747668306 -11.996226668467363,32.072210278591506 -14.26399563432821,31.508595459241672"/><polygon points="-9.988708979001606,32.480674938470756 -7.384994846548086,33.36032222627604 -5.682109305586949,33.93563064008327 -6.101592510679598,37.400484506497946 -6.318720857232027,39.19392458211253 -8.38421342545396,38.35781040286789 -8.043411130362625,36.65332304021372 -11.012454240492282,35.51091221917232"/><polygon points="-9.988708979001606,32.480674938470756 -9.396263084994413,30.727063271243015 -8.900330631125682,29.25912679627011 -7.528868920851717,29.770088403667252 -5.532086783321777,30.514023872642458 -5.600446318172635,32.073119423984885 -7.850704749511611,31.27514249495118 -8.235173065199671,33.07309523969312"/><polygon points="-6.127144600427397,29.651866410222723 -7.294872428304578,29.216809358709927 -6.807389435527613,27.908366122809955 -5.457397930998863,28.81057375927371"/><polygon points="-10.187311477039563,28.139181529534397 -9.771124633434177,27.022102844832112 -9.17435964523008,25.420338016505426 -7.892043388548933,25.898086954588724 -6.372912754981257,26.4640651547522 -6.916071112859546,28.08580205360278 -7.294872428304578,29.216809358709927 -8.863345055772589,28.632447951544297"/><polygon points="-9.17435964523008,25.420338016505426 -8.87568956858608,24.618683707860935 -8.329529403594435,23.15274626144773 -7.712002712000125,23.767303559275234 -7.2429608158059455,24.23409005484967 -7.58602826434449,25.338338493764823 -7.77363620010567,25.942201585628816 -8.378290142920266,25.716927377661428"/><polygon points="-13.007894411612163,21.56400114903886 -12.174368590077002,19.326395087985695 -8.329529403594435,23.15274626144773 -8.379996500267119,23.28820397434295"/><polygon points="-12.60276446316194,27.239263047570528 -12.13615072104276,25.986834545037834 -11.63401009932646,24.639049063922805 -10.758720681135946,24.96515316490204 -9.218557113204085,25.538967545886674 -9.720697734920384,26.886753027001703 -10.187311477039563,28.139181529534397 -11.727475044971426,27.565367148549765"/><polygon points="-11.63401009932646,24.639049063922805 -12.102091497213031,25.89541687160035 -12.60276446316194,27.239263047570528 -13.837759969236119,26.77914426759682 -14.814956697525274,26.415072848548515 -14.31435373347622,25.07120059216865 -13.846337780679296,23.814808401799304 -12.86908122108211,24.178902112028684"/><polygon points="-11.17303293939777,22.24761029406302 -11.752103412273344,23.80188163187377 -12.011593552334737,24.498373865606744 -12.824957755134733,24.195341066842744 -13.846337780679296,23.814808401799304 -13.586883921392047,23.118302651041 -13.007894411612163,21.56400114903886 -11.986449117816626,21.94455813088982"/><polygon points="-15.22742361044744,25.790397188597144 -16.666814845042005,25.25421265539953 -18.207711970834165,24.680216380973743 -20.175480537313817,23.947207144220943 -19.60564560475336,22.41748117058677 -19.09621754727264,21.049917887436205 -17.095959653920637,21.695709292598345 -17.62072315311497,23.104440679292615 -16.066393364159296,23.642376872873633 -14.614454336924206,24.144876766507753"/><polygon points="-15.22742361044744,25.790397188597144 -15.786572645655964,27.29143679395728 -16.33431170011288,28.761846223950716 -17.40582847450035,28.362697814762168 -19.641320314192324,27.529959557279355 -21.282368626979256,26.918656179574516 -20.73462957252234,25.44824674958108 -19.09358125973541,26.05955012728592 -18.534432224526885,24.558510521925783 -16.29894038483491,25.391248779408595"/><polygon points="-21.282368626979256,26.918656179574516 -24.264579392851296,25.807759260818166 -20.56542673141051,20.575577720273298 -19.09621754727264,21.049917887436205"/><polygon points="-23.884965486792638,29.662987957098885 -24.63187858645603,29.384756964678672 -24.51743126046509,26.165399778878292 -24.264579392851296,25.807759260818166 -22.670113911453434,26.4017101681848"/><polygon points="-23.637954430918835,32.183075457114185 -23.264696967221745,31.18106311205727 -22.84369142878562,30.05087071704951 -22.05525213035372,30.344570544465395 -20.65826738566414,30.864958327309267 -21.091382056510025,32.02765777533701 -22.480626301912476,31.4864905665018 -22.857756932991713,32.498900457244595"/><polygon points="-23.932970162264176,29.64510583867937 -22.84369142878562,30.05087071704951 -23.637954430918835,32.183075457114185 -24.7158465959789,31.746743253953923"/><polygon points="-16.33431170011288,28.761846223950716 -16.966116576218674,30.457930956603036 -17.3231867559045,31.41648842134337 -17.999573183096647,31.164529168008485 -17.64250300341082,30.20597170326815 -18.824050163237477,29.76583611183455 -18.19224528713168,28.06975137918223 -17.010698127305027,28.50988697061583"/><polygon points="-21.475375303084526,33.0584904067198 -20.85644347076605,31.396963452673123 -20.432290866116556,30.25832273578784 -18.448522613330297,30.99729198127727 -17.3231867559045,31.41648842134337 -17.760555109280922,32.59060691070877 -18.39877162236136,34.30390372891989 -19.512343995069656,33.853128129548935"/><polygon points="-27.969877057364712,24.900160670788324 -27.179447067691157,22.778245680231386 -26.72066756184927,21.546648798123908 -24.639796101402784,22.321789750665562 -22.974716858584284,22.942044838434764 -23.759578052684095,24.052173732131077 -25.111813315262058,25.96481184871493 -26.382225818950218,25.491573219156155"/><polygon points="-26.72066756184927,21.546648798123908 -26.348835425957702,20.548462755809172 -25.736976084734607,18.905921954960043 -23.021594387834465,19.782593991811297 -21.164810431380026,20.38206425227446 -22.290578194940263,21.97438061511042 -22.974716858584284,22.942044838434764 -24.495969957187235,22.37536611833015"/><polygon points="-27.04831547180878,22.4262219682346 -27.571948801903066,23.831919407853754 -27.969877057364712,24.900160670788324 -29.233610844655725,24.429409915511187 -31.570118652774624,23.559042416877855 -31.00122714596324,22.554486307024494 -30.252623471593825,21.232592086522793 -28.173071179697377,22.007241638424915"/><polygon points="-27.04831547180878,22.4262219682346 -28.381478361536935,21.929608327325067 -30.252623471593825,21.232592086522793 -29.310420659145237,19.56883796006145 -28.4406712288022,18.033022969274004 -26.861857348162133,18.542749458971503 -25.736976084734607,18.905921954960043 -26.366427931178947,20.595689962567647"/><polygon points="-28.97470125383734,30.02275314062087 -28.502760711171856,28.856896003263365 -28.166673635615613,28.026644138064754 -26.95656888414926,28.516496174638924 -25.227408667975816,29.21646256385374 -25.261273070752566,30.169054574879006 -25.30882617762837,31.5067043190056 -27.46544880574495,30.63370056852473"/><polygon points="-25.396597243128333,25.858727600210962 -25.856920621762242,26.995886305504193 -26.540623997168932,28.684871226255762 -27.64607670868433,28.237382476694137 -26.96987801141619,26.566936718782834 -27.494009157709222,26.364929130100492 -27.041118041042296,25.246130694539495 -26.514607377759944,25.442260049387993"/><polygon points="-25.396597243128333,25.858727600210962 -25.111813315262058,25.96481184871493 -25.227408667975816,29.21646256385374 -26.540623997168932,28.684871226255762"/><polygon points="-27.041118041042296,25.246130694539495 -27.376593152396904,26.07487079550557 -27.86831381648089,27.289591706259863 -29.43672347010023,26.65469736171899 -30.965359470855088,26.03590344553695 -30.494551892497466,24.87284512371927 -30.173344678091805,24.079351686239796 -28.627344090998527,24.655249040059196"/><polygon points="-29.813370984929588,26.502229939385355 -28.76674581255264,26.92590522170896 -27.86831381648089,27.289591706259863 -28.375136831641843,28.54162067216559 -28.97470125383734,30.02275314062087 -29.87313324990909,29.659066656069967 -30.919758422286037,29.235391373746364 -30.32019400009054,27.75425890529108"/><polygon points="-30.919758422286037,29.235391373746364 -32.07174690821154,28.769064879897957 -30.965359470855088,26.03590344553695 -29.813370984929588,26.502229939385355"/><polygon points="-30.173344678091805,24.079351686239796 -32.07174690821154,28.769064879897957 -34.06392039950964,27.962630361944917 -31.570118652774624,23.559042416877855"/><polygon points="-18.10401528186942,16.79013567403591 -18.644912771954868,18.465497819442707 -19.25877795812005,20.36686825309321 -21.76509586937654,19.557693310665655 -21.15123068321136,17.656322877015153 -22.423255913860533,17.245644352094534 -21.88235842377508,15.570282206687738 -20.610333193125907,15.980960731608356"/><polygon points="-18.71622802399837,14.54153139901545 -21.282705857470773,13.71293358075204 -20.86107820193124,12.406994791063896 -18.294600368458834,13.235592609327302"/><polygon points="-15.369081289369065,21.622672659972825 -14.382811236614408,18.56782485272477 -12.735119484872756,19.09978884355205 -13.856790217426013,22.110921990026785"/><polygon points="-14.382811236614408,18.56782485272477 -15.369081289369065,21.622672659972825 -16.87286303723871,21.137170599842715 -15.886592984484052,18.08232279259466"/><polygon points="-16.87286303723871,21.137170599842715 -18.194808629378972,20.71037508295787 -19.25877795812005,20.36686825309321 -18.74049773153561,18.76156024510956 -17.67652840279453,19.105067074974222 -17.208538576624314,17.655527275709815 -15.886592984484052,18.08232279259466 -16.354582810654268,19.531862591859067"/><polygon points="-18.27250790536539,17.312020445845153 -17.28182344573475,14.243499566878317 -12.645044645900382,18.85798229068275 -12.735119484872756,19.09978884355205"/><polygon points="-23.83271576997221,14.996469560252496 -22.445639113954314,15.444292906299287 -21.8986930520452,15.6208766693441 -22.197246862813188,16.54560965867376 -22.623894689784834,17.86709779982864 -23.037121100025715,19.147014785745036 -23.584067161934833,18.97043102270022 -24.971143817952726,18.522607676653433 -24.557917407711845,17.242690690737035 -24.1312695807402,15.921202549582157"/><polygon points="-26.274576735478856,14.208104805204583 -25.082915547740416,14.592837471659488 -23.83271576997221,14.996469560252496 -24.202337674301486,16.141327057240712 -24.464752348554445,16.95412360316887 -25.921249003431214,16.483887727838518 -25.573182122264406,15.69874434565588 -26.879838987921772,15.27688485636595"/><polygon points="-24.464752348554445,16.95412360316887 -24.971143817952726,18.522607676653433 -28.13877232695833,17.499925915136 -27.30954754943313,16.03566988963531"/><polygon points="-21.8986930520452,15.6208766693441 -23.85898284705914,14.987989127465381 -26.274576735478856,14.208104805204583 -25.22765684238198,12.359439879563173 -24.216806509807846,10.574467058600803 -22.131614434397385,10.865156922385857 -20.439450546391708,11.101056001375753 -21.156282656091975,13.321353568321742"/></g><g fill-rule="nonzero" stroke="#99948A" stroke-width="0.3" stroke-linecap="butt"><line x1="-29.883533527180404" y1="-45.11650252948631" x2="-19.032271666648427" y2="-26.573578943204275"/><line x1="-28.876070358259874" y1="-46.436977439361016" x2="-17.235132648303843" y2="-26.54463485259744"/><line x1="-27.651275956179365" y1="-47.38607098352973" x2="-15.634555213232744" y2="-26.85158040003314"/><line x1="-26.325197658647888" y1="-48.16208792536342" x2="-14.288445153400215" y2="-27.5933665360471"/><line x1="-24.99911936111641" y1="-48.93810486719712" x2="-12.942335093567685" y2="-28.33515267206106"/><line x1="-23.673041063584932" y1="-49.714121809030814" x2="-11.596225033735156" y2="-29.07693880807502"/><line x1="-22.346962766053455" y1="-50.49013875086451" x2="-10.250114973902626" y2="-29.81872494408898"/><line x1="-21.020884468521977" y1="-51.266155692698206" x2="-8.904004914070095" y2="-30.560511080102938"/><line x1="-19.6948061709905" y1="-52.04217263453191" x2="-7.557894854237562" y2="-31.302297216116898"/><line x1="-18.368727873459022" y1="-52.818189576365604" x2="-6.211784794405034" y2="-32.04408335213086"/><line x1="-17.042649575927545" y1="-53.5942065181993" x2="-4.865674734572503" y2="-32.78586948814482"/><line x1="-15.716571278396067" y1="-54.37022346003299" x2="-3.5195646747399767" y2="-33.52765562415878"/><line x1="-14.390492980864588" y1="-55.14624040186669" x2="-2.1734546149074436" y2="-34.26944176017274"/><line x1="-13.06441468333311" y1="-55.92225734370039" x2="-0.8273445550749123" y2="-35.011227896186696"/><line x1="-11.577021629534753" y1="-56.42261535874362" x2="0.5187655047576136" y2="-35.75301403220065"/><line x1="-9.940448755359764" y1="-56.66805094675371" x2="1.530415509543264" y2="-37.0663343660903"/><line x1="-6.775104962487392" y1="-54.301082310196854" x2="2.0662021281184" y2="-39.19282265421621"/><line x1="-3.1361476789399125" y1="-51.12479040046721" x2="-0.8042871419458342" y2="-47.140045372000266"/><path d="M -2.4322831446328266,-47.327776950322566 L -3.4637904992524895,-46.75935548339697 L -4.402949041876947,-46.241823665438076 L -5.52661796249014,-45.622615733150326 L -6.331841311978212,-47.08384451397178 L -5.208172391365019,-47.703052446259534 L -5.972672103530753,-49.090380549768334 L -5.033513560906296,-49.60791236772723 L -4.002006206286633,-50.17633383465282 L -3.2375064941208986,-48.78900573114402 Z" fill="#99948A" stroke="#1A1917" stroke-width="0.3"/></g><g fill="#979E7C" stroke="#243014" stroke-width="0.3"><polygon points="-32.06914171504178,21.636417256714825 -35.91600121777533,19.54998553754844 -37.38574090378142,18.75283880067861 -35.753987062902745,15.744291858431165 -34.26901611540065,16.54969961629373 -32.72531626361568,13.737566752872237 -28.80122498312449,15.865886882760831 -30.382290693836442,18.65775352298812"/><polygon points="-34.224563294174004,12.924416036762093 -35.15080450912535,14.632173729873982 -40.43148004560063,11.768079283456371 -39.62236558826907,9.996795230183055"/><polygon points="-35.15080450912535,14.632173729873982 -35.889164988315386,15.993526224529273 -37.38574090378142,18.75283880067861 -39.56468161031919,17.571040764885332 -42.38380015287169,16.042027723704074 -41.076472007512294,13.1800723164216 -40.43148004560063,11.768079283456371 -37.45295386570581,13.38355068127687"/><polygon points="-39.118624206259845,17.812970140194494 -41.520544442284496,22.241511750197983 -44.48198835369242,20.635305309098946 -42.38380015287169,16.042027723704074"/><polygon points="-38.19877868823726,24.043146935460125 -39.637879231028464,26.696489265127735 -45.087990244805916,21.961942691803564 -44.48198835369242,20.635305309098946"/><polygon points="-35.79685845221261,19.614605325456633 -32.06914171504178,21.636417256714825 -35.57386105687799,27.82509679579977 -39.637879231028464,26.696489265127735"/><polygon points="-41.76753151416519,12.57102499947193 -47.37481850381905,9.529785405104265 -45.74076234218513,6.678343633824014 -40.399177373976194,9.57547369546885"/><polygon points="-43.96750544162548,17.38712820961472 -47.161319428488234,15.654890574584758 -44.64287904595891,11.011514887470653 -41.76753151416519,12.57102499947193"/><polygon points="-45.67326844144371,12.91129583938231 -47.161319428488234,15.654890574584758 -50.00197535307149,14.114196244553515 -48.44968792559439,11.40544160339391"/><polygon points="-50.00197535307149,14.114196244553515 -43.96750544162548,17.38712820961472 -45.781901235597694,21.359137740612645 -50.52924771070548,17.235087252597776"/><polygon points="-31.18199458459568,9.61950383323453 -26.65104461695673,12.069070093867023 -28.505222469929613,15.343201749301015 -32.093121151281174,13.397223319725486"/><polygon points="-28.643654241859103,5.732446034212579 -31.507643321160298,8.405820976712073 -35.32807212406135,6.33372454856713 -32.91383596010662,1.1029714661391772"/><polygon points="-37.287816297499646,10.579762292940334 -36.58219702171968,9.05094740029927 -35.32807212406135,6.33372454856713 -32.86932850188512,7.667280057667785 -31.507643321160298,8.405820976712073 -32.23226060106938,11.41023432459496 -32.63995836803166,13.100633721525154 -34.29655755916566,12.2021394833365"/><polygon points="-45.44206755636288,6.15711871563912 -42.983282183852594,1.8665175218722148 -41.409943405647965,-0.8789719036942785 -36.34329631183995,1.8690393503771041 -37.739349536514624,4.710683626925816 -35.74028770814377,5.794920263154375 -37.81639571946397,10.293075224878368 -39.921076254007026,9.151553881854978"/></g><g fill-rule="nonzero" stroke="#99948A" stroke-width="0.3" stroke-linecap="butt"><line x1="37.01979854926771" y1="-3.693965593487578" x2="49.55578939475777" y2="-5.402420998873142"/><line x1="36.19096521476638" y1="-2.271343446255001" x2="50.83333545624966" y2="-4.266864733327295"/><line x1="35.61310059360216" y1="-0.8829243277393539" x2="51.747722718876794" y2="-3.081815721609174"/><line x1="35.571785375033656" y1="0.4323716736314851" x2="52.1874678976182" y2="-1.8320805718878663"/><line x1="35.53047015646514" y1="1.7476676750023228" x2="52.62721307635961" y2="-0.5823454221665599"/><line x1="35.489154937896636" y1="3.0629636763731614" x2="53.066958255101014" y2="0.6673897275547473"/><line x1="35.44783971932813" y1="4.3782596777439995" x2="53.50670343384242" y2="1.9171248772760539"/><line x1="35.406524500759616" y1="5.693555679114837" x2="53.94644861258383" y2="3.1668600269973606"/><line x1="35.3652092821911" y1="7.008851680485674" x2="54.38619379132523" y2="4.416595176718666"/><line x1="35.3238940636226" y1="8.324147681856514" x2="54.825938970066645" y2="5.666330326439977"/><line x1="35.28257884505409" y1="9.639443683227352" x2="55.26568414880805" y2="6.916065476161283"/><line x1="35.241263626485576" y1="10.954739684598191" x2="55.70542932754946" y2="8.165800625882591"/><line x1="35.19994840791707" y1="12.270035685969027" x2="56.145174506290864" y2="9.415535775603896"/><line x1="35.15863318934856" y1="13.585331687339863" x2="56.58491968503227" y2="10.665270925325201"/><line x1="35.11731797078005" y1="14.900627688710705" x2="57.02466486377368" y2="11.915006075046511"/><line x1="35.076002752211544" y1="16.215923690081542" x2="57.464410042515084" y2="13.164741224767818"/><line x1="35.03468753364304" y1="17.531219691452378" x2="57.872204772741455" y2="14.418830710507935"/><line x1="57.694329508787675" y1="15.75273766577733" x2="35.00314257839449" y2="18.845184161922568"/><line x1="57.516454244833895" y1="17.086644621046727" x2="35.48489004733425" y2="20.089195070089104"/><line x1="55.58163652672648" y1="18.659994781862977" x2="35.966637516274005" y2="21.33320597825565"/><line x1="53.11730534980793" y1="20.30550917302052" x2="38.432170635719494" y2="22.306858574940797"/><line x1="50.65297417288939" y1="21.95102356417806" x2="41.611623300967025" y2="23.183215335814555"/><line x1="48.18864299597084" y1="23.596537955335606" x2="44.79107596621456" y2="24.059572096688314"/><path d="M 38.18135682537395,3.6859510442237866 L 38.226326488695626,2.2543134927509456 L 39.98877294824225,2.3096743093394347 L 40.04591615587436,0.49048430845907776 L 41.71922805360748,0.5430452884332269 L 41.66208484597537,2.362235289313584 L 41.6171151826537,3.793872840786425 L 39.94380328492058,3.7413118608122757 Z" fill="#99948A" stroke="#1A1917" stroke-width="0.3"/></g><g fill-rule="nonzero" stroke="#99948A" stroke-width="0.3" stroke-linecap="butt"><line x1="12.99215430529897" y1="-29.745766288746673" x2="9.672186874540497" y2="-36.524503061738066"/><line x1="14.815533868961616" y1="-29.066333859665903" x2="10.662345428830442" y2="-37.546348134338494"/><line x1="16.363846250939524" y1="-28.948535861770935" x2="11.738647610911169" y2="-38.39230444006303"/><line x1="17.912158632917436" y1="-28.830737863875967" x2="12.940889195604795" y2="-38.981116638965524"/><line x1="19.460471014895347" y1="-28.712939865980996" x2="14.14313078029842" y2="-39.56992883786803"/><line x1="21.008783396873255" y1="-28.595141868086028" x2="15.345372364992045" y2="-40.15874103677052"/><line x1="22.557095778851163" y1="-28.477343870191056" x2="16.547613949685672" y2="-40.747553235673024"/><line x1="24.049056097505478" y1="-28.47460597811115" x2="17.749855534379297" y2="-41.33636543457552"/><line x1="25.29402203510559" y1="-28.976183242277166" x2="18.952097119072924" y2="-41.92517763347802"/><line x1="26.49326146062209" y1="-29.57112527444965" x2="20.15433870376655" y2="-42.51398983238052"/><line x1="27.536654160561078" y1="-30.48427643115601" x2="21.356580288460176" y2="-43.10280203128302"/><line x1="28.58004686050006" y1="-31.39742758786237" x2="22.5588218731538" y2="-43.69161423018552"/><line x1="29.623439560439046" y1="-32.31057874456873" x2="23.761063457847424" y2="-44.28042642908802"/><line x1="30.66683226037803" y1="-33.22372990127508" x2="24.96330504254105" y2="-44.86923862799051"/><line x1="31.710224960317017" y1="-34.13688105798144" x2="26.16554662723468" y2="-45.458050826893015"/><line x1="32.753617660256" y1="-35.0500322146878" x2="27.367788211928303" y2="-46.04686302579552"/><line x1="33.79701036019498" y1="-35.96318337139416" x2="28.570029796621927" y2="-46.63567522469801"/><line x1="34.840403060133966" y1="-36.876334528100514" x2="29.978950365967066" y2="-46.802488574912516"/><line x1="35.88379576007295" y1="-37.78948568480687" x2="31.420734080936466" y2="-46.902201684427226"/><line x1="35.6541432017593" y1="-41.30195110762577" x2="36.54190733468794" y2="-39.48930700820719"/><line x1="27.890399671455334" y1="-48.863852263853886" x2="9.794663303521446" y2="-40.001248892603556"/><line x1="7.620112867884262" y1="-40.54837994499221" x2="28.67658949849867" y2="-50.86104128016861"/><line x1="7.125341092112137" y1="-41.91820269177663" x2="27.80972435445508" y2="-52.04862684837065"/><line x1="6.630569316340015" y1="-43.28802543856104" x2="26.942859210411488" y2="-53.2362124165727"/><line x1="6.135797540567893" y1="-44.65784818534545" x2="26.075994066367898" y2="-54.42379798477474"/><line x1="5.641025764795771" y1="-46.027670932129865" x2="25.209128922324304" y2="-55.61138355297678"/><line x1="5.146253989023647" y1="-47.39749367891427" x2="24.342263778280703" y2="-56.79896912117883"/><line x1="4.6514822132515246" y1="-48.76731642569869" x2="23.475398634237116" y2="-57.986554689380874"/><line x1="4.156710437479402" y1="-50.137139172483096" x2="22.331029950491978" y2="-59.0382295791509"/><line x1="5.058816261767345" y1="-52.19109943518834" x2="12.885574286744175" y2="-56.024347811918545"/><path d="M 9.678209102827722,-50.318071416963406 L 8.700017265212683,-49.83899026207109 L 8.060694215402346,-51.14436531708488 L 6.962712801404833,-50.606615784078414 L 6.419604268812403,-51.715539247453655 L 5.369632317718036,-51.20130292325649 L 4.892890975588577,-52.17471731195124 L 5.942862926682945,-52.688953636148405 L 7.040844340680459,-53.226703169154874 L 8.019036178295497,-53.70578432404719 L 8.495777520424955,-52.73236993535244 L 9.038886053017386,-51.623446471977196 Z" fill="#99948A" stroke="#1A1917" stroke-width="0.3"/></g><g fill="#979E7C" stroke="#243014" stroke-width="0.3"><polygon points="-24.981058304927956,37.07988830145355 -30.597399000746478,35.19397564104992 -29.21985580023147,31.091584210237485 -23.718089965797173,33.318706445305224"/><polygon points="-24.981058304927956,37.07988830145355 -23.718089965797173,33.318706445305224 -20.6045016698869,34.5790911896482 -21.802629200058004,38.14717392633248"/><polygon points="-26.372974795117788,42.29368878101174 -23.517012933349758,43.252693037421665 -24.697392314184242,46.76792091211388 -27.553354175952276,45.80891665570395"/><polygon points="-28.505930490258375,48.64573578961079 -27.553354175952276,45.80891665570395 -24.697392314184242,46.76792091211388 -25.649968628490342,49.604740046020716"/><polygon points="-38.54566097787314,38.70862449680447 -41.32248930961802,37.776192511240616 -39.58607727147151,33.74396366264904 -37.15292630888375,34.56099212540485"/><polygon points="-39.96955708102652,44.796361313848415 -43.79276277546391,43.51256597218852 -41.32248930961802,37.776192511240616 -37.98820966912965,38.8958112323778"/><polygon points="-29.21985580023147,31.091584210237485 -30.03653321797715,33.523689743512485 -31.07065634829256,36.60335930786793 -34.2121940689629,35.54846145151837 -37.24562798400031,34.52986380320868 -36.17864582072947,31.352338421938942 -35.33601865928599,28.842953275118717 -32.331474356723916,29.947585610844374"/><polygon points="-37.24562798400031,34.52986380320868 -39.58607727147151,33.74396366264904 -37.67015725777804,29.29488833888251 -35.708914250473214,29.953454693369892"/><polygon points="-42.608536901859246,47.989996207616564 -44.12497817445126,44.28402371742106 -42.32524457429949,44.00534433177224 -40.969245943350494,47.31921722211512"/><polygon points="-37.65851054114625,45.57238829732311 -39.49744616456786,51.048829065583675 -41.831853117527984,49.88810382993989 -40.106638769173,44.750330614290355"/><polygon points="-39.92439874314717,54.54965819773649 -38.29358303723908,53.88234718801557 -37.52091476414387,55.7706414569016 -39.15173047005196,56.43795246662252"/><polygon points="-36.66276733133098,53.21503617829465 -39.92439874314717,54.54965819773649 -40.78874231638424,52.43732218948565 -38.3429037315022,51.436513201824354"/><polygon points="-31.287839818260647,47.711597654849754 -25.649968628490342,49.604740046020716 -26.897461746693764,53.319835932815344 -32.53533293646407,51.426693541644376"/><polygon points="-26.897461746693764,53.319835932815344 -27.974076553727116,56.52604780116778 -33.611947743497424,54.63290540999681 -32.53533293646407,51.426693541644376"/><polygon points="-16.961527785018248,60.01002200911883 -16.019905316706097,57.205823967547396 -12.13560204521547,58.510135282209156 -13.243016906441534,61.25866184839667"/><polygon points="-19.172563033554642,56.14719212447732 -17.53792419270061,51.279157226779965 -10.63923408230968,54.79625420399697 -12.13560204521547,58.510135282209156"/><polygon points="-17.670221088545635,35.76689192913651 -19.316574669034512,39.8339573725637 -21.44152087810197,38.973776279265024 -20.042253745042473,34.80668990844581"/><polygon points="-19.316574669034512,39.8339573725637 -18.72776543521384,38.3793939567683 -17.670221088545635,35.76689192913651 -14.316253434540158,37.12458256205703 -13.198686288633555,37.57697525101008 -14.256230635301762,40.18947727864187 -14.845039869122434,41.64404069443727 -15.962607015029038,41.19164800548422"/><polygon points="-22.86862754818744,45.53864764188309 -23.552925433808483,45.26164293424213 -21.44152087810197,38.973776279265024 -20.38438535595683,39.40170616535976"/><polygon points="-17.32928206135304,47.780982170960606 -18.301754752705964,50.18332764798969 -24.196449301421712,47.1780886754957 -23.552925433808483,45.26164293424213"/><polygon points="-12.505889809117285,50.954181206628235 -10.474875599989048,45.93687034282084 -7.547184909842867,47.12200348545954 -9.57004977652991,52.14261321408564"/><polygon points="-13.2387342852271,52.76456172240279 -12.505889809117285,50.954181206628235 -9.57004977652991,52.14261321408564 -10.40311394727788,54.21022047204202"/><polygon points="-15.72283138204308,43.812490759503554 -13.198686288633555,37.57697525101008 -9.268938012938516,39.16774265667511 -11.793083106348037,45.40325816516857"/><polygon points="-7.547184909842867,47.12200348545954 -9.376878881335267,46.38134089640932 -11.793083106348037,45.40325816516857 -10.424460393251849,42.022284474286096 -9.268938012938516,39.16774265667511 -7.309776021650695,41.26353464119693 -5.8261816931880706,42.85059335083948 -6.614035663480107,44.80599203966196"/></g><g fill="#A39B7C" stroke="#302C14" stroke-width="0.3"><polygon points="36.949553615431064,32.02989594554063 30.977503344524564,33.307088552388116 30.338231219530687,30.31790332943563 36.27426182733004,28.872285664641733"/><polygon points="32.96805756966503,25.606515127030278 32.38143617360245,23.197716004674568 33.39179902646097,22.84983916565105 36.9749390120328,23.837464798778225 37.15730404314393,24.586296549268972"/><polygon points="31.91646466698088,26.71629978606336 32.50192199419054,29.120318980427896 30.201904088645524,29.68044859115286 29.68424543253674,27.259918202175513"/><polygon points="33.164318498249806,26.41240655155191 30.91471613125619,26.960258329171662 30.182772905167695,23.95473515451389 32.38143617360245,23.197716004674568"/><polygon points="30.91471613125619,26.960258329171662 29.68424543253674,27.259918202175513 29.123307599041844,24.637017848286334 30.182772905167695,23.95473515451389"/><polygon points="30.084847490715077,33.03198670237985 25.859581274682775,33.80062801939439 24.99925903651297,29.071386424681435 29.079101682197233,28.32919990576058"/><polygon points="24.99925903651297,29.071386424681435 25.630068964458943,27.751951092066868 28.423029382156393,25.261458410713672 29.079101682197233,28.32919990576058"/><polygon points="26.967315898575567,38.5421944566452 24.752262389179624,38.96564907623169 23.97812259392898,34.91619255617415 26.19696379249556,34.5125510022666"/><polygon points="31.09453173585759,37.753189313015866 26.967315898575567,38.5421944566452 26.19696379249556,34.5125510022666 30.244033224968454,33.77632643804341"/><polygon points="23.97812259392898,34.91619255617415 24.567373083238333,37.99850953628533 22.45639023059328,38.40206883497885 22.03600035656135,35.26949464839956"/><polygon points="25.966239848728318,45.31585735764512 20.615459907115323,46.33877281998294 19.497151558155743,43.62024002241321 25.425428960685277,42.48692362999075"/><polygon points="22.139010073839984,43.11519254251487 19.497151558155743,43.62024002241321 19.306725704697737,40.978189531823446 21.64502008801492,40.531174796347"/><polygon points="25.81388588120472,48.57412335030293 21.77565443736281,48.072049145954686 20.98125797166167,46.88525800745338 25.33201843844918,46.05351755036715"/><polygon points="28.63305526752758,45.42245410708284 28.204257168684535,48.871318738667426 25.81388588120472,48.57412335030293 25.33201843844918,46.05351755036715"/><polygon points="28.204257168684535,48.871318738667426 27.281040663281537,56.296838491134835 21.77565443736281,48.072049145954686"/><polygon points="30.17108847570092,53.81502322499553 30.856650052242127,56.84206218810626 28.068647924857572,57.47348687643792 28.137195376035866,54.27565785075196"/><polygon points="32.59092097054629,56.44928577544974 33.04310152612563,58.44585064567691 29.517386889517667,59.6378350822707 28.068647924857572,57.47348687643792"/></g><g fill="#A39B7C" stroke="#302C14" stroke-width="0.3"><polygon points="3.7833624269558594,42.986025362717726 5.145956433574138,43.045618421405386 3.658186194946118,45.848177218380975"/><polygon points="-0.4134188698851404,42.80247910249116 3.7833624269558594,42.986025362717726 3.5914350512995905,45.97391841146148 -0.01054012077901112,45.81638600138293"/><polygon points="2.5962857448558014,47.848511927762836 1.4266197458385044,50.05184793352411 0.48909959045402474,49.55415468733774 1.4218271359626087,47.797146972048914"/><polygon points="16.21454881031394,50.997781499792644 16.769007258702246,48.22684510137135 17.829521519698275,48.4390517373593 17.302163245859308,51.21541082276116"/><polygon points="17.829521519698275,48.4390517373593 12.588202626710245,47.390275034086656 13.3854529719736,43.40597286182174 17.115963378431417,44.62582316501414"/><polygon points="7.145225702175092,48.28196561217435 9.02515790162732,48.658136025532585 8.0219338727715,53.671802938550016 6.142001673319272,53.295632525191785"/><polygon points="7.980965218218504,44.59464052565112 8.263637524474543,43.18197022635757 13.3854529719736,43.40597286182174 12.94869924498386,45.58867348218358"/><polygon points="7.674777759540111,46.124829084339815 7.23936989879004,48.300803664613824 3.555438347170529,47.56365683827619 4.641467479930806,45.51787018334494"/><polygon points="7.674777759540111,46.124829084339815 4.641467479930806,45.51787018334494 5.935558108307118,43.080151656333534 8.263637524474543,43.18197022635757"/><polygon points="24.94957721424185,60.44211036379766 24.97374665712038,58.181729218914086 27.34948367248336,58.20713212064028 27.325314229604835,60.467513265523856"/><polygon points="24.91219558607945,63.93812505838494 24.94957721424185,60.44211036379766 27.163134290326667,60.46577913374379 27.125752662164267,63.96179382833106"/><polygon points="21.531880826790182,49.515905758631106 23.317487415072055,52.18351842726516 21.818287349015492,53.187030498781134 20.03268076073362,50.51941783014708"/><polygon points="20.03268076073362,50.51941783014708 21.818287349015492,53.187030498781134 20.717688421619634,53.92373291398609 18.97471059906106,51.227586041034854"/><polygon points="18.97471059906106,51.227586041034854 17.812663947096453,45.01765129373821 18.948495547345075,45.65644906495843 21.531880826790182,49.515905758631106"/><polygon points="23.317487415072055,52.18351842726516 25.9947473025818,56.18321939164097 24.804011496248936,56.98025627997596 22.12675160873919,52.98055531560016"/><polygon points="25.9947473025818,56.18321939164097 26.67211548753258,57.195175756140635 25.19472087970786,58.18409201682653 24.51735269475708,57.17213565232687"/><polygon points="-7.428459807756226,59.26669731408174 -7.4747068275862425,63.59182355535237 -10.612759124658739,63.558269490403816 -10.566512104828723,59.23314324913317"/><polygon points="-7.401387802844363,56.73486198115707 -7.428459807756226,59.26669731408174 -10.566512104828723,59.23314324913317 -9.550664620968497,56.711880536897816"/><polygon points="-3.620628537426196,56.775288280637504 -6.0119638642149695,56.74971859177549 -5.978221348487566,53.59404195022118 -3.5921106877520517,54.108234264538694"/><polygon points="-6.0119638642149695,56.74971859177549 -9.550664620968497,56.711880536897816 -9.097323968274507,55.58672060714692 -5.99988248332712,55.619840435282754"/><polygon points="-5.978221348487566,53.59404195022118 -5.99988248332712,55.619840435282754 -9.097323968274507,55.58672060714692 -8.10940882884897,53.134784028615094"/><polygon points="-3.9236337481897148,48.60619116392351 -4.914285702317584,53.20331391936663 -7.879560047051563,52.56431535865649 -6.09615419913322,48.13802623890347"/><polygon points="-4.914285702317584,53.20331391936663 -3.9236337481897148,48.60619116392351 -0.4263597385873865,49.35983241216536 0.23576205398300554,54.31311784348204"/><polygon points="-6.09615419913322,48.13802623890347 -4.637092341089629,44.516736314995654 -0.9680629375796679,45.30738980451497 -2.068296805836539,49.00600497471018"/><polygon points="-1.3081331872272188,42.76334876538189 -0.9680629375796679,45.30738980451497 -2.802577639334639,44.912063059755326 -2.5408644622390657,42.70943525419582"/></g><g stroke="#CCC5B8" stroke-width="0.6" stroke-linecap="square"><polyline points="-41.473124436443165,33.06933926773293 -48.82078819995807,29.905190532554705"/><polyline points="-43.84623598782684,38.580087090369105 -51.193899751341746,35.41593835519088"/></g><g fill-rule="nonzero" stroke="#99948A" stroke-width="0.3" stroke-linecap="butt"><line x1="-6.139565665182979" y1="93.29157574374666" x2="-0.5342080203111763" y2="92.05051484224813"/><line x1="-6.962614860958283" y1="92.01198625180596" x2="-0.10289471704806097" y2="90.49320172364699"/><line x1="-7.680061761751686" y1="90.7090157576681" x2="0.18973902839233858" y2="88.96659311811261"/><line x1="-8.151469466835362" y1="89.35157066166235" x2="0.25570784847872297" y2="87.49016953098742"/><line x1="-8.622877171919043" y1="87.9941255656566" x2="0.32167666856510735" y2="86.01374594386222"/><line x1="-9.09428487700272" y1="86.63668046965087" x2="0.38764548865149173" y2="84.53732235673704"/><line x1="-9.565692582086395" y1="85.27923537364512" x2="0.45361430873787434" y2="83.06089876961185"/><line x1="-10.037100287170077" y1="83.92179027763937" x2="0.5195831288242587" y2="81.58447518248666"/><line x1="-10.508507992253755" y1="82.56434518163364" x2="0.5855519489106431" y2="80.10805159536146"/><line x1="-10.979915697337436" y1="81.2069000856279" x2="0.6515207689970257" y2="78.63162800823628"/><line x1="-11.45132340242111" y1="79.84945498962215" x2="0.7174895890834101" y2="77.15520442111108"/><line x1="-11.922731107504788" y1="78.49200989361641" x2="0.7834584091697945" y2="75.6787808339859"/><line x1="-12.39413881258847" y1="77.13456479761066" x2="0.8494272292561771" y2="74.2023572468607"/><line x1="-12.865546517672144" y1="75.77711970160492" x2="0.9153960493425615" y2="72.7259336597355"/><line x1="-13.336954222755821" y1="74.41967460559918" x2="0.9813648694289459" y2="71.24951007261032"/><line x1="-13.808361927839503" y1="73.06222950959342" x2="1.0473336895153285" y2="69.77308648548514"/><line x1="-14.279769632923179" y1="71.70478441358769" x2="1.1133025096017128" y2="68.29666289835994"/><line x1="-14.733332346289428" y1="70.34338832588594" x2="0.6723699495286226" y2="66.9324704164894"/><line x1="-15.04186342507278" y1="68.94988133597869" x2="0.03907708508188357" y2="65.61086769746422"/><line x1="-15.246886512442277" y1="67.53345703565614" x2="-4.372519575844528" y2="65.12580484134757"/><line x1="-13.596466788002289" y1="65.7062262044051" x2="-10.670774739066688" y2="65.05845986337938"/><line x1="2.4718697074230214" y1="89.41787783806086" x2="3.450125358669152" y2="67.52390253507656"/><line x1="3.8177325791887573" y1="90.76006400938566" x2="4.92742253122325" y2="65.9245065834054"/><line x1="6.363814060441047" y1="65.2406045967492" x2="5.208288405298989" y2="91.10199381890017"/><line x1="7.768976488323155" y1="65.25562949337453" x2="6.627996942821774" y2="90.79146765448965"/><line x1="9.174138916205264" y1="65.27065438999988" x2="8.047705480344561" y2="90.48094149007915"/><line x1="10.579301344087371" y1="65.28567928662522" x2="9.467414017867345" y2="90.17041532566861"/><line x1="11.984463771969478" y1="65.30070418325057" x2="10.887122555390132" y2="89.85988916125811"/><line x1="13.389626199851588" y1="65.31572907987591" x2="12.306831092912917" y2="89.54936299684758"/><line x1="14.794788627733695" y1="65.33075397650126" x2="13.726539630435703" y2="89.23883683243707"/><line x1="16.1999510556158" y1="65.3457788731266" x2="15.146248167958488" y2="88.92831066802654"/><line x1="17.60511348349791" y1="65.36080376975195" x2="16.565956705481273" y2="88.61778450361604"/><line x1="19.010275911380013" y1="65.37582866637729" x2="17.985665243004057" y2="88.30725833920552"/><line x1="20.41543833926212" y1="65.39085356300264" x2="19.40537378052684" y2="87.996732174795"/><line x1="21.82060076714423" y1="65.40587845962798" x2="20.82508231804963" y2="87.68620601038448"/><line x1="23.225763195026335" y1="65.42090335625333" x2="22.24479085557241" y2="87.37567984597396"/><line x1="24.6075154088" y1="65.95986353388108" x2="23.70700640300706" y2="86.1138201277746"/><line x1="25.95337828056574" y1="67.30204970520586" x2="25.40665590536948" y2="79.53803951511719"/></g><g><path fill="none" stroke="#1A1917" stroke-width="1.9" stroke-linejoin="round" stroke-linecap="round" d="M -4.026499307538044,40.69259696239527 L -3.431607169131944,27.124721046605604 L 3.102034379719518,13.03330769309825 L 12.988472985395124,17.882512990305152 M 17.144798130976195,20.266946603000445 L 24.65392151358754,25.272818839200447 L 16.84544910464037,41.60543177644211 L -4.026499307538044,40.69259696239527"/><g stroke="#1A1917" stroke-width="3.8" stroke-linecap="butt"><line x1="14.6943237385229" y1="18.719216765875334" x2="15.563882164720285" y2="19.213046841335636" stroke="#CCC5B8" stroke-width="3.8" stroke-linecap="butt"/><line x1="11.390001718972838" y1="16.842662479126187" x2="14.6943237385229" y2="18.719216765875334"/><line x1="15.563882164720285" y1="19.213046841335636" x2="18.868204184270347" y2="21.089601128084784"/></g><polygon points="-1.6008291077983605,41.347350770767086 -4.729202035825354,44.213233326488414 -7.5950845915466845,41.08486039846142 -4.466711663519692,38.218977842740095" stroke="none" fill="#1A1917"/><polygon points="-2.6257073053093403,29.504448736273744 -6.7477648547968085,28.500137251368105 -5.7434533698911725,24.378079701880637 -1.6213958204037051,25.382391186786275" stroke="none" fill="#1A1917"/><polygon points="1.551751738264256,15.010477943502863 0.1356283601150805,11.011153678347641 4.134952625270303,9.595030300198466 5.551076003419479,13.594354565353688" stroke="none" fill="#1A1917"/><polygon points="22.793214510491662,23.584521496872235 26.8839276845577,22.459325635023042 28.009123546406894,26.55003880908908 23.918410372340855,27.675234670938273" stroke="none" fill="#1A1917"/><polygon points="17.971472364240203,39.359401926613145 20.1548077884761,42.997127373273 16.517082341816238,45.180462797508895 14.333746917580344,41.54273735084904" stroke="none" fill="#1A1917"/></g><g id="labels" style="font: bold italic 2px &quot;Archivo Narrow&quot;, sans-serif" fill="#1A1917"><text text-anchor="middle" stroke="#CCC5B8" stroke-width="0.9809771774170722" x="-1.4419502635460275" y="2.1215247567765907">Market</text><text text-anchor="middle" x="-1.4419502635460275" y="2.1215247567765907">Market</text><text text-anchor="middle" stroke="#CCC5B8" stroke-width="0.9809771774170722" x="-8.627278660000991" y="13.838720285899331">Craftsmen</text><text text-anchor="middle" x="-8.627278660000991" y="13.838720285899331">Craftsmen</text><text text-anchor="middle" stroke="#CCC5B8" stroke-width="0.9809771774170722" x="-19.42221918058458" y="-6.1703982012808085">Merchant</text><text text-anchor="middle" x="-19.42221918058458" y="-6.1703982012808085">Merchant</text><text text-anchor="middle" stroke="#CCC5B8" stroke-width="0.9809771774170722" x="19.528378254318767" y="-15.159749461497663">Temple</text><text text-anchor="middle" x="19.528378254318767" y="-15.159749461497663">Temple</text><text text-anchor="middle" stroke="#CCC5B8" stroke-width="0.9809771774170722" x="-1.7395066266015053" y="-18.262930452092547">Craftsmen</text><text text-anchor="middle" x="-1.7395066266015053" y="-18.262930452092547">Craftsmen</text><text text-anchor="middle" stroke="#CCC5B8" stroke-width="0.9809771774170722" x="18.967551219060432" y="7.670149131264861">Craftsmen</text><text text-anchor="middle" x="18.967551219060432" y="7.670149131264861">Craftsmen</text><text text-anchor="middle" stroke="#CCC5B8" stroke-width="0.9809771774170722" x="8.768587662108471" y="29.176250669254557">Castle</text><text text-anchor="middle" x="8.768587662108471" y="29.176250669254557">Castle</text><text text-anchor="middle" stroke="#CCC5B8" stroke-width="0.9809771774170722" x="-17.8994370225775" y="25.395399688564844">Shanty town</text><text text-anchor="middle" x="-17.8994370225775" y="25.395399688564844">Shanty town</text><text text-anchor="middle" stroke="#CCC5B8" stroke-width="0.9809771774170722" x="-32.27736663477968" y="29.822251743785998">Docks</text><text text-anchor="middle" x="-32.27736663477968" y="29.822251743785998">Docks</text><text text-anchor="middle" stroke="#CCC5B8" stroke-width="0.9809771774170722" x="21.024615158739287" y="47.32413160147455">Shanty town</text><text text-anchor="middle" x="21.024615158739287" y="47.32413160147455">Shanty town</text></g></g></svg>