<svg width="119.42118817082554" height="100.83184481460104" xmlns="http://www.w3.org/2000/svg"><rect x="0" y="0" width="119.42118817082554" height="100.83184481460104" id="background" fill="#CCC5B8"/><g id="map" transform="translate(59.71059408541277 50.41592240730052)"><g fill="none"><path d="M 31.98860104981618,9.201014002488202 L 41.73733752307239,7.851757860998015 C 44.02478227851292,7.535168229812019 47.467360310184084,11.547115212716108 53.32584339902131,14.719179333415573 C 57.517741634304926,16.98887437019099 62.183877466913785,18.834361537402323 66.70528817205016,21.370605525152783 C 71.3862984281759,23.996375421528313 75.23238394820342,28.232757710110697 80.25644929956434,29.825656438920895 C 84.97744969183195,31.322467287832023 90.33145721222012,30.296625452500795 95.60954528599562,30.534808455262976 C 99.97787835949376,30.731937164365185 105.74267936601282,30.07557426624484 112.57146774445341,31.283928453319714 C 122.8245559083477,33.098212529306664 136.40352161528085,31.47332682106294 146.12593647977388,39.47368449477113 C 152.82003378621602,44.98210740210158 155.33546675331897,57.4434796631914 160.47326131065552,70.70124267854786 C 168.59247966193018,91.65238651465614 168.59247966193018,91.65238651465614 182.89109883172344,134.34392584905635" stroke="#67635C" stroke-width="2.3" stroke-linejoin="round" stroke-linecap="butt"/><path d="M 31.98860104981618,9.201014002488202 L 41.73733752307239,7.851757860998015 C 44.02478227851292,7.535168229812019 47.467360310184084,11.547115212716108 53.32584339902131,14.719179333415573 C 57.517741634304926,16.98887437019099 62.183877466913785,18.834361537402323 66.70528817205016,21.370605525152783 C 71.3862984281759,23.996375421528313 75.23238394820342,28.232757710110697 80.25644929956434,29.825656438920895 C 84.97744969183195,31.322467287832023 90.33145721222012,30.296625452500795 95.60954528599562,30.534808455262976 C 99.97787835949376,30.731937164365185 105.74267936601282,30.07557426624484 112.57146774445341,31.283928453319714 C 122.8245559083477,33.098212529306664 136.40352161528085,31.47332682106294 146.12593647977388,39.47368449477113 C 152.82003378621602,44.98210740210158 155.33546675331897,57.4434796631914 160.47326131065552,70.70124267854786 C 168.59247966193018,91.65238651465614 168.59247966193018,91.65238651465614 182.89109883172344,134.34392584905635" stroke="#CCC5B8" stroke-width="1.7" stroke-linejoin="round" stroke-linecap="round"/></g><g fill="none"><path d="M -20.129713021399755,-17.86267069175842 L -37.3623190007017,-21.11966760995718 C -41.62186237984916,-21.924729808644972 -47.27678031171803,-24.210745147906 -52.12609558684502,-28.987381260789824 C -54.83459891679236,-31.655290869400243 -55.62798140006482,-36.16791044873155 -56.980933478199816,-40.44424790248289 C -58.98821534896104,-46.78875543005537 -59.75956173002122,-53.563858174696485 -61.925989474358325,-59.962353657247846 C -63.24014751409988,-63.84368978887028 -65.22624838646007,-67.76111440462726 -67.55780477800239,-71.68279874186098 C -71.01938270165985,-77.50518243996294 -75.59846032366373,-84.01543960625294 -80.6912910102566,-91.52564304786783 C -85.28112249108435,-98.2940927185962 -87.57750705061613,-108.06496964108331 -95.1661688284106,-112.39580168039906 C -104.30519348600761,-117.61142229364518 -104.30519348600761,-117.61142229364518 -126.33796407263753,-117.57609568039844" stroke="#67635C" stroke-width="2.3" stroke-linejoin="round" stroke-linecap="butt"/><path d="M -20.129713021399755,-17.86267069175842 L -37.3623190007017,-21.11966760995718 C -41.62186237984916,-21.924729808644972 -47.27678031171803,-24.210745147906 -52.12609558684502,-28.987381260789824 C -54.83459891679236,-31.655290869400243 -55.62798140006482,-36.16791044873155 -56.980933478199816,-40.44424790248289 C -58.98821534896104,-46.78875543005537 -59.75956173002122,-53.563858174696485 -61.925989474358325,-59.962353657247846 C -63.24014751409988,-63.84368978887028 -65.22624838646007,-67.76111440462726 -67.55780477800239,-71.68279874186098 C -71.01938270165985,-77.50518243996294 -75.59846032366373,-84.01543960625294 -80.6912910102566,-91.52564304786783 C -85.28112249108435,-98.2940927185962 -87.57750705061613,-108.06496964108331 -95.1661688284106,-112.39580168039906 C -104.30519348600761,-117.61142229364518 -104.30519348600761,-117.61142229364518 -126.33796407263753,-117.57609568039844" stroke="#CCC5B8" stroke-width="1.7" stroke-linejoin="round" stroke-linecap="round"/></g><g fill="#979E7C" stroke="#253014" stroke-width="0.3"><polygon points="2.8487324484290295,5.135589715705406 -0.2388671068071604,5.165517670219594 -2.4471248530497003,5.186922206722093 -2.477028618407929,2.1018181921399863 -2.5067349054419292,-0.9629124292065168 -2.529975362508598,-3.360577958553355 -0.3217176162660582,-3.3819824950558535 -0.2984771591993898,-0.9843169657090154 2.7891223960367997,-1.014244920223204 2.8188286830708007,2.050485701123299"/><polygon points="2.8487324484290295,5.135589715705406 2.825739247656092,2.763433060417769 6.879394049070701,2.724141178701042 7.099490957204678,5.094387317199519"/><polygon points="2.825739247656092,2.763433060417769 2.7941821007172645,-0.49224660210821414 2.7658819389701317,-3.4119104495700427 4.392925059498092,-3.427681300560485 6.3064242959205945,-3.4462287569537438 6.577320817102911,-0.5289163843773714 6.879394049070701,2.724141178701042 4.688581290680704,2.7453766217723454"/><polygon points="-2.4471248530497,5.186922206722093 -4.396336769098907,5.205815824407425 -6.428211636224976,5.225510690115883 -6.460369176837329,1.9078897666706616 -6.484790489658566,-0.611601987080407 -4.4529156225324975,-0.6312968527888652 -4.479187278557806,-3.3416843408680226 -2.5299753625085977,-3.360577958553355 -2.5037037064832894,-0.6501904704741976 -2.4792823936620523,1.869301283276871"/><polygon points="2.9576935975785554,-3.4137696707842675 0.9218298758188204,-3.3940361412990128 -1.137812382929467,-3.374072127594326 -1.1506044973374565,-4.693805714395719 -1.1674300399166397,-6.429658986942782 0.8922122188316477,-6.449623000647469 2.9280759405913828,-6.469356530132723 2.944901483170566,-4.73350325758566"/><polygon points="-6.511062145683875,-3.321989475159565 -4.9721642294458555,-8.526436610799093 -4.0680123884582775,-11.584216083601493 -2.4521095055332998,-10.402825010551782 -1.1970476969038133,-9.485245846291239 -1.867790803385833,-7.216838694363963 -3.0094189261232156,-3.3559307350688052 -4.5401861575159,-3.341093081657683"/></g><g fill="#899E8C" stroke="#173025" stroke-width="0.3"><polygon points="-7.250589961873327,19.577410675513086 -7.922681143187333,14.57835889735964 -9.005581986896335,6.523681885047925 -3.9885147388999647,6.475051692658493 1.129217599407081,6.425445758373103 1.9590945794074812,12.598117127767784 -3.030869232384754,13.59807250484328 -2.436516477473785,18.01890152164288"/><polygon points="11.769830818315738,13.419735685205971 6.608036200104907,15.090816151457505 2.4741491230196466,16.42912161596304 1.9301662470832266,12.382946574775493 1.129217599407081,6.425445758373103 3.8983043488507647,6.398605133220579 7.355935584079237,6.365090479366174 9.984547789814348,10.566351612925644"/></g><g fill="#979E7C" stroke="#253014" stroke-width="0.3"><polygon points="-9.49683257998312,-13.51646426640155 -10.895092565373217,-9.010025691921857 -13.115907971432872,-9.699101392368878 -11.717647986042776,-14.205539966848571"/><polygon points="-9.49683257998312,-13.51646426640155 -6.975939898196639,-12.734280440715713 -5.141518553113139,-12.165095280242982 -6.0403923411700085,-9.125165820210842 -6.479548860587904,-7.639968611568714 -8.33933843540036,-8.217025038884193 -10.895092565373217,-9.010025691921857 -10.436167991695864,-10.489089258930314"/><polygon points="-15.459647505354642,-2.1454859313274732 -14.484419980550163,-5.288537282716309 -13.115907971432872,-9.699101392368878 -9.252910712777155,-8.500488696072765 -6.479548860587904,-7.639968611568715 -7.789112577975747,-3.2111139968598534 -8.722332435875028,-0.055028485847546715 -11.53788419969383,-0.9286392769581024"/><polygon points="-13.277119483175621,-9.179534371386689 -14.52801560831219,-5.148033355922854 -15.459647505354642,-2.145485931327473 -18.876035774178725,-3.205524569800292 -22.163775100184168,-4.22564595079073 -25.153774780492977,-5.153384527542038 -23.865835828432704,-8.045376823223647 -20.985733403478413,-7.151737221112009 -19.40398443337913,-11.08058105252286 -16.399337735210093,-10.148297791839715"/><polygon points="-13.277119483175621,-9.179534371386689 -15.654856195613057,-9.91729969223723 -19.375317839072533,-11.0716863674908 -22.13652852405728,-11.928436181836492 -21.00255345001866,-14.474711509846916 -19.980629727374478,-16.76938202038129 -17.40530744925011,-15.970309752675806 -18.33911767926308,-13.648299344152603 -14.750398180675157,-12.53478968664128 -13.935312273796372,-14.89363793675211 -11.717647986042776,-14.205539966848571 -12.456857507454263,-11.823148754400302"/><polygon points="-18.559207186920496,-3.1072188393506095 -19.430126092509425,-0.300342727327251 -20.915985844708093,4.488420287804626 -25.88983205771494,4.076923102874767 -29.14454276444338,3.8076537615594948 -26.62851457990381,-1.8419417520838475 -25.153774780492977,-5.153384527542038 -22.54536969046229,-4.344047308627685"/><polygon points="-18.559207186920496,-3.1072188393506095 -15.196600966346896,-2.0638677213572305 -11.918720227681042,-1.0468052677129864 -12.891698500299107,2.0889969905726273 -13.818389356325335,5.07561998189648 -17.321908746228157,4.785766153581061 -20.915985844708093,4.488420287804626 -19.766309198960755,0.7831385528568773"/><polygon points="-13.818389356325335,5.07561998189648 -12.748172612309277,1.6264287952213348 -11.918720227681042,-1.0468052677129869 -10.434397806087288,-0.5862489740389956 -8.722332435875028,-0.05502848584754716 -9.422048655751576,2.311363747107926 -11.203603965671688,1.944495429384042 -12.196086869866946,5.209836617814295"/></g><g fill="#898995" stroke="#171A2E" stroke-width="0.3"><polygon points="6.109220530863521,-18.206536561155932 7.633087030219208,-19.647195234301844 9.909925640354832,-21.799711411035343 11.168301471108254,-20.46865582665001 12.384249406158837,-19.1824786371995 10.107410796023215,-17.029962460466002 8.583544296667528,-15.589303787320091 7.367596361616945,-16.8754809767706"/><polygon points="6.9318089884694745,-24.9498345328928 2.3823705259182315,-20.648809487858173 0.2983878888492164,-22.853156280796796 4.847826351400457,-27.15418132583141"/><polygon points="6.9318089884694745,-24.9498345328928 8.423593586362564,-23.371889239286233 9.909925640354832,-21.799711411035343 7.6648401243602144,-19.677214511248216 6.376327646414989,-18.459058801680882 4.889995592422721,-20.031236629931772 2.259476229027807,-17.5443517634717 0.7676916311347171,-19.12229705707827 3.3982109945296313,-21.60918192353834 4.686723472474858,-22.827337633105675"/><polygon points="-1.3956254415292868,-12.107934413530591 1.4662403215581103,-14.813533450397959 3.248364670793645,-16.49834829568541 4.757232575771124,-14.902333017946335 6.22013204882408,-13.354941161384968 4.6602087297916945,-11.880194482488386 2.155169650057749,-9.511938287924062 0.4072346310508539,-10.789858421334456"/><polygon points="-1.3956254415292868,-12.107934413530591 -3.257917083877448,-13.469460990983544 -0.5766474633587997,-20.54428086771913 3.2483646707936455,-16.49834829568541"/><polygon points="5.92104446387977,-13.072184684054136 8.786773469764878,-15.781436018708316 10.27842923810011,-17.191642766418102 12.384249406158837,-19.1824786371995 14.275480937872718,-17.18201563550136 12.16966076981399,-15.191179764719962 13.535925809226462,-13.7460036368762 12.044270040891229,-12.335796889166414 10.678005001478759,-13.780973017010178 7.81227599559365,-11.071721682355998"/><polygon points="15.64174597728519,-15.7368395076576 19.034096740093943,-12.148557440664206 11.16553922212649,-7.524784722419186 9.17854103500612,-9.626545554512234"/><polygon points="6.829700182486194,-7.568618462332061 5.950342783944409,-6.737276698772135 2.155169650057749,-9.511938287924062 3.6534054590920007,-10.928365785749888"/><polygon points="9.097339187273963,-9.71243736063631 11.16553922212649,-7.524784722419186 7.677065297623631,-5.474865086756152 5.950342783944409,-6.737276698772135"/></g><g fill="#A38B7C" stroke="#301C14" stroke-width="0.3"><polygon points="14.393365657436952,-8.179989385425275 16.592940965004274,-4.969927961401329 18.635387915763907,-1.9891797484656069 21.085776739618986,1.5869190603613106 18.13442705792248,2.9980316190451317 15.895171899819166,-0.5838048689033934 13.444576640414684,0.6730321824463417 11.735497535953044,-2.316775493956322 14.028708983764263,-3.5693355494672243 12.01865641367545,-6.784547363174542"/><polygon points="8.78277124965574,1.5909414219191333 8.21271299857921,-4.5480742498087725 9.329845797848806,-5.204531058839475 10.481415305518569,0.6226991919861617"/><polygon points="10.481415305518569,0.6226991919861617 14.889685785347616,4.54942188222065 12.460959543990553,5.710655375506296 8.78277124965574,1.5909414219191333"/><polygon points="26.113393365916238,-0.03253270795334373 27.880316112711416,3.0672833589623023 29.491213765123238,5.893375464098178 31.049008060451328,8.626305239531828 29.524723928066518,9.645454659635657 26.76859916744114,11.488223269402992 25.09553266416516,8.553064707841699 27.92588037742853,6.8405097712745535 26.272534149354133,3.939947643555513 24.459051427879636,0.7584486859487424"/><polygon points="23.459180550034503,5.682316349593538 20.294270447233487,7.486343276186392 17.796174377258755,8.91028026936093 16.917455315382007,7.368691950770828 15.57167960537798,5.007718797925413 18.172592171487796,3.764158806089264 21.467763464506298,2.188656715154389 22.67253174540676,4.3022522760351904"/><polygon points="20.674536056717667,13.959958755058372 23.206643104088318,12.516635202067272 23.76510812260278,13.496383094464598 21.33604205029173,15.12047746531955"/><polygon points="21.696430590829955,9.86718093387905 23.728422326888616,8.70892755940889 24.82732971623505,8.082540567102757 25.983802980315584,10.111409351240257 26.76859916744114,11.488223269402992 25.714410459722338,12.193062864151454 23.76510812260278,13.496383094464598 22.92880472416473,12.029207058615572"/><polygon points="15.57167960537798,5.007718797925413 18.08238803666775,9.41240165617082 15.917339671346895,10.646498493536896 13.317522302430259,6.085486606723302"/><polygon points="14.083826288982452,7.429858574294874 14.889828705082257,8.843875822038541 15.917339671346895,10.646498493536896 14.969827627479765,11.186588791487075 13.320157300476339,12.126915560099413 12.218684205014666,10.366451960513245 11.354664252567376,8.985505224849149 13.088165018456637,7.997394359973129"/><polygon points="13.317522302430259,6.085486606723302 14.083826288982452,7.429858574294874 11.354664252567376,8.985505224849149 10.409989400593654,7.475649289923089"/><polygon points="19.4901853679827,11.88218297201287 18.19621669958198,12.619756629443597 16.308207335324955,13.695938770530235 15.584416254118848,12.426149682873527 14.900410004010006,11.226157454688186 16.78841936826703,10.149975313601548 17.472425618375873,11.349967541786889 18.766394286776595,10.61239388435616"/><polygon points="19.4901853679827,11.88218297201287 20.492939600270454,13.641373455043965 18.90195058394158,14.548251354302646 17.899196351653828,12.789060871271552"/></g><g fill="#A38594" stroke="#30162D" stroke-width="0.3"><polygon points="0.8551765359473295,19.908194748783533 2.8154737455421586,18.47982843771775 5.378019752309917,17.663655707417625 7.928827645767216,25.28070632438326 5.865384494670561,26.784229702062845"/><polygon points="-4.124832368797652,23.536867438582224 -5.808277143430416,21.226499244755775 -2.3773578939037425,20.133749017470112 -1.8267819625799495,21.8623979931807"/><polygon points="-2.3773578939037425,20.133749017470112 2.8154737455421586,18.47982843771775 -1.8267819625799495,21.8623979931807"/><polygon points="-4.362379419016535,23.210856655435077 -6.5313988689065505,24.79130797429896 -8.046682851728926,22.711724508728384 -5.808277143430416,21.226499244755775"/><polygon points="-6.5313988689065505,24.79130797429896 -8.542417596409337,26.256632409403917 -8.826268975942794,24.87161417464077 -7.289040860317742,23.75151624151368"/><polygon points="-6.5088823210051485,29.04746659185748 -8.462324205745023,30.470837785332776 -10.20633741210289,28.69517575549867 -8.103767870499462,26.858637530239534"/><polygon points="13.02566706946158,21.566905330287213 8.820292546905895,15.795427889240635 12.583386510366275,14.577163064673208 16.26255527352932,19.208353759256717"/><polygon points="8.820292546905895,15.795427889240635 9.97440621651627,17.37933937508656 8.053629415346975,18.778909226249073 6.440983587466906,16.56570586800181"/><polygon points="8.053629415346975,18.778909226249073 6.80295072803237,19.690213539791095 5.827630896443413,16.777779191442608 5.860987629086904,16.753473880532617 6.440983587466906,16.56570586800181"/><polygon points="5.827630896443413,16.777779191442608 3.249826369664281,17.598811771245973 5.860987629086904,16.753473880532617"/></g><g fill="#979E7C" stroke="#253014" stroke-width="0.3"><polygon points="-14.827119883929718,11.79929716511008 -12.12604191481564,11.43615416046737 -9.74480211124604,11.116011392679477 -9.437816430473806,13.39938804751328 -11.819056234043405,13.719530815301173 -11.611084912388492,15.266433131875653 -14.312162881502571,15.629576136518363 -14.520134203157484,14.082673819943883"/><polygon points="-14.827119883929718,11.79929716511008 -15.21018298133574,8.950052432440614 -15.588483264939669,6.136233775084047 -12.715035091329481,6.3739604324524155 -12.377681654452351,8.883214154826238 -10.052364673605457,8.828343860351115 -9.74480211124604,11.116011392679477 -12.036080926005585,11.424059469328991"/><polygon points="-15.013110147282955,10.415891188978357 -19.018321961664977,10.954366815797162 -21.76483366233463,11.323618100903404 -22.266169140584083,7.5946567878053175 -22.53956058615187,5.561155932422035 -19.711954397538168,5.795089982023737 -15.588483264939669,6.136233775084047 -15.38544128519027,7.646471371003046"/><polygon points="-21.76483366233463,11.323618100903404 -23.291298834345202,11.528841776556197 -24.916232518401838,11.747303926527756 -25.342132261065903,8.579437831755783 -25.78400877329527,5.292735631816642 -24.111096715427415,5.431139308361294 -22.53956058615187,5.561155932422035 -22.145065312633943,8.495433830098452"/><polygon points="-24.215285252621452,16.960988874067763 -25.723496745948303,17.163758457021718 -29.209735665887198,5.009317747091192 -25.78400877329527,5.292735631816642"/><polygon points="-16.638183571259567,15.942295040525606 -9.229845108818893,14.94629036408776 -8.480776924558334,20.517901393360265 -11.29405554851898,28.31225693470885 -14.97886385868663,28.28440782267098"/></g><g fill="#898995" stroke="#171A2E" stroke-width="0.3"><polygon points="-14.76152099877205,-17.24405645440745 -14.40159444571062,-20.89434463971209 -14.04952573964717,-24.464940438293134 -11.370068948551792,-23.813931043140602 -7.4781080473782975,-22.868327769876228 -7.181561947909631,-18.877735501793655 -6.87839721452849,-14.798076915308247 -11.547223788051898,-16.246722729200755"/><polygon points="-3.138161239395556,-27.64643402598481 -4.845621441197212,-22.26219622420056 -6.870526029442612,-22.904337995080155 -7.321500875230443,-28.97306301262438"/><polygon points="-2.8706226652996225,-28.490079636326314 0.6320011520425708,-27.37932060409848 0.12863056309180965,-26.051122864930395 -3.299331804295954,-27.13820510963526"/><polygon points="-2.8706226652996225,-28.490079636326314 -2.0100372251944916,-31.203815894067468 1.6424610662919747,-30.04552837047499 0.6320011520425708,-27.37932060409848"/><polygon points="-4.845621441197212,-22.26219622420056 -3.299331804295954,-27.13820510963526 0.12863056309180965,-26.051122864930395 -1.6869517383204857,-21.260512604931105"/><polygon points="-1.6869517383204857,-21.260512604931105 -2.4144047388503593,-19.341049187990528 -2.9500942616752726,-17.927574446458344 -4.507189776496141,-18.42136367342738 -4.2524871460835625,-19.923945537208695 -6.7068890051631485,-20.702290336953165 -6.870526029442612,-22.904337995080155 -3.906607331672781,-21.964414201940723"/><polygon points="-4.998822397739139,-18.577271188210936 -2.9500942616752726,-17.927574446458344 -4.424674632096401,-14.036734661207078 -6.2537362043570335,-14.6042567887226"/></g><g fill="#979E7C" stroke="#253014" stroke-width="0.3"><polygon points="-23.84529865699228,-11.005557827260306 -24.72996871693061,-9.01908246406925 -27.081312795127868,-10.066245567694585 -26.19664273518954,-12.052720930885641"/><polygon points="-31.98798812530864,-4.944864609392291 -32.58107741506646,-6.9881098745189565 -33.44081106757554,-9.949968645356897 -31.1130328131908,-10.625648836653536 -29.432656873325136,-11.113408671319917 -28.572923220816055,-8.151549900481978 -27.979833931058238,-6.1083046353553145 -29.6602098709239,-5.620544800688932"/><polygon points="-25.73624501840183,-6.759547331191636 -29.83999094861303,2.455176390472886 -31.98798812530864,-4.944864609392291"/><polygon points="-35.411300403422025,-16.738479372122814 -36.33103561251873,-19.907048833096397 -30.048694551464955,-18.719673835983247 -30.13360300127762,-18.270427522067727"/><polygon points="-30.048694551464955,-18.719673835983247 -27.45776900564559,-18.229983737564485 -24.974126349565644,-17.760570319392254 -25.51062993030171,-14.92195700611277 -26.04457885436376,-12.09686025209982 -28.528221510443707,-12.566273670272054 -27.99427258638166,-15.391370424285002 -30.585198132201022,-15.881060522703764"/><polygon points="-24.974126349565644,-17.760570319392254 -21.158171061440477,-17.03934715509918 -22.960628597053947,-12.992033190451362 -25.774860096473116,-13.523928559713287"/></g><g fill="#898995" stroke="#171A2E" stroke-width="0.3"><polygon points="22.276952395031785,-26.490106848577042 23.379722177226352,-28.089006282507306 24.958614676240007,-30.378233248706724 27.181973596992844,-28.844770304916665 29.314403616248153,-27.37402152736603 27.7355111172345,-25.08479456116661 25.60308109797919,-26.555543338717246 24.50031131578462,-24.956643904786983"/><polygon points="15.45495342962679,-23.252814406932142 16.77141533548193,-25.161544796582184 19.167079115396028,-28.635003648500614 22.310593539107384,-26.466904365457864 26.632741335039928,-23.485895127236347 24.23707755512583,-20.012436275317917 22.92061564927069,-18.10370588566787 18.598467853338146,-21.084715123889392"/><polygon points="15.45495342962679,-23.252814406932142 22.92061564927069,-18.10370588566787 19.509408540318574,-13.157816722230395 13.13949150075248,-19.895639748050343"/><polygon points="8.058476901875114,-28.85310066722139 11.42466560535853,-26.531421701933738 9.501785045556959,-23.743448465612516 6.629656338167264,-26.78146211909755"/><polygon points="15.68812578545499,-23.59088963692254 13.13949150075248,-19.895639748050343 9.501785045556959,-23.743448465612516 11.42466560535853,-26.531421701933738"/><polygon points="6.629656338167264,-26.78146211909755 3.1419397041568224,-30.4706180842703 3.8567360810802125,-31.75106454878727 8.058476901875114,-28.85310066722139"/></g><g fill="#898995" stroke="#171A2E" stroke-width="0.3"><polygon points="29.75330629642182,-14.414221936053194 28.098376187254157,-12.014748485233287 25.94475367366213,-8.892223844569697 24.007938661424763,-10.228055869943553 20.782837152150773,-12.452426217111102 22.9364596657428,-15.574950857774692 24.59138977491046,-17.9744243085946 27.81649128418445,-15.75005396142705"/><polygon points="25.94475367366213,-8.892223844569697 24.07014032738077,-6.174232957802232 20.62333513948564,-12.221165185226914 20.782837152150773,-12.452426217111102"/><polygon points="28.462784993774314,-2.94941193114346 27.064189684851282,-0.9215968025094767 24.253476775388133,-5.852595088679055"/><polygon points="26.09574229452241,-9.111141359649753 27.78594501938693,-7.945399192750713 30.579614170665625,-6.018590128902069 29.23829400509713,-4.073817894411954 28.462784993774314,-2.94941193114346 25.725954808611238,-4.958631478317638 24.07014032738077,-6.174232957802232 24.81222787795889,-7.250181341321415"/><polygon points="28.133598043886984,-2.4721257048337013 31.053208715469733,-0.4584540779196855 29.983800356434035,1.0920748244045395 27.064189684851282,-0.9215968025094767"/><polygon points="38.1342270649233,-5.113019958807337 41.27508096344542,-2.9467556547014753 39.774428503198656,-0.6031646893487578 36.5551469552451,-2.8235209770066683"/><polygon points="36.5551469552451,-2.8235209770066683 39.774428503198656,-0.6031646893487578 38.96756610328435,0.6569241592118422 35.70611601656768,-1.5925160028414465"/><polygon points="30.97513302453107,1.9287153632099177 35.95426077205854,5.362847307432798 34.35252109682702,7.864307659620083 29.723395043819245,3.7436029137249918"/><polygon points="34.34586359202025,1.595910790550161 35.256488552988564,0.27560100502313567 36.27454234894979,-1.2004692177513887 37.54234121827792,-0.3260613260937797 38.96756610328435,0.656924159211842 38.000075648424456,2.1678681979813366 37.13467839614845,3.5193717843224457 35.65875815886113,2.501421434181237"/><polygon points="33.10375454899275,3.396837400838741 34.34586359202025,1.595910790550161 37.13467839614845,3.5193717843224457 35.95426077205854,5.362847307432798"/><polygon points="28.994502568835713,-24.358471702174743 31.190260212398446,-27.542087820449066 35.89120119768671,-23.139731490730163 34.237643740151846,-20.742248239455158"/><polygon points="34.237643740151846,-20.742248239455158 32.37920931375092,-18.047715073651858 27.136068142434787,-21.66393853637144 28.994502568835713,-24.358471702174743"/><polygon points="29.273845022937305,-20.189501999048122 26.729166655412982,-16.499987771271282 24.59138977491046,-17.9744243085946 27.136068142434787,-21.66393853637144"/><polygon points="38.0058427164957,3.273355966931424 41.94911779902896,-2.8849145868021093 43.96010859528748,-1.5972332761324526 41.8342296268084,5.7247556867083045"/><polygon points="38.0058427164957,3.273355966931424 40.62892550491697,4.9529731433369975 39.19377923379436,7.1942621320009845 36.57069644537309,5.514644955595413"/></g><g fill-rule="nonzero" stroke="#99948A" stroke-width="0.3" stroke-linecap="butt"><line x1="2.010994405347102" y1="48.74936134103924" x2="-0.011920368487112754" y2="45.97310278910204"/><line x1="4.31993521898695" y1="49.80071375987502" x2="-1.2553869937086057" y2="42.149113122511764"/><line x1="6.628876032626797" y1="50.8520661787108" x2="-2.4988536189301005" y2="38.32512345592147"/><line x1="-2.5353229476233494" y1="36.15762303445163" x2="8.569264021960738" y2="51.39761482194782"/><line x1="-1.7990328558949993" y1="35.050661582435815" x2="9.764806587032487" y2="50.92093380641391"/><line x1="-1.0627427641666476" y1="33.943700130420005" x2="10.947310835431782" y2="50.42635893858679"/><line x1="-0.08673964701462877" y1="33.1657220569683" x2="11.932996540777376" y2="49.66166929855055"/><line x1="0.9210644388355487" y1="32.43138779513441" x2="12.91868224612296" y2="48.89697965851431"/><line x1="1.928868524685724" y1="31.69705353330053" x2="13.904367951468549" y2="48.13229001847807"/><line x1="2.9366726105359016" y1="30.962719271466643" x2="14.890053656814139" y2="47.367600378441836"/><line x1="3.9444766963860776" y1="30.22838500963276" x2="15.87573936215973" y2="46.60291073840561"/><line x1="4.952280782236255" y1="29.494050747798873" x2="16.861425067505323" y2="45.838221098369374"/><line x1="5.960084868086431" y1="28.75971648596499" x2="17.84711077285091" y2="45.073531458333136"/><line x1="6.967888953936607" y1="28.025382224131107" x2="18.8327964781965" y2="44.3088418182969"/><line x1="7.975693039786787" y1="27.29104796229722" x2="19.818482183542088" y2="43.544152178260674"/><line x1="8.983497125636966" y1="26.556713700463334" x2="20.804167888887683" y2="42.77946253822443"/><line x1="9.991301211487146" y1="25.822379438629447" x2="21.78985359423327" y2="42.0147728981882"/><line x1="10.99910529733732" y1="25.088045176795564" x2="22.775539299578863" y2="41.25008325815196"/><line x1="12.006909383187494" y1="24.353710914961674" x2="23.761225004924455" y2="40.48539361811572"/><line x1="13.014713469037675" y1="23.619376653127794" x2="24.74691071027005" y2="39.720703978079484"/><line x1="14.022517554887852" y1="22.885042391293904" x2="25.73259641561564" y2="38.956014338043246"/><line x1="15.030321640738034" y1="22.15070812946002" x2="26.332565213006948" y2="37.661964846476955"/><line x1="16.03812572658821" y1="21.416373867626135" x2="26.829781370335578" y2="36.22689710767751"/><line x1="17.04592981243839" y1="20.682039605792248" x2="26.466228716069907" y2="33.61050586215413"/><line x1="18.053733898288566" y1="19.947705343958365" x2="24.926968036984704" y2="29.380566927570307"/><line x1="19.4820322133847" y1="19.790459506750324" x2="23.387707357899508" y2="25.15062799298651"/><line x1="21.091025332337367" y1="19.88120013985041" x2="21.848446678814312" y2="20.920689058402715"/><path d="M 8.239469253037509,43.89902159726262 L 10.129936157788384,42.52153698640145 L 10.911152135802759,41.95230565800882 L 11.682476476080705,43.010875116155184 L 10.90126049806633,43.580106444547816 L 11.581264474630656,44.51334736982405 L 12.36248045264503,43.944116041431414 L 13.054195531992708,44.89342934389103 L 12.272979553978333,45.46266067228366 L 10.382512649227458,46.84014528314483 L 9.69079756987978,45.89083198068521 L 9.010793593315455,44.95759105540898 Z" fill="#99948A" stroke="#1A1917" stroke-width="0.3"/></g><g fill-rule="nonzero" stroke="#99948A" stroke-width="0.3" stroke-linecap="butt"><line x1="-54.52975627142605" y1="-39.52432261759041" x2="-47.33027845616284" y2="-40.690420210999"/><line x1="-54.4377199191956" y1="-37.774476657860774" x2="-46.366503886740595" y2="-39.08176946892732"/><line x1="-53.73793656231979" y1="-36.12306732613433" x2="-46.08797428205097" y2="-37.362129773937966"/><line x1="-53.03815320544398" y1="-34.471657994407884" x2="-45.80944467736135" y2="-35.64249007894861"/><line x1="-52.33836984856818" y1="-32.82024866268144" x2="-45.530915072671725" y2="-33.92285038395926"/><line x1="-51.63858649169237" y1="-31.168839330954995" x2="-45.2523854679821" y2="-32.203210688969904"/><line x1="-50.459797148697376" y1="-29.595014477155228" x2="-44.97385586329248" y2="-30.483570993980557"/><line x1="-47.952572867441596" y1="-28.236355892945415" x2="-44.695326258602854" y2="-28.763931298991203"/><line x1="-41.837598246301475" y1="-25.505582069343667" x2="-44.19666699687139" y2="-40.070454881372264"/><line x1="-42.65775301870178" y1="-41.751137623638385" x2="-39.76178117375453" y2="-23.87142912481538"/><line x1="-40.892918307941066" y1="-42.036987453555085" x2="-37.77955182149321" y2="-22.815086064970856"/><line x1="-39.12808359718035" y1="-42.322837283471785" x2="-35.869704119149084" y2="-22.205626770050113"/><line x1="-37.36324888641963" y1="-42.60868711338848" x2="-33.993848671622885" y2="-21.806035401995675"/><line x1="-35.59841417565892" y1="-42.89453694330518" x2="-32.1255205451502" y2="-21.452917657795265"/><line x1="-33.83357946489819" y1="-43.180386773221876" x2="-30.257192418677523" y2="-21.099799913594858"/><line x1="-32.06874475413748" y1="-43.466236603138576" x2="-28.388864292204843" y2="-20.74668216939445"/><line x1="-30.30391004337676" y1="-43.75208643305527" x2="-26.520536165732164" y2="-20.393564425194043"/><line x1="-28.539075332616044" y1="-44.03793626297197" x2="-24.65220803925948" y2="-20.040446680993632"/><line x1="-26.774240621855327" y1="-44.32378609288867" x2="-22.7838799127868" y2="-19.687328936793225"/><line x1="-24.934098738891617" y1="-44.14469000518211" x2="-21.160198258162794" y2="-20.844656678985128"/><line x1="-22.832902648480008" y1="-42.35384719428022" x2="-20.339298817386336" y2="-26.958355801885467"/><line x1="-20.369003250282766" y1="-38.323676875384514" x2="-19.704912014476495" y2="-34.22358255521493"/><path d="M -46.37039887828239,-40.11455948159136 L -46.183174118015415,-38.95863521279155 L -47.26496906827301,-38.78341715942349 L -48.443551022730965,-38.592522539564456 L -48.17965245540819,-36.96321475978725 L -47.001070500950235,-37.154109379646286 L -46.84415312246832,-36.185302659183435 L -48.022735076926274,-35.9944080393244 L -49.43424905661033,-35.7657854784933 L -49.59116643509224,-36.73459219895615 L -49.85506500241502,-38.36389997873336 L -50.04228976268199,-39.519824247533165 L -48.63077578299794,-39.748446808364264 L -47.45219382853998,-39.9393414282233 Z" fill="#99948A" stroke="#1A1917" stroke-width="0.3"/></g><g fill-rule="nonzero" stroke="#99948A" stroke-width="0.3" stroke-linecap="butt"><line x1="48.52729486474255" y1="13.386654017518122" x2="50.558412520390135" y2="14.954800027091304"/><line x1="41.91347520319516" y1="9.663131183440083" x2="50.26332071330457" y2="16.10971830301092"/><line x1="39.81991986026916" y1="9.429526539848226" x2="49.96822890621902" y2="17.26463657893053"/><line x1="38.30119170707482" y1="9.639723347770254" x2="49.38018914455953" y2="18.19338126776108"/><line x1="36.78246355388048" y1="9.849920155692281" x2="48.7113215713039" y2="19.059721984145924"/><line x1="35.263735400686144" y1="10.06011696361431" x2="48.04245399804827" y2="19.926062700530768"/><line x1="33.745007247491806" y1="10.270313771536339" x2="47.37358642479264" y2="20.79240341691561"/><line x1="32.49186751225011" y1="10.685560945025939" x2="46.70471885153701" y2="21.658744133300452"/><line x1="31.3535250227058" y1="11.189438554201924" x2="46.03585127828138" y2="22.525084849685296"/><line x1="30.3937300604372" y1="11.831165682650235" x2="45.36698370502575" y2="23.39142556607014"/><line x1="29.433935098168593" y1="12.472892811098548" x2="44.69811613177012" y2="24.257766282454984"/><line x1="28.474140135899987" y1="13.114619939546857" x2="44.02924855851449" y2="25.124106998839824"/><line x1="27.51434517363138" y1="13.756347067995165" x2="43.360380985258864" y2="25.99044771522467"/><line x1="26.554550211362773" y1="14.398074196443474" x2="42.69151341200323" y2="26.856788431609512"/><line x1="25.59475524909417" y1="15.039801324891785" x2="42.02264583874761" y2="27.723129147994356"/><line x1="24.634960286825567" y1="15.681528453340096" x2="41.35377826549197" y2="28.589469864379193"/><line x1="23.675165324556957" y1="16.323255581788406" x2="40.68491069223634" y2="29.45581058076404"/><line x1="23.44597079581284" y1="17.529050553002122" x2="40.01604311898071" y2="30.32215129714888"/><line x1="23.315216941700164" y1="18.81084769507667" x2="39.34717554572509" y2="31.188492013533725"/><line x1="23.86726190183227" y1="20.61980693084977" x2="38.678307972469455" y2="32.05483272991856"/><line x1="24.56704251294459" y1="22.542827048774196" x2="38.00944039921382" y2="32.92117344630341"/><line x1="25.26682312405691" y1="24.46584716669863" x2="37.34057282595819" y2="33.787514162688254"/><line x1="25.96660373516923" y1="26.388867284623064" x2="36.671705252702566" y2="34.653854879073094"/><line x1="26.666384346281554" y1="28.311887402547494" x2="36.002837679446934" y2="35.520195595457935"/><line x1="27.36616495739387" y1="30.23490752047193" x2="35.23982229868287" y2="36.31384849474666"/><line x1="28.06594556850619" y1="32.15792763839635" x2="34.4536652640637" y2="37.08963463380763"/><line x1="33.63230551862606" y1="37.838242145208774" x2="28.765726179618515" y2="34.08094775632079"/><line x1="30.942327446884413" y1="37.14416298424446" x2="29.84006489160382" y2="36.293149443616215"/></g><g fill-rule="nonzero" stroke="#99948A" stroke-width="0.3" stroke-linecap="butt"><line x1="-50.38290624031205" y1="7.664787594699698" x2="-52.76813632462596" y2="-0.9267836989256422"/><line x1="-48.44826069057866" y1="8.098019853156726" x2="-51.32703927964645" y2="-2.2713074705225944"/><line x1="-46.757335325627956" y1="7.653374812888373" x2="-49.642505570544415" y2="-2.7389751815468033"/><line x1="-45.06640996067725" y1="7.208729772620017" x2="-47.957971861442374" y2="-3.2066428925710144"/><line x1="-43.37548459572655" y1="6.764084732351661" x2="-46.27343815234033" y2="-3.6743106035952247"/><line x1="-41.68455923077584" y1="6.319439692083304" x2="-44.58890444323829" y2="-4.141978314619436"/><line x1="-39.99363386582513" y1="5.874794651814949" x2="-42.90437073413626" y2="-4.609646025643644"/><line x1="-38.30270850087444" y1="5.430149611546595" x2="-41.21983702503422" y2="-5.077313736667856"/><line x1="-36.61178313592373" y1="4.985504571278238" x2="-39.53530331593218" y2="-5.544981447692065"/><line x1="-34.92085777097303" y1="4.540859531009885" x2="-37.85076960683014" y2="-6.0126491587162745"/><line x1="-33.22993240602233" y1="4.096214490741526" x2="-36.160431656836224" y2="-6.459410060893878"/><line x1="-31.788554708191036" y1="2.752701627484498" x2="-34.216541811855855" y2="-5.992879957421384"/><line x1="-59.08771402994648" y1="-23.689829812560504" x2="-54.045968396902936" y2="-5.529520106808352"/><line x1="-58.17385027183426" y1="-25.49220328511808" x2="-52.32522409754172" y2="-4.425519162419995"/><line x1="-56.900910587884766" y1="-26.001189408193614" x2="-50.92049952353878" y2="-4.459817629255259"/><line x1="-55.62797090393526" y1="-26.510175531269148" x2="-49.60745610444802" y2="-4.8243505602162635"/><line x1="-54.35503121998575" y1="-27.019161654344682" x2="-48.29441268535726" y2="-5.188883491177268"/><line x1="-53.047717179551384" y1="-27.404331741242263" x2="-46.9813692662665" y2="-5.553416422138277"/><line x1="-51.539883168159214" y1="-27.067231202086056" x2="-45.668325847175744" y2="-5.917949353099278"/><line x1="-49.92395401011062" y1="-26.340773189577067" x2="-44.35528242808498" y2="-6.282482284060283"/><line x1="-48.264141609890565" y1="-25.456248244158346" x2="-43.04223900899422" y2="-6.647015215021288"/><line x1="-46.60432920967051" y1="-24.571723298739627" x2="-41.72919558990347" y2="-7.011548145982289"/><line x1="-44.944516809450455" y1="-23.687198353320902" x2="-40.41615217081271" y2="-7.376081076943294"/><line x1="-43.2847044092304" y1="-22.80267340790218" x2="-39.10310875172195" y2="-7.740614007904298"/><line x1="-41.624892009010345" y1="-21.918148462483458" x2="-37.79006533263119" y2="-8.1051469388653"/><line x1="-39.9650796087903" y1="-21.03362351706474" x2="-36.523390815136224" y2="-8.636700119355801"/><line x1="-38.04797851087361" y1="-19.222347645669625" x2="-35.42608089051726" y2="-9.778302612857754"/></g><g fill-rule="nonzero" stroke="#99948A" stroke-width="0.3" stroke-linecap="butt"><line x1="4.307687629005684" y1="-62.07051893556043" x2="5.208402277490024" y2="-53.15453613780199"/><line x1="2.4984789885863483" y1="-62.75091653042165" x2="3.5552891435339653" y2="-52.28977750280074"/><line x1="0.7683554051453483" y1="-62.648467961111876" x2="1.8597424768196145" y2="-51.845059386467284"/><line x1="-0.9542113133628949" y1="-62.47121559255355" x2="0.13685231061554995" y2="-51.671008757879285"/><line x1="-2.6767780318711365" y1="-62.29396322399522" x2="-1.5860378555885128" y2="-51.49695812929129"/><line x1="-4.399344750379378" y1="-62.11671085543689" x2="-3.3089280217925756" y2="-51.322907500703295"/><line x1="-6.121911468887621" y1="-61.93945848687856" x2="-5.031818187996639" y2="-51.148856872115296"/><line x1="-7.844478187395863" y1="-61.76220611832023" x2="-6.754708354200703" y2="-50.9748062435273"/><line x1="-9.567044905904106" y1="-61.5849537497619" x2="-8.477598520404767" y2="-50.800755614939305"/><line x1="-11.289611624412348" y1="-61.40770138120357" x2="-10.200488686608832" y2="-50.62670498635131"/><line x1="-13.012178342920587" y1="-61.23044901264524" x2="-11.923378852812892" y2="-50.45265435776331"/><line x1="-14.734745061428828" y1="-61.05319664408691" x2="-13.646269019016954" y2="-50.278603729175316"/><line x1="-16.399729851798835" y1="-60.30595301180684" x2="-15.369159185221019" y2="-50.10455310058732"/><line x1="-17.976992828512614" y1="-58.690369797325886" x2="-17.092049351425082" y2="-49.93050247199932"/><line x1="-19.342747722607605" y1="-54.98111304329581" x2="-18.822468171616254" y2="-49.83097638850702"/><line x1="-22.245247645824755" y1="-47.09820704726853" x2="3.8832679936918817" y2="-49.737774362896566"/><line x1="5.964056172442433" y1="-48.659230016790154" x2="-22.486349304389645" y2="-45.78509964332819"/><line x1="6.092933694720187" y1="-47.38349882536371" x2="-21.838601259983275" y2="-44.561786036205014"/><line x1="6.22181121699794" y1="-46.107767633937264" x2="-21.096536969641686" y2="-43.348000489670426"/><line x1="6.350688739275694" y1="-44.83203644251082" x2="-20.3544726793001" y2="-42.13421494313584"/><line x1="6.479566261553448" y1="-43.55630525108437" x2="-19.612408388958507" y2="-40.92042939660125"/><line x1="6.608443783831202" y1="-42.28057405965792" x2="-18.87034409861692" y2="-39.70664385006666"/><line x1="6.639450445628578" y1="-40.99495571168418" x2="-17.892407806444048" y2="-38.51668667691904"/><line x1="6.367895196248879" y1="-39.67877181062984" x2="-15.995447646752787" y2="-37.419571569369474"/><line x1="5.686820474724754" y1="-38.321217238975635" x2="-13.026272882238011" y2="-36.43077423483379"/><line x1="4.924391305181809" y1="-36.955444039637634" x2="-9.944202381652298" y2="-35.45338190696278"/><line x1="4.161962135638869" y1="-35.58967084029964" x2="-6.8621318810666025" y2="-34.475989579091774"/><line x1="3.3995329660959284" y1="-34.22389764096164" x2="-3.7800613804809053" y2="-33.498597251220765"/><line x1="2.637103796552985" y1="-32.85812444162364" x2="-0.6979908798951939" y2="-32.52120492334975"/></g><g fill-rule="nonzero" stroke="#99948A" stroke-width="0.3" stroke-linecap="butt"><line x1="53.20215317532204" y1="16.518977296874674" x2="51.526996268982025" y2="19.20380100559023"/><line x1="54.90709946524261" y1="16.95706522627673" x2="52.40740079820174" y2="20.963406495274107"/><line x1="56.41703100037473" y1="17.707709093109937" x2="53.32785985823213" y2="22.65881539922028"/><line x1="57.926962535506846" y1="18.458352959943145" x2="54.32154248241449" y2="24.236866722913632"/><line x1="59.43689407063897" y1="19.208996826776357" x2="55.31522510659685" y2="25.814918046606987"/><line x1="60.94682560577108" y1="19.95964069360956" x2="56.30890773077921" y2="27.39296937030034"/><line x1="62.4567571409032" y1="20.71028456044277" x2="57.302590354961566" y2="28.971020693993694"/><line x1="63.966688676035325" y1="21.460928427275977" x2="58.29627297914392" y2="30.549072017687045"/><line x1="65.45690398376449" y1="22.243172077136986" x2="59.28995560332628" y2="32.1271233413804"/><line x1="66.92242877587678" y1="23.064987949431437" x2="60.28363822750864" y2="33.705174665073756"/><line x1="68.35832837074489" y1="23.9342850049127" x2="61.277320851690995" y2="35.28322598876711"/><line x1="69.78227658627739" y1="24.822736890888105" x2="62.27100347587336" y2="36.86127731246046"/><line x1="71.2062248018099" y1="25.711188776863512" x2="63.26468610005571" y2="38.43932863615381"/><line x1="72.63017301734241" y1="26.599640662838922" x2="64.25836872423807" y2="40.01737995984716"/><line x1="74.05412123287492" y1="27.48809254881433" x2="65.25205134842042" y2="41.59543128354051"/><line x1="75.47806944840744" y1="28.376544434789743" x2="66.24573397260279" y2="43.17348260723387"/><line x1="76.90201766393994" y1="29.26499632076515" x2="67.23941659678513" y2="44.75153393092722"/><line x1="77.72411771782178" y1="31.118048124116054" x2="68.56870373576919" y2="45.791701934746854"/><line x1="72.20331259790221" y1="43.137062368539915" x2="70.14615575438447" y2="46.43412871803796"/><line x1="54.992021698666335" y1="57.512446068077956" x2="37.76032091966001" y2="40.48507986571595"/><line x1="58.162044855176546" y1="58.33627296246323" x2="37.32562300424821" y2="37.74693069423511"/><line x1="60.10937345407628" y1="57.95190408714055" x2="38.04440415789634" y2="36.14858256546804"/><line x1="62.05670205297602" y1="57.56753521181787" x2="39.05545312424028" y2="34.83903651954572"/><line x1="64.00403065187577" y1="57.183166336495205" x2="40.066502090584216" y2="33.52949047362341"/><line x1="65.38588397764173" y1="56.24002762890153" x2="41.07755105692815" y2="32.2199444277011"/><line x1="66.17918595530543" y1="54.71531665159664" x2="42.088600023272086" y2="30.910398381778798"/><line x1="66.97248793296913" y1="53.19060567429175" x2="43.09964898961602" y2="29.600852335856484"/><line x1="67.76578991063283" y1="51.665894696986875" x2="44.11069795595996" y2="28.291306289934173"/><line x1="45.1217469223039" y1="26.981760244011866" x2="67.09583772151471" y2="48.6952809115691"/><line x1="46.132795888647834" y1="25.672214198089556" x2="63.94511999085291" y2="43.273318656270305"/><line x1="47.14384485499177" y1="24.362668152167238" x2="60.097070872532704" y2="37.162294012160345"/><line x1="48.154893821335705" y1="23.053122106244935" x2="56.24902175421252" y2="31.05126936805042"/><line x1="51.037726145984124" y1="23.59316369546581" x2="52.40097263589233" y2="24.94024472394048"/></g><g fill-rule="nonzero" stroke="#99948A" stroke-width="0.3" stroke-linecap="butt"><line x1="44.368822653833035" y1="70.70389614553818" x2="39.6800182240717" y2="72.25636326345759"/><line x1="46.73761887551602" y1="68.09015097766557" x2="38.687904060433375" y2="70.75541837071839"/><line x1="49.106415097199" y1="65.476405809793" x2="38.1420206522051" y2="69.10672609692375"/><line x1="51.47521131888198" y1="62.862660641920385" x2="37.59613724397682" y2="67.4580338231291"/><line x1="52.61365192805084" y1="60.65628725941205" x2="37.05025383574854" y2="65.80934154933446"/><line x1="52.310029775688974" y1="58.92738207861466" x2="36.504370427520264" y2="64.16064927553981"/><line x1="51.5537069550324" y1="57.3483664725086" x2="35.958487019291994" y2="62.511957001745174"/><line x1="50.16697605644938" y1="55.97807951493382" x2="35.41260361106371" y2="60.86326472795052"/><line x1="48.78024515786636" y1="54.60779255735903" x2="34.86672020283544" y2="59.21457245415588"/><line x1="47.39351425928334" y1="53.23750559978425" x2="34.32083679460716" y2="57.56588018036123"/><line x1="46.006783360700325" y1="51.867218642209465" x2="33.77495338637888" y2="55.917187906566596"/><line x1="44.6200524621173" y1="50.49693168463468" x2="33.229069978150605" y2="54.268495632771945"/><line x1="43.23332156353428" y1="49.12664472705989" x2="32.68318656992233" y2="52.6198033589773"/><line x1="41.846590664951265" y1="47.756357769485106" x2="32.13730316169405" y2="50.971111085182656"/><line x1="40.45985976636824" y1="46.38607081191032" x2="31.591419753465775" y2="49.32241881138801"/><line x1="39.07312886778523" y1="45.01578385433554" x2="31.045536345237497" y2="47.67372653759337"/><line x1="37.686397969202204" y1="43.64549689676076" x2="30.499652937009223" y2="46.02503426379872"/><line x1="36.299667070619186" y1="42.27520993918598" x2="29.953769528780946" y2="44.37634199000408"/><line x1="34.78329870693449" y1="40.94784605610398" x2="29.417191110249266" y2="42.72456882623994"/><line x1="32.946135707230226" y1="39.72669754870799" x2="28.918044930429787" y2="41.06040181653462"/><line x1="28.434753916623652" y1="39.3909851479336" x2="29.84079319269862" y2="38.925444352767464"/><line x1="27.417559411348158" y1="44.03379956133393" x2="38.09603531448698" y2="76.28522990714325"/><line x1="37.301594852022774" y1="78.50192129778725" x2="25.30834806721803" y2="42.279583315403805"/><line x1="36.18217392412224" y1="79.73709763517465" x2="23.97030750187355" y2="42.85447853466113"/><line x1="34.812530429264285" y1="80.21654480649215" x2="22.754276071746183" y2="43.797869142370935"/><line x1="33.2763371697064" y1="80.19297373962156" x2="21.538244641618824" y2="44.74125975008074"/><line x1="31.670443273474827" y1="79.95889086852625" x2="20.32221321149146" y2="45.68465035779054"/><line x1="30.06454937724325" y1="79.72480799743093" x2="19.1061817813641" y2="46.62804096550034"/><line x1="28.458655481011675" y1="79.4907251263356" x2="17.890150351236734" y2="47.57143157321015"/><line x1="26.852761584780097" y1="79.2566422552403" x2="16.674118921109375" y2="48.51482218091994"/><line x1="25.246867688548523" y1="79.02255938414497" x2="15.458087490982011" y2="49.458212788629744"/><line x1="23.640973792316945" y1="78.78847651304966" x2="14.242056060854653" y2="50.401603396339546"/><line x1="22.035079896085367" y1="78.55439364195433" x2="13.026024630727289" y2="51.34499400404935"/><line x1="20.418408061465698" y1="78.28775894114587" x2="11.88234252776075" y2="52.50689606476599"/><line x1="18.044360188935116" y1="75.73367603575896" x2="11.287462961174656" y2="55.326306831427715"/></g><g fill-rule="nonzero" stroke="#99948A" stroke-width="0.3" stroke-linecap="butt"><line x1="-38.30955456322538" y1="-77.65828641990939" x2="-32.713584338490534" y2="-59.81331396053591"/><line x1="-39.63608611026725" y1="-78.17665771875728" x2="-33.62411397937401" y2="-59.00509804388532"/><line x1="-40.962617657309124" y1="-78.69502901760518" x2="-34.534643620257484" y2="-58.19688212723473"/><line x1="-42.102233640948555" y1="-78.61734584382539" x2="-35.687345888693336" y2="-58.16092976731012"/><line x1="-43.16199581061286" y1="-78.28501708510956" x2="-36.881542509534434" y2="-58.25729862178692"/><line x1="-44.22175798027716" y1="-77.95268832639371" x2="-38.07573913037553" y2="-58.35366747626372"/><line x1="-45.281520149941464" y1="-77.62035956767788" x2="-39.26993575121663" y2="-58.450036330740524"/><line x1="-46.34128231960577" y1="-77.28803080896205" x2="-40.464132372057726" y2="-58.546405185217324"/><line x1="-47.40104448927007" y1="-76.95570205024622" x2="-41.65832899289882" y2="-58.642774039694125"/><line x1="-48.460806658934374" y1="-76.62337329153038" x2="-42.852525613739914" y2="-58.739142894170925"/><line x1="-49.52056882859867" y1="-76.29104453281454" x2="-44.04672223458101" y2="-58.835511748647725"/><line x1="-50.58033099826297" y1="-75.9587157740987" x2="-45.24091885542211" y2="-58.931880603124526"/><line x1="-51.640093167927276" y1="-75.62638701538287" x2="-46.4351154762632" y2="-59.028249457601326"/><line x1="-52.69985533759158" y1="-75.29405825666704" x2="-47.6293120971043" y2="-59.12461831207813"/><line x1="-53.75961750725588" y1="-74.96172949795121" x2="-48.823508717945394" y2="-59.22098716655493"/><line x1="-54.819379676920185" y1="-74.62940073923538" x2="-50.01770533878649" y2="-59.31735602103173"/><line x1="-55.87914184658449" y1="-74.29707198051955" x2="-51.21190195962759" y2="-59.41372487550853"/><line x1="-56.938904016248785" y1="-73.96474322180372" x2="-52.40609858046868" y2="-59.51009372998533"/><line x1="-57.99866618591309" y1="-73.63241446308787" x2="-53.60029520130978" y2="-59.60646258446213"/><line x1="-59.05842835557739" y1="-73.30008570437204" x2="-54.794491822150874" y2="-59.70283143893893"/><line x1="-60.11819052524169" y1="-72.9677569456562" x2="-55.988688442991965" y2="-59.79920029341573"/><line x1="-61.177952694906" y1="-72.63542818694037" x2="-57.18288506383307" y2="-59.89556914789253"/><line x1="-62.23771486457029" y1="-72.30309942822454" x2="-58.378673982442386" y2="-59.99701567588795"/><line x1="-63.27624928107676" y1="-71.90307755191458" x2="-59.5759175202681" y2="-60.10310083468604"/><line x1="-61.09179715490621" y1="-61.225283675177764" x2="-64.1896839256209" y2="-71.10412539261745"/><line x1="-64.44479452518196" y1="-68.20584568505355" x2="-65.10311857016505" y2="-70.3051732333203"/><line x1="-30.14929077078329" y1="-46.107104092414396" x2="-53.72262340272305" y2="-42.288937392539616"/><line x1="-28.72617970301093" y1="-48.1004959062761" x2="-56.44226225788337" y2="-43.611329053448024"/><line x1="-29.25227967303321" y1="-49.77817450335435" x2="-56.8712976633803" y2="-45.3047291733926"/><line x1="-29.778379643055494" y1="-51.4558531004326" x2="-57.30033306887722" y2="-46.99812929333718"/><line x1="-30.304479613077774" y1="-53.13353169751085" x2="-57.72936847437415" y2="-48.69152941328175"/><line x1="-30.830579583100054" y1="-54.8112102945891" x2="-58.158403879871074" y2="-50.38492953322633"/><line x1="-58.587439285368" y1="-52.07832965317091" x2="-34.17508559306761" y2="-56.032392381120324"/><line x1="-59.016474690864925" y1="-53.77172977311548" x2="-41.439724121572624" y2="-56.61863159915376"/><line x1="-59.44551009636185" y1="-55.465129893060066" x2="-48.7043626500777" y2="-57.2048708171872"/><line x1="-57.96445355279722" y1="-57.467907120920394" x2="-55.969001178582715" y2="-57.79111003522063"/><line x1="-24.504661880999606" y1="-47.058016791543345" x2="-25.99454666249042" y2="-46.59080671909917"/><line x1="-23.86920199665489" y1="-48.47601295536088" x2="-26.394472608412148" y2="-47.68411825308753"/><line x1="-23.361889693232925" y1="-49.85382356838263" x2="-26.794398554333874" y2="-48.7774297870759"/><line x1="-22.854577389810963" y1="-51.23163418140438" x2="-27.186085762334162" y2="-49.87332489087379"/><line x1="-22.347265086389" y1="-52.609444794426125" x2="-27.5340454329729" y2="-50.98293242811102"/><line x1="-21.83995278296704" y1="-53.987255407447876" x2="-27.88200510361164" y2="-52.09253996534826"/><line x1="-21.332640479545073" y1="-55.36506602046963" x2="-28.229964774250377" y2="-53.2021475025855"/><line x1="-20.825328176123108" y1="-56.74287663349138" x2="-28.577924444889117" y2="-54.311755039822735"/><line x1="-20.318015872701146" y1="-58.12068724651313" x2="-28.925884115527854" y2="-55.42136257705997"/><line x1="-19.810703569279184" y1="-59.49849785953487" x2="-29.27384378616659" y2="-56.530970114297205"/><line x1="-19.878548121372653" y1="-60.6959461522816" x2="-29.62180345680533" y2="-57.64057765153444"/><line x1="-20.278474067294376" y1="-61.78925768626997" x2="-29.969763127444068" y2="-58.75018518877168"/><line x1="-20.678400013216105" y1="-62.88256922025833" x2="-30.317722798082805" y2="-59.85979272600892"/><line x1="-21.439050937797987" y1="-63.862761709401106" x2="-30.665682468721545" y2="-60.96940026324616"/><line x1="-22.35913696720381" y1="-64.79295725394766" x2="-31.013642139360282" y2="-62.079007800483396"/><line x1="-23.279222996609633" y1="-65.72315279849421" x2="-31.361601809999023" y2="-63.188615337720634"/><line x1="-24.19930902601545" y1="-66.65334834304076" x2="-31.70956148063776" y2="-64.29822287495787"/><line x1="-25.119395055421272" y1="-67.58354388758733" x2="-32.057521151276504" y2="-65.40783041219511"/><line x1="-26.039481084827095" y1="-68.51373943213387" x2="-32.40548082191524" y2="-66.51743794943235"/><line x1="-26.95956711423291" y1="-69.44393497668042" x2="-32.75344049255398" y2="-67.62704548666959"/><line x1="-27.879653143638734" y1="-70.37413052122699" x2="-33.101400163192714" y2="-68.73665302390683"/><line x1="-28.799739173044554" y1="-71.30432606577354" x2="-33.44935983383145" y2="-69.84626056114406"/><line x1="-29.719825202450377" y1="-72.2345216103201" x2="-33.797319504470195" y2="-70.9558680983813"/><line x1="-30.639911231856196" y1="-73.16471715486665" x2="-34.14527917510893" y2="-72.06547563561854"/><line x1="-31.55999726126202" y1="-74.0949126994132" x2="-34.49323884574767" y2="-73.17508317285578"/><line x1="-32.48008329066784" y1="-75.02510824395976" x2="-34.84119851638641" y2="-74.28469071009302"/><line x1="-33.40016932007366" y1="-75.95530378850631" x2="-35.18915818702514" y2="-75.39429824733025"/><path d="M -33.06294478422396,-68.71731952585816 L -33.348892612003844,-69.62917768568093 L -32.33156086595205,-69.94820077033653 L -33.00936022525277,-72.10963308930057 L -31.88014674750076,-72.4637409487134 L -30.704344134133823,-72.8324586045992 L -30.026544774833102,-70.67102628563515 L -29.740596947053213,-69.75916812581238 L -30.916399560420153,-69.39045046992658 L -32.045613038172164,-69.03634261051376 Z" fill="#99948A" stroke="#1A1917" stroke-width="0.3"/></g><g id="labels" style="font: bold italic 1px &quot;Archivo Narrow&quot;, sans-serif" fill="#1A1917"><text text-anchor="middle" stroke="#CCC5B8" stroke-width="0.6936062087610239" x="0.16168163632415464" y="11.857428237415059">Merchant</text><text text-anchor="middle" x="0.16168163632415464" y="11.857428237415059">Merchant</text><text text-anchor="middle" stroke="#CCC5B8" stroke-width="0.6936062087610239" x="-17.161262864034285" y="5.616222575286646">Craftsmen</text><text text-anchor="middle" x="-17.161262864034285" y="5.616222575286646">Craftsmen</text><text text-anchor="middle" stroke="#CCC5B8" stroke-width="0.6936062087610239" x="11.483905789622693" y="-21.48059620279678">Craftsmen</text><text text-anchor="middle" x="11.483905789622693" y="-21.48059620279678">Craftsmen</text><text text-anchor="middle" stroke="#CCC5B8" stroke-width="0.6936062087610239" x="18.449846175572162" y="3.177018015758775">Gate</text><text text-anchor="middle" x="18.449846175572162" y="3.177018015758775">Gate</text><text text-anchor="middle" stroke="#CCC5B8" stroke-width="0.6936062087610239" x="2.7817809136020264" y="23.216347391921776">Craftsmen</text><text text-anchor="middle" x="2.7817809136020264" y="23.216347391921776">Craftsmen</text></g></g></svg>