<svg width="102.3624109880819" height="99.09384766867795" xmlns="http://www.w3.org/2000/svg"><rect x="0" y="0" width="102.3624109880819" height="99.09384766867795" id="background" fill="#CCC5B8"/><g id="map" transform="translate(51.18120549404095 49.546923834338976)"><g fill="none"><path d="M -24.83323481319801,-7.596971185081188 C -34.15452615961298,-7.8643987467443575 -34.15452615961298,-7.8643987467443575 -38.70991505488708,-7.069190430425323 C -42.103110580297276,-6.476859597046415 -44.745803672074025,-3.6363004874097133 -47.7519771736261,-3.596176753788368 C -50.67980823278877,-3.5570986654992214 -54.90673016643788,-4.182267933223287 -59.01458522696301,-6.798181728887295 C -64.73374081240932,-10.440184130404688 -69.02049983540027,-17.433217782486906 -76.24017899716635,-21.737683468568346 C -81.11670134169363,-24.645128886723505 -88.78793741160864,-23.94836717167032 -94.97718040185006,-28.239544072594555 C -101.343729298808,-32.653652164376695 -109.30350500220595,-42.28023389621801 -121.88361593268125,-53.383566909449925 C -142.7280497903618,-71.78107483868799 -142.7280497903618,-71.78107483868799 -185.1672518503383,-107.84221238880392" stroke="#67635C" stroke-width="2.3" stroke-linejoin="round" stroke-linecap="butt"/><path d="M -24.83323481319801,-7.596971185081188 C -34.15452615961298,-7.8643987467443575 -34.15452615961298,-7.8643987467443575 -38.70991505488708,-7.069190430425323 C -42.103110580297276,-6.476859597046415 -44.745803672074025,-3.6363004874097133 -47.7519771736261,-3.596176753788368 C -50.67980823278877,-3.5570986654992214 -54.90673016643788,-4.182267933223287 -59.01458522696301,-6.798181728887295 C -64.73374081240932,-10.440184130404688 -69.02049983540027,-17.433217782486906 -76.24017899716635,-21.737683468568346 C -81.11670134169363,-24.645128886723505 -88.78793741160864,-23.94836717167032 -94.97718040185006,-28.239544072594555 C -101.343729298808,-32.653652164376695 -109.30350500220595,-42.28023389621801 -121.88361593268125,-53.383566909449925 C -142.7280497903618,-71.78107483868799 -142.7280497903618,-71.78107483868799 -185.1672518503383,-107.84221238880392" stroke="#CCC5B8" stroke-width="1.7" stroke-linejoin="round" stroke-linecap="round"/></g><g fill="none"><path d="M 27.261996648115655,-11.643587898991555 L 31.360710540848334,-21.013657673603245 C 32.42877705139891,-23.455364508893606 35.18085875943772,-27.66656223883212 37.5008922704846,-34.46297894518647 C 38.83508246502164,-38.37141926918595 37.97596302235434,-43.24099981881515 40.26385794730651,-47.094961880749736 C 42.905161882758314,-51.54424189367804 46.73130230665798,-56.88042635874029 52.768180135993795,-60.18074577992731 C 59.30694162356825,-63.755441531278294 67.78872842113496,-63.09938328621895 75.15827141949737,-66.17149676001726 C 80.95290664352669,-68.5870843957014 85.57819563252504,-74.13233512635682 92.0960988824747,-76.57522629308214 C 98.24989652239299,-78.88165173695285 107.55353899190872,-80.42014276464153 119.39497649257359,-82.75128506370001 C 138.60132969286525,-86.53230762564345 138.60132969286525,-86.53230762564345 177.21852392944663,-93.33269223539612" stroke="#67635C" stroke-width="2.3" stroke-linejoin="round" stroke-linecap="butt"/><path d="M 27.261996648115655,-11.643587898991555 L 31.360710540848334,-21.013657673603245 C 32.42877705139891,-23.455364508893606 35.18085875943772,-27.66656223883212 37.5008922704846,-34.46297894518647 C 38.83508246502164,-38.37141926918595 37.97596302235434,-43.24099981881515 40.26385794730651,-47.094961880749736 C 42.905161882758314,-51.54424189367804 46.73130230665798,-56.88042635874029 52.768180135993795,-60.18074577992731 C 59.30694162356825,-63.755441531278294 67.78872842113496,-63.09938328621895 75.15827141949737,-66.17149676001726 C 80.95290664352669,-68.5870843957014 85.57819563252504,-74.13233512635682 92.0960988824747,-76.57522629308214 C 98.24989652239299,-78.88165173695285 107.55353899190872,-80.42014276464153 119.39497649257359,-82.75128506370001 C 138.60132969286525,-86.53230762564345 138.60132969286525,-86.53230762564345 177.21852392944663,-93.33269223539612" stroke="#CCC5B8" stroke-width="1.7" stroke-linejoin="round" stroke-linecap="round"/></g><g fill="none"><polyline points="-9.068129263008794,123.19812371113848 -10.394152134090733,99.15928411982497 -3.59543210176218,80.54940512709399 -1.4665811979880499,69.62881952943565 9.395082413155553,52.93921623261552 10.872888213640534,39.38910319528248 24.593217898625532,21.358701830807224 40.751004578367464,3.586519976704421 56.781832035742134,-0.628181490101167 65.10485273587265,-22.121717566674867 83.37830633623561,-33.298705108083304 96.87964602033821,-30.329688594876675 106.65778930722608,-38.58960715925722 119.39497649257359,-82.75128506370001" stroke="#99948A" stroke-width="3.878171756471587" stroke-linejoin="round" stroke-linecap="butt"/><polyline points="-9.068129263008794,123.19812371113848 -10.394152134090733,99.15928411982497 -3.59543210176218,80.54940512709399 -1.4665811979880499,69.62881952943565 9.395082413155553,52.93921623261552 10.872888213640534,39.38910319528248 24.593217898625532,21.358701830807224 40.751004578367464,3.586519976704421 56.781832035742134,-0.628181490101167 65.10485273587265,-22.121717566674867 83.37830633623561,-33.298705108083304 96.87964602033821,-30.329688594876675 106.65778930722608,-38.58960715925722 119.39497649257359,-82.75128506370001" stroke="#67635C" stroke-width="3.278171756471587" stroke-linejoin="round" stroke-linecap="round"/><polyline points="-9.068129263008794,123.19812371113848 -10.394152134090733,99.15928411982497 -3.59543210176218,80.54940512709399 -1.4665811979880499,69.62881952943565 9.395082413155553,52.93921623261552 10.872888213640534,39.38910319528248 24.593217898625532,21.358701830807224 40.751004578367464,3.586519976704421 56.781832035742134,-0.628181490101167 65.10485273587265,-22.121717566674867 83.37830633623561,-33.298705108083304 96.87964602033821,-30.329688594876675 106.65778930722608,-38.58960715925722 119.39497649257359,-82.75128506370001" stroke="#CCC5B8" stroke-width="2.326903053882952" stroke-linejoin="round" stroke-linecap="butt"/><polyline points="-9.068129263008794,123.19812371113848 -10.394152134090733,99.15928411982497 -3.59543210176218,80.54940512709399 -1.4665811979880499,69.62881952943565 9.395082413155553,52.93921623261552 10.872888213640534,39.38910319528248 24.593217898625532,21.358701830807224 40.751004578367464,3.586519976704421 56.781832035742134,-0.628181490101167 65.10485273587265,-22.121717566674867 83.37830633623561,-33.298705108083304 96.87964602033821,-30.329688594876675 106.65778930722608,-38.58960715925722 119.39497649257359,-82.75128506370001" stroke="#67635C" stroke-width="2.026903053882952" stroke-linejoin="round" stroke-linecap="round"/><g fill="none"><line x1="22.718565009992826" y1="19.798311985752367" x2="26.46787078725824" y2="22.91909167586208" stroke="#1A1917" stroke-width="1.3" stroke-linejoin="round" stroke-linecap="butt"/><line x1="22.718565009992826" y1="19.798311985752367" x2="26.46787078725824" y2="22.91909167586208" stroke="#CCC5B8" stroke-width="0.7" stroke-linejoin="round" stroke-linecap="round"/></g></g><g fill-rule="nonzero" fill="#99948A" stroke="#1A1917" stroke-width="0.3"><path d="M 0.20122195428279244,3.440350810271132 L -0.9393127490266555,3.9181329985160103 L -1.4310306156730757,2.744331829393961 L -0.2904959123636277,2.2665496411490826 Z"/></g><g fill="#999E7C" stroke="#263014" stroke-width="0.3"><polygon points="0.7044861964805174,-15.813954247192175 0.30573136203077,-16.16993885779215 2.4197521834433298,-21.201925053534776 4.141966252345095,-19.664434716812455"/><polygon points="7.48469122929631,-16.680248579220297 6.124540955365857,-15.1566813205295 2.7818159784146412,-18.140867458121658 4.141966252345095,-19.664434716812455"/><polygon points="2.1053288945351767,-10.654575914248564 0.9031274024333333,-9.307934394688612 -0.8255808676071938,-11.034508138177488 0.2855644518498699,-12.279153425407618"/><polygon points="-0.8255808676071938,-11.034508138177488 -1.5484386542224513,-11.756473374461763 0.30573136203077,-16.16993885779215 2.2274467307464256,-14.45434562075907"/><polygon points="5.359136436046864,-8.83772868494383 3.4806713753691048,-6.7335730501602065 0.9031274024333333,-9.307934394688612 2.6458256058184797,-11.260011290415978"/><polygon points="5.686245255638785,-9.204138409745113 7.054127394879975,-10.736366488539268 9.579343070892683,-8.48200405467233 8.073636145688443,-7.072817751233166"/><polygon points="3.4806713753691048,-6.7335730501602065 5.686245255638785,-9.204138409745113 8.073636145688443,-7.072817751233166 5.527176785617919,-4.689594567220054"/><polygon points="4.3408165646515915,-13.158649094011416 7.48469122929631,-16.680248579220297 9.444487701740723,-14.930658796663687 6.300613037096003,-11.409059311454804"/><polygon points="9.579343070892683,-8.48200405467233 8.130663351140612,-9.775299185831463 11.274538015785334,-13.296898671040346 13.039987609431428,-11.720810228137234"/><polygon points="8.130663351140612,-9.775299185831463 6.300613037096003,-11.409059311454804 9.444487701740723,-14.930658796663687 11.274538015785334,-13.296898671040346"/><polygon points="5.9697022708791865,-4.247615491329553 8.620063940816351,-6.728080515377307 10.440799081162247,-8.432100719453736 12.539347795018333,-6.276855306842611 14.230301751473068,-4.540216679622437 12.366978684247268,-2.922329341656069 9.654623698256929,-0.5672440292431253 8.010336041286326,-2.209501398210144"/><polygon points="14.838617085891407,-4.775698342085303 17.699367543286524,-7.561192818909854 19.945618651821373,-5.555873366708162 17.145663521965336,-2.406322203614512"/><polygon points="12.689653046116971,-6.982721156475753 13.764951835812735,-8.029732730620887 15.913915875587168,-5.822709916230437 14.838617085891407,-4.775698342085303"/><polygon points="17.699367543286524,-7.561192818909854 15.913915875587168,-5.822709916230437 13.764951835812735,-8.029732730620887 15.39580095839656,-9.617680121050677"/><polygon points="15.39580095839656,-9.617680121050677 12.689653046116971,-6.982721156475753 10.87904138508451,-8.84225029234695 13.508170795585702,-11.30284411258512"/></g><g fill="#A38F7C" stroke="#302014" stroke-width="0.3"><polygon points="0.07618025071197154,13.697314181838408 -1.0983371719732893,10.893572407506008 2.4465547688520144,9.408579251519924 3.331765167192124,12.333514833252622"/><polygon points="1.420068038709194,16.905367343458195 -1.4248398848454986,18.09712970643328 -3.943245095527985,12.085334770481095 -1.0983371719732893,10.893572407506008"/><polygon points="-0.05392099445850107,20.598280419714413 0.6512109436192743,22.232224123853257 -3.073398140999455,24.543125881033568 -4.034476874298415,22.31609791554895"/><polygon points="-1.1779340734834551,17.993698220744477 1.8398371457550546,16.729521573978303 4.344626637920786,15.680238460376259 4.907941219465483,17.54155738111932 5.430180308634117,19.267153574911568 3.2626509912737687,20.611978546990645 0.6512109436192743,22.232224123853257 -0.2287557070036912,20.193150454098486"/><polygon points="8.301039755585366,6.956072861410261 9.091890689334129,8.843947623754575 9.835818924565611,10.619811165612667 5.665978680638867,12.366601851239297 4.227757510112511,12.969088085143706 3.667073609877015,11.116461531074048 3.071025005939881,9.146981988846639 4.412293829373188,8.585110130300718"/><polygon points="8.606006451450819,14.381103400358803 9.575434096419386,16.695266419905096 6.0225841532334385,18.89960169111835 5.099632634441072,15.849960902225565"/><polygon points="9.835818924565611,10.619811165612667 11.802147934320182,15.313720919736346 9.575434096419386,16.695266419905096 7.449182575624267,11.619598663558339"/><polygon points="9.514811299980153,9.853519862013464 8.301039755585366,6.956072861410261 12.681999644947156,5.1208418978291315 13.907584172546198,8.01334031339704"/><polygon points="14.856482509171355,10.252832468703714 10.454563535409775,12.096843416952632 9.514811299980153,9.853519862013464 13.907584172546198,8.01334031339704"/><polygon points="11.802147934320182,15.313720919736346 10.454563535409775,12.096843416952632 14.856482509171355,10.252832468703714 15.918657282086118,12.759668005972577"/></g><g fill="#938595" stroke="#21162E" stroke-width="0.3"><polygon points="-13.005966893427706,9.10019657255021 -10.200664364916049,9.02309432151263 -9.65976366486759,12.740607046708243 -12.879989966805713,13.683764315787107"/><polygon points="-10.200664364916049,9.02309432151263 -13.508835065826513,9.114017637363377 -13.593545628211029,6.031892904933704 -10.597578049336885,6.295178324164972"/><polygon points="-13.508835065826513,9.114017637363377 -16.07015793232488,9.184414236886575 -16.163009419122425,5.806088608465349 -13.593545628211029,6.031892904933704"/><polygon points="-12.48378228887748,0.14446156449340558 -11.479672495810286,0.23270266218955127 -10.996794858842307,3.5514333644793155 -12.769496365498542,3.395648481277315"/><polygon points="-14.634613509826808,5.264334588617999 -14.457358347797317,3.2473192894837735 -10.996794858842307,3.5514333644793155 -10.697220701371949,5.610352390533528"/><polygon points="-16.162888225348215,5.13002991455747 -15.69991898669766,-0.13817230136066336 -14.171644271176254,-0.0038676273001350125 -14.634613509826808,5.264334588617999"/><polygon points="-15.516532565501336,-2.2249561951065453 -11.789608928647446,-1.897434409126223 -11.479672495810286,0.23270266218955127 -15.69991898669766,-0.13817230136066336"/><polygon points="-15.516532565501336,-2.2249561951065453 -15.212033393088959,-5.689901770160053 -12.301686057001746,-5.416847936910882 -11.789608928647446,-1.897434409126223"/><polygon points="-20.60345901013063,4.739792867620896 -23.951413536318032,4.445574860319988 -24.13042677286383,-2.067675769343443 -20.036833484976903,-1.7079310803276029"/><polygon points="-15.596262700194485,-1.3176940333910285 -17.630274064132315,-1.4964428083950567 -20.675657735398907,-1.7640709103355978 -20.490579830078882,-3.8701024768526566 -20.288797833534264,-6.166212612435794 -17.24499135212387,-5.880637410770976 -15.212033393088959,-5.689901770160052 -15.412443299478884,-3.4094048714616583"/><polygon points="-20.675657735398907,-1.7640709103355978 -24.13042677286383,-2.067675769343443 -24.253295898135356,-6.53816869479936 -20.288797833534264,-6.166212612435794"/></g><g fill="#999E7C" stroke="#263014" stroke-width="0.3"><polygon points="17.893809107042255,-11.140846131665942 17.003227916523848,-9.53724425127939 14.271651992264495,-11.97583284685987 14.771071299337212,-12.875099245532596"/><polygon points="14.771071299337212,-12.875099245532596 15.715402837689142,-14.575485293129208 18.838140645394184,-12.841232179262553 17.893809107042255,-11.140846131665942"/><polygon points="17.085243563613414,-13.814726404382977 15.715402837689142,-14.575485293129208 16.89676319804993,-16.702671130263205 18.266603923974202,-15.941912241516976"/><polygon points="23.464026125950266,-11.356205514325307 25.040709996062812,-14.195220357447988 26.847691017447985,-13.1916899120475 24.836909160381893,-10.593757039924718"/><polygon points="20.68544771747029,-10.571206814381881 21.6736188611202,-12.350531508156646 24.836909160381893,-10.593757039924718 23.361634573292154,-9.084951587783472"/><polygon points="18.31008200150189,-11.890397102892774 21.12087128452413,-10.329388665208155 19.461930762060657,-7.342260518336641 17.003227916523848,-9.53724425127939"/><polygon points="19.461930762060657,-7.342260518336641 21.12087128452413,-10.329388665208155 22.54388590076047,-9.539098963909364 20.634305392097655,-6.2956341451995685"/><polygon points="24.2419690541447,-18.408161614621058 28.344522852530275,-16.61359714993723 26.847691017447985,-13.1916899120475 22.915416479930617,-15.375529792693731"/><polygon points="28.344522852530275,-16.61359714993723 26.450145672734138,-17.442247336293814 24.2419690541447,-18.408161614621058 25.15936313209035,-20.50541620377589 25.802870797643738,-21.97653906927374 28.157887304257866,-21.3463154569691 27.453842456305622,-19.736798539609907 29.42225804168758,-19.077407551259363"/><polygon points="17.752199207559308,-18.242989753656875 19.45145686106838,-21.30271389496981 24.324348778459942,-18.59648990126134 22.915416479930617,-15.375529792693731"/><polygon points="16.52009843213405,-17.274873152060213 14.190246086171756,-18.56878699774555 15.220381311026557,-20.423673223972713 17.55023365698885,-19.129759378287375"/><polygon points="12.04244383564053,-19.761596951806677 16.52009843213405,-17.274873152060213 15.395590650417995,-15.250057433440004 10.917936053924477,-17.736781233186466"/><polygon points="15.395590650417995,-15.250057433440004 14.368269579539177,-13.400238440448433 9.890614983045662,-15.886962240194899 10.917936053924477,-17.736781233186466"/><polygon points="3.6487562304212453,-23.995996474154637 7.5309989575817,-21.83994241103358 6.102876190031619,-19.268430257118606 2.8204132702654263,-22.19881801257813"/><polygon points="6.790895954325379,-20.50729516860674 9.318868981274719,-19.103352422295995 8.3141890452299,-17.294301600449774 6.102876190031619,-19.268430257118606"/><polygon points="11.121039235209334,-18.102493699257415 9.890614983045662,-15.886962240194899 8.3141890452299,-17.294301600449774 9.318868981274719,-19.103352422295995"/></g><g fill="#899E86" stroke="#17301E" stroke-width="0.3"><polygon points="-11.281669873835021,-9.218339346837428 -11.741939516170106,-7.373114777378252 -18.23087809827962,-7.981918246157877 -17.533482941568405,-10.77778084369265"/><polygon points="-21.6390392171995,-18.309252791921487 -18.521657000618696,-17.531658334533603 -16.005369402666123,-16.903999884775757 -16.613681182676835,-14.465273236038765 -17.38734508000377,-11.363648665257509 -19.962898414102842,-11.75371031869005 -20.842606168382957,-8.226955102104064 -24.078227822644475,-8.530526735869241 -23.1537038562585,-12.23695049472164 -22.305757422023703,-15.636374332664568"/><polygon points="-0.739015830714123,-16.377721787221134 -2.4080237042473147,-16.984415621452705 -4.941843761324268,-17.905473592513438 -4.144831035012111,-20.09804658479707 -3.59091800117583,-21.62185507363123 -2.9466276549205985,-23.39429052635575 -0.2502934661177989,-22.414157746088247 1.5257612218303636,-21.7685517872888 0.7944249085901318,-20.027758037579574 0.16567621108743613,-18.53115273720667"/><polygon points="-3.712032542065258,-11.586318089318471 -5.411905159532834,-12.204231433138384 -7.656443401700408,-13.020133822704285 -10.110813581584642,-13.91231131249968 -9.482581505952224,-16.430898581036796 -6.735727161635689,-15.432401437520534 -4.223710159467983,-14.519269000659259 -2.871922204029664,-17.153045358909498 -0.739015830714123,-16.377721787221134 -2.321265889917834,-13.827719711642496"/><polygon points="-11.135603551387113,-9.803920367527923 -10.665938217157624,-11.68681233873593 -10.110813581584642,-13.91231131249968 -8.75724831891214,-13.420282657562893 -7.017644399876481,-12.787926760133978 -7.7418219467882725,-10.795722522287056 -8.354515147227406,-9.110210460196688 -9.918604274867407,-9.500354161551185"/><polygon points="-7.686079773551945,-10.949068610165336 -7.338139439980891,-11.906248531048128 -7.017644399876481,-12.787926760133978 -6.050181095277816,-12.436248358220416 -5.364838470970871,-12.187122424726228 -5.685333511075281,-11.305444195640376 -6.033273844646334,-10.348264274757582 -6.71861646895328,-10.59739020825177"/></g><g fill="#A38F7C" stroke="#302014" stroke-width="0.3"><polygon points="6.984155747049782,25.278677826289258 4.3545786682962575,23.277687181474064 7.393551341752324,19.284058872523907 10.023128420505847,21.285049517339104"/><polygon points="10.306348042341817,17.47683914535882 11.96218753026277,18.73685899851939 10.023128420505847,21.285049517339104 8.36728893258489,20.025029664178533"/><polygon points="18.885874928148368,24.005475698418955 17.220045482547487,22.737853933901178 15.52351045432935,21.446866593201143 17.159477832672795,19.296980320205734 19.185625738672833,16.634343138174223 20.67303364206512,18.200152300461767 22.13352095407349,19.737621887205165 20.336687516581865,22.098908299917134"/><polygon points="17.085509096420857,19.394185419038383 14.932195397183508,17.7556099224917 17.297744992648706,14.646952212867847 19.185625738672833,16.634343138174223"/><polygon points="14.932195397183508,17.7556099224917 12.652735766220825,16.02104300918703 16.396532274592435,13.698236579527288 17.297744992648706,14.646952212867847"/><polygon points="12.652735766220825,16.02104300918703 17.085509096420857,19.394185419038383 15.52351045432935,21.446866593201143 10.306348042341817,17.47683914535882"/></g><g fill="#A3858B" stroke="#301624" stroke-width="0.3"><polygon points="33.46911905761978,7.226891480867554 29.234582329989458,3.3770129631779566 31.197131432112194,1.2183769920606249 35.431668159742514,5.068255509750222"/><polygon points="21.55260635944114,-4.353319928517069 24.94336986561264,-1.270567688868729 26.962053051132028,0.5647417038310909 25.253498907332094,2.444004968846442 23.5641385494487,4.302156712801476 21.56100525935816,2.480984689125572 23.242634587842872,0.6158041895082222 19.865004358742727,-2.455007777917662"/><polygon points="27.564859695331837,-5.281459441648073 28.42001206355772,-6.222053825167922 29.814475833199648,-7.755844572269792 30.570775650205142,-6.90192500613697 32.13981862324303,-5.130357084720256 30.90313119291748,-3.770106801432089 30.144734877558466,-2.9359357914297988 28.40394421077165,-4.518595955439639"/><polygon points="23.708556977292403,-6.579008294037678 26.208290272735496,-9.135556924420962 27.459307211219354,-10.415007674826033 28.30560930814081,-9.45946874281646 29.814475833199648,-7.755844572269792 28.697506254736105,-6.52727367531377 26.465621170377293,-4.072391185349007 24.699275512763077,-5.67828496770586"/><polygon points="23.708556977292403,-6.579008294037678 29.045496352603923,-1.7268675351307308 26.962053051132028,0.5647417038310909 21.55260635944114,-4.353319928517069"/><polygon points="20.736019104509012,7.3108731168738625 21.9604007589982,5.964158133336483 23.513382466635715,4.25601122737239 26.207956377671895,6.705814566362502 28.174463030885367,8.49368705538845 30.442606487111416,10.55579616644803 28.889624779473905,12.26394307241212 27.665243124984716,13.610658055949498 25.397099668758667,11.54854894488992 23.430593015545192,9.760676455863972"/><polygon points="26.50993377135248,14.881399422787872 24.217110948319164,17.403308207564343 22.489731302389735,15.832840829783573 24.782554125423047,13.3109320450071"/><polygon points="20.85841740533385,14.349712749466159 24.217110948319164,17.403308207564343 22.908583191558165,18.842576698678563 19.773864998039905,15.54262753382206"/><polygon points="21.38384417387698,13.77178829318715 19.773864998039905,15.54262753382206 17.094495001828786,12.722027966173254 17.813313696386587,10.5255988122097"/><polygon points="19.360337329122913,8.82400527848297 16.925701735432348,6.610527896319137 14.094244773100618,4.0362757326961045 16.791422766380382,1.0023342258400127 18.196360768950562,-0.5780211423179367 21.055201160497177,2.0211269857649588 23.513382466635715,4.25601122737239 22.09100168901168,5.8205082928899206"/><polygon points="19.360337329122913,8.82400527848297 16.688198614589407,11.763129065382508 13.63373074709253,4.554288493246766 14.094244773100618,4.0362757326961045"/></g><g fill-rule="nonzero" stroke="#99948A" stroke-width="0.3" stroke-linecap="butt"><line x1="-9.111836274418161" y1="15.153763602338401" x2="-7.075139108050381" y2="19.056805928418722"/><line x1="-11.081143979050404" y1="14.722796626085959" x2="-3.559958024988295" y2="29.13608673409815"/><line x1="-12.594300888447146" y1="15.165978193013569" x2="-2.61674769853466" y2="34.28654901424972"/><line x1="-14.107457797843889" y1="15.609159759941182" x2="-3.6819056626832705" y2="35.58825725574484"/><line x1="-15.620614707240629" y1="16.052341326868795" x2="-4.941412658323868" y2="36.51752304066271"/><line x1="-17.133771616637375" y1="16.495522893796405" x2="-6.31248890155426" y2="37.23298212774514"/><line x1="-18.646928526034117" y1="16.93870446072402" x2="-7.683565144784649" y2="37.948441214827575"/><line x1="-20.16008543543086" y1="17.38188602765163" x2="-9.054641388015037" y2="38.663900301910004"/><line x1="-21.673242344827607" y1="17.82506759457924" x2="-10.425717631245428" y2="39.37935938899244"/><line x1="-23.116539192088773" y1="18.40212609909008" x2="-11.796793874475817" y2="40.09481847607487"/><line x1="-24.518459118866154" y1="19.058477624987642" x2="-13.167870117706205" y2="40.8102775631573"/><line x1="-25.774445255750102" y1="19.994490638201544" x2="-14.538946360936597" y2="41.525736650239736"/><line x1="-27.025118786036607" y1="20.940684511267374" x2="-15.910022604166985" y2="42.241195737322165"/><line x1="-28.27579231632312" y1="21.886878384333208" x2="-17.281098847397374" y2="42.956654824404595"/><line x1="-29.526465846609625" y1="22.83307225739904" x2="-19.177960225348826" y2="42.664520996286996"/><line x1="-22.702238245708937" y1="39.25367313332034" x2="-30.777139376896134" y2="23.779266130464872"/><line x1="-29.810521643245128" y1="28.974585398952158" x2="-31.349855093147717" y2="26.024670356041888"/><path d="M -11.911663544685531,18.896495391799693 L -12.417098270033101,18.16560051953774 L -13.214973086915677,17.011816295540477 L -11.874144991511743,16.084595287625255 L -10.509070785826195,15.140607400428191 L -9.71119596894362,16.294391624425455 L -9.205761243596049,17.025286496687407 L -8.470355729980241,18.088735626672168 L -9.83542993566579,19.032723513869232 L -10.570835449281597,17.96927438388447 Z" fill="#99948A" stroke="#1A1917" stroke-width="0.3"/></g><g fill-rule="nonzero" stroke="#99948A" stroke-width="0.3" stroke-linecap="butt"><line x1="-32.00410088480548" y1="22.199641910449706" x2="-33.364588138766614" y2="22.828969151796848"/><line x1="-26.111733892886768" y1="17.741786674374133" x2="-34.60181586183432" y2="21.669085404128705"/><line x1="-35.559454138889734" y1="20.37987059932909" x2="-25.505394639055233" y2="15.729115135837187"/><line x1="-36.219491786833665" y1="18.952993216363748" x2="-25.243446092640202" y2="13.8757500907738"/><line x1="-36.879529434777595" y1="17.526115833398404" x2="-25.29045685431801" y2="12.16530186355231"/><line x1="-37.539567082721526" y1="16.099238450433063" x2="-25.33746761599582" y2="10.45485363633082"/><line x1="-38.199604730665456" y1="14.672361067467719" x2="-25.384478377673627" y2="8.74440540910933"/><line x1="-38.859642378609394" y1="13.245483684502375" x2="-25.431489139351434" y2="7.03395718188784"/><line x1="-39.519680026553324" y1="11.818606301537033" x2="-25.478499901029245" y2="5.323508954666352"/><line x1="-40.179717674497255" y1="10.39172891857169" x2="-25.52551066270705" y2="3.6130607274448607"/><line x1="-40.839755322441185" y1="8.96485153560635" x2="-25.57252142438486" y2="1.9026125002233742"/><line x1="-41.499792970385116" y1="7.537974152641007" x2="-25.61953218606267" y2="0.192164273001886"/><line x1="-42.159830618329046" y1="6.111096769675664" x2="-25.666542947740478" y2="-1.5182839542196023"/><line x1="-42.81986826627298" y1="4.684219386710324" x2="-25.713553709418285" y2="-3.2287321814410905"/><line x1="-43.47990591421691" y1="3.257342003744983" x2="-26.201365400308188" y2="-4.735276967482505"/><line x1="-44.13994356216084" y1="1.8304646207796396" x2="-26.996590518406585" y2="-6.099620021361485"/><line x1="-44.79998121010477" y1="0.40358723781429917" x2="-30.807912312054796" y2="-6.068792488427844"/><line x1="-45.1972662278507" y1="-1.1448329140654645" x2="-34.888067666193535" y2="-5.913609300920858"/><line x1="-45.440546585469114" y1="-2.76449175460656" x2="-41.275152236704564" y2="-4.691298585761071"/></g><g fill-rule="nonzero" stroke="#99948A" stroke-width="0.3" stroke-linecap="butt"><line x1="-26.48262239091726" y1="-9.192261255644596" x2="-28.62433657266647" y2="-8.753721682987326"/><line x1="-25.04705949120285" y1="-10.9273637583506" x2="-36.781295284144385" y2="-8.524649710907827"/><line x1="-24.653570941768773" y1="-12.449090057946343" x2="-37.74996467453872" y2="-9.767459166269868"/><line x1="-38.505098846701465" y1="-11.053992309950617" x2="-24.27474294241717" y2="-13.967814448406466"/><line x1="-38.78831674909647" y1="-12.437155508676774" x2="-23.895914943065563" y2="-15.486538838866586"/><line x1="-39.07153465149146" y1="-13.820318707402933" x2="-23.517086943713956" y2="-17.005263229326708"/><line x1="-39.35475255388646" y1="-15.203481906129088" x2="-23.138258944362345" y2="-18.52398761978683"/><line x1="-39.63797045628146" y1="-16.58664510485525" x2="-22.75943094501074" y2="-20.042712010246955"/><line x1="-39.92118835867646" y1="-17.969808303581406" x2="-22.380602945659135" y2="-21.561436400707073"/><line x1="-40.204406261071455" y1="-19.352971502307565" x2="-22.001774946307528" y2="-23.080160791167195"/><line x1="-40.48762416346646" y1="-20.73613470103372" x2="-21.62294694695592" y2="-24.598885181627313"/><line x1="-40.77084206586146" y1="-22.119297899759882" x2="-21.244118947604314" y2="-26.11760957208744"/><line x1="-41.05405996825645" y1="-23.502461098486037" x2="-20.8753722569364" y2="-27.63426970353501"/><line x1="-41.337277870651455" y1="-24.885624297212196" x2="-20.88134135987258" y2="-29.07420264822938"/><line x1="-41.62049577304645" y1="-26.268787495938355" x2="-20.927576748957346" y2="-30.505890627245986"/><line x1="-41.90371367544145" y1="-27.65195069466451" x2="-21.7982636840005" y2="-31.768763069753454"/><line x1="-41.76251674776029" y1="-29.122017505365164" x2="-22.668950619043656" y2="-33.03163551226093"/><line x1="-41.09274170756865" y1="-30.700316507621373" x2="-23.53963755408681" y2="-34.29450795476839"/><line x1="-36.3219078888509" y1="-33.118352473615815" x2="-24.41032448912997" y2="-35.557380397275864"/><line x1="-28.921894734363065" y1="-36.074741872656226" x2="-26.116577362299974" y2="-36.6491615090373"/></g><g fill-rule="nonzero" stroke="#99948A" stroke-width="0.3" stroke-linecap="butt"><line x1="7.131194420049209" y1="-46.4306086990385" x2="3.4968519495868713" y2="-27.256475678852922"/><line x1="5.764353634333284" y1="-47.38408283501376" x2="1.3106054219552952" y2="-23.886913441485014"/><line x1="4.329121880887272" y1="-47.97673860472506" x2="-0.20746075714752818" y2="-24.042549775327817"/><line x1="2.759966006542015" y1="-47.86283495423762" x2="-1.6618603113072299" y2="-24.534079698045968"/><line x1="1.190810132196758" y1="-47.74893130375018" x2="-3.1096717415954176" y2="-25.060367369790953"/><line x1="-0.37834574214850036" y1="-47.63502765326274" x2="-4.557483171883604" y2="-25.586655041535938"/><line x1="-1.9475016164937564" y1="-47.521124002775295" x2="-6.005294602171789" y2="-26.112942713280923"/><line x1="-3.5166574908390125" y1="-47.40722035228786" x2="-7.453106032459974" y2="-26.639230385025908"/><line x1="-5.085813365184269" y1="-47.29331670180042" x2="-8.90091746274816" y2="-27.165518056770892"/><line x1="-6.6549692395295255" y1="-47.17941305131298" x2="-10.348728893036345" y2="-27.691805728515877"/><line x1="-8.224125113874782" y1="-47.06550940082553" x2="-11.79654032332453" y2="-28.218093400260862"/><line x1="-9.79328098822004" y1="-46.951605750338096" x2="-13.244351753612717" y2="-28.744381072005847"/><line x1="-11.362436862565293" y1="-46.83770209985066" x2="-14.692163183900899" y2="-29.270668743750832"/><line x1="-12.931592736910552" y1="-46.723798449363215" x2="-16.13997461418909" y2="-29.796956415495817"/><line x1="-14.500748611255805" y1="-46.60989479887577" x2="-17.548739941472622" y2="-30.52924425894058"/><line x1="-16.069904485601064" y1="-46.495991148388335" x2="-18.939140092330895" y2="-31.358423448916152"/><line x1="-20.184679273103708" y1="-32.95186289571291" x2="-17.63906035994632" y2="-46.3820874979009"/><line x1="-21.398532037917754" y1="-34.712474137535644" x2="-19.241027585251782" y2="-46.09507709894488"/><line x1="-22.612384802731796" y1="-36.47308537935838" x2="-20.880906405030686" y2="-45.60805198994184"/><line x1="-23.74782995857403" y1="-38.64736097351964" x2="-23.281576918992688" y2="-41.10722761367732"/></g><g fill-rule="nonzero" stroke="#99948A" stroke-width="0.3" stroke-linecap="butt"><line x1="27.25510121531005" y1="24.74990254069945" x2="30.077141867200304" y2="26.255213858716225"/><line x1="25.525127219103744" y1="25.34495042871752" x2="37.346904843395954" y2="31.650832537469153"/><line x1="24.510116595838326" y1="26.321368605124064" x2="37.3318310137304" y2="33.160629342457476"/><line x1="23.688575958965593" y1="27.400986060399386" x2="37.166954623992616" y2="34.590519612792036"/><line x1="22.86703532209286" y1="28.48060351567471" x2="36.53665872488094" y2="35.77214937184833"/><line x1="22.045494685220127" y1="29.56022097095003" x2="35.906362825769264" y2="36.953779130904614"/><line x1="21.223954048347395" y1="30.639838426225353" x2="35.276066926657585" y2="38.13540888996091"/><line x1="20.402413411474665" y1="31.719455881500675" x2="34.645771027545905" y2="39.3170386490172"/><line x1="19.58087277460193" y1="32.799073336776" x2="34.01547512843423" y2="40.498668408073485"/><line x1="18.7593321377292" y1="33.87869079205132" x2="33.38517922932255" y2="41.680298167129784"/><line x1="17.937791500856463" y1="34.95830824732665" x2="32.75488333021088" y2="42.86192792618607"/><line x1="17.116250863983737" y1="36.03792570260197" x2="32.1245874310992" y2="44.04355768524236"/><line x1="16.294710227111" y1="37.11754315787729" x2="31.49429153198753" y2="45.22518744429865"/><line x1="15.473169590238271" y1="38.19716061315261" x2="30.86399563287585" y2="46.40681720335494"/><line x1="14.744465323728724" y1="39.32629813431986" x2="30.233699733764173" y2="47.58844696241123"/><line x1="14.156307575884394" y1="40.53040490340099" x2="29.603403834652497" y2="48.77007672146752"/><line x1="13.573306495136634" y1="41.73726230236356" x2="28.97310793554082" y2="49.95170648052381"/><line x1="13.41686853943265" y1="43.171653737572875" x2="28.342812036429144" y2="51.1333362395801"/><line x1="13.260430583728665" y1="44.60604517278218" x2="27.712516137317465" y2="52.314965998636396"/><line x1="13.10399262802468" y1="46.0404366079915" x2="26.853292171630446" y2="53.374482701172134"/><line x1="12.947554672320695" y1="47.47482804320081" x2="25.702581686580775" y2="54.27851689627057"/><line x1="12.79111671661671" y1="48.90921947841012" x2="23.981507141796538" y2="54.878311861528935"/><line x1="12.634678760912724" y1="50.343610913619436" x2="19.38923934094974" y2="53.94657690298219"/><line x1="14.796971540102914" y1="53.01484194443543" x2="13.252057244415576" y2="52.19076558922547"/></g><g fill-rule="nonzero" stroke="#99948A" stroke-width="0.3" stroke-linecap="butt"><line x1="-48.53248525523469" y1="-2.187022944281772" x2="-46.42085658423609" y2="2.377921496773824"/><line x1="-50.39917018503565" y1="-2.9972665165045473" x2="-47.51580398452348" y2="3.2360294646165597"/><line x1="-52.11696760353611" y1="-3.485643263187205" x2="-48.672558433560496" y2="3.960522205746976"/><line x1="-53.83476502203658" y1="-3.9740200098698626" x2="-49.90148485238684" y2="4.528992708301713"/><line x1="-55.55256244053704" y1="-4.462396756552518" x2="-51.13041127121318" y2="5.097463210856449"/><line x1="-57.2703598590375" y1="-4.950773503235176" x2="-52.359337690039524" y2="5.665933713411189"/><line x1="-58.48179206064432" y1="-4.344483789971804" x2="-53.588264108865864" y2="6.234404215965924"/><line x1="-59.5597109849153" y1="-3.449563456395306" x2="-54.817190527692205" y2="6.802874718520661"/><line x1="-60.33178446497582" y1="-1.8934627365388161" x2="-56.046116946518545" y2="7.371345221075397"/><line x1="-61.10385794503634" y1="-0.33736201668232635" x2="-57.275043365344885" y2="7.939815723630133"/><line x1="-61.87593142509686" y1="1.2187387031741626" x2="-58.503969784171225" y2="8.508286226184872"/><line x1="-62.64800490515738" y1="2.774839423030649" x2="-59.732896202997566" y2="9.076756728739607"/><line x1="-63.4200783852179" y1="4.330940142887143" x2="-60.961822621823906" y2="9.645227231294344"/><line x1="-64.19215186527842" y1="5.8870408627436275" x2="-62.190749040650246" y2="10.21369773384908"/><line x1="-64.96422534533893" y1="7.44314158260012" x2="-63.419675459476586" y2="10.782168236403816"/><line x1="-65.73629882539946" y1="8.999242302456606" x2="-64.64860187830293" y2="11.350638738958553"/><line x1="-58.31653286542695" y1="12.363293367798189" x2="-50.54922180719816" y2="29.154760506025326"/><line x1="-51.29406812676908" y1="30.970506181618493" x2="-60.28425449557497" y2="11.53541238317787"/><line x1="-52.61329392670907" y1="31.544551338565476" x2="-61.58968828549076" y2="12.13927327447037"/><line x1="-53.93251972664905" y1="32.118596495512456" x2="-62.89512207540656" y2="12.743134165762864"/><line x1="-55.25174552658902" y1="32.692641652459436" x2="-64.20055586532236" y2="13.34699505705536"/><line x1="-56.57260111202686" y1="33.26316351937405" x2="-65.50598965523815" y2="13.950855948347854"/><line x1="-58.01829674510525" y1="33.563804658997576" x2="-66.81142344515395" y2="14.55471683964035"/><line x1="-59.7914539771547" y1="33.15653534712339" x2="-68.11287849556908" y2="15.167179018183493"/><line x1="-67.26210406218857" y1="20.432356966721702" x2="-69.26289191180881" y2="16.10702955603816"/><line x1="-45.99340628863418" y1="5.2553665240663765" x2="-55.751028918276646" y2="9.76899773504627"/><line x1="-44.540960575325336" y1="6.249279753094812" x2="-55.94529726923897" y2="11.524639540610798"/><line x1="-43.70734745891813" y1="7.529449402335856" x2="-55.49592728040166" y2="12.982550412179434"/><line x1="-43.07261708481272" y1="8.901617214146912" x2="-54.86119690629625" y2="14.354718223990488"/><line x1="-42.43788671070731" y1="10.273785025957965" x2="-54.22646653219084" y2="15.726886035801542"/><line x1="-41.8031563366019" y1="11.645952837769022" x2="-53.59173615808543" y2="17.0990538476126"/><line x1="-41.168425962496485" y1="13.018120649580078" x2="-52.95700578398002" y2="18.471221659423655"/><line x1="-40.533695588391076" y1="14.390288461391133" x2="-52.32227540987461" y2="19.843389471234712"/><line x1="-39.89896521428567" y1="15.76245627320219" x2="-51.6875450357692" y2="21.215557283045765"/><line x1="-39.26423484018026" y1="17.13462408501324" x2="-51.05281466166379" y2="22.58772509485682"/><line x1="-38.62950446607485" y1="18.5067918968243" x2="-50.41808428755838" y2="23.95989290666788"/><line x1="-37.99477409196944" y1="19.878959708635353" x2="-49.78335391345297" y2="25.33206071847893"/><line x1="-37.36004371786403" y1="21.251127520446406" x2="-49.14862353934756" y2="26.704228530289985"/><line x1="-36.91067372902672" y1="22.709038392015046" x2="-48.18664825214742" y2="27.92502106254354"/><line x1="-37.104942079989044" y1="24.464680197579575" x2="-46.734202538838574" y2="28.918934291571972"/><path d="M -39.16463336697248,19.098531698104573 L -38.64385782214128,20.2243505795515 L -39.51091284196836,20.625428459653094 L -40.7929410489791,21.2184625160165 L -39.91993544620326,23.105736603613217 L -41.16014977313763,23.679428609015204 L -42.03315537591347,21.79215452141849 L -42.553930920744676,20.66633563997156 L -41.313716593810305,20.092643634569573 L -40.031688386799566,19.499609578206165 Z" fill="#99948A" stroke="#1A1917" stroke-width="0.3"/></g><g fill-rule="nonzero" stroke="#99948A" stroke-width="0.3" stroke-linecap="butt"><line x1="-5.062870675668837" y1="66.62344826704357" x2="-21.062833482432353" y2="59.572871476931674"/><line x1="-22.199747673087536" y1="57.723920857691624" x2="-3.11070448845404" y2="66.13573821304993"/><line x1="-21.85762474190709" y1="56.526725803690766" x2="-2.109763933445855" y2="65.2288590993782"/><line x1="-21.515501810726644" y1="55.329530749689916" x2="-1.4280219431926504" y2="64.18132128422829"/><line x1="-21.1733788795462" y1="54.13233569568906" x2="-0.7462799529394424" y2="63.13378346907838"/><line x1="-20.831255948365754" y1="52.9351406416882" x2="-0.06453796268623435" y2="62.08624565392847"/><line x1="-20.489133017185306" y1="51.73794558768734" x2="0.6172040275669737" y2="61.038707838778556"/><line x1="-20.14701008600486" y1="50.54075053368649" x2="1.2989460178201817" y2="59.991170023628655"/><line x1="-19.804887154824417" y1="49.343555479685634" x2="1.9806880080733897" y2="58.94363220847874"/><line x1="-19.462764223643973" y1="48.14636042568478" x2="2.662429998326594" y2="57.89609439332884"/><line x1="-18.929265894906347" y1="47.033497251233335" x2="3.3441719885798022" y2="56.84855657817892"/><line x1="-18.021156715876863" y1="46.08571087091515" x2="4.025913978833007" y2="55.80101876302901"/><line x1="-17.11304753684738" y1="45.13792449059697" x2="4.707655969086218" y2="54.753480947879105"/><line x1="-15.726098419597704" y1="44.401144710442054" x2="5.389397959339426" y2="53.70594313272919"/><line x1="-14.32560326058343" y1="43.67033415714203" x2="5.902825907967934" y2="52.584235702958225"/><line x1="-12.925108101569148" y1="42.939523603842005" x2="6.372328780266724" y2="51.44317215796282"/><line x1="-11.524612942554871" y1="42.20871305054198" x2="6.731480918054434" y2="50.25348122945958"/><line x1="-10.124117783540592" y1="41.47790249724195" x2="6.871750684689339" y2="48.96733714138011"/><line x1="-8.72362262452631" y1="40.747091943941925" x2="7.0120204513242435" y2="47.681193053300646"/><line x1="-7.3231274655120355" y1="40.0162813906419" x2="7.152290217959152" y2="46.395048965221164"/><line x1="-5.922632306497757" y1="39.285470837341876" x2="7.292559984594057" y2="45.10890487714169"/><line x1="-4.522137147483479" y1="38.55466028404185" x2="7.432829751228965" y2="43.82276078906222"/><line x1="-3.1216419884691984" y1="37.82384973074183" x2="7.57309951786387" y2="42.53661670098275"/><line x1="-1.234624953385575" y1="37.307430916267975" x2="7.7133692844987785" y2="41.25047261290327"/><line x1="4.611592827255253" y1="38.53568171266468" x2="7.211107826939836" y2="39.68118938313103"/><path d="M -15.46724564011293,58.59137515878182 L -16.846341520745668,57.983659908142755 L -16.452693325463763,57.090349095289376 L -18.23665464384764,56.30422500126724 L -17.705231506546745,55.098259775359395 L -17.19634174296697,53.943429818548175 L -15.412380424583091,54.72955391257031 L -14.033284543950355,55.33726916320938 L -14.542174307530132,56.4920991200206 L -15.073597444831027,57.698064345928444 Z" fill="#99948A" stroke="#1A1917" stroke-width="0.3"/></g><g fill-rule="nonzero" stroke="#99948A" stroke-width="0.3" stroke-linecap="butt"><line x1="-30.27462181717955" y1="60.761818640010354" x2="-36.27885577834519" y2="54.481694184865574"/><line x1="-28.580084146766374" y1="60.55245897095797" x2="-35.79293601791055" y2="53.008181429428696"/><line x1="-27.199098220366196" y1="60.01514006709472" x2="-34.86888734739908" y2="51.99292931148124"/><line x1="-25.818112293966017" y1="59.477821163231475" x2="-33.87900632792539" y2="51.04653449445365"/><line x1="-24.800675256606414" y1="58.56024854449446" x2="-32.889125308451696" y2="50.10013967742607"/><line x1="-24.147664884550565" y1="57.26150410139425" x2="-31.899244288978007" y2="49.15374486039848"/><line x1="-23.711659155606792" y1="55.73578379844206" x2="-30.90936326950431" y2="48.207350043370894"/><line x1="-23.27565342666302" y1="54.210063495489855" x2="-29.919482250030622" y2="47.26095522634331"/><line x1="-22.839647697719244" y1="52.68434319253765" x2="-28.92960123055693" y2="46.31456040931573"/><line x1="-22.40364196877547" y1="51.15862288958545" x2="-27.939720211083237" y2="45.36816559228814"/><line x1="-21.967636239831698" y1="49.63290258663326" x2="-26.94983919160955" y2="44.421770775260555"/><line x1="-21.531630510887926" y1="48.10718228368106" x2="-25.959958172135856" y2="43.47537595823297"/><line x1="-21.160866021087603" y1="46.51322295072457" x2="-24.95063606611756" y2="42.54931553254207"/><line x1="-22.32916704570768" y1="43.30947908277219" x2="-23.69023769729979" y2="41.88586815429598"/><line x1="-53.63523931399263" y1="36.32779655194746" x2="-39.654250675586134" y2="50.95120217255593"/><line x1="-53.39198300544765" y1="34.69691721343616" x2="-37.53892873096037" y2="51.278408621312096"/><line x1="-52.54603264711609" y1="33.69642530911139" x2="-36.34734086554209" y2="50.63943603400762"/><line x1="-51.273107550771115" y1="33.14252734354223" x2="-35.40563476865751" y2="49.739099779728605"/><line x1="-50.00018245442614" y1="32.58862937797307" x2="-34.46392867177293" y2="48.83876352544958"/><line x1="-48.72725735808116" y1="32.03473141240391" x2="-33.52222257488836" y2="47.93842727117056"/><line x1="-47.454332261736184" y1="31.480833446834747" x2="-32.58051647800378" y2="47.03809101689154"/><line x1="-46.18140716539121" y1="30.92693548126559" x2="-31.638810381119207" y2="46.13775476261252"/><line x1="-44.90848206904623" y1="30.37303751569643" x2="-30.69710428423463" y2="45.237418508333505"/><line x1="-43.63555697270126" y1="29.819139550127275" x2="-29.755398187350053" y2="44.33708225405449"/><line x1="-42.36263187635628" y1="29.26524158455811" x2="-28.813692090465477" y2="43.43674599977547"/><line x1="-41.0897067800113" y1="28.711343618988955" x2="-27.871985993580903" y2="42.53640974549645"/><line x1="-39.81678168366633" y1="28.157445653419796" x2="-26.930279896696327" y2="41.63607349121743"/><line x1="-38.54385658732135" y1="27.603547687850636" x2="-26.15703413761322" y2="40.5595362604289"/><line x1="-37.27093149097637" y1="27.04964972228148" x2="-25.912488022112477" y2="38.93000599463157"/><line x1="-35.997787551862" y1="26.49598065515912" x2="-28.61927715110345" y2="34.21352862381755"/><line x1="-34.72434854228112" y1="25.942620216791852" x2="-33.331117930267716" y2="27.399868834143042"/><path d="M -27.24832325745202,54.73945808543482 L -26.053861439315575,53.59746985494756 L -25.35243480466593,54.33112656956665 L -24.202960629893994,55.53341830607006 L -23.542363108140442,56.22436983764015 L -24.73682492627689,57.366358068127404 L -26.020258344748825,58.593409311000656 L -26.680855866502377,57.90245777943057 L -25.39742244803044,56.67540653655732 L -26.546896622802375,55.47311480005391 Z" fill="#99948A" stroke="#1A1917" stroke-width="0.3"/></g><g fill-rule="nonzero" stroke="#99948A" stroke-width="0.3" stroke-linecap="butt"><line x1="-62.40439845888218" y1="-38.37679482402145" x2="-51.01163754629729" y2="-33.18312204513269"/><line x1="-64.08338679014193" y1="-37.65614539186492" x2="-50.72788676507187" y2="-31.567709282226893"/><line x1="-65.09199507273625" y1="-36.62988657871825" x2="-50.64365373842326" y2="-30.043251638874768"/><line x1="-65.85281629339829" y1="-35.49066788443364" x2="-51.066147879329" y2="-28.749798149532694"/><line x1="-66.61363751406034" y1="-34.35144919014903" x2="-51.48864202023475" y2="-27.45634466019062"/><line x1="-67.3744587347224" y1="-33.212230495864425" x2="-51.91113616114049" y2="-26.16289117084855"/><line x1="-68.13527995538445" y1="-32.073011801579824" x2="-52.33363030204624" y2="-24.869437681506476"/><line x1="-68.8961011760465" y1="-30.933793107295216" x2="-52.756124442951986" y2="-23.575984192164405"/><line x1="-69.65692239670855" y1="-29.79457441301061" x2="-53.17861858385773" y2="-22.28253070282233"/><line x1="-70.4177436173706" y1="-28.655355718726007" x2="-53.601112724763475" y2="-20.989077213480257"/><line x1="-71.17856483803266" y1="-27.5161370244414" x2="-54.02360686566922" y2="-19.695623724138184"/><line x1="-71.93938605869471" y1="-26.37691833015679" x2="-54.44610100657496" y2="-18.402170234796113"/><line x1="-72.70020727935675" y1="-25.237699635872183" x2="-54.86859514748071" y2="-17.10871674545404"/><line x1="-73.4610285000188" y1="-24.098480941587578" x2="-55.29108928838645" y2="-15.815263256111967"/><line x1="-73.41051610634568" y1="-22.589395685571194" x2="-55.7135834292922" y2="-14.521809766769897"/><line x1="-73.15238728029445" y1="-20.98566332675279" x2="-56.13607757019794" y2="-13.228356277427823"/><line x1="-70.03896755163811" y1="-18.080275754553437" x2="-56.55857171110369" y2="-11.934902788085756"/><line x1="-66.42686112158667" y1="-14.947549474370799" x2="-56.98106585200943" y2="-10.641449298743682"/><line x1="-62.814754691535256" y1="-11.814823194188167" x2="-57.421675400206006" y2="-9.356254167357754"/><line x1="-59.168163347719286" y1="-8.666376110306102" x2="-57.867768590078555" y2="-8.07355889010904"/><line x1="-55.16129421934167" y1="-8.805125919538014" x2="-47.741222105553064" y2="-31.521460271949326"/><line x1="-46.45169041115419" y1="-31.434059831679054" x2="-54.478543074900614" y2="-6.860084523761735"/><line x1="-45.304443448778535" y1="-30.911058834390385" x2="-53.27246548045674" y2="-6.517191790615399"/><line x1="-44.46022872840027" y1="-29.46033346687878" x2="-52.06638788601287" y2="-6.174299057469064"/><line x1="-43.86337893160018" y1="-27.252307600815637" x2="-50.86031029156901" y2="-5.831406324322728"/><line x1="-43.35549271947553" y1="-24.771922315101975" x2="-49.65423269712513" y2="-5.4885135911763925"/><line x1="-42.847606507350875" y1="-22.291537029388312" x2="-48.4284097461406" y2="-5.206070691159269"/><line x1="-42.33972029522623" y1="-19.81115174367465" x2="-47.09096141631231" y2="-5.265365632654117"/><line x1="-41.831834083101576" y1="-17.330766457961" x2="-45.59226819122224" y2="-5.818307117904208"/><line x1="-41.32394787097692" y1="-14.850381172247339" x2="-44.085096679294516" y2="-6.397204631018457"/><line x1="-40.81606165885228" y1="-12.369995886533678" x2="-42.5779251673668" y2="-6.976102144132703"/><line x1="-40.50696487644676" y1="-9.28102255989879" x2="-41.07075365543908" y2="-7.554999657246952"/></g><g fill-rule="nonzero" stroke="#99948A" stroke-width="0.3" stroke-linecap="butt"><line x1="-39.76832409966891" y1="-35.109569684737" x2="-44.16674477924825" y2="-46.11907029329114"/><line x1="-37.81384222243314" y1="-34.67601091222058" x2="-43.055938405188485" y2="-47.797279958196405"/><line x1="-36.277747122656535" y1="-35.28969837116021" x2="-41.54405386155939" y2="-48.47156783534452"/><line x1="-34.74165202287994" y1="-35.903385830099836" x2="-40.007958761782795" y2="-49.08525529428415"/><line x1="-33.205556923103345" y1="-36.517073289039466" x2="-38.4718636620062" y2="-49.698942753223776"/><line x1="-31.669461823326746" y1="-37.130760747979096" x2="-36.9357685622296" y2="-50.312630212163405"/><line x1="-30.13336672355015" y1="-37.744448206918726" x2="-35.399673462453" y2="-50.926317671103035"/><line x1="-28.59727162377355" y1="-38.35813566585835" x2="-33.86357836267641" y2="-51.54000513004266"/><line x1="-27.105620031097704" y1="-39.08306778603371" x2="-32.327483262899804" y2="-52.15369258898229"/><line x1="-25.765341084714002" y1="-40.1868943692169" x2="-30.7913881631232" y2="-52.76738004792192"/><line x1="-24.900969069049825" y1="-42.48194344453172" x2="-29.255293063346606" y2="-53.38106750686155"/><line x1="-24.03659705338565" y1="-44.77699251984654" x2="-27.71011276816184" y2="-53.972014197770626"/><line x1="-23.443633021230692" y1="-47.75139142940616" x2="-25.926832294727788" y2="-53.96698241179081"/><line x1="-28.19288780728556" y1="-56.28226913172432" x2="-44.18284531940575" y2="-49.89409928755725"/><line x1="-46.3023567144998" y1="-50.6560036385856" x2="-27.136195559050513" y2="-58.31310295413299"/><line x1="-46.85658065626401" y1="-52.04325812573753" x2="-27.63338247438766" y2="-59.72314438189725"/><line x1="-47.410804598028214" y1="-53.430512612889466" x2="-28.1305693897248" y2="-61.13318580966151"/><line x1="-47.96502853979242" y1="-54.8177671000414" x2="-28.627756305061943" y2="-62.543227237425775"/><line x1="-48.51925248155662" y1="-56.20502158719333" x2="-29.124943220399086" y2="-63.95326866519004"/><line x1="-49.07347642332083" y1="-57.592276074345264" x2="-29.622130135736224" y2="-65.36331009295428"/><line x1="-49.62770036508503" y1="-58.9795305614972" x2="-30.11931705107337" y2="-66.77335152071855"/><line x1="-50.18192430684924" y1="-60.366785048649135" x2="-30.616503966410512" y2="-68.1833929484828"/><line x1="-50.736148248613446" y1="-61.75403953580107" x2="-31.113690881747655" y2="-69.59343437624707"/><line x1="-51.03722740430996" y1="-63.242428243437324" x2="-31.700992540139147" y2="-70.9674739394874"/><line x1="-50.191297336864444" y1="-65.18906017809302" x2="-32.64905807666067" y2="-72.19738423125294"/><line x1="-39.096088924392184" y1="-71.2303953537389" x2="-34.421116506539704" y2="-73.09809999269126"/><line x1="-56.8794564401967" y1="-61.72330932698692" x2="-54.28639988587279" y2="-62.75926490548022"/><line x1="-62.088951899933555" y1="-58.26840975046434" x2="-53.42867559790471" y2="-61.72828860710552"/><line x1="-62.65693574607187" y1="-56.66784684111968" x2="-52.570951309936625" y2="-60.697312308730815"/><line x1="-62.665734163722654" y1="-55.29068486882279" x2="-52.0086395271104" y2="-59.548315355485286"/><line x1="-62.674532581373434" y1="-53.9135228965259" x2="-51.53538742315898" y2="-58.36373804785245"/><line x1="-62.68333099902421" y1="-52.53636092422901" x2="-51.062135319207556" y2="-57.179160740219615"/><line x1="-62.69212941667499" y1="-51.15919895193211" x2="-50.58888321525614" y2="-55.99458343258678"/><line x1="-62.70092783432577" y1="-49.782036979635215" x2="-50.11563111130472" y2="-54.810006124953944"/><line x1="-62.70972625197655" y1="-48.40487500733832" x2="-49.6423790073533" y2="-53.62542881732111"/><line x1="-62.71852466962733" y1="-47.02771303504144" x2="-49.16912690340188" y2="-52.44085150968827"/><line x1="-62.72732308727811" y1="-45.65055106274454" x2="-48.69587479945046" y2="-51.25627420205543"/><line x1="-62.73612150492889" y1="-44.27338909044765" x2="-48.22262269549904" y2="-50.071696894422594"/><line x1="-62.74491992257967" y1="-42.896227118150755" x2="-47.749370591547624" y2="-48.88711958678976"/><line x1="-62.01603077806567" y1="-41.8137797150118" x2="-47.2761184875962" y2="-47.70254227915692"/><line x1="-61.24554338503901" y1="-40.74795128515762" x2="-46.80286638364478" y2="-46.51796497152408"/><line x1="-60.074236867414754" y1="-39.842254653200904" x2="-46.32961427969336" y2="-45.333387663891244"/><line x1="-58.46835764411308" y1="-39.110174758587135" x2="-45.85636217574194" y2="-44.14881035625841"/><line x1="-56.86247842081137" y1="-38.37809486397336" x2="-45.38311007179052" y2="-42.96423304862557"/><line x1="-55.25659919750968" y1="-37.64601496935959" x2="-44.9098579678391" y2="-41.77965574099273"/><line x1="-53.650719974207995" y1="-36.91393507474582" x2="-44.43660586388768" y2="-40.595078433359895"/><line x1="-52.04484075090631" y1="-36.18185518013205" x2="-43.96335375993626" y2="-39.41050112572705"/><line x1="-50.43896152760462" y1="-35.44977528551828" x2="-43.490101655984844" y2="-38.225923818094216"/><line x1="-48.833082304302934" y1="-34.71769539090451" x2="-43.01684955203342" y2="-37.04134651046138"/><line x1="-47.22720308100124" y1="-33.98561549629074" x2="-42.57060448177372" y2="-35.845979585778025"/><line x1="-45.62132385769956" y1="-33.25353560167697" x2="-42.181547301343265" y2="-34.62776544883774"/><line x1="-43.84275673304417" y1="-32.59044648724783" x2="-41.7924901209128" y2="-33.40955131189745"/></g><g fill-rule="nonzero" stroke="#99948A" stroke-width="0.3" stroke-linecap="butt"><line x1="-76.0009037601104" y1="-19.809352700505748" x2="-81.10520072333067" y2="-8.053793071010478"/><line x1="-77.25913480863942" y1="-20.670777195349423" x2="-82.89178146489755" y2="-7.698390573520651"/><line x1="-78.66097248472862" y1="-21.201465393766927" x2="-84.3228561632746" y2="-8.161743826230648"/><line x1="-80.07942741627278" y1="-21.69388286875539" x2="-85.69620065576937" y2="-8.758053856840167"/><line x1="-81.49795949453645" y1="-22.18612266935147" x2="-87.06954514826414" y2="-9.354363887449683"/><line x1="-82.91649157280013" y1="-22.678362469947558" x2="-88.44288964075892" y2="-9.950673918059204"/><line x1="-84.33502365106379" y1="-23.170602270543633" x2="-89.81623413325369" y2="-10.54698394866872"/><line x1="-85.75355572932746" y1="-23.66284207113971" x2="-91.18957862574845" y2="-11.143293979278234"/><line x1="-87.17208780759114" y1="-24.155081871735796" x2="-92.56292311824323" y2="-11.739604009887756"/><line x1="-88.5906198858548" y1="-24.64732167233187" x2="-93.936267610738" y2="-12.335914040497268"/><line x1="-90.00915196411847" y1="-25.139561472927955" x2="-95.30961210323278" y2="-12.932224071106791"/><line x1="-91.42768404238214" y1="-25.631801273524033" x2="-96.68295659572755" y2="-13.528534101716307"/><line x1="-92.86428709708476" y1="-26.082422327675342" x2="-98.00255145606475" y2="-14.248633365288713"/><line x1="-94.6972852480434" y1="-25.62011722873359" x2="-98.99115288308185" y2="-15.731034091805563"/><line x1="-99.05370332571039" y1="-12.050463163116204" x2="-83.73541710493856" y2="-5.399220321197896"/><line x1="-100.85841880577424" y1="-11.33103925336135" x2="-82.80475163012213" y2="-3.4920863286143127"/><line x1="-83.31522850179593" y1="-2.210700385005069" x2="-101.71906555460035" y2="-10.201698052571086"/><line x1="-83.86432822599672" y1="-0.9460845922927495" x2="-102.26816527880115" y2="-8.937082259858768"/><line x1="-84.41342795019752" y1="0.3185312004195646" x2="-102.81726500300195" y2="-7.672466467146454"/><line x1="-84.96252767439832" y1="1.5831469931318831" x2="-103.36636472720274" y2="-6.407850674434134"/><line x1="-85.5116273985991" y1="2.847762785844199" x2="-103.91546445140352" y2="-5.143234881721819"/><line x1="-86.0607271227999" y1="4.112378578556517" x2="-104.46456417560432" y2="-3.8786190890095007"/><line x1="-86.60982684700069" y1="5.376994371268838" x2="-105.01366389980512" y2="-2.614003296297179"/><line x1="-87.15892657120149" y1="6.641610163981149" x2="-105.56276362400591" y2="-1.3493875035848681"/><line x1="-87.70802629540228" y1="7.906225956693469" x2="-106.11186334820671" y2="-0.08477171087254831"/><line x1="-88.28763850160321" y1="9.157593144139659" x2="-106.6609630724075" y2="1.1798440818397662"/><line x1="-90.09235398166706" y1="9.877017053894514" x2="-107.2100627966083" y2="2.444459874552086"/><line x1="-95.82587256878735" y1="8.890543635025162" x2="-107.72053966828214" y2="3.725845818161309"/><line x1="-104.66415861760339" y1="6.555971476009392" x2="-106.7898741934657" y2="5.6329798107448905"/><line x1="-83.46528400895122" y1="12.155507651969131" x2="-85.4191501281298" y2="11.307133502801518"/><line x1="-73.09961193723015" y1="14.893528269820603" x2="-85.58441503928464" y2="9.472591745426854"/><line x1="-71.1753071391867" y1="13.966283541022683" x2="-85.46488092530753" y2="7.7617105235712"/><line x1="-69.84529332328414" y1="12.780996000906804" x2="-84.82088868017075" y2="6.278550493269683"/><line x1="-69.12569756833075" y1="11.33066322662103" x2="-84.176896435034" y2="4.7953904629681645"/><line x1="-68.40610181337735" y1="9.880330452335262" x2="-83.53290418989724" y2="3.3122304326666474"/><line x1="-67.68650605842396" y1="8.42999767804949" x2="-82.88891194476048" y2="1.8290704023651299"/><line x1="-66.96691030347057" y1="6.9796649037637195" x2="-82.24491969962372" y2="0.34591037206361236"/><line x1="-66.24731454851718" y1="5.529332129477948" x2="-81.60092745448696" y2="-1.1372496582379068"/><line x1="-65.52771879356379" y1="4.078999355192178" x2="-80.9569352093502" y2="-2.620409688539424"/><line x1="-64.8081230386104" y1="2.628666580906409" x2="-80.31294296421345" y2="-4.10356971884094"/><line x1="-64.08852728365702" y1="1.1783338066206381" x2="-79.66895071907669" y2="-5.586729749142458"/><line x1="-63.36893152870363" y1="-0.2719989676651311" x2="-79.02495847393993" y2="-7.069889779443974"/><line x1="-62.64933577375024" y1="-1.7223317419509083" x2="-78.38096622880317" y2="-8.553049809745495"/><line x1="-61.92974001879685" y1="-3.1726645162366776" x2="-77.73697398366642" y2="-10.036209840047011"/><line x1="-61.52684932830166" y1="-4.760511517807252" x2="-77.09298173852966" y2="-11.519369870348532"/><line x1="-61.69211423945649" y1="-6.595053275181913" x2="-76.4489894933929" y2="-13.002529900650046"/><line x1="-63.90482174093881" y1="-9.31860034796113" x2="-75.80499724825614" y2="-14.485689930951565"/><line x1="-67.9751406401862" y1="-12.848727499894142" x2="-74.7132256024304" y2="-15.774422889538464"/><line x1="-72.04545953943358" y1="-16.378854651827165" x2="-73.09996683188015" y2="-16.83672467589847"/><path d="M -76.0985216832485,-10.816387017166463 L -75.57905581266694,-12.012753933337573 L -75.13145849848554,-13.043602442892492 L -74.71399098036673,-14.005059885119143 L -72.9636591798842,-13.245060908004138 L -71.73608343903236,-12.712044078211413 L -72.15355095715117,-11.750586635984762 L -73.38112669800302,-12.283603465777489 L -73.82872401218441,-11.252754956222567 L -74.34818988276598,-10.05638804005146 Z" fill="#99948A" stroke="#1A1917" stroke-width="0.3"/></g><g fill-rule="nonzero" stroke="#99948A" stroke-width="0.3" stroke-linecap="butt"><line x1="-93.66046683768731" y1="-29.198966692341198" x2="-95.10953369459196" y2="-30.553117453053837"/><line x1="-90.60137253216686" y1="-28.097155074719215" x2="-94.2680625042063" y2="-31.523671243573492"/><line x1="-87.61085127804017" y1="-27.05942486870829" x2="-93.42659131382064" y2="-32.49422503409315"/><line x1="-84.62033002391348" y1="-26.021694662697367" x2="-92.58485658818246" y2="-33.464532551322534"/><line x1="-81.62980876978676" y1="-24.983964456686437" x2="-91.70841487365462" y2="-34.40240644053604"/><line x1="-78.63928751566007" y1="-23.946234250675516" x2="-90.83197315912676" y2="-35.34028032974954"/><line x1="-77.09264718241249" y1="-24.257808556095824" x2="-89.95553144459892" y2="-36.27815421896304"/><line x1="-75.7605599236272" y1="-24.76988238133606" x2="-89.07908973007108" y2="-37.216028108176545"/><line x1="-74.82696213624347" y1="-25.654344007914236" x2="-88.20264801554323" y2="-38.153901997390044"/><line x1="-74.10450575546894" y1="-26.736116955923443" x2="-87.32620630101538" y2="-39.09177588660355"/><line x1="-73.38204937469439" y1="-27.81788990393265" x2="-86.44976458648753" y2="-40.029649775817056"/><line x1="-72.65959299391986" y1="-28.899662851941866" x2="-85.57332287195969" y2="-40.967523665030555"/><line x1="-71.93713661314533" y1="-29.981435799951075" x2="-84.69688115743185" y2="-41.905397554244054"/><line x1="-71.21468023237078" y1="-31.06320874796028" x2="-83.82043944290399" y2="-42.84327144345756"/><line x1="-70.49222385159624" y1="-32.1449816959695" x2="-82.94399772837615" y2="-43.781145332671066"/><line x1="-69.7697674708217" y1="-33.2267546439787" x2="-82.0675560138483" y2="-44.719019221884565"/><line x1="-69.04731109004717" y1="-34.30852759198791" x2="-81.19111429932045" y2="-45.656893111098064"/><line x1="-68.32485470927263" y1="-35.39030053999712" x2="-80.31467258479262" y2="-46.59476700031156"/><line x1="-67.6023983284981" y1="-36.47207348800633" x2="-79.43823087026476" y2="-47.53264088952507"/><line x1="-66.87994194772355" y1="-37.55384643601554" x2="-78.56178915573692" y2="-48.470514778738576"/><line x1="-66.15748556694902" y1="-38.63561938402475" x2="-77.68534744120907" y2="-49.40838866795207"/><line x1="-65.62458008660953" y1="-39.894527358478605" x2="-76.80890572668123" y2="-50.346262557165566"/><line x1="-65.17881549939395" y1="-41.23486836423166" x2="-75.93246401215337" y2="-51.28413644637907"/><line x1="-64.74692880283807" y1="-42.5881782375731" x2="-75.05602229762553" y2="-52.22201033559257"/><line x1="-64.73577088303153" y1="-44.33465850907396" x2="-74.17958058309769" y2="-53.15988422480608"/><line x1="-64.72461296322498" y1="-46.08113878057481" x2="-73.30313886856985" y2="-54.09775811401958"/><line x1="-64.71345504341843" y1="-47.82761905207567" x2="-72.42669715404199" y2="-55.035632003233076"/><line x1="-64.7022971236119" y1="-49.57409932357652" x2="-71.55025543951415" y2="-55.973505892446575"/><line x1="-64.69113920380535" y1="-51.32057959507739" x2="-70.6738137249863" y2="-56.91137978166009"/><line x1="-64.67998128399881" y1="-53.06705986657824" x2="-69.78334734979947" y2="-57.83614764694543"/><line x1="-64.66882336419226" y1="-54.813540138079105" x2="-68.83612938925569" y2="-58.70788124254433"/><line x1="-64.65766544438571" y1="-56.56002040957996" x2="-67.8889114287119" y2="-59.579614838143236"/><line x1="-64.83840526734409" y1="-58.48582882809209" x2="-66.94169346816811" y2="-60.45134843374213"/><line x1="-96.14145309872454" y1="-58.224646585927026" x2="-84.5294815073483" y2="-47.37327690004203"/><line x1="-98.34997781031323" y1="-58.61930942309143" x2="-84.52333882158004" y2="-45.69833644280596"/><line x1="-85.01780299489394" y1="-44.49121232945629" x2="-100.05789566281976" y2="-58.54615591636946"/><line x1="-85.85049154688593" y1="-43.600158380499735" x2="-101.42758913664822" y2="-58.156932245254346"/><line x1="-86.68318009887793" y1="-42.70910443154318" x2="-102.79728261047669" y2="-57.76770857413924"/><line x1="-87.5158686508699" y1="-41.81805048258663" x2="-104.16697608430513" y2="-57.37848490302413"/><line x1="-88.3485572028619" y1="-40.926996533630074" x2="-105.5366695581336" y2="-56.98926123190901"/><line x1="-89.18124575485389" y1="-40.03594258467353" x2="-106.90636303196206" y2="-56.60003756079391"/><line x1="-90.01393430684588" y1="-39.144888635716974" x2="-108.2760565057905" y2="-56.2108138896788"/><line x1="-90.84662285883788" y1="-38.25383468676042" x2="-109.64574997961897" y2="-55.82159021856369"/><line x1="-91.67931141082987" y1="-37.36278073780387" x2="-111.01544345344743" y2="-55.43236654744858"/><line x1="-92.51199996282185" y1="-36.47172678884731" x2="-112.3851369272759" y2="-55.04314287633348"/><line x1="-93.34468851481383" y1="-35.580672839890774" x2="-113.75483040110433" y2="-54.653919205218365"/><line x1="-94.17737706680582" y1="-34.68961889093422" x2="-115.12452387493279" y2="-54.264695534103254"/><line x1="-95.01006561879781" y1="-33.798564941977666" x2="-116.49421734876125" y2="-53.87547186298815"/><line x1="-96.39750381445465" y1="-33.42592368626184" x2="-117.3091611789249" y2="-52.96783549863234"/><line x1="-98.60602852604335" y1="-33.82058652342624" x2="-117.30301849315664" y2="-51.292895041396264"/><line x1="-71.81097395485382" y1="-64.30120254311878" x2="-69.3815266118288" y2="-62.03088771810369"/><line x1="-74.96929550147176" y1="-65.44873625575818" x2="-69.9389240033848" y2="-60.74786178723814"/><line x1="-76.63564188604988" y1="-65.20202146218563" x2="-70.77852759902525" y2="-59.72855712231551"/><line x1="-78.11587648599726" y1="-64.7813854906257" x2="-71.67841828930754" y2="-58.7655906550967"/><line x1="-79.59611108594464" y1="-64.36074951906578" x2="-72.57830897958982" y2="-57.8026241878779"/><line x1="-81.07634568589202" y1="-63.94011354750585" x2="-73.4781996698721" y2="-56.83965772065911"/><line x1="-82.5565802858394" y1="-63.51947757594593" x2="-74.37809036015437" y2="-55.876691253440306"/><line x1="-84.03681488578678" y1="-63.098841604385996" x2="-75.27798105043667" y2="-54.913724786221515"/><line x1="-85.51704948573416" y1="-62.67820563282607" x2="-76.17787174071894" y2="-53.950758319002716"/><line x1="-86.99728408568154" y1="-62.257569661266146" x2="-77.07776243100122" y2="-52.98779185178391"/><line x1="-88.47751868562892" y1="-61.836933689706214" x2="-77.97765312128351" y2="-52.02482538456512"/><line x1="-89.95775328557629" y1="-61.416297718146296" x2="-78.87754381156579" y2="-51.06185891734632"/><line x1="-91.43798788552368" y1="-60.995661746586364" x2="-79.77743450184806" y2="-50.098892450127515"/><line x1="-80.87611990193018" y1="-49.3216993350618" x2="-92.75578084258873" y2="-60.42322430828778"/><line x1="-82.66923513036642" y1="-49.19344983211898" x2="-93.31317823414471" y2="-59.14019837742222"/></g><g fill-rule="nonzero" stroke="#99948A" stroke-width="0.3" stroke-linecap="butt"><line x1="-77.15528138287846" y1="-78.06803189242132" x2="-63.24690846580159" y2="-85.84821409959244"/><line x1="-77.70364255085508" y1="-76.18680696098356" x2="-61.569531688475365" y2="-85.21204111370679"/><line x1="-60.46857613192489" y1="-84.25342479440945" x2="-77.03281123741309" y2="-74.98758413774377"/><line x1="-59.7977448184829" y1="-83.05420197116966" x2="-76.3619799239711" y2="-73.78836131450399"/><line x1="-59.1269135050409" y1="-81.85497914792987" x2="-75.6911486105291" y2="-72.5891384912642"/><line x1="-58.4560821915989" y1="-80.65575632469007" x2="-75.0203172970871" y2="-71.3899156680244"/><line x1="-57.785250878156916" y1="-79.4565335014503" x2="-74.34948598364511" y2="-70.1906928447846"/><line x1="-57.11441956471492" y1="-78.2573106782105" x2="-73.67865467020313" y2="-68.99147002154483"/><line x1="-56.44358825127293" y1="-77.05808785497071" x2="-72.81378874835383" y2="-67.90078790374243"/><line x1="-55.772756937830934" y1="-75.85886503173091" x2="-71.85382463719279" y2="-66.86330260808656"/><line x1="-55.10192562438894" y1="-74.65964220849114" x2="-70.67290445927918" y2="-65.94941756886358"/><line x1="-54.431094310946946" y1="-73.46041938525134" x2="-69.49198428136557" y2="-65.03553252964062"/><line x1="-53.76026299750495" y1="-72.26119656201155" x2="-68.31106410345195" y2="-64.12164749041764"/><line x1="-53.08943168406296" y1="-71.06197373877177" x2="-67.13014392553833" y2="-63.207762451194675"/><line x1="-52.418600370620965" y1="-69.86275091553198" x2="-65.94922374762471" y2="-62.2938774119717"/><line x1="-52.0608037967553" y1="-68.4884200961521" x2="-64.76830356971111" y2="-61.379992372748724"/><line x1="-52.15823663988731" y1="-66.85943923025546" x2="-62.43833953482676" y2="-61.10886911627078"/><line x1="-64.42182840980003" y1="-88.17012302236014" x2="-78.35808720032644" y2="-80.37434178158982"/><line x1="-80.37495536997498" y1="-80.96222402412667" x2="-63.81072026448679" y2="-90.22806468079236"/><line x1="-81.10612476241175" y1="-82.26931122398553" x2="-64.54188965692356" y2="-91.53515188065121"/><line x1="-81.83729415484851" y1="-83.57639842384437" x2="-65.27305904936031" y2="-92.84223908051005"/><line x1="-82.56846354728528" y1="-84.88348562370322" x2="-66.00422844179707" y2="-94.14932628036891"/><line x1="-83.29963293972203" y1="-86.19057282356208" x2="-66.73539783423382" y2="-95.45641348022777"/><line x1="-84.0308023321588" y1="-87.49766002342093" x2="-67.46656722667059" y2="-96.76350068008661"/><line x1="-84.76197172459555" y1="-88.80474722327979" x2="-68.19773661910736" y2="-98.07058787994548"/><line x1="-85.2651104246716" y1="-90.23939214293601" x2="-68.92890601154411" y2="-99.37767507980433"/><line x1="-83.65106871215743" y1="-92.85836318568467" x2="-69.66007540398087" y2="-100.68476227966318"/><line x1="-74.10606762301524" y1="-99.91382075318542" x2="-71.67694357362939" y2="-101.27264452220004"/><line x1="-37.36480684557769" y1="-74.77065424719774" x2="-47.943292999994654" y2="-68.85317200480338"/><line x1="-36.834410997728014" y1="-76.52807401738099" x2="-49.39330979928661" y2="-69.5027719507691"/><line x1="-36.90161843864486" y1="-77.95120145143487" x2="-50.421086134235985" y2="-70.38856830643796"/><line x1="-37.21523536419739" y1="-79.2364902828376" x2="-51.04345008566837" y2="-71.50114763892309"/><line x1="-37.52885228974993" y1="-80.52177911424033" x2="-51.66581403710076" y2="-72.61372697140823"/><line x1="-37.84246921530247" y1="-81.80706794564307" x2="-52.28817798853315" y2="-73.72630630389337"/><line x1="-38.15608614085501" y1="-83.09235677704581" x2="-52.91054193996554" y2="-74.8388856363785"/><line x1="-38.46970306640755" y1="-84.37764560844855" x2="-53.53290589139793" y2="-75.95146496886365"/><line x1="-38.783319991960084" y1="-85.66293443985128" x2="-54.15526984283032" y2="-77.06404430134879"/><line x1="-39.096936917512615" y1="-86.94822327125401" x2="-54.77763379426271" y2="-78.17662363383391"/><line x1="-39.41055384306515" y1="-88.23351210265675" x2="-55.3999977456951" y2="-79.28920296631905"/><line x1="-39.7241707686177" y1="-89.51880093405948" x2="-56.022361697127494" y2="-80.40178229880419"/><line x1="-40.03778769417023" y1="-90.80408976546221" x2="-56.64472564855988" y2="-81.51436163128932"/><line x1="-40.351404619722764" y1="-92.08937859686495" x2="-57.26708959999227" y2="-82.62694096377446"/><line x1="-57.55290538888337" y1="-83.92778142800168" x2="-41.02177956682943" y2="-93.17510113621398"/><line x1="-57.02250954103369" y1="-85.68520119818494" x2="-42.471796366121396" y2="-93.8247010821797"/><line x1="-42.682101117815236" y1="-96.68620453557145" x2="-58.25397899409615" y2="-87.97547698263601"/><line x1="-41.97312317870795" y1="-98.73562942618449" x2="-60.31350367173485" y2="-88.4762336769234"/><line x1="-61.18955914856026" y1="-89.63900929131017" x2="-42.32798574651217" y2="-100.1899542980902"/><line x1="-61.893773914791296" y1="-90.89791060257069" x2="-42.68284831431639" y2="-101.64427916999593"/><line x1="-62.59798868102234" y1="-92.1568119138312" x2="-43.03771088212061" y2="-103.09860404190164"/><line x1="-63.30220344725338" y1="-93.41571322509172" x2="-43.91427928678664" y2="-104.26109273041413"/><line x1="-64.00641821348442" y1="-94.67461453635224" x2="-45.14288616941512" y2="-105.2266551847213"/><line x1="-64.71063297971547" y1="-95.93351584761275" x2="-46.7016405143239" y2="-106.00753698464207"/><line x1="-65.41484774594652" y1="-97.19241715887327" x2="-48.26039485923267" y2="-106.78841878456285"/><line x1="-66.11906251217756" y1="-98.45131847013378" x2="-49.81914920414144" y2="-107.56930058448361"/><line x1="-66.82327727840861" y1="-99.7102197813943" x2="-51.37790354905022" y2="-108.35018238440439"/><line x1="-67.52749204463964" y1="-100.96912109265482" x2="-52.936657893958994" y2="-109.13106418432517"/><line x1="-68.074024968666" y1="-102.31622779432507" x2="-54.495412238867765" y2="-109.91194598424595"/><line x1="-67.96996021099434" y1="-104.02727127978393" x2="-56.05416658377654" y2="-110.69282778416671"/><line x1="-61.125282224627924" y1="-109.50893548558047" x2="-58.569323506244345" y2="-110.93870909472894"/></g><g id="labels" style="font: bold italic 1px &quot;Archivo Narrow&quot;, sans-serif" fill="#1A1917"><text text-anchor="middle" stroke="#CCC5B8" stroke-width="0.5905942692517024" x="-1.7394122008287818" y="0.928020423343834">Market</text><text text-anchor="middle" x="-1.7394122008287818" y="0.928020423343834">Market</text><text text-anchor="middle" stroke="#CCC5B8" stroke-width="0.5905942692517024" x="-17.528590211737086" y="4.4928850643131275">Craftsmen</text><text text-anchor="middle" x="-17.528590211737086" y="4.4928850643131275">Craftsmen</text><text text-anchor="middle" stroke="#CCC5B8" stroke-width="0.5905942692517024" x="12.92769395507805" y="-13.282156790215648">Craftsmen</text><text text-anchor="middle" x="12.92769395507805" y="-13.282156790215648">Craftsmen</text><text text-anchor="middle" stroke="#CCC5B8" stroke-width="0.5905942692517024" x="-12.310614673437154" y="-17.06443759438316">Merchant</text><text text-anchor="middle" x="-12.310614673437154" y="-17.06443759438316">Merchant</text><text text-anchor="middle" stroke="#CCC5B8" stroke-width="0.5905942692517024" x="6.9589370628364176" y="20.30650518896069">Craftsmen</text><text text-anchor="middle" x="6.9589370628364176" y="20.30650518896069">Craftsmen</text><text text-anchor="middle" stroke="#CCC5B8" stroke-width="0.5905942692517024" x="26.083479966294117" y="4.788468868789845">Gate</text><text text-anchor="middle" x="26.083479966294117" y="4.788468868789845">Gate</text></g></g></svg>