<svg width="105.01780058912898" height="131.3651283956185" xmlns="http://www.w3.org/2000/svg"><rect x="0" y="0" width="105.01780058912898" height="131.3651283956185" id="background" fill="#CCC5B8"/><g id="map" transform="translate(52.50890029456449 65.68256419780926)"><g id="waterbody"><polygon points="-61.516859712677444,-75.86488258109233 -45.25793164879254,-63.70371362274337 -41.262640716456076,-42.58474589947024 -56.71054329644332,-26.7183288676194 -59.354084172975526,-14.104982295037278 -67.75951516366406,-3.7518255618414766 -90.99572486245395,8.99694091552022 -95.01793346862199,16.38071385762708 -101.01506844101863,32.13402912146469 -156.042607941288,49.828335944294885 -182.2615240156141,45.97306849147452 -159.84180612293238,15.377433273618177 -140.82672059222625,-25.452449132687818 -131.11097657953408,-37.13655295963598 -119.47071816280541,-63.58247490946346 -122.51472901924315,-91.44528014715758 -104.12144670051592,-113.32672686107477 -79.0002747189501,-106.86232464559468 -65.6367455469103,-85.17604099654037" fill="#67635C" stroke="#99948A" stroke-width="0.3"/><polygon points="-63.91269348002557,-72.6617621401419 -48.89913453638872,-61.43209027848581 -45.579549064937524,-43.88487791935335 -59.5765162690819,-29.508704992822807 -63.07025801929904,-15.873886742987654 -70.37083488599288,-6.88160346478859 -92.91978959832392,5.4900940565625 -104.06946134513667,28.914472582080123 -156.381272656743,45.73552706155636 -175.11045543694928,42.98156085693672 -156.2157521786024,17.066140706185752 -137.41958114062245,-23.2936805489036 -127.44992329974356,-35.52512847101263 -115.80966488301489,-61.97105042084011 -118.35271453009477,-90.18016153295557 -102.67973412493143,-108.82541905910554 -81.55936117517452,-103.39053784463188" fill="none" stroke="#CCC5B8" stroke-width="0.15"/><polygon points="-56.18154031158109,-56.88884358997069 -54.21336576190043,-46.48514195911957 -65.30846221435907,-35.08945724322962 -75.59347433065047,-13.141159270682842 -96.76791907006385,-1.5235996613529403 -109.80786925619806,22.356263134247058 -157.05860208765304,37.54990929607932 -148.96364428994244,20.443555571320903 -130.58847662840878,-19.012271940211445 -120.1278167401625,-32.30227949376593 -108.48755832343383,-58.74820144359341 -110.08602237275402,-87.5817139345505 -99.79630897376242,-99.82280345516709 -86.81792430908261,-96.48309069649191 -70.8501260647966,-68.67779061266369" fill="none" stroke="#CCC5B8" stroke-width="0.15"/><polygon points="-73.13480539863463,-49.98705889047774 -87.8665076163116,-24.65745612571697 -110.81064473418003,-9.191836481011869 -120.7883911939962,9.080259122777399 -126.94325150508126,11.05937699330232 -116.86787859303084,-10.574829728218697 -105.4836036210004,-25.85658153927253 -93.84334520427173,-52.302503489100005 -93.41016922754538,-75.83365966304814 -84.72499123433866,-60.70984755770724" fill="none" stroke="#CCC5B8" stroke-width="0.15"/><polygon points="-89.24510866347333,5.910172710173999 -91.20591586203999,8.542274361921011" fill="none" stroke="#CCC5B8" stroke-width="0.15"/></g><g fill="none"><path d="M 20.03403100307816,-13.530603109164218 L 40.16036547680949,-24.825662637297953 C 44.14989246765017,-27.064617023624784 49.87741560152599,-30.462605585777325 53.4046782898882,-36.94866315718606 C 56.61713444226497,-42.85584314088515 56.11187631124948,-50.45741250218572 57.95467262291338,-57.546475003713866 C 59.29784039443274,-62.71351393366571 62.95276663880009,-68.59099058442953 63.61222106154403,-76.21611134843684 C 64.25173172540669,-83.61062698688413 61.280141532010674,-96.82963602389194 62.9662648966782,-115.49437100601435 C 66.19850186326052,-151.27398692550204 66.19850186326052,-151.27398692550204 76.82570334492442,-222.48426122304335" stroke="#67635C" stroke-width="2.3" stroke-linejoin="round" stroke-linecap="butt"/><path d="M 20.03403100307816,-13.530603109164218 L 40.16036547680949,-24.825662637297953 C 44.14989246765017,-27.064617023624784 49.87741560152599,-30.462605585777325 53.4046782898882,-36.94866315718606 C 56.61713444226497,-42.85584314088515 56.11187631124948,-50.45741250218572 57.95467262291338,-57.546475003713866 C 59.29784039443274,-62.71351393366571 62.95276663880009,-68.59099058442953 63.61222106154403,-76.21611134843684 C 64.25173172540669,-83.61062698688413 61.280141532010674,-96.82963602389194 62.9662648966782,-115.49437100601435 C 66.19850186326052,-151.27398692550204 66.19850186326052,-151.27398692550204 76.82570334492442,-222.48426122304335" stroke="#CCC5B8" stroke-width="1.7" stroke-linejoin="round" stroke-linecap="round"/></g><g fill="none"><path d="M -4.779226647606335,30.261751023606827 L -4.31129882512391,52.83547016484105 C -4.196046360856977,58.39546603107234 -4.0791059731763735,65.59091486079939 -5.934664103546261,73.8859963438457 C -6.949265967619525,78.42166946428883 -10.160331807487362,82.19260166668776 -11.844910196960328,86.51370377454758 C -13.783773946442459,91.48707176210756 -16.931542336069217,97.76359011287433 -18.44297831138119,105.97099946807444 C -19.605645932696394,112.28452466400675 -21.914028717788888,123.48146741295884 -21.595732599657385,139.46268230621985 C -20.927958514459117,172.99071028956837 -20.927958514459117,172.99071028956837 -15.773557694113673,239.99897560389508" stroke="#67635C" stroke-width="2.3" stroke-linejoin="round" stroke-linecap="butt"/><path d="M -4.779226647606335,30.261751023606827 L -4.31129882512391,52.83547016484105 C -4.196046360856977,58.39546603107234 -4.0791059731763735,65.59091486079939 -5.934664103546261,73.8859963438457 C -6.949265967619525,78.42166946428883 -10.160331807487362,82.19260166668776 -11.844910196960328,86.51370377454758 C -13.783773946442459,91.48707176210756 -16.931542336069217,97.76359011287433 -18.44297831138119,105.97099946807444 C -19.605645932696394,112.28452466400675 -21.914028717788888,123.48146741295884 -21.595732599657385,139.46268230621985 C -20.927958514459117,172.99071028956837 -20.927958514459117,172.99071028956837 -15.773557694113673,239.99897560389508" stroke="#CCC5B8" stroke-width="1.7" stroke-linejoin="round" stroke-linecap="round"/></g><g fill="none"><polyline points="-59.18290021793926,7.676878280387859 -50.60628527221447,19.105582122617196 -49.818063309528384,32.238407223849435 -35.38624030608836,47.90561821651035 -21.413122200526452,46.880640551976 -4.31129882512391,52.83547016484105 11.027324153165724,50.1032714454048 25.32915303042631,59.07004011575753 24.243039824961436,84.1594623999265 42.44778496228141,115.7919782099924" stroke="#99948A" stroke-width="7.195394369901809" stroke-linejoin="round" stroke-linecap="butt"/><polyline points="-59.18290021793926,7.676878280387859 -50.60628527221447,19.105582122617196 -49.818063309528384,32.238407223849435 -35.38624030608836,47.90561821651035 -21.413122200526452,46.880640551976 -4.31129882512391,52.83547016484105 11.027324153165724,50.1032714454048 25.32915303042631,59.07004011575753 24.243039824961436,84.1594623999265 42.44778496228141,115.7919782099924" stroke="#67635C" stroke-width="6.595394369901809" stroke-linejoin="round" stroke-linecap="round"/><polyline points="-59.18290021793926,7.676878280387859 -50.60628527221447,19.105582122617196 -49.818063309528384,32.238407223849435 -35.38624030608836,47.90561821651035 -21.413122200526452,46.880640551976 -4.31129882512391,52.83547016484105 11.027324153165724,50.1032714454048 25.32915303042631,59.07004011575753 24.243039824961436,84.1594623999265 42.44778496228141,115.7919782099924" stroke="#CCC5B8" stroke-width="4.317236621941086" stroke-linejoin="round" stroke-linecap="butt"/><polyline points="-59.18290021793926,7.676878280387859 -50.60628527221447,19.105582122617196 -49.818063309528384,32.238407223849435 -35.38624030608836,47.90561821651035 -21.413122200526452,46.880640551976 -4.31129882512391,52.83547016484105 11.027324153165724,50.1032714454048 25.32915303042631,59.07004011575753 24.243039824961436,84.1594623999265 42.44778496228141,115.7919782099924" stroke="#67635C" stroke-width="4.017236621941086" stroke-linejoin="round" stroke-linecap="round"/><g><path fill="#67635C" stroke="#67635C" stroke-width="0.3" stroke-linejoin="round" stroke-linecap="round" d="M -61.94046868790634,9.746282062292641 C -70.51708363363113,-1.6824217799366945 -73.56856758836153,-0.5646339425010525 -79.37762001305902,2.6225576768393717 L -63.5567996683198,-8.928403928439376 C -65.65815741599192,-6.3401147451404265 -65.00194669369698,-5.821229343746259 -56.42533174797219,5.607474498483077 Z"/><path fill="none" stroke="#99948A" stroke-width="0.3" stroke-linejoin="round" stroke-linecap="round" d="M -61.94046868790634,9.746282062292641 C -70.51708363363113,-1.6824217799366945 -73.56856758836153,-0.5646339425010525 -79.37762001305902,2.6225576768393717 M -56.42533174797219,5.607474498483077 C -65.00194669369698,-5.821229343746259 -65.65815741599192,-6.3401147451404265 -63.5567996683198,-8.928403928439376"/></g><g fill="none"><line x1="-4.626367758524461" y1="56.92103668452475" x2="-4.396221238471533" y2="48.73865305844421" stroke="#1A1917" stroke-width="2.3" stroke-linejoin="round" stroke-linecap="butt"/><line x1="-4.626367758524461" y1="56.92103668452475" x2="-4.396221238471533" y2="48.73865305844421" stroke="#CCC5B8" stroke-width="1.7" stroke-linejoin="round" stroke-linecap="round"/></g></g><g fill-rule="nonzero" fill="#99948A" stroke="#1A1917" stroke-width="0.3"><path d="M -0.8254788537874889,-3.3022367118637552 L -1.1715729803293846,-2.4666915777086404 L -2.0071181144844994,-2.120597451166745 L -2.842663248639614,-2.4666915777086404 L -3.1887573751815097,-3.3022367118637552 L -2.8426632486396146,-4.13778184601887 L -2.0071181144844994,-4.4838759725607655 L -1.1715729803293848,-4.1377818460188704 Z"/></g><g fill="#899E8A" stroke="#173023" stroke-width="0.3"><polygon points="10.058283794852398,19.122803790556304 8.561552786317337,16.53432778927293 6.976367004229244,13.79287636539503 10.11055633302864,11.9805982709843 14.224723506591907,9.60166890099357 16.76216542669445,8.134447260811768 19.275358580475704,9.754421249994667 16.49728582930141,11.512440199950532 18.643037157418455,13.316588764543681 13.770331121795952,16.612196431589933"/><polygon points="6.976367004229244,13.79287636539503 4.961273346971694,10.307933819002045 2.705958813155015,6.407548570857886 4.6939867188821145,5.8210169342859155 8.694014654587647,4.6408811199423585 10.561230441093372,7.870080772402362 12.229563009212534,10.755327881007817 8.720422258340285,12.784413633605261"/><polygon points="8.694014654587647,4.6408811199423585 8.74065271292449,4.627121405300505 16.76216542669445,8.134447260811768 12.229563009212534,10.755327881007817"/><polygon points="1.8790897542669636,6.651501314651467 3.101940919092786,8.766324135347318 5.502376569237207,12.917684692182029 -0.054264880196358334,16.130694029164456 -5.485780586445216,19.271352075388272 -6.520393176545759,12.655448662185492 -7.047454675099903,9.285116616532276 -2.6350072024533193,7.98330388545157"/><polygon points="-1.4006487924429356,16.909211794001013 1.6599939162720294,15.139460463137148 5.502376569237207,12.917684692182029 6.903337867141673,15.340534675026873 8.144070901948476,17.486282752859704 4.301688248983298,19.70805852381482 1.2410455402683338,21.477809854678686 0.00031250546153094305,19.33206177684586"/><polygon points="1.2410455402683338,21.477809854678686 8.144070901948476,17.486282752859704 9.362471932345532,19.59340942367581 2.740965690584744,24.071801220392036"/><polygon points="-5.485780586445215,19.271352075388272 -3.5894558473208047,18.174842763386756 -1.4006487924429356,16.909211794001013 0.06984393206137174,19.452310791573524 1.6184950476993412,22.130578445768187 2.740965690584744,24.071801220392036 0.5521586357068757,25.33743218977778 -1.3441661034175336,26.433941501779294 -2.4666367463029366,24.49271872715544 -4.015287861940908,21.81445107296078"/></g><g fill="#A3857E" stroke="#301617" stroke-width="0.3"><polygon points="-11.202248514112343,-7.477379099418743 -13.553189972248877,-7.181007721391877 -15.71571869634953,-6.90838859012163 -16.20074238544766,-10.75579891182874 -14.061311862559123,-11.211642614916517 -14.435441910735591,-14.17939829648218 -12.128100082863886,-14.821620137638849 -11.735481062252362,-11.707202210530774"/><polygon points="-16.557865232601944,-13.588646377101359 -16.110215022452422,-10.037698087861887 -21.836399815764967,-9.315826740467424 -21.765423657947444,-11.860897294818026"/><polygon points="-16.110215022452422,-10.037698087861887 -15.71571869634953,-6.90838859012163 -20.97709149090749,-6.245113756101649 -21.836399815764967,-9.315826740467424"/><polygon points="-15.67814941082715,-2.4140177723118126 -16.010349202341388,-5.0491651588598545 -16.23645639874042,-6.842741804271649 -14.094626643092504,-7.112751520584819 -11.202248514112343,-7.477379099418743 -10.976141317713314,-5.683802454006948 -13.868519446693474,-5.319174875173025 -13.536319655179234,-2.684027488624983"/><polygon points="-16.23645639874042,-6.8427418042716495 -15.851751205887005,-3.791099661697701 -15.67814941082715,-2.414017772311813 -18.274552730058247,-2.0867022507062725 -19.76096396120562,-1.8993178548230416 -20.139110620209554,-3.250613800885834 -18.578231695443375,-3.4473859647629914 -19.251190606402393,-6.462689409339738"/><polygon points="-10.643941526199075,-3.048655067458906 -10.278696468441387,-0.15137883795679574 -9.938292407425623,2.548848238247091 -13.92985196876866,3.0520440977514935 -18.223889666546107,3.5933718562054873 -18.965371967118525,0.9437066985651597 -14.463474168668347,0.3761750615501023 -15.036037464892123,-2.4949655992369113"/><polygon points="-9.938292407425623,2.5488482382470905 -9.491364654700549,6.0940656936854625 -17.25037302490739,7.072204896106486 -18.223889666546107,3.5933718562054873"/></g><g fill="#899895" stroke="#17292E" stroke-width="0.3"><polygon points="14.578459429489433,-4.255249246022567 14.446662489210155,-9.289796679357565 18.191814315126706,-9.38783916640792 18.32361125540599,-4.353291733072922"/><polygon points="14.578459429489433,-4.255249246022567 9.389050330946931,-4.1193982584011675 9.457090407006904,-6.5237659537753485 14.512560959349791,-6.772522962690065"/><polygon points="9.389050330946931,-4.1193982584011675 18.32361125540599,-4.353291733072922 18.443888566097115,-0.6126012100670517 9.283026633839924,-0.37278351265137477"/><polygon points="14.959200151643897,6.162652675287665 15.697948603384038,4.473080522018886 16.535686166238694,2.55711297635104 18.437955874994415,3.3888612976148917 17.60021831213976,5.3048288432827375 19.09063177252359,5.956497157169814 18.351883320783447,7.646069310438593 16.861469860399616,6.994400996551517"/><polygon points="18.704498694606777,0.20428577592508823 19.556899114173053,2.876149734474666 18.23202775080847,3.2988212939265056 17.379627331242197,0.626957335376928"/><polygon points="11.29800642514077,4.561832496201394 13.503931403859635,-0.48328050195678607 17.915564503232865,-0.5987704743587381 14.959200151643897,6.162652675287665"/><polygon points="11.29800642514077,4.561832496201394 9.169718086225261,3.6312597993274593 10.939405191274444,-0.416145031974565 13.503931403859635,-0.48328050195678607"/></g><g fill="#A3937C" stroke="#302514" stroke-width="0.3"><polygon points="-0.06922957567966748,-23.050022225940708 1.9582472753690188,-21.83423558705282 4.553775443487177,-20.277814133450022 6.8080640133453905,-18.926018712449928 5.769503294072023,-17.194088331424087 4.750273294861301,-15.494394352894798 2.495984725003087,-16.846189773894892 -0.0995434431150719,-18.40261122749769 -2.127020294163758,-19.61839786638558 -1.1077902949530352,-21.318091844914868"/><polygon points="1.094588936071415,-17.686543771078934 2.8335956672084626,-16.6437396830525 4.750273294861301,-15.494394352894798 3.5232414251785746,-13.4481646677616 2.302948073554843,-11.413172307450033 0.31034775851289087,-12.435907024999231 -1.4975438296866175,-13.36383696602098 -0.2050460639454672,-15.51923925146588"/><polygon points="-4.846766189510284,-15.08288014709746 -3.5088454251888805,-17.314030985109873 -0.28723619495370856,-15.382176889803231 -1.4975438296866173,-13.36383696602098"/><polygon points="-0.06922957567966748,-23.050022225940708 -1.7371587474550405,-20.26854093901302 -3.130913203048741,-17.94428041140348 -4.846766189510284,-15.08288014709746 -6.772884764029935,-16.071492023451675 -8.81845223947863,-17.121413002806133 -6.853413579811111,-19.956615320933523 -4.936186084422521,-18.920187267745014 -3.444270991180775,-21.234127751393444 -5.257250383467914,-22.259595759571585 -3.347095300260678,-25.01561080957996 -1.6588713493407852,-24.003258869819323"/><polygon points="11.922107418265197,-15.859356994868165 11.29141975289238,-14.807606135889333 8.145621740041676,-16.69399965534467 8.776309405414493,-17.745750514323504"/><polygon points="8.776309405414493,-17.745750514323504 6.437563233298263,-13.845597664493058 4.469317841229161,-15.025865862619481 6.8080640133453905,-18.926018712449928"/><polygon points="7.501664148713325,-13.20750422598063 9.583361246148968,-11.959204145037718 7.619566973239287,-8.684330658857293 5.455410501474234,-9.79511938109851"/><polygon points="6.176161074336251,-10.997061444875845 5.455410501474234,-9.79511938109851 2.302948073554843,-11.413172307450033 3.1438147668520866,-12.815423081514696"/><polygon points="13.333762029933432,-10.959606387530094 11.651127504232536,-11.968606600489608 10.13439532169958,-12.878122643220767 11.065993478957028,-14.431679523930375 11.922107418265197,-15.859356994868165 13.43883960079815,-14.949840952137004 15.121474126499045,-13.940840739177489 14.265360187190877,-12.513163268239701"/><polygon points="13.333762029933432,-10.959606387530094 8.4554930631382,-8.255277914565836 7.619566973239287,-8.684330658857293 10.13439532169958,-12.878122643220767"/></g><g fill="#A3857E" stroke="#301617" stroke-width="0.3"><polygon points="-12.924801228005705,11.917694581183413 -8.76187943198731,11.266685787256726 -8.215545496005184,14.760256797697844 -12.37846729202358,15.411265591624533"/><polygon points="-12.37846729202358,15.411265591624533 -8.215545496005184,14.760256797697844 -7.6895197124899415,18.123965890250986 -11.852441508508338,18.774974684177675"/><polygon points="-12.404918194863729,11.836393888311303 -12.916418132016245,8.565571348126007 -9.119944428271008,8.977013833011949 -8.76187943198731,11.266685787256726"/><polygon points="-16.785749315789612,12.521479922634166 -17.481758012729472,8.070803062751999 -12.916418132016245,8.565571348126007 -12.404918194863729,11.836393888311303"/><polygon points="-26.464305241507553,12.525305318276205 -17.86546743897172,8.029218589336175 -17.481758012729472,8.070803062751999 -17.01620934990195,11.047786927904149"/><polygon points="-19.589951203442844,15.224657037798089 -18.863289035598736,19.871349686316883 -21.008647311172957,20.206846525305792 -22.475894957613185,15.675968605682847"/><polygon points="-25.26287739024704,12.33742283218504 -24.83368488352931,15.081924684650335 -26.242257628044587,15.302201040656339 -26.464305241507553,12.525305318276205"/><polygon points="-11.280397800856322,23.340522517738417 -6.978935274814831,22.667848355596476 -6.591429654199503,25.145780465252194 -10.892892180240995,25.81845462739414"/><polygon points="-11.111934455196108,20.772147454822996 -11.43447914449399,18.709612616899836 -7.6895197124899415,18.123965890250986 -7.36697502319206,20.186500728174146"/><polygon points="-7.36697502319206,20.186500728174146 -6.978935274814831,22.667848355596476 -10.72389470681888,23.253495082245326 -11.111934455196108,20.772147454822996"/><polygon points="-15.398320936767822,24.083859549055585 -19.854022394300557,21.288896112900424 -18.262394099770326,19.777380136414585 -14.62439562065246,22.059416495186454"/></g><g fill="#A3857E" stroke="#301617" stroke-width="0.3"><polygon points="-28.11338902273514,-3.2587180714947044 -23.54814288240759,-10.173582147226277 -22.08516045999709,-4.945657558994323"/><polygon points="-22.08516045999709,-4.945657558994323 -21.290718896418728,-2.1067440351383304 -26.07308526683518,-0.7684466248819743 -26.86752683041354,-3.6073601487379667"/><polygon points="-20.151562255585798,1.9639986622658423 -22.124237818436622,2.516032193902057 -23.263394459269556,-1.5547105035021151 -21.290718896418728,-2.1067440351383304"/><polygon points="-29.33557078778751,-0.07163225272798146 -26.129182375333944,-0.9689079895279058 -24.933928626002245,3.302296072522198 -29.148437902289984,4.4816843529449955"/><polygon points="-26.86752683041354,-3.6073601487379667 -26.129182375333944,-0.9689079895279058 -28.204102581267772,-0.38826231686104506 -28.741244097797484,-2.30772170243522"/><polygon points="-19.476878101349918,4.374962611790686 -24.807206607877596,5.866601746807529 -25.481890762113476,3.4556377972826837 -20.151562255585798,1.9639986622658423"/><polygon points="-21.034004863627096,4.810708966626095 -19.476878101349918,4.374962611790686 -18.77679868118166,6.876675796001354 -20.24154283389767,7.642548684588326"/><polygon points="-24.807206607877596,5.866601746807529 -21.034004863627096,4.810708966626095 -20.24154283389767,7.642548684588326 -23.790884689551287,9.498398181943594"/><polygon points="-24.25918717462698,7.824933047329425 -28.852026281921816,9.110193148069378 -29.148437902289984,4.4816843529449955 -25.481890762113476,3.4556377972826837"/><polygon points="-23.790884689551287,9.498398181943594 -28.6639900080784,12.046405791169054 -28.78820312302398,10.106800676223514 -24.25918717462698,7.824933047329425"/></g><g fill="#898795" stroke="#17182E" stroke-width="0.3"><polygon points="3.3454749981355985,25.823313653563734 6.021611255545637,24.01333474174246 6.94876370855745,25.384171871084977 4.272627451147413,27.194150782906252"/><polygon points="7.8759161615692665,26.7550090004275 6.021611255545637,24.01333474174246 7.598188061217229,22.947032245660363 9.742668587265483,26.11774437472751"/><polygon points="10.00281164704284,21.320688307020788 11.545650250452457,23.601845451421838 9.141026664626846,25.228189390061413 7.598188061217229,22.947032245660363"/><polygon points="9.141026664626846,25.228189390061413 11.545650250452457,23.601845451421838 12.147292173091095,24.491400436087943 9.742668587265483,26.11774437472751"/><polygon points="11.694264141337229,23.821577857779726 10.00281164704284,21.320688307020788 13.437901162427789,18.997398689068987 15.129353656722177,21.49828823982792"/><polygon points="12.565259250488857,25.109383796514134 11.694264141337229,23.821577857779726 15.129353656722177,21.49828823982792 15.912998284655849,22.65694251366566"/><polygon points="14.836604921780511,21.065445901847315 13.437901162427789,18.997398689068987 16.857725938104203,16.684433230393598 18.256429697456927,18.752480443171926"/></g><g fill-rule="nonzero" fill="#99948A" stroke="#1A1917" stroke-width="0.6"><path d="M -18.326813608792513,-34.47187080592963 L -15.02980419637326,-35.409870092361544 L -14.279020213523232,-32.770910879965776 L -11.466120669013419,-33.57118089303159 L -10.396537179507119,-29.811661154285524 L -13.209436724016932,-29.01139114121971 L -12.320963315162805,-25.888462121924658 L -15.617972727582059,-24.950462835492743 L -18.997582571762717,-23.98896372350397 L -19.886055980616845,-27.11189274279903 L -16.506446136436185,-28.073391854787797 L -17.576029625942486,-31.83291159353386 Z"/></g><g fill="#8C9E7C" stroke="#193014" stroke-width="0.3"><polygon points="11.437925088359643,-22.022549742677047 12.825679160894333,-23.093048726887467 15.258231300990847,-24.96949401827544 16.759004611588306,-26.12717486124377 17.997745699908887,-24.521318138828576 19.155938342966714,-23.019881350106427 20.117789042670907,-21.772974771610826 18.91641770494311,-20.846249480617328 17.868827654290254,-22.027017620095588 15.782593951856818,-20.417718751167417 16.969155984599116,-19.344152145883708 15.858256720342823,-18.487216066586605 14.592412138653728,-19.49962494241891 13.068171544746793,-20.718696168458493"/><polygon points="20.501561341826246,-16.890294129426106 19.543010236460113,-16.15087782727537 15.858256720342823,-18.487216066586605 17.997044346338857,-20.137054482761272"/><polygon points="22.622306038158293,-18.52621441827566 23.229030919031352,-17.739679412863445 23.912344247494197,-16.85385806377457 23.206944741948114,-16.457982231706975 22.336860814293455,-15.969684187661315 21.67252901421577,-16.69474922706855 22.532130113284477,-17.271827310545603 21.93295136448358,-17.994453429398405"/><polygon points="27.45529805442443,-21.19107515662463 28.71979054796428,-19.5518352942031 23.912344247494197,-16.85385806377457 23.136516193110648,-17.859611976611355"/><polygon points="25.169557346860422,-24.15422227069677 26.78312266767026,-25.398909691234618 28.685599089449653,-26.86646011483333 29.7988140059208,-25.423330736173842 31.040989488521447,-23.813021795943264 32.63366775003418,-21.748334415336366 30.515928644583575,-20.55984232839717 28.71979054796428,-19.5518352942031 27.28760186818035,-21.40847009939555 26.17059681607644,-22.85651286539814"/><polygon points="28.685599089449653,-26.86646011483333 30.283401298105474,-28.09898803544044 31.634746731234664,-29.141401775823127 32.82431295254594,-30.05902072342158 34.94225344606588,-28.439093766847144 33.53242821130415,-27.48345963858315 35.190099673500015,-26.03520639074406 37.17785578002561,-24.298569003396963 35.09563797085127,-23.13001175141147 33.36997232940348,-24.911884138337324 31.217892321482765,-23.583691707352784 30.03721904014649,-25.11427153851052"/></g><g fill="#8C9E7C" stroke="#193014" stroke-width="0.3"><polygon points="36.4133680360706,-20.017006868279474 36.488324915529184,-19.179799741752014 36.58670705510358,-18.080951591060074 35.47868953366104,-17.981748498824995 34.34917899938543,-17.8806210928555 33.281267395844296,-17.785008766105395 33.02582747764765,-18.795714838009463 32.83120903125071,-19.565766938192578 33.98852229705504,-19.711552191289247 35.212591331278766,-19.865746582069068"/><polygon points="25.629011140658996,-7.774759116189618 24.272163320088275,-7.431837364825314 22.158341133349055,-6.897602356772282 22.133164620558365,-7.859326867084204 22.08796835566118,-9.585791373409494 23.853132765538366,-10.031908662101763 24.986179574071244,-10.318268259743597 25.39903219581418,-8.684723062332944"/><polygon points="24.56800316821422,-10.2125808102731 24.28360496773265,-11.33786690531495 23.85692868824519,-13.026108545305725 23.52420575529225,-14.342602423675935 24.842523419071906,-15.082452817636955 26.821235146421483,-16.192921630455324 27.23097411704758,-14.57169630110522 27.75641400180746,-12.492674017913917 28.106642418222968,-11.106915717004979 25.982928567903404,-10.5701807479781"/><polygon points="24.56800316821422,-10.2125808102731 23.14055077340555,-9.851814873374543 22.08796835566118,-9.585791373409494 22.050292345567787,-11.024987605977966 22.02542857739186,-11.97476549906025 22.862090331998047,-12.186218478413826 23.99672340692318,-12.472978979709787 24.223845535293556,-11.574318677011942"/><polygon points="22.158341133349055,-6.897602356772282 23.58366501051138,-7.2578303446186085 25.434406324261396,-7.725575837526191 27.468512454818537,-8.23966387759698 27.97957979832325,-6.217509819301167 28.299571551324533,-4.951389746914321 28.73810463738938,-3.216233957851773 26.62072331841633,-2.738135390318837 26.21095452837504,-4.460859963535434 24.310616215193985,-4.014549064567986 24.030710259876518,-5.263345048683853 22.581897115567607,-4.913268539939372"/></g><g fill="#9D9E7C" stroke="#2A3014" stroke-width="0.3"><polygon points="-3.554675472585976,41.0841591524096 -0.5095504072450288,41.02103713285683 2.1902752246864816,40.965072782404526 2.255320857909871,44.1029965928735 2.3150631989154835,46.98507960205638 -0.3759862421244806,47.46442392436978 -3.411212668625206,48.005074918101236 -3.479895599082248,44.69168104100936"/><polygon points="-3.554675472585976,41.0841591524096 -3.59003315496107,39.37843798544413 -3.624461564810607,37.717546674686616 -0.8833731880412659,37.660726993917635 2.120489132461851,37.598460304681545 2.154917542311388,39.25935161543906 2.1902752246864816,40.965072782404526 -0.8135870958166351,41.027339471640616"/><polygon points="5.273192055367619,34.809571833874266 3.2552257527044866,34.85140200691488 -0.3992230741827063,34.927154623098325 -0.43723342750138716,33.09346361553438 -0.46610740398064543,31.700528628092258 3.1806988365207016,31.256083255681087 5.194444945517867,31.010662994682587 5.2284400861506635,32.65065258269286"/><polygon points="-0.4020431017054711,34.791111186032026 -0.38317765717224206,35.70121574897165 -0.34279147232322055,37.64952134262344 -2.096339190439946,37.68587041564165 -2.1367253752889686,35.737564821989864 -3.66484774965963,35.76924108103483 -3.6837131941928596,34.859136518095205 -2.155590819822198,34.82746025905024"/><polygon points="-0.4661074039806452,31.700528628092258 -0.43373933029591843,33.26202544318973 -0.4020431017054711,34.791111186032026 -1.9293341599813711,34.822770212828836 -3.6837131941928596,34.859136518095205 -3.337488738731947,33.4482122029151 -2.9839255804579468,32.00738140921348 -1.6379013622159801,31.843338080476396"/><polygon points="10.679887287509604,35.122582632325795 7.552911834032662,35.18740131841588 5.281999815633814,35.2344747718052 5.258818012350604,34.11614093620138 5.194444945517867,31.010662994682587 7.045547818386808,30.78506447053656 9.594459092106263,30.474422296101885 10.39249969992518,33.891894511831"/></g><g fill="#9D9E7C" stroke="#2A3014" stroke-width="0.3"><polygon points="-13.491085023745141,37.40899937673668 -8.966562937544166,38.98443127727444 -5.574144435342121,40.16566638377188 -5.5369727932546144,41.95889638247193 -9.182221817857421,40.68962606190523 -9.858331013376155,46.035558825558724 -15.777220968020723,43.974610094916294 -14.043947961259901,38.99678020723379"/><polygon points="-6.968833135199596,35.504051619580835 -10.487487426719426,34.278861397892925 -12.194244595998907,33.68457107513043 -11.543527199395006,31.815759588068012 -10.908344385195605,29.991562254854497 -9.617041127153364,30.488715444281315 -6.954887522442269,31.513647540660276 -6.96177609239701,33.484746130851924"/><polygon points="-6.035475954563309,32.82351990211233 -5.716931584915663,33.277345457799214 -5.574144435342121,40.16566638377188 -8.26567356294583,39.22847992118709"/><polygon points="-18.68063564389043,35.14312253106114 -19.762209815494778,34.76652000370473 -18.980329258321195,27.745475558425557 -18.112511396756428,27.21794994910458 -16.18014866708065,27.961911747547123"/></g><g fill-rule="nonzero" stroke="#99948A" stroke-width="0.3" stroke-linecap="butt"><line x1="-21.737338680736052" y1="40.75680489188337" x2="-23.550947659093012" y2="42.42740751447893"/><line x1="-21.49514909296661" y1="38.58201765064546" x2="-25.853031950263357" y2="42.59627354441578"/><line x1="-21.252959505197165" y1="36.407230409407546" x2="-28.155116241433724" y2="42.76513957435263"/><line x1="-21.010769917427723" y1="34.23244316816963" x2="-30.457200532604073" y2="42.93400560428949"/><line x1="-20.768580329658278" y1="32.05765592693172" x2="-32.591683081210604" y2="42.94848559290205"/><line x1="-20.585379431086444" y1="29.937206009809998" x2="-33.95392884123161" y2="42.25162106366572"/><line x1="-21.214049116205388" y1="28.56460920904786" x2="-35.137175823034795" y2="41.38987213437366"/><line x1="-21.9037951045272" y1="27.248272734258315" x2="-36.10974086168474" y2="40.33405391508272"/><line x1="-22.954057792034522" y1="26.264025563357425" x2="-37.08230590033469" y2="39.27823569579177"/><line x1="-24.004320479541843" y1="25.279778392456546" x2="-38.054870938984635" y2="38.22241747650082"/><line x1="-25.054583167049167" y1="24.295531221555663" x2="-39.02743597763458" y2="37.16659925720988"/><line x1="-26.104845854556487" y1="23.31128405065478" x2="-40.000001016284536" y2="36.11078103791893"/><line x1="-27.155108542063807" y1="22.327036879753898" x2="-40.97256605493448" y2="35.05496281862799"/><line x1="-28.205371229571128" y1="21.342789708853015" x2="-41.94513109358442" y2="33.99914459933705"/><line x1="-29.25563391707845" y1="20.358542537952133" x2="-42.917696132234376" y2="32.9433263800461"/><line x1="-30.30589660458577" y1="19.374295367051253" x2="-43.89026117088432" y2="31.887508160755157"/><line x1="-31.35615929209309" y1="18.390048196150367" x2="-44.649298729062515" y2="30.63499948992294"/><line x1="-32.40642197960041" y1="17.405801025249488" x2="-45.33258600116477" y2="29.312713580396487"/><line x1="-45.49580561563199" y1="27.51136829084902" x2="-33.8086635732306" y2="16.745778585635435"/><line x1="-45.60680788051229" y1="25.661923084392278" x2="-35.41549246788803" y2="16.274211367474635"/><line x1="-45.7178101453926" y1="23.81247787793554" x2="-38.34229051504836" y2="17.0185313412235"/><line x1="-45.8288124102729" y1="21.963032671478796" x2="-41.269088562208694" y2="17.76285131497236"/><line x1="-45.9398146751532" y1="20.113587465022057" x2="-44.195886609369026" y2="18.507171288721224"/><path d="M -24.358152166743352,28.072903616172884 L -23.34824270881443,29.019334007974894 L -24.322768228318033,30.059222992589916 L -24.743385748832157,30.50805221005517 L -25.75329520676108,29.56162181825316 L -26.851195219554672,30.733160281498627 L -27.448016322172993,30.173853082668018 L -28.41338186101265,29.269166748677396 L -27.315481848219058,28.097628285431927 L -26.350116309379402,29.00231461942255 L -25.929498788865278,28.553485401957296 L -25.332677686246956,29.112792600787905 Z" fill="#99948A" stroke="#1A1917" stroke-width="0.3"/></g><g fill-rule="nonzero" stroke="#99948A" stroke-width="0.3" stroke-linecap="butt"><line x1="-21.988135485859868" y1="51.65573388687694" x2="-18.882904752639277" y2="52.9502201074072"/><line x1="-25.23924552741903" y1="51.77135033956861" x2="-19.206148461814717" y2="54.2863843867959"/><line x1="-28.239728530624518" y1="51.99144638669759" x2="-19.62324660168264" y2="55.58342330716784"/><line x1="-31.240211533829996" y1="52.21154243382657" x2="-20.145647092971085" y2="56.83656454179135"/><line x1="-34.24069453703548" y1="52.43163848095555" x2="-20.66804758425953" y2="58.08970577641485"/><line x1="-35.533755833424706" y1="53.36351219035685" x2="-21.19044807554797" y2="59.34284701103836"/><line x1="-36.4112240820927" y1="54.4686353359008" x2="-21.712848566836414" y2="60.595988245661864"/><line x1="-36.82189564486417" y1="55.768353321440934" x2="-22.235249058124857" y2="61.84912948028537"/><line x1="-37.23256720763563" y1="57.068071306981054" x2="-22.7576495494133" y2="63.102270714908876"/><line x1="-37.643238770407095" y1="58.36778929252118" x2="-23.280050040701745" y2="64.35541194953238"/><line x1="-38.05391033317856" y1="59.6675072780613" x2="-23.80245053199019" y2="65.6085531841559"/><line x1="-38.46458189595002" y1="60.96722526360142" x2="-24.32485102327863" y2="66.8616944187794"/><line x1="-38.87525345872149" y1="62.26694324914155" x2="-24.847251514567073" y2="68.1148356534029"/><line x1="-39.28592502149295" y1="63.56666123468167" x2="-25.369652005855514" y2="69.3679768880264"/><line x1="-39.69659658426441" y1="64.86637922022179" x2="-25.89205249714396" y2="70.62111812264992"/><line x1="-39.367407673241644" y1="66.47452491072937" x2="-26.4144529884324" y2="71.87425935727342"/><line x1="-36.42335682256322" y1="69.17273541132036" x2="-27.23432035069721" y2="73.0033947454316"/><line x1="-30.294144528643997" y1="73.19875307107957" x2="-28.631140109815874" y2="73.89201437428109"/><line x1="-24.962295010159593" y1="74.36828410692955" x2="-16.968351330146366" y2="55.19230586851823"/><line x1="-15.039357699215422" y1="53.96841886027378" x2="-24.611905326002866" y2="76.93117320596465"/><line x1="-13.800408333538147" y1="54.39981919751424" x2="-23.49810445253563" y2="77.66278140796527"/><line x1="-12.561458967860878" y1="54.831219534754695" x2="-22.384303579068405" y2="78.39438960996588"/><line x1="-11.322509602183604" y1="55.262619871995156" x2="-21.270502705601167" y2="79.1259978119665"/><line x1="-10.083560236506331" y1="55.69402020923561" x2="-20.156701832133937" y2="79.85760601396711"/><line x1="-8.844610870829062" y1="56.125420546476064" x2="-19.042900958666706" y2="80.58921421596773"/><line x1="-7.6056615051517875" y1="56.556820883716526" x2="-17.929100085199472" y2="81.32082241796834"/><line x1="-6.6209109346503485" y1="57.5979966659241" x2="-16.815299211732246" y2="82.05243061996896"/><line x1="-6.1595478881014865" y1="59.89468138981513" x2="-15.701498338265015" y2="82.78403882196957"/><line x1="-6.481584152078638" y1="64.07059478130274" x2="-14.58769746479778" y2="83.51564702397019"/><line x1="-6.803620416055791" y1="68.24650817279036" x2="-13.339094989001389" y2="83.9238913524887"/><line x1="-7.315627216624242" y1="72.87812540976815" x2="-10.715957253134233" y2="81.03488224889364"/><path d="M -23.680406837246654,55.34189259177623 L -24.152063923934573,56.47330987370347 L -25.26307147948565,56.01016104673232 L -25.768974662993937,57.22372832041142 L -24.65796710744286,57.68687714738257 L -25.061302191367282,58.654402701942104 L -26.17230974691836,58.191253874970954 L -27.972051982025352,57.44099029586614 L -27.56871689810093,56.47346474130661 L -27.062813714592643,55.25989746762751 L -26.591156627904724,54.12848018570027 L -24.79141439279773,54.87874376480508 Z" fill="#99948A" stroke="#1A1917" stroke-width="0.3"/></g><g fill-rule="nonzero" stroke="#99948A" stroke-width="0.3" stroke-linecap="butt"><line x1="-3.1444677441429887" y1="58.51406715639172" x2="-4.183373614838974" y2="71.98578268418791"/><line x1="-1.4063128899499895" y1="56.9880853324339" x2="-2.68417720322387" y2="73.55842630087567"/><line x1="0.2367318103426787" y1="56.69541729877338" x2="-1.1335451970473924" y2="74.46409351721861"/><line x1="1.8797765106353461" y1="56.40274926511285" x2="0.4454751446206098" y2="75.00164309091772"/><line x1="3.5228212109280146" y1="56.110081231452334" x2="2.024495486288613" y2="75.53919266461685"/><line x1="5.165865911220682" y1="55.81741319779181" x2="3.603515827956614" y2="76.07674223831596"/><line x1="6.808910611513351" y1="55.52474516413129" x2="5.182536169624617" y2="76.61429181201507"/><line x1="8.451955311806019" y1="55.23207713047076" x2="6.76155651129262" y2="77.15184138571418"/><line x1="10.058626658565226" y1="55.411070183166885" x2="8.340576852960623" y2="77.68939095941329"/><line x1="11.64030072438492" y1="55.91420834591027" x2="9.919597194628626" y2="78.22694053311241"/><line x1="13.18603892928023" y1="56.883334534397946" x2="11.49861753629663" y2="78.76449010681152"/><line x1="14.731777134175541" y1="57.852460722885624" x2="13.077637877964635" y2="79.30203968051063"/><line x1="16.277515339070845" y1="58.821586911373295" x2="14.656658219632634" y2="79.83958925420974"/><line x1="17.82325354396616" y1="59.79071309986097" x2="16.23567856130064" y2="80.37713882790885"/><line x1="19.36899174886147" y1="60.75983928834865" x2="17.84666410868474" y2="80.50018871463799"/><line x1="20.224699498271075" y1="70.67673857546316" x2="19.52754187277998" y2="79.7169312180921"/></g><g fill-rule="nonzero" stroke="#99948A" stroke-width="0.3" stroke-linecap="butt"><line x1="-41.97716402620475" y1="65.44588178720859" x2="-42.870612057001196" y2="66.54451235805413"/><line x1="-45.16234040102674" y1="67.58501638010311" x2="-42.74987243287484" y2="64.61851920327835"/><line x1="-47.38651487549817" y1="68.5424526201291" x2="-43.59092149637694" y2="63.875191876284525"/><line x1="-49.610689349969604" y1="69.4998888601551" x2="-44.449514353377296" y2="63.15343731816075"/><line x1="-51.83486382444103" y1="70.45732510018108" x2="-45.31961751787573" y2="62.445836437991744"/><line x1="-54.059038298912476" y1="71.41476134020708" x2="-46.18972068237416" y2="61.73823555782273"/><line x1="-55.81912431988922" y1="71.80153007075165" x2="-47.05982384687259" y2="61.03063467765374"/><line x1="-57.061514250182704" y1="71.5517125287574" x2="-47.929927011371014" y2="60.323033797484726"/><line x1="-58.260953366756326" y1="71.24908041292245" x2="-48.800030175869445" y2="59.61543291731572"/><line x1="-59.131056531254764" y1="70.54147953275346" x2="-49.67013334036787" y2="58.90783203714672"/><line x1="-60.00115969575319" y1="69.83387865258445" x2="-50.5402365048663" y2="58.200231156977715"/><line x1="-60.87126286025162" y1="69.12627777241545" x2="-51.41033966936473" y2="57.49263027680871"/><line x1="-61.74136602475005" y1="68.41867689224644" x2="-52.280442833863155" y2="56.7850293966397"/><line x1="-62.611469189248474" y1="67.71107601207743" x2="-53.15054599836158" y2="56.0774285164707"/><line x1="-63.48157235374691" y1="67.00347513190843" x2="-54.02064916286002" y2="55.36982763630169"/><line x1="-64.35167551824534" y1="66.29587425173942" x2="-54.89075232735844" y2="54.66222675613268"/><line x1="-65.22177868274377" y1="65.58827337157041" x2="-55.76085549185687" y2="53.95462587596368"/><line x1="-66.0918818472422" y1="64.88067249140141" x2="-56.630958656355304" y2="53.24702499579467"/><line x1="-66.96198501174062" y1="64.1730716112324" x2="-57.501061820853735" y2="52.539424115625664"/><line x1="-67.83208817623907" y1="63.4654707310634" x2="-58.37116498535216" y2="51.83182323545666"/><line x1="-68.7021913407375" y1="62.757869850894394" x2="-59.24126814985059" y2="51.12422235528766"/><line x1="-69.57229450523592" y1="62.050268970725384" x2="-60.132397735101016" y2="50.44247666516592"/><line x1="-70.19789911909425" y1="61.04201984577688" x2="-61.41046873156901" y2="50.23653443404424"/><line x1="-70.51447538559397" y1="59.653773252633876" x2="-62.688539728037" y2="50.030592202922556"/><line x1="-42.573339368956624" y1="61.71466124343001" x2="-59.101567981435295" y2="48.273279128050326"/><line x1="-59.72791206632061" y1="45.91456612746843" x2="-40.69621655739438" y2="61.391862432887194"/><line x1="-58.822652406186094" y1="44.80141135752568" x2="-40.231334519494816" y2="59.9205758852261"/><line x1="-57.917392746051576" y1="43.688256587582934" x2="-39.766452481595245" y2="58.44928933756499"/><line x1="-57.01213308591705" y1="42.57510181764018" x2="-39.30157044369568" y2="56.97800278990388"/><line x1="-56.10687342578253" y1="41.46194704769743" x2="-38.83668840579611" y2="55.50671624224279"/><line x1="-55.20161376564801" y1="40.348792277754676" x2="-38.37180636789654" y2="54.03542969458168"/><line x1="-54.296354105513494" y1="39.23563750781192" x2="-38.61282755105298" y2="51.99007588580298"/><line x1="-53.391094445378975" y1="38.12248273786917" x2="-42.461471205624086" y2="47.01086671337664"/><line x1="-51.31255677419619" y1="37.963482127082095" x2="-49.251457987348495" y2="39.639645799615586"/><line x1="-82.9109519453055" y1="50.81608626673558" x2="-73.83349508638346" y2="58.19821832319361"/><line x1="-83.50162911669385" y1="48.457924930862426" x2="-72.43429850309897" y2="57.45829776345114"/><line x1="-83.63239007463514" y1="46.47378489581598" x2="-71.06926125576533" y2="56.69059753668639"/><line x1="-83.76315103257642" y1="44.489644860769545" x2="-70.15007328019222" y2="55.56031577937138"/><line x1="-82.62679724202275" y1="43.535970577249245" x2="-69.2308853046191" y2="54.43003402205636"/><line x1="-81.2552484999027" y1="42.77356574490445" x2="-68.31169732904598" y2="53.29975226474136"/><line x1="-79.66102085853589" y1="42.1922518354882" x2="-67.39250935347287" y2="52.16947050742635"/><line x1="-77.97206041192939" y1="41.68797823474288" x2="-66.47332137789977" y2="51.039188750111336"/><line x1="-76.28309996532288" y1="41.18370463399755" x2="-65.55413340232664" y2="49.90890699279633"/><line x1="-74.59413951871635" y1="40.67943103325222" x2="-64.63494542675353" y2="48.778625235481314"/><line x1="-72.90517907210983" y1="40.17515743250689" x2="-63.71575745118042" y2="47.648343478166304"/><line x1="-71.21621862550332" y1="39.670883831761564" x2="-62.796569475607306" y2="46.51806172085129"/><line x1="-69.5272581788968" y1="39.166610231016236" x2="-61.8773815000342" y2="45.38777996353629"/><line x1="-67.83829773229027" y1="38.662336630270914" x2="-60.95819352446108" y2="44.25749820622127"/><line x1="-66.14933728568376" y1="38.15806302952558" x2="-60.039005548887964" y2="43.12721644890626"/><line x1="-64.46037683907724" y1="37.65378942878026" x2="-59.119817573314855" y2="41.99693469159125"/><line x1="-62.77141639247072" y1="37.14951582803493" x2="-58.20062959774174" y2="40.866652934276246"/><line x1="-61.082455945864204" y1="36.6452422272896" x2="-57.28144162216863" y2="39.736371176961235"/><line x1="-59.39349549925769" y1="36.14096862654427" x2="-56.36225364659552" y2="38.606089419646224"/><line x1="-57.70453505265117" y1="35.63669502579894" x2="-55.443065671022396" y2="37.475807662331206"/><line x1="-55.996252740295404" y1="35.14813469879921" x2="-54.54974560143748" y2="36.324489143178965"/></g><g><path fill="none" stroke="#1A1917" stroke-width="1.9" stroke-linejoin="round" stroke-linecap="round" d="M -23.87689970611485,-13.214880619491892 M -11.437898856129069,-17.341857322909036 M -3.753224664426625,-27.748242929565713 L 9.004231016259288,-20.524108473483185 L 17.940754273200994,-14.857856736328332 M 20.098265641595912,-11.076886552501538 L 20.361610783218623,-1.0172933325949352 L 24.10756056215722,10.724451480219058 L 17.8943581772276,24.19228351938858 L 10.958424110828666,28.343764272753827 L -2.3707135964365813,29.968219530736192 M -7.022957870958579,29.397912009061717 L -18.954636454762973,24.804202494112165 L -30.493474218529656,13.99065217040569 L -31.496612519600507,-1.673492317133438 L -23.87689970611485,-13.214880619491892"/><g stroke="#1A1917" stroke-width="3.8" stroke-linecap="butt"><line x1="19.545386493732163" y1="-13.84043084869169" x2="20.048543511113635" y2="-12.976235838372967" stroke="#CCC5B8" stroke-width="3.8" stroke-linecap="butt"/><line x1="17.633389827682567" y1="-17.124371887902846" x2="19.545386493732163" y2="-13.84043084869169"/><line x1="20.048543511113635" y1="-12.976235838372967" x2="21.96054017716323" y2="-9.692294799161813"/></g><g stroke="#1A1917" stroke-width="3.8" stroke-linecap="butt"><line x1="-4.256758600014194" y1="30.198076539504513" x2="-5.2498304752960605" y2="30.080568026944118" stroke="#CCC5B8" stroke-width="3.8" stroke-linecap="butt"/><line x1="-0.48308547394310075" y1="30.644608887234014" x2="-4.256758600014194" y2="30.198076539504513"/><line x1="-5.2498304752960605" y1="30.080568026944118" x2="-9.023503601367153" y2="29.634035679214616"/></g><polygon points="7.036728621875139,-20.37793720393073 8.694970753149532,-23.143264134705202 11.460297683924004,-21.48502200343081 9.80205555264961,-18.71969507265634" stroke="none" fill="#1A1917"/><polygon points="19.908248977323076,-2.575724662107064 23.087530823276964,-3.113281118665868 23.625087279835768,0.06600072728801676 20.445805433881883,0.6035571838468208" stroke="none" fill="#1A1917"/><polygon points="23.071947609631316,9.045184519753715 26.29021701539358,9.244036303589294 26.091365231558,12.462305709351558 22.873095825795737,12.26345392551598" stroke="none" fill="#1A1917"/><polygon points="18.125685527668967,22.232967473190897 20.524462576122453,24.387652756895406 18.369777292417947,26.786429805348895 15.97100024396446,24.631744521644386" stroke="none" fill="#1A1917"/><polygon points="12.114634744889113,26.745137148739136 13.160434036776492,29.79523613747505 10.110335048040575,30.84103542936243 9.064535756153196,27.790936440626517" stroke="none" fill="#1A1917"/><polygon points="-16.984596851488313,24.69754569180049 -18.698001276409276,27.429037093335786 -21.429492677944573,25.715632668414823 -19.71608825302361,22.984141266879526" stroke="none" fill="#1A1917"/><polygon points="-28.777016237321437,14.963382200114108 -31.693074956569834,16.339391482748276 -33.069084239204,13.423332763499879 -30.1530255199556,12.04732348086571" stroke="none" fill="#1A1917"/><polygon points="-30.811693793821235,0.17672876452865283 -33.927908733315554,-0.6515250920107665 -33.099654876776135,-3.7677400315050846 -29.983439937281815,-2.9394861749656656" stroke="none" fill="#1A1917"/></g><g><path fill="none" stroke="#1A1917" stroke-width="1.9" stroke-linejoin="round" stroke-linecap="round" d="M -23.87689970611485,-13.214880619491892 L -25.9903483024365,-36.45032602567993 L -10.06022057934388,-40.98244788761474 L -3.753224664426625,-27.748242929565713 L -9.999642142666445,-19.289507098070032 M -13.742345276052127,-16.577294573537863 L -23.87689970611485,-13.214880619491892"/><g stroke="#1A1917" stroke-width="3.8" stroke-linecap="butt"><line x1="-11.128319967217392" y1="-17.761080989824382" x2="-11.939006901343005" y2="-17.17560110559435" stroke="#CCC5B8" stroke-width="3.8" stroke-linecap="butt"/><line x1="-8.047709617540061" y1="-19.985904549898507" x2="-11.128319967217392" y2="-17.761080989824382"/><line x1="-11.939006901343005" y1="-17.17560110559435" x2="-15.019617251020335" y2="-14.950777545520223"/></g><polygon points="-21.3646739610869,-13.178821314155835 -23.689278776540057,-9.629706994783747 -27.238393095912144,-11.954311810236904 -24.913788280458988,-15.503426129608991" stroke="none" fill="#1A1917"/><polygon points="-26.080624755299944,-33.93946389693989 -29.578736402457224,-36.34013357518023 -27.178066724216883,-39.83824522233751 -23.679955077059603,-37.43757554409717" stroke="none" fill="#1A1917"/><polygon points="-12.547746266004724,-40.629185342635715 -10.80055720160303,-44.49536308987331 -6.934379454365439,-42.74817402547162 -8.681568518767133,-38.88199627823403" stroke="none" fill="#1A1917"/><polygon points="-4.890744233054962,-29.98847231480066 -0.6675059083673003,-29.583184697312344 -1.0727935258556156,-25.359946372624684 -5.296031850543277,-25.765233990113" stroke="none" fill="#1A1917"/></g><g id="labels" style="font: bold italic 2px &quot;Archivo Narrow&quot;, sans-serif" fill="#1A1917"><text text-anchor="middle" stroke="#CCC5B8" stroke-width="0.765731451664363" x="-1.964116052063149" y="-3.416013193071287">Market</text><text text-anchor="middle" x="-1.964116052063149" y="-3.416013193071287">Market</text><text text-anchor="middle" stroke="#CCC5B8" stroke-width="0.765731451664363" x="4.6506326823228035" y="14.612685138708853">Merchant</text><text text-anchor="middle" x="4.6506326823228035" y="14.612685138708853">Merchant</text><text text-anchor="middle" stroke="#CCC5B8" stroke-width="0.765731451664363" x="15.568252078709886" y="-1.2051506631508246">Gate</text><text text-anchor="middle" x="15.568252078709886" y="-1.2051506631508246">Gate</text><text text-anchor="middle" stroke="#CCC5B8" stroke-width="0.765731451664363" x="3.356842758493993" y="-16.796289731420934">Craftsmen</text><text text-anchor="middle" x="3.356842758493993" y="-16.796289731420934">Craftsmen</text><text text-anchor="middle" stroke="#CCC5B8" stroke-width="0.765731451664363" x="-20.502250786412432" y="9.638462667171844">Craftsmen</text><text text-anchor="middle" x="-20.502250786412432" y="9.638462667171844">Craftsmen</text><text text-anchor="middle" stroke="#CCC5B8" stroke-width="0.765731451664363" x="11.69418450461532" y="22.682061815646676">Gate</text><text text-anchor="middle" x="11.69418450461532" y="22.682061815646676">Gate</text><text text-anchor="middle" stroke="#CCC5B8" stroke-width="0.765731451664363" x="-15.986241575452972" y="-27.71177584457693">Castle</text><text text-anchor="middle" x="-15.986241575452972" y="-27.71177584457693">Castle</text><text text-anchor="middle" stroke="#CCC5B8" stroke-width="0.765731451664363" x="27.911387438165708" y="-17.61458730585184">Gate</text><text text-anchor="middle" x="27.911387438165708" y="-17.61458730585184">Gate</text><text text-anchor="middle" stroke="#CCC5B8" stroke-width="0.765731451664363" x="-4.620219544570478" y="39.688112752808586">Gate</text><text text-anchor="middle" x="-4.620219544570478" y="39.688112752808586">Gate</text></g></g></svg>