<svg width="99.60594941601606" height="101.84420774185075" xmlns="http://www.w3.org/2000/svg"><rect x="0" y="0" width="99.60594941601606" height="101.84420774185075" id="background" fill="#CCC5B8"/><g id="map" transform="translate(49.80297470800803 50.922103870925376)"><g fill="none"><path d="M -29.476954789408,8.05755009317266 C -39.8270007420227,7.859316342670404 -39.8270007420227,7.859316342670404 -44.86303580723792,8.837433747789545 C -50.42543661465586,9.917783859242101 -55.50013946462177,12.683604474647721 -60.86813322501312,14.154461174500454 C -65.24423015542452,15.353533262995455 -70.22345408155437,15.545602847355955 -75.15708612970666,17.138152577095806 C -81.6024600053462,19.218684388860378 -88.11964068099485,22.245214517889295 -95.02178656404445,25.17907567023958 C -100.56897017634243,27.536989684349713 -106.03444475435724,30.309402333010777 -111.73114720567605,32.68450856444031 C -117.38837785184853,35.04315795418468 -123.95387248439927,42.47397309846725 -132.58166522467644,40.83878453180245 C -146.0264731346644,38.29064773282895 -146.0264731346644,38.29064773282895 -169.0133880584759,21.82805105148105" stroke="#67635C" stroke-width="2.3" stroke-linejoin="round" stroke-linecap="butt"/><path d="M -29.476954789408,8.05755009317266 C -39.8270007420227,7.859316342670404 -39.8270007420227,7.859316342670404 -44.86303580723792,8.837433747789545 C -50.42543661465586,9.917783859242101 -55.50013946462177,12.683604474647721 -60.86813322501312,14.154461174500454 C -65.24423015542452,15.353533262995455 -70.22345408155437,15.545602847355955 -75.15708612970666,17.138152577095806 C -81.6024600053462,19.218684388860378 -88.11964068099485,22.245214517889295 -95.02178656404445,25.17907567023958 C -100.56897017634243,27.536989684349713 -106.03444475435724,30.309402333010777 -111.73114720567605,32.68450856444031 C -117.38837785184853,35.04315795418468 -123.95387248439927,42.47397309846725 -132.58166522467644,40.83878453180245 C -146.0264731346644,38.29064773282895 -146.0264731346644,38.29064773282895 -169.0133880584759,21.82805105148105" stroke="#CCC5B8" stroke-width="1.7" stroke-linejoin="round" stroke-linecap="round"/></g><g fill="none"><path d="M 25.92549436782134,-5.782580748402323 L 37.61514733997727,-9.756243920733123 C 40.12655013743594,-10.609944952827112 43.562821181848236,-13.293740451939211 46.88446538157408,-17.588929673889005 C 49.58102159221053,-21.075823054361067 50.02139444130326,-26.203305028087964 53.07617495014845,-29.74876423851927 C 55.96715658930022,-33.10411414010457 59.555508521287,-37.41633740021635 64.39941485823302,-37.91724418370453 C 70.09130850984987,-38.50584106041165 75.79232622744766,-34.09403206047753 82.42287629625953,-32.783497107969616 C 87.00736665927906,-31.877367933493844 92.49376547340299,-30.351388032410675 98.585712870773,-31.16028767522082 C 105.98465117050719,-32.142731901579886 117.42606421737898,-31.5924022256006 127.85020031969574,-38.815418229324365 C 141.6799823131524,-48.39824942859728 141.6799823131524,-48.39824942859728 162.5868694152673,-75.50750009073889" stroke="#67635C" stroke-width="2.3" stroke-linejoin="round" stroke-linecap="butt"/><path d="M 25.92549436782134,-5.782580748402323 L 37.61514733997727,-9.756243920733123 C 40.12655013743594,-10.609944952827112 43.562821181848236,-13.293740451939211 46.88446538157408,-17.588929673889005 C 49.58102159221053,-21.075823054361067 50.02139444130326,-26.203305028087964 53.07617495014845,-29.74876423851927 C 55.96715658930022,-33.10411414010457 59.555508521287,-37.41633740021635 64.39941485823302,-37.91724418370453 C 70.09130850984987,-38.50584106041165 75.79232622744766,-34.09403206047753 82.42287629625953,-32.783497107969616 C 87.00736665927906,-31.877367933493844 92.49376547340299,-30.351388032410675 98.585712870773,-31.16028767522082 C 105.98465117050719,-32.142731901579886 117.42606421737898,-31.5924022256006 127.85020031969574,-38.815418229324365 C 141.6799823131524,-48.39824942859728 141.6799823131524,-48.39824942859728 162.5868694152673,-75.50750009073889" stroke="#CCC5B8" stroke-width="1.7" stroke-linejoin="round" stroke-linecap="round"/></g><g fill="#899A95" stroke="#172C2E" stroke-width="0.3"><polygon points="2.1141386738749746,-10.017009139566586 3.5777024685648593,-6.758727916309979 0.1319418830522192,-5.210951621823888 -0.7132888891205489,-8.50484930274592"/><polygon points="2.6492075136097544,-3.372348479025668 0.7301024139856499,-2.879896423021937 0.1319418830522192,-5.210951621823888 1.9660129293324782,-6.034784740053592"/><polygon points="3.5777024685648593,-6.758727916309979 4.845639397202153,-3.9359639877120274 2.6492075136097544,-3.372348479025668 1.9660129293324782,-6.034784740053592"/><polygon points="0.7301024139856499,-2.879896423021937 -2.6517737443920106,-2.0120899294279773 -3.278880779000731,-7.132723960146727 -0.7132888891205489,-8.50484930274592"/><polygon points="3.8939617271745197,1.184474825743691 -2.1314630792125264,2.2364997875194046 -2.5748782503128287,-1.3842008099310605 1.6979168382853564,-2.480621598284425"/><polygon points="-2.056112144248182,2.851776830401954 0.6173374843810056,2.3849988298887643 1.1387117200671897,5.371145896030692 -1.685710877259139,5.876283378871563"/><polygon points="2.4099012941088143,2.072021416012414 2.7257423791857853,3.880986771441603 0.9331785694579768,4.193964185317953 0.6173374843810056,2.3849988298887643"/><polygon points="2.4099012941088143,2.072021416012414 4.240460738816752,1.7524100538714962 4.46360942978434,2.2491982310674508 2.7257423791857853,3.880986771441603"/><polygon points="4.240460738816752,1.7524100538714962 6.223947959288575,-0.8674835265295479 6.68640893134334,0.16207726692689758 4.46360942978434,2.2491982310674508"/><polygon points="6.987585571493323,7.002908967474832 4.6722036594562555,6.702150366070711 4.919267662284619,4.800134860633438 7.234649574321687,5.10089346203756"/><polygon points="3.0851140568599753,4.402903230063959 4.204280302009415,5.594823686339105 3.2251540605468776,6.514184566015083 2.1059878153974383,5.322264109739937"/><polygon points="3.0851140568599753,4.402903230063959 4.158964703218886,3.3945998744083425 4.987255106055337,4.2767353740769565 3.9134044596964257,5.285038729732571"/><polygon points="7.016512146779835,4.868575463444193 4.942077946361566,2.6592874605298853 6.196838638900029,1.481116714792463 8.271272839318295,3.6904047177067714"/><polygon points="8.271272839318295,3.6904047177067714 9.93092786897333,7.385237043997144 9.302967483530391,7.303667568878955 7.016512146779835,4.868575463444193"/><polygon points="-3.794330718499862,-4.729976485174361 -3.592894984338853,-3.085155715477109 -6.379464664861712,-2.7438937860753745 -6.58090039902272,-4.388714555772626"/><polygon points="-3.794330718499862,-4.729976485174361 -5.949897627882764,-4.465991368422314 -6.092217246965329,-5.6281002979893735 -3.936650337582428,-5.8920854147414214"/><polygon points="-6.379464664861712,-2.7438937860753745 -8.325134629499088,-2.5056140506888296 -6.639037584892458,-4.863432962655983"/><polygon points="-3.592894984338853,-3.085155715477109 -3.2717821810859355,-0.4631134526880531 -7.938820168264385,0.10844318170296563 -8.259932971517303,-2.51359908108609"/><polygon points="-3.2717821810859355,-0.4631134526880531 -2.91987256750139,2.410399749380322 -7.586910554679839,2.981956383771341 -7.938820168264385,0.10844318170296563"/><polygon points="-7.322115408410644,5.144137578248307 -7.586910554679839,2.981956383771341 -5.057437618537534,2.6721802383582385 -4.713202848956268,5.483024605260111"/><polygon points="-2.7517663986847274,3.7830684029116153 -4.8893314497208715,4.044848891889532 -5.057437618537534,2.6721802383582385 -2.91987256750139,2.410399749380322"/><polygon points="-4.8893314497208715,4.044848891889532 -2.7517663986847274,3.7830684029116153 -2.508506278134689,5.769405635410504 -4.713202848956268,5.483024605260111"/><polygon points="-10.229444688478742,0.15735145635234216 -8.325134629499088,-2.5056140506888296 -8.259932971517303,-2.51359908108609 -7.966766380522777,-0.11975123746711391"/><polygon points="-7.966766380522777,-0.11975123746711391 -7.322115408410644,5.144137578248307 -10.283724401121049,4.759436733034487 -10.229444688478742,0.15735145635234216"/></g><g fill="#928595" stroke="#20162E" stroke-width="0.3"><polygon points="23.58790772153891,-6.000255812723673 24.63470791695017,-5.382886282770412 11.293769391054415,7.171075333289259 8.434802996103507,0.8062577856100337"/><polygon points="13.466382934830191,-1.4538412432417722 12.000212918425383,-4.717924607346762 10.253493246774923,-8.606585920971 12.36045894069823,-9.552998613733507 14.10717861234869,-5.6643373001092705 17.06097531177975,-6.991131892087715 18.52714532818456,-3.727048527982725 15.5733486287535,-2.40025393600428"/><polygon points="12.092640891509937,-4.512155422363001 13.466382934830191,-1.4538412432417722 8.434802996103507,0.8062577856100337 7.061060952783253,-2.252056393511196"/><polygon points="12.092640891509937,-4.512155422363001 7.061060952783253,-2.252056393511196 5.8285347729117944,-4.995986602510592 10.860114711638479,-7.256085631362397"/><polygon points="10.860114711638479,-7.256085631362397 5.8285347729117944,-4.995986602510592 4.78206925113725,-7.325696433236423 9.813649189863934,-9.585795462088226"/><polygon points="9.813649189863934,-9.585795462088226 4.78206925113725,-7.325696433236423 3.3693851248413855,-10.470706018607995 8.754944500025395,-11.942752927413848"/></g><g fill="#899A95" stroke="#172C2E" stroke-width="0.3"><polygon points="4.76893671912884,17.861613256956808 4.784458505192047,16.402010512453874 6.51758273104217,16.420440995375287 6.502060944978962,17.88004373987822"/><polygon points="6.502060944978962,17.88004373987822 6.48547306018699,19.439897874529112 4.748872507708174,19.74836636234262 4.76893671912884,17.861613256956808"/><polygon points="6.48547306018699,19.439897874529112 6.51758273104217,16.420440995375287 8.959511489036396,16.446409085601157 8.932299875596938,19.00527347767879"/><polygon points="8.932299875596938,19.00527347767879 8.959511489036396,16.446409085601157 10.589228838896608,16.46373991355643 10.640251412077633,18.701893850760598"/><polygon points="7.205613782901229,11.916962294613088 7.157650263774951,16.427247635981093 4.784458505192047,16.402010512453874 4.832422024318325,11.891725171085866"/><polygon points="10.589228838896608,16.46373991355643 7.157650263774951,16.427247635981093 7.1761062831417055,14.691722071421935 10.549650475963741,14.727597196645538"/><polygon points="10.549650475963741,14.727597196645538 7.1761062831417055,14.691722071421935 7.205613782901229,11.916962294613088 10.486372555003841,11.951850716121852"/><polygon points="10.486372555003841,11.951850716121852 7.849893927619294,11.923813733203998 7.886912811130275,8.442715375641939 10.41385856526489,8.770955251269612"/><polygon points="4.856301956667414,9.646157898522137 6.747543117180241,9.666269837060188 6.723663184831151,11.911837109623917 4.832422024318325,11.891725171085866"/><polygon points="7.886912811130275,8.442715375641939 7.873773859968383,9.678246460640269 4.856301956667414,9.646157898522137 4.873262563322478,8.051254585117569"/><polygon points="1.4945315523616285,17.803733133935836 -2.076749845106198,18.438091893445005 -2.5261312584126854,16.3397376369952 1.1194609335646422,15.69217921658655"/><polygon points="1.9289263075904786,20.249267124365353 0.3512719774100609,20.529502348768876 -0.08312277781878791,18.08396835833936 1.4945315523616285,17.803733133935836"/><polygon points="-0.08312277781878791,18.08396835833936 0.3512719774100609,20.529502348768876 -1.5562907122000116,20.868338460178357 -2.076749845106198,18.438091893445005"/><polygon points="1.9289263075904786,20.249267124365353 1.1194609335646422,15.69217921658655 4.194255249152588,15.146010351493699 4.144170381838566,19.85577825397098"/><polygon points="2.20336822594347,15.499647178673241 1.486972196090147,11.466516436355503 4.2385815430878635,10.977754197330334 4.194255249152588,15.146010351493699"/><polygon points="-0.6051497382910004,15.998517968612735 -2.5261312584126854,16.3397376369952 -3.38446311446483,12.33181863931938 -1.3215457681443228,11.965387226294999"/><polygon points="4.2385815430878635,10.977754197330334 0.7411861002469877,11.598988759302022 -0.0014651877949942715,7.41804747011421 4.270535257663085,7.972962783434317"/><polygon points="-4.15329943725181,8.741792610955404 -2.601501468182931,8.4661501943804 -2.2978720580038683,10.175507948241355 -3.7895135083370843,10.440464896393568"/><polygon points="-1.9598017743314657,12.078759218942016 -3.38446311446483,12.33181863931938 -3.7895135083370843,10.440464896393568 -2.2978720580038683,10.175507948241355"/><polygon points="-2.100937830379317,7.14533459610098 -0.0014651877949942715,7.41804747011421 0.09948640639552231,7.986379734740408 -1.8888108454719676,8.33955654660532"/><polygon points="-1.8888108454719676,8.33955654660532 -4.15329943725181,8.741792610955404 -4.365426422159158,7.547570660451062 -2.100937830379317,7.14533459610098"/><polygon points="-3.013012496772429,18.376286634869956 -4.391487534712498,18.671499446935965 -4.974794239090986,15.94779065590609 -3.678049643486549,15.27094340930789"/><polygon points="-4.974794239090986,15.94779065590609 -4.391487534712498,18.671499446935965 -5.947284034873167,19.004687242995896 -6.438346822863893,16.71170479901199"/><polygon points="-6.438346822863893,16.71170479901199 -5.947284034873167,19.004687242995896 -8.130248980421571,19.472188795421452 -8.491882735827518,17.783565929716822"/><polygon points="-8.130248980421571,19.472188795421452 -3.013012496772429,18.376286634869956 -2.4454914962466576,21.02628521473048 -7.601295482049613,21.94209919203997"/><polygon points="-11.260542259915152,19.83376000829126 -11.37231397776035,19.287032349955822 -8.491882735827518,17.783565929716822 -8.193483074270894,19.1769217326269"/><polygon points="-10.152091728743718,19.596375369950493 -8.193483074270894,19.1769217326269 -7.601295482049613,21.94209919203997 -9.574665745398871,22.292624556184645"/><polygon points="-10.152091728743718,19.596375369950493 -9.574665745398871,22.292624556184645 -10.716397158003405,22.4954277637689 -11.260542259915152,19.83376000829126"/><polygon points="-12.067124644611923,15.888388970417157 -9.413968225649512,15.345983906143825 -9.065704959649432,17.049502144703823 -11.563242125575421,18.35311363440178"/><polygon points="-12.067124644611923,15.888388970417157 -12.409490604929948,14.213717207407486 -9.756334185967537,13.671312143134154 -9.413968225649512,15.345983906143825"/><polygon points="-9.065704959649432,17.049502144703823 -9.756334185967537,13.671312143134154 -7.968685624066017,13.305849471507909 -7.382909821355534,16.171152422018334"/><polygon points="-7.382909821355534,16.171152422018334 -7.968685624066017,13.305849471507909 -6.608061135196139,13.027686598010252 -6.102091922518444,15.50261825487381"/><polygon points="-6.102091922518444,15.50261825487381 -6.608061135196139,13.027686598010252 -4.261213305978078,12.547902542102772 -3.877143900364665,14.341287066200573"/><polygon points="-10.721623823963899,9.319439870468871 -10.281392606213515,11.472816300991063 -12.861978976430287,12.000385315013883 -13.302210194180669,9.847008884491691"/><polygon points="-10.281392606213515,11.472816300991063 -9.828904234713178,13.686148193384668 -12.409490604929948,14.213717207407486 -12.861978976430287,12.000385315013883"/><polygon points="-7.701445699743019,13.251215569302662 -8.59416528899374,8.884507246386866 -5.19460251521641,8.189508620737405 -4.261213305978078,12.547902542102772"/><polygon points="-11.843457509247804,7.048241980676454 -11.35276092983407,9.448468057434447 -13.302210194180669,9.847008884491691 -13.792906773594403,7.446782807733699"/><polygon points="-13.792906773594403,7.446782807733699 -14.175172827565309,5.576941057264254 -10.527275350381803,6.050787958114437 -10.38434158323361,6.749943749190546"/><polygon points="-10.527275350381803,6.050787958114437 -5.513143777892801,6.702103057000768 -5.19460251521641,8.189508620737405 -9.893645003819875,9.150169825948538"/></g><g fill="#8B9E7C" stroke="#183014" stroke-width="0.3"><polygon points="-23.623491439550534,5.797282572941358 -26.76265399302334,6.461287232516658 -27.469058360315547,4.626253790595841 -24.117262329501827,3.4629208099961346"/><polygon points="-19.346232832178043,-2.685255015708811 -20.549449848478535,-0.38254196849116084 -22.762392275158316,3.8525804820912777 -24.224249762452075,2.460167397260565 -25.876489536884527,0.8864159877052895 -24.30061671808617,-2.814214499078228 -23.443786025952683,-4.8263145515043115 -21.269756188215904,-3.69033727553822"/><polygon points="-22.762392275158316,3.852580482091278 -21.579693596748257,1.589135367197911 -19.007752759815226,2.9330296851004967 -21.24818978617147,5.294851960039276"/><polygon points="-19.346232832178043,-2.685255015708811 -17.109601045659087,-1.516566877171588 -19.3430618102293,2.757823505735135 -21.579693596748257,1.589135367197911"/><polygon points="-19.3430618102293,2.757823505735135 -18.483002411373068,1.1118444576514124 -17.109601045659087,-1.516566877171588 -16.073781062438652,-0.34205216275523 -14.006973978317943,2.001497268114497 -15.500516825847832,3.4007043797198095 -16.435811922882195,4.27692400300308 -18.372468998341613,3.2649790927385998"/><polygon points="-10.911620323205474,-2.3270100444367445 -12.610179591590608,0.04823589938727357 -13.594747981727277,1.4250451274295939 -14.45179736998012,0.08240896603659698 -15.363828928458407,-1.3463611463146234 -14.64078983245984,-2.357450786789493 -13.393416089592979,-4.101764028207279 -12.113951707352237,-3.1868077936015866"/><polygon points="-11.51249181881823,-6.732027115255982 -9.030696052430727,-4.957273131485448 -9.692986952717884,-4.0311330763113835 -12.174782719105387,-5.805887060081917"/><polygon points="-9.692986952717884,-4.0311330763113835 -10.911620323205474,-2.3270100444367445 -13.393416089592979,-4.101764028207279 -12.174782719105387,-5.805887060081917"/><polygon points="-9.030696052430727,-4.957273131485448 -11.51249181881823,-6.732027115255982 -10.252417723694133,-8.494100384684339 -7.859210133558414,-6.5954657037669415"/><polygon points="-13.133238712582004,-4.465593110254927 -13.837458747671844,-3.480819830311021 -15.363828928458407,-1.3463611463146234 -17.30667060264978,-2.3615376422264216 -15.659155987900421,-4.665403323519157 -17.122181961248337,-5.61675593024828 -19.296294864867775,-7.030502518388935 -18.4245898656657,-8.249484865430816 -16.317181881157424,-6.74245887780089 -14.899043654461135,-5.728335757174396"/><polygon points="-13.133238712582004,-4.465593110254927 -14.727123138417781,-5.605393883845327 -16.444935333722785,-6.833816495519308 -15.20322574601147,-8.570209046850612 -13.445902698276626,-11.027629590726631 -11.789408139010082,-9.713461094881236 -10.252417723694133,-8.494100384684339 -11.940473085391723,-6.133542984391462"/><polygon points="-16.444935333722785,-6.833816495519308 -18.4245898656657,-8.249484865430816 -15.354893081715218,-12.542113901437332 -13.445902698276626,-11.027629590726631"/><polygon points="-18.770886613262824,-7.765227435973241 -19.886288411698427,-8.562861073716064 -21.39360796664768,-9.640758546663774 -20.734050947653383,-11.189599787623498 -18.945170999890486,-15.390436043518168 -16.88178134289021,-13.753460137552228 -15.354893081715218,-12.542113901437332 -17.850690365141578,-9.0520193934597"/></g><g fill="#A3987C" stroke="#302914" stroke-width="0.3"><polygon points="1.6686496599458436,-17.689100939447112 0.29251187162577463,-19.088771045577865 -1.5508709685019708,-20.963676216687887 -2.721151722017502,-22.153969078622495 -1.0002498259043269,-23.84593786388122 0.17003092761120397,-22.65564500194661 1.5292543351503518,-23.99201611231814 3.372637175278096,-22.117110941208118 2.0134137677389488,-20.780739830836588 3.389551556059017,-19.381069724705835"/><polygon points="-14.362832126411563,-13.092247916852383 -13.059216778402789,-14.373945892661911 -11.824507255389545,-15.587896540585835 -11.011056659393493,-14.76053572563443 -9.160244578025871,-12.878074271307025 -10.231724471544554,-11.824608912264425 -11.363000782482008,-10.712352478628109 -13.44692596770586,-12.365620103806767"/><polygon points="-9.160244578025871,-12.878074271307025 -7.85782217572258,-11.553380103665347 -6.242761985911804,-9.91070196019282 -7.153400082669618,-9.015374203356933 -8.078056021009461,-8.106264283547626 -9.896535940760199,-9.548942744213397 -11.363000782482008,-10.712352478628109 -10.253210434878703,-11.803484187278823"/><polygon points="-8.250635905574544,-19.101681248520038 -10.074490671766526,-17.308490515095894 -12.566680642453758,-14.858201136682458 -14.362832126411563,-13.092247916852383 -16.125337530974242,-14.490519383230811 -18.445315367285588,-16.33105774569298 -16.954097532835064,-18.6755989610787 -14.885008057743313,-21.928688778409718 -13.370790142893451,-24.30939146880442 -10.461128633411695,-21.349973982890813"/><polygon points="7.579681058163079,-17.838125502371536 5.84761042094139,-16.13517575336995 4.817756448867044,-15.122636469137614 2.8263479128288598,-13.164709007215174 1.342498623535393,-14.673932509291095 3.333907159573577,-16.631859971213537 1.9868503543021308,-18.001951801843443 3.016704326376476,-19.01449108607578 4.363761131647922,-17.644399255445872 6.09583176886961,-19.34734900444746"/><polygon points="7.579681058163079,-17.838125502371536 10.79042248890527,-14.572479549424205 3.422324582879692,-12.55854097949186 2.8263479128288598,-13.164709007215174"/><polygon points="-3.6437401151887645,-12.466027099528317 -2.3394409032103907,-13.748397441666535 -1.3370852416666188,-14.73390073786831 -0.004558181736053157,-16.044024339921002 1.2924652263558336,-14.724821490710523 -0.04006183357473203,-13.414697888657834 0.763779474013512,-12.5971106834712 -0.2385761875302599,-11.611607387269423 -1.5428753995086333,-10.329237045131206 -2.3467167070968777,-11.14682425031784"/><polygon points="-1.5428753995086333,-10.329237045131206 -7.120219781676834,-7.346371531187898 -8.078056021009461,-8.106264283547626 -3.6437401151887645,-12.466027099528317"/></g><g fill="#A38587" stroke="#301620" stroke-width="0.3"><polygon points="17.18217830831952,-12.100070393560394 19.779514345709135,-14.774087111433158 22.794307785982923,-11.845746538477359 20.90735118944245,-9.9030816647706"/><polygon points="25.166210701082917,-14.287674712901376 27.39860093409147,-12.119300983988284 23.66576224507084,-8.276258375764499 20.90735118944245,-9.9030816647706"/><polygon points="26.319555297618862,-11.008398879008718 28.239558779429494,-9.1434538313998 26.038178479813944,-6.877082580691774 23.66576224507084,-8.276258375764499"/><polygon points="28.447707013587134,-8.94127450092547 30.479467766867153,-11.033018558213023 31.488505396690787,-10.052916309223335 29.397272278829938,-8.018939174155118"/><polygon points="28.351316050898877,-13.100142936296267 29.396301530537194,-14.175979332612354 30.827001298254444,-15.648917389937255 31.835925891110833,-14.668924936442346 33.23380514017415,-13.311131574402477 31.803105372456898,-11.838193517077576 30.75811989281858,-10.76235712076149 29.360240643755265,-12.120150482801359"/><polygon points="30.75811989281858,-10.76235712076149 33.23380514017415,-13.311131574402477 34.97322827387,-11.621588513874634 32.49754302651442,-9.072814060233641"/></g><g fill="#899A95" stroke="#172C2E" stroke-width="0.3"><polygon points="22.82407315619891,10.29854342021206 24.34625395739116,12.684691301269108 22.718506819512385,13.723070130236358 21.399727754618656,11.20716741697435"/><polygon points="17.444980828366464,13.729995064206506 19.538006370471123,12.394804013438375 20.35982649734197,13.683076965512765 18.26680095523731,15.0182680162809"/><polygon points="21.681308801473154,15.754612881211626 19.538006370471123,12.394804013438375 20.861594179512654,11.550455694706923 22.71849736310781,15.092965492015828"/><polygon points="15.371982699585228,15.052410149033689 17.444980828366464,13.729995064206506 18.27482642531956,15.030848623273345 16.274146075103037,16.30713046757928"/><polygon points="19.5882832593685,17.08980393197976 17.70206550415496,18.293067349409732 16.274146075103037,16.30713046757928 18.27482642531956,15.030848623273345"/><polygon points="20.5900350102881,16.450762531857045 21.358545375444656,17.65546789796886 19.138422810750725,19.071737179139202 18.369912445594174,17.867031813027392"/><polygon points="20.5900350102881,16.450762531857045 22.71849736310781,15.092965492015828 24.491119626703224,18.474688239432748 22.71911225003968,19.788272202364567"/><polygon points="19.836965597291663,0.9810951193276732 21.088607100880115,2.8748238493911984 18.616505493766503,4.508735255724093 17.64699929247066,3.0418761414290363"/><polygon points="18.616505493766503,4.508735255724093 21.088607100880115,2.8748238493911984 22.1463235509234,4.47514472718656 19.674221943809794,6.109056133519458"/><polygon points="18.659061875170107,4.573122895380093 16.872365519788424,5.754022396562039 16.0642145056427,4.5312930532716225 17.64699929247066,3.0418761414290363"/><polygon points="14.326381312189923,7.1176833472298915 13.87734264439603,6.589162171852865 16.0642145056427,4.5312930532716225 16.725589171173898,5.531950351596881"/><polygon points="14.326381312189923,7.1176833472298915 16.725589171173898,5.531950351596881 17.88752558842811,7.289955634701403 15.700728319203918,8.735297926151496"/><polygon points="17.762295534067736,7.372725215711471 20.181639227921554,11.03318282103505 18.5418106548131,12.07926868647873 15.700728319203918,8.735297926151496"/><polygon points="22.59453140080004,9.493941196464979 21.85048052969441,9.968589042098769 20.549034832340656,7.999506760446712 21.285208145872126,7.512940200821612"/><polygon points="21.285208145872126,7.512940200821612 23.281890222976962,6.193252688296113 24.6125793407127,8.206580151323124 22.59453140080004,9.493941196464979"/><polygon points="21.714871330875084,7.2289585162348935 20.579304658821528,5.510850555125342 22.1463235509234,4.47514472718656 23.281890222976962,6.193252688296113"/><polygon points="17.762295534067736,7.372725215711471 19.4134681602871,6.281398799337161 21.85048052969441,9.968589042098769 20.181639227921554,11.03318282103505"/><polygon points="13.878116567681971,10.85210543219234 11.865067135621157,8.482734310654138 13.431960788541108,7.008271120750197 15.51567438493598,9.460814382840034"/><polygon points="13.878116567681971,10.85210543219234 12.930675920257904,11.65706369300298 11.84080215395749,10.141277532384287 12.67327386232117,9.433998421697625"/><polygon points="14.10689230120062,10.657734505560114 15.775585165424294,12.62179590427146 14.440138166772037,13.756409556707208 12.930675920257904,11.65706369300298"/><polygon points="15.775585165424294,12.62179590427146 14.10689230120062,10.657734505560114 15.51567438493598,9.460814382840034 17.184367249159656,11.424875781551378"/><polygon points="17.184367249159656,11.424875781551378 18.02205170315381,12.410835352461351 14.903196971469319,14.40042737731718 14.440138166772037,13.756409556707208"/><polygon points="28.235675549054324,6.28794255261753 28.9945289772782,7.436084840017475 26.11371825716685,9.340128541753442 25.25332500684628,8.038356898185008"/><polygon points="30.919149743096106,3.936618257001846 28.02607853977302,5.634632378874855 25.560517272014614,1.530201271407572 28.80101698504993,0.4105529770365257"/><polygon points="24.897658527205795,4.31939390604812 23.99357436139188,2.8143608645009865 25.560517272014614,1.530201271407572 26.615958348079012,3.2871988529910663"/><polygon points="23.99357436139188,2.8143608645009865 24.897658527205795,4.31939390604812 23.392792168034678,5.223377944560696 22.571084135156553,3.9801368846214285"/><polygon points="23.392792168034678,5.223377944560696 26.615958348079012,3.2871988529910663 28.02607853977302,5.634632378874855 24.883631122975533,7.479011488810505"/><polygon points="26.88470603399959,-0.40244336164410355 24.87049553039654,-3.755508789822204 25.782757732790625,-4.613956990479693 27.934005460500725,-1.0327650692141326"/><polygon points="26.88470603399959,-0.40244336164410355 24.90238792221899,1.2221294307330002 23.387876528247197,-0.6258907877857628 25.64118085482024,-2.4725454090301975"/><polygon points="25.64118085482024,-2.4725454090301975 23.387876528247197,-0.6258907877857628 22.58533965294908,-1.6051533919239598 24.87049553039654,-3.755508789822204"/><polygon points="24.90238792221899,1.2221294307330002 23.579641419713493,2.30616229428393 22.400174002794156,0.8669657043957235 23.722920505299648,-0.2170671591552067"/><polygon points="23.579641419713493,2.30616229428393 22.207774536255315,3.4304508735914254 21.176358090550345,1.869921800137387 22.400174002794156,0.8669657043957235"/><polygon points="22.58533965294908,-1.6051533919239598 23.722920505299648,-0.2170671591552067 21.176358090550345,1.869921800137387 20.300562152251796,0.5448459495252642"/><polygon points="11.965783109402778,15.623686593035867 11.865768526357442,11.236451319217927 13.979302720607706,14.175934753628688"/><polygon points="13.979302720607706,14.175934753628688 14.983447171209198,15.572489390089459 12.969927560004272,17.020241229496637 11.965783109402778,15.623686593035867"/><polygon points="12.01330024388653,17.708071111475203 14.983447171209198,15.572489390089459 15.859493997960813,16.790887058795246 12.889347070638143,18.926468780180986"/><polygon points="14.832601394529085,19.260812973474824 14.011874688580363,18.119354007313845 15.859493997960813,16.790887058795246 16.680220703909537,17.932346024956225"/><polygon points="14.832601394529085,19.260812973474824 16.680220703909537,17.932346024956225 17.75424556571179,19.426089678596494 16.244875877282176,21.22499101146789"/><polygon points="12.531067513182624,20.133998161660234 12.073583142013248,19.513015701113126 14.011874688580363,18.119354007313845 14.46211550758437,18.745544694248668"/><polygon points="15.754132396171606,20.54246960386828 13.843870592928013,21.9159774773477 12.531067513182624,20.133998161660234 14.46211550758437,18.745544694248668"/><polygon points="15.754132396171606,20.54246960386828 16.244875877282176,21.22499101146789 14.695345483768548,23.07175679163705 13.843870592928013,21.9159774773477"/><polygon points="19.11910963636348,24.877172671112945 17.471799709044117,26.84047433711514 14.695345483768548,23.07175679163705 15.634028748368259,21.953012597436786"/><polygon points="19.11910963636348,24.877172671112945 15.634028748368259,21.953012597436786 17.75424556571179,19.426089678596494 21.324125102745842,22.249184781940336"/><polygon points="25.214357209754127,24.648477321032836 18.703917306997973,28.512932383507074 17.85413485835454,27.35945036500775 22.229874085833387,22.14434422570329"/></g><g fill="#899A95" stroke="#172C2E" stroke-width="0.3"><polygon points="13.200760724199718,27.594184224393025 12.089282984613021,24.947497115373395 13.942250228613185,24.169342479386835 15.694003096019374,26.5471456884709"/><polygon points="17.612248072299472,29.15094280236514 14.417876808254608,30.492420810801292 13.200760724199718,27.594184224393025 15.694003096019374,26.5471456884709"/><polygon points="8.351045929467631,22.912468349946206 8.764312224820362,24.335490040167258 6.195074087660009,25.081634342899758 5.781807792307277,23.658612652678706"/><polygon points="6.195074087660009,25.081634342899758 8.764312224820362,24.335490040167258 9.284160184712768,26.125510012429114 6.801068192205403,27.168285890851788"/><polygon points="9.98657399201626,20.08608913464959 10.616339494136454,22.254593993012374 9.46368174272285,22.589342649346847 8.79801308622612,20.297210560794483"/><polygon points="9.46368174272285,22.589342649346847 8.1609097558864,22.967686673467508 7.4546621645727615,20.535826992658336 8.79801308622612,20.297210560794483"/><polygon points="7.733067666972402,21.494475382441568 5.3539657033932775,22.185401361652765 5.001455580631564,20.97158461358176 7.4546621645727615,20.535826992658336"/><polygon points="7.733067666972402,21.494475382441568 8.1609097558864,22.967686673467508 5.781807792307277,23.658612652678706 5.3539657033932775,22.185401361652765"/><polygon points="10.883440363067175,23.174316540530775 12.79930243539352,22.617922195681313 13.942250228613185,24.169342479386835 11.47349881773048,25.206096022492947"/><polygon points="10.883440363067175,23.174316540530775 9.98657399201626,20.08608913464959 10.824431840197684,19.93726231142747 12.79930243539352,22.617922195681313"/><polygon points="5.423379297529861,24.57659078784506 2.6119818894380304,25.393061681852235 1.5081261780623563,21.5920969338772 4.407093409054984,21.07715984216157"/><polygon points="-0.21928924875965924,24.21412396293741 -0.8586713095608659,22.012505899500194 1.5081261780623563,21.5920969338772 2.0760137995275776,23.54753441339221"/><polygon points="-0.21928924875965924,24.21412396293741 -1.382749953761441,24.55200995487185 -1.72959623552782,22.167206354091576 -0.8586713095608659,22.012505899500194"/><polygon points="6.115726564701061,26.96058674742114 1.932328744179511,28.175506612068506 1.2399814770083115,25.79151065249243 5.423379297529861,24.57659078784506"/><polygon points="-6.739230878560516,23.05705659664083 -6.241210278395383,25.860788204763754 -8.67807355645719,26.293642800668966 -9.176094156622321,23.489911192546042"/><polygon points="-6.241210278395383,25.860788204763754 -5.817276717790555,28.247428281936745 -7.124566601385327,28.47963927193716 -7.548500161990154,26.09299919476416"/><polygon points="-6.228855438475714,25.930342868134282 -1.9702547002955635,25.173897105156254 -1.6313791352500533,27.503896618546797 -5.817276717790555,28.247428281936745"/><polygon points="-6.228855438475714,25.930342868134282 -6.739230878560516,23.05705659664083 -5.20919196172963,22.785279192046005 -4.698816521644828,25.658565463539453"/><polygon points="-1.9702547002955635,25.173897105156254 -4.698816521644828,25.658565463539453 -5.20919196172963,22.785279192046005 -2.3904750784438074,22.284596790833778"/><polygon points="-11.792191697114015,27.713488283270667 -10.824503747329608,28.004379914959294 -11.198588310453772,29.248819714874568 -12.16627626023818,28.957928083185944"/><polygon points="-11.792191697114015,27.713488283270667 -11.245001723668963,25.893191355264076 -9.309625824100147,26.474974618641326 -9.8568157975452,28.295271546647914"/><polygon points="-11.008218369649773,30.769575089271473 -10.108356512043779,32.03580363040121 -12.273552140731361,33.57452819490426 -13.203363400300518,32.40793014233402"/><polygon points="-11.79018292395012,29.669244156875816 -8.633721839068436,27.426063843811274 -6.9518954271620945,29.79262331733667 -10.108356512043779,32.03580363040121"/></g><g fill="#8B9E7C" stroke="#183014" stroke-width="0.3"><polygon points="-12.865056255156906,26.04464418556818 -14.062972971863724,25.99669793753755 -17.256723025247258,25.86886907425202 -17.22755954640427,25.14023189703175 -13.897373161757491,25.273521582499576 -13.45148344117333,23.32631582982331 -12.06460017844985,23.3818254057201 -12.648281694599167,25.32351608417241"/><polygon points="-17.44260598142511,30.51307607068011 -14.246739707860467,30.640989635027307 -14.687132462390686,32.106012053367024 -17.51416320925912,32.30090312586066"/><polygon points="-17.44260598142511,30.51307607068011 -17.363050880017937,28.525425528888505 -13.65540003125627,28.673823113400395 -14.246739707860467,30.640989635027307"/><polygon points="-17.363050880017937,28.525425528888505 -17.307930104168115,27.148256270802463 -17.256723025247258,25.86886907425202 -15.402518553279638,25.943083037771007 -12.865056255156906,26.04464418556818 -13.245682726034303,27.310846472305972 -13.65540003125627,28.673823113400395 -15.797644590294597,28.5880804340159"/><polygon points="-29.148750447468732,18.692075753306998 -29.046665302442932,16.14152160617703 -28.999359300418057,14.959601164978746 -27.38722652168673,15.024126283452636 -24.713476114069575,15.131142320901413 -24.76078211609445,16.313062762099698 -27.434532523711606,16.20604672465092 -27.536617668737406,18.75660087178089"/><polygon points="-28.921584016854975,13.016418618821948 -24.635700830506494,13.187959774744618 -24.713476114069575,15.131142320901413 -28.999359300418057,14.959601164978746"/><polygon points="-22.155117114537507,10.070918955600579 -22.052587213355537,7.509252764124776 -16.899646598079286,7.715497626878133 -17.002176499261253,10.277163818353936"/><polygon points="-25.93700218935496,13.135875588219974 -27.23262389820847,13.084018727938957 -28.921584016854975,13.016418618821948 -28.849386911675747,11.212604498960339 -28.796687898575367,9.895941958305102 -27.10772777992886,9.96354206742211 -25.812106071075352,10.015398927703126 -25.86480508417573,11.332061468358363"/><polygon points="-28.796687898575367,9.895941958305102 -28.757929750628755,8.927586033891988 -25.743042242105904,8.289868387974014 -25.812106071075352,10.015398927703126"/><polygon points="-22.283643653463535,13.282100139613013 -24.284788564828425,13.202004930215397 -25.93700218935496,13.135875588219974 -25.830111067944884,10.46524615496664 -25.743042242105904,8.289868387974014 -24.07405190915572,7.936838769727884 -22.052587213355537,7.509252764124776 -22.156308694146134,10.100690067858341"/><polygon points="-14.031033556582146,19.067144247014404 -12.75167734689218,19.118350085695706 -11.954762045033787,23.01643490783425 -12.06460017844985,23.3818254057201 -14.200305993037526,23.296344437570507"/><polygon points="-17.348677974836637,18.93435654989272 -17.242754804521738,16.287910965125825 -17.114674501553512,13.087878797676746 -15.550641726249365,13.150478728312091 -13.958708868051541,13.214195351181413 -13.29804789258286,16.44579664563282 -12.75167734689218,19.118350085695706 -15.07049738444131,19.025540027109688"/><polygon points="-17.114674501553512,13.087878797676746 -16.84732322963373,6.408220408955053 -15.41216718734848,6.104652089996604 -13.958708868051541,13.214195351181413"/></g><g fill-rule="nonzero" stroke="#99948A" stroke-width="0.3" stroke-linecap="butt"><line x1="16.230851751719698" y1="-44.31795444340039" x2="19.56474305978433" y2="-42.48945832837454"/><line x1="10.578707474873132" y1="-45.923114330407" x2="19.84861781624881" y2="-40.838966864398856"/><line x1="4.92656319802656" y1="-47.52827421741362" x2="20.132492572713293" y2="-39.18847540042317"/><line x1="1.4332729469499554" y1="-47.94939544380779" x2="20.416367329177774" y2="-37.53798393644749"/><line x1="-0.2577257914132183" y1="-47.38203722542557" x2="20.471247334255658" y2="-36.013086253006534"/><line x1="-0.9514194074533506" y1="-46.26770000468299" x2="20.259604309858663" y2="-34.6343649979275"/><line x1="-1.645113023493483" y1="-45.15336278394042" x2="19.93903340664184" y2="-33.31538600341894"/><line x1="-2.338806639533612" y1="-44.03902556319784" x2="19.61846250342502" y2="-31.996407008910385"/><line x1="-3.032500255573737" y1="-42.92468834245527" x2="19.2978916002082" y2="-30.677428014401833"/><line x1="-3.7261938716138694" y1="-41.8103511217127" x2="18.97732069699138" y2="-29.35844901989328"/><line x1="-4.419887487653998" y1="-40.696013900970115" x2="18.581872064436478" y2="-28.08053724220293"/><line x1="-5.113581103694127" y1="-39.58167668022754" x2="18.069101877335676" y2="-26.86697129551705"/><line x1="-5.807274719734259" y1="-38.46733945948496" x2="17.475486079283577" y2="-25.697745692256206"/><line x1="-6.472492240904675" y1="-37.33738432441074" x2="16.845235892440243" y2="-24.548612476956265"/><line x1="-6.990439733525847" y1="-36.12665790731822" x2="16.21498570559691" y2="-23.399479261656325"/><line x1="15.584735518753577" y1="-22.250346046356388" x2="-6.363413505492572" y2="-34.28796260744928"/><line x1="14.954485331910243" y1="-21.10121283105645" x2="-3.4403353524120384" y2="-31.189981495025258"/><line x1="14.32423514506691" y1="-19.95207961575651" x2="-0.25070570508055745" y2="-27.94580834253285"/><line x1="13.693984958223574" y1="-18.80294640045657" x2="2.9389239422509235" y2="-24.70163519004044"/><line x1="13.063734771380243" y1="-17.653813185156633" x2="6.128553589582399" y2="-21.457462037548044"/><line x1="11.285516661113702" y1="-17.134291044181776" x2="9.318183236913882" y2="-18.213288885055636"/><path d="M -2.3275769986066326,-33.54210361851767 L -3.766672691426435,-35.00580822585959 L -2.4151712259777547,-36.334587221301064 L -3.337407206908064,-37.27259367985643 L -2.5107247381812154,-38.08537733450031 L -1.5884887572509063,-37.147370875944944 L -0.1493930644311039,-35.68366626860303 L -0.9760755331579523,-34.87088261395915 Z" fill="#99948A" stroke="#1A1917" stroke-width="0.3"/></g><g fill-rule="nonzero" stroke="#99948A" stroke-width="0.3" stroke-linecap="butt"><line x1="-29.194462910928664" y1="-36.83474131490226" x2="-28.681178321489526" y2="-38.96659476660458"/><line x1="-29.719227039164114" y1="-29.891906510973776" x2="-27.298245434758428" y2="-39.94710414607057"/><line x1="-30.24399116739956" y1="-22.94907170704531" x2="-26.130262873459888" y2="-40.03484837605361"/><line x1="-29.57123511993259" y1="-20.97996409575265" x2="-25.04624661678306" y2="-39.77385067998336"/><line x1="-28.62185579549522" y1="-20.15977133591684" x2="-23.96223036010623" y2="-39.512852983913106"/><line x1="-27.55365881295425" y1="-19.833070568170886" x2="-22.8782141034294" y2="-39.25185528784285"/><line x1="-26.48546183041327" y1="-19.506369800424935" x2="-21.79419784675257" y2="-38.9908575917726"/><line x1="-25.4172648478723" y1="-19.17966903267898" x2="-20.71018159007574" y2="-38.72985989570235"/><line x1="-24.349067865331328" y1="-18.852968264933025" x2="-19.62616533339891" y2="-38.4688621996321"/><line x1="-23.280870882790357" y1="-18.526267497187074" x2="-18.542149076722083" y2="-38.207864503561844"/><line x1="-22.212673900249385" y1="-18.199566729441123" x2="-17.45813282004525" y2="-37.94686680749159"/><line x1="-21.144476917708413" y1="-17.87286596169517" x2="-16.37411656336842" y2="-37.68586911142134"/><line x1="-15.290100306691594" y1="-37.424871415351085" x2="-19.9209183751233" y2="-18.191437007786163"/><line x1="-14.206084050014763" y1="-37.16387371928083" x2="-18.568436655261426" y2="-19.04547186116238"/><line x1="-13.12206779333793" y1="-36.90287602321058" x2="-16.74916735203449" y2="-21.838241563165024"/><line x1="-12.038051536661099" y1="-36.641878327140326" x2="-14.903729320229441" y2="-24.739699301967836"/><line x1="-10.954313439998996" y1="-36.379725333600184" x2="-13.058291288424398" y2="-27.641157040770636"/><line x1="-9.888244051783634" y1="-36.04418790993235" x2="-11.212853256619345" y2="-30.54261477957345"/><line x1="-8.907209361593598" y1="-35.35547114242751" x2="-9.331764206942635" y2="-33.59214387502743"/><path d="M -28.290648562262408,-25.879903727231948 L -26.402915168939035,-25.42539572200822 L -25.118627929142573,-25.116178947246112 L -25.550771828317615,-23.321331640228642 L -26.835059068114077,-23.63054841499075 L -27.136707240321602,-22.377696273407885 L -29.024440633644975,-22.832204278631615 L -28.72279246143745,-24.085056420214478 Z" fill="#99948A" stroke="#1A1917" stroke-width="0.3"/></g><g fill-rule="nonzero" stroke="#99948A" stroke-width="0.3" stroke-linecap="butt"><line x1="-4.171433130823126" y1="51.46174531168247" x2="-5.191474869777515" y2="49.032788594873686"/><line x1="-2.3603434621783386" y1="52.9720875373826" x2="-6.1816298926812845" y2="43.872715435477446"/><line x1="-0.7634791158366312" y1="53.97230942619144" x2="-5.934831461058342" y2="41.65811625720702"/><line x1="0.8333852305050771" y1="54.972531315000275" x2="-5.083234130503252" y2="40.88368397777903"/><line x1="2.4302495768467844" y1="55.972753203809106" x2="-4.231636799948163" y2="40.109251698351045"/><line x1="4.02711392318849" y1="56.97297509261794" x2="-3.2330413436314833" y2="39.68485615888325"/><line x1="-2.232648498253213" y1="39.26474062097533" x2="5.410723270551996" y2="57.465387210140236"/><line x1="-1.2322556528749453" y1="38.844625083067406" x2="6.516195058162644" y2="57.295489082739586"/><line x1="-0.23186280749667773" y1="38.42450954515949" x2="7.6216668457732935" y2="57.12559095533894"/><line x1="0.7685300378815911" y1="38.00439400725157" x2="8.584532290633387" y2="56.61611394517751"/><line x1="1.7689228832598602" y1="37.58427846934365" x2="9.518944649053406" y2="56.03888351593206"/><line x1="2.769315728638128" y1="37.164162931435726" x2="10.453357007473418" y2="55.46165308668661"/><line x1="3.7697085740163967" y1="36.74404739352781" x2="11.387769365893435" y2="54.88442265744116"/><line x1="4.770101419394664" y1="36.32393185561989" x2="12.322181724313452" y2="54.30719222819572"/><line x1="5.770494264772934" y1="35.903816317711964" x2="13.256594082733466" y2="53.729961798950264"/><line x1="6.770887110151198" y1="35.483700779804046" x2="14.19100644115348" y2="53.15273136970481"/><line x1="7.771279955529464" y1="35.06358524189613" x2="15.125418799573492" y2="52.575500940459364"/><line x1="8.771672800907734" y1="34.64346970398821" x2="16.059831157993507" y2="51.99827051121392"/><line x1="9.772065646285998" y1="34.22335416608029" x2="16.99424351641352" y2="51.42104008196847"/><line x1="10.772458491664263" y1="33.80323862817237" x2="17.92865587483353" y2="50.843809652723024"/><line x1="11.772851337042532" y1="33.38312309026445" x2="18.86306823325355" y2="50.26657922347757"/><line x1="12.773244182420799" y1="32.96300755235653" x2="19.79748059167356" y2="49.68934879423212"/><line x1="13.773637027799067" y1="32.54289201444861" x2="20.731892950093574" y2="49.11211836498667"/><line x1="14.774029873177332" y1="32.12277647654069" x2="21.666305308513586" y2="48.534887935741224"/><line x1="15.80895603137416" y1="31.784892791429584" x2="22.46718803263761" y2="47.63969237847195"/><line x1="17.089616723391174" y1="32.03216020718055" x2="23.07009963926609" y2="46.273081527875725"/><line x1="18.3702774154082" y1="32.27942762293152" x2="20.67795311440858" y2="37.774540396502076"/><path d="M -3.2753747425614357,41.547017182277 L -1.3981475009974993,40.75867454667286 L -0.7783063419355418,42.234660566814924 L 0.2560908805986237,41.800264871600724 L 0.8851587613350471,43.2982218628604 L -0.14923846119911843,43.7326175580746 L -2.026465702763055,44.52096019367875 L -2.655533583499478,43.02300320241907 Z" fill="#99948A" stroke="#1A1917" stroke-width="0.3"/></g><g fill-rule="nonzero" stroke="#99948A" stroke-width="0.3" stroke-linecap="butt"><line x1="22.311702185309635" y1="-34.27621627694343" x2="21.03204593069556" y2="-28.02664091772892"/><line x1="23.453524617242696" y1="-34.32978648588383" x2="21.887056977441013" y2="-26.67948389297073"/><line x1="24.595347049175757" y1="-34.383356694824236" x2="22.787255279725365" y2="-25.553012038740317"/><line x1="25.71535472499711" y1="-34.33038816590323" x2="23.730507866371486" y2="-24.636808366832867"/><line x1="26.80070361139296" y1="-34.10815330815932" x2="24.673760453017607" y2="-23.720604694925413"/><line x1="27.886052497788814" y1="-33.88591845041541" x2="25.617013039663725" y2="-22.804401023017967"/><line x1="28.971401384184666" y1="-33.663683592671504" x2="26.560265626309846" y2="-21.888197351110513"/><line x1="30.05675027058052" y1="-33.44144873492759" x2="27.503518212955964" y2="-20.971993679203067"/><line x1="31.142099156976368" y1="-33.219213877183684" x2="28.446770799602085" y2="-20.055790007295613"/><line x1="32.22744804337223" y1="-32.99697901943978" x2="29.390023386248203" y2="-19.139586335388163"/><line x1="33.312796929768076" y1="-32.774744161695864" x2="30.333275972894327" y2="-18.22338266348071"/><line x1="34.398145816163925" y1="-32.55250930395196" x2="31.27652855954044" y2="-17.307178991573263"/><line x1="35.48349470255979" y1="-32.33027444620805" x2="32.21978114618656" y2="-16.390975319665806"/><line x1="36.56884358895564" y1="-32.108039588464145" x2="33.16303373283269" y2="-15.474771647758356"/><line x1="37.65419247535149" y1="-31.88580473072023" x2="34.106286319478805" y2="-14.558567975850906"/><line x1="38.73954136174734" y1="-31.663569872976325" x2="35.04953890612492" y2="-13.64236430394346"/><line x1="39.8248902481432" y1="-31.441335015232415" x2="36.019234837405705" y2="-12.85530443487216"/><line x1="40.910239134539054" y1="-31.219100157488505" x2="37.07115273282933" y2="-12.469799560933865"/><line x1="41.9955880209349" y1="-30.9968652997446" x2="38.12307062825297" y2="-12.084294686995566"/><line x1="43.08093690733075" y1="-30.774630442000692" x2="39.44178170060411" y2="-13.001752275453551"/><line x1="44.16628579372661" y1="-30.552395584256782" x2="40.80923749097337" y2="-14.157268942292479"/><line x1="45.251634680122464" y1="-30.330160726512872" x2="42.17669328134264" y2="-15.312785609131403"/><line x1="46.33698356651831" y1="-30.107925868768966" x2="43.54414907171189" y2="-16.46830227597032"/><line x1="47.42233245291417" y1="-29.885691011025056" x2="44.911604862081155" y2="-17.623818942809244"/><line x1="48.49770218615308" y1="-29.61472004196173" x2="46.44537571670949" y2="-19.591583839367605"/><line x1="49.48535957214806" y1="-28.91538018706837" x2="48.336826948364035" y2="-23.30618540606884"/><line x1="50.473016958143056" y1="-28.216040332175005" x2="50.228278180018584" y2="-27.020786972770097"/><path d="M 42.4641763280599,-28.91411225825434 L 44.320964523848055,-28.533918326400943 L 45.4567193038752,-28.301362412689674 L 45.19044683279958,-27.000942969521958 L 44.05469205277244,-27.233498883233228 L 43.64021309076545,-25.20926972127528 L 41.783424894977294,-25.58946365312868 L 42.19790385698428,-27.613692815086626 Z" fill="#99948A" stroke="#1A1917" stroke-width="0.3"/></g><g fill-rule="nonzero" stroke="#99948A" stroke-width="0.3" stroke-linecap="butt"><line x1="40.58706413096606" y1="16.100042492494126" x2="38.92074117027996" y2="13.326107046491192"/><line x1="42.98825275045993" y1="16.91854600844972" x2="40.218793534289325" y2="12.308214597765684"/><line x1="45.29642824230969" y1="17.58221014584371" x2="41.57144303304002" y2="11.381210248695746"/><line x1="47.604603734159454" y1="18.245874283237704" x2="42.974616712380424" y2="10.53831373389602"/><line x1="49.245633477859414" y1="17.798937845530162" x2="44.37779039172083" y2="9.695417219096296"/><line x1="50.54368584186877" y1="16.78104539680465" x2="45.780964071061234" y2="8.852520704296566"/><line x1="51.532086729692665" y1="15.24767472089063" x2="47.18413775040163" y2="8.009624189496844"/><line x1="52.51941773781563" y1="13.712523011350232" x2="48.58731142974204" y2="7.166727674697115"/><line x1="53.506748745938594" y1="12.177371301809842" x2="49.990485109082435" y2="6.3238311598973915"/><line x1="54.49407975406155" y1="10.642219592269443" x2="51.39365878842285" y2="5.480934645097665"/><line x1="55.48141076218452" y1="9.107067882729051" x2="52.796832467763245" y2="4.63803813029794"/><line x1="56.46874177030748" y1="7.571916173188654" x2="54.20000614710365" y2="3.7951416154982134"/><line x1="57.45607277843044" y1="6.036764463648264" x2="55.60317982644405" y2="2.952245100698489"/><line x1="58.443403786553404" y1="4.501612754107872" x2="57.00635350578445" y2="2.109348585898763"/><line x1="59.43073479467637" y1="2.966461044567475" x2="58.40952718512486" y2="1.266452071099037"/><line x1="58.88686344821589" y1="-1.703362330925863" x2="39.31665225434281" y2="10.05260419843805"/><line x1="59.673135973261125" y1="-3.962880812647125" x2="36.64558913666835" y2="9.869932087660112"/><line x1="35.74574900184061" y1="8.623273600030743" x2="58.567187277580814" y2="-5.0857284063216674"/><line x1="34.95684212027431" y1="7.309976709810038" x2="57.41619962825092" y2="-6.181520776811496"/><line x1="34.167935238708004" y1="5.996679819589329" x2="56.26521197892103" y2="-7.277313147301327"/><line x1="33.379028357141706" y1="4.683382929368625" x2="55.11422432959113" y2="-8.37310551779116"/><line x1="32.5901214755754" y1="3.3700860391479157" x2="53.96323668026124" y2="-9.46889788828099"/><line x1="31.8012145940091" y1="2.056789148927207" x2="52.81224903093134" y2="-10.564690258770819"/><line x1="31.012307712442798" y1="0.7434922587065002" x2="51.66126138160144" y2="-11.66048262926065"/><line x1="30.223400830876493" y1="-0.5698046315142081" x2="50.51027373227154" y2="-12.756274999750485"/><line x1="29.43449394931019" y1="-1.883101521734917" x2="49.35928608294165" y2="-13.852067370240317"/><line x1="28.64558706774389" y1="-3.196398411955622" x2="36.84326216152441" y2="-8.120800763385299"/><line x1="39.78544385677999" y1="-9.888190455304441" x2="48.00055596078215" y2="-14.823067344106612"/><line x1="28.633846115260823" y1="-4.9765444618279595" x2="29.989907348295823" y2="-5.7911401915009435"/><path d="M 54.912209982738126,2.7509309089384724 L 56.30590837472754,1.9137262673562025 L 56.96128534484107,3.0047353038898033 L 58.446781010006994,2.112387380497278 L 59.033839767966505,3.0896667771154687 L 57.548344102800584,3.982014700507994 L 58.17181382151921,5.019907589861798 L 56.7781154295298,5.857112231444068 L 56.154645710811174,4.819219342090264 L 55.56758695285166,3.841939945472073 Z" fill="#99948A" stroke="#1A1917" stroke-width="0.3"/></g><g fill-rule="nonzero" stroke="#99948A" stroke-width="0.3" stroke-linecap="butt"><line x1="20.573700718729857" y1="29.79239468986468" x2="25.90715875582456" y2="26.626570380017498"/><line x1="20.603387933274597" y1="31.662702017310977" x2="27.08899367000175" y2="27.812987973887147"/><line x1="21.16336860961135" y1="33.21823871732984" x2="28.137987700358313" y2="29.078257017682148"/><line x1="21.7233492859481" y1="34.77377541734871" x2="28.96665324461486" y2="30.47430824305539"/><line x1="22.283329962284853" y1="36.32931211736758" x2="29.795318788871413" y2="31.87035946842863"/><line x1="22.843310638621602" y1="37.88484881738645" x2="30.62398433312796" y2="33.26641069380187"/><line x1="23.403291314958352" y1="39.44038551740532" x2="31.452649877384513" y2="34.662461919175115"/><line x1="23.9632719912951" y1="40.99592221742419" x2="32.28131542164106" y2="36.05851314454836"/><line x1="24.52325266763185" y1="42.55145891744305" x2="33.10998096589761" y2="37.4545643699216"/><line x1="25.0832333439686" y1="44.10699561746192" x2="33.938646510154165" y2="38.85061559529484"/><line x1="25.852308732084012" y1="45.53841825920839" x2="34.767312054410716" y2="40.24666682066808"/><line x1="26.947419445795674" y1="46.77631344607236" x2="35.59597759866726" y2="41.642718046041324"/><line x1="28.469007415373664" y1="47.761061039981044" x2="36.42464314292382" y2="43.03876927141457"/><line x1="30.338639859085447" y1="48.53921702869527" x2="37.253308687180365" y2="44.434820496787815"/><line x1="32.20827230279722" y1="49.31737301740949" x2="38.08197423143692" y2="45.830871722161056"/><line x1="34.07790474650899" y1="50.09552900612371" x2="38.91063977569347" y2="47.226922947534305"/><line x1="35.94753719022077" y1="50.87368499483793" x2="39.73930531995002" y2="48.62297417290755"/><line x1="37.817169633932544" y1="51.651840983552155" x2="40.494792459144016" y2="50.06246250270565"/><line x1="40.93267743997114" y1="51.69047254333837" x2="39.82153483163013" y2="52.350022549493325"/><line x1="41.69702468721313" y1="47.41513109895513" x2="29.44994277586196" y2="26.78249610152973"/><line x1="29.43059541901539" y1="24.186265436204515" x2="43.5834434484768" y2="48.029540893949246"/><line x1="30.55584800244884" y1="23.51834005672736" x2="44.8012460899856" y2="47.51753441671191"/><line x1="31.68110058588229" y1="22.850414677250207" x2="45.72896515166338" y2="46.51682469859462"/><line x1="32.80635316931574" y1="22.182489297773053" x2="46.656684213341165" y2="45.51611498047731"/><line x1="33.93160575274919" y1="21.514563918295895" x2="47.58440327501896" y2="44.51540526236002"/><line x1="35.05685833618264" y1="20.84663853881874" x2="48.51212233669674" y2="43.51469554424272"/><line x1="36.1821109196161" y1="20.178713159341584" x2="49.439841398374526" y2="42.51398582612542"/><line x1="37.30736350304955" y1="19.51078777986443" x2="50.36756046005231" y2="41.51327610800813"/><line x1="38.432616086483" y1="18.842862400387276" x2="51.295279521730095" y2="40.51256638989083"/><line x1="39.76205003628414" y1="18.5189209703957" x2="52.222998583407886" y2="39.51185667177353"/><line x1="41.27701878526294" y1="18.507549654531097" x2="53.15071764508567" y2="38.51114695365624"/><line x1="43.111895980029175" y1="19.03512747302381" x2="54.078436706763455" y2="37.51043723553893"/><line x1="44.94677317479542" y1="19.562705291516526" x2="55.006155768441246" y2="36.50972751742164"/><line x1="46.78165036956166" y1="20.09028311000924" x2="55.70434764767005" y2="35.122333802925745"/><line x1="49.05298319846845" y1="21.35315688365071" x2="56.11358914633695" y2="33.24814594614726"/><path d="M 23.84108109596875,30.950112980263448 L 24.359535257771014,31.823551694954148 L 25.182705286634167,33.21034463626793 L 25.72137926208567,34.1178476315571 L 24.378852173513067,34.91474241615481 L 23.840178198061565,34.007239420865645 L 23.017008169198412,32.62044647955186 L 21.48047465547636,33.5324992447192 L 20.962020493674096,32.6590605300285 L 22.498554007396148,31.74700776486116 Z" fill="#99948A" stroke="#1A1917" stroke-width="0.3"/></g><g fill-rule="nonzero" stroke="#99948A" stroke-width="0.3" stroke-linecap="butt"><line x1="-24.985217472501414" y1="60.848714346511535" x2="-27.357233756345572" y2="56.77259719744185"/><line x1="-23.657829612942784" y1="60.539716343111024" x2="-26.393535896186993" y2="55.838627496504245"/><line x1="-22.445242827040804" y1="60.03344202746483" x2="-25.354070432410488" y2="55.03485826280393"/><line x1="-21.297577349769174" y1="59.4156057207604" x2="-24.22815168412186" y2="54.3796519702577"/><line x1="-20.14991187249754" y1="58.79776941405596" x2="-23.102232935833225" y2="53.724445677711465"/><line x1="-19.002246395225914" y1="58.17993310735153" x2="-21.976314187544595" y2="53.06923938516523"/><line x1="-17.854580917954284" y1="57.5620968006471" x2="-20.850395439255962" y2="52.414033092619"/><line x1="-16.706915440682657" y1="56.944260493942664" x2="-19.724476690967332" y2="51.758826800072775"/><line x1="-15.55924996341102" y1="56.32642418723823" x2="-18.598557942678696" y2="51.103620507526536"/><line x1="-14.411584486139395" y1="55.7085878805338" x2="-17.472639194390073" y2="50.44841421498031"/><line x1="-13.263919008867763" y1="55.090751573829365" x2="-16.34672044610144" y2="49.79320792243408"/><line x1="-12.116253531596133" y1="54.47291526712493" x2="-15.220801697812805" y2="49.138001629887846"/><line x1="-10.9685880543245" y1="53.8550789604205" x2="-14.09488294952417" y2="48.482795337341614"/><line x1="-9.82092257705287" y1="53.237242653716066" x2="-12.968964201235542" y2="47.82758904479538"/><line x1="-8.673257099781235" y1="52.61940634701163" x2="-11.843045452946905" y2="47.17238275224915"/><line x1="-7.692371463493319" y1="51.71497244206007" x2="-10.717126704658279" y2="46.51717645970292"/><line x1="-6.973100050715212" y1="50.36097576211746" x2="-9.51843105353872" y2="45.9870313582226"/><line x1="-8.472011189653848" y1="42.54958162943426" x2="-27.342486971007727" y2="53.53088422704832"/><line x1="-8.73577574063739" y1="41.17500456983511" x2="-29.619666404432035" y2="53.32797439697757"/><line x1="-30.350576200452082" y1="52.22524333385569" x2="-9.481225551361593" y2="40.08073478257559"/><line x1="-31.014853499480086" y1="51.08373679836192" x2="-10.313239456926379" y2="39.036839269422735"/><line x1="-31.67913079850809" y1="49.94223026286815" x2="-11.145253362491168" y2="37.99294375626988"/><line x1="-32.34340809753609" y1="48.80072372737439" x2="-11.977267268055957" y2="36.949048243117026"/><line x1="-33.0076853965641" y1="47.65921719188062" x2="-12.809281173620743" y2="35.90515272996417"/><line x1="-33.6719626955921" y1="46.51771065638686" x2="-13.641295079185532" y2="34.86125721681132"/><line x1="-34.3362399946201" y1="45.37620412089309" x2="-15.045322512384583" y2="34.15023373665125"/><line x1="-35.00051729364811" y1="44.234697585399324" x2="-17.293937990235293" y2="33.93070167388362"/><line x1="-35.66479459267612" y1="43.09319104990556" x2="-20.27267821254292" y2="34.136051360033484"/><line x1="-36.32907189170411" y1="41.9516845144118" x2="-23.251418434850542" y2="34.34140104618335"/><line x1="-36.53063788890727" y1="40.540912228570846" x2="-26.230158657158164" y2="34.546750732333216"/><line x1="-32.75689406158819" y1="36.81678650065709" x2="-29.676502160581595" y2="35.02421296005683"/></g><g fill-rule="nonzero" stroke="#99948A" stroke-width="0.3" stroke-linecap="butt"><line x1="84.48614139944468" y1="23.985014436261476" x2="69.50089689232969" y2="18.770456145254425"/><line x1="86.38795633747333" y1="23.245405481433288" x2="68.7954909985487" y2="17.123587719381632"/><line x1="86.83503200176766" y1="21.9995770426652" x2="68.83171391507658" y2="15.734790935904098"/><line x1="87.28210766606199" y1="20.753748603897126" x2="69.26670056168474" y2="14.484755766483367"/><line x1="87.72918333035632" y1="19.507920165129043" x2="69.7016872082929" y2="13.234720597062633"/><line x1="88.17625899465065" y1="18.262091726360964" x2="70.13667385490106" y2="11.984685427641901"/><line x1="88.623334658945" y1="17.01626328759288" x2="70.57166050150921" y2="10.734650258221166"/><line x1="89.07041032323933" y1="15.770434848824802" x2="71.00664714811738" y2="9.484615088800433"/><line x1="89.51748598753366" y1="14.52460641005672" x2="71.44163379472553" y2="8.234579919379698"/><line x1="89.96456165182799" y1="13.27877797128864" x2="71.8766204413337" y2="6.984544749958965"/><line x1="90.41163731612232" y1="12.032949532520556" x2="72.31160708794185" y2="5.734509580538229"/><line x1="90.48657837644694" y1="10.657625870395954" x2="72.74659373455002" y2="4.484474411117497"/><line x1="90.23452180283402" y1="9.168513726383114" x2="73.18158038115817" y2="3.234439241696763"/><line x1="88.87424936095891" y1="7.293765149055605" x2="73.61656702776634" y2="1.9844040722760345"/><line x1="87.17952410875208" y1="5.302633841086763" x2="74.06471684022948" y2="0.7389494150793363"/><line x1="85.48479885654524" y1="3.3115025331179293" x2="74.83166703198587" y2="-0.3955692370204465"/><line x1="76.36648814439434" y1="-1.2628845295882394" x2="83.7900736043384" y2="1.3203712251490876"/><line x1="79.9201989619881" y1="-1.4276675380945716" x2="81.68544307023066" y2="-0.8133987288057405"/><line x1="71.83877106398596" y1="0.09498507017228874" x2="66.18391200050925" y2="16.345536121756886"/><line x1="64.40603956331313" y1="17.31519468078083" x2="70.78070097104904" y2="-1.00387560552414"/><line x1="63.12117266529158" y1="16.86808730574016" x2="69.3166261942071" y2="-0.935987513670451"/><line x1="61.83630576727004" y1="16.420979930699495" x2="67.85255141736518" y2="-0.8680994218167619"/><line x1="60.5514388692485" y1="15.973872555658831" x2="66.38847664052324" y2="-0.8002113299630729"/><line x1="59.26657197122695" y1="15.526765180618163" x2="64.89268078071703" y2="-0.6411653379148774"/><line x1="57.98170507320541" y1="15.079657805577497" x2="62.65448379694287" y2="1.6513427316793603"/><line x1="56.69683817518386" y1="14.63255043053683" x2="59.51586316187706" y2="6.531427317172259"/><line x1="55.75464188634541" y1="13.200699463145021" x2="56.377242526811244" y2="11.411511902665161"/><line x1="51.31783734430076" y1="20.001176793406025" x2="51.8660654410755" y2="18.4257160127666"/><line x1="52.24106590328079" y1="22.251590917383034" x2="54.313761961832014" y2="16.295217339224163"/><line x1="53.304947772422466" y1="24.097805083111904" x2="55.91092151348153" y2="16.608934212449988"/><line x1="54.368829641564155" y1="25.944019248840785" x2="57.47399180308677" y2="17.02061449854661"/><line x1="55.43271151070583" y1="27.79023341456966" x2="58.99601677850907" y2="17.550248029113284"/><line x1="56.49659337984751" y1="29.636447580298537" x2="60.518041753931385" y2="18.07988155967996"/><line x1="57.560475248989185" y1="31.482661746027407" x2="62.04006672935369" y2="18.609515090246635"/><line x1="58.83142673110524" y1="32.73381327993837" x2="63.562091704775995" y2="19.139148620813312"/><line x1="60.25717820705334" y1="33.540111074027514" x2="65.0841166801983" y2="19.668782151379986"/><line x1="61.76649078316642" y1="34.106276636894876" x2="66.60614165562062" y2="20.198415681946667"/><line x1="63.38492034782471" y1="34.35886918705857" x2="68.12816663104293" y2="20.72804921251334"/><line x1="65.00334991248299" y1="34.61146173722227" x2="69.65019160646523" y2="21.257682743080014"/><line x1="66.62177947714127" y1="34.86405428738597" x2="71.17221658188754" y2="21.78731627364669"/><line x1="68.24020904179956" y1="35.116646837549666" x2="72.69424155730985" y2="22.31694980421337"/><line x1="69.85863860645784" y1="35.369239387713364" x2="74.21626653273216" y2="22.846583334780046"/><line x1="71.47706817111612" y1="35.621831937877054" x2="75.73829150815446" y2="23.37621686534672"/><line x1="73.0954977357744" y1="35.87442448804075" x2="77.26031648357677" y2="23.905850395913397"/><line x1="74.71392730043269" y1="36.12701703820445" x2="78.78234145899908" y2="24.435483926480075"/><line x1="76.33235686509096" y1="36.37960958836815" x2="80.30436643442138" y2="24.965117457046745"/><line x1="77.95078642974926" y1="36.632202138531845" x2="81.8263914098437" y2="25.494750987613422"/><line x1="79.63968480633031" y1="36.68228618886541" x2="83.19218248060416" y2="26.47335893384571"/><line x1="81.5194317170935" y1="36.1839226451859" x2="84.53646320988092" y2="27.513781842837272"/><path d="M 78.6470673549472,4.731946445668391 L 79.14218428447421,3.3091129409840327 L 79.68808960873237,1.7403271867136638 L 81.51611197185848,2.3764415434236694 L 82.86410546107489,2.8455156797902434 L 82.31820013681673,4.414301434060612 L 80.97020664760032,3.9452272976940383 L 80.4750897180733,5.3680608023783964 Z" fill="#99948A" stroke="#1A1917" stroke-width="0.3"/></g><g fill-rule="nonzero" stroke="#99948A" stroke-width="0.3" stroke-linecap="butt"><line x1="-18.009228286930693" y1="80.04847416857069" x2="-14.299002457056876" y2="68.6839138093242"/><line x1="-17.169393365679355" y1="81.95110301687792" x2="-12.693124473198367" y2="68.24012413165256"/><line x1="-15.98782602754305" y1="82.80699270253626" x2="-11.27705749661657" y2="68.37773266205683"/><line x1="-14.793828278989775" y1="83.62480757659245" x2="-9.956785930018713" y2="68.80876611288924"/><line x1="-13.599830530436492" y1="84.44262245064861" x2="-8.63651436342085" y2="69.23979956372166"/><line x1="-12.405832781883213" y1="85.2604373247048" x2="-7.316242796822993" y2="69.67083301455409"/><line x1="-11.211835033329937" y1="86.07825219876096" x2="-5.995971230225136" y2="70.10186646538651"/><line x1="-10.017837284776657" y1="86.89606707281715" x2="-4.675699663627278" y2="70.53289991621892"/><line x1="-8.823839536223378" y1="87.71388194687333" x2="-3.3554280970294172" y2="70.96393336705135"/><line x1="-7.629841787670098" y1="88.5316968209295" x2="-2.0351565304315584" y2="71.39496681788377"/><line x1="-6.435844039116819" y1="89.34951169498567" x2="-0.7148849638336997" y2="71.82600026871619"/><line x1="-5.241846290563538" y1="90.16732656904185" x2="0.6053866027641615" y2="72.25703371954862"/><line x1="-3.868531321593638" y1="90.43588609630251" x2="1.9256581693620172" y2="72.68806717038103"/><line x1="-2.4567497085667327" y1="90.58662085540928" x2="3.2459297359598756" y2="73.11910062121345"/><line x1="-0.6994614343560954" y1="89.67905580054547" x2="4.5218923308619985" y2="73.68585410807113"/><line x1="1.0578268398545525" y1="88.77149074568166" x2="5.66720779596405" y2="74.65278463547995"/><line x1="6.496360437131706" y1="76.58813370685496" x2="2.8151151140651933" y2="87.86392569081785"/><line x1="6.804459993625118" y1="80.11948784710565" x2="4.572403388275835" y2="86.95636063595404"/><line x1="7.11255955011853" y1="83.65084198735634" x2="6.461588171287023" y2="85.64479164597434"/><line x1="4.629282876748903" y1="71.15125879482343" x2="-12.100585026370258" y2="65.68940316096017"/><line x1="-12.976756651388465" y1="63.667182951031116" x2="5.906926603360175" y2="69.83220184838945"/><line x1="-12.464537130352968" y1="62.09823541767027" x2="5.751009816803297" y2="68.04512563182892"/><line x1="-11.952317609317472" y1="60.529287884309426" x2="5.595093030246412" y2="66.2580494152684"/><line x1="-11.440098088281974" y1="58.96034035094858" x2="5.439176243689534" y2="64.47097319870787"/><line x1="-10.927878567246477" y1="57.39139281758773" x2="5.283259457132653" y2="62.68389698214734"/><line x1="-10.157368843556531" y1="55.90677014600759" x2="4.941938609411743" y2="60.83629128490747"/><line x1="-8.400731148155788" y1="54.7440919541561" x2="2.2549218093900922" y2="58.22287842609309"/><line x1="-6.393165049183981" y1="53.66333519304617" x2="-3.5343902052241933" y2="54.596648927371426"/><line x1="-16.067095790411916" y1="58.8712165477104" x2="-13.760713622914992" y2="59.62418880716477"/><line x1="-17.63775287688397" y1="59.716766921598094" x2="-14.16145819663327" y2="60.85168441133848"/><line x1="-19.20840996335602" y1="60.5623172954858" x2="-14.562202770351549" y2="62.07918001551219"/><line x1="-20.77906704982806" y1="61.4078676693735" x2="-14.962947344069825" y2="63.3066756196859"/><line x1="-22.34972413630011" y1="62.2534180432612" x2="-15.3636919177881" y2="64.5341712238596"/><line x1="-23.72626825953423" y1="63.16234112206244" x2="-15.76443649150638" y2="65.76166682803331"/><line x1="-24.689703418144347" y1="64.20613325893979" x2="-16.165181065224658" y2="66.98916243220702"/><line x1="-25.300401668158457" y1="65.36508458790657" x2="-16.565925638942932" y2="68.21665803638072"/><line x1="-25.756733106170223" y1="66.57443256355934" x2="-16.96667021266121" y2="69.44415364055443"/><line x1="-26.21306454418199" y1="67.78378053921212" x2="-17.367414786379488" y2="70.67164924472814"/><line x1="-26.669395982193752" y1="68.99312851486488" x2="-17.76815936009777" y2="71.89914484890186"/><line x1="-27.125727420205514" y1="70.20247649051765" x2="-18.168903933816047" y2="73.12664045307557"/><line x1="-27.582058858217277" y1="71.41182446617042" x2="-18.569648507534318" y2="74.35413605724926"/><line x1="-28.03839029622904" y1="72.62117244182319" x2="-18.9703930812526" y2="75.58163166142297"/><line x1="-27.977976931479205" y1="73.9992238124207" x2="-19.371137654970877" y2="76.80912726559669"/><line x1="-25.849251749076146" y1="76.05252382330953" x2="-19.992316621490914" y2="77.96465692017689"/><line x1="-22.05996172700964" y1="78.64795396202923" x2="-20.955751780101036" y2="79.00844905705424"/><path d="M 0.9775473179881276,62.927096039879686 L -0.850485578754224,62.33029205829546 L -0.23501216947761305,60.44507400689908 L 0.20370578167139453,59.101264528679955 L 2.0317386784137463,59.69806851026418 L 3.2523933049730864,60.09657968726106 L 2.813675353824079,61.440389165480184 L 1.5930207272647385,61.0418779884833 Z" fill="#99948A" stroke="#1A1917" stroke-width="0.3"/></g><g fill-rule="nonzero" stroke="#99948A" stroke-width="0.3" stroke-linecap="butt"><line x1="23.76973021936468" y1="49.58634281155713" x2="25.512742900962017" y2="49.082480070175066"/><line x1="28.211363429850827" y1="49.820141566046" x2="19.833213966682937" y2="52.24206161332402"/><line x1="30.36335864155348" y1="50.71581919899624" x2="19.879353679080367" y2="53.74649105630816"/><line x1="32.515353853256116" y1="51.61149683194648" x2="20.030145833263667" y2="55.22066801360055"/><line x1="34.66734906495877" y1="52.50717446489673" x2="20.435059098617618" y2="56.62138471379364"/><line x1="36.81934427666141" y1="53.40285209784697" x2="20.839972363971565" y2="58.02210141398672"/><line x1="38.51757423762246" y1="54.42970227222304" x2="21.244885629325516" y2="59.4228181141798"/><line x1="39.54378483223326" y1="55.650816965593194" x2="21.649798894679464" y2="60.823534814372884"/><line x1="40.22910842531647" y1="56.97047383304195" x2="22.054712160033414" y2="62.224251514565964"/><line x1="40.634021690670416" y1="58.37119053323503" x2="22.45962542538736" y2="63.62496821475904"/><line x1="41.03893495602436" y1="59.77190723342811" x2="22.86453869074131" y2="65.02568491495212"/><line x1="41.44384822137831" y1="61.172623933621196" x2="23.26945195609526" y2="66.42640161514521"/><line x1="41.848761486732265" y1="62.57334063381428" x2="23.67436522144921" y2="67.8271183153383"/><line x1="42.25367475208621" y1="63.974057334007355" x2="24.079278486803158" y2="69.22783501553137"/><line x1="42.65858801744016" y1="65.37477403420044" x2="24.484191752157106" y2="70.62855171572446"/><line x1="43.06350128279411" y1="66.77549073439351" x2="24.889105017511053" y2="72.02926841591753"/><line x1="43.468414548148054" y1="68.1762074345866" x2="25.294018282865004" y2="73.42998511611061"/><line x1="43.87332781350201" y1="69.57692413477969" x2="26.243746774238137" y2="74.6732089327309"/><line x1="42.77373992281614" y1="71.41255567231062" x2="27.704121429365003" y2="75.76881731392626"/><line x1="17.69142640287202" y1="55.41249385300893" x2="23.424021193030434" y2="75.24326242759652"/><line x1="22.54221391257463" y1="77.57328298522793" x2="15.863693480208415" y2="54.47027327271883"/><line x1="21.106803890683988" y1="77.98822524943125" x2="14.543999048274884" y2="55.28551054623465"/><line x1="19.671393868793352" y1="78.40316751363457" x2="13.224304616341351" y2="56.100747819750474"/><line x1="18.235983846902712" y1="78.81810977783789" x2="11.90461018440782" y2="56.91598509326629"/><line x1="16.800573825012076" y1="79.23305204204121" x2="10.584915752474288" y2="57.73122236678212"/><line x1="15.365163803121437" y1="79.64799430624454" x2="9.265221320540757" y2="58.54645964029794"/><line x1="13.929753781230799" y1="80.06293657044786" x2="8.002418051558577" y2="59.55850054772214"/><line x1="12.494343759340163" y1="80.47787883465118" x2="7.265059520125485" y2="62.38821274894852"/><line x1="11.058933737449522" y1="80.8928210988545" x2="7.937412411647147" y2="70.09454051588031"/><line x1="9.183434592378635" y1="79.78536279691917" x2="8.609765303168812" y2="77.8008682828121"/><line x1="9.598323958186219" y1="85.28685446701925" x2="9.14354748673489" y2="83.71364594825187"/><line x1="11.450138431297097" y1="85.90165520619469" x2="10.667303895073195" y2="83.19359522841597"/><line x1="13.27440997948434" y1="86.42117668876443" x2="12.191060303411499" y2="82.67354450858006"/><line x1="15.088223737652251" y1="86.90452153208683" x2="13.729080022926562" y2="82.2028348695998"/><line x1="16.90203749582017" y1="87.38786637540922" x2="15.274064197009055" y2="81.75621737245588"/><line x1="18.715851253988088" y1="87.87121121873162" x2="16.81904837109155" y2="81.30959987531197"/><line x1="20.529665012156002" y1="88.354556062054" x2="18.36403254517404" y2="80.86298237816806"/><line x1="22.343478770323923" y1="88.8379009053764" x2="19.909016719256535" y2="80.41636488102414"/><line x1="24.157292528491844" y1="89.3212457486988" x2="21.454000893339032" y2="79.96974738388022"/><line x1="25.971106286659754" y1="89.80459059202119" x2="22.99898506742152" y2="79.52312988673631"/><line x1="27.784920044827672" y1="90.28793543534358" x2="24.543969241504012" y2="79.0765123895924"/><line x1="29.598733802995593" y1="90.77128027866597" x2="26.08895341558651" y2="78.62989489244848"/><line x1="31.412547561163507" y1="91.25462512198837" x2="27.633937589669" y2="78.18327739530457"/><line x1="33.226361319331424" y1="91.73796996531075" x2="29.178921763751493" y2="77.73665989816065"/><line x1="34.89670732801068" y1="91.72501673731105" x2="30.72390593783399" y2="77.29004240101675"/><line x1="36.54287247976933" y1="91.62841465655262" x2="32.26889011191648" y2="76.84342490387283"/><line x1="38.039002173015625" y1="91.01279482473166" x2="33.81387428599897" y2="76.39680740672891"/><line x1="39.39455174464038" y1="89.91086609439057" x2="35.358858460081464" y2="75.95018990958499"/><line x1="40.75010131626514" y1="88.80893736404948" x2="36.90384263416396" y2="75.50357241244109"/><line x1="42.105650887889894" y1="87.7070086337084" x2="38.44882680824645" y2="75.05695491529717"/><line x1="43.46120045951464" y1="86.60507990336731" x2="39.993810982328945" y2="74.61033741815325"/><line x1="44.81675003113941" y1="85.50315117302621" x2="41.55499047239972" y2="74.21974438726104"/><line x1="46.172299602764156" y1="84.40122244268512" x2="43.22353958123913" y2="74.20057514257432"/><line x1="47.303890626273414" y1="82.52455377335451" x2="44.89208869007854" y2="74.18140589788759"/><path d="M 23.078236736106906,74.16740181089096 L 23.51260538831226,75.6700135483764 L 21.978177230551818,76.11357955692344 L 20.29791218868835,76.59930347573389 L 19.863543536482997,75.09669173824845 L 19.384614938849744,73.43993375498371 L 21.06487998071321,72.95420983617326 L 21.543808578346464,74.610967819438 Z" fill="#99948A" stroke="#1A1917" stroke-width="0.3"/></g><g fill-rule="nonzero" stroke="#99948A" stroke-width="0.3" stroke-linecap="butt"><line x1="81.89472224660369" y1="40.096267289857614" x2="73.75467687133859" y2="55.58810793403546"/><line x1="80.69714655129796" y1="39.15972360230698" x2="71.92960010284821" y2="55.845801647097666"/><line x1="79.17070451551963" y1="38.84906646759016" x2="70.32409110893451" y2="55.685621894162416"/><line x1="77.61018921304644" y1="38.603256344594854" x2="68.9999865742621" y2="54.98988332820457"/><line x1="76.04857816285494" y1="38.3595316091196" x2="67.67588203958968" y2="54.294144762246724"/><line x1="74.48696711266344" y1="38.11580687364434" x2="66.35177750491727" y2="53.59840619628888"/><line x1="72.92535606247195" y1="37.87208213816908" x2="65.02767297024485" y2="52.90266763033104"/><line x1="71.36374501228045" y1="37.62835740269382" x2="63.70356843557244" y2="52.20692906437319"/><line x1="69.80213396208894" y1="37.38463266721856" x2="62.37946390090003" y2="51.511190498415345"/><line x1="68.24052291189744" y1="37.1409079317433" x2="61.05535936622762" y2="50.815451932457506"/><line x1="66.67891186170596" y1="36.897183196268045" x2="59.731254831555205" y2="50.11971336649966"/><line x1="65.11730081151444" y1="36.653458460792784" x2="58.40715029688279" y2="49.423974800541814"/><line x1="63.555689761322945" y1="36.40973372531752" x2="57.083045762210375" y2="48.728236234583974"/><line x1="61.99407871113146" y1="36.16600898984226" x2="55.75894122753797" y2="48.032497668626135"/><line x1="60.35294256507629" y1="36.07363354734227" x2="54.43483669286555" y2="47.33675910266828"/><line x1="58.48371649472104" y1="36.41535061869198" x2="53.110732158193144" y2="46.64102053671044"/><line x1="55.450633366062746" y1="38.97207844841169" x2="51.91268135333787" y2="45.70538106051134"/><line x1="51.550354793400025" y1="43.1792213564916" x2="50.95930464075395" y2="44.30408668037953"/><line x1="49.94903939101384" y1="47.57791166003492" x2="70.22820438790895" y2="58.233412645274676"/><line x1="47.186279234913805" y1="47.88665165772662" x2="71.44318634854191" y2="60.632220702985975"/><line x1="46.08884964872327" y1="49.07042430745982" x2="70.71832284051398" y2="62.01175477650247"/><line x1="44.99142006253273" y1="50.25419695719302" x2="69.99345933248604" y2="63.39128885001897"/><line x1="43.893990476342196" y1="51.437969606926224" x2="69.26859582445809" y2="64.77082292353546"/><line x1="42.79656089015165" y1="52.62174225665943" x2="68.54373231643015" y2="66.15035699705196"/><line x1="41.978873533470136" y1="53.95250289147993" x2="67.81886880840221" y2="67.52989107056845"/><line x1="41.94184048424092" y1="55.69345116190887" x2="67.09400530037428" y2="68.90942514408495"/><line x1="42.54187152778811" y1="57.769138908508495" x2="66.36914179234633" y2="70.28895921760144"/><line x1="43.14190257133531" y1="59.844826655108136" x2="65.64427828431839" y2="71.66849329111794"/><line x1="63.215012671463086" y1="72.152464933439" x2="44.82269276025308" y2="62.48838936796335"/><line x1="59.84450283101003" y1="82.06144925229924" x2="63.24516385766904" y2="75.58943389106403"/><line x1="58.09373316912007" y1="82.54786069275588" x2="62.31313225877455" y2="74.51765259222827"/><line x1="56.60671151188167" y1="82.53231644747423" x2="61.24062701207544" y2="73.71321567123937"/><line x1="55.119689854643276" y1="82.51677220219257" x2="60.06892946505805" y2="73.09755795709984"/><line x1="53.632668197404875" y1="82.50122795691092" x2="58.89723191804065" y2="72.4819002429603"/><line x1="52.145646540166474" y1="82.48568371162926" x2="57.72553437102326" y2="71.86624252882076"/><line x1="50.675267130524745" y1="82.43846654121725" x2="56.553836824005856" y2="71.25058481468123"/><line x1="49.743235531630255" y1="81.3666852423815" x2="55.38213927698846" y2="70.6349271005417"/><line x1="48.96752379416797" y1="79.99740162369548" x2="54.210441729971066" y2="70.01926938640216"/><line x1="48.43687408999136" y1="78.16172478573625" x2="53.03874418295367" y2="69.40361167226263"/><line x1="47.90622438581477" y1="76.32604794777701" x2="51.86704663593627" y2="68.7879539581231"/><line x1="47.37557468163816" y1="74.49037110981779" x2="50.695349088918874" y2="68.17229624398357"/><line x1="46.84492497746156" y1="72.65469427185856" x2="49.52365154190148" y2="67.55663852984404"/><line x1="46.31427527328496" y1="70.81901743389932" x2="48.351953994884084" y2="66.94098081570449"/><line x1="45.78362556910836" y1="68.98334059594008" x2="47.18025644786668" y2="66.32532310156496"/><path d="M 72.55197927371636,56.77171832143536 L 71.13803047422375,56.028771911739554 L 69.5896955282333,55.21521353569161 L 70.66078672007065,53.17675142714517 L 71.16297270056698,52.22100918924197 L 72.71130764655743,53.03456756528991 L 72.2091216660611,53.990309803193114 L 73.6230704655537,54.73325621288892 Z" fill="#99948A" stroke="#1A1917" stroke-width="0.3"/></g><g fill-rule="nonzero" stroke="#99948A" stroke-width="0.3" stroke-linecap="butt"><line x1="65.43041521422631" y1="84.66355122412274" x2="62.2926041651319" y2="83.01481722889953"/><line x1="69.44808893869646" y1="84.96737257685184" x2="62.83264342579125" y2="81.49134749439139"/><line x1="73.25862876533347" y1="85.16235732547148" x2="63.50593493649628" y2="80.03789393075935"/><line x1="77.06916859197048" y1="85.35734207409111" x2="64.25007760394458" y2="78.6216684566763"/><line x1="80.87970841860749" y1="85.55232682271073" x2="64.99422027139286" y2="77.20544298259325"/><line x1="65.73836293884116" y1="75.7892175085102" x2="83.47756662553513" y2="85.11011915263"/><line x1="66.48250560628944" y1="74.37299203442717" x2="85.17882785691444" y2="84.19680283691318"/><line x1="67.22664827373774" y1="72.95676656034412" x2="85.92297052436274" y2="82.78057736283013"/><line x1="67.97079094118602" y1="71.54054108626107" x2="86.66711319181101" y2="81.36435188874708"/><line x1="68.71493360863431" y1="70.12431561217802" x2="87.41125585925931" y2="79.94812641466405"/><line x1="69.45907627608261" y1="68.70809013809497" x2="88.1553985267076" y2="78.53190094058098"/><line x1="70.2032189435309" y1="67.29186466401192" x2="88.89954119415589" y2="77.11567546649793"/><line x1="70.94736161097919" y1="65.87563918992888" x2="89.64368386160417" y2="75.69944999241488"/><line x1="71.69150427842747" y1="64.45941371584584" x2="90.38782652905246" y2="74.28322451833185"/><line x1="72.86153066318279" y1="63.266964929316615" x2="91.13196919650076" y2="72.8669990442488"/><line x1="74.82144065713702" y1="62.489553230228225" x2="90.34782795049549" y2="70.64775082499732"/><line x1="111.37452133532915" y1="81.69603373569568" x2="95.14632934956236" y2="73.16907931131612"/><line x1="111.51333461786753" y1="83.73537274297001" x2="92.83690299759816" y2="73.92201328951066"/><line x1="110.77350135064701" y1="85.3130349909662" x2="92.02721963634494" y2="75.46297344716443"/><line x1="109.53375600656229" y1="86.62802302982332" x2="91.2175362750917" y2="77.0039336048182"/><line x1="106.21102729820183" y1="86.84852659194405" x2="90.40785291383847" y2="78.54489376247199"/><line x1="102.06487249484869" y1="86.63636847554841" x2="89.59816955258523" y2="80.08585392012574"/><line x1="97.91871769149553" y1="86.42421035915277" x2="88.78848619133201" y2="81.62681407777953"/><line x1="93.77256288814233" y1="86.21205224275712" x2="87.97880283007878" y2="83.16777423543331"/><line x1="89.62640808478918" y1="85.99989412636148" x2="88.05855019086951" y2="85.17607759664074"/><line x1="75.66913345401204" y1="59.99789987448889" x2="88.12945452991244" y2="66.54506113684798"/><line x1="75.27468577149105" y1="58.23315969571461" x2="89.65384423366083" y2="65.7885564383333"/><line x1="75.67176708616996" y1="56.88432115839356" x2="90.21941552419558" y2="64.52824941125982"/><line x1="76.31307410749369" y1="55.663808775437005" x2="90.63261303424211" y2="63.18787898076883"/><line x1="76.9543811288174" y1="54.44329639248044" x2="91.04581054428866" y2="61.84750855027783"/><line x1="77.59568815014111" y1="53.22278400952388" x2="91.45900805433519" y2="60.50713811978683"/><line x1="78.23699517146483" y1="52.00227162656732" x2="91.87220556438172" y2="59.16676768929584"/><line x1="78.87830219278854" y1="50.78175924361076" x2="92.28540307442825" y2="57.82639725880484"/><line x1="79.51960921411225" y1="49.5612468606542" x2="92.69860058447479" y2="56.48602682831384"/><line x1="80.16091623543596" y1="48.34073447769764" x2="93.11179809452132" y2="55.14565639782285"/><line x1="80.80222325675967" y1="47.12022209474108" x2="93.52499560456785" y2="53.805285967331855"/><line x1="81.44353027808339" y1="45.89970971178452" x2="93.93819311461439" y2="52.46491553684085"/><line x1="82.0848372994071" y1="44.679197328827954" x2="94.3310838454506" y2="51.11387509572981"/><line x1="82.84723826610532" y1="43.522312647231004" x2="93.9366361629296" y2="49.34913491695553"/><line x1="84.3716279698537" y1="42.76580794871633" x2="87.20199049046626" y2="44.25299593853692"/><line x1="111.56896756968443" y1="78.86113797369359" x2="93.04739246159433" y2="69.12914645221512"/><line x1="113.98120239866198" y1="78.47275209138338" x2="91.73059646225997" y2="66.78137557199447"/><line x1="114.60420333906738" y1="77.14422969628168" x2="92.07275232897581" y2="65.30528571246033"/><line x1="115.22720427947279" y1="75.81570730117997" x2="92.51205289425658" y2="63.88023964252147"/><line x1="115.85020521987818" y1="74.48718490607826" x2="92.95135345953736" y2="62.4551935725826"/><line x1="116.47320616028358" y1="73.15866251097655" x2="93.39065402481815" y2="61.030147502643736"/><line x1="117.09620710068899" y1="71.83014011587484" x2="93.82995459009892" y2="59.60510143270487"/><line x1="117.71920804109439" y1="70.50161772077313" x2="94.26925515537971" y2="58.18005536276599"/><line x1="118.3422089814998" y1="69.17309532567141" x2="94.70855572066048" y2="56.755009292827125"/><line x1="118.9652099219052" y1="67.8445729305697" x2="95.14785628594126" y2="55.32996322288826"/><line x1="118.4648875132665" y1="65.92581059934069" x2="95.58715685122205" y2="53.904917152949395"/><line x1="113.67228910864502" y1="61.75171127020679" x2="96.02645741650282" y2="52.47987108301053"/><line x1="101.4634506268477" y1="53.68081671004535" x2="98.41386453344806" y2="52.078439707453356"/></g><g id="labels" style="font: bold italic 1px &quot;Archivo Narrow&quot;, sans-serif" fill="#1A1917"><text text-anchor="middle" stroke="#CCC5B8" stroke-width="0.5874650225957172" x="13.096379552715705" y="-4.521702732340429">Merchant</text><text text-anchor="middle" x="13.096379552715705" y="-4.521702732340429">Merchant</text><text text-anchor="middle" stroke="#CCC5B8" stroke-width="0.5874650225957172" x="10.755410222994652" y="13.306230452183174">Craftsmen</text><text text-anchor="middle" x="10.755410222994652" y="13.306230452183174">Craftsmen</text><text text-anchor="middle" stroke="#CCC5B8" stroke-width="0.5874650225957172" x="-5.009434466652148" y="-18.664803425156013">Craftsmen</text><text text-anchor="middle" x="-5.009434466652148" y="-18.664803425156013">Craftsmen</text><text text-anchor="middle" stroke="#CCC5B8" stroke-width="0.5874650225957172" x="23.705762110429383" y="-14.940677928584403">Craftsmen</text><text text-anchor="middle" x="23.705762110429383" y="-14.940677928584403">Craftsmen</text><text text-anchor="middle" stroke="#CCC5B8" stroke-width="0.5874650225957172" x="-19.697640144959006" y="8.569726380573293">Gate</text><text text-anchor="middle" x="-19.697640144959006" y="8.569726380573293">Gate</text></g></g></svg>