<?xml version="1.0" encoding="UTF-8" standalone="no"?>
<svg
   xmlns:dc="http://purl.org/dc/elements/1.1/"
   xmlns:cc="http://creativecommons.org/ns#"
   xmlns:rdf="http://www.w3.org/1999/02/22-rdf-syntax-ns#"
   xmlns:svg="http://www.w3.org/2000/svg"
   xmlns="http://www.w3.org/2000/svg"
   xmlns:sodipodi="http://sodipodi.sourceforge.net/DTD/sodipodi-0.dtd"
   xmlns:inkscape="http://www.inkscape.org/namespaces/inkscape"
   width="2527.1848"
   height="2349.6821"
   id="svg2"
   version="1.1"
   inkscape:version="0.91 r13725"
   sodipodi:docname="town-map2.svg">
  <metadata
     id="metadata1110">
    <rdf:RDF>
      <cc:Work
         rdf:about="">
        <dc:format>image/svg+xml</dc:format>
        <dc:type
           rdf:resource="http://purl.org/dc/dcmitype/StillImage" />
        <dc:title />
      </cc:Work>
    </rdf:RDF>
  </metadata>
  <defs
     id="defs1108" />
  <sodipodi:namedview
     pagecolor="#ffffff"
     bordercolor="#666666"
     borderopacity="1"
     objecttolerance="10"
     gridtolerance="10"
     guidetolerance="10"
     inkscape:pageopacity="0"
     inkscape:pageshadow="2"
     inkscape:window-width="1366"
     inkscape:window-height="704"
     id="namedview1106"
     showgrid="false"
     inkscape:zoom="0.20538376"
     inkscape:cx="865.79287"
     inkscape:cy="1120.4124"
     inkscape:window-x="0"
     inkscape:window-y="27"
     inkscape:window-maximized="1"
     inkscape:current-layer="svg2"
     fit-margin-top="0"
     fit-margin-left="0"
     fit-margin-right="0"
     fit-margin-bottom="0" />
  <rect
     x="0"
     y="0"
     width="2527.1848"
     height="2349.6821"
     id="background"
     style="fill:#ccc5b8" />
  <g
     id="map"
     transform="matrix(10.418402,0,0,11.093889,1350.7341,1382.8693)">
    <g
       id="g6"
       style="fill:none">
      <path
         d="m -51.303854,-16.083103 -22.444,-13.144706 c -5.884804,-3.446535 -13.251751,-6.184057 -21.49212,-8.833482 -3.347797,-1.076376 -6.783386,-1.389062 -9.935746,-1.271135 -4.9104,0.183694 -11.71869,0.04861 -19.65739,2.378189 -9.29787,2.728417 -17.65065,10.283552 -28.18614,11.661273 -6.79146,0.888116 -16.11276,-0.41509 -26.02575,-4.572009 -17.15728,-7.194743 -34.0086,-18.580854 -53.10336,-28.610037 -11.57471,-6.07941 -23.21283,-12.061916 -34.96141,-17.644408 -17.05229,-8.102622 -38.44868,-11.259749 -54.42622,-24.829292 -13.9112,-11.81463 -13.9112,-11.81463 -29.32754,-46.30185"
         id="path8"
         inkscape:connector-curvature="0"
         style="stroke:#67635c;stroke-width:2.29999995;stroke-linecap:butt;stroke-linejoin:round" />
      <path
         d="m -51.303854,-16.083103 -22.444,-13.144706 c -5.884804,-3.446535 -13.251751,-6.184057 -21.49212,-8.833482 -3.347797,-1.076376 -6.783386,-1.389062 -9.935746,-1.271135 -4.9104,0.183694 -11.71869,0.04861 -19.65739,2.378189 -9.29787,2.728417 -17.65065,10.283552 -28.18614,11.661273 -6.79146,0.888116 -16.11276,-0.41509 -26.02575,-4.572009 -17.15728,-7.194743 -34.0086,-18.580854 -53.10336,-28.610037 -11.57471,-6.07941 -23.21283,-12.061916 -34.96141,-17.644408 -17.05229,-8.102622 -38.44868,-11.259749 -54.42622,-24.829292 -13.9112,-11.81463 -13.9112,-11.81463 -29.32754,-46.30185"
         id="path10"
         inkscape:connector-curvature="0"
         style="stroke:#ccc5b8;stroke-width:1.70000005;stroke-linecap:round;stroke-linejoin:round" />
    </g>
    <g
       id="g12"
       style="fill:none">
      <path
         d="m 20.82014,-52.394294 7.705303,-12.193662 c 1.616617,-2.558301 6.109465,-6.686621 11.505462,-13.839758 4.925743,-6.52975 9.208035,-13.633303 14.213546,-20.25433 3.611811,-4.777516 9.3222,-8.447716 11.921967,-14.316346 3.356712,-7.57734 3.338452,-17.72458 6.890271,-28.14981 3.743282,-10.98721 7.191322,-21.73165 13.015416,-30.277 5.158117,-7.5682 12.788945,-11.23058 17.955425,-15.16467 3.79837,-2.89233 9.47362,-4.17207 13.06561,-8.45679 4.54803,-5.42513 15.79341,-12.89337 16.26994,-26.53624 0.73073,-20.92072 0.73073,-20.92072 -13.19624,-61.46261"
         id="path14"
         inkscape:connector-curvature="0"
         style="stroke:#67635c;stroke-width:2.29999995;stroke-linecap:butt;stroke-linejoin:round" />
      <path
         d="m 20.82014,-52.394294 7.705303,-12.193662 c 1.616617,-2.558301 6.109465,-6.686621 11.505462,-13.839758 4.925743,-6.52975 9.208035,-13.633303 14.213546,-20.25433 3.611811,-4.777516 9.3222,-8.447716 11.921967,-14.316346 3.356712,-7.57734 3.338452,-17.72458 6.890271,-28.14981 3.743282,-10.98721 7.191322,-21.73165 13.015416,-30.277 5.158117,-7.5682 12.788945,-11.23058 17.955425,-15.16467 3.79837,-2.89233 9.47362,-4.17207 13.06561,-8.45679 4.54803,-5.42513 15.79341,-12.89337 16.26994,-26.53624 0.73073,-20.92072 0.73073,-20.92072 -13.19624,-61.46261"
         id="path16"
         inkscape:connector-curvature="0"
         style="stroke:#ccc5b8;stroke-width:1.70000005;stroke-linecap:round;stroke-linejoin:round" />
    </g>
    <g
       id="g18"
       style="fill:none">
      <path
         d="m -12.567341,-59.137009 10.7749289,-23.599879 c 2.30198497,-5.041942 7.3922372,-14.052268 3.8216936,-24.258722 -3.1595308,-9.03157 -14.2747315,-14.19915 -20.5343805,-23.51475 -5.71933,-8.51149 -11.081656,-17.0507 -12.576724,-25.76112 -1.167392,-6.80135 2.370627,-15.05742 3.921279,-24.66641 2.468595,-15.29725 6.941717,-30.65717 7.575785,-46.57794 0.393233,-9.87365 -1.959738,-19.24941 -4.622717,-27.5704 -4.250889,-13.28273 -11.935768,-23.98248 -15.375516,-34.91796 -2.117635,-6.73229 -2.700236,-13.04628 -0.806721,-16.52783 2.911634,-5.35353 2.911634,-5.35353 15.276307,-10.07698"
         id="path20"
         inkscape:connector-curvature="0"
         style="stroke:#67635c;stroke-width:2.29999995;stroke-linecap:butt;stroke-linejoin:round" />
      <path
         d="m -12.567341,-59.137009 10.7749289,-23.599879 c 2.30198497,-5.041942 7.3922372,-14.052268 3.8216936,-24.258722 -3.1595308,-9.03157 -14.2747315,-14.19915 -20.5343805,-23.51475 -5.71933,-8.51149 -11.081656,-17.0507 -12.576724,-25.76112 -1.167392,-6.80135 2.370627,-15.05742 3.921279,-24.66641 2.468595,-15.29725 6.941717,-30.65717 7.575785,-46.57794 0.393233,-9.87365 -1.959738,-19.24941 -4.622717,-27.5704 -4.250889,-13.28273 -11.935768,-23.98248 -15.375516,-34.91796 -2.117635,-6.73229 -2.700236,-13.04628 -0.806721,-16.52783 2.911634,-5.35353 2.911634,-5.35353 15.276307,-10.07698"
         id="path22"
         inkscape:connector-curvature="0"
         style="stroke:#ccc5b8;stroke-width:1.70000005;stroke-linecap:round;stroke-linejoin:round" />
    </g>
    <g
       id="g24"
       style="fill:none">
      <path
         d="m -207.55787,172.07687 c 3.21645,-14.38042 3.21645,-14.38042 6.57964,-19.57661 2.89712,-4.47609 9.41209,-7.87557 13.28737,-11.11821 4.54789,-3.80545 9.6721,-8.51525 13.28737,-11.11822 2.5611,-1.84397 5.93741,-3.09965 7.83784,-4.09178 1.77288,-0.92554 5.27108,-2.01812 7.83784,-4.09177 3.98042,-3.21574 9.64563,-9.24707 14.85716,-14.24325 5.12364,-4.91193 12.33034,-9.654045 14.85717,-14.243254 1.97144,-3.580526 -0.14834,-9.042932 -0.20294,-12.371673 -0.0624,-3.802394 -0.52151,-8.772069 -0.20294,-12.371673 0.30425,-3.437887 1.60787,-7.807845 2.27595,-11.052053 0.62155,-3.01829 1.79333,-7.401836 2.27595,-11.052054 0.57038,-4.314045 0.85227,-10.619012 1.25845,-15.679908 0.44109,-5.495846 -0.30239,-12.089246 1.25846,-15.679909 1.1935,-2.745598 5.59817,-3.51995 7.6479,-4.808751 2.26397,-1.4235119 5.10777,-3.7795518 7.6479,-4.8087506 2.63848,-1.069052 6.5883,-1.4852297 9.513629,-2.1446994 2.547467,-0.5742864 7.283985,0.1980759 9.513633,-2.1446994 2.913098,-3.0609013 4.641959,-9.9822262 7.139817,-15.3537076 2.255216,-4.849692 5.199237,-10.962386 7.139817,-15.353707 1.73043,-3.915774 3.697735,-8.944345 5.147601,-12.451386 1.749122,-4.230901 4.337276,-9.04874 5.147601,-12.451386 0.606458,-2.546585 -0.281938,-5.649628 -0.378088,-7.576336 -0.09032,-1.809859 -0.424177,-4.841929 -0.378089,-7.576337 0.06622,-3.928499 0.501766,-10.060142 0.763957,-15.316931 0.239265,-4.797154 1.35662,-10.967864 0.763956,-15.316932 -0.551444,-4.046583 -3.223106,-8.825873 -4.548617,-12.455533 -1.319679,-3.61369 -4.965733,-8.37581 -4.548617,-12.45553 0.474728,-4.64318 4.972617,-10.49447 7.424019,-15.66804 2.685876,-5.66842 6.328203,-11.69665 7.424019,-15.66804 0.655411,-2.37531 -1.07053,-4.92628 -1.366139,-6.28659 -0.325424,-1.49751 -0.294476,-4.2248 -1.36614,-6.28659 -1.560968,-3.00317 -4.983679,-7.19921 -7.631609,-11.02429 -2.019279,-2.91697 -4.760514,-7.57338 -7.631608,-11.0243 -3.567424,-4.28787 -9.444433,-10.109 -14.070263,-15.06033 -4.588502,-4.91138 -9.665783,-11.54951 -14.070259,-15.06034 -3.69038,-2.94161 -9.40551,-4.70287 -12.94169,-6.47101 -3.87862,-1.93936 -3.87862,-1.93936 -12.94169,-6.471"
         id="path26"
         inkscape:connector-curvature="0"
         style="stroke:#99948a;stroke-width:8.05087662;stroke-linecap:butt;stroke-linejoin:round" />
      <path
         d="m -207.55787,172.07687 c 3.96383,-15.53513 3.96383,-15.53513 6.57964,-19.57661 2.25332,-3.48141 10.27327,-8.59616 13.28737,-11.11821 3.53725,-2.9598 10.47549,-9.09369 13.28737,-11.11822 1.99197,-1.4342 6.35973,-3.32012 7.83784,-4.09178 1.37891,-0.71986 5.84147,-2.47893 7.83784,-4.09177 3.09588,-2.50113 10.80375,-10.35733 14.85716,-14.24325 3.98505,-3.82039 12.89186,-10.673869 14.85717,-14.243254 1.53334,-2.784853 -0.16047,-9.782652 -0.20294,-12.371673 -0.0485,-2.957417 -0.45071,-9.571981 -0.20294,-12.371673 0.23664,-2.673912 1.75633,-8.52878 2.27595,-11.052053 0.48343,-2.347559 1.90058,-8.212996 2.27595,-11.052054 0.44363,-3.355368 0.94253,-11.743656 1.25845,-15.679908 0.34307,-4.274547 0.0445,-12.887171 1.25846,-15.679909 0.92828,-2.135465 6.05367,-3.80635 7.6479,-4.808751 1.76087,-1.1071758 5.67224,-4.0082627 7.6479,-4.8087506 2.05215,-0.8314849 7.238373,-1.6317785 9.513629,-2.1446994 1.981363,-0.4466672 7.779463,-0.3225408 9.513633,-2.1446994 2.265743,-2.38070101 5.197038,-11.1758887 7.139817,-15.3537076 1.754057,-3.771983 5.630477,-11.938235 7.139817,-15.353707 1.34589,-3.045602 4.019927,-9.723687 5.147601,-12.451386 1.360429,-3.290701 4.517349,-9.804884 5.147601,-12.451386 0.47169,-1.980677 -0.303305,-6.077786 -0.378088,-7.576336 -0.07025,-1.407668 -0.413935,-5.449575 -0.378089,-7.576337 0.0515,-3.055499 0.56003,-11.228317 0.763957,-15.316931 0.186095,-3.73112 1.224917,-11.934323 0.763956,-15.316932 -0.428901,-3.147343 -3.517664,-9.632463 -4.548617,-12.455533 -1.026417,-2.81065 -4.873041,-9.28242 -4.548617,-12.45553 0.369233,-3.61136 5.517373,-11.64415 7.424019,-15.66804 2.089015,-4.40877 6.571718,-12.57918 7.424019,-15.66804 0.509764,-1.84746 -1.136221,-5.22857 -1.366139,-6.28659 -0.253108,-1.16473 -0.532623,-4.68298 -1.36614,-6.28659 -1.214086,-2.3358 -5.572108,-8.04923 -7.631609,-11.02429 -1.57055,-2.26875 -5.398535,-8.34025 -7.631608,-11.0243 -2.774664,-3.33501 -10.472395,-11.2093 -14.070263,-15.06033 -3.568835,-3.81996 -10.644557,-12.32969 -14.070259,-15.06034 -2.87029,-2.28792 -10.19132,-5.09579 -12.94169,-6.47101 -3.01671,-1.50839 -3.01671,-1.50839 -12.94169,-6.471"
         id="path28"
         inkscape:connector-curvature="0"
         style="stroke:#67635c;stroke-width:7.45087671;stroke-linecap:round;stroke-linejoin:round" />
      <path
         d="m -207.55787,172.07687 c 2.84276,-13.80307 2.84276,-13.80307 6.57964,-19.57661 3.21903,-4.97344 8.98151,-7.51528 13.28737,-11.11821 5.05321,-4.22828 9.2704,-8.22603 13.28737,-11.11822 2.84566,-2.04886 5.72625,-2.98942 7.83784,-4.09178 1.96987,-1.02837 4.98589,-1.78771 7.83784,-4.09177 4.42269,-3.57304 9.06657,-8.69193 14.85716,-14.24325 5.69293,-5.4577 12.04958,-9.144133 14.85717,-14.243254 2.19049,-3.978362 -0.14227,-8.673072 -0.20294,-12.371673 -0.0693,-4.224882 -0.5569,-8.372113 -0.20294,-12.371673 0.33806,-3.819875 1.53364,-7.447378 2.27595,-11.052053 0.69062,-3.353655 1.7397,-6.996257 2.27595,-11.052054 0.63376,-4.793384 0.80714,-10.056691 1.25845,-15.679908 0.4901,-6.106496 -0.47582,-11.690284 1.25846,-15.679909 1.32611,-3.050665 5.37043,-3.37675 7.6479,-4.808751 2.51552,-1.5816799 4.82554,-3.6651964 7.6479,-4.8087506 2.93165,-1.1878355 6.26326,-1.4119552 9.513629,-2.1446994 2.830519,-0.638096 7.036247,0.4583843 9.513633,-2.1446994 3.236775,-3.4010014 4.364419,-9.385395 7.139817,-15.3537076 2.505795,-5.388547 4.983617,-10.474461 7.139817,-15.353707 1.922699,-4.35086 3.536638,-8.554674 5.147601,-12.451386 1.943469,-4.701001 4.24724,-8.670668 5.147601,-12.451386 0.673842,-2.829539 -0.271255,-5.43555 -0.378088,-7.576336 -0.100355,-2.010955 -0.429298,-4.538106 -0.378089,-7.576337 0.07357,-4.364999 0.472634,-9.476054 0.763957,-15.316931 0.26585,-5.330171 1.422472,-10.484634 0.763956,-15.316932 -0.612715,-4.496203 -3.075827,-8.422573 -4.548617,-12.455533 -1.46631,-4.01521 -5.01208,-7.92251 -4.548617,-12.45553 0.527475,-5.15909 4.700239,-9.91963 7.424019,-15.66804 2.984307,-6.29824 6.206446,-11.25538 7.424019,-15.66804 0.728234,-2.63923 -1.037685,-4.77514 -1.366139,-6.28659 -0.361583,-1.6639 -0.175402,-3.99572 -1.36614,-6.28659 -1.734409,-3.33685 -4.689465,-6.7742 -7.631609,-11.02429 -2.243643,-3.24107 -4.441504,-7.18994 -7.631608,-11.0243 -3.963805,-4.7643 -8.930451,-9.55885 -14.070263,-15.06033 -5.098336,-5.45709 -9.176397,-11.15942 -14.070259,-15.06034 -4.10042,-3.26846 -9.0126,-4.50641 -12.94169,-6.47101 -4.30958,-2.15484 -4.30958,-2.15484 -12.94169,-6.471"
         id="path30"
         inkscape:connector-curvature="0"
         style="stroke:#ccc5b8;stroke-width:4.83052588;stroke-linecap:butt;stroke-linejoin:round" />
      <path
         d="m -207.55787,172.07687 c 2.84276,-13.80307 2.84276,-13.80307 6.57964,-19.57661 3.21903,-4.97344 8.98151,-7.51528 13.28737,-11.11821 5.05321,-4.22828 9.2704,-8.22603 13.28737,-11.11822 2.84566,-2.04886 5.72625,-2.98942 7.83784,-4.09178 1.96987,-1.02837 4.98589,-1.78771 7.83784,-4.09177 4.42269,-3.57304 9.06657,-8.69193 14.85716,-14.24325 5.69293,-5.4577 12.04958,-9.144133 14.85717,-14.243254 2.19049,-3.978362 -0.14227,-8.673072 -0.20294,-12.371673 -0.0693,-4.224882 -0.5569,-8.372113 -0.20294,-12.371673 0.33806,-3.819875 1.53364,-7.447378 2.27595,-11.052053 0.69062,-3.353655 1.7397,-6.996257 2.27595,-11.052054 0.63376,-4.793384 0.80714,-10.056691 1.25845,-15.679908 0.4901,-6.106496 -0.47582,-11.690284 1.25846,-15.679909 1.32611,-3.050665 5.37043,-3.37675 7.6479,-4.808751 2.51552,-1.5816799 4.82554,-3.6651964 7.6479,-4.8087506 2.93165,-1.1878355 6.26326,-1.4119552 9.513629,-2.1446994 2.830519,-0.638096 7.036247,0.4583843 9.513633,-2.1446994 3.236775,-3.4010014 4.364419,-9.385395 7.139817,-15.3537076 2.505795,-5.388547 4.983617,-10.474461 7.139817,-15.353707 1.922699,-4.35086 3.536638,-8.554674 5.147601,-12.451386 1.943469,-4.701001 4.24724,-8.670668 5.147601,-12.451386 0.673842,-2.829539 -0.271255,-5.43555 -0.378088,-7.576336 -0.100355,-2.010955 -0.429298,-4.538106 -0.378089,-7.576337 0.07357,-4.364999 0.472634,-9.476054 0.763957,-15.316931 0.26585,-5.330171 1.422472,-10.484634 0.763956,-15.316932 -0.612715,-4.496203 -3.075827,-8.422573 -4.548617,-12.455533 -1.46631,-4.01521 -5.01208,-7.92251 -4.548617,-12.45553 0.527475,-5.15909 4.700239,-9.91963 7.424019,-15.66804 2.984307,-6.29824 6.206446,-11.25538 7.424019,-15.66804 0.728234,-2.63923 -1.037685,-4.77514 -1.366139,-6.28659 -0.361583,-1.6639 -0.175402,-3.99572 -1.36614,-6.28659 -1.734409,-3.33685 -4.689465,-6.7742 -7.631609,-11.02429 -2.243643,-3.24107 -4.441504,-7.18994 -7.631608,-11.0243 -3.963805,-4.7643 -8.930451,-9.55885 -14.070263,-15.06033 -5.098336,-5.45709 -9.176397,-11.15942 -14.070259,-15.06034 -4.10042,-3.26846 -9.0126,-4.50641 -12.94169,-6.47101 -4.30958,-2.15484 -4.30958,-2.15484 -12.94169,-6.471"
         id="path32"
         inkscape:connector-curvature="0"
         style="stroke:#67635c;stroke-width:4.53052568;stroke-linecap:round;stroke-linejoin:round" />
      <g
         id="g34"
         style="fill:none">
        <line
           x1="-77.93354"
           y1="-30.948168"
           x2="-69.84285"
           y2="-26.940777"
           id="line36"
           style="stroke:#1a1917;stroke-width:2.29999995;stroke-linecap:butt;stroke-linejoin:round" />
        <line
           x1="-77.93354"
           y1="-30.948168"
           x2="-69.84285"
           y2="-26.940777"
           id="line38"
           style="stroke:#ccc5b8;stroke-width:1.70000005;stroke-linecap:round;stroke-linejoin:round" />
      </g>
    </g>
    <g
       id="g40"
       style="fill:#99948a;stroke:#1a1917;stroke-width:0.30000001">
      <polygon
         points="10.645006,-5.4733436 7.0347779,2.7130703 -8.7237415,-4.2364751 -7.9027045,-5.8352393 "
         id="polygon42" />
      <polygon
         points="2.4162568,13.18585 -5.6894536,7.86255 -1.7165372,-1.146281 7.0347779,2.7130703 "
         id="polygon44" />
      <polygon
         points="-8.7237415,-4.2364751 -1.7165372,-1.146281 -5.6894536,7.86255 -12.604834,3.3209813 "
         id="polygon46" />
    </g>
    <g
       id="g48"
       style="fill:#99948a;stroke:#1a1917;stroke-width:0.30000001">
      <polygon
         points="-0.8594202,-21.583925 -1.2707952,-13.789077 -11.739971,-14.341591 -15.865648,-22.375882 "
         id="polygon50" />
      <polygon
         points="-7.8853203,-6.8350904 -11.739971,-14.341591 -1.2707952,-13.789077 -1.6442202,-6.7133165 "
         id="polygon52" />
      <polygon
         points="-1.2325914,-14.512973 4.7149003,-14.199092 4.3137016,-6.5970678 -1.6442202,-6.7133165 "
         id="polygon54" />
      <polygon
         points="10.866083,-6.4692203 4.3137016,-6.5970678 4.7149003,-14.199092 10.312785,-13.903663 "
         id="polygon56" />
      <polygon
         points="9.7829921,-21.022269 10.312785,-13.903663 -1.2325914,-14.512973 -0.8594202,-21.583925 "
         id="polygon58" />
    </g>
    <g
       id="g60"
       style="fill:#99948a;stroke:#1a1917;stroke-width:0.30000001">
      <polygon
         points="24.636493,2.2664865 23.299839,5.3590742 17.350346,2.7876319 18.686999,-0.30495584 "
         id="polygon62" />
      <polygon
         points="15.627178,6.7744894 17.350346,2.7876319 23.299839,5.3590742 21.576672,9.3459317 "
         id="polygon64" />
      <polygon
         points="21.53877,-3.1069556 23.463887,-2.6626881 21.85335,1.0635789 20.069458,0.29255953 "
         id="polygon66" />
      <polygon
         points="24.636493,2.2664865 21.85335,1.0635789 23.463887,-2.6626881 26.467364,-1.9695634 "
         id="polygon68" />
      <polygon
         points="16.611472,-4.2440484 21.53877,-3.1069556 20.069458,0.29255953 15.503626,-1.6808479 "
         id="polygon70" />
      <polygon
         points="7.8239522,3.4018416 10.214694,-2.0193123 14.794394,-0.03991147 12.443805,5.3985973 "
         id="polygon72" />
      <polygon
         points="14.794394,-0.03991147 12.470228,-1.0444435 14.103309,-4.8228676 16.611472,-4.2440484 "
         id="polygon74" />
      <polygon
         points="11.696059,-5.3783984 14.103309,-4.8228676 12.470228,-1.0444435 10.214694,-2.0193123 "
         id="polygon76" />
      <polygon
         points="7.8239522,3.4018416 10.56368,4.5859846 8.4068018,9.5763087 5.63023,8.3762411 "
         id="polygon78" />
      <polygon
         points="10.653278,10.547263 9.2160579,13.872531 4.1684584,11.690898 5.63023,8.3762411 "
         id="polygon80" />
      <polygon
         points="3.3099798,13.63755 4.1684584,11.690898 9.2160579,13.872531 8.5158337,15.492625 "
         id="polygon82" />
      <polygon
         points="19.883977,13.262284 14.84945,11.086301 16.542145,7.1699489 21.576672,9.3459317 "
         id="polygon84" />
      <polygon
         points="10.914369,16.347329 12.216536,13.334532 16.410395,15.147168 15.227395,17.88425 "
         id="polygon86" />
      <polygon
         points="17.531447,18.705285 15.227395,17.88425 17.643585,12.29396 19.883977,13.262284 "
         id="polygon88" />
      <polygon
         points="11.117462,9.4732913 13.449727,10.481324 10.914369,16.347329 8.5158337,15.492625 "
         id="polygon90" />
    </g>
    <g
       id="g92"
       style="fill:#99948a;stroke:#1a1917;stroke-width:0.30000001">
      <polygon
         points="-14.796566,20.275325 -12.496078,16.587143 -6.8206751,20.127153 -9.1211633,23.815334 "
         id="polygon94" />
      <polygon
         points="-0.074439309,18.13598 -2.1626494,22.225942 -6.4584617,19.546447 -4.0370135,15.66434 "
         id="polygon96" />
      <polygon
         points="-9.1211633,23.815334 -6.4584617,19.546447 -2.1626494,22.225942 -4.4589118,26.723395 "
         id="polygon98" />
      <polygon
         points="-0.074439309,18.13598 -6.130005,14.358845 -3.6568319,10.393812 1.9862885,14.099844 "
         id="polygon100" />
      <polygon
         points="-7.1869509,8.0754615 -3.6568319,10.393812 -6.130005,14.358845 -9.7124165,12.12433 "
         id="polygon102" />
      <polygon
         points="-7.1869509,8.0754615 -10.36074,13.163734 -18.424721,8.1338579 -13.209884,4.1199939 "
         id="polygon104" />
      <polygon
         points="-14.796566,20.275325 -18.179511,18.165227 -13.743684,11.053636 -10.36074,13.163734 "
         id="polygon106" />
      <polygon
         points="-18.424721,8.1338579 -17.48096,8.7225254 -21.916786,15.834117 -25.51392,13.590419 "
         id="polygon108" />
      <polygon
         points="-21.916786,15.834117 -19.327735,11.683307 -15.59046,14.014417 -18.179511,18.165227 "
         id="polygon110" />
    </g>
    <g
       id="g112"
       style="fill:#99948a;stroke:#1a1917;stroke-width:0.30000001">
      <polygon
         points="-30.03289,-13.243913 -26.893519,-8.5387806 -31.833405,-5.2427763 -33.516412,-10.919628 "
         id="polygon114" />
      <polygon
         points="-30.726952,-1.510665 -31.833405,-5.2427763 -26.893519,-8.5387806 -24.829614,-5.4455032 "
         id="polygon116" />
      <polygon
         points="-28.249157,6.847038 -30.726952,-1.510665 -24.829614,-5.4455032 -20.207698,1.4815928 "
         id="polygon118" />
      <polygon
         points="-26.722425,11.996768 -28.249157,6.847038 -20.207698,1.4815928 -17.782789,5.1159243 "
         id="polygon120" />
      <polygon
         points="-9.8855838,-6.3521059 -14.462502,2.5602977 -17.782789,5.1159243 -22.615062,-2.1264445 -11.517849,-9.5307585 "
         id="polygon122" />
      <polygon
         points="-11.517849,-9.5307585 -14.625702,-7.4571282 -22.04353,-18.574596 -17.66286,-21.497479 "
         id="polygon124" />
      <polygon
         points="-30.03289,-13.243913 -22.04353,-18.574596 -14.625702,-7.4571282 -22.615062,-2.1264445 "
         id="polygon126" />
    </g>
    <g
       id="g128"
       style="fill:#99948a;stroke:#1a1917;stroke-width:0.30000001">
      <polygon
         points="9.1924799,-22.054825 -3.7286388,-22.73674 -3.2613173,-31.591678 0.081241685,-33.942401 "
         id="polygon130" />
      <polygon
         points="-15.006108,-23.331912 -3.2613173,-31.591678 -3.7286388,-22.73674 "
         id="polygon132" />
    </g>
    <g
       id="g134"
       style="fill:#99948a;stroke:#1a1917;stroke-width:0.30000001">
      <polygon
         points="27.028496,-18.195537 17.730417,-20.292098 18.487906,-23.06766 27.190854,-25.27013 "
         id="polygon136" />
      <polygon
         points="11.32419,-13.787572 10.778731,-21.116686 11.045862,-21.18429 14.818333,-20.333661 13.244657,-13.354539 "
         id="polygon138" />
      <polygon
         points="19.504255,-11.943104 13.244657,-13.354539 14.818333,-20.333661 21.077931,-18.922226 "
         id="polygon140" />
      <polygon
         points="12.264311,-6.2735437 13.152077,-10.210716 18.825194,-8.9315229 17.930994,-4.9658197 "
         id="polygon142" />
      <polygon
         points="11.32419,-13.787572 13.831139,-13.222297 12.264311,-6.2735437 11.876755,-6.3629814 "
         id="polygon144" />
      <polygon
         points="24.346077,-18.185313 23.715006,-15.386564 20.446859,-16.123477 21.077931,-18.922226 "
         id="polygon146" />
      <polygon
         points="26.851211,-10.470507 22.811888,-11.381307 24.346077,-18.185313 27.014453,-17.583639 "
         id="polygon148" />
      <polygon
         points="17.930994,-4.9658197 18.706975,-8.4072309 22.359281,-7.5836969 21.579159,-4.1239177 "
         id="polygon150" />
      <polygon
         points="26.678553,-2.9471095 21.579159,-4.1239177 23.196047,-11.294686 26.851211,-10.470507 "
         id="polygon152" />
    </g>
    <g
       id="g154"
       style="fill:#99948a;stroke:#1a1917;stroke-width:0.30000001">
      <polygon
         points="17.71683,26.136101 18.476843,24.471599 22.278139,26.207273 21.579988,27.900021 "
         id="polygon156" />
      <polygon
         points="22.475626,25.728444 22.278139,26.207273 18.476843,24.471599 19.523079,22.180238 "
         id="polygon158" />
      <polygon
         points="13.300415,24.119563 15.024188,18.873432 17.507875,19.758479 19.523079,22.180238 17.71683,26.136101 "
         id="polygon160" />
      <polygon
         points="12.751247,23.868813 9.746864,22.49701 11.908359,17.763125 14.458825,18.671968 "
         id="polygon162" />
      <polygon
         points="5.6626204,20.632142 6.3448985,19.137886 10.429142,21.002754 9.746864,22.49701 "
         id="polygon164" />
      <polygon
         points="10.429142,21.002754 8.4260399,20.088136 9.8263918,17.021228 11.908359,17.763125 "
         id="polygon166" />
      <polygon
         points="7.6633134,16.250428 9.8263918,17.021228 8.4260399,20.088136 6.3448985,19.137886 "
         id="polygon168" />
      <polygon
         points="5.6626204,20.632142 3.9900683,19.868454 5.9249108,15.630959 7.6633134,16.250428 "
         id="polygon170" />
      <polygon
         points="0.8871782,18.451673 1.7593393,16.74346 4.7859434,18.125409 3.9900683,19.868454 "
         id="polygon172" />
      <polygon
         points="5.9249108,15.630959 4.7859434,18.125409 1.7593393,16.74346 2.8811293,14.546326 "
         id="polygon174" />
      <polygon
         points="8.4939145,34.907713 8.3939582,35.191464 4.0141462,33.648593 4.7858965,31.457792 "
         id="polygon176" />
      <polygon
         points="4.0141462,33.648593 5.7111289,34.246387 4.6561377,37.241236 2.959155,36.643442 "
         id="polygon178" />
      <polygon
         points="1.9981977,39.371353 2.959155,36.643442 7.3389671,38.186312 6.5577638,40.403948 "
         id="polygon180" />
      <polygon
         points="10.875809,41.381845 9.1638899,40.994151 9.9753403,38.690652 11.619769,39.269932 "
         id="polygon182" />
      <polygon
         points="7.4719569,37.808788 9.9753403,38.690652 9.1638899,40.994151 6.5577638,40.403948 "
         id="polygon184" />
      <polygon
         points="12.005518,38.174891 11.619769,39.269932 7.4719569,37.808788 8.4939145,34.907713 "
         id="polygon186" />
      <polygon
         points="12.005518,38.174891 13.699114,39.750604 12.95834,41.853471 10.875809,41.381845 "
         id="polygon188" />
      <polygon
         points="15.580182,42.447234 12.95834,41.853471 13.699114,39.750604 15.862296,41.763218 "
         id="polygon190" />
      <polygon
         points="11.819678,30.17914 8.2720544,28.559293 10.567781,23.531427 14.115404,25.151274 "
         id="polygon192" />
      <polygon
         points="10.567781,23.531427 9.2745471,26.363736 6.9536757,25.304024 7.9923532,22.355486 "
         id="polygon194" />
      <polygon
         points="6.1485104,27.589682 6.9536757,25.304024 9.2745471,26.363736 8.2720544,28.559293 "
         id="polygon196" />
      <polygon
         points="6.1485104,27.589682 8.7961018,28.798573 7.0108826,32.708379 5.0033281,30.84056 "
         id="polygon198" />
      <polygon
         points="7.6890376,31.223153 8.9306234,31.790061 8.0639545,33.688151 7.0108826,32.708379 "
         id="polygon200" />
      <polygon
         points="9.5753798,35.094374 8.0639545,33.688151 8.9306234,31.790061 10.712614,32.603719 "
         id="polygon202" />
      <polygon
         points="10.36921,33.355808 13.050773,34.580211 11.849793,37.210476 9.5753798,35.094374 "
         id="polygon204" />
      <polygon
         points="16.106566,41.170956 11.849793,37.210476 13.050773,34.580211 17.909788,36.79884 "
         id="polygon206" />
      <polygon
         points="17.909788,36.79884 16.404824,36.111672 17.777111,33.106229 19.170378,33.742395 "
         id="polygon208" />
      <polygon
         points="17.564301,29.611576 15.259498,28.559202 16.349737,26.171472 18.65454,27.223846 "
         id="polygon210" />
      <polygon
         points="14.115404,25.151274 16.349737,26.171472 15.259498,28.559202 13.025166,27.539004 "
         id="polygon212" />
      <polygon
         points="16.280633,32.422936 17.356829,30.065961 20.158977,31.345423 19.170378,33.742395 "
         id="polygon214" />
      <polygon
         points="21.351061,28.455079 20.158977,31.345423 17.356829,30.065961 18.65454,27.223846 "
         id="polygon216" />
      <polygon
         points="5.2638129,28.295274 3.7650356,27.767302 4.9567557,24.384314 6.455533,24.912287 "
         id="polygon218" />
      <polygon
         points="5.4628374,21.200507 4.9773191,22.578769 1.9289358,21.50492 2.5109672,19.852682 "
         id="polygon220" />
      <polygon
         points="6.455533,24.912287 4.4092268,24.191437 5.4628374,21.200507 7.4443567,22.10527 "
         id="polygon222" />
      <polygon
         points="1.4263813,22.931543 0.75978752,24.823831 -1.8897181,23.890494 -0.96923691,22.087642 "
         id="polygon224" />
      <polygon
         points="-2.7053501,25.487988 -1.8897181,23.890494 0.75978752,24.823831 0.16912336,26.500575 "
         id="polygon226" />
      <polygon
         points="2.5109672,19.852682 1.4263813,22.931543 -0.96923691,22.087642 0.61407987,18.986562 "
         id="polygon228" />
      <polygon
         points="4.4313722,30.658359 2.8307696,30.094517 3.6632102,27.731432 5.2638129,28.295274 "
         id="polygon230" />
      <polygon
         points="3.6561247,32.859088 2.3248034,32.390105 3.100051,30.189376 4.4313722,30.658359 "
         id="polygon232" />
      <polygon
         points="-3.7774781,27.587855 -2.7053501,25.487988 1.0946881,26.826622 0.12343421,29.583762 -3.8588821,28.180917 "
         id="polygon234" />
      <polygon
         points="-4.124783,30.118118 -3.8588821,28.180917 0.12343421,29.583762 -0.51300014,31.390436 "
         id="polygon236" />
      <polygon
         points="-4.124783,30.118118 -2.420932,30.718331 -3.4815679,33.729204 -4.5679144,33.346518 "
         id="polygon238" />
      <polygon
         points="-0.76082769,34.687635 -1.3853337,36.460448 -4.8288317,35.247411 -4.5679144,33.346518 "
         id="polygon240" />
      <polygon
         points="-2.0850066,38.446639 -3.5371801,38.117769 -2.7802575,35.96906 -1.3853337,36.460448 "
         id="polygon242" />
      <polygon
         points="-4.8288317,35.247411 -2.7802575,35.96906 -3.5371801,38.117769 -5.1719996,37.747535 "
         id="polygon244" />
      <polygon
         points="-2.0850066,38.446639 -1.0256493,35.439396 2.3306672,36.621721 1.4090582,39.237932 "
         id="polygon246" />
      <polygon
         points="-1.0256493,35.439396 -0.60751167,34.252411 2.7488048,35.434736 2.3306672,36.621721 "
         id="polygon248" />
      <polygon
         points="2.7488048,35.434736 0.85214761,34.766603 1.7594675,32.190955 3.6561247,32.859088 "
         id="polygon250" />
    </g>
    <g
       id="g252"
       style="fill:#99948a;stroke:#1a1917;stroke-width:0.30000001">
      <polygon
         points="-14.489654,33.764471 -15.21296,35.686422 -20.821582,33.575678 -20.002329,31.398776 "
         id="polygon254" />
      <polygon
         points="-23.294218,40.145907 -20.821582,33.575678 -15.21296,35.686422 -17.593303,42.011413 "
         id="polygon256" />
      <polygon
         points="-9.1585628,36.052243 -10.302399,39.091618 -15.726278,37.050399 -14.489654,33.764471 "
         id="polygon258" />
      <polygon
         points="-10.996591,40.936209 -13.075213,42.27699 -11.681157,38.572737 -10.302399,39.091618 "
         id="polygon260" />
      <polygon
         points="-13.075213,42.27699 -14.322688,43.081654 -17.593303,42.011413 -16.636008,39.467712 -12.590886,40.990049 "
         id="polygon262" />
      <polygon
         points="-6.1938294,37.838264 -10.996591,40.936209 -9.1585628,36.052243 -6.1272354,37.353099 "
         id="polygon264" />
      <polygon
         points="-14.313025,33.187355 -13.308096,28.910163 -5.0449248,29.468008 -6.0426013,36.736504 "
         id="polygon266" />
      <polygon
         points="-19.790777,30.836646 -18.019914,26.131148 -13.657254,27.772989 -14.872912,32.947087 "
         id="polygon268" />
      <polygon
         points="-12.507974,22.881409 -13.657254,27.772989 -18.019914,26.131148 -15.981527,20.714794 "
         id="polygon270" />
      <polygon
         points="-28.479114,38.449257 -25.122554,33.013486 -21.98112,34.953304 -23.865008,39.959128 "
         id="polygon272" />
      <polygon
         points="-20.645601,31.404595 -21.17531,32.812126 -23.942924,31.103139 -23.16748,29.847348 "
         id="polygon274" />
      <polygon
         points="-25.122554,33.013486 -23.942924,31.103139 -21.17531,32.812126 -21.98112,34.953304 "
         id="polygon276" />
      <polygon
         points="-16.500731,20.390942 -20.645601,31.404595 -23.16748,29.847348 -17.098113,20.018328 "
         id="polygon278" />
      <polygon
         points="-28.285152,23.625487 -25.591649,22.051867 -23.142368,24.24524 -25.123144,26.45712 "
         id="polygon280" />
      <polygon
         points="-22.096226,23.077042 -23.142368,24.24524 -25.591649,22.051867 -24.169083,21.220763 "
         id="polygon282" />
      <polygon
         points="-22.9699,28.385387 -25.123144,26.45712 -22.096226,23.077042 -20.548102,24.463414 "
         id="polygon284" />
      <polygon
         points="-17.607204,19.700785 -20.548102,24.463414 -24.169083,21.220763 -19.522523,18.506112 "
         id="polygon286" />
      <polygon
         points="-28.108373,18.881407 -29.9466,20.309674 -31.535914,18.264175 -29.697687,16.835907 "
         id="polygon288" />
      <polygon
         points="-33.000908,19.402447 -31.535914,18.264175 -29.9466,20.309674 -31.039551,21.158876 "
         id="polygon290" />
      <polygon
         points="-28.754755,23.20495 -31.039551,21.158876 -28.108373,18.881407 -25.999684,21.595359 "
         id="polygon292" />
      <polygon
         points="-28.565467,18.293112 -27.11757,17.168124 -24.402644,20.662323 -25.999684,21.595359 "
         id="polygon294" />
      <polygon
         points="-26.032758,18.564313 -24.642175,17.483857 -22.868822,19.766221 -24.402644,20.662323 "
         id="polygon296" />
      <polygon
         points="-20.097778,18.147299 -22.868822,19.766221 -24.642175,17.483857 -23.092189,16.279547 "
         id="polygon298" />
      <polygon
         points="-24.690693,15.282487 -23.092189,16.279547 -26.032758,18.564313 -27.11757,17.168124 "
         id="polygon300" />
      <polygon
         points="-24.690693,15.282487 -26.899704,16.998846 -28.031924,15.541641 -26.359054,14.241853 "
         id="polygon302" />
      <polygon
         points="-29.697687,16.835907 -28.031924,15.541641 -26.899704,16.998846 -28.565467,18.293112 "
         id="polygon304" />
      <polygon
         points="-31.130336,30.887774 -29.742398,28.596307 -24.908205,31.524371 -26.315816,33.803922 "
         id="polygon306" />
      <polygon
         points="-24.908205,31.524371 -26.3691,30.639509 -24.604821,27.726707 -23.290151,28.904017 "
         id="polygon308" />
      <polygon
         points="-27.594202,25.049665 -24.604821,27.726707 -26.3691,30.639509 -29.742398,28.596307 "
         id="polygon310" />
      <polygon
         points="-35.48848,28.248052 -33.67065,25.246839 -29.312505,27.886561 -31.130336,30.887774 "
         id="polygon312" />
      <polygon
         points="-27.594202,25.049665 -29.312505,27.886561 -33.67065,25.246839 -31.456344,21.591051 "
         id="polygon314" />
      <polygon
         points="-37.430698,23.202128 -35.359056,24.456918 -37.073751,27.287856 -39.145393,26.033065 "
         id="polygon316" />
      <polygon
         points="-35.48848,28.248052 -37.073751,27.287856 -35.359056,24.456918 -33.773785,25.417115 "
         id="polygon318" />
      <polygon
         points="-37.689485,23.045381 -37.430698,23.202128 -39.145393,26.033065 -40.488055,25.219817 "
         id="polygon320" />
      <polygon
         points="-31.456344,21.591051 -32.515483,23.339675 -35.635797,21.449706 -33.482475,19.776616 "
         id="polygon322" />
      <polygon
         points="-37.689485,23.045381 -35.635797,21.449706 -32.515483,23.339675 -33.773785,25.417115 "
         id="polygon324" />
      <polygon
         points="-36.618503,35.785811 -35.988518,33.860604 -33.824834,34.568625 -34.902247,36.34742 "
         id="polygon326" />
      <polygon
         points="-37.789964,30.316422 -35.115172,31.191692 -36.618503,35.785811 -39.293295,34.91054 "
         id="polygon328" />
      <polygon
         points="-31.781383,31.194915 -32.331217,32.102684 -37.789964,30.316422 -37.035963,28.012223 "
         id="polygon330" />
      <polygon
         points="-31.781383,31.194915 -28.355241,33.270124 -30.041325,36.053827 -33.467467,33.978618 "
         id="polygon332" />
      <polygon
         points="-28.34105,37.083681 -30.041325,36.053827 -28.355241,33.270124 -26.631067,34.314454 "
         id="polygon334" />
      <polygon
         points="-33.467467,33.978618 -30.78435,35.603778 -31.841433,37.349008 -34.902247,36.34742 "
         id="polygon336" />
      <polygon
         points="-29.065749,38.257293 -31.841433,37.349008 -30.78435,35.603778 -28.34105,37.083681 "
         id="polygon338" />
      <polygon
         points="-40.995388,25.614005 -37.035963,28.012223 -39.293295,34.91054 -43.993208,33.372591 -41.610854,26.09221 "
         id="polygon340" />
      <polygon
         points="-44.680173,28.477013 -42.612622,29.153576 -43.993208,33.372591 -47.233794,32.312177 -46.421567,29.830042 "
         id="polygon342" />
      <polygon
         points="-48.103964,31.137233 -46.421567,29.830042 -47.233794,32.312177 -47.939847,32.081135 "
         id="polygon344" />
      <polygon
         points="-41.610854,26.09221 -42.612622,29.153576 -44.680173,28.477013 "
         id="polygon346" />
    </g>
    <g
       id="g348"
       style="fill:#99948a;stroke:#1a1917;stroke-width:0.30000001">
      <polygon
         points="31.184303,4.3189318 34.381212,4.6337834 33.922846,9.2879005 30.646166,9.7830154 "
         id="polygon350" />
      <polygon
         points="39.034964,8.5154459 33.922846,9.2879005 34.381212,4.6337834 39.15984,5.1044126 "
         id="polygon352" />
      <polygon
         points="31.184303,4.3189318 31.354122,2.5946418 34.497949,2.9042656 34.32813,4.6285556 "
         id="polygon354" />
      <polygon
         points="31.354122,2.5946418 31.534693,0.76117911 34.67852,1.0708029 34.497949,2.9042656 "
         id="polygon356" />
      <polygon
         points="34.851138,-0.68191345 34.67852,1.0708029 31.534693,0.76117911 31.722299,-1.1437138 "
         id="polygon358" />
      <polygon
         points="37.2272,-0.33121919 37.055403,1.4131569 34.66796,1.1780266 34.851138,-0.68191345 "
         id="polygon360" />
      <polygon
         points="39.15984,5.1044126 36.715573,4.8636859 37.2272,-0.33121919 39.347378,-0.018292002 "
         id="polygon362" />
      <polygon
         points="28.858472,7.3576353 29.256678,9.9929706 26.49346,10.4105 26.072473,7.6243975 28.476756,7.261104 "
         id="polygon364" />
      <polygon
         points="25.919875,6.6145007 28.476756,7.261104 26.072473,7.6243975 "
         id="polygon366" />
      <polygon
         points="30.034155,9.8754918 29.256678,9.9929706 28.858472,7.3576353 30.247534,7.7089116 "
         id="polygon368" />
      <polygon
         points="24.050915,6.141864 25.919875,6.6145007 26.49346,10.4105 21.906385,11.103619 "
         id="polygon370" />
      <polygon
         points="29.276606,2.456206 28.83595,4.1987035 25.279496,3.2993208 26.001836,1.6280576 "
         id="polygon372" />
      <polygon
         points="24.29205,5.5839556 25.279496,3.2993208 28.83595,4.1987035 28.233569,6.5807166 "
         id="polygon374" />
      <polygon
         points="30.307005,7.1050627 28.233569,6.5807166 29.276606,2.456206 30.728688,2.8234194 "
         id="polygon376" />
      <polygon
         points="30.728688,2.8234194 29.149971,2.4241815 30.112338,-1.3813355 31.128034,-1.2314241 "
         id="polygon378" />
      <polygon
         points="26.001836,1.6280576 26.746709,-0.095338436 29.604372,0.627329 29.149971,2.4241815 "
         id="polygon380" />
      <polygon
         points="30.112338,-1.3813355 29.604372,0.627329 26.746709,-0.095338436 27.471027,-1.7711792 "
         id="polygon382" />
      <polygon
         points="29.996416,18.010709 28.503888,14.487962 31.711172,14.003333 32.264903,17.667934 "
         id="polygon384" />
      <polygon
         points="27.000944,10.940629 29.558095,10.554237 30.11569,14.244414 28.503888,14.487962 "
         id="polygon386" />
      <polygon
         points="31.711172,14.003333 30.11569,14.244414 29.558095,10.554237 31.153576,10.313155 "
         id="polygon388" />
      <polygon
         points="38.735693,16.690181 36.988763,16.954147 35.877436,9.5993677 39.012626,9.1256323 "
         id="polygon390" />
      <polygon
         points="31.153576,10.313155 33.058445,10.025325 33.450688,12.621197 31.54582,12.909028 "
         id="polygon392" />
      <polygon
         points="36.269679,12.195241 33.450688,12.621197 33.058445,10.025325 35.877436,9.5993677 "
         id="polygon394" />
      <polygon
         points="32.862445,17.577644 33.381642,21.013703 31.395863,21.31376 29.996416,18.010709 "
         id="polygon396" />
      <polygon
         points="32.415624,23.720656 31.395863,21.31376 33.381642,21.013703 33.759991,23.51762 "
         id="polygon398" />
      <polygon
         points="33.759991,23.51762 33.32782,20.657507 38.619726,19.857886 38.51202,22.799931 "
         id="polygon400" />
      <polygon
         points="38.619726,19.857886 37.387055,20.044146 36.92168,16.964283 38.735693,16.690181 "
         id="polygon402" />
      <polygon
         points="28.980796,17.151601 27.503984,18.008044 25.873082,15.195789 27.702624,14.134788 "
         id="polygon404" />
      <polygon
         points="24.590359,15.939675 25.873082,15.195789 27.503984,18.008044 26.221262,18.75193 "
         id="polygon406" />
      <polygon
         points="24.590359,15.939675 23.470015,14.007804 26.824587,12.062397 27.702624,14.134788 "
         id="polygon408" />
      <polygon
         points="26.38852,11.033168 26.824587,12.062397 23.470015,14.007804 22.119069,11.678293 "
         id="polygon410" />
      <polygon
         points="20.656587,21.979034 18.656142,19.575011 24.674517,16.084793 26.221262,18.75193 "
         id="polygon412" />
      <polygon
         points="18.385514,19.249786 21.625789,11.752829 22.119069,11.678293 24.674517,16.084793 18.656142,19.575011 "
         id="polygon414" />
      <polygon
         points="29.216698,17.70839 30.633574,21.052577 26.148269,22.952924 24.969747,20.171311 "
         id="polygon416" />
      <polygon
         points="26.830899,24.564105 26.148269,22.952924 30.633574,21.052577 31.803182,23.813152 "
         id="polygon418" />
      <polygon
         points="24.969747,20.171311 26.013733,22.635384 22.768707,24.517262 21.045881,22.446867 "
         id="polygon420" />
      <polygon
         points="23.256851,25.103886 22.768707,24.517262 26.013733,22.635384 26.830899,24.564105 "
         id="polygon422" />
    </g>
    <g
       id="g424"
       style="fill:#99948a;stroke:#1a1917;stroke-width:0.30000001">
      <polygon
         points="21.11662,-51.376844 25.730925,-46.664413 17.753584,-39.896751 13.082415,-45.629191 "
         id="polygon426" />
      <polygon
         points="14.134212,-35.077867 15.772016,-36.605695 18.629344,-33.54269 17.890192,-32.853171 "
         id="polygon428" />
      <polygon
         points="16.388853,-40.62172 14.098928,-38.485559 9.6953628,-43.206101 12.59347,-45.279401 "
         id="polygon430" />
      <polygon
         points="11.878311,-36.414054 8.2026336,-38.591186 11.302689,-41.483077 14.098928,-38.485559 "
         id="polygon432" />
      <polygon
         points="6.1552971,-39.803839 9.3738989,-42.976127 9.6953628,-43.206101 11.302689,-41.483077 8.2026336,-38.591186 "
         id="polygon434" />
      <polygon
         points="31.931367,-31.822792 29.032147,-34.783666 33.285866,-38.948811 35.741789,-36.440661 "
         id="polygon436" />
      <polygon
         points="25.12104,-38.777944 27.648077,-36.197168 23.386687,-32.024512 20.758626,-34.70846 "
         id="polygon438" />
      <polygon
         points="18.428191,-32.53451 20.758626,-34.70846 26.161743,-29.190442 25.37486,-28.419944 "
         id="polygon440" />
      <polygon
         points="27.892865,-26.92851 25.37486,-28.419944 30.423134,-33.363099 31.931367,-31.822792 "
         id="polygon442" />
      <polygon
         points="27.424383,-26.360755 25.452666,-25.861769 24.912427,-27.996496 27.506352,-26.460094 "
         id="polygon444" />
      <polygon
         points="19.999592,-24.481751 18.117083,-31.920389 18.197598,-31.973741 24.912427,-27.996496 25.452666,-25.861769 "
         id="polygon446" />
      <polygon
         points="16.995358,-23.721464 16.003606,-27.640322 19.00784,-28.400609 19.999592,-24.481751 "
         id="polygon448" />
      <polygon
         points="18.117083,-31.920389 19.00784,-28.400609 16.003606,-27.640322 15.37952,-30.106368 "
         id="polygon450" />
      <polygon
         points="15.37952,-30.106368 16.128785,-27.145685 12.163819,-26.142264 12.076042,-27.91735 "
         id="polygon452" />
      <polygon
         points="12.341762,-22.543771 12.163819,-26.142264 16.128785,-27.145685 16.995358,-23.721464 "
         id="polygon454" />
      <polygon
         points="11.459906,-28.228847 6.4636561,-31.188164 9.8555773,-36.914784 17.62405,-32.313458 "
         id="polygon456" />
      <polygon
         points="6.4636561,-31.188164 0.94836539,-34.454913 0.85365375,-34.578485 3.5725576,-37.258265 8.3744006,-34.414096 "
         id="polygon458" />
      <polygon
         points="9.8555773,-36.914784 8.3744006,-34.414096 3.5725576,-37.258265 5.7133534,-39.368255 "
         id="polygon460" />
      <polygon
         points="10.445482,-22.063876 9.0682039,-23.860832 11.580677,-25.786519 11.748454,-22.393621 "
         id="polygon462" />
      <polygon
         points="9.0682039,-23.860832 7.8838211,-25.406115 11.463805,-28.149996 11.580677,-25.786519 "
         id="polygon464" />
      <polygon
         points="6.1839313,-27.623988 8.928981,-29.727933 11.459906,-28.228847 11.463805,-28.149996 7.8838211,-25.406115 "
         id="polygon466" />
      <polygon
         points="0.94836539,-34.454913 8.928981,-29.727933 6.1839313,-27.623988 "
         id="polygon468" />
    </g>
    <g
       id="g470"
       style="fill:#99948a;stroke:#1a1917;stroke-width:0.30000001">
      <polygon
         points="-3.1502211,-51.712874 -7.3524707,-45.899444 -15.421451,-51.732123 -11.989078,-58.102059 "
         id="polygon472" />
      <polygon
         points="-15.421451,-51.732123 -12.025612,-49.277434 -17.443008,-41.78296 -19.846348,-43.52022 "
         id="polygon474" />
      <polygon
         points="-3.1502211,-51.712874 2.9286967,-47.318715 -3.7428112,-38.089291 -9.821729,-42.48345 "
         id="polygon476" />
      <polygon
         points="-3.7428112,-38.089291 -1.1199312,-41.717807 2.5537565,-39.062275 -0.67983537,-35.875213 "
         id="polygon478" />
      <polygon
         points="7.5450675,-43.981762 2.5537565,-39.062275 -1.1199312,-41.717807 2.9286967,-47.318715 "
         id="polygon480" />
      <polygon
         points="-0.67983537,-35.875213 -0.7612521,-35.794968 -5.0178629,-32.801419 -8.8783232,-35.59196 -5.930186,-39.67044 "
         id="polygon482" />
      <polygon
         points="-5.0178629,-32.801419 -11.03814,-28.567535 -15.202653,-34.489172 -11.223792,-37.287387 "
         id="polygon484" />
      <polygon
         points="-18.679684,-32.043878 -15.202653,-34.489172 -11.03814,-28.567535 -16.689005,-24.593448 "
         id="polygon486" />
      <polygon
         points="-19.846348,-43.52022 -16.250316,-40.92082 -19.755778,-36.071332 -21.116316,-41.163362 "
         id="polygon488" />
      <polygon
         points="-18.679684,-32.043878 -19.755778,-36.071332 -16.250316,-40.92082 -11.223792,-37.287387 "
         id="polygon490" />
    </g>
    <g
       id="g492"
       style="fill:#99948a;stroke:#1a1917;stroke-width:0.30000001">
      <polygon
         points="-43.421176,1.7064797 -39.317927,0.48026771 -37.396092,6.9112661 -41.628695,7.7046236 "
         id="polygon494" />
      <polygon
         points="-37.396092,6.9112661 -38.322161,3.8123774 -35.150222,2.8644772 -34.124158,6.2979759 "
         id="polygon496" />
      <polygon
         points="-31.84206,-1.7538152 -31.058226,0.89008742 -35.356399,2.1745505 -36.145987,-0.46763243 "
         id="polygon498" />
      <polygon
         points="-34.124158,6.2979759 -35.356399,2.1745505 -31.058226,0.89008742 -29.700766,5.4688568 "
         id="polygon500" />
      <polygon
         points="-43.421176,1.7064797 -44.024091,-0.31104499 -40.586785,-1.3382474 -39.983869,0.67927737 "
         id="polygon502" />
      <polygon
         points="-41.233477,-3.5022616 -40.586785,-1.3382474 -44.024091,-0.31104499 -44.670784,-2.4750593 "
         id="polygon504" />
      <polygon
         points="-39.709596,-6.6327299 -38.975718,-4.1769689 -44.670784,-2.4750593 -45.404662,-4.9308203 "
         id="polygon506" />
      <polygon
         points="-31.84206,-1.7538152 -33.883957,-1.1436159 -35.339752,-6.0151126 -33.287244,-6.6284826 "
         id="polygon508" />
      <polygon
         points="-33.81109,-8.3954352 -33.287244,-6.6284826 -39.181904,-4.8669265 -39.709596,-6.6327299 "
         id="polygon510" />
      <polygon
         points="-34.482495,-10.660113 -33.81109,-8.3954352 -38.706223,-6.9325771 -39.416319,-9.3087582 -34.70234,-10.717481 "
         id="polygon512" />
      <polygon
         points="-40.271601,-12.17077 -34.70234,-10.717481 -39.416319,-9.3087582 "
         id="polygon514" />
      <polygon
         points="-46.857058,-9.7909462 -42.083167,-11.217573 -40.63077,-6.3574468 -45.404662,-4.9308203 "
         id="polygon516" />
      <polygon
         points="-40.271601,-12.17077 -40.15862,-11.792703 -46.857058,-9.7909462 -48.185372,-14.235855 "
         id="polygon518" />
      <polygon
         points="-49.14487,9.1134529 -49.673403,6.2937031 -46.761435,5.7478848 -46.232902,8.5676346 "
         id="polygon520" />
      <polygon
         points="-48.138556,2.2406847 -48.659524,-0.5387045 -44.927396,-1.2382531 -44.113229,1.4861788 "
         id="polygon522" />
      <polygon
         points="-46.417829,-6.2256602 -44.927396,-1.2382531 -48.659524,-0.5387045 -49.634563,-5.7405869 "
         id="polygon524" />
      <polygon
         points="-48.696138,-0.73404202 -52.546107,-0.012405211 -53.510248,-5.1561459 -49.634563,-5.7405869 "
         id="polygon526" />
      <polygon
         points="-53.412045,-5.7777381 -52.126054,-10.82799 -47.804558,-10.866041 -46.591341,-6.8062787 "
         id="polygon528" />
      <polygon
         points="-49.273845,29.513463 -49.315904,29.5018 -53.023538,19.921943 -46.90078,19.066801 -45.557237,26.62573 "
         id="polygon530" />
      <polygon
         points="-46.306138,18.983749 -41.040907,18.248375 -40.427538,22.640052 -45.021781,26.20969 "
         id="polygon532" />
      <polygon
         points="-37.177613,20.114922 -40.427538,22.640052 -41.040907,18.248375 -36.694541,17.641334 "
         id="polygon534" />
      <polygon
         points="-46.296352,9.1899769 -41.600104,8.3097138 -41.315145,8.570635 -40.788643,11.824587 -45.740423,12.625803 "
         id="polygon536" />
      <polygon
         points="-44.842778,18.173544 -45.740423,12.625803 -40.788643,11.824587 -39.873653,17.479525 "
         id="polygon538" />
      <polygon
         points="-40.62208,12.854002 -37.235583,12.306054 -35.892728,13.535629 -36.116279,14.68033 -40.219158,15.344191 "
         id="polygon540" />
      <polygon
         points="-39.873653,17.479525 -40.219158,15.344191 -36.116279,14.68033 -36.57291,17.018523 "
         id="polygon542" />
      <polygon
         points="-41.315145,8.570635 -37.235583,12.306054 -40.62208,12.854002 "
         id="polygon544" />
      <polygon
         points="-49.048856,18.76099 -49.388741,16.660385 -45.789642,16.078037 -45.437149,18.256557 "
         id="polygon546" />
      <polygon
         points="-46.886265,9.3005498 -46.168139,13.7388 -49.767239,14.321148 -50.470875,9.9724479 "
         id="polygon548" />
      <polygon
         points="-55.765563,12.837042 -55.876712,10.985716 -50.470875,9.9724479 -49.858442,13.757484 -55.082208,14.602709 "
         id="polygon550" />
      <polygon
         points="-53.245982,19.347187 -55.082208,14.602709 -49.858442,13.757484 -49.048856,18.76099 "
         id="polygon552" />
      <polygon
         points="-36.456922,19.554959 -35.239353,13.320361 -28.182723,10.589277 -27.571452,12.651119 "
         id="polygon554" />
      <polygon
         points="-40.862602,8.1714766 -35.86532,7.2347879 -34.759456,13.134629 -35.239353,13.320361 "
         id="polygon556" />
      <polygon
         points="-28.182723,10.589277 -34.759456,13.134629 -35.86532,7.2347879 -29.529314,6.0471692 "
         id="polygon558" />
    </g>
    <g
       id="g560"
       style="fill:#99948a;stroke:#1a1917;stroke-width:0.30000001">
      <polygon
         points="-38.057942,-19.085243 -42.677055,-15.986949 -45.812787,-20.174864 -41.918371,-23.545865 "
         id="polygon562" />
      <polygon
         points="-36.191419,-16.928527 -34.74596,-15.258337 -36.93214,-13.366316 -37.108934,-13.41245 "
         id="polygon564" />
      <polygon
         points="-34.431069,-12.713666 -36.93214,-13.366316 -34.74596,-15.258337 -33.234587,-13.511986 "
         id="polygon566" />
      <polygon
         points="-37.662332,-18.628127 -36.191419,-16.928527 -37.108934,-13.41245 -39.059446,-13.921433 -37.86708,-18.490791 "
         id="polygon568" />
      <polygon
         points="-43.105339,-14.977202 -37.86708,-18.490791 -39.059446,-13.921433 "
         id="polygon570" />
      <polygon
         points="-38.319187,-26.661313 -35.742045,-23.684018 -38.887835,-20.961028 -41.464717,-23.938547 "
         id="polygon572" />
      <polygon
         points="-34.274813,-21.988969 -36.467154,-19.607613 -38.173723,-21.579162 -35.742045,-23.684018 "
         id="polygon574" />
      <polygon
         points="-38.887835,-20.961028 -38.173723,-21.579162 -36.467154,-19.607613 -37.11114,-18.908105 "
         id="polygon576" />
      <polygon
         points="-35.605499,-29.010277 -33.258404,-26.298749 -35.972093,-23.949785 -38.319187,-26.661313 "
         id="polygon578" />
      <polygon
         points="-34.274813,-21.988969 -35.972093,-23.949785 -33.258404,-26.298749 -31.828219,-24.646499 "
         id="polygon580" />
      <polygon
         points="-35.605499,-29.010277 -34.50467,-29.963153 -32.957675,-28.175955 -34.058503,-27.22308 "
         id="polygon582" />
      <polygon
         points="-31.65641,-29.302328 -32.957675,-28.175955 -34.50467,-29.963153 -33.136704,-31.147262 "
         id="polygon584" />
      <polygon
         points="-31.828219,-24.646499 -34.058503,-27.22308 -31.65641,-29.302328 -29.740388,-26.914334 "
         id="polygon586" />
      <polygon
         points="-28.392192,-16.742942 -29.385781,-17.981281 -25.241125,-21.306772 -23.954843,-19.703642 "
         id="polygon588" />
      <polygon
         points="-29.360604,-26.440999 -25.241125,-21.306772 -29.385781,-17.981281 -33.000876,-22.486878 "
         id="polygon590" />
      <polygon
         points="-31.275568,-20.336576 -33.522862,-18.533445 -34.974685,-20.342894 -33.000876,-22.486878 "
         id="polygon592" />
      <polygon
         points="-36.715964,-18.45149 -34.974685,-20.342894 -33.522862,-18.533445 -35.44923,-16.987812 "
         id="polygon594" />
      <polygon
         points="-30.43716,-15.378493 -31.983371,-17.30558 -30.073291,-18.838144 -28.392192,-16.742942 "
         id="polygon596" />
      <polygon
         points="-35.44923,-16.987812 -33.185647,-18.804012 -30.43716,-15.378493 -32.73156,-13.847617 "
         id="polygon598" />
      <polygon
         points="-27.655153,-25.274195 -25.42143,-27.484955 -20.843632,-21.779513 -23.453812,-20.037942 "
         id="polygon600" />
      <polygon
         points="-23.521341,-25.116819 -22.047841,-26.299091 -19.266075,-22.832095 -20.843632,-21.779513 "
         id="polygon602" />
      <polygon
         points="-18.436451,-23.385639 -19.266075,-22.832095 -22.047841,-26.299091 -19.715011,-28.170852 "
         id="polygon604" />
      <polygon
         points="-25.42143,-27.484955 -24.454033,-28.442407 -22.206644,-26.171674 -23.521341,-25.116819 "
         id="polygon606" />
      <polygon
         points="-22.270934,-30.603064 -20.648709,-28.963989 -22.831809,-26.803332 -24.454033,-28.442407 "
         id="polygon608" />
      <polygon
         points="-19.715011,-28.170852 -19.797901,-28.104344 -22.270934,-30.603064 -20.763502,-32.094999 "
         id="polygon610" />
      <polygon
         points="-28.557275,-35.111209 -27.066229,-33.570492 -28.978568,-31.719806 -30.572498,-33.366835 "
         id="polygon612" />
      <polygon
         points="-27.44135,-30.131379 -28.978568,-31.719806 -27.066229,-33.570492 -25.529012,-31.982065 "
         id="polygon614" />
      <polygon
         points="-29.755463,-27.891872 -30.900464,-29.31892 -28.708238,-31.440471 -27.44135,-30.131379 "
         id="polygon616" />
      <polygon
         points="-30.572498,-33.366835 -28.708238,-31.440471 -30.900464,-29.31892 -32.682735,-31.540217 "
         id="polygon618" />
      <polygon
         points="-29.755463,-27.891872 -26.881386,-30.67329 -25.008404,-28.737913 -28.032684,-25.744723 "
         id="polygon620" />
      <polygon
         points="-23.670709,-30.061856 -25.008404,-28.737913 -26.881386,-30.67329 -25.529012,-31.982065 "
         id="polygon622" />
      <polygon
         points="-23.244232,-30.483949 -25.995694,-33.327071 -22.100025,-37.097148 -20.941886,-32.762627 "
         id="polygon624" />
      <polygon
         points="-22.881979,-40.023736 -22.100025,-37.097148 -25.995694,-33.327071 -28.102921,-35.504497 "
         id="polygon626" />
    </g>
    <g
       id="g628"
       style="fill:#99948a;stroke:#1a1917;stroke-width:0.30000001">
      <polygon
         points="28.072625,-20.106941 35.435086,-20.100785 35.431406,-15.699063 27.998977,-16.897791 "
         id="polygon630" />
      <polygon
         points="39.788523,-0.96401481 36.317457,-1.4763259 36.869315,-6.6126927 42.180815,-6.0420185 41.732164,-1.8662353 "
         id="polygon632" />
      <polygon
         points="45.923977,-3.8120368 41.732164,-1.8662353 42.180815,-6.0420185 45.854427,-5.6473211 "
         id="polygon634" />
      <polygon
         points="45.854427,-5.6473211 42.467375,-6.0112302 43.026198,-11.212431 45.654232,-10.930072 "
         id="polygon636" />
      <polygon
         points="31.435816,-2.1968306 31.71982,-4.1210448 35.93137,-3.499442 35.723424,-1.564002 "
         id="polygon638" />
      <polygon
         points="36.284427,-6.7854855 35.93137,-3.499442 31.71982,-4.1210448 32.467122,-9.1842502 "
         id="polygon640" />
      <polygon
         points="31.435816,-2.1968306 29.264902,-2.5172461 29.691767,-5.4093865 31.86268,-5.088971 "
         id="polygon642" />
      <polygon
         points="27.741929,-5.6971723 29.691767,-5.4093865 29.264902,-2.5172461 27.674339,-2.7520049 "
         id="polygon644" />
      <polygon
         points="32.467122,-9.1842502 32.217292,-7.4915717 28.478013,-8.0434696 31.649601,-9.6979742 "
         id="polygon646" />
      <polygon
         points="31.86268,-5.088971 27.741929,-5.6971723 27.787508,-7.6832575 28.478013,-8.0434696 32.217292,-7.4915717 "
         id="polygon648" />
      <polygon
         points="31.677335,-10.389176 31.763119,-11.187606 36.700402,-10.657138 36.355748,-7.4492975 "
         id="polygon650" />
      <polygon
         points="27.985081,-16.292278 32.237877,-15.606372 31.677335,-10.389176 27.803227,-8.3681909 "
         id="polygon652" />
      <polygon
         points="51.183894,-6.2536421 48.316725,-4.9227287 48.039043,-7.9335792 51.00374,-8.2070053 "
         id="polygon654" />
      <polygon
         points="46.374037,-7.7800202 48.039043,-7.9335792 48.316725,-4.9227287 46.514028,-4.0859331 "
         id="polygon656" />
      <polygon
         points="54.764823,-9.198001 53.377299,-7.2718008 51.183894,-6.2536421 50.900096,-9.3307955 54.720083,-9.6831027 "
         id="polygon658" />
      <polygon
         points="37.612891,-35.817544 41.086726,-35.389152 40.676241,-32.060524 37.610066,-32.438644 "
         id="polygon660" />
      <polygon
         points="28.87479,-26.547296 32.587255,-31.046451 37.608899,-31.042253 37.605134,-26.539997 "
         id="polygon662" />
      <polygon
         points="37.612891,-35.817544 37.608899,-31.042253 32.587255,-31.046451 36.624667,-35.939411 "
         id="polygon664" />
      <polygon
         points="31.946684,-26.544728 34.489962,-26.542602 34.487829,-23.991239 31.944551,-23.993365 "
         id="polygon666" />
      <polygon
         points="37.481364,-23.988736 34.487829,-23.991239 34.489962,-26.542602 37.483497,-26.540099 "
         id="polygon668" />
      <polygon
         points="31.941801,-20.703706 31.944551,-23.993365 37.481364,-23.988736 37.478614,-20.699077 "
         id="polygon670" />
      <polygon
         points="28.159618,-23.897595 28.201708,-25.731584 28.87479,-26.547296 30.021941,-26.546337 30.019726,-23.89604 "
         id="polygon672" />
      <polygon
         points="31.944469,-23.89443 30.019726,-23.89604 30.021941,-26.546337 31.946684,-26.544728 "
         id="polygon674" />
      <polygon
         points="31.941801,-20.703706 30.143632,-20.705209 30.1463,-23.895934 31.944469,-23.89443 "
         id="polygon676" />
      <polygon
         points="28.159618,-23.897595 30.1463,-23.895934 30.143632,-20.705209 28.086394,-20.706929 "
         id="polygon678" />
    </g>
    <g
       id="g680"
       style="fill:#99948a;stroke:#1a1917;stroke-width:0.30000001">
      <polygon
         points="47.273894,29.810976 48.405118,30.625817 48.175853,33.235066 44.803783,34.124846 43.575292,31.638263 "
         id="polygon682" />
      <polygon
         points="34.879721,24.35985 35.355792,25.752133 30.733962,27.332502 29.971001,25.101203 "
         id="polygon684" />
      <polygon
         points="31.616375,29.913142 30.733962,27.332502 35.355792,25.752133 36.238205,28.332773 "
         id="polygon686" />
      <polygon
         points="38.069709,33.689054 36.221467,28.283823 41.519794,25.666195 46.722799,29.414012 "
         id="polygon688" />
      <polygon
         points="34.879721,24.35985 38.197269,23.858808 39.206132,26.809255 36.221467,28.283823 "
         id="polygon690" />
      <polygon
         points="41.519794,25.666195 39.206132,26.809255 38.197269,23.858808 38.869661,23.757258 "
         id="polygon692" />
      <polygon
         points="18.492843,47.036656 21.013583,45.74765 22.273444,48.211394 19.840078,49.671266 "
         id="polygon694" />
      <polygon
         points="18.492843,47.036656 17.34597,44.793869 19.997555,43.437954 21.144428,45.680741 "
         id="polygon696" />
      <polygon
         points="16.431567,43.005692 17.088887,41.411945 18.57336,40.652844 19.997555,43.437954 17.34597,44.793869 "
         id="polygon698" />
      <polygon
         points="20.508328,33.121121 23.160313,38.307258 17.088887,41.411945 "
         id="polygon700" />
      <polygon
         points="29.368032,25.192268 29.619311,25.927139 26.081993,27.136675 25.611143,25.759663 "
         id="polygon702" />
      <polygon
         points="27.004087,29.833362 26.081993,27.136675 29.619311,25.927139 30.541405,28.623826 "
         id="polygon704" />
      <polygon
         points="24.705023,30.619494 23.270448,26.424044 23.40718,26.092522 25.611143,25.759663 27.004087,29.833362 "
         id="polygon706" />
      <polygon
         points="23.270448,26.424044 24.909752,31.218229 20.699374,32.657908 "
         id="polygon708" />
      <polygon
         points="26.214461,35.033885 22.190107,36.409955 20.508328,33.121121 20.699374,32.657908 24.909752,31.218229 "
         id="polygon710" />
      <polygon
         points="26.827714,45.479109 24.638609,41.198167 29.688397,38.615905 31.702467,42.554554 "
         id="polygon712" />
      <polygon
         points="32.050843,33.038217 33.664586,37.757649 29.90661,39.042635 27.612282,34.55592 "
         id="polygon714" />
      <polygon
         points="31.702467,42.554554 29.90661,39.042635 33.664586,37.757649 34.691622,40.761243 "
         id="polygon716" />
      <polygon
         points="20.113877,50.206699 25.662624,46.877788 27.849506,53.273381 22.331761,54.543922 "
         id="polygon718" />
    </g>
    <g
       id="g720"
       style="fill:#99948a;stroke:#1a1917;stroke-width:0.30000001">
      <polygon
         points="46.931336,1.6468186 44.800708,2.6358367 42.958425,-1.3329693 45.089053,-2.3219874 "
         id="polygon722" />
      <polygon
         points="43.159359,3.397736 40.332169,0.41546465 40.351883,-0.12303638 42.958425,-1.3329693 44.800708,2.6358367 "
         id="polygon724" />
      <polygon
         points="45.089053,-2.3219874 46.804217,-3.1181512 47.979738,-0.58574218 46.264574,0.21042157 "
         id="polygon726" />
      <polygon
         points="49.862984,-1.4599278 47.979738,-0.58574218 46.804217,-3.1181512 48.687463,-3.9923368 "
         id="polygon728" />
      <polygon
         points="51.33541,-0.39751246 50.529747,-0.023530782 48.687463,-3.9923368 50.433163,-4.8026748 "
         id="polygon730" />
      <polygon
         points="43.159359,3.397736 45.609335,2.2604797 47.245695,5.7856681 45.980062,6.3731636 "
         id="polygon732" />
      <polygon
         points="40.301428,1.2551492 42.816188,3.9078514 40.110409,6.4729267 "
         id="polygon734" />
      <polygon
         points="41.166731,12.656738 39.869257,13.060112 40.110409,6.4729267 40.700453,5.9135656 44.287938,9.6978358 "
         id="polygon736" />
      <polygon
         points="42.816188,3.9078514 44.422734,5.6025219 42.306999,7.6082361 40.700453,5.9135656 "
         id="polygon738" />
      <polygon
         points="41.166731,12.656738 44.081064,9.8939521 45.440573,11.328034 "
         id="polygon740" />
      <polygon
         points="45.440573,11.328034 44.988658,10.851331 47.311267,8.6495005 48.846655,10.26911 "
         id="polygon742" />
      <polygon
         points="46.403672,7.6921216 47.311267,8.6495005 44.988658,10.851331 44.081064,9.8939521 "
         id="polygon744" />
      <polygon
         points="39.600627,20.397898 39.733581,16.766191 45.782413,16.933352 45.682025,20.565958 "
         id="polygon746" />
      <polygon
         points="39.84599,13.695673 42.609268,12.836592 45.833643,15.079578 45.782413,16.933352 39.733581,16.766191 "
         id="polygon748" />
      <polygon
         points="44.694919,20.53868 44.62917,22.917841 39.513549,22.77647 39.600627,20.397898 "
         id="polygon750" />
      <polygon
         points="39.505981,22.983191 39.513549,22.77647 44.62917,22.917841 44.527407,26.600213 "
         id="polygon752" />
      <polygon
         points="48.982256,29.80912 44.717534,26.737165 49.11582,26.858712 49.034965,29.784493 "
         id="polygon754" />
      <polygon
         points="44.527407,26.600213 44.623137,23.136158 49.215186,23.26306 49.11582,26.858712 44.717534,26.737165 "
         id="polygon756" />
      <polygon
         points="49.643046,29.50038 49.738573,26.043672 53.207222,24.42302 54.51578,27.2237 "
         id="polygon758" />
      <polygon
         points="43.335424,12.610836 45.763838,11.855861 46.733432,14.974608 "
         id="polygon760" />
    </g>
    <g
       id="g762"
       style="fill:#99948a;stroke:#1a1917;stroke-width:0.30000001">
      <polygon
         points="-1.9221598,51.182015 -1.8645819,54.072372 -7.3214033,54.181076 -7.3675711,51.863496 "
         id="polygon764" />
      <polygon
         points="-14.348509,64.75474 -14.205568,59.696105 -7.2143146,59.556835 -7.1136399,64.610616 "
         id="polygon766" />
      <polygon
         points="-7.2680958,56.857065 -7.2143146,59.556835 -14.205568,59.696105 -14.129208,56.993743 "
         id="polygon768" />
      <polygon
         points="-14.428,67.567919 -14.348509,64.75474 -7.1136399,64.610616 -7.0576532,67.421097 "
         id="polygon770" />
      <polygon
         points="-7.3675711,51.863496 -7.2680958,56.857065 -14.129208,56.993743 -14.007725,52.694498 "
         id="polygon772" />
      <polygon
         points="-0.079287739,50.346703 -0.68811921,45.481806 3.8062399,44.919347 3.3867728,49.912933 "
         id="polygon774" />
      <polygon
         points="-0.68811921,45.481806 -1.0041422,42.95661 4.0239706,42.327353 3.8062399,44.919347 "
         id="polygon776" />
      <polygon
         points="4.1453041,40.882926 4.0239706,42.327353 -1.0041422,42.95661 -1.4214314,39.622241 "
         id="polygon778" />
      <polygon
         points="-7.3593788,51.257791 -7.7792572,47.902733 -0.49916614,46.991645 -0.079287739,50.346703 "
         id="polygon780" />
      <polygon
         points="-8.6884985,40.637398 -5.6352478,38.667947 -1.4214314,39.622241 -0.49916614,46.991645 -7.7792572,47.902733 "
         id="polygon782" />
      <polygon
         points="-13.990578,52.087671 -13.870579,47.840925 -7.8808042,47.091317 -7.3593788,51.257791 "
         id="polygon784" />
      <polygon
         points="-8.6884985,40.637398 -7.8808042,47.091317 -13.870579,47.840925 -13.759457,43.908338 "
         id="polygon786" />
      <polygon
         points="20.805021,57.160761 19.558074,60.657558 13.00436,60.440417 13.121458,56.906185 "
         id="polygon788" />
      <polygon
         points="9.4159993,42.076569 15.542816,43.464095 15.801173,43.969331 15.603322,46.324672 9.1050069,45.778806 "
         id="polygon790" />
      <polygon
         points="4.7361767,41.01674 9.4159993,42.076569 8.5670241,52.183272 3.8315888,51.78549 "
         id="polygon792" />
      <polygon
         points="21.520603,55.154063 21.016596,56.567442 14.760329,56.360156 15.180961,51.352705 19.774033,51.738528 "
         id="polygon794" />
      <polygon
         points="15.801173,43.969331 19.774033,51.738528 15.180961,51.352705 "
         id="polygon796" />
    </g>
    <g
       id="g798"
       style="fill:#99948a;stroke:#1a1917;stroke-width:0.30000001">
      <polygon
         points="-68.984189,-27.59677 -67.509559,-31.16371 -64.096259,-29.100202 -66.045606,-25.87574 "
         id="polygon800" />
      <polygon
         points="-61.937955,-32.670307 -57.678564,-30.095296 -61.750307,-23.360126 -66.045606,-25.87574 "
         id="polygon802" />
      <polygon
         points="-52.791695,-23.53298 -55.859882,-25.387851 -54.262501,-28.030117 -51.194314,-26.175247 "
         id="polygon804" />
      <polygon
         points="-55.211392,-19.5305 -58.24349,-21.306299 -55.798445,-25.350709 -52.791695,-23.53298 "
         id="polygon806" />
      <polygon
         points="-59.275945,-27.453029 -55.798445,-25.350709 -58.24349,-21.306299 -61.750307,-23.360126 "
         id="polygon808" />
      <polygon
         points="-54.6936,-19.227247 -49.287953,-28.168861 -42.703922,-24.188489 -50.960992,-17.041182 "
         id="polygon810" />
      <polygon
         points="-41.370087,-31.667077 -44.687509,-28.634841 -47.286953,-31.478766 -44.862921,-35.488417 "
         id="polygon812" />
      <polygon
         points="-38.142969,-28.136443 -41.27891,-25.421977 -44.430389,-28.869857 -41.370087,-31.667077 "
         id="polygon814" />
      <polygon
         points="-46.825801,-26.680369 -44.430389,-28.869857 -41.27891,-25.421977 -42.703922,-24.188489 "
         id="polygon816" />
      <polygon
         points="-37.68915,-28.529269 -39.873608,-30.919178 -36.701174,-36.023 -32.237325,-33.24836 "
         id="polygon818" />
      <polygon
         points="-36.261183,-36.455974 -33.577595,-40.894963 -27.587219,-37.273484 -31.762289,-33.65955 "
         id="polygon820" />
      <polygon
         points="-23.04671,-41.203741 -27.587219,-37.273484 -33.577595,-40.894963 -30.742705,-45.584225 "
         id="polygon822" />
    </g>
    <g
       id="g824"
       style="fill:#99948a;stroke:#1a1917;stroke-width:0.30000001">
      <polygon
         points="-24.488612,55.139899 -21.49875,46.842016 -14.871529,47.860417 -15.144829,57.532438 "
         id="polygon826" />
      <polygon
         points="-33.287221,37.928082 -28.787431,39.400545 -31.330716,47.172724 -33.473691,46.471479 "
         id="polygon828" />
      <polygon
         points="-23.212818,49.829137 -26.416608,48.780764 -23.873323,41.008585 -20.439498,42.132233 "
         id="polygon830" />
      <polygon
         points="-28.787431,39.400545 -23.873323,41.008585 -26.416608,48.780764 -31.330716,47.172724 "
         id="polygon832" />
      <polygon
         points="-22.384305,66.759593 -21.854462,61.925699 -15.289302,62.645306 -15.427107,67.522171 "
         id="polygon834" />
      <polygon
         points="-15.162204,58.147346 -15.289302,62.645306 -21.854462,61.925699 -21.268924,56.583679 "
         id="polygon836" />
      <polygon
         points="-38.383079,44.513437 -37.542742,40.96156 -33.972012,41.806357 -34.053455,45.537781 "
         id="polygon838" />
      <polygon
         points="-33.883108,37.73309 -33.972012,41.806357 -37.542742,40.96156 -36.570839,36.853586 "
         id="polygon840" />
      <polygon
         points="-45.049741,41.866681 -46.040426,46.054041 -51.499106,44.762575 -50.542301,40.567199 "
         id="polygon842" />
      <polygon
         points="-46.040426,46.054041 -46.561741,48.257499 -52.002593,46.970251 -51.499106,44.762575 "
         id="polygon844" />
      <polygon
         points="-52.002593,46.970251 -49.05163,47.668418 -50.023003,51.774148 -52.940746,51.083841 "
         id="polygon846" />
      <polygon
         points="-36.570839,36.853586 -37.257326,39.755181 -44.13901,38.127047 -43.315553,34.646518 "
         id="polygon848" />
      <polygon
         points="-50.542301,40.567199 -49.636382,36.594948 -44.087148,37.907839 -45.025145,41.872501 "
         id="polygon850" />
      <polygon
         points="-48.989174,33.757084 -47.906615,33.144188 -43.315553,34.646518 -44.087148,37.907839 -49.636382,36.594948 "
         id="polygon852" />
    </g>
    <g
       id="g854"
       style="fill:#99948a;stroke:#1a1917;stroke-width:0.30000001">
      <polygon
         points="1.1497928,-49.838502 -1.8700689,-52.021415 -0.26492813,-55.713293 3.2846925,-54.748843 "
         id="polygon856" />
      <polygon
         points="-4.1170676,-56.759938 -0.26492813,-55.713293 -1.8700689,-52.021415 -5.097968,-54.354709 "
         id="polygon858" />
      <polygon
         points="-2.0426332,-63.435462 -3.0677129,-60.921902 -7.0684596,-62.553486 -6.4774985,-64.00256 "
         id="polygon860" />
      <polygon
         points="-6.9447952,-59.208745 -6.4730301,-60.365543 -3.747851,-59.254161 -4.2196161,-58.097363 "
         id="polygon862" />
      <polygon
         points="-3.0677129,-60.921902 -3.747851,-59.254161 -6.4730301,-60.365543 -5.792892,-62.033284 "
         id="polygon864" />
      <polygon
         points="-10.730419,-60.752598 -10.142746,-62.039754 -7.6864874,-61.038043 -8.2203628,-59.728947 "
         id="polygon866" />
      <polygon
         points="-6.4774985,-64.00256 -7.0427397,-62.616553 -9.434129,-63.591809 -9.093845,-64.337119 "
         id="polygon868" />
      <polygon
         points="-10.142746,-62.039754 -9.434129,-63.591809 -7.0427397,-62.616553 -7.6864874,-61.038043 "
         id="polygon870" />
      <polygon
         points="-8.6732469,-59.913642 -7.2886584,-59.34898 -8.3629315,-56.714794 -9.6101336,-57.616337 "
         id="polygon872" />
      <polygon
         points="-5.1636373,-55.782564 -6.8281303,-56.461377 -5.8841092,-58.776176 -4.2196161,-58.097363 "
         id="polygon874" />
      <polygon
         points="-8.3629315,-56.714794 -8.2326796,-57.03418 -5.1636373,-55.782564 -5.5984161,-54.716459 "
         id="polygon876" />
      <polygon
         points="-10.730419,-60.752598 -8.6732469,-59.913642 -9.6101336,-57.616337 -11.529037,-59.00342 "
         id="polygon878" />
      <polygon
         points="1.5662518,-63.57887 1.8484441,-65.237377 4.3618041,-64.809733 4.0973058,-63.255218 "
         id="polygon880" />
      <polygon
         points="7.3668136,-65.697879 7.6814068,-64.861432 6.8310762,-62.905644 4.0973058,-63.255218 4.5932178,-66.169802 "
         id="polygon882" />
      <polygon
         points="2.808333,-70.878856 4.2030769,-70.810654 3.6806037,-67.739963 2.3138242,-67.972519 "
         id="polygon884" />
      <polygon
         points="0.97058867,-63.655039 -1.0626703,-63.915037 -0.34491272,-68.133457 1.6741322,-67.78992 "
         id="polygon886" />
      <polygon
         points="-0.34491272,-68.133457 -0.58846597,-66.702041 -3.0548918,-67.1217 -2.5710871,-68.512238 "
         id="polygon888" />
      <polygon
         points="-4.0381923,-64.295525 -3.0548918,-67.1217 -0.58846597,-66.702041 -1.0626703,-63.915037 "
         id="polygon890" />
      <polygon
         points="-2.2961123,-71.128462 -3.5008135,-67.665944 -7.0156715,-68.888856 -5.9124037,-71.305298 "
         id="polygon892" />
      <polygon
         points="-8.8329082,-64.908638 -7.0156715,-68.888856 -3.5008135,-67.665944 -4.6464112,-64.3733 "
         id="polygon894" />
      <polygon
         points="6.6518264,-69.303297 5.8899908,-71.328881 6.4572823,-72.571396 7.9785673,-71.909977 6.8144949,-69.232572 "
         id="polygon896" />
      <polygon
         points="-3.2657901,-77.102065 0.31380439,-75.46774 -1.4128201,-71.685986 -5.6441256,-71.892896 "
         id="polygon898" />
      <polygon
         points="0.31380439,-75.46774 3.3374779,-74.08723 2.1613519,-71.51121 -1.4128201,-71.685986 "
         id="polygon900" />
      <polygon
         points="-3.2657901,-77.102065 -2.5620973,-78.643334 -0.23187252,-77.57943 -0.93556526,-76.038161 "
         id="polygon902" />
      <polygon
         points="0.17186443,-78.463719 -0.23187252,-77.57943 -2.5620973,-78.643334 -2.1583604,-79.527623 "
         id="polygon904" />
      <polygon
         points="-1.1380264,-81.762418 1.6518423,-80.092341 0.78124027,-78.185498 -2.1583604,-79.527623 "
         id="polygon906" />
      <polygon
         points="1.9773603,-77.639389 0.78124027,-78.185498 1.6518423,-80.092341 2.7870366,-79.412789 "
         id="polygon908" />
      <polygon
         points="4.8066135,-78.203826 4.364587,-77.235674 2.2366197,-78.207233 2.7870366,-79.412789 "
         id="polygon910" />
      <polygon
         points="12.473072,-66.020596 14.607189,-65.092733 13.808077,-63.25475 11.461875,-63.69481 "
         id="polygon912" />
      <polygon
         points="14.607189,-65.092733 15.718055,-64.609755 15.029339,-63.025687 13.808077,-63.25475 "
         id="polygon914" />
      <polygon
         points="16.357423,-62.776588 15.029339,-63.025687 15.718055,-64.609755 16.827063,-64.127584 "
         id="polygon916" />
      <polygon
         points="12.209813,-73.772108 14.661894,-72.304239 13.347892,-69.28199 10.748904,-70.411968 "
         id="polygon918" />
      <polygon
         points="10.269091,-61.009904 9.1700585,-61.487737 10.218101,-63.89827 11.133136,-63.146007 "
         id="polygon920" />
      <polygon
         points="6.7170197,-61.138499 8.4376902,-60.442495 7.7740588,-58.801857 6.0111395,-59.514951 "
         id="polygon922" />
      <polygon
         points="9.1507019,-58.24501 7.7740588,-58.801857 8.4376902,-60.442495 9.8143333,-59.885648 "
         id="polygon924" />
      <polygon
         points="5.2247633,-57.70626 6.0111395,-59.514951 9.1507019,-58.24501 8.4113923,-56.417281 "
         id="polygon926" />
      <polygon
         points="9.7018118,-59.607471 12.035254,-58.663603 10.744834,-55.473413 8.4113923,-56.417281 "
         id="polygon928" />
      <polygon
         points="13.439717,-54.383343 10.744834,-55.473413 12.035254,-58.663603 14.571074,-57.637873 "
         id="polygon930" />
      <polygon
         points="9.7018118,-59.607471 10.501888,-61.585428 12.912554,-60.610323 12.112478,-58.632366 "
         id="polygon932" />
      <polygon
         points="12.112478,-58.632366 12.746757,-60.200437 15.12717,-59.23757 14.571074,-57.637873 "
         id="polygon934" />
      <polygon
         points="16.1582,-62.203492 15.12717,-59.23757 12.746757,-60.200437 13.740418,-62.656978 "
         id="polygon936" />
      <polygon
         points="20.540609,-61.240331 21.504955,-62.851275 24.944134,-60.792507 23.94088,-59.204855 "
         id="polygon938" />
      <polygon
         points="21.504955,-62.851275 22.383697,-64.319216 25.85833,-62.239224 24.944134,-60.792507 "
         id="polygon940" />
      <polygon
         points="23.865582,-66.79471 25.666287,-65.716768 24.184402,-63.241274 22.383697,-64.319216 "
         id="polygon942" />
      <polygon
         points="25.85833,-62.239224 24.184402,-63.241274 25.666287,-65.716768 27.400004,-64.678927 "
         id="polygon944" />
      <polygon
         points="22.445098,-64.421786 20.728149,-65.44959 22.148633,-67.822513 23.865582,-66.79471 "
         id="polygon946" />
      <polygon
         points="21.166478,-68.410452 22.148633,-67.822513 20.728149,-65.44959 19.745994,-66.037529 "
         id="polygon948" />
      <polygon
         points="19.332716,-69.508183 21.166478,-68.410452 19.745994,-66.037529 18.405235,-66.840137 "
         id="polygon950" />
      <polygon
         points="17.161732,-63.263002 17.775369,-65.028227 18.803489,-64.412772 17.863672,-62.842805 "
         id="polygon952" />
      <polygon
         points="17.161732,-63.263002 19.243901,-62.016569 16.800763,-57.935298 15.566526,-58.674139 "
         id="polygon954" />
      <polygon
         points="19.529071,-56.302073 21.198663,-59.091132 23.136123,-57.931325 21.399169,-55.182591 "
         id="polygon956" />
      <polygon
         points="23.94088,-59.204855 23.136123,-57.931325 21.198663,-59.091132 21.97221,-60.383344 "
         id="polygon958" />
      <polygon
         points="19.351416,-56.408421 18.46243,-54.923368 14.986078,-57.004389 15.566526,-58.674139 "
         id="polygon960" />
      <polygon
         points="13.996627,-54.158075 14.986078,-57.004389 18.46243,-54.923368 17.22306,-52.852996 "
         id="polygon962" />
      <polygon
         points="21.399169,-55.182591 20.079248,-53.093811 18.832583,-52.20195 17.22306,-52.852996 19.351416,-56.408421 "
         id="polygon964" />
      <polygon
         points="2.3437692,-51.079877 3.1758588,-52.993711 7.5818896,-51.211489 6.7996027,-49.27751 "
         id="polygon966" />
      <polygon
         points="4.9854512,-57.155834 7.1108164,-56.296132 5.4095328,-52.090198 3.1758588,-52.993711 "
         id="polygon968" />
      <polygon
         points="7.5818896,-51.211489 5.4095328,-52.090198 7.1108164,-56.296132 9.2831732,-55.417422 "
         id="polygon970" />
      <polygon
         points="11.887631,-54.363929 11.233963,-52.747924 8.6295055,-53.801417 9.2831732,-55.417422 "
         id="polygon972" />
      <polygon
         points="1.6475989,-49.478662 2.3437692,-51.079877 9.4040602,-48.224017 8.0419188,-44.856515 "
         id="polygon974" />
      <polygon
         points="8.0419188,-44.856515 9.8258368,-49.266738 12.95845,-47.999608 8.3020844,-44.668453 "
         id="polygon976" />
      <polygon
         points="18.254647,-51.788496 16.549411,-50.568573 13.995531,-51.601608 14.659375,-53.24277 "
         id="polygon978" />
      <polygon
         points="12.597581,-48.145578 13.995531,-51.601608 16.549411,-50.568573 12.95845,-47.999608 "
         id="polygon980" />
      <polygon
         points="14.659375,-53.24277 13.766229,-51.034725 10.994485,-52.155885 11.887631,-54.363929 "
         id="polygon982" />
    </g>
    <g
       id="g984"
       style="fill:#99948a;fill-rule:nonzero;stroke:#1a1917;stroke-width:0.60000002">
      <path
         d="m -70.213108,18.361519 3.40549,-0.771342 1.097261,4.844433 1.009701,4.45785 1.466788,6.475899 4.276656,-0.96866 1.222996,5.399555 0.857245,3.784753 -4.276655,0.96866 -3.40549,0.771342 -4.043932,0.915948 -0.857244,-3.784753 -1.222997,-5.399555 -1.466788,-6.475899 -1.009701,-4.45785 4.043932,-0.915948 z"
         id="path986"
         inkscape:connector-curvature="0" />
    </g>
    <g
       id="g988"
       style="fill:#99948a;fill-rule:nonzero;stroke:#1a1917;stroke-width:0.30000001">
      <path
         d="m 25.473255,-79.561072 1.161752,0.605535 0.776739,0.404857 1.222566,0.637234 -0.457679,0.878082 -0.660348,1.266912 -1.222566,-0.637234 -0.571117,1.095717 -0.776739,-0.404857 0.571117,-1.095717 0.660347,-1.266911 -1.161752,-0.605536 z"
         id="path990"
         inkscape:connector-curvature="0" />
    </g>
    <g
       id="g992"
       style="fill:#99948a;fill-rule:nonzero;stroke:#1a1917;stroke-width:0.30000001">
      <path
         d="m 72.712475,-60.983428 -0.807191,1.089895 -0.48058,0.648894 -0.877242,-0.649697 -1.134872,-0.840501 -0.953811,1.287865 -0.931075,-0.689568 0.95381,-1.287865 0.48058,-0.648894 0.807191,-1.089895 0.931076,0.689567 1.134872,0.840502 z"
         id="path994"
         inkscape:connector-curvature="0" />
    </g>
    <g
       id="g996"
       style="fill:#99948a;fill-rule:nonzero;stroke:#1a1917;stroke-width:0.30000001">
      <path
         d="m -35.283112,-91.484937 -0.94586,0.389518 -1.096136,0.451403 -0.451233,-1.095721 -0.45473,-1.104214 -1.337187,0.550672 -0.467418,-1.135022 1.337187,-0.550672 1.096136,-0.451403 0.945861,-0.389519 0.467417,1.135023 0.45473,1.104213 z"
         id="path998"
         inkscape:connector-curvature="0" />
    </g>
    <g
       id="g1000"
       style="fill:#99948a;fill-rule:nonzero;stroke:#1a1917;stroke-width:0.30000001">
      <path
         d="m 68.111206,63.355231 0.304854,1.1965 -1.261061,0.321302 -0.86571,0.220573 0.527952,2.072126 -1.276975,0.325357 -0.527952,-2.072126 -0.304853,-1.196501 1.276975,-0.325357 0.865709,-0.220572 z"
         id="path1002"
         inkscape:connector-curvature="0" />
    </g>
    <g
       id="g1004"
       style="fill:#99948a;fill-rule:nonzero;stroke:#1a1917;stroke-width:0.30000001">
      <path
         d="m -101.5055,74.932149 1.233,0.416188 0.846452,0.28571 1.248563,0.42144 -0.444624,1.317251 -1.248563,-0.42144 -0.617768,1.830196 -0.84645,-0.28571 0.61777,-1.830196 -1.233,-0.416188 z"
         id="path1006"
         inkscape:connector-curvature="0" />
    </g>
    <g
       id="g1008"
       style="fill:#99948a;fill-rule:nonzero;stroke:#1a1917;stroke-width:0.30000001">
      <path
         d="m -75.044517,-115.82846 -1.405714,0.79389 -1.486791,0.83968 -0.567,-1.00397 -1.051888,-1.86254 1.486791,-0.83968 1.051888,1.86254 1.405714,-0.79388 z"
         id="path1010"
         inkscape:connector-curvature="0" />
    </g>
    <g
       id="g1012"
       style="fill:#99948a;fill-rule:nonzero;stroke:#1a1917;stroke-width:0.30000001">
      <path
         d="m 112.2463,50.052106 -0.79165,0.898718 -1.13514,-0.999905 -1.31874,1.497097 -1.403,-1.23585 1.31874,-1.497097 0.79165,-0.898718 1.403,1.23585 z"
         id="path1014"
         inkscape:connector-curvature="0" />
    </g>
    <g
       id="g1016"
       style="fill:#99948a;fill-rule:nonzero;stroke:#1a1917;stroke-width:0.30000001">
      <path
         d="m -120.77647,-47.720159 1.12282,0.229709 1.17978,0.241363 1.11078,0.227247 -0.22384,1.094131 -0.21181,1.035329 -0.26118,1.276632 -1.11078,-0.227247 -1.17978,-0.241362 -1.12281,-0.22971 0.26117,-1.276633 0.21181,-1.035328 z"
         id="path1018"
         inkscape:connector-curvature="0" />
    </g>
    <g
       id="g1020"
       style="fill:#99948a;fill-rule:nonzero;stroke:#1a1917;stroke-width:0.30000001">
      <path
         d="m -35.599758,141.30947 0.422484,0.95831 0.640311,1.4524 0.399074,0.90521 -1.21905,0.53743 -0.399074,-0.9052 -1.855934,0.81821 -0.640311,-1.4524 -0.422484,-0.95831 1.855933,-0.81821 z"
         id="path1022"
         inkscape:connector-curvature="0" />
    </g>
    <g
       id="g1024"
       style="fill:#99948a;fill-rule:nonzero;stroke:#1a1917;stroke-width:0.30000001">
      <path
         d="m 35.560362,-118.80009 -1.527639,0.24081 -1.683114,0.26532 -0.158397,-1.00483 -0.195301,-1.23894 -0.189021,-1.1991 1.683114,-0.26532 1.527639,-0.24081 0.189021,1.1991 0.195301,1.23894 z"
         id="path1026"
         inkscape:connector-curvature="0" />
    </g>
    <g
       id="g1028"
       style="fill:#99948a;fill-rule:nonzero;stroke:#1a1917;stroke-width:0.30000001">
      <path
         d="m 140.84841,-108.32528 0.95185,0.81675 -0.85589,0.99747 -0.72067,0.8399 0.92125,0.79048 -0.71978,0.83885 -0.92125,-0.79049 -0.95186,-0.81674 -0.77199,-0.66242 0.71977,-0.83884 0.72068,-0.8399 0.77199,0.66242 z"
         id="path1030"
         inkscape:connector-curvature="0" />
    </g>
    <g
       id="g1032"
       style="fill:#99948a;fill-rule:nonzero;stroke:#1a1917;stroke-width:0.30000001">
      <path
         d="m -153.3443,-101.86562 -0.20415,2.017108 -1.36423,-0.138074 -1.11833,-0.113184 -1.19978,-0.12143 0.20415,-2.01711 1.19978,0.12142 0.1334,-1.31807 1.11834,0.11318 -0.13341,1.31808 z"
         id="path1034"
         inkscape:connector-curvature="0" />
    </g>
    <g
       id="g1036"
       style="fill:#99948a;fill-rule:nonzero;stroke:#1a1917;stroke-width:0.30000001">
      <path
         d="m -179.52741,23.429544 0.70044,1.174 -1.60371,0.956803 0.5311,0.890175 -1.36734,0.815785 -0.5311,-0.890176 -0.70043,-1.174 -0.57525,-0.964172 1.36735,-0.815785 0.57524,0.964172 z"
         id="path1038"
         inkscape:connector-curvature="0" />
    </g>
    <g
       id="g1040"
       style="fill:#99948a;fill-rule:nonzero;stroke:#1a1917;stroke-width:0.30000001">
      <path
         d="m 192.69774,9.6702021 -1.02569,1.6954359 -0.69468,1.148285 -1.20138,-0.726805 -0.84319,-0.510105 -0.92509,-0.559651 0.69468,-1.1482852 1.0257,-1.695436 0.92508,0.5596515 0.84319,0.5101054 z"
         id="path1042"
         inkscape:connector-curvature="0" />
    </g>
    <g
       id="g1044"
       style="fill:#99948a;fill-rule:nonzero;stroke:#1a1917;stroke-width:0.30000001">
      <path
         d="m -120.00135,115.90119 -1.39031,0.19648 -0.97578,0.13789 -1.07057,0.1513 -0.18078,-1.27925 -0.19985,-1.41416 -0.15088,-1.0676 1.07057,-0.15129 0.97578,-0.1379 0.15088,1.0676 -0.97579,0.1379 0.19985,1.41416 0.97579,-0.1379 1.39031,-0.19648 z"
         id="path1046"
         inkscape:connector-curvature="0" />
    </g>
    <g
       id="g1048"
       style="fill:#99948a;fill-rule:nonzero;stroke:#1a1917;stroke-width:0.30000001">
      <path
         d="m 16.757068,-224.39407 -0.527538,1.08974 -0.51385,1.06146 -0.494565,1.02162 -1.43893,-0.69658 -0.492723,-0.23852 -1.569593,-0.75984 0.494565,-1.02162 0.51385,-1.06146 1.569593,0.75983 -0.51385,1.06146 0.492723,0.23853 0.51385,-1.06146 0.527537,-1.08974 z"
         id="path1050"
         inkscape:connector-curvature="0" />
    </g>
    <g
       id="g1052"
       style="fill:#99948a;fill-rule:nonzero;stroke:#1a1917;stroke-width:0.30000001">
      <path
         d="m 78.083248,-184.6689 1.051098,0.0598 1.21201,0.069 1.253877,0.0713 -0.05211,0.91595 -1.253877,-0.0713 -1.21201,-0.069 -0.08898,1.5642 -0.06706,1.17884 -1.051098,-0.0598 0.06706,-1.17885 0.08898,-1.56419 z"
         id="path1054"
         inkscape:connector-curvature="0" />
    </g>
    <g
       id="g1056"
       style="fill:#99948a;fill-rule:nonzero;stroke:#1a1917;stroke-width:0.30000001">
      <path
         d="m 189.59848,-195.04791 -0.17265,1.02701 -0.20846,1.23996 -0.24205,1.43982 -1.52343,-0.2561 -1.55023,-0.26062 0.24205,-1.43982 0.20845,-1.23996 0.17266,-1.02701 1.55023,0.26061 z"
         id="path1058"
         inkscape:connector-curvature="0" />
    </g>
    <g
       id="g1060"
       style="fill:#99948a;fill-rule:nonzero;stroke:#1a1917;stroke-width:0.30000001">
      <path
         d="m 108.43583,208.53846 -0.35165,0.69183 -0.66816,1.31453 -0.59345,1.16754 -1.41883,-0.72117 0.59345,-1.16754 0.66816,-1.31453 -1.58607,-0.80619 0.35165,-0.69183 1.58607,0.80619 z"
         id="path1062"
         inkscape:connector-curvature="0" />
    </g>
    <g
       id="g1064"
       style="fill:#99948a;fill-rule:nonzero;stroke:#1a1917;stroke-width:0.30000001">
      <path
         d="m 219.99838,72.351516 1.08898,1.19318 1.21734,1.333831 -0.6337,0.578357 -1.66746,1.521837 -1.21734,-1.333832 -1.08898,-1.19318 1.66746,-1.521837 z"
         id="path1066"
         inkscape:connector-curvature="0" />
    </g>
    <g
       id="g1068"
       style="fill:#99948a;fill-rule:nonzero;stroke:#1a1917;stroke-width:0.30000001">
      <path
         d="m -53.045212,240.07085 2.121577,0.59851 1.136195,0.32052 -0.367861,1.30399 -0.569822,2.0199 -1.136195,-0.32053 -2.121576,-0.5985 0.569821,-2.0199 z"
         id="path1070"
         inkscape:connector-curvature="0" />
    </g>
    <g
       id="g1072"
       style="fill:#99948a;fill-rule:nonzero;stroke:#1a1917;stroke-width:0.30000001">
      <path
         d="m 118.47304,281.56747 0.0907,1.08762 -1.74691,0.14566 0.1777,2.1311 -1.56902,0.13083 -0.17769,-2.1311 -0.0907,-1.08762 1.56901,-0.13083 z"
         id="path1074"
         inkscape:connector-curvature="0" />
    </g>
    <g
       id="g1076"
       style="fill:#99948a;fill-rule:nonzero;stroke:#1a1917;stroke-width:0.30000001">
      <path
         d="m -257.90383,129.69166 1.21183,1.28221 -0.94641,0.89446 -0.73153,0.69138 -1.21183,-1.28221 -0.95148,0.89925 -0.94877,-1.00387 0.95148,-0.89925 0.73153,-0.69138 0.94877,1.00387 z"
         id="path1078"
         inkscape:connector-curvature="0" />
    </g>
    <g
       id="g1080">
      <path
         d="m -74.234016,45.896118 -5.676066,-7.039466 1.911444,-22.833035 19.652642,-4.451314 6.947533,17.951176 m 0.320477,4.622723 -4.776121,20.94222 -18.379909,-9.192304"
         id="path1082"
         inkscape:connector-curvature="0"
         style="fill:none;stroke:#1a1917;stroke-width:1.89999998;stroke-linecap:round;stroke-linejoin:round" />
      <g
         id="g1084"
         style="stroke:#1a1917;stroke-width:3.79999995;stroke-linecap:butt">
        <line
           x1="-50.712685"
           y1="31.295403"
           x2="-50.655518"
           y2="32.293766"
           id="line1086"
           style="stroke:#ccc5b8;stroke-width:3.79999995;stroke-linecap:butt" />
        <line
           x1="-50.929932"
           y1="27.501617"
           x2="-50.712685"
           y2="31.295403"
           id="line1088" />
        <line
           x1="-50.655518"
           y1="32.293766"
           x2="-50.438271"
           y2="36.087551"
           id="line1090" />
      </g>
      <circle
         cx="-74.234016"
         cy="45.896118"
         r="2.5"
         id="circle1092"
         style="fill:#1a1917;stroke:none" />
      <circle
         cx="-79.91008"
         cy="38.856651"
         r="2.5"
         id="circle1094"
         style="fill:#1a1917;stroke:none" />
      <circle
         cx="-77.998642"
         cy="16.023617"
         r="2.5"
         id="circle1096"
         style="fill:#1a1917;stroke:none" />
      <circle
         cx="-58.345997"
         cy="11.572303"
         r="2.5"
         id="circle1098"
         style="fill:#1a1917;stroke:none" />
      <circle
         cx="-55.854107"
         cy="55.088421"
         r="2.5"
         id="circle1100"
         style="fill:#1a1917;stroke:none" />
      <circle
         cx="-78.954361"
         cy="27.440134"
         r="2.5"
         id="circle1102"
         style="fill:#1a1917;stroke:none" />
      <circle
         cx="-53.193779"
         cy="43.423473"
         r="2.5"
         id="circle1104"
         style="fill:#1a1917;stroke:none" />
    </g>
  </g>
</svg>
